<svg width="318" height="288" viewBox="0 0 318 288" fill="none" xmlns="http://www.w3.org/2000/svg">
<mask id="mask0" mask-type="alpha" maskUnits="userSpaceOnUse" x="0" y="0" width="318" height="288">
<path d="M0 15C0 6.71572 6.71573 0 15 0H303C311.284 0 318 6.71573 318 15V288H0V15Z" fill="#F4F6FA"/>
</mask>
<g mask="url(#mask0)">
<path d="M340.561 273.365H-10.1438V287.808H340.561V273.365Z" fill="#222222"/>
<mask id="path-3-inside-1" fill="white">
<path d="M72.5594 118.014C70.8441 118.576 69.1601 119.23 67.5145 119.973C68.414 119.314 69.3132 118.628 70.2124 117.933C74.216 114.7 78.0264 111.234 81.6238 107.551C77.4025 111.668 72.8947 115.478 68.1352 118.953C68.7914 117.808 69.3683 116.62 69.8615 115.396C70.7607 113.148 70.9228 110.882 68.7917 109.682C66.1566 108.201 62.9736 110.413 63.8096 114.195C64.3202 116.307 65.3148 118.27 66.7142 119.928C63.6081 122.086 60.3639 124.038 57.0023 125.769L56.6878 125.931C57.3985 124.695 58.0261 123.414 58.5672 122.094C59.4125 119.855 59.6282 117.581 57.4881 116.389C54.8534 114.9 51.67 117.12 52.5153 120.903C53.0172 122.986 53.9893 124.926 55.3567 126.572C51.3191 128.567 47.1469 130.264 42.9923 132.106L42.3897 132.377C43.2007 131.502 43.9546 130.577 44.6468 129.605C45.9957 127.619 46.7243 125.47 44.9256 123.801C42.7135 121.742 39.0896 123.151 39.0357 127.05C39.038 129.203 39.5367 131.325 40.4924 133.252C36.6048 135.076 32.9111 137.29 29.4677 139.86L29.3598 139.951C29.8254 139.209 30.2518 138.444 30.6367 137.658C31.653 135.482 32.0306 133.243 29.9803 131.88C29.5637 131.593 29.0874 131.403 28.5875 131.327C28.0879 131.251 27.577 131.289 27.0941 131.439C26.6112 131.59 26.1684 131.848 25.7994 132.195C25.4301 132.542 25.1441 132.968 24.9625 133.442C24.6923 133.018 24.3253 132.666 23.8923 132.413C21.8333 131.221 19.81 132.512 18.0745 134.335C17.6247 134.814 17.175 135.329 16.7884 135.834C18.1272 132.104 19.81 128.507 21.8151 125.091C23.7245 125.929 25.7835 126.368 27.867 126.382C31.9675 126.382 33.6941 122.952 31.6798 120.822C30.0431 119.097 27.7411 119.756 25.565 121.02C24.8486 121.439 24.1549 121.898 23.4878 122.392C25.5725 119.24 27.9383 116.285 30.5557 113.564C32.2711 114.956 34.2644 115.963 36.4009 116.515C40.3846 117.499 42.8844 114.602 41.4455 112.047C40.2765 109.971 37.8488 110.052 35.4657 110.747C34.3249 111.09 33.2077 111.506 32.1206 111.993C33.2086 110.928 34.3327 109.907 35.4746 108.896C36.9674 107.615 38.5141 106.378 40.0877 105.168C41.7797 106.523 43.7378 107.505 45.834 108.048C49.8177 109.032 52.3175 106.134 50.8786 103.579C49.7096 101.503 47.2818 101.584 44.8898 102.279C44.3323 102.442 43.7658 102.64 43.2171 102.848C45.2943 101.359 47.3986 99.9051 49.5118 98.4606L51.4633 97.1157C53.2216 98.5943 55.2858 99.6611 57.506 100.239C61.4897 101.223 63.9987 98.3255 62.5599 95.7705C61.3819 93.6942 58.9628 93.7755 56.5708 94.4707C55.6298 94.7596 54.7035 95.0935 53.7922 95.4727L54.9972 94.57C55.7347 94.0375 56.4719 93.4957 57.1915 92.927C58.0907 92.25 58.9449 91.5007 59.817 90.7783C60.3206 90.3813 60.7972 89.957 61.2738 89.5237C63.0393 91.018 65.1168 92.0946 67.3528 92.6743C71.3365 93.6583 73.8363 90.7604 72.3974 88.2057C71.2284 86.1294 68.8006 86.2108 66.4175 86.9056C65.0813 87.3204 63.7718 87.8176 62.497 88.3953C64.1244 86.8787 65.6982 85.2988 67.1908 83.6558C67.2899 83.5386 67.3796 83.4211 67.4877 83.3128C68.126 82.5997 68.7556 81.8776 69.3671 81.1283C69.9786 80.379 70.77 79.395 71.4354 78.4923C74.1678 74.8917 76.4174 70.946 78.1256 66.7567C76.3353 70.8962 74.0104 74.7811 71.2105 78.3117C68.4414 81.8571 65.3497 85.1361 61.9752 88.1064L61.6067 88.4222C62.373 87.112 63.052 85.7517 63.6389 84.351C64.4932 82.1123 64.6999 79.8372 62.5599 78.6457C59.934 77.1563 56.7417 79.377 57.587 83.1594C58.1299 85.3992 59.2139 87.4703 60.7433 89.1897L59.9519 89.8756L59.0527 90.6521C58.5312 91.0764 57.9918 91.4825 57.4521 91.8888C57.1644 92.1056 56.8856 92.3311 56.5529 92.5478C55.7886 93.1165 55.0151 93.6673 54.233 94.2088L53.1089 94.9763L51.8317 95.879C52.5781 94.6001 53.2334 93.2696 53.7922 91.8978C54.6464 89.6502 54.8534 87.384 52.722 86.1925C50.0872 84.7032 46.8949 86.9239 47.7402 90.7063C48.2615 92.8789 49.2947 94.8944 50.7526 96.5832L49.8534 97.197L46.3555 99.4988L45.663 99.9503L43.7116 101.259L42.8663 101.828C41.9671 102.451 41.0679 103.083 40.1687 103.733C40.8912 102.433 41.5222 101.085 42.057 99.6976C42.9562 97.4587 43.1182 95.1838 40.9869 93.9923C38.3521 92.5027 35.169 94.7234 36.0143 98.5058C36.5425 100.708 37.5982 102.747 39.0896 104.446C37.5607 105.574 36.0501 106.73 34.5933 107.94C33.5234 108.842 32.4711 109.745 31.437 110.72C31.8876 109.883 32.2898 109.021 32.6421 108.138C33.4874 105.89 33.703 103.624 31.563 102.433C28.9283 100.943 25.7449 103.164 26.5902 106.946C27.0921 109.03 28.0642 110.97 29.4316 112.616C26.5193 115.521 23.896 118.705 21.5995 122.121C21.8601 121.136 22.0584 120.135 22.1928 119.124C22.4805 116.741 22.1389 114.502 19.774 113.852C16.8604 113.049 14.3064 115.974 16.042 119.458C17.0403 121.377 18.4688 123.036 20.2145 124.306C17.9493 128.02 16.0575 131.952 14.5673 136.042C14.5284 135.186 14.4442 134.333 14.3156 133.487C13.9109 131.113 12.9578 129.064 10.5026 129.109C7.48127 129.172 5.85355 132.719 8.50645 135.554C9.92113 137.035 11.6477 138.179 13.56 138.903C12.5374 142.061 11.7057 145.277 11.0691 148.536C10.9613 149.05 10.8803 149.565 10.7814 150.079C10.6736 150.179 10.5658 150.278 10.4669 150.386C10.3588 149.944 10.2331 149.483 10.0889 149.059C9.33358 146.784 8.07487 144.897 5.65577 145.331C2.6883 145.854 1.6182 149.592 4.67557 152.002C6.22949 153.193 8.02068 154.033 9.92719 154.467C9.92719 154.557 9.99926 154.638 10.0442 154.728C9.71125 157.175 9.45956 159.639 9.30677 162.113C9.18972 163.918 9.12687 165.805 9.09084 167.655C6.51894 167.655 4.70267 170.49 6.47425 173.559C7.22152 174.832 8.17953 175.968 9.30677 176.918C9.52242 180.393 9.86433 183.868 10.3227 187.317C9.95919 186.979 9.51406 186.743 9.03173 186.63C8.54913 186.518 8.04576 186.534 7.57122 186.676C5.95243 187.118 5.22419 188.427 4.96328 190.034C4.38741 190.632 4.06504 191.432 4.06414 192.264C2.85915 190.458 1.71712 188.653 0.611067 186.748C2.29948 185.449 3.69919 183.81 4.72054 181.937C6.65386 178.326 4.4688 175.157 1.65418 175.925C-0.647869 176.556 -1.15147 178.904 -1.04356 181.422C-1.00758 182.377 -0.917513 183.33 -0.773767 184.275L-1.96077 182.18C-2.94995 180.375 -3.75926 178.57 -4.73044 176.764C-4.96425 176.322 -5.17108 175.861 -5.35991 175.41C-3.46539 174.452 -1.79028 173.108 -0.441046 171.465C2.13976 168.269 0.584082 164.758 -2.32948 164.983C-4.70346 165.173 -5.64766 167.385 -6.04332 169.876C-6.19753 170.963 -6.29359 172.056 -6.3311 173.153L-7.17638 171.194C-8.97671 166.75 -10.4582 162.183 -11.6096 157.527C-9.46526 156.764 -7.51753 155.53 -5.90845 153.916C-3.02188 150.982 -4.21788 147.344 -7.14041 147.272C-9.51442 147.218 -10.6744 149.321 -11.3219 151.785C-11.6392 153.094 -11.8765 154.42 -12.0323 155.757C-12.6618 153.085 -13.2013 150.377 -13.6509 147.633C-13.9567 145.954 -14.1545 144.248 -14.3613 142.55C-12.0564 142.092 -9.88551 141.113 -8.01268 139.689C-4.77539 137.161 -5.48581 133.37 -8.38135 132.945C-10.7284 132.575 -12.1492 134.516 -13.1024 136.854C-13.6604 138.329 -14.1289 139.836 -14.5052 141.368C-14.6851 139.4 -14.8919 137.423 -14.9818 135.446C-15.2516 131.364 -15.2516 127.269 -14.9818 123.187C-15.3923 127.265 -15.5335 131.366 -15.4044 135.464C-15.4044 137.35 -15.2426 139.228 -15.1257 141.115C-15.6394 139.832 -16.2403 138.587 -16.9241 137.387C-18.1471 135.319 -19.7837 133.776 -22.0498 134.679C-24.8465 135.834 -25.0893 139.716 -21.5822 141.413C-19.5253 142.361 -17.2689 142.792 -15.0088 142.668C-14.8469 144.356 -14.703 146.035 -14.4512 147.705C-14.1005 150.413 -13.6509 153.013 -13.1203 155.64C-13.6958 154.634 -14.3356 153.665 -15.0357 152.742C-16.5195 150.856 -18.336 149.52 -20.4312 150.738C-23.048 152.246 -22.7962 156.154 -19.1003 157.355C-17.009 158.008 -14.7939 158.156 -12.6348 157.789C-11.6088 162.496 -10.2598 167.125 -8.59717 171.646L-8.06662 173C-8.54239 172.367 -9.05591 171.764 -9.60434 171.194C-11.2679 169.461 -13.2013 168.314 -15.2066 169.75C-17.6615 171.555 -17.0051 175.347 -13.2283 176.195C-11.1439 176.619 -8.99049 176.557 -6.93358 176.015C-6.74475 176.475 -6.55588 176.918 -6.3311 177.387C-5.43184 179.246 -4.63153 181.151 -3.68733 182.975L-2.90498 184.555C-3.37259 184.148 -3.85817 183.76 -4.36174 183.399C-6.3221 182.018 -8.44432 181.26 -10.1349 183.038C-12.2211 185.232 -10.8723 188.879 -6.98755 188.996C-4.96512 189.044 -2.95716 188.643 -1.10649 187.822C0.00855446 189.845 1.15062 191.84 2.39156 193.799C2.85015 194.548 3.29079 195.288 3.81235 196.028C3.10688 195.381 2.36209 194.778 1.58222 194.223C-0.378111 192.842 -2.50032 192.083 -4.19989 193.862C-6.27713 196.056 -4.92827 199.702 -1.04356 199.82C1.17676 199.847 3.37151 199.342 5.35912 198.348C6.00663 199.251 6.67202 200.154 7.35529 201.057C5.90746 202.745 6.3843 205.57 9.32464 206.861C10.7529 207.459 12.2751 207.798 13.8209 207.863C14.0008 208.008 14.1807 208.152 14.3785 208.287L14.4684 208.36C16.3268 215.329 18.53 222.196 21.0779 228.96C22.1567 231.84 23.3169 234.692 24.513 237.527H13.722V280.243H46.6972V237.491H29.1439C27.6422 234.196 26.1943 230.865 24.8457 227.498C22.6425 221.973 20.6461 216.358 18.9105 210.662C19.206 210.749 19.5061 210.818 19.81 210.869C20.2093 210.951 20.619 210.969 21.0237 210.923L20.5561 207.953H20.2416C20.0539 207.927 19.868 207.891 19.684 207.845C19.2686 207.726 18.8627 207.575 18.47 207.394L18.0024 207.177C19.7379 206.57 21.3495 205.653 22.7593 204.469C25.8798 201.761 24.9985 198.059 22.085 197.743C19.729 197.482 18.3979 199.486 17.5887 201.86C17.3459 202.537 17.1482 203.241 16.9772 203.927C16.8065 203.295 16.6356 202.664 16.4735 202.031C15.997 200.163 15.5743 198.276 15.1428 196.39C17.0262 195.8 18.7768 194.846 20.2955 193.582C23.4157 190.874 22.5255 187.181 19.6209 186.866C17.256 186.604 15.9341 188.608 15.1249 190.982C14.8821 191.668 14.6751 192.381 14.4953 193.086C14.2257 191.713 13.9648 190.332 13.722 188.951C13.5511 187.931 13.3893 186.902 13.2365 185.873C13.1823 184.41 13.1555 182.948 13.1734 181.476C13.1734 180.673 13.1734 179.869 13.2455 179.066C15.0084 179.625 16.8576 179.861 18.7038 179.761C22.8043 179.49 24.3149 175.97 22.1749 173.974C20.4304 172.341 18.1733 173.153 16.078 174.543C15.1384 175.184 14.2375 175.881 13.3804 176.629C13.6327 173.193 14.153 169.782 14.9361 166.428C15.3947 164.452 15.9685 162.505 16.6534 160.596C18.5337 161.247 20.5218 161.525 22.5076 161.418C26.6081 161.156 28.1187 157.635 25.9787 155.631C24.2432 154.006 21.9771 154.81 19.8818 156.209C19.1504 156.713 18.4478 157.259 17.7775 157.843C18.5683 155.975 19.4877 154.165 20.5293 152.426C22.5947 148.918 25.1847 145.748 28.2087 143.029C29.7759 144.48 31.6293 145.584 33.6491 146.27C37.5518 147.552 40.2586 144.843 39.0446 142.189C38.0284 140.032 35.6367 139.932 33.1726 140.447C32.2232 140.651 31.2862 140.91 30.3669 141.223L30.43 141.169C33.7855 138.541 37.4013 136.266 41.2207 134.38C42.5682 136.152 44.2795 137.611 46.2385 138.66C49.8895 140.546 52.9919 138.308 52.1826 135.491C51.5261 133.198 49.1791 132.72 46.6701 132.783C45.6847 132.836 44.703 132.945 43.7297 133.108C47.7852 131.185 51.9217 129.37 55.9143 127.249H56.0043C57.7917 128.798 59.9124 129.91 62.2001 130.499C66.1837 131.492 68.6836 128.585 67.245 125.985C66.0759 123.909 63.6479 123.999 61.2648 124.685C60.5905 124.884 59.9162 125.128 59.2597 125.38C61.9259 123.825 64.5102 122.131 67.0019 120.307L67.2089 120.533V120.415C69.0142 121.978 71.152 123.105 73.4586 123.71C77.4334 124.694 79.9421 121.796 78.5033 119.196C77.3702 117.238 74.9782 117.319 72.5594 118.014ZM9.68444 199.811C8.86596 198.854 8.09275 197.852 7.33741 196.841C7.51731 196.678 7.71508 196.498 7.91285 196.299C9.03663 196.651 10.1996 196.86 11.375 196.922V197.112L11.9236 196.994C12.2114 198.421 12.508 199.838 12.8228 201.255C12.4573 200.775 11.9801 200.392 11.433 200.14C10.8858 199.889 10.2853 199.775 9.68444 199.811ZM12.6158 165.823C12.3371 166.888 12.1033 167.953 11.8787 169.027L11.7437 168.838C11.7437 166.635 11.7766 164.439 11.8426 162.248C11.9055 160.713 12.0133 159.188 12.1482 157.653C12.8883 158.41 13.7016 159.09 14.5763 159.684C13.8152 161.693 13.1639 163.743 12.6248 165.823H12.6158ZM16.3029 155.712C16.3568 155.315 16.4018 154.909 16.4196 154.511V153.907C16.7434 153.807 17.0761 153.69 17.3998 153.555C17.0403 154.268 16.6624 154.99 16.3118 155.712H16.3029ZM20.988 148.084C20.8326 147.727 20.6066 147.405 20.3237 147.138C20.0409 146.871 19.7068 146.665 19.3424 146.531C17.1211 145.629 15.3227 147.254 13.893 149.33L13.8209 149.429H13.6771C13.5263 149.395 13.3729 149.374 13.2184 149.366C13.2077 149.239 13.2293 149.112 13.2812 148.996C13.8506 145.735 14.6195 142.512 15.5833 139.346C17.6478 139.609 19.7437 139.446 21.7433 138.867C22.9787 138.541 24.0529 137.774 24.7647 136.71C25.1605 138.53 25.9159 140.252 26.9857 141.774C24.7736 143.663 22.7662 145.781 20.9969 148.093L20.988 148.084Z"/>
</mask>
<path d="M72.5594 118.014C70.8441 118.576 69.1601 119.23 67.5145 119.973C68.414 119.314 69.3132 118.628 70.2124 117.933C74.216 114.7 78.0264 111.234 81.6238 107.551C77.4025 111.668 72.8947 115.478 68.1352 118.953C68.7914 117.808 69.3683 116.62 69.8615 115.396C70.7607 113.148 70.9228 110.882 68.7917 109.682C66.1566 108.201 62.9736 110.413 63.8096 114.195C64.3202 116.307 65.3148 118.27 66.7142 119.928C63.6081 122.086 60.3639 124.038 57.0023 125.769L56.6878 125.931C57.3985 124.695 58.0261 123.414 58.5672 122.094C59.4125 119.855 59.6282 117.581 57.4881 116.389C54.8534 114.9 51.67 117.12 52.5153 120.903C53.0172 122.986 53.9893 124.926 55.3567 126.572C51.3191 128.567 47.1469 130.264 42.9923 132.106L42.3897 132.377C43.2007 131.502 43.9546 130.577 44.6468 129.605C45.9957 127.619 46.7243 125.47 44.9256 123.801C42.7135 121.742 39.0896 123.151 39.0357 127.05C39.038 129.203 39.5367 131.325 40.4924 133.252C36.6048 135.076 32.9111 137.29 29.4677 139.86L29.3598 139.951C29.8254 139.209 30.2518 138.444 30.6367 137.658C31.653 135.482 32.0306 133.243 29.9803 131.88C29.5637 131.593 29.0874 131.403 28.5875 131.327C28.0879 131.251 27.577 131.289 27.0941 131.439C26.6112 131.59 26.1684 131.848 25.7994 132.195C25.4301 132.542 25.1441 132.968 24.9625 133.442C24.6923 133.018 24.3253 132.666 23.8923 132.413C21.8333 131.221 19.81 132.512 18.0745 134.335C17.6247 134.814 17.175 135.329 16.7884 135.834C18.1272 132.104 19.81 128.507 21.8151 125.091C23.7245 125.929 25.7835 126.368 27.867 126.382C31.9675 126.382 33.6941 122.952 31.6798 120.822C30.0431 119.097 27.7411 119.756 25.565 121.02C24.8486 121.439 24.1549 121.898 23.4878 122.392C25.5725 119.24 27.9383 116.285 30.5557 113.564C32.2711 114.956 34.2644 115.963 36.4009 116.515C40.3846 117.499 42.8844 114.602 41.4455 112.047C40.2765 109.971 37.8488 110.052 35.4657 110.747C34.3249 111.09 33.2077 111.506 32.1206 111.993C33.2086 110.928 34.3327 109.907 35.4746 108.896C36.9674 107.615 38.5141 106.378 40.0877 105.168C41.7797 106.523 43.7378 107.505 45.834 108.048C49.8177 109.032 52.3175 106.134 50.8786 103.579C49.7096 101.503 47.2818 101.584 44.8898 102.279C44.3323 102.442 43.7658 102.64 43.2171 102.848C45.2943 101.359 47.3986 99.9051 49.5118 98.4606L51.4633 97.1157C53.2216 98.5943 55.2858 99.6611 57.506 100.239C61.4897 101.223 63.9987 98.3255 62.5599 95.7705C61.3819 93.6942 58.9628 93.7755 56.5708 94.4707C55.6298 94.7596 54.7035 95.0935 53.7922 95.4727L54.9972 94.57C55.7347 94.0375 56.4719 93.4957 57.1915 92.927C58.0907 92.25 58.9449 91.5007 59.817 90.7783C60.3206 90.3813 60.7972 89.957 61.2738 89.5237C63.0393 91.018 65.1168 92.0946 67.3528 92.6743C71.3365 93.6583 73.8363 90.7604 72.3974 88.2057C71.2284 86.1294 68.8006 86.2108 66.4175 86.9056C65.0813 87.3204 63.7718 87.8176 62.497 88.3953C64.1244 86.8787 65.6982 85.2988 67.1908 83.6558C67.2899 83.5386 67.3796 83.4211 67.4877 83.3128C68.126 82.5997 68.7556 81.8776 69.3671 81.1283C69.9786 80.379 70.77 79.395 71.4354 78.4923C74.1678 74.8917 76.4174 70.946 78.1256 66.7567C76.3353 70.8962 74.0104 74.7811 71.2105 78.3117C68.4414 81.8571 65.3497 85.1361 61.9752 88.1064L61.6067 88.4222C62.373 87.112 63.052 85.7517 63.6389 84.351C64.4932 82.1123 64.6999 79.8372 62.5599 78.6457C59.934 77.1563 56.7417 79.377 57.587 83.1594C58.1299 85.3992 59.2139 87.4703 60.7433 89.1897L59.9519 89.8756L59.0527 90.6521C58.5312 91.0764 57.9918 91.4825 57.4521 91.8888C57.1644 92.1056 56.8856 92.3311 56.5529 92.5478C55.7886 93.1165 55.0151 93.6673 54.233 94.2088L53.1089 94.9763L51.8317 95.879C52.5781 94.6001 53.2334 93.2696 53.7922 91.8978C54.6464 89.6502 54.8534 87.384 52.722 86.1925C50.0872 84.7032 46.8949 86.9239 47.7402 90.7063C48.2615 92.8789 49.2947 94.8944 50.7526 96.5832L49.8534 97.197L46.3555 99.4988L45.663 99.9503L43.7116 101.259L42.8663 101.828C41.9671 102.451 41.0679 103.083 40.1687 103.733C40.8912 102.433 41.5222 101.085 42.057 99.6976C42.9562 97.4587 43.1182 95.1838 40.9869 93.9923C38.3521 92.5027 35.169 94.7234 36.0143 98.5058C36.5425 100.708 37.5982 102.747 39.0896 104.446C37.5607 105.574 36.0501 106.73 34.5933 107.94C33.5234 108.842 32.4711 109.745 31.437 110.72C31.8876 109.883 32.2898 109.021 32.6421 108.138C33.4874 105.89 33.703 103.624 31.563 102.433C28.9283 100.943 25.7449 103.164 26.5902 106.946C27.0921 109.03 28.0642 110.97 29.4316 112.616C26.5193 115.521 23.896 118.705 21.5995 122.121C21.8601 121.136 22.0584 120.135 22.1928 119.124C22.4805 116.741 22.1389 114.502 19.774 113.852C16.8604 113.049 14.3064 115.974 16.042 119.458C17.0403 121.377 18.4688 123.036 20.2145 124.306C17.9493 128.02 16.0575 131.952 14.5673 136.042C14.5284 135.186 14.4442 134.333 14.3156 133.487C13.9109 131.113 12.9578 129.064 10.5026 129.109C7.48127 129.172 5.85355 132.719 8.50645 135.554C9.92113 137.035 11.6477 138.179 13.56 138.903C12.5374 142.061 11.7057 145.277 11.0691 148.536C10.9613 149.05 10.8803 149.565 10.7814 150.079C10.6736 150.179 10.5658 150.278 10.4669 150.386C10.3588 149.944 10.2331 149.483 10.0889 149.059C9.33358 146.784 8.07487 144.897 5.65577 145.331C2.6883 145.854 1.6182 149.592 4.67557 152.002C6.22949 153.193 8.02068 154.033 9.92719 154.467C9.92719 154.557 9.99926 154.638 10.0442 154.728C9.71125 157.175 9.45956 159.639 9.30677 162.113C9.18972 163.918 9.12687 165.805 9.09084 167.655C6.51894 167.655 4.70267 170.49 6.47425 173.559C7.22152 174.832 8.17953 175.968 9.30677 176.918C9.52242 180.393 9.86433 183.868 10.3227 187.317C9.95919 186.979 9.51406 186.743 9.03173 186.63C8.54913 186.518 8.04576 186.534 7.57122 186.676C5.95243 187.118 5.22419 188.427 4.96328 190.034C4.38741 190.632 4.06504 191.432 4.06414 192.264C2.85915 190.458 1.71712 188.653 0.611067 186.748C2.29948 185.449 3.69919 183.81 4.72054 181.937C6.65386 178.326 4.4688 175.157 1.65418 175.925C-0.647869 176.556 -1.15147 178.904 -1.04356 181.422C-1.00758 182.377 -0.917513 183.33 -0.773767 184.275L-1.96077 182.18C-2.94995 180.375 -3.75926 178.57 -4.73044 176.764C-4.96425 176.322 -5.17108 175.861 -5.35991 175.41C-3.46539 174.452 -1.79028 173.108 -0.441046 171.465C2.13976 168.269 0.584082 164.758 -2.32948 164.983C-4.70346 165.173 -5.64766 167.385 -6.04332 169.876C-6.19753 170.963 -6.29359 172.056 -6.3311 173.153L-7.17638 171.194C-8.97671 166.75 -10.4582 162.183 -11.6096 157.527C-9.46526 156.764 -7.51753 155.53 -5.90845 153.916C-3.02188 150.982 -4.21788 147.344 -7.14041 147.272C-9.51442 147.218 -10.6744 149.321 -11.3219 151.785C-11.6392 153.094 -11.8765 154.42 -12.0323 155.757C-12.6618 153.085 -13.2013 150.377 -13.6509 147.633C-13.9567 145.954 -14.1545 144.248 -14.3613 142.55C-12.0564 142.092 -9.88551 141.113 -8.01268 139.689C-4.77539 137.161 -5.48581 133.37 -8.38135 132.945C-10.7284 132.575 -12.1492 134.516 -13.1024 136.854C-13.6604 138.329 -14.1289 139.836 -14.5052 141.368C-14.6851 139.4 -14.8919 137.423 -14.9818 135.446C-15.2516 131.364 -15.2516 127.269 -14.9818 123.187C-15.3923 127.265 -15.5335 131.366 -15.4044 135.464C-15.4044 137.35 -15.2426 139.228 -15.1257 141.115C-15.6394 139.832 -16.2403 138.587 -16.9241 137.387C-18.1471 135.319 -19.7837 133.776 -22.0498 134.679C-24.8465 135.834 -25.0893 139.716 -21.5822 141.413C-19.5253 142.361 -17.2689 142.792 -15.0088 142.668C-14.8469 144.356 -14.703 146.035 -14.4512 147.705C-14.1005 150.413 -13.6509 153.013 -13.1203 155.64C-13.6958 154.634 -14.3356 153.665 -15.0357 152.742C-16.5195 150.856 -18.336 149.52 -20.4312 150.738C-23.048 152.246 -22.7962 156.154 -19.1003 157.355C-17.009 158.008 -14.7939 158.156 -12.6348 157.789C-11.6088 162.496 -10.2598 167.125 -8.59717 171.646L-8.06662 173C-8.54239 172.367 -9.05591 171.764 -9.60434 171.194C-11.2679 169.461 -13.2013 168.314 -15.2066 169.75C-17.6615 171.555 -17.0051 175.347 -13.2283 176.195C-11.1439 176.619 -8.99049 176.557 -6.93358 176.015C-6.74475 176.475 -6.55588 176.918 -6.3311 177.387C-5.43184 179.246 -4.63153 181.151 -3.68733 182.975L-2.90498 184.555C-3.37259 184.148 -3.85817 183.76 -4.36174 183.399C-6.3221 182.018 -8.44432 181.26 -10.1349 183.038C-12.2211 185.232 -10.8723 188.879 -6.98755 188.996C-4.96512 189.044 -2.95716 188.643 -1.10649 187.822C0.00855446 189.845 1.15062 191.84 2.39156 193.799C2.85015 194.548 3.29079 195.288 3.81235 196.028C3.10688 195.381 2.36209 194.778 1.58222 194.223C-0.378111 192.842 -2.50032 192.083 -4.19989 193.862C-6.27713 196.056 -4.92827 199.702 -1.04356 199.82C1.17676 199.847 3.37151 199.342 5.35912 198.348C6.00663 199.251 6.67202 200.154 7.35529 201.057C5.90746 202.745 6.3843 205.57 9.32464 206.861C10.7529 207.459 12.2751 207.798 13.8209 207.863C14.0008 208.008 14.1807 208.152 14.3785 208.287L14.4684 208.36C16.3268 215.329 18.53 222.196 21.0779 228.96C22.1567 231.84 23.3169 234.692 24.513 237.527H13.722V280.243H46.6972V237.491H29.1439C27.6422 234.196 26.1943 230.865 24.8457 227.498C22.6425 221.973 20.6461 216.358 18.9105 210.662C19.206 210.749 19.5061 210.818 19.81 210.869C20.2093 210.951 20.619 210.969 21.0237 210.923L20.5561 207.953H20.2416C20.0539 207.927 19.868 207.891 19.684 207.845C19.2686 207.726 18.8627 207.575 18.47 207.394L18.0024 207.177C19.7379 206.57 21.3495 205.653 22.7593 204.469C25.8798 201.761 24.9985 198.059 22.085 197.743C19.729 197.482 18.3979 199.486 17.5887 201.86C17.3459 202.537 17.1482 203.241 16.9772 203.927C16.8065 203.295 16.6356 202.664 16.4735 202.031C15.997 200.163 15.5743 198.276 15.1428 196.39C17.0262 195.8 18.7768 194.846 20.2955 193.582C23.4157 190.874 22.5255 187.181 19.6209 186.866C17.256 186.604 15.9341 188.608 15.1249 190.982C14.8821 191.668 14.6751 192.381 14.4953 193.086C14.2257 191.713 13.9648 190.332 13.722 188.951C13.5511 187.931 13.3893 186.902 13.2365 185.873C13.1823 184.41 13.1555 182.948 13.1734 181.476C13.1734 180.673 13.1734 179.869 13.2455 179.066C15.0084 179.625 16.8576 179.861 18.7038 179.761C22.8043 179.49 24.3149 175.97 22.1749 173.974C20.4304 172.341 18.1733 173.153 16.078 174.543C15.1384 175.184 14.2375 175.881 13.3804 176.629C13.6327 173.193 14.153 169.782 14.9361 166.428C15.3947 164.452 15.9685 162.505 16.6534 160.596C18.5337 161.247 20.5218 161.525 22.5076 161.418C26.6081 161.156 28.1187 157.635 25.9787 155.631C24.2432 154.006 21.9771 154.81 19.8818 156.209C19.1504 156.713 18.4478 157.259 17.7775 157.843C18.5683 155.975 19.4877 154.165 20.5293 152.426C22.5947 148.918 25.1847 145.748 28.2087 143.029C29.7759 144.48 31.6293 145.584 33.6491 146.27C37.5518 147.552 40.2586 144.843 39.0446 142.189C38.0284 140.032 35.6367 139.932 33.1726 140.447C32.2232 140.651 31.2862 140.91 30.3669 141.223L30.43 141.169C33.7855 138.541 37.4013 136.266 41.2207 134.38C42.5682 136.152 44.2795 137.611 46.2385 138.66C49.8895 140.546 52.9919 138.308 52.1826 135.491C51.5261 133.198 49.1791 132.72 46.6701 132.783C45.6847 132.836 44.703 132.945 43.7297 133.108C47.7852 131.185 51.9217 129.37 55.9143 127.249H56.0043C57.7917 128.798 59.9124 129.91 62.2001 130.499C66.1837 131.492 68.6836 128.585 67.245 125.985C66.0759 123.909 63.6479 123.999 61.2648 124.685C60.5905 124.884 59.9162 125.128 59.2597 125.38C61.9259 123.825 64.5102 122.131 67.0019 120.307L67.2089 120.533V120.415C69.0142 121.978 71.152 123.105 73.4586 123.71C77.4334 124.694 79.9421 121.796 78.5033 119.196C77.3702 117.238 74.9782 117.319 72.5594 118.014ZM9.68444 199.811C8.86596 198.854 8.09275 197.852 7.33741 196.841C7.51731 196.678 7.71508 196.498 7.91285 196.299C9.03663 196.651 10.1996 196.86 11.375 196.922V197.112L11.9236 196.994C12.2114 198.421 12.508 199.838 12.8228 201.255C12.4573 200.775 11.9801 200.392 11.433 200.14C10.8858 199.889 10.2853 199.775 9.68444 199.811ZM12.6158 165.823C12.3371 166.888 12.1033 167.953 11.8787 169.027L11.7437 168.838C11.7437 166.635 11.7766 164.439 11.8426 162.248C11.9055 160.713 12.0133 159.188 12.1482 157.653C12.8883 158.41 13.7016 159.09 14.5763 159.684C13.8152 161.693 13.1639 163.743 12.6248 165.823H12.6158ZM16.3029 155.712C16.3568 155.315 16.4018 154.909 16.4196 154.511V153.907C16.7434 153.807 17.0761 153.69 17.3998 153.555C17.0403 154.268 16.6624 154.99 16.3118 155.712H16.3029ZM20.988 148.084C20.8326 147.727 20.6066 147.405 20.3237 147.138C20.0409 146.871 19.7068 146.665 19.3424 146.531C17.1211 145.629 15.3227 147.254 13.893 149.33L13.8209 149.429H13.6771C13.5263 149.395 13.3729 149.374 13.2184 149.366C13.2077 149.239 13.2293 149.112 13.2812 148.996C13.8506 145.735 14.6195 142.512 15.5833 139.346C17.6478 139.609 19.7437 139.446 21.7433 138.867C22.9787 138.541 24.0529 137.774 24.7647 136.71C25.1605 138.53 25.9159 140.252 26.9857 141.774C24.7736 143.663 22.7662 145.781 20.9969 148.093L20.988 148.084Z" fill="white" stroke="#222222" mask="url(#path-3-inside-1)"/>
<path d="M294.287 240.858C294.287 240.858 289.933 231.1 288.89 230.098C287.846 229.096 279.511 226.062 277.199 218.362C274.89 210.662 270.499 190.107 281.561 191.451C292.62 192.797 289.933 214.327 293.952 213.65C297.971 212.973 290.608 178.678 297.639 173.929C304.671 169.181 316.065 173.595 314.724 191.759C313.386 209.921 310.705 220.339 313.052 219.337C315.399 218.335 322.099 214.625 322.099 222.361C322.099 230.098 315.733 235.478 312.046 235.812C308.358 236.146 306.649 236.489 306.649 236.489V241.526L294.287 240.858Z" fill="#222222" stroke="#222222" stroke-linecap="round" stroke-linejoin="round"/>
<path d="M290.743 221.946C288.215 219.544 285.894 217.215 284.825 215.076C282.703 210.806 281.103 198.827 281.103 198.827" stroke="white" stroke-width="0.5" stroke-linecap="round" stroke-linejoin="round"/>
<path d="M277.335 204.677C279.007 211.673 279.241 216.945 284.294 223.083C286.993 226.405 294.134 229.222 294.933 232.156C295.648 235.686 296.187 239.25 296.541 242.835L300.534 243.106C300.534 243.106 301.344 236.155 299.061 231.199" stroke="white" stroke-width="0.5" stroke-linecap="round" stroke-linejoin="round"/>
<path d="M278.451 193.456C278.451 193.456 275.464 195.757 276.525 201.427" stroke="white" stroke-width="0.5" stroke-linecap="round" stroke-linejoin="round"/>
<path d="M297.576 214.101L295.993 216.674" stroke="white" stroke-width="0.5" stroke-linecap="round" stroke-linejoin="round"/>
<path d="M298.124 213.207L297.576 214.101" stroke="white" stroke-width="0.5" stroke-linecap="round" stroke-linejoin="round"/>
<path d="M303.44 174.769C303.44 174.769 297.325 174.507 297.325 180.375C297.325 185.331 298.836 202.248 298.513 209.985" stroke="white" stroke-width="0.5" stroke-linecap="round" stroke-linejoin="round"/>
<path d="M308.232 222.839C308.087 224.853 307.998 226.279 307.998 226.82C307.998 229.755 315.436 218.542 318.899 218.281C318.899 218.281 322.349 218.01 321.02 224.419C320.536 226.798 319.415 229 317.774 230.786C316.137 232.573 314.044 233.877 311.723 234.557C308.791 235.36 306.398 234.024 305.868 235.36C305.444 236.931 305.176 238.539 305.066 240.163" stroke="white" stroke-width="0.5" stroke-linecap="round" stroke-linejoin="round"/>
<path d="M309.967 180.339C310.431 182.275 310.648 184.261 310.616 186.252C310.616 192.498 309.428 207.231 308.638 217.179" stroke="white" stroke-width="0.5" stroke-linecap="round" stroke-linejoin="round"/>
<path d="M306.894 175.311C307.693 175.77 308.338 176.454 308.754 177.279" stroke="white" stroke-width="0.5" stroke-linecap="round" stroke-linejoin="round"/>
<path d="M302.567 221.215L302.379 224.952" stroke="white" stroke-width="0.5" stroke-linecap="round" stroke-linejoin="round"/>
<path d="M303.971 178.506C303.971 178.506 302.379 179.039 302.91 184.645C303.351 189.276 302.91 210.301 302.702 217.477" stroke="white" stroke-width="0.5" stroke-linecap="round" stroke-linejoin="round"/>
<path d="M320.724 219.879C318.443 224.163 314.79 227.55 310.354 229.493C303.16 232.427 302.91 231.091 302.91 234.007C302.91 236.922 302.639 242.284 302.639 242.284" stroke="white" stroke-width="0.5" stroke-linecap="round" stroke-linejoin="round"/>
<path d="M310.751 280.217H287.515L282.542 246.428H315.724L310.751 280.217Z" fill="white" stroke="#222222" stroke-width="0.5" stroke-linecap="round" stroke-linejoin="round"/>
<path d="M318.573 241.102H279.69V250.147H318.573V241.102Z" fill="white" stroke="#222222" stroke-width="0.5" stroke-linecap="round" stroke-linejoin="round"/>
<path d="M183.166 257.468V239.125H129.355V257.468C129.347 263.443 127.332 269.241 123.636 273.925L121.28 276.903H191.241L188.885 273.925C185.189 269.241 183.175 263.443 183.166 257.468Z" fill="white" stroke="#222222" stroke-width="0.5" stroke-linecap="round" stroke-linejoin="round"/>
<path d="M126.046 270.314H186.475C184.306 266.383 183.167 261.962 183.166 257.468V239.125H129.355V257.468C129.355 261.962 128.216 266.383 126.046 270.314Z" fill="white"/>
<path d="M256.769 82.0671H55.7437C51.5322 82.0671 48.1179 85.4944 48.1179 89.7222V237.256C48.1179 241.484 51.5322 244.911 55.7437 244.911H256.769C260.981 244.911 264.393 241.484 264.393 237.256V89.7222C264.393 85.4944 260.981 82.0671 256.769 82.0671Z" fill="#222222" stroke="#222222" stroke-width="0.5" stroke-linecap="round" stroke-linejoin="round"/>
<path d="M48.1179 219.599H264.405V237.247C264.405 239.277 263.6 241.224 262.17 242.66C260.74 244.096 258.801 244.902 256.778 244.902H55.7526C53.7302 244.902 51.7905 244.096 50.3606 242.66C48.9303 241.224 48.1271 239.277 48.1271 237.247V219.599H48.1179Z" fill="white" stroke="#222222" stroke-width="0.5" stroke-linecap="round" stroke-linejoin="round"/>
<path d="M253.523 92.2046H58.9988V207.249H253.523V92.2046Z" fill="white" stroke="#222222" stroke-width="0.5" stroke-linecap="round" stroke-linejoin="round"/>
<path d="M160.253 232.255C160.253 231.462 160.019 230.687 159.58 230.028C159.142 229.369 158.518 228.855 157.789 228.552C157.059 228.248 156.256 228.169 155.482 228.324C154.707 228.478 153.996 228.86 153.437 229.421C152.879 229.981 152.499 230.695 152.345 231.473C152.191 232.25 152.27 233.056 152.572 233.789C152.874 234.521 153.386 235.147 154.042 235.587C154.699 236.028 155.471 236.263 156.261 236.263C157.32 236.263 158.335 235.841 159.084 235.089C159.833 234.337 160.253 233.318 160.253 232.255Z" fill="#222222" stroke="#222222" stroke-width="0.5" stroke-linecap="round" stroke-linejoin="round"/>
<path d="M191.25 276.941H121.28V280.217H191.25V276.941Z" fill="white" stroke="#222222" stroke-width="0.5" stroke-linecap="round" stroke-linejoin="round"/>
<path d="M251.697 100.311H60.5276V110.395H251.697V100.311Z" fill="white" stroke="#222222" stroke-width="0.5" stroke-linecap="round" stroke-linejoin="round"/>
<path d="M92.0731 110.394L89.7799 104.166H60.5276V110.394V118.655V202.347H251.697V110.394H92.0731Z" fill="white" stroke="#222222" stroke-width="0.5" stroke-linecap="round" stroke-linejoin="round"/>
<path d="M111.982 155.992H201.618" stroke="#222222" stroke-width="0.5" stroke-linecap="round" stroke-linejoin="round"/>
<path d="M111.982 164.839H201.618" stroke="#222222" stroke-width="0.5" stroke-linecap="round" stroke-linejoin="round"/>
<path d="M111.982 173.685H201.618" stroke="#222222" stroke-width="0.5" stroke-linecap="round" stroke-linejoin="round"/>
<path d="M111.982 182.541H201.618" stroke="#222222" stroke-width="0.5" stroke-linecap="round" stroke-linejoin="round"/>
<path d="M196.879 132.403H115.651C114.815 132.404 113.987 132.24 113.214 131.92C112.441 131.6 111.738 131.13 111.146 130.538C110.554 129.945 110.084 129.241 109.763 128.466C109.442 127.691 109.277 126.86 109.275 126.021C109.274 125.182 109.438 124.35 109.757 123.575C110.075 122.799 110.543 122.093 111.134 121.499C111.724 120.905 112.425 120.433 113.197 120.11C113.969 119.788 114.797 119.622 115.633 119.62H196.879C197.717 119.619 198.547 119.784 199.321 120.105C200.095 120.427 200.798 120.898 201.39 121.492C201.982 122.087 202.452 122.793 202.772 123.57C203.092 124.347 203.256 125.18 203.255 126.021C203.254 126.86 203.088 127.691 202.767 128.466C202.446 129.241 201.976 129.945 201.384 130.538C200.792 131.13 200.089 131.6 199.317 131.92C198.544 132.24 197.715 132.404 196.879 132.403Z" fill="white" stroke="#222222" stroke-width="0.5" stroke-linecap="round" stroke-linejoin="round"/>
<path d="M196.879 132.403H185.783V119.603H196.879C197.717 119.602 198.547 119.766 199.321 120.087C200.095 120.409 200.798 120.88 201.39 121.475C201.983 122.069 202.452 122.775 202.772 123.552C203.092 124.329 203.256 125.162 203.255 126.003C203.256 126.844 203.092 127.677 202.772 128.454C202.452 129.231 201.983 129.937 201.39 130.531C200.798 131.126 200.095 131.598 199.321 131.919C198.547 132.24 197.717 132.405 196.879 132.403Z" fill="#222222" stroke="#222222" stroke-width="0.5" stroke-linecap="round" stroke-linejoin="round"/>
<path d="M194.407 121.227C193.878 120.73 193.215 120.402 192.501 120.284C191.786 120.165 191.053 120.262 190.394 120.562C189.734 120.862 189.178 121.352 188.796 121.969C188.414 122.586 188.222 123.304 188.246 124.03C188.27 124.757 188.508 125.46 188.93 126.05C189.352 126.641 189.939 127.092 190.617 127.348C191.295 127.603 192.033 127.652 192.738 127.486C193.443 127.321 194.083 126.949 194.577 126.418C194.907 126.068 195.164 125.656 195.334 125.205C195.505 124.755 195.585 124.275 195.57 123.794C195.555 123.312 195.445 122.838 195.247 122.399C195.049 121.96 194.766 121.565 194.416 121.236L194.407 121.227ZM194.047 125.922C193.65 126.345 193.137 126.64 192.573 126.771C192.008 126.902 191.418 126.862 190.876 126.656C190.335 126.451 189.865 126.088 189.529 125.616C189.192 125.143 189.002 124.58 188.983 123.999C188.964 123.418 189.117 122.844 189.423 122.351C189.729 121.857 190.173 121.465 190.7 121.224C191.228 120.984 191.814 120.906 192.386 120.999C192.957 121.093 193.489 121.355 193.912 121.751C194.481 122.286 194.814 123.026 194.839 123.808C194.865 124.59 194.58 125.35 194.047 125.922Z" fill="white"/>
<path d="M197.158 127.754C197.078 127.676 196.976 127.622 196.866 127.6C196.757 127.577 196.642 127.587 196.538 127.628L195.216 126.382C195.149 126.316 195.058 126.279 194.964 126.279C194.87 126.279 194.779 126.316 194.712 126.382L194.595 126.508C194.531 126.578 194.495 126.671 194.495 126.766C194.495 126.861 194.531 126.953 194.595 127.023L195.899 128.251C195.861 128.362 195.854 128.483 195.882 128.598C195.909 128.713 195.968 128.818 196.052 128.901L198.3 131.112C198.449 131.26 198.649 131.343 198.858 131.343C199.067 131.343 199.267 131.26 199.415 131.112C199.563 130.964 199.645 130.763 199.645 130.553C199.645 130.343 199.563 130.142 199.415 129.993L197.158 127.754Z" fill="white"/>
<path d="M220.377 171.014C220.64 171.668 221.03 172.262 221.526 172.761C222.022 173.261 222.613 173.655 223.263 173.92C224.28 174.336 225.637 174.245 227.202 175.13C230.736 177.125 239.558 175.347 245.951 176.033C252.345 176.719 260.96 169.615 260.96 169.615L286.327 171.014V145.737C286.327 145.737 259.853 146.848 254.116 144.627C248.379 142.406 241.986 137.766 239.117 137.983C236.248 138.199 212.643 140.862 212.643 140.862L220.368 171.014H220.377Z" fill="white" stroke="#222222" stroke-width="0.5" stroke-linecap="round" stroke-linejoin="round"/>
<path d="M213.812 69.0943C208.575 69.6766 203.626 71.8047 199.593 75.21C195.56 78.615 192.624 83.1444 191.155 88.2251C189.686 93.3058 189.751 98.7095 191.342 103.753C192.933 108.797 195.977 113.254 200.091 116.56C204.204 119.866 209.202 121.874 214.452 122.329C219.703 122.784 224.969 121.666 229.587 119.116C234.204 116.566 237.964 112.699 240.392 108.003C242.82 103.308 243.806 97.9952 243.226 92.7371C242.844 89.245 241.779 85.8626 240.093 82.784C238.408 79.7052 236.133 76.9902 233.402 74.7944C230.67 72.5986 227.534 70.9648 224.172 69.9869C220.811 69.0089 217.29 68.7056 213.812 69.0943ZM219.1 117.012C214.898 117.48 210.652 116.688 206.9 114.734C203.147 112.78 200.055 109.753 198.016 106.035C195.977 102.318 195.081 98.0765 195.443 93.8482C195.805 89.6198 197.408 85.594 200.049 82.2801C202.69 78.966 206.25 76.5126 210.28 75.2302C214.31 73.9475 218.628 73.8934 222.689 75.0745C226.749 76.2556 230.37 78.619 233.092 81.8657C235.815 85.1127 237.517 89.0968 237.984 93.3148C238.294 96.1155 238.052 98.9503 237.27 101.657C236.489 104.364 235.184 106.889 233.431 109.089C231.677 111.29 229.509 113.122 227.05 114.482C224.591 115.841 221.89 116.701 219.1 117.012Z" fill="white" stroke="#222222" stroke-width="0.5" stroke-linecap="round" stroke-linejoin="round"/>
<path d="M213.668 67.569C208.431 68.151 203.482 70.2791 199.449 73.6844C195.416 77.0896 192.48 81.619 191.011 86.6997C189.542 91.7802 189.607 97.1841 191.198 102.228C192.788 107.271 195.833 111.728 199.947 115.035C204.06 118.341 209.058 120.349 214.309 120.803C219.559 121.258 224.826 120.14 229.443 117.59C234.06 115.04 237.82 111.173 240.248 106.478C242.676 101.782 243.662 96.4699 243.083 91.2117C242.303 84.1618 238.767 77.711 233.251 73.2777C227.735 68.8444 220.691 66.791 213.668 67.569ZM218.956 115.486C214.754 115.955 210.509 115.162 206.755 113.208C203.003 111.254 199.911 108.227 197.872 104.51C195.833 100.792 194.937 96.5512 195.299 92.3228C195.661 88.0944 197.264 84.0686 199.905 80.7545C202.546 77.4407 206.106 74.9873 210.136 73.7046C214.166 72.4222 218.484 72.3681 222.545 73.5492C226.605 74.7303 230.226 77.0937 232.948 80.3404C235.671 83.587 237.373 87.5715 237.84 91.7894C238.15 94.5901 237.907 97.4247 237.126 100.131C236.345 102.838 235.04 105.364 233.287 107.564C231.533 109.765 229.365 111.597 226.906 112.956C224.447 114.315 221.746 115.175 218.956 115.486Z" fill="white" stroke="#222222" stroke-width="0.5" stroke-linecap="round" stroke-linejoin="round"/>
<path d="M220.409 121.237L219.149 121.377C217.727 121.535 216.702 122.82 216.86 124.247L218.905 142.784C219.063 144.211 220.343 145.24 221.764 145.082L223.024 144.942C224.446 144.784 225.471 143.499 225.313 142.072L223.268 123.535C223.111 122.107 221.831 121.079 220.409 121.237Z" fill="white" stroke="#222222" stroke-width="0.5" stroke-linecap="round" stroke-linejoin="round"/>
<path d="M219.999 136.71L222.697 136.421C223.857 136.296 225.019 136.636 225.931 137.366C226.844 138.096 227.433 139.158 227.571 140.32L231.608 176.981C231.772 178.479 231.337 179.982 230.398 181.159C229.458 182.335 228.092 183.089 226.599 183.255H226.42C225.68 183.337 224.932 183.273 224.217 183.065C223.503 182.857 222.836 182.509 222.255 182.042C221.675 181.575 221.192 180.998 220.834 180.343C220.476 179.688 220.25 178.969 220.17 178.226L216.132 141.575C216.067 140.995 216.117 140.407 216.278 139.846C216.44 139.285 216.71 138.762 217.074 138.306C217.437 137.849 217.886 137.469 218.396 137.188C218.906 136.906 219.466 136.728 220.044 136.665L219.999 136.71Z" fill="#222222" stroke="#222222" stroke-width="0.5" stroke-linecap="round" stroke-linejoin="round"/>
<path d="M223.92 167.258C223.92 167.258 217.526 167.493 216.627 168.603C215.728 169.713 215.889 173.577 217.625 174.019C222.049 175.184 231.455 174.507 231.824 173.713C232.193 172.918 232.948 168.296 231.006 167.799C228.661 167.439 226.292 167.258 223.92 167.258Z" fill="white" stroke="#222222" stroke-width="0.5" stroke-linecap="round" stroke-linejoin="round"/>
<path d="M222.076 158.303C222.076 158.303 214.64 158.023 213.48 159.368C212.32 160.713 212.095 165.741 214.055 166.5C219.055 168.422 230.304 167.673 230.817 166.68C231.33 165.687 232.445 160.532 230.242 159.702C228.038 158.871 222.076 158.303 222.076 158.303Z" fill="white" stroke="#222222" stroke-width="0.5" stroke-linecap="round" stroke-linejoin="round"/>
<path d="M221.006 148.192C221.006 148.192 213.057 147.885 211.816 149.33C210.575 150.774 210.332 156.136 212.427 156.949C217.823 159.007 229.513 159.007 230.062 157.942C230.61 156.876 232.085 150.575 229.729 149.682C227.373 148.788 221.006 148.192 221.006 148.192Z" fill="white" stroke="#222222" stroke-width="0.5" stroke-linecap="round" stroke-linejoin="round"/>
<path d="M216.42 138.732C216.42 138.732 208.471 138.434 207.23 139.869C205.989 141.304 205.692 146.838 207.841 147.488C209.99 148.138 224.927 149.546 225.475 148.49C226.024 147.434 227.499 141.115 225.143 140.221C222.787 139.327 216.42 138.732 216.42 138.732Z" fill="white" stroke="#222222" stroke-width="0.5" stroke-linecap="round" stroke-linejoin="round"/>
<path d="M242.453 165.281C241.026 164.887 239.674 164.259 238.451 163.421C232.058 158.989 232.274 148.806 232.274 148.806L230.736 148.364C229.466 147.878 228.275 147.206 227.202 146.369C227.717 148.472 228.018 150.623 228.101 152.787C228.078 153.977 227.615 155.115 226.802 155.981C225.99 156.847 224.885 157.379 223.704 157.472C221.716 157.698 220.835 157.915 220.17 155.261C219.504 152.607 216.204 141.972 215.979 140.42C215.782 139.012 218.138 136.502 221.887 135.906C227.651 136.376 233.335 137.991 239.144 137.991C241.165 138.182 243.102 138.897 244.764 140.068" fill="white"/>
<path d="M242.453 165.281C241.026 164.887 239.674 164.259 238.451 163.421C232.058 158.989 232.274 148.806 232.274 148.806L230.736 148.364C229.466 147.878 228.275 147.206 227.202 146.369C227.717 148.472 228.018 150.623 228.101 152.787C228.078 153.977 227.615 155.115 226.802 155.981C225.99 156.847 224.885 157.379 223.704 157.472C221.716 157.698 220.835 157.915 220.17 155.261C219.504 152.607 216.204 141.972 215.979 140.42C215.782 139.012 218.138 136.502 221.887 135.906C227.651 136.376 233.335 137.991 239.144 137.991C241.165 138.182 243.102 138.897 244.764 140.068" stroke="#222222" stroke-width="0.5" stroke-linecap="round" stroke-linejoin="round"/>
<path d="M248.532 165.841C247.831 165.877 247.128 165.877 246.427 165.841H248.532Z" fill="white"/>
<path d="M248.532 165.841C247.831 165.877 247.128 165.877 246.427 165.841" stroke="#222222" stroke-width="0.5" stroke-linecap="round" stroke-linejoin="round"/>
<path d="M253.235 164.965C251.708 165.45 250.129 165.753 248.532 165.868L253.235 164.965Z" fill="white"/>
<path d="M253.235 164.965C251.708 165.45 250.129 165.753 248.532 165.868" stroke="#222222" stroke-width="0.5" stroke-linecap="round" stroke-linejoin="round"/>
<path d="M261.175 162.094H269.116" stroke="#222222" stroke-width="0.5" stroke-linecap="round" stroke-linejoin="round"/>
<path d="M261.841 164.306H265.149" stroke="#222222" stroke-width="0.5" stroke-linecap="round" stroke-linejoin="round"/>
<path d="M232.274 148.806C232.274 148.806 236.662 148.806 239.54 146.179" stroke="#222222" stroke-width="0.5" stroke-linecap="round" stroke-linejoin="round"/>
<path d="M227.103 146.08C226.977 144.877 226.727 143.692 226.357 142.541" stroke="#222222" stroke-width="0.5" stroke-linecap="round" stroke-linejoin="round"/>
<path d="M220.107 154.096C220.107 154.096 219.271 151.767 220.287 150.928C221.303 150.088 224.001 148.878 224.469 149.808C224.936 150.738 225.952 155.026 225.673 155.866L225.395 156.705" stroke="#222222" stroke-width="0.5" stroke-linecap="round" stroke-linejoin="round"/>
<path d="M342 182.343H265.967V144.825H342" fill="white"/>
<path d="M342 182.343H265.967V144.825H342" stroke="#222222" stroke-width="0.5" stroke-linecap="round" stroke-linejoin="round"/>
<path d="M271.543 179.833C272.489 179.833 273.253 179.065 273.253 178.118C273.253 177.171 272.489 176.403 271.543 176.403C270.6 176.403 269.836 177.171 269.836 178.118C269.836 179.065 270.6 179.833 271.543 179.833Z" fill="white" stroke="#222222" stroke-width="0.5" stroke-linecap="round" stroke-linejoin="round"/>
<path d="M150.712 109.095C151.364 108.831 151.956 108.439 152.453 107.941C152.951 107.443 153.343 106.85 153.608 106.197C154.022 105.177 153.922 103.823 154.813 102.243C156.791 98.7044 155.029 89.8485 155.712 83.4208C156.395 76.9935 149.309 68.3633 149.309 68.3633L150.685 42.8972H125.507C125.507 42.8972 126.604 69.4735 124.401 75.224C122.197 80.9744 117.566 87.411 117.782 90.2907C117.998 93.1704 120.669 116.849 120.669 116.849L150.667 109.095H150.712Z" fill="white" stroke="#222222" stroke-width="0.5" stroke-linecap="round" stroke-linejoin="round"/>
<path d="M49.251 115.667C49.827 120.926 51.9434 125.895 55.3326 129.946C58.7219 133.997 63.2317 136.948 68.2919 138.427C73.3518 139.905 78.7349 139.843 83.7602 138.25C88.7855 136.657 93.2273 133.603 96.524 129.476C99.8206 125.348 101.824 120.332 102.28 115.061C102.737 109.791 101.627 104.503 99.0892 99.8657C96.5519 95.229 92.702 91.4515 88.0261 89.0111C83.3502 86.5711 78.0585 85.5775 72.8202 86.1563H72.7573C65.7453 86.9482 59.3325 90.4999 54.9255 96.0321C50.5189 101.565 48.4781 108.626 49.251 115.667ZM96.9109 110.35C97.3793 114.569 96.5908 118.834 94.6451 122.603C92.6994 126.373 89.6838 129.479 85.9798 131.528C82.2757 133.577 78.0496 134.478 73.8358 134.116C69.6221 133.754 65.6096 132.146 62.3062 129.495C59.0027 126.844 56.5564 123.269 55.277 119.223C53.9972 115.176 53.9416 110.839 55.117 106.761C56.2924 102.682 58.646 99.0452 61.8804 96.31C65.1148 93.5744 69.0847 91.8631 73.2878 91.3922C78.9243 90.7636 84.5787 92.4072 89.0083 95.9621C93.438 99.517 96.2806 104.692 96.9109 110.35Z" fill="white" stroke="#222222" stroke-width="0.5" stroke-linecap="round" stroke-linejoin="round"/>
<path d="M47.6953 115.829C48.2768 121.084 50.3969 126.049 53.7885 130.095C57.18 134.141 61.6901 137.086 66.7489 138.559C71.8076 140.032 77.1878 139.966 82.2094 138.37C87.2309 136.773 91.6681 133.718 94.9602 129.591C98.2525 125.463 100.252 120.448 100.705 115.18C101.158 109.912 100.046 104.627 97.5076 99.9937C94.9694 95.3604 91.1201 91.5864 86.4456 89.1493C81.7712 86.7118 76.4821 85.7205 71.2466 86.3005C67.7683 86.686 64.3998 87.7557 61.3335 89.4482C58.2675 91.141 55.5632 93.4237 53.3762 96.1659C51.1892 98.9081 49.5617 102.056 48.587 105.43C47.6123 108.804 47.3093 112.338 47.6953 115.829ZM95.4272 110.53C95.894 114.748 95.1043 119.01 93.1581 122.778C91.212 126.545 88.1964 129.649 84.4933 131.696C80.7901 133.743 76.5654 134.642 72.3534 134.279C68.1413 133.915 64.1311 132.307 60.8301 129.655C57.5288 127.004 55.0849 123.43 53.8075 119.384C52.5298 115.339 52.4758 111.004 53.6524 106.927C54.8289 102.851 57.1832 99.2166 60.4173 96.4834C63.6514 93.7504 67.6204 92.0414 71.822 91.5725C74.6119 91.2614 77.4355 91.5048 80.1316 92.2891C82.8278 93.0735 85.3438 94.3831 87.5357 96.1436C89.7276 97.9038 91.5528 100.08 92.9067 102.549C94.2608 105.017 95.1173 107.729 95.4272 110.53Z" fill="white" stroke="#222222" stroke-width="0.5" stroke-linecap="round" stroke-linejoin="round"/>
<path d="M121.916 104.153L103.451 106.206C102.029 106.364 101.004 107.649 101.162 109.076L101.301 110.342C101.459 111.769 102.739 112.797 104.161 112.639L122.626 110.586C124.048 110.428 125.072 109.143 124.915 107.716L124.775 106.451C124.618 105.024 123.338 103.995 121.916 104.153Z" fill="white" stroke="#222222" stroke-width="0.5" stroke-linecap="round" stroke-linejoin="round"/>
<path d="M116.568 109.483L116.271 106.775C116.143 105.602 116.483 104.425 117.219 103.504C117.954 102.583 119.023 101.993 120.192 101.864L156.701 97.8108C157.444 97.7239 158.196 97.7856 158.915 97.9917C159.633 98.1977 160.305 98.5441 160.89 99.0116C161.474 99.4787 161.962 100.057 162.323 100.714C162.685 101.371 162.913 102.093 162.996 102.839V103.019C163.082 103.765 163.021 104.52 162.816 105.242C162.61 105.963 162.265 106.637 161.8 107.224C161.334 107.811 160.758 108.3 160.104 108.663C159.449 109.026 158.73 109.255 157.987 109.339L121.478 113.392C120.311 113.524 119.14 113.187 118.22 112.455C117.299 111.722 116.706 110.654 116.568 109.483Z" fill="#222222" stroke="#222222" stroke-width="0.5" stroke-linecap="round" stroke-linejoin="round"/>
<path d="M146.99 105.547C146.99 105.547 147.232 111.956 148.329 112.859C149.426 113.762 153.293 113.6 153.725 111.857C154.894 107.425 154.21 97.973 153.419 97.6118C152.628 97.2509 148.024 96.4744 147.538 98.4335C147.176 100.787 146.992 103.165 146.99 105.547Z" fill="white" stroke="#222222" stroke-width="0.5" stroke-linecap="round" stroke-linejoin="round"/>
<path d="M138.078 107.389C138.078 107.389 137.79 114.854 139.131 116.019C140.47 117.183 145.479 117.418 146.234 115.441C148.159 110.422 147.403 99.1287 146.414 98.6231C145.425 98.1175 140.29 96.989 139.463 99.2008C138.636 101.412 138.078 107.389 138.078 107.389Z" fill="white" stroke="#222222" stroke-width="0.5" stroke-linecap="round" stroke-linejoin="round"/>
<path d="M128.006 108.481C128.006 108.481 127.701 116.461 129.13 117.707C130.56 118.952 135.92 119.196 136.729 117.084C138.78 111.722 138.78 99.932 137.718 99.3902C136.657 98.8487 130.372 97.3591 129.49 99.7242C128.609 102.089 128.006 108.481 128.006 108.481Z" fill="white" stroke="#222222" stroke-width="0.5" stroke-linecap="round" stroke-linejoin="round"/>
<path d="M118.583 113.076C118.583 113.076 118.277 121.056 119.716 122.302C121.155 123.548 126.658 123.846 127.305 121.679C127.953 119.513 129.355 104.527 128.295 103.976C127.233 103.426 120.956 101.954 120.067 104.32C119.176 106.685 118.583 113.076 118.583 113.076Z" fill="white" stroke="#222222" stroke-width="0.5" stroke-linecap="round" stroke-linejoin="round"/>
<path d="M145.578 80.812C145.944 84.3681 145.094 87.9433 143.168 90.9497C138.762 97.3771 128.609 97.1516 128.609 97.1516L128.169 98.7043C127.689 99.9781 127.018 101.171 126.181 102.243C128.28 101.726 130.425 101.423 132.584 101.34C133.765 101.375 134.891 101.847 135.746 102.665C136.601 103.483 137.124 104.59 137.215 105.773C137.44 107.768 137.656 108.652 135.012 109.311C132.368 109.97 121.775 113.301 120.228 113.527C118.825 113.726 116.326 111.361 115.732 107.596C116.208 101.81 117.818 96.0953 117.818 90.2728C118.006 88.2405 118.719 86.2927 119.887 84.6216" fill="white"/>
<path d="M145.578 80.812C145.944 84.3681 145.094 87.9433 143.168 90.9497C138.762 97.3771 128.609 97.1516 128.609 97.1516L128.169 98.7043C127.689 99.9781 127.018 101.171 126.181 102.243C128.28 101.726 130.425 101.423 132.584 101.34C133.765 101.375 134.891 101.847 135.746 102.665C136.601 103.483 137.124 104.59 137.215 105.773C137.44 107.768 137.656 108.652 135.012 109.311C132.368 109.97 121.775 113.301 120.228 113.527C118.825 113.726 116.326 111.361 115.732 107.596C116.208 101.81 117.818 96.0953 117.818 90.2728C118.006 88.2405 118.719 86.2927 119.887 84.6216" stroke="#222222" stroke-width="0.5" stroke-linecap="round" stroke-linejoin="round"/>
<path d="M144.714 76.1178C144.981 76.9623 145.185 77.8253 145.326 78.6997L144.714 76.1178Z" fill="white"/>
<path d="M144.714 76.1178C144.981 76.9623 145.185 77.8253 145.326 78.6997" stroke="#222222" stroke-width="0.5" stroke-linecap="round" stroke-linejoin="round"/>
<path d="M141.846 68.1376V60.1665" stroke="#222222" stroke-width="0.5" stroke-linecap="round" stroke-linejoin="round"/>
<path d="M144.049 67.4787V64.1567" stroke="#222222" stroke-width="0.5" stroke-linecap="round" stroke-linejoin="round"/>
<path d="M128.609 97.1519C128.609 97.1519 128.609 92.7464 125.992 89.8578" stroke="#222222" stroke-width="0.5" stroke-linecap="round" stroke-linejoin="round"/>
<path d="M125.902 102.352C124.705 102.475 123.524 102.723 122.377 103.092" stroke="#222222" stroke-width="0.5" stroke-linecap="round" stroke-linejoin="round"/>
<path d="M133.888 109.339C133.888 109.339 131.567 110.178 130.731 109.149C129.895 108.12 128.69 105.421 129.616 104.96C130.542 104.5 134.814 103.471 135.65 103.751L136.486 104.021" stroke="#222222" stroke-width="0.5" stroke-linecap="round" stroke-linejoin="round"/>
<path d="M162.025 -13V63.3262H124.644V-13" fill="white"/>
<path d="M162.025 -13V63.3262H124.644V-13" stroke="#222222" stroke-width="0.5" stroke-linecap="round" stroke-linejoin="round"/>
<path d="M157.808 59.4444C158.751 59.4444 159.516 58.6763 159.516 57.729C159.516 56.7817 158.751 56.0139 157.808 56.0139C156.864 56.0139 156.099 56.7817 156.099 57.729C156.099 58.6763 156.864 59.4444 157.808 59.4444Z" fill="white" stroke="#222222" stroke-width="0.5" stroke-linecap="round" stroke-linejoin="round"/>
<path d="M113.097 245.038C112.836 245.692 112.445 246.287 111.949 246.787C111.453 247.286 110.862 247.68 110.21 247.944C109.194 248.369 107.845 248.269 106.272 249.154C102.747 251.149 93.9253 249.38 87.5225 250.057C81.12 250.734 72.5233 243.638 72.5233 243.638L47.1287 245.038V219.761C47.1287 219.761 73.6024 220.871 79.3395 218.66C85.0766 216.448 91.4702 211.79 94.339 212.015C97.2076 212.241 120.812 214.895 120.812 214.895L113.097 245.038Z" fill="white" stroke="#222222" stroke-width="0.5" stroke-linecap="round" stroke-linejoin="round"/>
<path d="M119.617 143.173C124.855 143.755 129.803 145.883 133.836 149.288C137.869 152.694 140.805 157.223 142.274 162.304C143.743 167.384 143.678 172.788 142.087 177.832C140.497 182.875 137.452 187.332 133.339 190.639C129.225 193.945 124.227 195.953 118.977 196.408C113.726 196.862 108.46 195.744 103.842 193.194C99.2252 190.644 95.4649 186.777 93.0369 182.082C90.6092 177.386 89.6226 172.074 90.2027 166.815C90.9799 159.767 94.515 153.317 100.03 148.885C105.544 144.453 112.587 142.401 119.608 143.182L119.617 143.173ZM114.329 191.09C118.532 191.56 122.78 190.769 126.535 188.816C130.29 186.862 133.384 183.835 135.426 180.117C137.467 176.398 138.364 172.156 138.003 167.925C137.643 163.695 136.041 159.667 133.4 156.351C130.759 153.035 127.198 150.579 123.167 149.294C119.136 148.01 114.817 147.954 110.754 149.134C106.692 150.314 103.068 152.677 100.344 155.924C97.6185 159.171 95.9138 163.156 95.445 167.375C94.8189 173.034 96.4561 178.71 99.9973 183.157C103.538 187.604 108.693 190.457 114.329 191.09Z" fill="white" stroke="#222222" stroke-width="0.5" stroke-linecap="round" stroke-linejoin="round"/>
<path d="M119.778 141.648C125.014 142.231 129.959 144.36 133.989 147.765C138.02 151.171 140.954 155.699 142.42 160.778C143.887 165.857 143.821 171.258 142.23 176.299C140.639 181.34 137.594 185.795 133.482 189.099C129.369 192.403 124.373 194.409 119.125 194.863C113.877 195.317 108.612 194.199 103.997 191.65C99.3823 189.1 95.6237 185.234 93.1971 180.541C90.7705 175.847 89.7849 170.537 90.3643 165.281C90.7492 161.79 91.8156 158.409 93.5022 155.332C95.189 152.255 97.4628 149.542 100.194 147.347C102.926 145.152 106.061 143.52 109.422 142.542C112.782 141.564 116.301 141.26 119.778 141.648ZM114.491 189.565C118.694 190.035 122.942 189.243 126.697 187.29C130.452 185.337 133.546 182.31 135.587 178.591C137.629 174.873 138.526 170.63 138.165 166.4C137.805 162.17 136.203 158.142 133.562 154.826C130.921 151.509 127.36 149.054 123.329 147.769C119.298 146.484 114.978 146.428 110.916 147.608C106.853 148.788 103.23 151.151 100.505 154.398C97.7805 157.645 96.0758 161.63 95.607 165.85C94.9831 171.506 96.6218 177.179 100.163 181.622C103.704 186.066 108.857 188.916 114.491 189.547V189.565Z" fill="white" stroke="#222222" stroke-width="0.5" stroke-linecap="round" stroke-linejoin="round"/>
<path d="M110.173 197.614L108.128 216.151C107.97 217.578 108.995 218.863 110.416 219.022L111.677 219.162C113.098 219.32 114.378 218.291 114.536 216.864L116.581 198.326C116.738 196.899 115.713 195.614 114.292 195.456L113.032 195.316C111.61 195.158 110.33 196.187 110.173 197.614Z" fill="white" stroke="#222222" stroke-width="0.5" stroke-linecap="round" stroke-linejoin="round"/>
<path d="M107.045 257.369H106.865C106.122 257.287 105.402 257.058 104.747 256.696C104.092 256.333 103.516 255.844 103.05 255.257C102.584 254.669 102.239 253.995 102.034 253.273C101.829 252.551 101.769 251.795 101.857 251.05L105.894 214.399C105.957 213.817 106.133 213.254 106.413 212.742C106.693 212.229 107.071 211.777 107.526 211.411C107.98 211.045 108.502 210.773 109.062 210.61C109.621 210.448 110.207 210.398 110.786 210.463L113.484 210.761C114.652 210.89 115.722 211.48 116.457 212.401C117.192 213.322 117.533 214.498 117.405 215.672L113.367 252.368C113.283 253.113 113.054 253.835 112.692 254.491C112.33 255.147 111.843 255.725 111.258 256.192C110.673 256.659 110.003 257.006 109.285 257.213C108.566 257.419 107.814 257.481 107.072 257.396L107.045 257.369Z" fill="#222222" stroke="#222222" stroke-width="0.5" stroke-linecap="round" stroke-linejoin="round"/>
<path d="M109.5 241.327C109.5 241.327 115.885 241.571 116.784 242.673C117.683 243.774 117.521 247.647 115.786 248.089C111.371 249.262 101.956 248.576 101.596 247.782C101.236 246.988 100.463 242.366 102.414 241.869C104.759 241.508 107.128 241.327 109.5 241.327Z" fill="white" stroke="#222222" stroke-width="0.5" stroke-linecap="round" stroke-linejoin="round"/>
<path d="M111.371 232.4C111.371 232.4 118.807 232.11 119.967 233.456C121.127 234.801 121.361 239.829 119.392 240.587C114.392 242.51 103.143 241.761 102.639 240.768C102.135 239.775 101.011 234.62 103.214 233.79C105.418 232.959 111.371 232.4 111.371 232.4Z" fill="white" stroke="#222222" stroke-width="0.5" stroke-linecap="round" stroke-linejoin="round"/>
<path d="M112.459 222.262C112.459 222.262 120.408 221.964 121.649 223.399C122.89 224.834 123.133 230.215 121.037 231.018C115.642 233.085 103.952 233.076 103.403 232.02C102.855 230.964 101.38 224.645 103.736 223.751C106.092 222.857 112.459 222.262 112.459 222.262Z" fill="white" stroke="#222222" stroke-width="0.5" stroke-linecap="round" stroke-linejoin="round"/>
<path d="M117.036 212.81C117.036 212.81 124.985 212.503 126.226 213.938C127.467 215.374 127.764 220.917 125.605 221.567C123.448 222.217 108.52 223.616 107.972 222.56C107.423 221.504 105.957 215.184 108.313 214.3C110.669 213.415 117.036 212.81 117.036 212.81Z" fill="white" stroke="#222222" stroke-width="0.5" stroke-linecap="round" stroke-linejoin="round"/>
<path d="M86.1201 239.955C89.2562 240.079 92.3525 239.218 94.9775 237.491C101.38 233.059 101.155 222.876 101.155 222.876L102.702 222.433C103.971 221.952 105.16 221.279 106.227 220.438C105.712 222.542 105.411 224.692 105.328 226.857C105.362 228.043 105.832 229.175 106.647 230.035C107.462 230.895 108.564 231.422 109.743 231.515C111.73 231.731 112.612 231.957 113.277 229.294C113.943 226.631 117.243 216.006 117.468 214.462C117.692 212.918 115.309 210.535 111.559 209.948C105.796 210.427 100.103 212.043 94.3031 212.043C92.2804 212.232 90.3411 212.944 88.6739 214.11" fill="white"/>
<path d="M86.1201 239.955C89.2562 240.079 92.3525 239.218 94.9775 237.491C101.38 233.059 101.155 222.876 101.155 222.876L102.702 222.433C103.971 221.952 105.16 221.279 106.227 220.438C105.712 222.542 105.411 224.692 105.328 226.857C105.362 228.043 105.832 229.175 106.647 230.035C107.462 230.895 108.564 231.422 109.743 231.515C111.73 231.731 112.612 231.957 113.277 229.294C113.943 226.631 117.243 216.006 117.468 214.462C117.692 212.918 115.309 210.535 111.559 209.948C105.796 210.427 100.103 212.043 94.3031 212.043C92.2804 212.232 90.3411 212.944 88.6739 214.11" stroke="#222222" stroke-width="0.5" stroke-linecap="round" stroke-linejoin="round"/>
<path d="M80.2209 239.043C81.4782 239.431 82.7704 239.694 84.0787 239.829L80.2209 239.043Z" fill="white"/>
<path d="M80.2209 239.043C81.4782 239.431 82.7704 239.694 84.0787 239.829" stroke="#222222" stroke-width="0.5" stroke-linecap="round" stroke-linejoin="round"/>
<path d="M72.2718 236.164H64.3315" stroke="#222222" stroke-width="0.5" stroke-linecap="round" stroke-linejoin="round"/>
<path d="M71.6153 238.375H68.3059" stroke="#222222" stroke-width="0.5" stroke-linecap="round" stroke-linejoin="round"/>
<path d="M101.173 222.876C101.173 222.876 96.785 222.876 93.9072 220.249" stroke="#222222" stroke-width="0.5" stroke-linecap="round" stroke-linejoin="round"/>
<path d="M106.353 220.149C106.476 218.947 106.724 217.761 107.09 216.611" stroke="#222222" stroke-width="0.5" stroke-linecap="round" stroke-linejoin="round"/>
<path d="M113.313 228.166C113.313 228.166 114.149 225.836 113.124 224.997C112.099 224.158 109.41 222.948 108.952 223.878C108.493 224.808 107.468 229.105 107.747 229.935L108.025 230.775" stroke="#222222" stroke-width="0.5" stroke-linecap="round" stroke-linejoin="round"/>
<path d="M-8.55225 256.421H67.4787V218.894H-8.55225" fill="white"/>
<path d="M-8.55225 256.421H67.4787V218.894H-8.55225" stroke="#222222" stroke-width="0.5" stroke-linecap="round" stroke-linejoin="round"/>
<path d="M60.1946 252.187C60.1946 252.527 60.2949 252.858 60.4826 253.14C60.6703 253.422 60.9372 253.642 61.2495 253.772C61.5617 253.902 61.905 253.936 62.2366 253.87C62.5681 253.803 62.8726 253.64 63.1113 253.4C63.3503 253.16 63.5132 252.855 63.5789 252.522C63.6449 252.189 63.6112 251.844 63.4817 251.531C63.3526 251.218 63.1335 250.95 62.8524 250.761C62.5716 250.573 62.2412 250.472 61.9033 250.472C61.4501 250.472 61.0156 250.653 60.6951 250.974C60.3748 251.296 60.1946 251.732 60.1946 252.187Z" fill="white" stroke="#222222" stroke-width="0.5" stroke-linecap="round" stroke-linejoin="round"/>
</g>
</svg>
