<svg width="585" height="408" viewBox="0 0 585 408" fill="none" xmlns="http://www.w3.org/2000/svg">
<path d="M568.046 167.615H17.9678V193.115H568.046V167.615Z" fill="#39404F"/>
<path d="M575.415 1H9.80566V183.145H575.415V1Z" fill="white"/>
<path d="M193.814 1V92.2506H179.708C161.904 94.1269 151.509 80.0346 155.276 58.41C159.042 36.7854 97.9341 70.6397 83.8418 58.41C73.858 49.7684 109.082 18.5298 130.515 1H193.814ZM471.565 50.4394C481.987 75.0907 592.287 6.47805 567.704 45.9748C543.122 85.4715 517.772 112.3 572.922 100.386L575.415 99.7967V1H523.086C498.065 14.0515 464.922 34.7996 471.565 50.4394Z" fill="white"/>
<path opacity="0.5" d="M193.814 1V92.2506H179.708C161.904 94.1269 151.509 80.0346 155.276 58.41C159.042 36.7854 97.9341 70.6397 83.8418 58.41C73.858 49.7684 109.082 18.5298 130.515 1H193.814ZM471.565 50.4394C481.987 75.0907 592.287 6.47805 567.704 45.9748C543.122 85.4715 517.772 112.3 572.922 100.386L575.415 99.7967V1H523.086C498.065 14.0515 464.922 34.7996 471.565 50.4394Z" fill="white"/>
<path d="M575.415 1H9.80566V183.145H575.415V1Z" stroke="#39404F" stroke-linecap="round" stroke-linejoin="round"/>
<path d="M391.75 1H193.458V183.145H391.75V1Z" fill="white"/>
<path d="M325.589 98.2355C303.855 109.849 241.09 160.535 213.48 183.145H391.764V3.24609C368.482 12.7231 279.751 49.7274 274.862 63.9977C269.22 80.4318 353.773 83.1709 325.589 98.2355Z" fill="white"/>
<path opacity="0.5" d="M325.589 98.2355C303.855 109.849 241.09 160.535 213.48 183.145H391.764V3.24609C368.482 12.7231 279.751 49.7274 274.862 63.9977C269.22 80.4318 353.773 83.1709 325.589 98.2355Z" fill="white"/>
<path d="M391.75 1H193.458V183.145H391.75V1Z" stroke="#39404F" stroke-linecap="round" stroke-linejoin="round"/>
<path d="M404.829 70.3111C410.704 83.2119 427.22 93.0998 435.177 95.4964C435.177 95.4964 456.487 102.947 472.469 90.5936C488.451 78.2406 491.971 54.2741 476.893 30.9376C461.814 7.60109 429.603 12.6272 415.799 25.7608C401.994 38.8945 398.967 57.4103 404.829 70.3111ZM449.42 48.933C454.611 53.4524 454.898 59.8891 449.763 62.9979C448.319 63.8246 446.679 64.2458 445.015 64.2169C443.352 64.1879 441.727 63.71 440.313 62.8335C438.702 61.9582 437.477 60.5103 436.881 58.776C436.285 57.0417 436.361 55.147 437.095 53.4661C438.601 49.7958 444.271 44.3999 449.42 48.933Z" fill="white" stroke="#39404F" stroke-miterlimit="10"/>
<path d="M416.552 27.5822C414.552 33.9779 413.58 35.7993 410.279 38.9492C406.979 42.0991 405.226 47.3443 405.623 50.1107C406.095 53.3933 406.242 56.7145 406.061 60.026C405.987 62.2969 406.444 64.5538 407.395 66.6173C408.346 68.6809 409.765 70.4942 411.539 71.9134C414.459 74.0422 416.969 76.6823 418.948 79.7059C421.838 83.6912 420.893 84.5951 425.221 86.7726C429.548 88.9501 437.724 93.3051 437.724 93.3051C437.724 93.3051 447.064 97.4137 451.255 95.7155C455.446 94.0173 460.431 87.8956 463.69 86.5945C466.95 85.2935 468.47 88.7858 472.784 82.486C477.098 76.1862 478.358 71.3382 481.001 68.8593C483.644 66.3805 484.274 57.6567 480.686 53.8906C477.063 50.4015 474.95 45.6335 474.797 40.6063C474.263 34.375 472.51 30.6362 465.895 28.4039C459.28 26.1716 454.336 20.5155 451.858 18.3791C449.379 16.2427 442.682 16.7631 438.478 18.9543C434.273 21.1455 430.452 17.5848 426.029 19.5706C424.659 20.2005 423.29 20.5977 422.208 21.0496C421.036 21.736 419.902 22.4858 418.811 23.2956C417.77 24.5529 417 26.0125 416.552 27.5822ZM437.67 50.3024C440.409 50.8229 441.929 45.7968 446.763 45.6872C451.597 45.5776 448.776 48.2756 449.502 48.974C450.628 49.9433 451.582 51.0963 452.323 52.3841C453.149 53.4395 453.703 54.6807 453.939 55.9996C453.86 58.2458 454.535 60.4539 455.857 62.272C457.404 64.381 453.953 64.5317 450.94 65.148C447.927 65.7642 447.708 65.5177 445.352 67.2981C442.997 69.0785 439.628 66.0108 439.628 66.0108C439.628 66.0108 437.574 65.2712 435.588 61.7653C433.602 58.2593 435.697 57.6567 433.917 54.8081C432.137 51.9595 434.917 49.6999 437.67 50.3024Z" fill="white" stroke="#39404F" stroke-miterlimit="10"/>
<path d="M438.956 33.4163C440.272 33.4163 441.339 32.3494 441.339 31.0333C441.339 29.7173 440.272 28.6504 438.956 28.6504C437.64 28.6504 436.573 29.7173 436.573 31.0333C436.573 32.3494 437.64 33.4163 438.956 33.4163Z" fill="white" stroke="#39404F" stroke-miterlimit="10"/>
<path d="M424.645 37.8536C425.213 37.8536 425.672 37.3937 425.672 36.8265C425.672 36.2592 425.213 35.7993 424.645 35.7993C424.078 35.7993 423.618 36.2592 423.618 36.8265C423.618 37.3937 424.078 37.8536 424.645 37.8536Z" fill="white" stroke="#39404F" stroke-miterlimit="10"/>
<path d="M430.603 26.5963C431.45 26.5963 432.137 25.9095 432.137 25.0624C432.137 24.2153 431.45 23.5286 430.603 23.5286C429.756 23.5286 429.069 24.2153 429.069 25.0624C429.069 25.9095 429.756 26.5963 430.603 26.5963Z" fill="white" stroke="#39404F" stroke-miterlimit="10"/>
<path d="M423.276 48.7549C423.276 49.2966 423.115 49.8262 422.814 50.2766C422.513 50.7271 422.086 51.0781 421.585 51.2854C421.085 51.4927 420.534 51.547 420.003 51.4413C419.471 51.3356 418.983 51.0747 418.6 50.6917C418.217 50.3086 417.956 49.8206 417.85 49.2893C417.745 48.7579 417.799 48.2072 418.006 47.7067C418.214 47.2062 418.565 46.7785 419.015 46.4775C419.466 46.1765 419.995 46.0159 420.537 46.0159C421.263 46.0159 421.96 46.3044 422.474 46.8181C422.987 47.3318 423.276 48.0285 423.276 48.7549Z" fill="white" stroke="#39404F" stroke-miterlimit="10"/>
<path d="M454.98 40.0723C454.98 40.4434 454.87 40.8062 454.664 41.1147C454.458 41.4233 454.165 41.6637 453.822 41.8057C453.479 41.9477 453.102 41.9849 452.738 41.9125C452.374 41.8401 452.039 41.6614 451.777 41.399C451.515 41.1366 451.336 40.8023 451.264 40.4384C451.191 40.0744 451.228 39.6972 451.37 39.3543C451.512 39.0115 451.753 38.7185 452.061 38.5123C452.37 38.3061 452.733 38.1961 453.104 38.1961C453.351 38.1943 453.595 38.2416 453.824 38.3352C454.052 38.4289 454.26 38.567 454.435 38.7416C454.609 38.9162 454.747 39.1237 454.841 39.3522C454.935 39.5806 454.982 39.8254 454.98 40.0723Z" fill="white" stroke="#39404F" stroke-miterlimit="10"/>
<path d="M454.473 30.3487C455.32 30.3487 456.007 29.662 456.007 28.8149C456.007 27.9677 455.32 27.281 454.473 27.281C453.626 27.281 452.939 27.9677 452.939 28.8149C452.939 29.662 453.626 30.3487 454.473 30.3487Z" fill="white" stroke="#39404F" stroke-miterlimit="10"/>
<path d="M468.593 41.7704C468.593 42.2092 468.463 42.6381 468.22 43.003C467.976 43.3678 467.629 43.6522 467.224 43.8201C466.818 43.988 466.372 44.032 465.942 43.9464C465.512 43.8608 465.116 43.6494 464.806 43.3392C464.496 43.0289 464.284 42.6336 464.199 42.2032C464.113 41.7728 464.157 41.3268 464.325 40.9214C464.493 40.516 464.777 40.1695 465.142 39.9257C465.507 39.6819 465.936 39.5518 466.375 39.5518C466.962 39.5553 467.524 39.7903 467.94 40.2055C468.355 40.6208 468.59 41.1831 468.593 41.7704Z" fill="white" stroke="#39404F" stroke-miterlimit="10"/>
<path d="M471.333 60.5191C471.333 60.8902 471.222 61.2529 471.016 61.5614C470.81 61.87 470.517 62.1105 470.174 62.2525C469.831 62.3945 469.454 62.4316 469.09 62.3592C468.726 62.2869 468.392 62.1082 468.13 61.8458C467.867 61.5834 467.689 61.2491 467.616 60.8851C467.544 60.5211 467.581 60.1439 467.723 59.8011C467.865 59.4582 468.105 59.1652 468.414 58.959C468.722 58.7529 469.085 58.6428 469.456 58.6428C469.954 58.6428 470.431 58.8405 470.783 59.1924C471.135 59.5442 471.333 60.0215 471.333 60.5191Z" fill="white" stroke="#39404F" stroke-miterlimit="10"/>
<path d="M459.759 79.7745C459.762 80.1813 459.643 80.5798 459.419 80.9195C459.195 81.2591 458.875 81.5245 458.5 81.6821C458.125 81.8397 457.712 81.8823 457.312 81.8046C456.913 81.7269 456.546 81.5323 456.257 81.2456C455.968 80.9589 455.771 80.5929 455.691 80.194C455.61 79.7951 455.65 79.3814 455.805 79.0052C455.961 78.6291 456.224 78.3074 456.562 78.0811C456.9 77.8547 457.298 77.7339 457.705 77.7339C458.247 77.7339 458.768 77.9484 459.152 78.3307C459.537 78.713 459.755 79.232 459.759 79.7745Z" fill="white" stroke="#39404F" stroke-miterlimit="10"/>
<path d="M435.889 85.9098C437.583 85.9098 438.957 84.5364 438.957 82.8421C438.957 81.1479 437.583 79.7744 435.889 79.7744C434.195 79.7744 432.821 81.1479 432.821 82.8421C432.821 84.5364 434.195 85.9098 435.889 85.9098Z" fill="white" stroke="#39404F" stroke-miterlimit="10"/>
<path d="M424.467 65.8055C425.315 65.8055 426.001 65.1188 426.001 64.2716C426.001 63.4245 425.315 62.7378 424.467 62.7378C423.62 62.7378 422.934 63.4245 422.934 64.2716C422.934 65.1188 423.62 65.8055 424.467 65.8055Z" fill="white" stroke="#39404F" stroke-miterlimit="10"/>
<path d="M441.011 71.9408C441.011 72.2117 440.931 72.4765 440.781 72.7017C440.63 72.9269 440.416 73.1024 440.166 73.2061C439.916 73.3097 439.64 73.3368 439.375 73.284C439.109 73.2312 438.865 73.1007 438.674 72.9092C438.482 72.7177 438.352 72.4736 438.299 72.208C438.246 71.9423 438.273 71.6669 438.377 71.4167C438.48 71.1665 438.656 70.9526 438.881 70.8021C439.106 70.6516 439.371 70.5713 439.642 70.5713C440.005 70.5713 440.354 70.7156 440.61 70.9724C440.867 71.2292 441.011 71.5776 441.011 71.9408Z" fill="white" stroke="#39404F" stroke-miterlimit="10"/>
<path d="M414.072 57.15C414.072 57.3856 414.003 57.616 413.872 57.8119C413.741 58.0079 413.555 58.1606 413.337 58.2507C413.119 58.3409 412.88 58.3645 412.648 58.3186C412.417 58.2726 412.205 58.1591 412.038 57.9925C411.872 57.8258 411.758 57.6135 411.712 57.3824C411.666 57.1513 411.69 56.9117 411.78 56.694C411.87 56.4763 412.023 56.2902 412.219 56.1593C412.415 56.0284 412.645 55.9585 412.881 55.9585C413.197 55.9585 413.5 56.084 413.723 56.3075C413.947 56.5309 414.072 56.834 414.072 57.15Z" fill="white" stroke="#39404F" stroke-miterlimit="10"/>
<path d="M423.619 26.2675C423.619 26.4706 423.558 26.6692 423.446 26.8381C423.333 27.007 423.172 27.1387 422.985 27.2164C422.797 27.2942 422.59 27.3145 422.391 27.2749C422.192 27.2352 422.009 27.1374 421.865 26.9938C421.722 26.8501 421.624 26.6671 421.584 26.4679C421.545 26.2686 421.565 26.0621 421.643 25.8744C421.72 25.6867 421.852 25.5263 422.021 25.4134C422.19 25.3006 422.388 25.2403 422.592 25.2403C422.727 25.2385 422.861 25.2638 422.987 25.3148C423.112 25.3657 423.226 25.4413 423.322 25.5371C423.418 25.6328 423.493 25.7468 423.544 25.8722C423.595 25.9977 423.621 26.1321 423.619 26.2675Z" fill="white" stroke="#39404F" stroke-miterlimit="10"/>
<path d="M436.232 40.0723C436.232 40.1838 436.21 40.2942 436.168 40.3972C436.125 40.5002 436.062 40.5938 435.984 40.6727C435.905 40.7515 435.811 40.8141 435.708 40.8567C435.605 40.8994 435.495 40.9214 435.383 40.9214C435.175 40.895 434.983 40.7934 434.844 40.6359C434.706 40.4783 434.629 40.2755 434.629 40.0654C434.629 39.8554 434.706 39.6526 434.844 39.495C434.983 39.3374 435.175 39.2359 435.383 39.2095C435.61 39.2131 435.826 39.3056 435.984 39.467C436.143 39.6284 436.232 39.8458 436.232 40.0723Z" fill="white" stroke="#39404F" stroke-miterlimit="10"/>
<path d="M461.115 52.0006C461.115 52.2362 461.045 52.4666 460.915 52.6625C460.784 52.8584 460.598 53.0112 460.38 53.1013C460.162 53.1915 459.923 53.2151 459.691 53.1691C459.46 53.1232 459.248 53.0097 459.081 52.8431C458.915 52.6764 458.801 52.4641 458.755 52.233C458.709 52.0019 458.733 51.7623 458.823 51.5446C458.913 51.3269 459.066 51.1408 459.262 51.0099C459.458 50.879 459.688 50.8091 459.924 50.8091C460.08 50.8091 460.235 50.8399 460.38 50.8998C460.524 50.9597 460.656 51.0474 460.766 51.1581C460.877 51.2687 460.965 51.4 461.025 51.5446C461.085 51.6892 461.115 51.8441 461.115 52.0006Z" fill="white" stroke="#39404F" stroke-miterlimit="10"/>
<path d="M472.372 71.256C472.375 71.6628 472.257 72.0613 472.033 72.401C471.809 72.7406 471.489 73.006 471.114 73.1636C470.738 73.3212 470.325 73.3638 469.926 73.2861C469.526 73.2084 469.159 73.0138 468.87 72.7271C468.582 72.4404 468.385 72.0743 468.304 71.6755C468.224 71.2766 468.264 70.8629 468.419 70.4867C468.574 70.1105 468.837 69.7889 469.175 69.5626C469.513 69.3362 469.911 69.2154 470.318 69.2154C470.587 69.2136 470.854 69.265 471.103 69.3668C471.352 69.4685 471.579 69.6185 471.77 69.8082C471.961 69.9979 472.112 70.2234 472.216 70.4719C472.319 70.7204 472.372 70.9868 472.372 71.256Z" fill="white" stroke="#39404F" stroke-miterlimit="10"/>
<path d="M431.793 54.4109C431.793 54.7826 431.683 55.1459 431.476 55.4547C431.27 55.7636 430.976 56.004 430.632 56.1456C430.288 56.2872 429.91 56.3236 429.546 56.2501C429.182 56.1765 428.848 55.9965 428.586 55.7327C428.324 55.469 428.146 55.1334 428.075 54.7685C428.005 54.4037 428.044 54.026 428.188 53.6834C428.332 53.3408 428.575 53.0487 428.885 52.8442C429.195 52.6397 429.559 52.532 429.931 52.5347C430.177 52.5347 430.42 52.5833 430.647 52.6778C430.874 52.7722 431.08 52.9107 431.253 53.0851C431.426 53.2595 431.563 53.4664 431.656 53.694C431.748 53.9215 431.795 54.1652 431.793 54.4109Z" fill="white" stroke="#39404F" stroke-miterlimit="10"/>
<path d="M423.276 71.256C423.276 71.5269 423.196 71.7916 423.045 72.0169C422.895 72.2421 422.681 72.4176 422.431 72.5212C422.18 72.6249 421.905 72.652 421.639 72.5992C421.374 72.5463 421.13 72.4159 420.938 72.2244C420.747 72.0329 420.616 71.7888 420.563 71.5232C420.511 71.2575 420.538 70.9821 420.641 70.7319C420.745 70.4816 420.921 70.2678 421.146 70.1173C421.371 69.9668 421.636 69.8865 421.907 69.8865C422.27 69.8865 422.618 70.0308 422.875 70.2876C423.132 70.5444 423.276 70.8928 423.276 71.256Z" fill="white" stroke="#39404F" stroke-miterlimit="10"/>
<path d="M415.784 45.6872C415.787 46.0264 415.689 46.3587 415.502 46.642C415.316 46.9253 415.049 47.1469 414.737 47.2785C414.424 47.4102 414.08 47.4461 413.747 47.3816C413.414 47.3171 413.107 47.1551 412.867 46.9162C412.626 46.6774 412.461 46.3724 412.394 46.0399C412.327 45.7075 412.36 45.3626 412.489 45.049C412.618 44.7354 412.838 44.4672 413.12 44.2785C413.402 44.0898 413.733 43.989 414.072 43.989C414.524 43.989 414.957 44.1675 415.278 44.4856C415.599 44.8037 415.78 45.2356 415.784 45.6872Z" fill="white" stroke="#39404F" stroke-miterlimit="10"/>
<path d="M446.461 23.8709C446.464 24.0746 446.406 24.2745 446.295 24.4452C446.184 24.6159 446.024 24.7497 445.837 24.8295C445.649 24.9094 445.443 24.9317 445.242 24.8936C445.042 24.8555 444.858 24.7588 444.713 24.6157C444.568 24.4726 444.469 24.2896 444.428 24.09C444.387 23.8904 444.407 23.6832 444.484 23.4947C444.561 23.3062 444.693 23.145 444.862 23.0315C445.031 22.918 445.231 22.8574 445.434 22.8574C445.704 22.8574 445.964 22.9637 446.156 23.1534C446.348 23.3431 446.458 23.6008 446.461 23.8709Z" fill="white" stroke="#39404F" stroke-miterlimit="10"/>
<path d="M99.0026 66.5313C98.4523 66.4782 97.9283 66.2698 97.4919 65.9303C97.0554 65.5908 96.7245 65.1343 96.5375 64.614C94.8987 60.0817 91.9959 56.1137 88.1726 53.1795C84.3493 50.2452 79.7654 48.4677 74.9635 48.0571C70.1615 47.6465 65.3424 48.62 61.0764 50.8625C56.8104 53.105 53.2761 56.5226 50.8917 60.7109C50.6226 61.192 50.2222 61.5866 49.7371 61.8485C49.2521 62.1104 48.7025 62.2288 48.1526 62.1899L44.9891 61.916C44.4822 61.87 43.9721 61.9586 43.5105 62.173C43.0489 62.3873 42.6521 62.7198 42.3603 63.1367C42.0684 63.5537 41.8918 64.0403 41.8484 64.5474C41.805 65.0545 41.8963 65.5641 42.1131 66.0246L47.7692 78.6378C48.2211 79.6649 48.673 80.6921 49.0565 81.7466C50.7942 86.6277 53.9928 90.8553 58.2174 93.8549C62.442 96.8544 67.4877 98.4804 72.6688 98.5118C77.8499 98.5433 82.915 96.9786 87.1757 94.0305C91.4364 91.0824 94.686 86.8938 96.4827 82.0342C97.3592 79.6375 98.2905 77.2409 99.3724 74.9264L101.358 70.6809C101.568 70.2591 101.671 69.792 101.659 69.3209C101.646 68.8498 101.518 68.389 101.285 67.9792C101.052 67.5693 100.722 67.2229 100.324 66.9704C99.9265 66.718 99.4726 66.5672 99.0026 66.5313Z" fill="white" stroke="#39404F" stroke-miterlimit="10"/>
<path d="M99.0027 66.5313C98.4523 66.4782 97.9284 66.2697 97.4919 65.9303C97.0555 65.5908 96.7245 65.1343 96.5375 64.6139C95.9003 62.8605 95.0689 61.1838 94.0587 59.6152L89.238 71.7765C81.1666 80.5878 72.5734 88.9066 63.5049 96.6879C66.4653 97.8583 69.6205 98.4577 72.8039 98.4546H73.8721C81.9516 93.3321 89.6047 87.566 96.7567 81.2125C97.5647 79.076 98.3864 76.9533 99.3587 74.899L101.345 70.6535C101.548 70.2337 101.647 69.7706 101.632 69.3042C101.617 68.8377 101.489 68.3819 101.258 67.9762C101.028 67.5704 100.702 67.2268 100.309 66.9751C99.916 66.7233 99.4676 66.571 99.0027 66.5313Z" fill="white" stroke="#39404F" stroke-miterlimit="10"/>
<path d="M72.8312 84.2665C93.5328 84.2665 110.315 67.4845 110.315 46.7829C110.315 26.0813 93.5328 9.29932 72.8312 9.29932C52.1296 9.29932 35.3477 26.0813 35.3477 46.7829C35.3477 67.4845 52.1296 84.2665 72.8312 84.2665Z" fill="white" stroke="#39404F" stroke-miterlimit="10"/>
<path d="M72.8305 79.2678C90.7714 79.2678 105.315 64.7238 105.315 46.7829C105.315 28.842 90.7714 14.2981 72.8305 14.2981C54.8897 14.2981 40.3457 28.842 40.3457 46.7829C40.3457 64.7238 54.8897 79.2678 72.8305 79.2678Z" fill="white" stroke="#39404F" stroke-miterlimit="10"/>
<path d="M72.8309 72.0093C86.7631 72.0093 98.0574 60.715 98.0574 46.7828C98.0574 32.8506 86.7631 21.5564 72.8309 21.5564C58.8987 21.5564 47.6045 32.8506 47.6045 46.7828C47.6045 60.715 58.8987 72.0093 72.8309 72.0093Z" fill="white" stroke="#39404F" stroke-miterlimit="10"/>
<path d="M56.8075 29.1984L25.9798 13.5859L23.501 21.2141L52.6716 36.4157C53.3736 36.8961 54.204 37.1538 55.0546 37.1552C56.0436 37.2285 57.0257 36.9415 57.8197 36.3473C58.6137 35.753 59.1659 34.8916 59.3745 33.9221C59.5831 32.9525 59.434 31.9403 58.9546 31.0721C58.4753 30.2039 57.6981 29.5384 56.7664 29.1984H56.8075Z" fill="white" stroke="#39404F" stroke-miterlimit="10"/>
<path d="M27.7054 17.0507C27.7054 17.8633 27.4644 18.6576 27.0129 19.3333C26.5615 20.0089 25.9198 20.5355 25.1691 20.8465C24.4184 21.1574 23.5923 21.2388 22.7953 21.0803C21.9983 20.9217 21.2662 20.5304 20.6916 19.9559C20.1171 19.3813 19.7258 18.6492 19.5672 17.8522C19.4087 17.0552 19.4901 16.2291 19.801 15.4784C20.112 14.7277 20.6386 14.086 21.3142 13.6346C21.9899 13.1831 22.7842 12.9421 23.5968 12.9421C24.6865 12.9421 25.7315 13.375 26.502 14.1455C27.2725 14.916 27.7054 15.961 27.7054 17.0507Z" fill="white" stroke="#39404F" stroke-miterlimit="10"/>
<path d="M224.807 24.0488H306.991" stroke="#39404F" stroke-miterlimit="10"/>
<path d="M330.162 24.0488H364.578" stroke="#39404F" stroke-miterlimit="10"/>
<path d="M224.807 38.0864H306.991" stroke="#39404F" stroke-miterlimit="10"/>
<path d="M330.162 38.0864H364.578" stroke="#39404F" stroke-miterlimit="10"/>
<path d="M224.807 52.1377H306.991" stroke="#39404F" stroke-miterlimit="10"/>
<path d="M330.162 52.1377H364.578" stroke="#39404F" stroke-miterlimit="10"/>
<path d="M224.807 66.1887H306.991" stroke="#39404F" stroke-miterlimit="10"/>
<path d="M330.162 66.1887H364.578" stroke="#39404F" stroke-miterlimit="10"/>
<path d="M224.807 80.24H306.991" stroke="#39404F" stroke-miterlimit="10"/>
<path d="M330.162 80.24H364.578" stroke="#39404F" stroke-miterlimit="10"/>
<path d="M224.807 109.027H306.991" stroke="#39404F" stroke-miterlimit="10"/>
<path d="M330.162 109.027H364.578" stroke="#39404F" stroke-miterlimit="10"/>
<path d="M224.807 123.078H306.991" stroke="#39404F" stroke-miterlimit="10"/>
<path d="M330.162 123.078H364.578" stroke="#39404F" stroke-miterlimit="10"/>
<path d="M224.807 137.13H306.991" stroke="#39404F" stroke-miterlimit="10"/>
<path d="M330.162 137.13H364.578" stroke="#39404F" stroke-miterlimit="10"/>
<path d="M224.807 151.181H306.991" stroke="#39404F" stroke-miterlimit="10"/>
<path d="M330.162 151.181H364.578" stroke="#39404F" stroke-miterlimit="10"/>
<path d="M224.807 165.218H306.991" stroke="#39404F" stroke-miterlimit="10"/>
<path d="M330.162 165.218H364.578" stroke="#39404F" stroke-miterlimit="10"/>
<path d="M413.046 109.027H495.23" stroke="#39404F" stroke-miterlimit="10"/>
<path d="M518.402 109.027H552.818" stroke="#39404F" stroke-miterlimit="10"/>
<path d="M413.046 123.078H495.23" stroke="#39404F" stroke-miterlimit="10"/>
<path d="M518.402 123.078H552.818" stroke="#39404F" stroke-miterlimit="10"/>
<path d="M413.046 137.13H495.23" stroke="#39404F" stroke-miterlimit="10"/>
<path d="M518.402 137.13H552.818" stroke="#39404F" stroke-miterlimit="10"/>
<path d="M413.046 151.181H495.23" stroke="#39404F" stroke-miterlimit="10"/>
<path d="M518.402 151.181H552.818" stroke="#39404F" stroke-miterlimit="10"/>
<path d="M413.046 165.218H495.23" stroke="#39404F" stroke-miterlimit="10"/>
<path d="M518.402 165.218H552.818" stroke="#39404F" stroke-miterlimit="10"/>
<path d="M28.8428 110.438H111.014" stroke="#39404F" stroke-miterlimit="10"/>
<path d="M134.199 110.438H168.615" stroke="#39404F" stroke-miterlimit="10"/>
<path d="M28.8428 124.489H111.014" stroke="#39404F" stroke-miterlimit="10"/>
<path d="M134.199 124.489H168.615" stroke="#39404F" stroke-miterlimit="10"/>
<path d="M28.8428 138.54H111.014" stroke="#39404F" stroke-miterlimit="10"/>
<path d="M134.199 138.54H168.615" stroke="#39404F" stroke-miterlimit="10"/>
<path d="M28.8428 152.578H111.014" stroke="#39404F" stroke-miterlimit="10"/>
<path d="M134.199 152.578H168.615" stroke="#39404F" stroke-miterlimit="10"/>
<path d="M28.8428 166.629H111.014" stroke="#39404F" stroke-miterlimit="10"/>
<path d="M134.199 166.629H168.615" stroke="#39404F" stroke-miterlimit="10"/>
<path d="M77.2498 225.612C71.9346 221.646 66.9425 217.264 62.3206 212.508C59.1384 209.081 58.3819 204.524 58.4439 200.761C58.4747 198.886 58.7089 197.227 58.9356 196.037C59.0197 195.595 59.1027 195.219 59.1735 194.921C59.2406 194.982 59.3131 195.048 59.3908 195.119C59.9315 195.611 60.7271 196.342 61.7454 197.296C63.7821 199.204 66.7093 202.002 70.2688 205.561C73.7893 209.082 75.5325 212.084 76.3964 214.185C76.8287 215.236 77.0419 216.063 77.1471 216.62C77.1997 216.899 77.2254 217.11 77.2379 217.248C77.2442 217.317 77.2471 217.367 77.2485 217.399C77.2492 217.415 77.2495 217.426 77.2497 217.432L77.2498 217.436V217.436L77.2498 217.437L77.2498 217.437V225.612Z" fill="white" stroke="#39404F"/>
<path d="M66.9021 257.408C61.5838 253.446 56.5914 249.064 51.9731 244.303C48.7907 240.876 48.0343 236.323 48.0962 232.563C48.1271 230.69 48.3613 229.032 48.588 227.844C48.6718 227.404 48.7545 227.029 48.8252 226.732C48.8911 226.792 48.9622 226.857 49.0384 226.926C49.577 227.419 50.3698 228.15 51.3858 229.104C53.4177 231.012 56.3418 233.811 59.9082 237.37C63.4355 240.891 65.1819 243.89 66.0473 245.987C66.4804 247.037 66.6939 247.862 66.7993 248.418C66.852 248.696 66.8777 248.907 66.8902 249.044C66.8965 249.113 66.8995 249.163 66.9009 249.195C66.9016 249.21 66.9019 249.221 66.902 249.227L66.9021 249.231V249.232L66.9021 249.232L66.9021 249.233V257.408Z" fill="white" stroke="#39404F"/>
<path d="M77.7954 226.139L77.7954 226.139L77.7953 226.14L77.7952 226.141L77.7954 226.139ZM77.7954 226.139L77.7959 226.135C77.7967 226.129 77.7981 226.118 77.8005 226.103C77.8052 226.072 77.8134 226.022 77.8267 225.954C77.8535 225.819 77.901 225.612 77.9824 225.341C78.145 224.799 78.4434 224 78.9832 223.003C80.0622 221.009 82.111 218.21 85.985 215.082C89.9019 211.92 93.1071 209.446 95.3323 207.763C96.4449 206.921 97.3125 206.278 97.9015 205.845C97.9857 205.783 98.0643 205.725 98.137 205.672C98.1759 205.975 98.2186 206.357 98.2555 206.804C98.3552 208.011 98.4129 209.685 98.2454 211.552C97.9096 215.298 96.6761 219.748 93.1497 222.818C88.0587 227.067 82.6356 230.9 76.9327 234.281L77.7954 226.139Z" fill="white" stroke="#39404F"/>
<path d="M87.6722 245.542C87.6786 245.848 87.6802 246.232 87.6694 246.68C87.6401 247.889 87.5195 249.558 87.1555 251.396C86.4251 255.084 84.7308 259.378 80.9112 262.067C75.3991 265.755 69.5995 268.993 63.5687 271.75L87.6722 245.542ZM87.6722 245.542C87.5945 245.587 87.5107 245.636 87.4208 245.688C86.79 246.055 85.8602 246.601 84.6659 247.318C82.2773 248.753 78.831 250.873 74.6035 253.612C70.4218 256.321 68.0863 258.893 66.7999 260.765C66.1563 261.702 65.7738 262.466 65.5538 262.988C65.4437 263.25 65.3742 263.45 65.333 263.582C65.3123 263.649 65.2988 263.697 65.2908 263.728C65.2868 263.743 65.2842 263.754 65.2827 263.76L65.2817 263.764L65.2816 263.765L65.2815 263.765L65.2814 263.765L87.6722 245.542Z" fill="white" stroke="#39404F"/>
<path d="M85.4982 282.302C85.5752 282.232 85.647 282.167 85.7135 282.106C85.7844 282.404 85.8673 282.78 85.9513 283.22C86.178 284.409 86.4122 286.066 86.4431 287.94C86.505 291.7 85.7486 296.253 82.5662 299.68C77.9505 304.438 72.9627 308.82 67.6504 312.784V304.61L67.6504 304.609L67.6504 304.609L67.6504 304.608L67.6505 304.604C67.6506 304.598 67.6509 304.587 67.6516 304.571C67.653 304.54 67.656 304.489 67.6623 304.42C67.6748 304.282 67.7004 304.071 67.7531 303.793C67.8583 303.236 68.0715 302.408 68.5037 301.357C69.3677 299.257 71.1108 296.254 74.6314 292.734C78.1909 289.174 81.1148 286.379 83.1481 284.475C84.1647 283.523 84.9587 282.793 85.4982 282.302ZM67.6504 304.61C67.6504 304.61 67.6504 304.61 67.6504 304.61L67.6504 304.61Z" fill="white" stroke="#39404F"/>
<path d="M66.5362 314.527L66.5363 314.527L66.5368 314.523C66.5375 314.517 66.5387 314.506 66.5403 314.49C66.5433 314.459 66.5475 314.408 66.551 314.34C66.558 314.202 66.5624 313.989 66.5497 313.707C66.5242 313.142 66.4305 312.294 66.1525 311.194C65.5968 308.995 64.3023 305.779 61.3313 301.794C58.3278 297.765 55.8309 294.58 54.0854 292.403C53.2127 291.315 52.5279 290.478 52.0616 289.914C51.9939 289.832 51.9307 289.756 51.8723 289.686C51.7598 289.971 51.624 290.331 51.4778 290.757C51.0842 291.901 50.6165 293.509 50.3191 295.359C49.7224 299.071 49.8223 303.685 52.4824 307.525C56.3748 312.905 60.6913 317.965 65.3903 322.655L66.5362 314.527ZM66.5362 314.527L66.5362 314.527L66.5362 314.528L66.5361 314.528L66.5362 314.527Z" fill="white" stroke="#39404F"/>
<path d="M78.3453 321.916C78.4223 321.845 78.494 321.78 78.5606 321.719C78.6314 322.017 78.7142 322.392 78.7982 322.832C79.0251 324.021 79.2597 325.678 79.2914 327.552C79.355 331.312 78.6017 335.865 75.4259 339.292C70.8076 344.053 65.8153 348.435 60.4971 352.397V344.222L60.4971 344.221L60.4971 344.221L60.4971 344.22L60.4972 344.216C60.4973 344.21 60.4976 344.199 60.4983 344.183C60.4997 344.152 60.5027 344.101 60.5089 344.033C60.5214 343.895 60.5471 343.685 60.5997 343.407C60.7049 342.851 60.9181 342.025 61.3503 340.976C62.2142 338.879 63.9574 335.88 67.4781 332.359C71.0377 328.799 73.9616 326.001 75.9951 324.093C77.0118 323.139 77.8058 322.408 78.3453 321.916ZM60.4971 344.222C60.4971 344.222 60.4971 344.222 60.4971 344.222L60.4971 344.222Z" fill="white" stroke="#39404F"/>
<path d="M65.2478 371.039L65.2436 371.011L65.2367 370.985L65.2366 370.985L65.2364 370.984L65.2363 370.983L65.2354 370.98C65.2339 370.974 65.2314 370.963 65.228 370.948C65.2212 370.917 65.211 370.867 65.1992 370.799C65.1757 370.663 65.146 370.453 65.1252 370.17C65.0835 369.606 65.0773 368.752 65.2275 367.627C65.5276 365.379 66.4541 362.034 68.9864 357.735C71.5473 353.387 73.6679 349.94 75.1478 347.58C75.8878 346.401 76.4675 345.493 76.8621 344.88C76.9173 344.794 76.9689 344.715 77.0168 344.64C77.1607 344.91 77.3358 345.251 77.5285 345.655C78.05 346.747 78.6979 348.291 79.2042 350.096C80.2202 353.718 80.6458 358.316 78.4352 362.438C76.1681 366.665 72.9318 370.448 70.2504 373.183C68.9117 374.548 67.7157 375.647 66.8552 376.404C66.5846 376.642 66.3473 376.846 66.1493 377.014L65.2478 371.039Z" fill="white" stroke="#39404F"/>
<path d="M78.385 216.111C78.0271 221.416 77.3769 226.696 76.4375 231.929C73.6157 246.502 66.5677 255.882 63.7591 269.024C60.9505 282.166 69.0583 299.11 66.8591 316.015C64.66 332.919 58.1154 342.299 59.9967 353.573C61.8779 364.847 69.2703 400.259 69.2703 400.259" stroke="#39404F" stroke-linecap="round" stroke-linejoin="round"/>
<path d="M77.2324 229.478L84.903 223.583" stroke="#39404F" stroke-linecap="round" stroke-linejoin="round"/>
<path d="M77.5761 222.682L74.3701 216.972" stroke="#39404F" stroke-linecap="round" stroke-linejoin="round"/>
<path d="M64.1826 268.428C64.1826 268.428 70.6079 263.605 77.232 258.783" stroke="#39404F" stroke-linecap="round" stroke-linejoin="round"/>
<path d="M67.4016 258.386C64.209 252.191 60.3961 246.336 56.0215 240.911" stroke="#39404F" stroke-linecap="round" stroke-linejoin="round"/>
<path d="M67.4033 311.855C71.0831 305.08 75.7288 298.877 81.1946 293.44" stroke="#39404F" stroke-linecap="round" stroke-linejoin="round"/>
<path d="M66.1441 318.996C64.1984 314.391 61.8673 309.959 59.1756 305.747C55.4264 300.21 54.8965 299.494 54.8965 299.494" stroke="#39404F" stroke-linecap="round" stroke-linejoin="round"/>
<path d="M59.9971 353.586C61.6306 349.539 63.5658 345.619 65.7865 341.862C67.9976 338.389 70.4924 335.106 73.2451 332.045" stroke="#39404F" stroke-linecap="round" stroke-linejoin="round"/>
<path d="M65.2959 381.129C65.9652 376.825 67.2269 372.634 69.0451 368.676C71.6947 363.483 74.7683 356.753 76.0136 354.023" stroke="#39404F" stroke-linecap="round" stroke-linejoin="round"/>
<mask id="path-97-inside-1" fill="white">
<path d="M19.563 285.451C19.563 285.451 19.0066 282.259 22.7028 277.012C26.399 271.766 28.8366 268.719 28.8366 268.719C28.8366 268.719 32.3474 275.674 28.9691 280.867C26.4603 284.542 23.6461 287.999 20.5566 291.201L19.563 285.451Z"/>
</mask>
<path d="M19.563 285.451C19.563 285.451 19.0066 282.259 22.7028 277.012C26.399 271.766 28.8366 268.719 28.8366 268.719C28.8366 268.719 32.3474 275.674 28.9691 280.867C26.4603 284.542 23.6461 287.999 20.5566 291.201L19.563 285.451Z" fill="white"/>
<path d="M19.563 285.451L20.5484 285.281L20.5482 285.28L19.563 285.451ZM28.8366 268.719L29.7294 268.268L29.028 266.879L28.0558 268.094L28.8366 268.719ZM28.9691 280.867L29.795 281.431L29.8013 281.422L29.8074 281.413L28.9691 280.867ZM20.5566 291.201L19.5712 291.371L19.907 293.314L21.2762 291.895L20.5566 291.201ZM19.563 285.451C20.5482 285.28 20.5483 285.28 20.5484 285.281C20.5484 285.281 20.5485 285.282 20.5486 285.282C20.5487 285.283 20.5489 285.284 20.549 285.284C20.5492 285.286 20.5494 285.287 20.5496 285.288C20.5499 285.29 20.5501 285.292 20.5502 285.292C20.5504 285.293 20.5501 285.291 20.5495 285.287C20.5482 285.277 20.5457 285.255 20.543 285.222C20.5375 285.156 20.5314 285.043 20.5337 284.885C20.5383 284.57 20.5767 284.075 20.723 283.416C21.0151 282.101 21.7424 280.112 23.5203 277.588L21.8853 276.436C19.967 279.159 19.1243 281.39 18.7706 282.982C18.594 283.777 18.5405 284.408 18.5339 284.856C18.5306 285.079 18.5391 285.257 18.5497 285.386C18.5549 285.45 18.5607 285.502 18.5658 285.542C18.5684 285.562 18.5708 285.578 18.5728 285.592C18.5738 285.599 18.5748 285.605 18.5756 285.61C18.5761 285.612 18.5764 285.615 18.5768 285.617C18.577 285.618 18.5772 285.619 18.5774 285.62C18.5774 285.621 18.5776 285.621 18.5776 285.622C18.5777 285.622 18.5778 285.623 19.563 285.451ZM23.5203 277.588C25.3613 274.975 26.8881 272.911 27.9536 271.501C28.4862 270.797 28.9035 270.256 29.187 269.891C29.3287 269.709 29.437 269.572 29.5095 269.48C29.5458 269.434 29.5731 269.399 29.5912 269.377C29.6003 269.365 29.607 269.357 29.6114 269.351C29.6136 269.349 29.6152 269.347 29.6162 269.345C29.6167 269.345 29.6171 269.344 29.6173 269.344C29.6174 269.344 29.6175 269.344 29.6175 269.344C29.6175 269.344 29.6175 269.344 29.6175 269.344C29.6175 269.344 29.6175 269.344 28.8366 268.719C28.0558 268.094 28.0557 268.094 28.0557 268.094C28.0557 268.094 28.0556 268.095 28.0555 268.095C28.0554 268.095 28.0553 268.095 28.0551 268.095C28.0547 268.096 28.0542 268.096 28.0535 268.097C28.0521 268.099 28.0502 268.101 28.0477 268.104C28.0426 268.111 28.0352 268.12 28.0255 268.132C28.0061 268.157 27.9774 268.193 27.9398 268.24C27.8646 268.336 27.7536 268.477 27.609 268.663C27.3199 269.034 26.8968 269.583 26.358 270.295C25.2806 271.721 23.7405 273.803 21.8853 276.436L23.5203 277.588ZM28.8366 268.719C27.9439 269.17 27.9438 269.169 27.9437 269.169C27.9436 269.169 27.9435 269.169 27.9435 269.169C27.9434 269.169 27.9433 269.168 27.9433 269.168C27.9434 269.168 27.9436 269.169 27.944 269.17C27.9449 269.172 27.9465 269.175 27.949 269.18C27.9539 269.19 27.9618 269.206 27.9726 269.229C27.994 269.274 28.0266 269.343 28.0677 269.436C28.15 269.62 28.2662 269.894 28.3967 270.24C28.6582 270.934 28.973 271.909 29.1874 273.033C29.621 275.307 29.6173 278.037 28.1309 280.322L29.8074 281.413C31.6992 278.505 31.6292 275.161 31.152 272.658C30.911 271.395 30.5593 270.307 30.2682 269.534C30.1222 269.147 29.9906 268.837 29.8941 268.62C29.8458 268.512 29.8062 268.427 29.7779 268.368C29.7638 268.338 29.7524 268.315 29.7442 268.298C29.7401 268.29 29.7368 268.283 29.7343 268.278C29.7331 268.276 29.732 268.274 29.7312 268.272C29.7308 268.271 29.7304 268.271 29.7301 268.27C29.73 268.27 29.7298 268.269 29.7297 268.269C29.7295 268.269 29.7294 268.268 28.8366 268.719ZM28.1432 280.304C25.6661 283.932 22.8875 287.345 19.837 290.507L21.2762 291.895C24.4048 288.653 27.2545 285.152 29.795 281.431L28.1432 280.304ZM21.542 291.031L20.5484 285.281L18.5776 285.622L19.5712 291.371L21.542 291.031Z" fill="#39404F" mask="url(#path-97-inside-1)"/>
<path d="M30.8429 308.961L30.0195 304.196C30.0195 304.196 30.0194 304.196 30.0193 304.195C30.0193 304.195 30.0193 304.195 30.0193 304.195L30.017 304.178C30.0149 304.161 30.0116 304.132 30.0084 304.091C30.002 304.009 29.9958 303.879 29.9989 303.705C30.0051 303.357 30.0488 302.828 30.2044 302.134C30.5152 300.749 31.2747 298.7 33.0878 296.126C34.9327 293.507 36.4598 291.435 37.5252 290.018C38.0105 289.372 38.4 288.863 38.6801 288.499C38.7263 288.614 38.7759 288.74 38.8275 288.877C39.0965 289.592 39.4206 290.597 39.6416 291.757C40.0859 294.088 40.1007 296.97 38.5162 299.402C36.2086 302.782 33.6432 305.978 30.8429 308.961Z" fill="white" stroke="#39404F"/>
<path d="M21.6312 295.64C17.8193 294.166 14.1261 292.401 10.5844 290.36C8.09674 288.846 6.85945 286.242 6.24887 283.95C5.94502 282.809 5.80155 281.764 5.73426 281.005C5.7213 280.858 5.71119 280.723 5.7033 280.6C6.11301 280.804 6.68506 281.094 7.40267 281.464C8.97655 282.277 11.2504 283.48 14.0472 285.04C16.7962 286.574 18.367 288.092 19.2456 289.206C19.6852 289.763 19.9532 290.221 20.1091 290.532C20.1872 290.688 20.2373 290.807 20.2669 290.884C20.2816 290.922 20.2913 290.95 20.2968 290.966L20.302 290.982C20.3021 290.982 20.3021 290.982 20.3021 290.983C20.3023 290.983 20.3025 290.984 20.3024 290.983L21.6312 295.64Z" fill="white" stroke="#39404F"/>
<path d="M16.5839 304.444C17.011 304.607 17.6062 304.835 18.3538 305.128C20.0029 305.774 22.3934 306.733 25.3567 307.983C28.2682 309.212 30.0003 310.554 30.9971 311.568C31.4959 312.075 31.8126 312.503 32.0016 312.796C32.0961 312.942 32.1589 313.056 32.1966 313.129C32.2155 313.165 32.2281 313.192 32.2353 313.208L32.2419 313.223L32.2422 313.223L34.0115 317.718C30.062 316.653 26.2001 315.285 22.4601 313.626C19.8295 312.386 18.326 309.928 17.4779 307.713C17.0559 306.611 16.8033 305.587 16.6564 304.839C16.6286 304.697 16.6046 304.565 16.5839 304.444Z" fill="white" stroke="#39404F"/>
<path d="M36.0162 343.827C32.3782 341.962 28.8908 339.815 25.5857 337.406C23.2659 335.644 22.3076 332.928 21.941 330.588C21.7585 329.423 21.7258 328.37 21.7389 327.609C21.7414 327.462 21.7456 327.327 21.7508 327.203C22.1366 327.45 22.6751 327.798 23.35 328.241C24.8298 329.214 26.9648 330.648 29.5831 332.493C32.1565 334.306 33.5598 335.981 34.3169 337.182C34.6958 337.782 34.9143 338.266 35.0368 338.593C35.0981 338.756 35.1354 338.88 35.1568 338.959C35.1675 338.999 35.1742 339.027 35.178 339.044L35.1814 339.061C35.1815 339.061 35.1815 339.061 35.1816 339.061C35.1816 339.061 35.1817 339.062 35.1817 339.062C35.1817 339.062 35.1817 339.062 35.1817 339.062L36.0162 343.827Z" fill="white" stroke="#39404F"/>
<path d="M42.721 330.009C43.1103 329.309 43.4241 328.756 43.6502 328.363C43.7134 328.472 43.7817 328.592 43.8538 328.723C44.2216 329.392 44.685 330.341 45.0684 331.459C45.839 333.704 46.2625 336.557 45.0388 339.195C43.2363 342.861 41.1541 346.382 38.8111 349.727L37.3151 345.074C37.3152 345.074 37.3151 345.074 37.315 345.074C37.315 345.074 37.315 345.074 37.315 345.074C37.3149 345.073 37.3148 345.073 37.3147 345.073L37.31 345.057C37.3054 345.04 37.2979 345.012 37.2888 344.972C37.2704 344.892 37.2454 344.765 37.2231 344.593C37.1785 344.248 37.1448 343.719 37.1985 343.012C37.3057 341.6 37.7626 339.464 39.1923 336.657C40.6466 333.801 41.8658 331.548 42.721 330.009Z" fill="white" stroke="#39404F"/>
<path d="M59.0115 358.436C59.0238 358.56 59.0359 358.696 59.0469 358.844C59.1035 359.604 59.1312 360.657 59.0162 361.831C58.7852 364.189 57.987 366.956 55.7797 368.849C52.6143 371.439 49.2537 373.781 45.7279 375.853L46.2769 371.054C46.2769 371.055 46.277 371.054 46.277 371.053L59.0115 358.436ZM59.0115 358.436C58.6389 358.703 58.1182 359.08 57.4662 359.562C56.0414 360.616 53.9894 362.169 51.4841 364.165C49.0211 366.128 47.7176 367.883 47.0314 369.126C46.688 369.748 46.4979 370.244 46.3945 370.577C46.3427 370.743 46.3126 370.869 46.2958 370.95C46.2874 370.99 46.2824 371.019 46.2796 371.036L46.2771 371.053L59.0115 358.436Z" fill="white" stroke="#39404F"/>
<path d="M44.7991 367.898C41.1639 366.027 37.6769 363.881 34.3686 361.478C32.0491 359.716 31.0909 356.997 30.7242 354.653C30.5417 353.487 30.509 352.432 30.5221 351.669C30.5246 351.523 30.5288 351.388 30.5339 351.264C30.9198 351.512 31.4581 351.861 32.1325 352.306C33.6125 353.282 35.7478 354.72 38.3663 356.565C40.9397 358.378 42.343 360.053 43.1001 361.254C43.479 361.854 43.6975 362.338 43.82 362.664C43.8813 362.828 43.9186 362.951 43.94 363.031C43.9507 363.071 43.9574 363.099 43.9612 363.116L43.9646 363.133C43.9647 363.133 43.9647 363.133 43.9648 363.133C43.9648 363.133 43.9649 363.134 43.9649 363.134C43.9649 363.134 43.9649 363.134 43.9649 363.134L44.7991 367.898Z" fill="white" stroke="#39404F"/>
<path d="M33.9024 365.445C34.2138 365.785 34.6474 366.262 35.1886 366.866C36.3746 368.191 38.0771 370.128 40.1402 372.575C42.1677 374.979 43.101 376.956 43.5301 378.309C43.7448 378.986 43.8341 379.51 43.8704 379.857C43.8886 380.031 43.8935 380.16 43.8942 380.243C43.8946 380.284 43.8939 380.313 43.8932 380.331L43.8924 380.348C43.8924 380.348 43.8924 380.348 43.8924 380.348C43.8924 380.349 43.8923 380.349 43.8923 380.349L43.4864 385.143C40.4399 382.418 37.6085 379.462 35.0177 376.299C33.2273 374.002 32.991 371.127 33.2301 368.767C33.349 367.593 33.5841 366.565 33.7896 365.831C33.8287 365.691 33.8666 365.562 33.9024 365.445Z" fill="white" stroke="#39404F"/>
<path d="M19.0205 284.709C19.8166 287.995 20.7985 291.233 21.9616 294.407C25.3001 303.23 30.745 308.357 33.8848 316.306C37.0246 324.255 33.8848 335.741 37.0379 346.101C40.1909 356.461 45.4239 361.641 45.4239 368.914C45.4239 376.187 42.0986 397.609 42.0986 397.609" stroke="#39404F" stroke-linecap="round" stroke-linejoin="round"/>
<path d="M21.1936 292.963L15.7354 290.088" stroke="#39404F" stroke-linecap="round" stroke-linejoin="round"/>
<path d="M20.2393 288.737L21.6303 284.802" stroke="#39404F" stroke-linecap="round" stroke-linejoin="round"/>
<path d="M33.6066 315.962C33.6066 315.962 29.0493 313.643 24.333 311.338" stroke="#39404F" stroke-linecap="round" stroke-linejoin="round"/>
<path d="M30.4932 310.026C31.8405 305.79 33.6161 301.702 35.7924 297.825" stroke="#39404F" stroke-linecap="round" stroke-linejoin="round"/>
<path d="M36.2957 343.544C33.2681 339.701 29.698 336.318 25.6973 333.502" stroke="#39404F" stroke-linecap="round" stroke-linejoin="round"/>
<path d="M37.8594 347.89C38.5903 344.798 39.5739 341.772 40.8004 338.841C42.5492 334.96 42.8009 334.456 42.8009 334.456" stroke="#39404F" stroke-linecap="round" stroke-linejoin="round"/>
<path d="M45.2246 374.425C46.9993 372.227 48.9631 370.187 51.0935 368.331C52.4525 367.332 53.7285 366.224 54.9089 365.019" stroke="#39404F" stroke-linecap="round" stroke-linejoin="round"/>
<path d="M45.424 368.914C43.9604 366.556 42.3219 364.311 40.5222 362.197C38.7443 360.277 36.8125 358.504 34.7461 356.898" stroke="#39404F" stroke-linecap="round" stroke-linejoin="round"/>
<path d="M43.9008 386.216C43.7063 383.752 42.8604 381.384 41.4499 379.354C39.211 376.386 36.5614 372.465 35.4883 370.915" stroke="#39404F" stroke-linecap="round" stroke-linejoin="round"/>
<path d="M303.142 48.2943C303.142 48.2943 340.94 84.8192 342.638 103.075C344.337 121.33 316.303 136.203 324.383 142.147C332.463 148.091 354.512 163.813 346.035 177.398C337.558 190.984 333.298 194.394 336.27 197.366C339.242 200.338 346.459 202.844 346.035 210.102C345.61 217.361 337.119 223.592 337.119 223.592H202.907C202.907 223.592 195.69 224.017 196.539 213.827C197.388 203.638 211.823 198.119 209.275 190.463C206.728 182.808 188.034 176.878 188.034 161.58C188.034 146.283 210.124 139.928 213.521 132.711C216.917 125.494 202.483 120.81 199.511 111.47C196.539 102.13 211.836 85.9833 221.163 77.4924C230.489 69.0014 267.89 44.3638 282.791 43.5147C297.691 42.6656 303.142 48.2943 303.142 48.2943Z" fill="#39404F"/>
<path d="M313.276 58.1824C313.276 58.1824 333.818 94.0773 330.573 108.17C327.327 122.262 305.579 138.299 313.906 149.187C322.232 160.074 334.448 164.566 329.299 178.028C326.24 186.083 321.671 193.478 315.837 199.817" stroke="#858585" stroke-linecap="round" stroke-linejoin="round"/>
<path d="M221.628 107.54C221.628 107.54 234.447 127.397 231.215 133.163C227.983 138.929 209.426 145.982 212.042 160.718C214.658 175.454 241.527 198.53 241.527 201.105" stroke="#858585" stroke-linecap="round" stroke-linejoin="round"/>
<path d="M303.142 48.2943C303.142 48.2943 340.94 84.8192 342.638 103.075C344.337 121.33 316.303 136.203 324.383 142.147C332.463 148.091 354.512 163.813 346.035 177.398C337.558 190.984 333.298 194.394 336.27 197.366C339.242 200.338 346.459 202.844 346.035 210.102C345.61 217.361 337.119 223.592 337.119 223.592H202.907C202.907 223.592 195.69 224.017 196.539 213.827C197.388 203.638 211.823 198.119 209.275 190.463C206.728 182.808 188.034 176.878 188.034 161.58C188.034 146.283 210.124 139.928 213.521 132.711C216.917 125.494 202.483 120.81 199.511 111.47C196.539 102.13 211.836 85.9833 221.163 77.4924C230.489 69.0014 267.89 44.3638 282.791 43.5147C297.691 42.6656 303.142 48.2943 303.142 48.2943Z" stroke="#39404F" stroke-linecap="round" stroke-linejoin="round"/>
<path d="M351.662 203.419C351.662 203.419 403.019 283.536 410.551 293.122C418.084 302.709 409.867 318.458 398.226 326.675C386.585 334.892 367.097 327.716 356.99 317.267C346.883 306.817 336.598 282.166 336.598 282.166L351.662 203.419Z" fill="white" stroke="#39404F" stroke-linecap="round" stroke-linejoin="round"/>
<path d="M265.383 176.714C265.383 176.714 217.45 191.093 202.385 196.571C187.321 202.05 183.212 202.734 183.212 208.212C183.212 211.403 194.647 273.456 193.483 326.675C192.648 365.131 179.104 399.944 179.104 399.944H353.716C353.716 399.944 339.391 367.281 339.337 328.045C339.254 273.059 353.264 205.829 351.662 203.419C348.923 199.31 271.546 176.029 265.383 176.714Z" fill="white" stroke="#39404F" stroke-linecap="round" stroke-linejoin="round"/>
<path d="M339.858 340.973C333.585 336.084 325.437 328.045 321.534 317.089C315.467 300.093 311.002 208.897 310.071 188.355C306.825 187.368 303.566 186.382 300.361 185.438L301.731 271.21H240.787L235.46 185.876C232.214 186.875 228.941 187.903 225.736 188.916C225.805 206.24 225.805 287.055 220.929 310.241C217.19 328.045 201.619 340.055 192.169 345.849C189.878 364.294 185.528 382.426 179.2 399.903H353.813C346.219 381.075 341.514 361.207 339.858 340.973Z" fill="#39404F"/>
<path d="M227.68 188.286L225.681 188.916C225.749 206.24 225.749 287.055 220.874 310.241C220.6 311.528 220.257 312.761 219.874 313.98V399.944H227.68V188.286Z" fill="#424242"/>
<path d="M260.618 271.21H252.812V399.944H260.618V271.21Z" fill="#424242"/>
<path d="M186.938 373.855V399.876H194.689V344.109C193.758 344.725 192.854 345.314 192.018 345.835C190.87 355.266 189.174 364.621 186.938 373.855Z" fill="#424242"/>
<path d="M211.205 329.565C208.836 332.445 206.229 335.12 203.412 337.563V399.944H211.205V329.565Z" fill="#424242"/>
<path d="M236.336 200.954V399.944H244.142V271.21H240.732L236.336 200.954Z" fill="#424242"/>
<path d="M318.671 303.257V399.944H326.463V326.812C324.432 323.783 322.776 320.518 321.533 317.089C320.184 312.569 319.227 307.941 318.671 303.257Z" fill="#424242"/>
<path d="M335.132 336.933V399.93H342.938V363.282C341.479 355.912 340.451 348.463 339.857 340.973C338.364 339.809 336.762 338.453 335.132 336.933Z" fill="#424242"/>
<path d="M310.002 188.341C307.4 187.533 304.785 186.752 302.21 185.985V399.944H310.002V188.341Z" fill="#424242"/>
<path d="M293.541 271.21H285.734V399.944H293.541V271.21Z" fill="#424242"/>
<path d="M277.079 271.21H269.272V399.944H277.079V271.21Z" fill="#424242"/>
<path d="M339.858 340.973C333.585 336.084 325.437 328.045 321.534 317.089C315.467 300.093 311.002 208.897 310.071 188.355C306.825 187.368 303.566 186.382 300.361 185.438L301.731 271.21H240.787L235.46 185.876C232.214 186.875 228.941 187.903 225.736 188.916C225.805 206.24 225.805 287.055 220.929 310.241C217.19 328.045 201.619 340.055 192.169 345.849C189.878 364.294 185.528 382.426 179.2 399.903H353.813C346.219 381.075 341.514 361.207 339.858 340.973V340.973Z" stroke="#39404F" stroke-linecap="round" stroke-linejoin="round"/>
<path d="M259.823 164.183C259.823 164.183 242.019 170.551 238.582 177.768C235.144 184.986 236.883 213.376 233.911 221.935C230.94 230.494 223.722 236.808 227.557 237.287C231.392 237.767 242.841 220.292 248.784 222.414C254.728 224.537 270.875 246.627 272.148 246.627C273.422 246.627 285.748 231.768 288.295 227.098C290.842 222.428 300.182 229.645 304.428 240.259C308.673 250.873 309.906 247.107 309.906 243.231C309.906 239.355 304.811 222.839 305.66 219.867C306.509 216.895 305.236 202.063 305.236 187.163C305.324 181.3 303.319 175.598 299.582 171.08C295.844 166.562 290.619 163.524 284.844 162.512C275.49 160.773 259.823 164.183 259.823 164.183Z" fill="white" stroke="#39404F" stroke-linecap="round" stroke-linejoin="round"/>
<path d="M251.744 153.555V201.557C251.744 201.557 267.466 253.365 272.985 249.49C278.504 245.614 291.255 203.625 291.255 203.625V153.98C291.255 153.98 271.712 162.484 251.744 153.555Z" fill="white" stroke="#39404F" stroke-linecap="round" stroke-linejoin="round"/>
<path d="M251.744 153.555V163.539C259.687 168.099 269.041 171.181 277.464 171.181C282.262 171.122 286.982 169.955 291.255 167.771V153.98C291.255 153.98 271.712 162.484 251.744 153.555Z" fill="#39404F" stroke="#39404F" stroke-linecap="round" stroke-linejoin="round"/>
<path d="M235.611 101.322C235.611 101.322 226.271 88.9963 220.738 97.9119C215.206 106.827 229.668 123.399 233.913 122.974C238.159 122.549 235.611 101.322 235.611 101.322Z" fill="white" stroke="#39404F" stroke-linecap="round" stroke-linejoin="round"/>
<path d="M310.729 101.322C310.729 101.322 320.069 88.9963 325.601 97.9119C331.134 106.827 316.672 123.399 312.427 122.974C308.181 122.549 310.729 101.322 310.729 101.322Z" fill="white" stroke="#39404F" stroke-linecap="round" stroke-linejoin="round"/>
<path d="M234.405 84.0661C234.405 84.0661 229.694 126.521 233.816 138.847C237.938 151.172 259.741 164.772 277.421 164.772C295.102 164.772 309.81 147.694 312.18 137.669C314.549 127.644 309.221 63.4412 305.688 56.3745C302.155 49.3079 279.777 48.719 257.385 59.9079C234.994 71.0968 234.405 84.0661 234.405 84.0661Z" fill="white" stroke="#39404F" stroke-linecap="round" stroke-linejoin="round"/>
<path d="M278.504 90.7493C278.504 90.7493 274.683 100.952 278.079 106.896C281.475 112.84 279.353 117.085 275.532 117.085C271.711 117.085 270.054 110.717 270.054 110.717" stroke="#39404F" stroke-linecap="round" stroke-linejoin="round"/>
<path d="M256.852 121.276C256.852 121.276 274.655 133.601 290.405 121.276" stroke="#39404F" stroke-linecap="round" stroke-linejoin="round"/>
<path d="M282.339 84.7508C282.339 84.7508 289.994 76.2598 298.91 85.5999" stroke="#39404F" stroke-linecap="round" stroke-linejoin="round"/>
<path d="M264.919 83.9018C264.919 83.9018 257.277 75.8354 247.923 83.0527" stroke="#39404F" stroke-linecap="round" stroke-linejoin="round"/>
<path d="M289.555 102.582C290.962 102.582 292.102 100.301 292.102 97.4874C292.102 94.6737 290.962 92.3928 289.555 92.3928C288.148 92.3928 287.008 94.6737 287.008 97.4874C287.008 100.301 288.148 102.582 289.555 102.582Z" fill="#39404F"/>
<path d="M257.701 102.582C259.107 102.582 260.248 100.301 260.248 97.4874C260.248 94.6737 259.107 92.3928 257.701 92.3928C256.294 92.3928 255.153 94.6737 255.153 97.4874C255.153 100.301 256.294 102.582 257.701 102.582Z" fill="#39404F"/>
<path d="M245.361 104.718C249.723 103.999 254.174 103.999 258.536 104.718" stroke="#39404F" stroke-linecap="round" stroke-linejoin="round"/>
<path d="M288.706 105.143C292.916 104.367 297.233 104.367 301.443 105.143" stroke="#39404F" stroke-linecap="round" stroke-linejoin="round"/>
<path d="M213.945 108.553C213.945 108.553 280.627 80.9435 296.773 68.1933C312.92 55.4432 317.152 30.8193 279.353 32.093C241.555 33.3666 201.633 77.5471 198.237 97.9255C194.841 118.304 208.385 114.031 208.385 114.031" fill="#39404F"/>
<path d="M304.936 33.2297C289.523 52.0058 270.856 67.8529 249.826 80.0123C214.575 100.555 192.143 104.376 192.143 104.376" stroke="#858585" stroke-linecap="round" stroke-linejoin="round"/>
<path d="M279.942 26.7793C279.942 26.7793 248.539 76.0818 190.226 95.3508" stroke="#858585" stroke-linecap="round" stroke-linejoin="round"/>
<path d="M213.945 108.553C213.945 108.553 280.627 80.9435 296.773 68.1933C312.92 55.4432 317.152 30.8193 279.353 32.093C241.555 33.3666 201.633 77.5471 198.237 97.9255C194.841 118.304 208.385 114.031 208.385 114.031" stroke="#39404F" stroke-linecap="round" stroke-linejoin="round"/>
<path d="M355.771 261.281C355.771 261.281 347.897 257.857 338.652 254.776C329.408 251.694 324.273 257.857 328.039 263.335C331.805 268.813 345.158 269.84 351.663 275.661C358.168 281.481 363.304 300.312 369.809 303.736C374.104 305.883 378.737 307.272 383.504 307.844V261.281H355.771Z" fill="white" stroke="#39404F" stroke-linecap="round" stroke-linejoin="round"/>
<path d="M396.049 317.267H356.99L348.253 236.698H404.786L396.049 317.267Z" fill="white" stroke="#39404F" stroke-linecap="round" stroke-linejoin="round"/>
<path d="M406.128 224.071H346.896L341.733 234.918H411.921L406.128 224.071Z" fill="white" stroke="#39404F" stroke-linecap="round" stroke-linejoin="round"/>
<path d="M349.102 238.424H405.156L410.045 234.918H343.624L349.102 238.424Z" fill="white" stroke="#39404F" stroke-linecap="round" stroke-linejoin="round"/>
<path d="M398.446 295.176L403.459 248.955H349.582L354.594 295.176H398.446Z" fill="white" stroke="#39404F" stroke-linecap="round" stroke-linejoin="round"/>
<path d="M411.237 262.993C411.237 262.993 393.091 263.335 389.667 266.759C386.244 270.183 387.271 274.291 393.776 274.976C400.281 275.661 409.868 277.03 415.003 275.661C420.139 274.291 420.139 262.993 411.237 262.993Z" fill="white" stroke="#39404F" stroke-linecap="round" stroke-linejoin="round"/>
<path d="M407.074 299.627C407.074 299.627 392.666 299.901 389.955 302.627C387.243 305.352 388.051 308.598 393.214 309.146C398.377 309.693 405.978 310.775 410.059 309.68C414.14 308.584 414.127 299.627 407.074 299.627Z" fill="white" stroke="#39404F" stroke-linecap="round" stroke-linejoin="round"/>
<path d="M414.661 277.003C414.661 277.003 391.037 277.003 385.217 278.03C379.396 279.057 377.342 284.878 385.901 286.59C394.461 288.302 411.922 289.329 417.4 288.644C422.878 287.959 423.22 276.688 414.661 277.003Z" fill="white" stroke="#39404F" stroke-linecap="round" stroke-linejoin="round"/>
<path d="M413.292 289.329C413.292 289.329 394.461 288.644 387.956 291.04C381.45 293.437 383.847 296.861 390.01 298.23C396.173 299.6 409.868 301.312 415.003 299.6C420.139 297.888 420.139 288.671 413.292 289.329Z" fill="white" stroke="#39404F" stroke-linecap="round" stroke-linejoin="round"/>
<path d="M122.105 168.51C122.105 168.51 118.476 170.688 121.023 181.589L123.556 192.477L139.169 189.573C139.169 189.573 132.321 177.248 129.363 171.77C126.405 166.292 122.885 167.058 122.105 168.51Z" fill="white" stroke="#39404F" stroke-linecap="round" stroke-linejoin="round"/>
<path d="M109.78 188.491C109.78 188.491 159.52 180.137 174.421 175.057C185.629 171.433 197.021 168.402 208.549 165.977C211.528 165.288 214.572 164.921 217.629 164.881C217.629 164.881 219.08 164.881 218.724 171.058C218.368 177.234 226.709 257.488 234.337 282.18C241.965 306.872 246.662 318.499 246.662 318.499C246.662 318.499 202.003 327.579 160.602 327.579C137.716 327.729 114.863 325.781 92.3321 321.759C90.8804 321.759 110.136 249.175 109.396 224.441C108.711 199.434 109.78 188.491 109.78 188.491Z" fill="white" stroke="#39404F" stroke-linecap="round" stroke-linejoin="round"/>
<path d="M234.406 282.18C226.778 257.529 218.424 177.234 218.793 171.058C219.163 164.881 217.698 164.881 217.698 164.881C215.994 164.905 214.293 165.029 212.603 165.251C212.411 166.815 212.411 168.397 212.603 169.962C212.603 169.962 212.22 209.555 211.124 256.46C210.22 295.327 210.809 317.678 211.042 324.169C231.708 321.608 246.649 318.568 246.649 318.568C246.649 318.568 242.007 306.872 234.406 282.18Z" fill="white" stroke="#39404F" stroke-linecap="round" stroke-linejoin="round"/>
<path d="M216.945 166.703V184.862C216.945 190.669 218.04 193.572 215.849 193.572C213.658 193.572 195.526 196.846 166.108 202.652C147.414 206.383 128.483 208.808 109.452 209.911C107.274 209.911 109.821 188.491 109.821 188.491C109.821 188.491 165.013 179.768 182.803 173.961C193.388 170.494 204.184 167.703 215.123 165.607" fill="white"/>
<path d="M216.945 166.703V184.862C216.945 190.669 218.04 193.572 215.849 193.572C213.658 193.572 195.526 196.846 166.108 202.652C147.414 206.383 128.483 208.808 109.452 209.911C107.274 209.911 109.821 188.491 109.821 188.491C109.821 188.491 165.013 179.768 182.803 173.961C193.388 170.494 204.184 167.703 215.123 165.607" stroke="#39404F" stroke-linecap="round" stroke-linejoin="round"/>
<path d="M153.399 153.624C153.399 153.624 157.028 145.27 166.833 150.72C176.639 156.171 183.172 175.782 181.72 179.768C180.268 183.753 175.544 184.862 171.545 180.863C167.546 176.864 157.384 162.347 154.85 158.348C152.317 154.349 153.399 153.624 153.399 153.624Z" fill="white" stroke="#39404F" stroke-linecap="round" stroke-linejoin="round"/>
<path d="M142.497 158.704C142.497 158.704 160.849 185.465 164.286 187.766C167.724 190.066 174.12 191.381 172.271 183.411C170.531 175.837 163.561 161.252 158.836 156.171C154.111 151.09 150.851 150.364 146.853 152.542C142.854 154.719 141.772 155.801 142.497 158.704Z" fill="white" stroke="#39404F" stroke-linecap="round" stroke-linejoin="round"/>
<path d="M144.018 157.253C144.018 157.253 161.082 179.042 162.547 184.136C164.013 189.231 161.082 197.571 153.467 192.846C145.853 188.122 138.937 172.509 134.582 167.059C130.227 161.608 137.773 153.268 144.018 157.253Z" fill="white" stroke="#39404F" stroke-linecap="round" stroke-linejoin="round"/>
<path d="M133.787 162.704C133.787 162.704 122.831 164.155 121.462 169.962C120.092 175.769 129.446 188.492 137.074 190.669C144.702 192.847 146.88 186.67 144.702 181.589C142.525 176.508 137.417 163.799 133.787 162.704Z" fill="white" stroke="#39404F" stroke-linecap="round" stroke-linejoin="round"/>
<path d="M530.18 374.937H411.689L439.408 246.271H557.899L530.18 374.937Z" fill="#39404F" stroke="#39404F" stroke-linecap="round" stroke-linejoin="round"/>
<path d="M557.898 246.271H439.408C439.408 246.271 506.501 262.472 557.898 246.271Z" fill="#6B6B6B" stroke="#39404F" stroke-linecap="round" stroke-linejoin="round"/>
<path d="M477.386 301.805L464.896 340.22L486.191 354.572L494.518 330.51L477.386 301.805Z" fill="#3B3B3B" stroke="#39404F" stroke-linecap="round" stroke-linejoin="round"/>
<path d="M477.386 301.805H518.581L525.058 326.346L494.518 330.51L477.386 301.805Z" fill="#3B3B3B" stroke="#39404F" stroke-linecap="round" stroke-linejoin="round"/>
<path d="M513.91 396.685C511.79 368.236 503.088 340.668 488.492 316.157L456.007 396.685H513.91Z" fill="#3B3B3B" stroke="#39404F" stroke-linecap="round" stroke-linejoin="round"/>
<path d="M565.021 396.685C565.87 359.091 546.354 316.157 546.354 316.157H488.492C503.089 340.668 511.79 368.236 513.91 396.685H565.021Z" fill="#6B6B6B" stroke="#39404F" stroke-linecap="round" stroke-linejoin="round"/>
<path d="M584.057 392.412H1.16504V407.107H584.057V392.412Z" fill="white" stroke="#39404F" stroke-linecap="round" stroke-linejoin="round"/>
</svg>
