<svg width="42" height="41" viewBox="0 0 42 41" fill="none" xmlns="http://www.w3.org/2000/svg">
<path d="M21 40.4401C32.598 40.4401 42 31.3873 42 20.2201C42 9.05282 32.598 0 21 0C9.40202 0 0 9.05282 0 20.2201C0 31.3873 9.40202 40.4401 21 40.4401Z" fill="#02B478"/>
<path d="M21 0H0V20.2201H21V0Z" fill="#02B478"/>
<path d="M19.4385 14.2922C17.4262 14.2922 15.7949 12.7215 15.7949 10.7839H22.5616V14.2922H19.4385Z" fill="url(#paint0_linear)"/>
<path d="M18.918 30.2669C20.6428 30.2669 22.0411 28.9205 22.0411 27.2598C22.0411 25.599 20.6428 24.2527 18.918 24.2527C17.1932 24.2527 15.7949 25.599 15.7949 27.2598C15.7949 28.9205 17.1932 30.2669 18.918 30.2669Z" fill="white"/>
<path d="M22.5615 10.7839C24.5738 10.7839 26.2051 12.3546 26.2051 14.2922V26.8217C26.2051 28.7593 24.5738 30.33 22.5615 30.33V10.7839Z" fill="white"/>
<defs>
<linearGradient id="paint0_linear" x1="15.7949" y1="12.5381" x2="30.6295" y2="12.5381" gradientUnits="userSpaceOnUse">
<stop stop-color="white"/>
<stop offset="1" stop-color="#02B478"/>
</linearGradient>
</defs>
</svg>
