<svg width="86" height="86" viewBox="0 0 86 86" fill="none" xmlns="http://www.w3.org/2000/svg">
<g filter="url(#filter0_d)">
<circle cx="43" cy="43" r="23" fill="#444242"/>
</g>
<path d="M46.125 52.1136V52.8636H46.875V52.1136H46.125ZM33.625 52.1136H32.875V52.8636H33.625V52.1136ZM51.125 52.125V52.875H51.875V52.125H51.125ZM42.875 38.3726C42.875 40.0278 41.5325 41.3701 39.875 41.3701V42.8701C42.36 42.8701 44.375 40.8571 44.375 38.3726H42.875ZM39.875 41.3701C38.2175 41.3701 36.875 40.0278 36.875 38.3726H35.375C35.375 40.8571 37.39 42.8701 39.875 42.8701V41.3701ZM36.875 38.3726C36.875 36.7173 38.2175 35.375 39.875 35.375V33.875C37.39 33.875 35.375 35.888 35.375 38.3726H36.875ZM39.875 35.375C41.5325 35.375 42.875 36.7173 42.875 38.3726H44.375C44.375 35.888 42.36 33.875 39.875 33.875V35.375ZM46.125 51.3636H33.625V52.8636H46.125V51.3636ZM34.375 52.1136C34.375 52.1119 34.375 52.1101 34.375 52.1084C34.375 52.1067 34.375 52.1049 34.375 52.1032C34.375 52.1015 34.375 52.0997 34.375 52.098C34.375 52.0963 34.375 52.0945 34.375 52.0928C34.375 52.0911 34.375 52.0893 34.375 52.0876C34.375 52.0859 34.375 52.0841 34.375 52.0824C34.375 52.0807 34.375 52.079 34.375 52.0772C34.375 52.0755 34.375 52.0738 34.375 52.072C34.375 52.0703 34.375 52.0686 34.375 52.0668C34.375 52.0651 34.375 52.0634 34.375 52.0616C34.375 52.0599 34.375 52.0582 34.375 52.0565C34.375 52.0547 34.375 52.053 34.375 52.0513C34.375 52.0495 34.375 52.0478 34.375 52.0461C34.375 52.0443 34.375 52.0426 34.375 52.0409C34.375 52.0392 34.375 52.0374 34.375 52.0357C34.375 52.034 34.375 52.0322 34.375 52.0305C34.375 52.0288 34.375 52.0271 34.375 52.0253C34.375 52.0236 34.375 52.0219 34.375 52.0202C34.375 52.0184 34.375 52.0167 34.375 52.015C34.375 52.0132 34.375 52.0115 34.375 52.0098C34.375 52.0081 34.375 52.0063 34.375 52.0046C34.375 52.0029 34.375 52.0012 34.375 51.9994C34.375 51.9977 34.375 51.996 34.375 51.9943C34.375 51.9925 34.375 51.9908 34.375 51.9891C34.375 51.9874 34.375 51.9856 34.375 51.9839C34.375 51.9822 34.375 51.9805 34.375 51.9787C34.375 51.977 34.375 51.9753 34.375 51.9736C34.375 51.9718 34.375 51.9701 34.375 51.9684C34.375 51.9667 34.375 51.9649 34.375 51.9632C34.375 51.9615 34.375 51.9598 34.375 51.958C34.375 51.9563 34.375 51.9546 34.375 51.9529C34.375 51.9511 34.375 51.9494 34.375 51.9477C34.375 51.946 34.375 51.9443 34.375 51.9425C34.375 51.9408 34.375 51.9391 34.375 51.9374C34.375 51.9356 34.375 51.9339 34.375 51.9322C34.375 51.9305 34.375 51.9288 34.375 51.927C34.375 51.9253 34.375 51.9236 34.375 51.9219C34.375 51.9202 34.375 51.9184 34.375 51.9167C34.375 51.915 34.375 51.9133 34.375 51.9115C34.375 51.9098 34.375 51.9081 34.375 51.9064C34.375 51.9047 34.375 51.9029 34.375 51.9012C34.375 51.8995 34.375 51.8978 34.375 51.8961C34.375 51.8944 34.375 51.8926 34.375 51.8909C34.375 51.8892 34.375 51.8875 34.375 51.8858C34.375 51.884 34.375 51.8823 34.375 51.8806C34.375 51.8789 34.375 51.8772 34.375 51.8755C34.375 51.8737 34.375 51.872 34.375 51.8703C34.375 51.8686 34.375 51.8669 34.375 51.8651C34.375 51.8634 34.375 51.8617 34.375 51.86C34.375 51.8583 34.375 51.8566 34.375 51.8548C34.375 51.8531 34.375 51.8514 34.375 51.8497C34.375 51.848 34.375 51.8463 34.375 51.8445C34.375 51.8428 34.375 51.8411 34.375 51.8394C34.375 51.8377 34.375 51.836 34.375 51.8343C34.375 51.8325 34.375 51.8308 34.375 51.8291C34.375 51.8274 34.375 51.8257 34.375 51.824C34.375 51.8223 34.375 51.8205 34.375 51.8188C34.375 51.8171 34.375 51.8154 34.375 51.8137C34.375 51.812 34.375 51.8103 34.375 51.8085C34.375 51.8068 34.375 51.8051 34.375 51.8034C34.375 51.8017 34.375 51.8 34.375 51.7983C34.375 51.7966 34.375 51.7948 34.375 51.7931C34.375 51.7914 34.375 51.7897 34.375 51.788C34.375 51.7863 34.375 51.7846 34.375 51.7829C34.375 51.7812 34.375 51.7794 34.375 51.7777C34.375 51.776 34.375 51.7743 34.375 51.7726C34.375 51.7709 34.375 51.7692 34.375 51.7675C34.375 51.7658 34.375 51.764 34.375 51.7623C34.375 51.7606 34.375 51.7589 34.375 51.7572C34.375 51.7555 34.375 51.7538 34.375 51.7521C34.375 51.7504 34.375 51.7487 34.375 51.747C34.375 51.7452 34.375 51.7435 34.375 51.7418C34.375 51.7401 34.375 51.7384 34.375 51.7367C34.375 51.735 34.375 51.7333 34.375 51.7316C34.375 51.7299 34.375 51.7282 34.375 51.7265C34.375 51.7248 34.375 51.723 34.375 51.7213C34.375 51.7196 34.375 51.7179 34.375 51.7162C34.375 51.7145 34.375 51.7128 34.375 51.7111C34.375 51.7094 34.375 51.7077 34.375 51.706C34.375 51.7043 34.375 51.7026 34.375 51.7009C34.375 51.6992 34.375 51.6975 34.375 51.6957C34.375 51.694 34.375 51.6923 34.375 51.6906C34.375 51.6889 34.375 51.6872 34.375 51.6855C34.375 51.6838 34.375 51.6821 34.375 51.6804C34.375 51.6787 34.375 51.677 34.375 51.6753C34.375 51.6736 34.375 51.6719 34.375 51.6702C34.375 51.6685 34.375 51.6668 34.375 51.6651C34.375 51.6634 34.375 51.6617 34.375 51.66C34.375 51.6583 34.375 51.6566 34.375 51.6549C34.375 51.6532 34.375 51.6515 34.375 51.6498C34.375 51.6481 34.375 51.6464 34.375 51.6447C34.375 51.643 34.375 51.6413 34.375 51.6395C34.375 51.6378 34.375 51.6361 34.375 51.6344C34.375 51.6327 34.375 51.631 34.375 51.6293C34.375 51.6276 34.375 51.6259 34.375 51.6242C34.375 51.6225 34.375 51.6208 34.375 51.6191C34.375 51.6174 34.375 51.6157 34.375 51.614C34.375 51.6124 34.375 51.6107 34.375 51.609C34.375 51.6073 34.375 51.6056 34.375 51.6039C34.375 51.6022 34.375 51.6005 34.375 51.5988C34.375 51.5971 34.375 51.5954 34.375 51.5937C34.375 51.592 34.375 51.5903 34.375 51.5886C34.375 51.5869 34.375 51.5852 34.375 51.5835C34.375 51.5818 34.375 51.5801 34.375 51.5784C34.375 51.5767 34.375 51.575 34.375 51.5733C34.375 51.5716 34.375 51.5699 34.375 51.5682C34.375 51.5665 34.375 51.5648 34.375 51.5631C34.375 51.5614 34.375 51.5597 34.375 51.5581C34.375 51.5564 34.375 51.5547 34.375 51.553C34.375 51.5513 34.375 51.5496 34.375 51.5479C34.375 51.5462 34.375 51.5445 34.375 51.5428C34.375 51.5411 34.375 51.5394 34.375 51.5377C34.375 51.536 34.375 51.5343 34.375 51.5326C34.375 51.531 34.375 51.5293 34.375 51.5276C34.375 51.5259 34.375 51.5242 34.375 51.5225C34.375 51.5208 34.375 51.5191 34.375 51.5174C34.375 51.5157 34.375 51.514 34.375 51.5123C34.375 51.5107 34.375 51.509 34.375 51.5073C34.375 51.5056 34.375 51.5039 34.375 51.5022C34.375 51.5005 34.375 51.4988 34.375 51.4971C34.375 51.4954 34.375 51.4937 34.375 51.4921C34.375 51.4904 34.375 51.4887 34.375 51.487C34.375 51.4853 34.375 51.4836 34.375 51.4819C34.375 51.4802 34.375 51.4785 34.375 51.4769C34.375 51.4752 34.375 51.4735 34.375 51.4718C34.375 51.4701 34.375 51.4684 34.375 51.4667C34.375 51.465 34.375 51.4634 34.375 51.4617C34.375 51.46 34.375 51.4583 34.375 51.4566C34.375 51.4549 34.375 51.4532 34.375 51.4515C34.375 51.4499 34.375 51.4482 34.375 51.4465C34.375 51.4448 34.375 51.4431 34.375 51.4414C34.375 51.4397 34.375 51.4381 34.375 51.4364C34.375 51.4347 34.375 51.433 34.375 51.4313C34.375 51.4296 34.375 51.4279 34.375 51.4263C34.375 51.4246 34.375 51.4229 34.375 51.4212C34.375 51.4195 34.375 51.4178 34.375 51.4162C34.375 51.4145 34.375 51.4128 34.375 51.4111C34.375 51.4094 34.375 51.4077 34.375 51.4061C34.375 51.4044 34.375 51.4027 34.375 51.401C34.375 51.3993 34.375 51.3976 34.375 51.396C34.375 51.3943 34.375 51.3926 34.375 51.3909C34.375 51.3892 34.375 51.3876 34.375 51.3859C34.375 51.3842 34.375 51.3825 34.375 51.3808C34.375 51.3791 34.375 51.3775 34.375 51.3758C34.375 51.3741 34.375 51.3724 34.375 51.3707C34.375 51.3691 34.375 51.3674 34.375 51.3657C34.375 51.364 34.375 51.3623 34.375 51.3607C34.375 51.359 34.375 51.3573 34.375 51.3556C34.375 51.354 34.375 51.3523 34.375 51.3506C34.375 51.3489 34.375 51.3472 34.375 51.3456C34.375 51.3439 34.375 51.3422 34.375 51.3405C34.375 51.3389 34.375 51.3372 34.375 51.3355C34.375 51.3338 34.375 51.3321 34.375 51.3305C34.375 51.3288 34.375 51.3271 34.375 51.3254C34.375 51.3238 34.375 51.3221 34.375 51.3204C34.375 51.3187 34.375 51.3171 34.375 51.3154C34.375 51.3137 34.375 51.312 34.375 51.3104C34.375 51.3087 34.375 51.307 34.375 51.3053C34.375 51.3037 34.375 51.302 34.375 51.3003C34.375 51.2986 34.375 51.297 34.375 51.2953C34.375 51.2936 34.375 51.2919 34.375 51.2903C34.375 51.2886 34.375 51.2869 34.375 51.2852C34.375 51.2836 34.375 51.2819 34.375 51.2802C34.375 51.2786 34.375 51.2769 34.375 51.2752C34.375 51.2735 34.375 51.2719 34.375 51.2702C34.375 51.2685 34.375 51.2669 34.375 51.2652C34.375 51.2635 34.375 51.2618 34.375 51.2602C34.375 51.2585 34.375 51.2568 34.375 51.2552C34.375 51.2535 34.375 51.2518 34.375 51.2501C34.375 51.2485 34.375 51.2468 34.375 51.2451C34.375 51.2435 34.375 51.2418 34.375 51.2401C34.375 51.2385 34.375 51.2368 34.375 51.2351C34.375 51.2334 34.375 51.2318 34.375 51.2301C34.375 51.2284 34.375 51.2268 34.375 51.2251C34.375 51.2234 34.375 51.2218 34.375 51.2201C34.375 51.2184 34.375 51.2168 34.375 51.2151C34.375 51.2134 34.375 51.2118 34.375 51.2101C34.375 51.2084 34.375 51.2068 34.375 51.2051C34.375 51.2034 34.375 51.2018 34.375 51.2001C34.375 51.1984 34.375 51.1968 34.375 51.1951C34.375 51.1934 34.375 51.1918 34.375 51.1901C34.375 51.1884 34.375 51.1868 34.375 51.1851C34.375 51.1835 34.375 51.1818 34.375 51.1801C34.375 51.1785 34.375 51.1768 34.375 51.1751C34.375 51.1735 34.375 51.1718 34.375 51.1701C34.375 51.1685 34.375 51.1668 34.375 51.1652C34.375 51.1635 34.375 51.1618 34.375 51.1602C34.375 51.1585 34.375 51.1568 34.375 51.1552C34.375 51.1535 34.375 51.1519 34.375 51.1502C34.375 51.1485 34.375 51.1469 34.375 51.1452C34.375 51.1436 34.375 51.1419 34.375 51.1402C34.375 51.1386 34.375 51.1369 34.375 51.1352C34.375 51.1336 34.375 51.1319 34.375 51.1303C34.375 51.1286 34.375 51.1269 34.375 51.1253C34.375 51.1236 34.375 51.122 34.375 51.1203C34.375 51.1187 34.375 51.117 34.375 51.1153C34.375 51.1137 34.375 51.112 34.375 51.1104C34.375 51.1087 34.375 51.107 34.375 51.1054C34.375 51.1037 34.375 51.1021 34.375 51.1004C34.375 51.0988 34.375 51.0971 34.375 51.0954C34.375 51.0938 34.375 51.0921 34.375 51.0905C34.375 51.0888 34.375 51.0872 34.375 51.0855C34.375 51.0839 34.375 51.0822 34.375 51.0805C34.375 51.0789 34.375 51.0772 34.375 51.0756C34.375 51.0739 34.375 51.0723 34.375 51.0706C34.375 51.069 34.375 51.0673 34.375 51.0656C34.375 51.064 34.375 51.0623 34.375 51.0607C34.375 51.059 34.375 51.0574 34.375 51.0557C34.375 51.0541 34.375 51.0524 34.375 51.0508C34.375 51.0491 34.375 51.0475 34.375 51.0458C34.375 51.0442 34.375 51.0425 34.375 51.0409C34.375 51.0392 34.375 51.0375 34.375 51.0359C34.375 51.0342 34.375 51.0326 34.375 51.0309C34.375 51.0293 34.375 51.0276 34.375 51.026C34.375 51.0243 34.375 51.0227 34.375 51.021C34.375 51.0194 34.375 51.0177 34.375 51.0161C34.375 51.0144 34.375 51.0128 34.375 51.0111C34.375 51.0095 34.375 51.0078 34.375 51.0062C34.375 51.0045 34.375 51.0029 34.375 51.0013C34.375 50.9996 34.375 50.998 34.375 50.9963C34.375 50.9947 34.375 50.993 34.375 50.9914C34.375 50.9897 34.375 50.9881 34.375 50.9864C34.375 50.9848 34.375 50.9831 34.375 50.9815C34.375 50.9798 34.375 50.9782 34.375 50.9765C34.375 50.9749 34.375 50.9733 34.375 50.9716C34.375 50.97 34.375 50.9683 34.375 50.9667C34.375 50.965 34.375 50.9634 34.375 50.9617C34.375 50.9601 34.375 50.9584 34.375 50.9568C34.375 50.9552 34.375 50.9535 34.375 50.9519C34.375 50.9502 34.375 50.9486 34.375 50.9469C34.375 50.9453 34.375 50.9437 34.375 50.942C34.375 50.9404 34.375 50.9387 34.375 50.9371C34.375 50.9354 34.375 50.9338 34.375 50.9322C34.375 50.9305 34.375 50.9289 34.375 50.9272C34.375 50.9256 34.375 50.9239 34.375 50.9223C34.375 50.9207 34.375 50.919 34.375 50.9174C34.375 50.9157 34.375 50.9141 34.375 50.9125C34.375 50.9108 34.375 50.9092 34.375 50.9075C34.375 50.9059 34.375 50.9043 34.375 50.9026C34.375 50.901 34.375 50.8993 34.375 50.8977C34.375 50.8961 34.375 50.8944 34.375 50.8928C34.375 50.8912 34.375 50.8895 34.375 50.8879C34.375 50.8862 34.375 50.8846 34.375 50.883C34.375 50.8813 34.375 50.8797 34.375 50.8781C34.375 50.8764 34.375 50.8748 34.375 50.8731C34.375 50.8715 34.375 50.8699 34.375 50.8682C34.375 50.8666 34.375 50.865 34.375 50.8633C34.375 50.8617 34.375 50.8601 34.375 50.8584C34.375 50.8568 34.375 50.8552 34.375 50.8535C34.375 50.8519 34.375 50.8502 34.375 50.8486C34.375 50.847 34.375 50.8453 34.375 50.8437C34.375 50.8421 34.375 50.8404 34.375 50.8388C34.375 50.8372 34.375 50.8355 34.375 50.8339C34.375 50.8323 34.375 50.8306 34.375 50.829C34.375 50.8274 34.375 50.8258 34.375 50.8241C34.375 50.8225 34.375 50.8209 34.375 50.8192C34.375 50.8176 34.375 50.816 34.375 50.8143C34.375 50.8127 34.375 50.8111 34.375 50.8094C34.375 50.8078 34.375 50.8062 34.375 50.8046C34.375 50.8029 34.375 50.8013 34.375 50.7997C34.375 50.798 34.375 50.7964 34.375 50.7948C34.375 50.7931 34.375 50.7915 34.375 50.7899C34.375 50.7883 34.375 50.7866 34.375 50.785C34.375 50.7834 34.375 50.7817 34.375 50.7801C34.375 50.7785 34.375 50.7769 34.375 50.7752C34.375 50.7736 34.375 50.772 34.375 50.7704C34.375 50.7687 34.375 50.7671 34.375 50.7655C34.375 50.7639 34.375 50.7622 34.375 50.7606C34.375 50.759 34.375 50.7573 34.375 50.7557C34.375 50.7541 34.375 50.7525 34.375 50.7508C34.375 50.7492 34.375 50.7476 34.375 50.746C34.375 50.7444 34.375 50.7427 34.375 50.7411C34.375 50.7395 34.375 50.7379 34.375 50.7362C34.375 50.7346 34.375 50.733 34.375 50.7314C34.375 50.7297 34.375 50.7281 34.375 50.7265C34.375 50.7249 34.375 50.7233 34.375 50.7216C34.375 50.72 34.375 50.7184 34.375 50.7168C34.375 50.7151 34.375 50.7135 34.375 50.7119C34.375 50.7103 34.375 50.7087 34.375 50.707C34.375 50.7054 34.375 50.7038 34.375 50.7022C34.375 50.7006 34.375 50.6989 34.375 50.6973C34.375 50.6957 34.375 50.6941 34.375 50.6925C34.375 50.6908 34.375 50.6892 34.375 50.6876C34.375 50.686 34.375 50.6844 34.375 50.6828C34.375 50.6811 34.375 50.6795 34.375 50.6779C34.375 50.6763 34.375 50.6747 34.375 50.673C34.375 50.6714 34.375 50.6698 34.375 50.6682C34.375 50.6666 34.375 50.665 34.375 50.6633C34.375 50.6617 34.375 50.6601 34.375 50.6585C34.375 50.6569 34.375 50.6553 34.375 50.6537C34.375 50.652 34.375 50.6504 34.375 50.6488C34.375 50.6472 34.375 50.6456 34.375 50.644C34.375 50.6424 34.375 50.6407 34.375 50.6391C34.375 50.6375 34.375 50.6359 34.375 50.6343C34.375 50.6327 34.375 50.6311 34.375 50.6294C34.375 50.6278 34.375 50.6262 34.375 50.6246C34.375 50.623 34.375 50.6214 34.375 50.6198C34.375 50.6182 34.375 50.6166 34.375 50.6149C34.375 50.6133 34.375 50.6117 34.375 50.6101C34.375 50.6085 34.375 50.6069 34.375 50.6053C34.375 50.6037 34.375 50.6021 34.375 50.6004C34.375 50.5988 34.375 50.5972 34.375 50.5956C34.375 50.594 34.375 50.5924 34.375 50.5908C34.375 50.5892 34.375 50.5876 34.375 50.586C34.375 50.5844 34.375 50.5828 34.375 50.5811C34.375 50.5795 34.375 50.5779 34.375 50.5763C34.375 50.5747 34.375 50.5731 34.375 50.5715C34.375 50.5699 34.375 50.5683 34.375 50.5667C34.375 50.5651 34.375 50.5635 34.375 50.5619C34.375 50.5603 34.375 50.5587 34.375 50.557C34.375 50.5554 34.375 50.5538 34.375 50.5522C34.375 50.5506 34.375 50.549 34.375 50.5474C34.375 50.5458 34.375 50.5442 34.375 50.5426C34.375 50.541 34.375 50.5394 34.375 50.5378C34.375 50.5362 34.375 50.5346 34.375 50.533C34.375 50.5314 34.375 50.5298 34.375 50.5282C34.375 50.5266 34.375 50.525 34.375 50.5234C34.375 50.5218 34.375 50.5202 34.375 50.5186C34.375 50.517 34.375 50.5154 34.375 50.5138C34.375 50.5122 34.375 50.5106 34.375 50.509C34.375 50.5074 34.375 50.5058 34.375 50.5042C34.375 50.5026 34.375 50.501 34.375 50.4994C34.375 50.4978 34.375 50.4962 34.375 50.4946C34.375 50.493 34.375 50.4914 34.375 50.4898C34.375 50.4882 34.375 50.4866 34.375 50.485C34.375 50.4834 34.375 50.4818 34.375 50.4802C34.375 50.4786 34.375 50.477 34.375 50.4754C34.375 50.4738 34.375 50.4722 34.375 50.4706C34.375 50.469 34.375 50.4674 34.375 50.4658C34.375 50.4642 34.375 50.4626 34.375 50.461C34.375 50.4594 34.375 50.4578 34.375 50.4563C34.375 50.4547 34.375 50.4531 34.375 50.4515C34.375 50.4499 34.375 50.4483 34.375 50.4467C34.375 50.4451 34.375 50.4435 34.375 50.4419C34.375 50.4403 34.375 50.4387 34.375 50.4371C34.375 50.4355 34.375 50.4339 34.375 50.4324C34.375 50.4308 34.375 50.4292 34.375 50.4276C34.375 50.426 34.375 50.4244 34.375 50.4228C34.375 50.4212 34.375 50.4196 34.375 50.418C34.375 50.4164 34.375 50.4148 34.375 50.4133C34.375 50.4117 34.375 50.4101 34.375 50.4085C34.375 50.4069 34.375 50.4053 34.375 50.4037C34.375 50.4021 34.375 50.4005 34.375 50.399C34.375 50.3974 34.375 50.3958 34.375 50.3942C34.375 50.3926 34.375 50.391 34.375 50.3894C34.375 50.3878 34.375 50.3863 34.375 50.3847C34.375 50.3831 34.375 50.3815 34.375 50.3799C34.375 50.3783 34.375 50.3767 34.375 50.3751C34.375 50.3736 34.375 50.372 34.375 50.3704C34.375 50.3688 34.375 50.3672 34.375 50.3656C34.375 50.364 34.375 50.3625 34.375 50.3609C34.375 50.3593 34.375 50.3577 34.375 50.3561C34.375 50.3545 34.375 50.353 34.375 50.3514C34.375 50.3498 34.375 50.3482 34.375 50.3466C34.375 50.345 34.375 50.3435 34.375 50.3419C34.375 50.3403 34.375 50.3387 34.375 50.3371C34.375 50.3356 34.375 50.334 34.375 50.3324C34.375 50.3308 34.375 50.3292 34.375 50.3276C34.375 50.3261 34.375 50.3245 34.375 50.3229C34.375 50.3213 34.375 50.3197 34.375 50.3182C34.375 50.3166 34.375 50.315 34.375 50.3134C34.375 50.3119 34.375 50.3103 34.375 50.3087C34.375 50.3071 34.375 50.3055 34.375 50.304C34.375 50.3024 34.375 50.3008 34.375 50.2992C34.375 50.2976 34.375 50.2961 34.375 50.2945C34.375 50.2929 34.375 50.2913 34.375 50.2898C34.375 50.2882 34.375 50.2866 34.375 50.285C34.375 50.2835 34.375 50.2819 34.375 50.2803C34.375 50.2787 34.375 50.2772 34.375 50.2756C34.375 50.274 34.375 50.2724 34.375 50.2709C34.375 50.2693 34.375 50.2677 34.375 50.2661C34.375 50.2646 34.375 50.263 34.375 50.2614C34.375 50.2598 34.375 50.2583 34.375 50.2567C34.375 50.2551 34.375 50.2536 34.375 50.252C34.375 50.2504 34.375 50.2488 34.375 50.2473C34.375 50.2457 34.375 50.2441 34.375 50.2425C34.375 50.241 34.375 50.2394 34.375 50.2378C34.375 50.2363 34.375 50.2347 34.375 50.2331C34.375 50.2316 34.375 50.23 34.375 50.2284C34.375 50.2268 34.375 50.2253 34.375 50.2237C34.375 50.2221 34.375 50.2206 34.375 50.219C34.375 50.2174 34.375 50.2159 34.375 50.2143C34.375 50.2127 34.375 50.2112 34.375 50.2096C34.375 50.208 34.375 50.2065 34.375 50.2049C34.375 50.2033 34.375 50.2018 34.375 50.2002C34.375 50.1986 34.375 50.1971 34.375 50.1955C34.375 50.1939 34.375 50.1924 34.375 50.1908C34.375 50.1892 34.375 50.1877 34.375 50.1861C34.375 50.1845 34.375 50.183 34.375 50.1814C34.375 50.1798 34.375 50.1783 34.375 50.1767C34.375 50.1752 34.375 50.1736 34.375 50.172C34.375 50.1705 34.375 50.1689 34.375 50.1673C34.375 50.1658 34.375 50.1642 34.375 50.1627C34.375 50.1611 34.375 50.1595 34.375 50.158C34.375 50.1564 34.375 50.1548 34.375 50.1533C34.375 50.1517 34.375 50.1502 34.375 50.1486C34.375 50.147 34.375 50.1455 34.375 50.1439C34.375 50.1424 34.375 50.1408 34.375 50.1392C34.375 50.1377 34.375 50.1361 34.375 50.1346C34.375 50.133 34.375 50.1315 34.375 50.1299C34.375 50.1283 34.375 50.1268 34.375 50.1252C34.375 50.1237 34.375 50.1221 34.375 50.1205C34.375 50.119 34.375 50.1174 34.375 50.1159C34.375 50.1143 34.375 50.1128 34.375 50.1112C34.375 50.1097 34.375 50.1081 34.375 50.1065C34.375 50.105 34.375 50.1034 34.375 50.1019C34.375 50.1003 34.375 50.0988 34.375 50.0972C34.375 50.0957 34.375 50.0941 34.375 50.0926C34.375 50.091 34.375 50.0894 34.375 50.0879C34.375 50.0863 34.375 50.0848 34.375 50.0832C34.375 50.0817 34.375 50.0801 34.375 50.0786C34.375 50.077 34.375 50.0755 34.375 50.0739C34.375 50.0724 34.375 50.0708 34.375 50.0693C34.375 50.0677 34.375 50.0662 34.375 50.0646C34.375 50.0631 34.375 50.0615 34.375 50.06C34.375 50.0584 34.375 50.0569 34.375 50.0553C34.375 50.0538 34.375 50.0522 34.375 50.0507C34.375 50.0491 34.375 50.0476 34.375 50.046C34.375 50.0445 34.375 50.0429 34.375 50.0414C34.375 50.0398 34.375 50.0383 34.375 50.0367C34.375 50.0352 34.375 50.0336 34.375 50.0321C34.375 50.0305 34.375 50.029 34.375 50.0275C34.375 50.0259 34.375 50.0244 34.375 50.0228C34.375 50.0213 34.375 50.0197 34.375 50.0182C34.375 50.0166 34.375 50.0151 34.375 50.0135C34.375 50.012 34.375 50.0105 34.375 50.0089C34.375 50.0074 34.375 50.0058 34.375 50.0043C34.375 50.0027 34.375 50.0012 34.375 49.9997C34.375 49.9981 34.375 49.9966 34.375 49.995C34.375 49.9935 34.375 49.9919 34.375 49.9904C34.375 49.9889 34.375 49.9873 34.375 49.9858C34.375 49.9842 34.375 49.9827 34.375 49.9812C34.375 49.9796 34.375 49.9781 34.375 49.9765C34.375 49.975 34.375 49.9735 34.375 49.9719C34.375 49.9704 34.375 49.9688 34.375 49.9673C34.375 49.9658 34.375 49.9642 34.375 49.9627C34.375 49.9612 34.375 49.9596 34.375 49.9581C34.375 49.9565 34.375 49.955 34.375 49.9535C34.375 49.9519 34.375 49.9504 34.375 49.9489C34.375 49.9473 34.375 49.9458 34.375 49.9442C34.375 49.9427 34.375 49.9412 34.375 49.9396C34.375 49.9381 34.375 49.9366 34.375 49.935C34.375 49.9335 34.375 49.932 34.375 49.9304C34.375 49.9289 34.375 49.9274 34.375 49.9258C34.375 49.9243 34.375 49.9228 34.375 49.9212C34.375 49.9197 34.375 49.9182 34.375 49.9166C34.375 49.9151 34.375 49.9136 34.375 49.912C34.375 49.9105 34.375 49.909 34.375 49.9074C34.375 49.9059 34.375 49.9044 34.375 49.9028C34.375 49.9013 34.375 49.8998 34.375 49.8983C34.375 49.8967 34.375 49.8952 34.375 49.8937C34.375 49.8921 34.375 49.8906 34.375 49.8891C34.375 49.8876 34.375 49.886 34.375 49.8845C34.375 49.883 34.375 49.8814 34.375 49.8799C34.375 49.8784 34.375 49.8769 34.375 49.8753C34.375 49.8738 34.375 49.8723 34.375 49.8707C34.375 49.8692 34.375 49.8677 34.375 49.8662C34.375 49.8646 34.375 49.8631 34.375 49.8616C34.375 49.8601 34.375 49.8585 34.375 49.857C34.375 49.8555 34.375 49.854 34.375 49.8524C34.375 49.8509 34.375 49.8494 34.375 49.8479C34.375 49.8463 34.375 49.8448 34.375 49.8433C34.375 49.8418 34.375 49.8403 34.375 49.8387C34.375 49.8372 34.375 49.8357 34.375 49.8342C34.375 49.8326 34.375 49.8311 34.375 49.8296C34.375 49.8281 34.375 49.8266 34.375 49.825C34.375 49.8235 34.375 49.822 34.375 49.8205C34.375 49.819 34.375 49.8174 34.375 49.8159C34.375 49.8144 34.375 49.8129 34.375 49.8114C34.375 49.8098 34.375 49.8083 34.375 49.8068C34.375 49.8053 34.375 49.8038 34.375 49.8022C34.375 49.8007 34.375 49.7992 34.375 49.7977C34.375 49.7962 34.375 49.7947 34.375 49.7931C34.375 49.7916 34.375 49.7901 34.375 49.7886C34.375 49.7871 34.375 49.7856 34.375 49.784C34.375 49.7825 34.375 49.781 34.375 49.7795C34.375 49.778 34.375 49.7765 34.375 49.775C34.375 49.7734 34.375 49.7719 34.375 49.7704C34.375 49.7689 34.375 49.7674 34.375 49.7659C34.375 49.7644 34.375 49.7628 34.375 49.7613C34.375 49.7598 34.375 49.7583 34.375 49.7568C34.375 49.7553 34.375 49.7538 34.375 49.7523C34.375 49.7507 34.375 49.7492 34.375 49.7477C34.375 49.7462 34.375 49.7447 34.375 49.7432C34.375 49.7417 34.375 49.7402 34.375 49.7387C34.375 49.7372 34.375 49.7356 34.375 49.7341C34.375 49.7326 34.375 49.7311 34.375 49.7296C34.375 49.7281 34.375 49.7266 34.375 49.7251C34.375 49.7236 34.375 49.7221 34.375 49.7206C34.375 49.7191 34.375 49.7175 34.375 49.716C34.375 49.7145 34.375 49.713 34.375 49.7115C34.375 49.71 34.375 49.7085 34.375 49.707C34.375 49.7055 34.375 49.704 34.375 49.7025C34.375 49.701 34.375 49.6995 34.375 49.698C34.375 49.6965 34.375 49.695 34.375 49.6935C34.375 49.692 34.375 49.6905 34.375 49.689C34.375 49.6875 34.375 49.6859 34.375 49.6844C34.375 49.6829 34.375 49.6814 34.375 49.6799C34.375 49.6784 34.375 49.6769 34.375 49.6754C34.375 49.6739 34.375 49.6724 34.375 49.6709C34.375 49.6694 34.375 49.6679 34.375 49.6664C34.375 49.6649 34.375 49.6634 34.375 49.6619C34.375 49.6604 34.375 49.6589 34.375 49.6574C34.375 49.6559 34.375 49.6544 34.375 49.6529C34.375 49.6514 34.375 49.6499 34.375 49.6484C34.375 49.6469 34.375 49.6454 34.375 49.644C34.375 49.6425 34.375 49.641 34.375 49.6395C34.375 49.638 34.375 49.6365 34.375 49.635C34.375 49.6335 34.375 49.632 34.375 49.6305C34.375 49.629 34.375 49.6275 34.375 49.626C34.375 49.6245 34.375 49.623 34.375 49.6215C34.375 49.62 34.375 49.6185 34.375 49.617H32.875C32.875 49.6185 32.875 49.62 32.875 49.6215C32.875 49.623 32.875 49.6245 32.875 49.626C32.875 49.6275 32.875 49.629 32.875 49.6305C32.875 49.632 32.875 49.6335 32.875 49.635C32.875 49.6365 32.875 49.638 32.875 49.6395C32.875 49.641 32.875 49.6425 32.875 49.644C32.875 49.6454 32.875 49.6469 32.875 49.6484C32.875 49.6499 32.875 49.6514 32.875 49.6529C32.875 49.6544 32.875 49.6559 32.875 49.6574C32.875 49.6589 32.875 49.6604 32.875 49.6619C32.875 49.6634 32.875 49.6649 32.875 49.6664C32.875 49.6679 32.875 49.6694 32.875 49.6709C32.875 49.6724 32.875 49.6739 32.875 49.6754C32.875 49.6769 32.875 49.6784 32.875 49.6799C32.875 49.6814 32.875 49.6829 32.875 49.6844C32.875 49.6859 32.875 49.6875 32.875 49.689C32.875 49.6905 32.875 49.692 32.875 49.6935C32.875 49.695 32.875 49.6965 32.875 49.698C32.875 49.6995 32.875 49.701 32.875 49.7025C32.875 49.704 32.875 49.7055 32.875 49.707C32.875 49.7085 32.875 49.71 32.875 49.7115C32.875 49.713 32.875 49.7145 32.875 49.716C32.875 49.7175 32.875 49.7191 32.875 49.7206C32.875 49.7221 32.875 49.7236 32.875 49.7251C32.875 49.7266 32.875 49.7281 32.875 49.7296C32.875 49.7311 32.875 49.7326 32.875 49.7341C32.875 49.7356 32.875 49.7372 32.875 49.7387C32.875 49.7402 32.875 49.7417 32.875 49.7432C32.875 49.7447 32.875 49.7462 32.875 49.7477C32.875 49.7492 32.875 49.7507 32.875 49.7523C32.875 49.7538 32.875 49.7553 32.875 49.7568C32.875 49.7583 32.875 49.7598 32.875 49.7613C32.875 49.7628 32.875 49.7644 32.875 49.7659C32.875 49.7674 32.875 49.7689 32.875 49.7704C32.875 49.7719 32.875 49.7734 32.875 49.775C32.875 49.7765 32.875 49.778 32.875 49.7795C32.875 49.781 32.875 49.7825 32.875 49.784C32.875 49.7856 32.875 49.7871 32.875 49.7886C32.875 49.7901 32.875 49.7916 32.875 49.7931C32.875 49.7947 32.875 49.7962 32.875 49.7977C32.875 49.7992 32.875 49.8007 32.875 49.8022C32.875 49.8038 32.875 49.8053 32.875 49.8068C32.875 49.8083 32.875 49.8098 32.875 49.8114C32.875 49.8129 32.875 49.8144 32.875 49.8159C32.875 49.8174 32.875 49.819 32.875 49.8205C32.875 49.822 32.875 49.8235 32.875 49.825C32.875 49.8266 32.875 49.8281 32.875 49.8296C32.875 49.8311 32.875 49.8326 32.875 49.8342C32.875 49.8357 32.875 49.8372 32.875 49.8387C32.875 49.8403 32.875 49.8418 32.875 49.8433C32.875 49.8448 32.875 49.8463 32.875 49.8479C32.875 49.8494 32.875 49.8509 32.875 49.8524C32.875 49.854 32.875 49.8555 32.875 49.857C32.875 49.8585 32.875 49.8601 32.875 49.8616C32.875 49.8631 32.875 49.8646 32.875 49.8662C32.875 49.8677 32.875 49.8692 32.875 49.8707C32.875 49.8723 32.875 49.8738 32.875 49.8753C32.875 49.8769 32.875 49.8784 32.875 49.8799C32.875 49.8814 32.875 49.883 32.875 49.8845C32.875 49.886 32.875 49.8876 32.875 49.8891C32.875 49.8906 32.875 49.8921 32.875 49.8937C32.875 49.8952 32.875 49.8967 32.875 49.8983C32.875 49.8998 32.875 49.9013 32.875 49.9028C32.875 49.9044 32.875 49.9059 32.875 49.9074C32.875 49.909 32.875 49.9105 32.875 49.912C32.875 49.9136 32.875 49.9151 32.875 49.9166C32.875 49.9182 32.875 49.9197 32.875 49.9212C32.875 49.9228 32.875 49.9243 32.875 49.9258C32.875 49.9274 32.875 49.9289 32.875 49.9304C32.875 49.932 32.875 49.9335 32.875 49.935C32.875 49.9366 32.875 49.9381 32.875 49.9396C32.875 49.9412 32.875 49.9427 32.875 49.9442C32.875 49.9458 32.875 49.9473 32.875 49.9489C32.875 49.9504 32.875 49.9519 32.875 49.9535C32.875 49.955 32.875 49.9565 32.875 49.9581C32.875 49.9596 32.875 49.9612 32.875 49.9627C32.875 49.9642 32.875 49.9658 32.875 49.9673C32.875 49.9688 32.875 49.9704 32.875 49.9719C32.875 49.9735 32.875 49.975 32.875 49.9765C32.875 49.9781 32.875 49.9796 32.875 49.9812C32.875 49.9827 32.875 49.9842 32.875 49.9858C32.875 49.9873 32.875 49.9889 32.875 49.9904C32.875 49.9919 32.875 49.9935 32.875 49.995C32.875 49.9966 32.875 49.9981 32.875 49.9997C32.875 50.0012 32.875 50.0027 32.875 50.0043C32.875 50.0058 32.875 50.0074 32.875 50.0089C32.875 50.0105 32.875 50.012 32.875 50.0135C32.875 50.0151 32.875 50.0166 32.875 50.0182C32.875 50.0197 32.875 50.0213 32.875 50.0228C32.875 50.0244 32.875 50.0259 32.875 50.0275C32.875 50.029 32.875 50.0305 32.875 50.0321C32.875 50.0336 32.875 50.0352 32.875 50.0367C32.875 50.0383 32.875 50.0398 32.875 50.0414C32.875 50.0429 32.875 50.0445 32.875 50.046C32.875 50.0476 32.875 50.0491 32.875 50.0507C32.875 50.0522 32.875 50.0538 32.875 50.0553C32.875 50.0569 32.875 50.0584 32.875 50.06C32.875 50.0615 32.875 50.0631 32.875 50.0646C32.875 50.0662 32.875 50.0677 32.875 50.0693C32.875 50.0708 32.875 50.0724 32.875 50.0739C32.875 50.0755 32.875 50.077 32.875 50.0786C32.875 50.0801 32.875 50.0817 32.875 50.0832C32.875 50.0848 32.875 50.0863 32.875 50.0879C32.875 50.0894 32.875 50.091 32.875 50.0926C32.875 50.0941 32.875 50.0957 32.875 50.0972C32.875 50.0988 32.875 50.1003 32.875 50.1019C32.875 50.1034 32.875 50.105 32.875 50.1065C32.875 50.1081 32.875 50.1097 32.875 50.1112C32.875 50.1128 32.875 50.1143 32.875 50.1159C32.875 50.1174 32.875 50.119 32.875 50.1205C32.875 50.1221 32.875 50.1237 32.875 50.1252C32.875 50.1268 32.875 50.1283 32.875 50.1299C32.875 50.1315 32.875 50.133 32.875 50.1346C32.875 50.1361 32.875 50.1377 32.875 50.1392C32.875 50.1408 32.875 50.1424 32.875 50.1439C32.875 50.1455 32.875 50.147 32.875 50.1486C32.875 50.1502 32.875 50.1517 32.875 50.1533C32.875 50.1548 32.875 50.1564 32.875 50.158C32.875 50.1595 32.875 50.1611 32.875 50.1627C32.875 50.1642 32.875 50.1658 32.875 50.1673C32.875 50.1689 32.875 50.1705 32.875 50.172C32.875 50.1736 32.875 50.1752 32.875 50.1767C32.875 50.1783 32.875 50.1798 32.875 50.1814C32.875 50.183 32.875 50.1845 32.875 50.1861C32.875 50.1877 32.875 50.1892 32.875 50.1908C32.875 50.1924 32.875 50.1939 32.875 50.1955C32.875 50.1971 32.875 50.1986 32.875 50.2002C32.875 50.2018 32.875 50.2033 32.875 50.2049C32.875 50.2065 32.875 50.208 32.875 50.2096C32.875 50.2112 32.875 50.2127 32.875 50.2143C32.875 50.2159 32.875 50.2174 32.875 50.219C32.875 50.2206 32.875 50.2221 32.875 50.2237C32.875 50.2253 32.875 50.2268 32.875 50.2284C32.875 50.23 32.875 50.2316 32.875 50.2331C32.875 50.2347 32.875 50.2363 32.875 50.2378C32.875 50.2394 32.875 50.241 32.875 50.2425C32.875 50.2441 32.875 50.2457 32.875 50.2473C32.875 50.2488 32.875 50.2504 32.875 50.252C32.875 50.2536 32.875 50.2551 32.875 50.2567C32.875 50.2583 32.875 50.2598 32.875 50.2614C32.875 50.263 32.875 50.2646 32.875 50.2661C32.875 50.2677 32.875 50.2693 32.875 50.2709C32.875 50.2724 32.875 50.274 32.875 50.2756C32.875 50.2772 32.875 50.2787 32.875 50.2803C32.875 50.2819 32.875 50.2835 32.875 50.285C32.875 50.2866 32.875 50.2882 32.875 50.2898C32.875 50.2913 32.875 50.2929 32.875 50.2945C32.875 50.2961 32.875 50.2976 32.875 50.2992C32.875 50.3008 32.875 50.3024 32.875 50.304C32.875 50.3055 32.875 50.3071 32.875 50.3087C32.875 50.3103 32.875 50.3119 32.875 50.3134C32.875 50.315 32.875 50.3166 32.875 50.3182C32.875 50.3197 32.875 50.3213 32.875 50.3229C32.875 50.3245 32.875 50.3261 32.875 50.3276C32.875 50.3292 32.875 50.3308 32.875 50.3324C32.875 50.334 32.875 50.3356 32.875 50.3371C32.875 50.3387 32.875 50.3403 32.875 50.3419C32.875 50.3435 32.875 50.345 32.875 50.3466C32.875 50.3482 32.875 50.3498 32.875 50.3514C32.875 50.353 32.875 50.3545 32.875 50.3561C32.875 50.3577 32.875 50.3593 32.875 50.3609C32.875 50.3625 32.875 50.364 32.875 50.3656C32.875 50.3672 32.875 50.3688 32.875 50.3704C32.875 50.372 32.875 50.3736 32.875 50.3751C32.875 50.3767 32.875 50.3783 32.875 50.3799C32.875 50.3815 32.875 50.3831 32.875 50.3847C32.875 50.3863 32.875 50.3878 32.875 50.3894C32.875 50.391 32.875 50.3926 32.875 50.3942C32.875 50.3958 32.875 50.3974 32.875 50.399C32.875 50.4005 32.875 50.4021 32.875 50.4037C32.875 50.4053 32.875 50.4069 32.875 50.4085C32.875 50.4101 32.875 50.4117 32.875 50.4133C32.875 50.4148 32.875 50.4164 32.875 50.418C32.875 50.4196 32.875 50.4212 32.875 50.4228C32.875 50.4244 32.875 50.426 32.875 50.4276C32.875 50.4292 32.875 50.4308 32.875 50.4324C32.875 50.4339 32.875 50.4355 32.875 50.4371C32.875 50.4387 32.875 50.4403 32.875 50.4419C32.875 50.4435 32.875 50.4451 32.875 50.4467C32.875 50.4483 32.875 50.4499 32.875 50.4515C32.875 50.4531 32.875 50.4547 32.875 50.4563C32.875 50.4578 32.875 50.4594 32.875 50.461C32.875 50.4626 32.875 50.4642 32.875 50.4658C32.875 50.4674 32.875 50.469 32.875 50.4706C32.875 50.4722 32.875 50.4738 32.875 50.4754C32.875 50.477 32.875 50.4786 32.875 50.4802C32.875 50.4818 32.875 50.4834 32.875 50.485C32.875 50.4866 32.875 50.4882 32.875 50.4898C32.875 50.4914 32.875 50.493 32.875 50.4946C32.875 50.4962 32.875 50.4978 32.875 50.4994C32.875 50.501 32.875 50.5026 32.875 50.5042C32.875 50.5058 32.875 50.5074 32.875 50.509C32.875 50.5106 32.875 50.5122 32.875 50.5138C32.875 50.5154 32.875 50.517 32.875 50.5186C32.875 50.5202 32.875 50.5218 32.875 50.5234C32.875 50.525 32.875 50.5266 32.875 50.5282C32.875 50.5298 32.875 50.5314 32.875 50.533C32.875 50.5346 32.875 50.5362 32.875 50.5378C32.875 50.5394 32.875 50.541 32.875 50.5426C32.875 50.5442 32.875 50.5458 32.875 50.5474C32.875 50.549 32.875 50.5506 32.875 50.5522C32.875 50.5538 32.875 50.5554 32.875 50.557C32.875 50.5587 32.875 50.5603 32.875 50.5619C32.875 50.5635 32.875 50.5651 32.875 50.5667C32.875 50.5683 32.875 50.5699 32.875 50.5715C32.875 50.5731 32.875 50.5747 32.875 50.5763C32.875 50.5779 32.875 50.5795 32.875 50.5811C32.875 50.5828 32.875 50.5844 32.875 50.586C32.875 50.5876 32.875 50.5892 32.875 50.5908C32.875 50.5924 32.875 50.594 32.875 50.5956C32.875 50.5972 32.875 50.5988 32.875 50.6004C32.875 50.6021 32.875 50.6037 32.875 50.6053C32.875 50.6069 32.875 50.6085 32.875 50.6101C32.875 50.6117 32.875 50.6133 32.875 50.6149C32.875 50.6166 32.875 50.6182 32.875 50.6198C32.875 50.6214 32.875 50.623 32.875 50.6246C32.875 50.6262 32.875 50.6278 32.875 50.6294C32.875 50.6311 32.875 50.6327 32.875 50.6343C32.875 50.6359 32.875 50.6375 32.875 50.6391C32.875 50.6407 32.875 50.6424 32.875 50.644C32.875 50.6456 32.875 50.6472 32.875 50.6488C32.875 50.6504 32.875 50.652 32.875 50.6537C32.875 50.6553 32.875 50.6569 32.875 50.6585C32.875 50.6601 32.875 50.6617 32.875 50.6633C32.875 50.665 32.875 50.6666 32.875 50.6682C32.875 50.6698 32.875 50.6714 32.875 50.673C32.875 50.6747 32.875 50.6763 32.875 50.6779C32.875 50.6795 32.875 50.6811 32.875 50.6828C32.875 50.6844 32.875 50.686 32.875 50.6876C32.875 50.6892 32.875 50.6908 32.875 50.6925C32.875 50.6941 32.875 50.6957 32.875 50.6973C32.875 50.6989 32.875 50.7006 32.875 50.7022C32.875 50.7038 32.875 50.7054 32.875 50.707C32.875 50.7087 32.875 50.7103 32.875 50.7119C32.875 50.7135 32.875 50.7151 32.875 50.7168C32.875 50.7184 32.875 50.72 32.875 50.7216C32.875 50.7233 32.875 50.7249 32.875 50.7265C32.875 50.7281 32.875 50.7297 32.875 50.7314C32.875 50.733 32.875 50.7346 32.875 50.7362C32.875 50.7379 32.875 50.7395 32.875 50.7411C32.875 50.7427 32.875 50.7444 32.875 50.746C32.875 50.7476 32.875 50.7492 32.875 50.7508C32.875 50.7525 32.875 50.7541 32.875 50.7557C32.875 50.7573 32.875 50.759 32.875 50.7606C32.875 50.7622 32.875 50.7639 32.875 50.7655C32.875 50.7671 32.875 50.7687 32.875 50.7704C32.875 50.772 32.875 50.7736 32.875 50.7752C32.875 50.7769 32.875 50.7785 32.875 50.7801C32.875 50.7817 32.875 50.7834 32.875 50.785C32.875 50.7866 32.875 50.7883 32.875 50.7899C32.875 50.7915 32.875 50.7931 32.875 50.7948C32.875 50.7964 32.875 50.798 32.875 50.7997C32.875 50.8013 32.875 50.8029 32.875 50.8046C32.875 50.8062 32.875 50.8078 32.875 50.8094C32.875 50.8111 32.875 50.8127 32.875 50.8143C32.875 50.816 32.875 50.8176 32.875 50.8192C32.875 50.8209 32.875 50.8225 32.875 50.8241C32.875 50.8258 32.875 50.8274 32.875 50.829C32.875 50.8306 32.875 50.8323 32.875 50.8339C32.875 50.8355 32.875 50.8372 32.875 50.8388C32.875 50.8404 32.875 50.8421 32.875 50.8437C32.875 50.8453 32.875 50.847 32.875 50.8486C32.875 50.8502 32.875 50.8519 32.875 50.8535C32.875 50.8552 32.875 50.8568 32.875 50.8584C32.875 50.8601 32.875 50.8617 32.875 50.8633C32.875 50.865 32.875 50.8666 32.875 50.8682C32.875 50.8699 32.875 50.8715 32.875 50.8731C32.875 50.8748 32.875 50.8764 32.875 50.8781C32.875 50.8797 32.875 50.8813 32.875 50.883C32.875 50.8846 32.875 50.8862 32.875 50.8879C32.875 50.8895 32.875 50.8912 32.875 50.8928C32.875 50.8944 32.875 50.8961 32.875 50.8977C32.875 50.8993 32.875 50.901 32.875 50.9026C32.875 50.9043 32.875 50.9059 32.875 50.9075C32.875 50.9092 32.875 50.9108 32.875 50.9125C32.875 50.9141 32.875 50.9157 32.875 50.9174C32.875 50.919 32.875 50.9207 32.875 50.9223C32.875 50.9239 32.875 50.9256 32.875 50.9272C32.875 50.9289 32.875 50.9305 32.875 50.9322C32.875 50.9338 32.875 50.9354 32.875 50.9371C32.875 50.9387 32.875 50.9404 32.875 50.942C32.875 50.9437 32.875 50.9453 32.875 50.9469C32.875 50.9486 32.875 50.9502 32.875 50.9519C32.875 50.9535 32.875 50.9552 32.875 50.9568C32.875 50.9584 32.875 50.9601 32.875 50.9617C32.875 50.9634 32.875 50.965 32.875 50.9667C32.875 50.9683 32.875 50.97 32.875 50.9716C32.875 50.9733 32.875 50.9749 32.875 50.9765C32.875 50.9782 32.875 50.9798 32.875 50.9815C32.875 50.9831 32.875 50.9848 32.875 50.9864C32.875 50.9881 32.875 50.9897 32.875 50.9914C32.875 50.993 32.875 50.9947 32.875 50.9963C32.875 50.998 32.875 50.9996 32.875 51.0013C32.875 51.0029 32.875 51.0045 32.875 51.0062C32.875 51.0078 32.875 51.0095 32.875 51.0111C32.875 51.0128 32.875 51.0144 32.875 51.0161C32.875 51.0177 32.875 51.0194 32.875 51.021C32.875 51.0227 32.875 51.0243 32.875 51.026C32.875 51.0276 32.875 51.0293 32.875 51.0309C32.875 51.0326 32.875 51.0342 32.875 51.0359C32.875 51.0375 32.875 51.0392 32.875 51.0409C32.875 51.0425 32.875 51.0442 32.875 51.0458C32.875 51.0475 32.875 51.0491 32.875 51.0508C32.875 51.0524 32.875 51.0541 32.875 51.0557C32.875 51.0574 32.875 51.059 32.875 51.0607C32.875 51.0623 32.875 51.064 32.875 51.0656C32.875 51.0673 32.875 51.069 32.875 51.0706C32.875 51.0723 32.875 51.0739 32.875 51.0756C32.875 51.0772 32.875 51.0789 32.875 51.0805C32.875 51.0822 32.875 51.0839 32.875 51.0855C32.875 51.0872 32.875 51.0888 32.875 51.0905C32.875 51.0921 32.875 51.0938 32.875 51.0954C32.875 51.0971 32.875 51.0988 32.875 51.1004C32.875 51.1021 32.875 51.1037 32.875 51.1054C32.875 51.107 32.875 51.1087 32.875 51.1104C32.875 51.112 32.875 51.1137 32.875 51.1153C32.875 51.117 32.875 51.1187 32.875 51.1203C32.875 51.122 32.875 51.1236 32.875 51.1253C32.875 51.1269 32.875 51.1286 32.875 51.1303C32.875 51.1319 32.875 51.1336 32.875 51.1352C32.875 51.1369 32.875 51.1386 32.875 51.1402C32.875 51.1419 32.875 51.1436 32.875 51.1452C32.875 51.1469 32.875 51.1485 32.875 51.1502C32.875 51.1519 32.875 51.1535 32.875 51.1552C32.875 51.1568 32.875 51.1585 32.875 51.1602C32.875 51.1618 32.875 51.1635 32.875 51.1652C32.875 51.1668 32.875 51.1685 32.875 51.1701C32.875 51.1718 32.875 51.1735 32.875 51.1751C32.875 51.1768 32.875 51.1785 32.875 51.1801C32.875 51.1818 32.875 51.1835 32.875 51.1851C32.875 51.1868 32.875 51.1884 32.875 51.1901C32.875 51.1918 32.875 51.1934 32.875 51.1951C32.875 51.1968 32.875 51.1984 32.875 51.2001C32.875 51.2018 32.875 51.2034 32.875 51.2051C32.875 51.2068 32.875 51.2084 32.875 51.2101C32.875 51.2118 32.875 51.2134 32.875 51.2151C32.875 51.2168 32.875 51.2184 32.875 51.2201C32.875 51.2218 32.875 51.2234 32.875 51.2251C32.875 51.2268 32.875 51.2284 32.875 51.2301C32.875 51.2318 32.875 51.2334 32.875 51.2351C32.875 51.2368 32.875 51.2385 32.875 51.2401C32.875 51.2418 32.875 51.2435 32.875 51.2451C32.875 51.2468 32.875 51.2485 32.875 51.2501C32.875 51.2518 32.875 51.2535 32.875 51.2552C32.875 51.2568 32.875 51.2585 32.875 51.2602C32.875 51.2618 32.875 51.2635 32.875 51.2652C32.875 51.2669 32.875 51.2685 32.875 51.2702C32.875 51.2719 32.875 51.2735 32.875 51.2752C32.875 51.2769 32.875 51.2786 32.875 51.2802C32.875 51.2819 32.875 51.2836 32.875 51.2852C32.875 51.2869 32.875 51.2886 32.875 51.2903C32.875 51.2919 32.875 51.2936 32.875 51.2953C32.875 51.297 32.875 51.2986 32.875 51.3003C32.875 51.302 32.875 51.3037 32.875 51.3053C32.875 51.307 32.875 51.3087 32.875 51.3104C32.875 51.312 32.875 51.3137 32.875 51.3154C32.875 51.3171 32.875 51.3187 32.875 51.3204C32.875 51.3221 32.875 51.3238 32.875 51.3254C32.875 51.3271 32.875 51.3288 32.875 51.3305C32.875 51.3321 32.875 51.3338 32.875 51.3355C32.875 51.3372 32.875 51.3389 32.875 51.3405C32.875 51.3422 32.875 51.3439 32.875 51.3456C32.875 51.3472 32.875 51.3489 32.875 51.3506C32.875 51.3523 32.875 51.354 32.875 51.3556C32.875 51.3573 32.875 51.359 32.875 51.3607C32.875 51.3623 32.875 51.364 32.875 51.3657C32.875 51.3674 32.875 51.3691 32.875 51.3707C32.875 51.3724 32.875 51.3741 32.875 51.3758C32.875 51.3775 32.875 51.3791 32.875 51.3808C32.875 51.3825 32.875 51.3842 32.875 51.3859C32.875 51.3876 32.875 51.3892 32.875 51.3909C32.875 51.3926 32.875 51.3943 32.875 51.396C32.875 51.3976 32.875 51.3993 32.875 51.401C32.875 51.4027 32.875 51.4044 32.875 51.4061C32.875 51.4077 32.875 51.4094 32.875 51.4111C32.875 51.4128 32.875 51.4145 32.875 51.4162C32.875 51.4178 32.875 51.4195 32.875 51.4212C32.875 51.4229 32.875 51.4246 32.875 51.4263C32.875 51.4279 32.875 51.4296 32.875 51.4313C32.875 51.433 32.875 51.4347 32.875 51.4364C32.875 51.4381 32.875 51.4397 32.875 51.4414C32.875 51.4431 32.875 51.4448 32.875 51.4465C32.875 51.4482 32.875 51.4499 32.875 51.4515C32.875 51.4532 32.875 51.4549 32.875 51.4566C32.875 51.4583 32.875 51.46 32.875 51.4617C32.875 51.4634 32.875 51.465 32.875 51.4667C32.875 51.4684 32.875 51.4701 32.875 51.4718C32.875 51.4735 32.875 51.4752 32.875 51.4769C32.875 51.4785 32.875 51.4802 32.875 51.4819C32.875 51.4836 32.875 51.4853 32.875 51.487C32.875 51.4887 32.875 51.4904 32.875 51.4921C32.875 51.4937 32.875 51.4954 32.875 51.4971C32.875 51.4988 32.875 51.5005 32.875 51.5022C32.875 51.5039 32.875 51.5056 32.875 51.5073C32.875 51.509 32.875 51.5107 32.875 51.5123C32.875 51.514 32.875 51.5157 32.875 51.5174C32.875 51.5191 32.875 51.5208 32.875 51.5225C32.875 51.5242 32.875 51.5259 32.875 51.5276C32.875 51.5293 32.875 51.531 32.875 51.5326C32.875 51.5343 32.875 51.536 32.875 51.5377C32.875 51.5394 32.875 51.5411 32.875 51.5428C32.875 51.5445 32.875 51.5462 32.875 51.5479C32.875 51.5496 32.875 51.5513 32.875 51.553C32.875 51.5547 32.875 51.5564 32.875 51.5581C32.875 51.5597 32.875 51.5614 32.875 51.5631C32.875 51.5648 32.875 51.5665 32.875 51.5682C32.875 51.5699 32.875 51.5716 32.875 51.5733C32.875 51.575 32.875 51.5767 32.875 51.5784C32.875 51.5801 32.875 51.5818 32.875 51.5835C32.875 51.5852 32.875 51.5869 32.875 51.5886C32.875 51.5903 32.875 51.592 32.875 51.5937C32.875 51.5954 32.875 51.5971 32.875 51.5988C32.875 51.6005 32.875 51.6022 32.875 51.6039C32.875 51.6056 32.875 51.6073 32.875 51.609C32.875 51.6107 32.875 51.6124 32.875 51.614C32.875 51.6157 32.875 51.6174 32.875 51.6191C32.875 51.6208 32.875 51.6225 32.875 51.6242C32.875 51.6259 32.875 51.6276 32.875 51.6293C32.875 51.631 32.875 51.6327 32.875 51.6344C32.875 51.6361 32.875 51.6378 32.875 51.6395C32.875 51.6413 32.875 51.643 32.875 51.6447C32.875 51.6464 32.875 51.6481 32.875 51.6498C32.875 51.6515 32.875 51.6532 32.875 51.6549C32.875 51.6566 32.875 51.6583 32.875 51.66C32.875 51.6617 32.875 51.6634 32.875 51.6651C32.875 51.6668 32.875 51.6685 32.875 51.6702C32.875 51.6719 32.875 51.6736 32.875 51.6753C32.875 51.677 32.875 51.6787 32.875 51.6804C32.875 51.6821 32.875 51.6838 32.875 51.6855C32.875 51.6872 32.875 51.6889 32.875 51.6906C32.875 51.6923 32.875 51.694 32.875 51.6957C32.875 51.6975 32.875 51.6992 32.875 51.7009C32.875 51.7026 32.875 51.7043 32.875 51.706C32.875 51.7077 32.875 51.7094 32.875 51.7111C32.875 51.7128 32.875 51.7145 32.875 51.7162C32.875 51.7179 32.875 51.7196 32.875 51.7213C32.875 51.723 32.875 51.7248 32.875 51.7265C32.875 51.7282 32.875 51.7299 32.875 51.7316C32.875 51.7333 32.875 51.735 32.875 51.7367C32.875 51.7384 32.875 51.7401 32.875 51.7418C32.875 51.7435 32.875 51.7452 32.875 51.747C32.875 51.7487 32.875 51.7504 32.875 51.7521C32.875 51.7538 32.875 51.7555 32.875 51.7572C32.875 51.7589 32.875 51.7606 32.875 51.7623C32.875 51.764 32.875 51.7658 32.875 51.7675C32.875 51.7692 32.875 51.7709 32.875 51.7726C32.875 51.7743 32.875 51.776 32.875 51.7777C32.875 51.7794 32.875 51.7812 32.875 51.7829C32.875 51.7846 32.875 51.7863 32.875 51.788C32.875 51.7897 32.875 51.7914 32.875 51.7931C32.875 51.7948 32.875 51.7966 32.875 51.7983C32.875 51.8 32.875 51.8017 32.875 51.8034C32.875 51.8051 32.875 51.8068 32.875 51.8085C32.875 51.8103 32.875 51.812 32.875 51.8137C32.875 51.8154 32.875 51.8171 32.875 51.8188C32.875 51.8205 32.875 51.8223 32.875 51.824C32.875 51.8257 32.875 51.8274 32.875 51.8291C32.875 51.8308 32.875 51.8325 32.875 51.8343C32.875 51.836 32.875 51.8377 32.875 51.8394C32.875 51.8411 32.875 51.8428 32.875 51.8445C32.875 51.8463 32.875 51.848 32.875 51.8497C32.875 51.8514 32.875 51.8531 32.875 51.8548C32.875 51.8566 32.875 51.8583 32.875 51.86C32.875 51.8617 32.875 51.8634 32.875 51.8651C32.875 51.8669 32.875 51.8686 32.875 51.8703C32.875 51.872 32.875 51.8737 32.875 51.8755C32.875 51.8772 32.875 51.8789 32.875 51.8806C32.875 51.8823 32.875 51.884 32.875 51.8858C32.875 51.8875 32.875 51.8892 32.875 51.8909C32.875 51.8926 32.875 51.8944 32.875 51.8961C32.875 51.8978 32.875 51.8995 32.875 51.9012C32.875 51.9029 32.875 51.9047 32.875 51.9064C32.875 51.9081 32.875 51.9098 32.875 51.9115C32.875 51.9133 32.875 51.915 32.875 51.9167C32.875 51.9184 32.875 51.9202 32.875 51.9219C32.875 51.9236 32.875 51.9253 32.875 51.927C32.875 51.9288 32.875 51.9305 32.875 51.9322C32.875 51.9339 32.875 51.9356 32.875 51.9374C32.875 51.9391 32.875 51.9408 32.875 51.9425C32.875 51.9443 32.875 51.946 32.875 51.9477C32.875 51.9494 32.875 51.9511 32.875 51.9529C32.875 51.9546 32.875 51.9563 32.875 51.958C32.875 51.9598 32.875 51.9615 32.875 51.9632C32.875 51.9649 32.875 51.9667 32.875 51.9684C32.875 51.9701 32.875 51.9718 32.875 51.9736C32.875 51.9753 32.875 51.977 32.875 51.9787C32.875 51.9805 32.875 51.9822 32.875 51.9839C32.875 51.9856 32.875 51.9874 32.875 51.9891C32.875 51.9908 32.875 51.9925 32.875 51.9943C32.875 51.996 32.875 51.9977 32.875 51.9994C32.875 52.0012 32.875 52.0029 32.875 52.0046C32.875 52.0063 32.875 52.0081 32.875 52.0098C32.875 52.0115 32.875 52.0132 32.875 52.015C32.875 52.0167 32.875 52.0184 32.875 52.0202C32.875 52.0219 32.875 52.0236 32.875 52.0253C32.875 52.0271 32.875 52.0288 32.875 52.0305C32.875 52.0322 32.875 52.034 32.875 52.0357C32.875 52.0374 32.875 52.0392 32.875 52.0409C32.875 52.0426 32.875 52.0443 32.875 52.0461C32.875 52.0478 32.875 52.0495 32.875 52.0513C32.875 52.053 32.875 52.0547 32.875 52.0565C32.875 52.0582 32.875 52.0599 32.875 52.0616C32.875 52.0634 32.875 52.0651 32.875 52.0668C32.875 52.0686 32.875 52.0703 32.875 52.072C32.875 52.0738 32.875 52.0755 32.875 52.0772C32.875 52.079 32.875 52.0807 32.875 52.0824C32.875 52.0841 32.875 52.0859 32.875 52.0876C32.875 52.0893 32.875 52.0911 32.875 52.0928C32.875 52.0945 32.875 52.0963 32.875 52.098C32.875 52.0997 32.875 52.1015 32.875 52.1032C32.875 52.1049 32.875 52.1067 32.875 52.1084C32.875 52.1101 32.875 52.1119 32.875 52.1136H34.375ZM37.375 46.6177H42.375V45.1177H37.375V46.6177ZM45.375 49.617C45.375 49.6185 45.375 49.62 45.375 49.6215C45.375 49.623 45.375 49.6245 45.375 49.626C45.375 49.6275 45.375 49.629 45.375 49.6305C45.375 49.632 45.375 49.6335 45.375 49.635C45.375 49.6365 45.375 49.638 45.375 49.6395C45.375 49.641 45.375 49.6425 45.375 49.644C45.375 49.6454 45.375 49.6469 45.375 49.6484C45.375 49.6499 45.375 49.6514 45.375 49.6529C45.375 49.6544 45.375 49.6559 45.375 49.6574C45.375 49.6589 45.375 49.6604 45.375 49.6619C45.375 49.6634 45.375 49.6649 45.375 49.6664C45.375 49.6679 45.375 49.6694 45.375 49.6709C45.375 49.6724 45.375 49.6739 45.375 49.6754C45.375 49.6769 45.375 49.6784 45.375 49.6799C45.375 49.6814 45.375 49.6829 45.375 49.6844C45.375 49.6859 45.375 49.6875 45.375 49.689C45.375 49.6905 45.375 49.692 45.375 49.6935C45.375 49.695 45.375 49.6965 45.375 49.698C45.375 49.6995 45.375 49.701 45.375 49.7025C45.375 49.704 45.375 49.7055 45.375 49.707C45.375 49.7085 45.375 49.71 45.375 49.7115C45.375 49.713 45.375 49.7145 45.375 49.716C45.375 49.7175 45.375 49.7191 45.375 49.7206C45.375 49.7221 45.375 49.7236 45.375 49.7251C45.375 49.7266 45.375 49.7281 45.375 49.7296C45.375 49.7311 45.375 49.7326 45.375 49.7341C45.375 49.7356 45.375 49.7372 45.375 49.7387C45.375 49.7402 45.375 49.7417 45.375 49.7432C45.375 49.7447 45.375 49.7462 45.375 49.7477C45.375 49.7492 45.375 49.7507 45.375 49.7523C45.375 49.7538 45.375 49.7553 45.375 49.7568C45.375 49.7583 45.375 49.7598 45.375 49.7613C45.375 49.7628 45.375 49.7644 45.375 49.7659C45.375 49.7674 45.375 49.7689 45.375 49.7704C45.375 49.7719 45.375 49.7734 45.375 49.775C45.375 49.7765 45.375 49.778 45.375 49.7795C45.375 49.781 45.375 49.7825 45.375 49.784C45.375 49.7856 45.375 49.7871 45.375 49.7886C45.375 49.7901 45.375 49.7916 45.375 49.7931C45.375 49.7947 45.375 49.7962 45.375 49.7977C45.375 49.7992 45.375 49.8007 45.375 49.8022C45.375 49.8038 45.375 49.8053 45.375 49.8068C45.375 49.8083 45.375 49.8098 45.375 49.8114C45.375 49.8129 45.375 49.8144 45.375 49.8159C45.375 49.8174 45.375 49.819 45.375 49.8205C45.375 49.822 45.375 49.8235 45.375 49.825C45.375 49.8266 45.375 49.8281 45.375 49.8296C45.375 49.8311 45.375 49.8326 45.375 49.8342C45.375 49.8357 45.375 49.8372 45.375 49.8387C45.375 49.8403 45.375 49.8418 45.375 49.8433C45.375 49.8448 45.375 49.8463 45.375 49.8479C45.375 49.8494 45.375 49.8509 45.375 49.8524C45.375 49.854 45.375 49.8555 45.375 49.857C45.375 49.8585 45.375 49.8601 45.375 49.8616C45.375 49.8631 45.375 49.8646 45.375 49.8662C45.375 49.8677 45.375 49.8692 45.375 49.8707C45.375 49.8723 45.375 49.8738 45.375 49.8753C45.375 49.8769 45.375 49.8784 45.375 49.8799C45.375 49.8814 45.375 49.883 45.375 49.8845C45.375 49.886 45.375 49.8876 45.375 49.8891C45.375 49.8906 45.375 49.8921 45.375 49.8937C45.375 49.8952 45.375 49.8967 45.375 49.8983C45.375 49.8998 45.375 49.9013 45.375 49.9028C45.375 49.9044 45.375 49.9059 45.375 49.9074C45.375 49.909 45.375 49.9105 45.375 49.912C45.375 49.9136 45.375 49.9151 45.375 49.9166C45.375 49.9182 45.375 49.9197 45.375 49.9212C45.375 49.9228 45.375 49.9243 45.375 49.9258C45.375 49.9274 45.375 49.9289 45.375 49.9304C45.375 49.932 45.375 49.9335 45.375 49.935C45.375 49.9366 45.375 49.9381 45.375 49.9396C45.375 49.9412 45.375 49.9427 45.375 49.9442C45.375 49.9458 45.375 49.9473 45.375 49.9489C45.375 49.9504 45.375 49.9519 45.375 49.9535C45.375 49.955 45.375 49.9565 45.375 49.9581C45.375 49.9596 45.375 49.9612 45.375 49.9627C45.375 49.9642 45.375 49.9658 45.375 49.9673C45.375 49.9688 45.375 49.9704 45.375 49.9719C45.375 49.9735 45.375 49.975 45.375 49.9765C45.375 49.9781 45.375 49.9796 45.375 49.9812C45.375 49.9827 45.375 49.9842 45.375 49.9858C45.375 49.9873 45.375 49.9889 45.375 49.9904C45.375 49.9919 45.375 49.9935 45.375 49.995C45.375 49.9966 45.375 49.9981 45.375 49.9997C45.375 50.0012 45.375 50.0027 45.375 50.0043C45.375 50.0058 45.375 50.0074 45.375 50.0089C45.375 50.0105 45.375 50.012 45.375 50.0135C45.375 50.0151 45.375 50.0166 45.375 50.0182C45.375 50.0197 45.375 50.0213 45.375 50.0228C45.375 50.0244 45.375 50.0259 45.375 50.0275C45.375 50.029 45.375 50.0305 45.375 50.0321C45.375 50.0336 45.375 50.0352 45.375 50.0367C45.375 50.0383 45.375 50.0398 45.375 50.0414C45.375 50.0429 45.375 50.0445 45.375 50.046C45.375 50.0476 45.375 50.0491 45.375 50.0507C45.375 50.0522 45.375 50.0538 45.375 50.0553C45.375 50.0569 45.375 50.0584 45.375 50.06C45.375 50.0615 45.375 50.0631 45.375 50.0646C45.375 50.0662 45.375 50.0677 45.375 50.0693C45.375 50.0708 45.375 50.0724 45.375 50.0739C45.375 50.0755 45.375 50.077 45.375 50.0786C45.375 50.0801 45.375 50.0817 45.375 50.0832C45.375 50.0848 45.375 50.0863 45.375 50.0879C45.375 50.0894 45.375 50.091 45.375 50.0926C45.375 50.0941 45.375 50.0957 45.375 50.0972C45.375 50.0988 45.375 50.1003 45.375 50.1019C45.375 50.1034 45.375 50.105 45.375 50.1065C45.375 50.1081 45.375 50.1097 45.375 50.1112C45.375 50.1128 45.375 50.1143 45.375 50.1159C45.375 50.1174 45.375 50.119 45.375 50.1205C45.375 50.1221 45.375 50.1237 45.375 50.1252C45.375 50.1268 45.375 50.1283 45.375 50.1299C45.375 50.1315 45.375 50.133 45.375 50.1346C45.375 50.1361 45.375 50.1377 45.375 50.1392C45.375 50.1408 45.375 50.1424 45.375 50.1439C45.375 50.1455 45.375 50.147 45.375 50.1486C45.375 50.1502 45.375 50.1517 45.375 50.1533C45.375 50.1548 45.375 50.1564 45.375 50.158C45.375 50.1595 45.375 50.1611 45.375 50.1627C45.375 50.1642 45.375 50.1658 45.375 50.1673C45.375 50.1689 45.375 50.1705 45.375 50.172C45.375 50.1736 45.375 50.1752 45.375 50.1767C45.375 50.1783 45.375 50.1798 45.375 50.1814C45.375 50.183 45.375 50.1845 45.375 50.1861C45.375 50.1877 45.375 50.1892 45.375 50.1908C45.375 50.1924 45.375 50.1939 45.375 50.1955C45.375 50.1971 45.375 50.1986 45.375 50.2002C45.375 50.2018 45.375 50.2033 45.375 50.2049C45.375 50.2065 45.375 50.208 45.375 50.2096C45.375 50.2112 45.375 50.2127 45.375 50.2143C45.375 50.2159 45.375 50.2174 45.375 50.219C45.375 50.2206 45.375 50.2221 45.375 50.2237C45.375 50.2253 45.375 50.2268 45.375 50.2284C45.375 50.23 45.375 50.2316 45.375 50.2331C45.375 50.2347 45.375 50.2363 45.375 50.2378C45.375 50.2394 45.375 50.241 45.375 50.2425C45.375 50.2441 45.375 50.2457 45.375 50.2473C45.375 50.2488 45.375 50.2504 45.375 50.252C45.375 50.2536 45.375 50.2551 45.375 50.2567C45.375 50.2583 45.375 50.2598 45.375 50.2614C45.375 50.263 45.375 50.2646 45.375 50.2661C45.375 50.2677 45.375 50.2693 45.375 50.2709C45.375 50.2724 45.375 50.274 45.375 50.2756C45.375 50.2772 45.375 50.2787 45.375 50.2803C45.375 50.2819 45.375 50.2835 45.375 50.285C45.375 50.2866 45.375 50.2882 45.375 50.2898C45.375 50.2913 45.375 50.2929 45.375 50.2945C45.375 50.2961 45.375 50.2976 45.375 50.2992C45.375 50.3008 45.375 50.3024 45.375 50.304C45.375 50.3055 45.375 50.3071 45.375 50.3087C45.375 50.3103 45.375 50.3119 45.375 50.3134C45.375 50.315 45.375 50.3166 45.375 50.3182C45.375 50.3197 45.375 50.3213 45.375 50.3229C45.375 50.3245 45.375 50.3261 45.375 50.3276C45.375 50.3292 45.375 50.3308 45.375 50.3324C45.375 50.334 45.375 50.3356 45.375 50.3371C45.375 50.3387 45.375 50.3403 45.375 50.3419C45.375 50.3435 45.375 50.345 45.375 50.3466C45.375 50.3482 45.375 50.3498 45.375 50.3514C45.375 50.353 45.375 50.3545 45.375 50.3561C45.375 50.3577 45.375 50.3593 45.375 50.3609C45.375 50.3625 45.375 50.364 45.375 50.3656C45.375 50.3672 45.375 50.3688 45.375 50.3704C45.375 50.372 45.375 50.3736 45.375 50.3751C45.375 50.3767 45.375 50.3783 45.375 50.3799C45.375 50.3815 45.375 50.3831 45.375 50.3847C45.375 50.3863 45.375 50.3878 45.375 50.3894C45.375 50.391 45.375 50.3926 45.375 50.3942C45.375 50.3958 45.375 50.3974 45.375 50.399C45.375 50.4005 45.375 50.4021 45.375 50.4037C45.375 50.4053 45.375 50.4069 45.375 50.4085C45.375 50.4101 45.375 50.4117 45.375 50.4133C45.375 50.4148 45.375 50.4164 45.375 50.418C45.375 50.4196 45.375 50.4212 45.375 50.4228C45.375 50.4244 45.375 50.426 45.375 50.4276C45.375 50.4292 45.375 50.4308 45.375 50.4324C45.375 50.4339 45.375 50.4355 45.375 50.4371C45.375 50.4387 45.375 50.4403 45.375 50.4419C45.375 50.4435 45.375 50.4451 45.375 50.4467C45.375 50.4483 45.375 50.4499 45.375 50.4515C45.375 50.4531 45.375 50.4547 45.375 50.4563C45.375 50.4578 45.375 50.4594 45.375 50.461C45.375 50.4626 45.375 50.4642 45.375 50.4658C45.375 50.4674 45.375 50.469 45.375 50.4706C45.375 50.4722 45.375 50.4738 45.375 50.4754C45.375 50.477 45.375 50.4786 45.375 50.4802C45.375 50.4818 45.375 50.4834 45.375 50.485C45.375 50.4866 45.375 50.4882 45.375 50.4898C45.375 50.4914 45.375 50.493 45.375 50.4946C45.375 50.4962 45.375 50.4978 45.375 50.4994C45.375 50.501 45.375 50.5026 45.375 50.5042C45.375 50.5058 45.375 50.5074 45.375 50.509C45.375 50.5106 45.375 50.5122 45.375 50.5138C45.375 50.5154 45.375 50.517 45.375 50.5186C45.375 50.5202 45.375 50.5218 45.375 50.5234C45.375 50.525 45.375 50.5266 45.375 50.5282C45.375 50.5298 45.375 50.5314 45.375 50.533C45.375 50.5346 45.375 50.5362 45.375 50.5378C45.375 50.5394 45.375 50.541 45.375 50.5426C45.375 50.5442 45.375 50.5458 45.375 50.5474C45.375 50.549 45.375 50.5506 45.375 50.5522C45.375 50.5538 45.375 50.5554 45.375 50.557C45.375 50.5587 45.375 50.5603 45.375 50.5619C45.375 50.5635 45.375 50.5651 45.375 50.5667C45.375 50.5683 45.375 50.5699 45.375 50.5715C45.375 50.5731 45.375 50.5747 45.375 50.5763C45.375 50.5779 45.375 50.5795 45.375 50.5811C45.375 50.5828 45.375 50.5844 45.375 50.586C45.375 50.5876 45.375 50.5892 45.375 50.5908C45.375 50.5924 45.375 50.594 45.375 50.5956C45.375 50.5972 45.375 50.5988 45.375 50.6004C45.375 50.6021 45.375 50.6037 45.375 50.6053C45.375 50.6069 45.375 50.6085 45.375 50.6101C45.375 50.6117 45.375 50.6133 45.375 50.6149C45.375 50.6166 45.375 50.6182 45.375 50.6198C45.375 50.6214 45.375 50.623 45.375 50.6246C45.375 50.6262 45.375 50.6278 45.375 50.6294C45.375 50.6311 45.375 50.6327 45.375 50.6343C45.375 50.6359 45.375 50.6375 45.375 50.6391C45.375 50.6407 45.375 50.6424 45.375 50.644C45.375 50.6456 45.375 50.6472 45.375 50.6488C45.375 50.6504 45.375 50.652 45.375 50.6537C45.375 50.6553 45.375 50.6569 45.375 50.6585C45.375 50.6601 45.375 50.6617 45.375 50.6633C45.375 50.665 45.375 50.6666 45.375 50.6682C45.375 50.6698 45.375 50.6714 45.375 50.673C45.375 50.6747 45.375 50.6763 45.375 50.6779C45.375 50.6795 45.375 50.6811 45.375 50.6828C45.375 50.6844 45.375 50.686 45.375 50.6876C45.375 50.6892 45.375 50.6908 45.375 50.6925C45.375 50.6941 45.375 50.6957 45.375 50.6973C45.375 50.6989 45.375 50.7006 45.375 50.7022C45.375 50.7038 45.375 50.7054 45.375 50.707C45.375 50.7087 45.375 50.7103 45.375 50.7119C45.375 50.7135 45.375 50.7151 45.375 50.7168C45.375 50.7184 45.375 50.72 45.375 50.7216C45.375 50.7233 45.375 50.7249 45.375 50.7265C45.375 50.7281 45.375 50.7297 45.375 50.7314C45.375 50.733 45.375 50.7346 45.375 50.7362C45.375 50.7379 45.375 50.7395 45.375 50.7411C45.375 50.7427 45.375 50.7444 45.375 50.746C45.375 50.7476 45.375 50.7492 45.375 50.7508C45.375 50.7525 45.375 50.7541 45.375 50.7557C45.375 50.7573 45.375 50.759 45.375 50.7606C45.375 50.7622 45.375 50.7639 45.375 50.7655C45.375 50.7671 45.375 50.7687 45.375 50.7704C45.375 50.772 45.375 50.7736 45.375 50.7752C45.375 50.7769 45.375 50.7785 45.375 50.7801C45.375 50.7817 45.375 50.7834 45.375 50.785C45.375 50.7866 45.375 50.7883 45.375 50.7899C45.375 50.7915 45.375 50.7931 45.375 50.7948C45.375 50.7964 45.375 50.798 45.375 50.7997C45.375 50.8013 45.375 50.8029 45.375 50.8046C45.375 50.8062 45.375 50.8078 45.375 50.8094C45.375 50.8111 45.375 50.8127 45.375 50.8143C45.375 50.816 45.375 50.8176 45.375 50.8192C45.375 50.8209 45.375 50.8225 45.375 50.8241C45.375 50.8258 45.375 50.8274 45.375 50.829C45.375 50.8306 45.375 50.8323 45.375 50.8339C45.375 50.8355 45.375 50.8372 45.375 50.8388C45.375 50.8404 45.375 50.8421 45.375 50.8437C45.375 50.8453 45.375 50.847 45.375 50.8486C45.375 50.8502 45.375 50.8519 45.375 50.8535C45.375 50.8552 45.375 50.8568 45.375 50.8584C45.375 50.8601 45.375 50.8617 45.375 50.8633C45.375 50.865 45.375 50.8666 45.375 50.8682C45.375 50.8699 45.375 50.8715 45.375 50.8731C45.375 50.8748 45.375 50.8764 45.375 50.8781C45.375 50.8797 45.375 50.8813 45.375 50.883C45.375 50.8846 45.375 50.8862 45.375 50.8879C45.375 50.8895 45.375 50.8912 45.375 50.8928C45.375 50.8944 45.375 50.8961 45.375 50.8977C45.375 50.8993 45.375 50.901 45.375 50.9026C45.375 50.9043 45.375 50.9059 45.375 50.9075C45.375 50.9092 45.375 50.9108 45.375 50.9125C45.375 50.9141 45.375 50.9157 45.375 50.9174C45.375 50.919 45.375 50.9207 45.375 50.9223C45.375 50.9239 45.375 50.9256 45.375 50.9272C45.375 50.9289 45.375 50.9305 45.375 50.9322C45.375 50.9338 45.375 50.9354 45.375 50.9371C45.375 50.9387 45.375 50.9404 45.375 50.942C45.375 50.9437 45.375 50.9453 45.375 50.9469C45.375 50.9486 45.375 50.9502 45.375 50.9519C45.375 50.9535 45.375 50.9552 45.375 50.9568C45.375 50.9584 45.375 50.9601 45.375 50.9617C45.375 50.9634 45.375 50.965 45.375 50.9667C45.375 50.9683 45.375 50.97 45.375 50.9716C45.375 50.9733 45.375 50.9749 45.375 50.9765C45.375 50.9782 45.375 50.9798 45.375 50.9815C45.375 50.9831 45.375 50.9848 45.375 50.9864C45.375 50.9881 45.375 50.9897 45.375 50.9914C45.375 50.993 45.375 50.9947 45.375 50.9963C45.375 50.998 45.375 50.9996 45.375 51.0013C45.375 51.0029 45.375 51.0045 45.375 51.0062C45.375 51.0078 45.375 51.0095 45.375 51.0111C45.375 51.0128 45.375 51.0144 45.375 51.0161C45.375 51.0177 45.375 51.0194 45.375 51.021C45.375 51.0227 45.375 51.0243 45.375 51.026C45.375 51.0276 45.375 51.0293 45.375 51.0309C45.375 51.0326 45.375 51.0342 45.375 51.0359C45.375 51.0375 45.375 51.0392 45.375 51.0409C45.375 51.0425 45.375 51.0442 45.375 51.0458C45.375 51.0475 45.375 51.0491 45.375 51.0508C45.375 51.0524 45.375 51.0541 45.375 51.0557C45.375 51.0574 45.375 51.059 45.375 51.0607C45.375 51.0623 45.375 51.064 45.375 51.0656C45.375 51.0673 45.375 51.069 45.375 51.0706C45.375 51.0723 45.375 51.0739 45.375 51.0756C45.375 51.0772 45.375 51.0789 45.375 51.0805C45.375 51.0822 45.375 51.0839 45.375 51.0855C45.375 51.0872 45.375 51.0888 45.375 51.0905C45.375 51.0921 45.375 51.0938 45.375 51.0954C45.375 51.0971 45.375 51.0988 45.375 51.1004C45.375 51.1021 45.375 51.1037 45.375 51.1054C45.375 51.107 45.375 51.1087 45.375 51.1104C45.375 51.112 45.375 51.1137 45.375 51.1153C45.375 51.117 45.375 51.1187 45.375 51.1203C45.375 51.122 45.375 51.1236 45.375 51.1253C45.375 51.1269 45.375 51.1286 45.375 51.1303C45.375 51.1319 45.375 51.1336 45.375 51.1352C45.375 51.1369 45.375 51.1386 45.375 51.1402C45.375 51.1419 45.375 51.1436 45.375 51.1452C45.375 51.1469 45.375 51.1485 45.375 51.1502C45.375 51.1519 45.375 51.1535 45.375 51.1552C45.375 51.1568 45.375 51.1585 45.375 51.1602C45.375 51.1618 45.375 51.1635 45.375 51.1652C45.375 51.1668 45.375 51.1685 45.375 51.1701C45.375 51.1718 45.375 51.1735 45.375 51.1751C45.375 51.1768 45.375 51.1785 45.375 51.1801C45.375 51.1818 45.375 51.1835 45.375 51.1851C45.375 51.1868 45.375 51.1884 45.375 51.1901C45.375 51.1918 45.375 51.1934 45.375 51.1951C45.375 51.1968 45.375 51.1984 45.375 51.2001C45.375 51.2018 45.375 51.2034 45.375 51.2051C45.375 51.2068 45.375 51.2084 45.375 51.2101C45.375 51.2118 45.375 51.2134 45.375 51.2151C45.375 51.2168 45.375 51.2184 45.375 51.2201C45.375 51.2218 45.375 51.2234 45.375 51.2251C45.375 51.2268 45.375 51.2284 45.375 51.2301C45.375 51.2318 45.375 51.2334 45.375 51.2351C45.375 51.2368 45.375 51.2385 45.375 51.2401C45.375 51.2418 45.375 51.2435 45.375 51.2451C45.375 51.2468 45.375 51.2485 45.375 51.2501C45.375 51.2518 45.375 51.2535 45.375 51.2552C45.375 51.2568 45.375 51.2585 45.375 51.2602C45.375 51.2618 45.375 51.2635 45.375 51.2652C45.375 51.2669 45.375 51.2685 45.375 51.2702C45.375 51.2719 45.375 51.2735 45.375 51.2752C45.375 51.2769 45.375 51.2786 45.375 51.2802C45.375 51.2819 45.375 51.2836 45.375 51.2852C45.375 51.2869 45.375 51.2886 45.375 51.2903C45.375 51.2919 45.375 51.2936 45.375 51.2953C45.375 51.297 45.375 51.2986 45.375 51.3003C45.375 51.302 45.375 51.3037 45.375 51.3053C45.375 51.307 45.375 51.3087 45.375 51.3104C45.375 51.312 45.375 51.3137 45.375 51.3154C45.375 51.3171 45.375 51.3187 45.375 51.3204C45.375 51.3221 45.375 51.3238 45.375 51.3254C45.375 51.3271 45.375 51.3288 45.375 51.3305C45.375 51.3321 45.375 51.3338 45.375 51.3355C45.375 51.3372 45.375 51.3389 45.375 51.3405C45.375 51.3422 45.375 51.3439 45.375 51.3456C45.375 51.3472 45.375 51.3489 45.375 51.3506C45.375 51.3523 45.375 51.354 45.375 51.3556C45.375 51.3573 45.375 51.359 45.375 51.3607C45.375 51.3623 45.375 51.364 45.375 51.3657C45.375 51.3674 45.375 51.3691 45.375 51.3707C45.375 51.3724 45.375 51.3741 45.375 51.3758C45.375 51.3775 45.375 51.3791 45.375 51.3808C45.375 51.3825 45.375 51.3842 45.375 51.3859C45.375 51.3876 45.375 51.3892 45.375 51.3909C45.375 51.3926 45.375 51.3943 45.375 51.396C45.375 51.3976 45.375 51.3993 45.375 51.401C45.375 51.4027 45.375 51.4044 45.375 51.4061C45.375 51.4077 45.375 51.4094 45.375 51.4111C45.375 51.4128 45.375 51.4145 45.375 51.4162C45.375 51.4178 45.375 51.4195 45.375 51.4212C45.375 51.4229 45.375 51.4246 45.375 51.4263C45.375 51.4279 45.375 51.4296 45.375 51.4313C45.375 51.433 45.375 51.4347 45.375 51.4364C45.375 51.4381 45.375 51.4397 45.375 51.4414C45.375 51.4431 45.375 51.4448 45.375 51.4465C45.375 51.4482 45.375 51.4499 45.375 51.4515C45.375 51.4532 45.375 51.4549 45.375 51.4566C45.375 51.4583 45.375 51.46 45.375 51.4617C45.375 51.4634 45.375 51.465 45.375 51.4667C45.375 51.4684 45.375 51.4701 45.375 51.4718C45.375 51.4735 45.375 51.4752 45.375 51.4769C45.375 51.4785 45.375 51.4802 45.375 51.4819C45.375 51.4836 45.375 51.4853 45.375 51.487C45.375 51.4887 45.375 51.4904 45.375 51.4921C45.375 51.4937 45.375 51.4954 45.375 51.4971C45.375 51.4988 45.375 51.5005 45.375 51.5022C45.375 51.5039 45.375 51.5056 45.375 51.5073C45.375 51.509 45.375 51.5107 45.375 51.5123C45.375 51.514 45.375 51.5157 45.375 51.5174C45.375 51.5191 45.375 51.5208 45.375 51.5225C45.375 51.5242 45.375 51.5259 45.375 51.5276C45.375 51.5293 45.375 51.531 45.375 51.5326C45.375 51.5343 45.375 51.536 45.375 51.5377C45.375 51.5394 45.375 51.5411 45.375 51.5428C45.375 51.5445 45.375 51.5462 45.375 51.5479C45.375 51.5496 45.375 51.5513 45.375 51.553C45.375 51.5547 45.375 51.5564 45.375 51.5581C45.375 51.5597 45.375 51.5614 45.375 51.5631C45.375 51.5648 45.375 51.5665 45.375 51.5682C45.375 51.5699 45.375 51.5716 45.375 51.5733C45.375 51.575 45.375 51.5767 45.375 51.5784C45.375 51.5801 45.375 51.5818 45.375 51.5835C45.375 51.5852 45.375 51.5869 45.375 51.5886C45.375 51.5903 45.375 51.592 45.375 51.5937C45.375 51.5954 45.375 51.5971 45.375 51.5988C45.375 51.6005 45.375 51.6022 45.375 51.6039C45.375 51.6056 45.375 51.6073 45.375 51.609C45.375 51.6107 45.375 51.6124 45.375 51.614C45.375 51.6157 45.375 51.6174 45.375 51.6191C45.375 51.6208 45.375 51.6225 45.375 51.6242C45.375 51.6259 45.375 51.6276 45.375 51.6293C45.375 51.631 45.375 51.6327 45.375 51.6344C45.375 51.6361 45.375 51.6378 45.375 51.6395C45.375 51.6413 45.375 51.643 45.375 51.6447C45.375 51.6464 45.375 51.6481 45.375 51.6498C45.375 51.6515 45.375 51.6532 45.375 51.6549C45.375 51.6566 45.375 51.6583 45.375 51.66C45.375 51.6617 45.375 51.6634 45.375 51.6651C45.375 51.6668 45.375 51.6685 45.375 51.6702C45.375 51.6719 45.375 51.6736 45.375 51.6753C45.375 51.677 45.375 51.6787 45.375 51.6804C45.375 51.6821 45.375 51.6838 45.375 51.6855C45.375 51.6872 45.375 51.6889 45.375 51.6906C45.375 51.6923 45.375 51.694 45.375 51.6957C45.375 51.6975 45.375 51.6992 45.375 51.7009C45.375 51.7026 45.375 51.7043 45.375 51.706C45.375 51.7077 45.375 51.7094 45.375 51.7111C45.375 51.7128 45.375 51.7145 45.375 51.7162C45.375 51.7179 45.375 51.7196 45.375 51.7213C45.375 51.723 45.375 51.7248 45.375 51.7265C45.375 51.7282 45.375 51.7299 45.375 51.7316C45.375 51.7333 45.375 51.735 45.375 51.7367C45.375 51.7384 45.375 51.7401 45.375 51.7418C45.375 51.7435 45.375 51.7452 45.375 51.747C45.375 51.7487 45.375 51.7504 45.375 51.7521C45.375 51.7538 45.375 51.7555 45.375 51.7572C45.375 51.7589 45.375 51.7606 45.375 51.7623C45.375 51.764 45.375 51.7658 45.375 51.7675C45.375 51.7692 45.375 51.7709 45.375 51.7726C45.375 51.7743 45.375 51.776 45.375 51.7777C45.375 51.7794 45.375 51.7812 45.375 51.7829C45.375 51.7846 45.375 51.7863 45.375 51.788C45.375 51.7897 45.375 51.7914 45.375 51.7931C45.375 51.7948 45.375 51.7966 45.375 51.7983C45.375 51.8 45.375 51.8017 45.375 51.8034C45.375 51.8051 45.375 51.8068 45.375 51.8085C45.375 51.8103 45.375 51.812 45.375 51.8137C45.375 51.8154 45.375 51.8171 45.375 51.8188C45.375 51.8205 45.375 51.8223 45.375 51.824C45.375 51.8257 45.375 51.8274 45.375 51.8291C45.375 51.8308 45.375 51.8325 45.375 51.8343C45.375 51.836 45.375 51.8377 45.375 51.8394C45.375 51.8411 45.375 51.8428 45.375 51.8445C45.375 51.8463 45.375 51.848 45.375 51.8497C45.375 51.8514 45.375 51.8531 45.375 51.8548C45.375 51.8566 45.375 51.8583 45.375 51.86C45.375 51.8617 45.375 51.8634 45.375 51.8651C45.375 51.8669 45.375 51.8686 45.375 51.8703C45.375 51.872 45.375 51.8737 45.375 51.8755C45.375 51.8772 45.375 51.8789 45.375 51.8806C45.375 51.8823 45.375 51.884 45.375 51.8858C45.375 51.8875 45.375 51.8892 45.375 51.8909C45.375 51.8926 45.375 51.8944 45.375 51.8961C45.375 51.8978 45.375 51.8995 45.375 51.9012C45.375 51.9029 45.375 51.9047 45.375 51.9064C45.375 51.9081 45.375 51.9098 45.375 51.9115C45.375 51.9133 45.375 51.915 45.375 51.9167C45.375 51.9184 45.375 51.9202 45.375 51.9219C45.375 51.9236 45.375 51.9253 45.375 51.927C45.375 51.9288 45.375 51.9305 45.375 51.9322C45.375 51.9339 45.375 51.9356 45.375 51.9374C45.375 51.9391 45.375 51.9408 45.375 51.9425C45.375 51.9443 45.375 51.946 45.375 51.9477C45.375 51.9494 45.375 51.9511 45.375 51.9529C45.375 51.9546 45.375 51.9563 45.375 51.958C45.375 51.9598 45.375 51.9615 45.375 51.9632C45.375 51.9649 45.375 51.9667 45.375 51.9684C45.375 51.9701 45.375 51.9718 45.375 51.9736C45.375 51.9753 45.375 51.977 45.375 51.9787C45.375 51.9805 45.375 51.9822 45.375 51.9839C45.375 51.9856 45.375 51.9874 45.375 51.9891C45.375 51.9908 45.375 51.9925 45.375 51.9943C45.375 51.996 45.375 51.9977 45.375 51.9994C45.375 52.0012 45.375 52.0029 45.375 52.0046C45.375 52.0063 45.375 52.0081 45.375 52.0098C45.375 52.0115 45.375 52.0132 45.375 52.015C45.375 52.0167 45.375 52.0184 45.375 52.0202C45.375 52.0219 45.375 52.0236 45.375 52.0253C45.375 52.0271 45.375 52.0288 45.375 52.0305C45.375 52.0322 45.375 52.034 45.375 52.0357C45.375 52.0374 45.375 52.0392 45.375 52.0409C45.375 52.0426 45.375 52.0443 45.375 52.0461C45.375 52.0478 45.375 52.0495 45.375 52.0513C45.375 52.053 45.375 52.0547 45.375 52.0565C45.375 52.0582 45.375 52.0599 45.375 52.0616C45.375 52.0634 45.375 52.0651 45.375 52.0668C45.375 52.0686 45.375 52.0703 45.375 52.072C45.375 52.0738 45.375 52.0755 45.375 52.0772C45.375 52.079 45.375 52.0807 45.375 52.0824C45.375 52.0841 45.375 52.0859 45.375 52.0876C45.375 52.0893 45.375 52.0911 45.375 52.0928C45.375 52.0945 45.375 52.0963 45.375 52.098C45.375 52.0997 45.375 52.1015 45.375 52.1032C45.375 52.1049 45.375 52.1067 45.375 52.1084C45.375 52.1101 45.375 52.1119 45.375 52.1136H46.875C46.875 52.1119 46.875 52.1101 46.875 52.1084C46.875 52.1067 46.875 52.1049 46.875 52.1032C46.875 52.1015 46.875 52.0997 46.875 52.098C46.875 52.0963 46.875 52.0945 46.875 52.0928C46.875 52.0911 46.875 52.0893 46.875 52.0876C46.875 52.0859 46.875 52.0841 46.875 52.0824C46.875 52.0807 46.875 52.079 46.875 52.0772C46.875 52.0755 46.875 52.0738 46.875 52.072C46.875 52.0703 46.875 52.0686 46.875 52.0668C46.875 52.0651 46.875 52.0634 46.875 52.0616C46.875 52.0599 46.875 52.0582 46.875 52.0565C46.875 52.0547 46.875 52.053 46.875 52.0513C46.875 52.0495 46.875 52.0478 46.875 52.0461C46.875 52.0443 46.875 52.0426 46.875 52.0409C46.875 52.0392 46.875 52.0374 46.875 52.0357C46.875 52.034 46.875 52.0322 46.875 52.0305C46.875 52.0288 46.875 52.0271 46.875 52.0253C46.875 52.0236 46.875 52.0219 46.875 52.0202C46.875 52.0184 46.875 52.0167 46.875 52.015C46.875 52.0132 46.875 52.0115 46.875 52.0098C46.875 52.0081 46.875 52.0063 46.875 52.0046C46.875 52.0029 46.875 52.0012 46.875 51.9994C46.875 51.9977 46.875 51.996 46.875 51.9943C46.875 51.9925 46.875 51.9908 46.875 51.9891C46.875 51.9874 46.875 51.9856 46.875 51.9839C46.875 51.9822 46.875 51.9805 46.875 51.9787C46.875 51.977 46.875 51.9753 46.875 51.9736C46.875 51.9718 46.875 51.9701 46.875 51.9684C46.875 51.9667 46.875 51.9649 46.875 51.9632C46.875 51.9615 46.875 51.9598 46.875 51.958C46.875 51.9563 46.875 51.9546 46.875 51.9529C46.875 51.9511 46.875 51.9494 46.875 51.9477C46.875 51.946 46.875 51.9443 46.875 51.9425C46.875 51.9408 46.875 51.9391 46.875 51.9374C46.875 51.9356 46.875 51.9339 46.875 51.9322C46.875 51.9305 46.875 51.9288 46.875 51.927C46.875 51.9253 46.875 51.9236 46.875 51.9219C46.875 51.9202 46.875 51.9184 46.875 51.9167C46.875 51.915 46.875 51.9133 46.875 51.9115C46.875 51.9098 46.875 51.9081 46.875 51.9064C46.875 51.9047 46.875 51.9029 46.875 51.9012C46.875 51.8995 46.875 51.8978 46.875 51.8961C46.875 51.8944 46.875 51.8926 46.875 51.8909C46.875 51.8892 46.875 51.8875 46.875 51.8858C46.875 51.884 46.875 51.8823 46.875 51.8806C46.875 51.8789 46.875 51.8772 46.875 51.8755C46.875 51.8737 46.875 51.872 46.875 51.8703C46.875 51.8686 46.875 51.8669 46.875 51.8651C46.875 51.8634 46.875 51.8617 46.875 51.86C46.875 51.8583 46.875 51.8566 46.875 51.8548C46.875 51.8531 46.875 51.8514 46.875 51.8497C46.875 51.848 46.875 51.8463 46.875 51.8445C46.875 51.8428 46.875 51.8411 46.875 51.8394C46.875 51.8377 46.875 51.836 46.875 51.8343C46.875 51.8325 46.875 51.8308 46.875 51.8291C46.875 51.8274 46.875 51.8257 46.875 51.824C46.875 51.8223 46.875 51.8205 46.875 51.8188C46.875 51.8171 46.875 51.8154 46.875 51.8137C46.875 51.812 46.875 51.8103 46.875 51.8085C46.875 51.8068 46.875 51.8051 46.875 51.8034C46.875 51.8017 46.875 51.8 46.875 51.7983C46.875 51.7966 46.875 51.7948 46.875 51.7931C46.875 51.7914 46.875 51.7897 46.875 51.788C46.875 51.7863 46.875 51.7846 46.875 51.7829C46.875 51.7812 46.875 51.7794 46.875 51.7777C46.875 51.776 46.875 51.7743 46.875 51.7726C46.875 51.7709 46.875 51.7692 46.875 51.7675C46.875 51.7658 46.875 51.764 46.875 51.7623C46.875 51.7606 46.875 51.7589 46.875 51.7572C46.875 51.7555 46.875 51.7538 46.875 51.7521C46.875 51.7504 46.875 51.7487 46.875 51.747C46.875 51.7452 46.875 51.7435 46.875 51.7418C46.875 51.7401 46.875 51.7384 46.875 51.7367C46.875 51.735 46.875 51.7333 46.875 51.7316C46.875 51.7299 46.875 51.7282 46.875 51.7265C46.875 51.7248 46.875 51.723 46.875 51.7213C46.875 51.7196 46.875 51.7179 46.875 51.7162C46.875 51.7145 46.875 51.7128 46.875 51.7111C46.875 51.7094 46.875 51.7077 46.875 51.706C46.875 51.7043 46.875 51.7026 46.875 51.7009C46.875 51.6992 46.875 51.6975 46.875 51.6957C46.875 51.694 46.875 51.6923 46.875 51.6906C46.875 51.6889 46.875 51.6872 46.875 51.6855C46.875 51.6838 46.875 51.6821 46.875 51.6804C46.875 51.6787 46.875 51.677 46.875 51.6753C46.875 51.6736 46.875 51.6719 46.875 51.6702C46.875 51.6685 46.875 51.6668 46.875 51.6651C46.875 51.6634 46.875 51.6617 46.875 51.66C46.875 51.6583 46.875 51.6566 46.875 51.6549C46.875 51.6532 46.875 51.6515 46.875 51.6498C46.875 51.6481 46.875 51.6464 46.875 51.6447C46.875 51.643 46.875 51.6413 46.875 51.6395C46.875 51.6378 46.875 51.6361 46.875 51.6344C46.875 51.6327 46.875 51.631 46.875 51.6293C46.875 51.6276 46.875 51.6259 46.875 51.6242C46.875 51.6225 46.875 51.6208 46.875 51.6191C46.875 51.6174 46.875 51.6157 46.875 51.614C46.875 51.6124 46.875 51.6107 46.875 51.609C46.875 51.6073 46.875 51.6056 46.875 51.6039C46.875 51.6022 46.875 51.6005 46.875 51.5988C46.875 51.5971 46.875 51.5954 46.875 51.5937C46.875 51.592 46.875 51.5903 46.875 51.5886C46.875 51.5869 46.875 51.5852 46.875 51.5835C46.875 51.5818 46.875 51.5801 46.875 51.5784C46.875 51.5767 46.875 51.575 46.875 51.5733C46.875 51.5716 46.875 51.5699 46.875 51.5682C46.875 51.5665 46.875 51.5648 46.875 51.5631C46.875 51.5614 46.875 51.5597 46.875 51.5581C46.875 51.5564 46.875 51.5547 46.875 51.553C46.875 51.5513 46.875 51.5496 46.875 51.5479C46.875 51.5462 46.875 51.5445 46.875 51.5428C46.875 51.5411 46.875 51.5394 46.875 51.5377C46.875 51.536 46.875 51.5343 46.875 51.5326C46.875 51.531 46.875 51.5293 46.875 51.5276C46.875 51.5259 46.875 51.5242 46.875 51.5225C46.875 51.5208 46.875 51.5191 46.875 51.5174C46.875 51.5157 46.875 51.514 46.875 51.5123C46.875 51.5107 46.875 51.509 46.875 51.5073C46.875 51.5056 46.875 51.5039 46.875 51.5022C46.875 51.5005 46.875 51.4988 46.875 51.4971C46.875 51.4954 46.875 51.4937 46.875 51.4921C46.875 51.4904 46.875 51.4887 46.875 51.487C46.875 51.4853 46.875 51.4836 46.875 51.4819C46.875 51.4802 46.875 51.4785 46.875 51.4769C46.875 51.4752 46.875 51.4735 46.875 51.4718C46.875 51.4701 46.875 51.4684 46.875 51.4667C46.875 51.465 46.875 51.4634 46.875 51.4617C46.875 51.46 46.875 51.4583 46.875 51.4566C46.875 51.4549 46.875 51.4532 46.875 51.4515C46.875 51.4499 46.875 51.4482 46.875 51.4465C46.875 51.4448 46.875 51.4431 46.875 51.4414C46.875 51.4397 46.875 51.4381 46.875 51.4364C46.875 51.4347 46.875 51.433 46.875 51.4313C46.875 51.4296 46.875 51.4279 46.875 51.4263C46.875 51.4246 46.875 51.4229 46.875 51.4212C46.875 51.4195 46.875 51.4178 46.875 51.4162C46.875 51.4145 46.875 51.4128 46.875 51.4111C46.875 51.4094 46.875 51.4077 46.875 51.4061C46.875 51.4044 46.875 51.4027 46.875 51.401C46.875 51.3993 46.875 51.3976 46.875 51.396C46.875 51.3943 46.875 51.3926 46.875 51.3909C46.875 51.3892 46.875 51.3876 46.875 51.3859C46.875 51.3842 46.875 51.3825 46.875 51.3808C46.875 51.3791 46.875 51.3775 46.875 51.3758C46.875 51.3741 46.875 51.3724 46.875 51.3707C46.875 51.3691 46.875 51.3674 46.875 51.3657C46.875 51.364 46.875 51.3623 46.875 51.3607C46.875 51.359 46.875 51.3573 46.875 51.3556C46.875 51.354 46.875 51.3523 46.875 51.3506C46.875 51.3489 46.875 51.3472 46.875 51.3456C46.875 51.3439 46.875 51.3422 46.875 51.3405C46.875 51.3389 46.875 51.3372 46.875 51.3355C46.875 51.3338 46.875 51.3321 46.875 51.3305C46.875 51.3288 46.875 51.3271 46.875 51.3254C46.875 51.3238 46.875 51.3221 46.875 51.3204C46.875 51.3187 46.875 51.3171 46.875 51.3154C46.875 51.3137 46.875 51.312 46.875 51.3104C46.875 51.3087 46.875 51.307 46.875 51.3053C46.875 51.3037 46.875 51.302 46.875 51.3003C46.875 51.2986 46.875 51.297 46.875 51.2953C46.875 51.2936 46.875 51.2919 46.875 51.2903C46.875 51.2886 46.875 51.2869 46.875 51.2852C46.875 51.2836 46.875 51.2819 46.875 51.2802C46.875 51.2786 46.875 51.2769 46.875 51.2752C46.875 51.2735 46.875 51.2719 46.875 51.2702C46.875 51.2685 46.875 51.2669 46.875 51.2652C46.875 51.2635 46.875 51.2618 46.875 51.2602C46.875 51.2585 46.875 51.2568 46.875 51.2552C46.875 51.2535 46.875 51.2518 46.875 51.2501C46.875 51.2485 46.875 51.2468 46.875 51.2451C46.875 51.2435 46.875 51.2418 46.875 51.2401C46.875 51.2385 46.875 51.2368 46.875 51.2351C46.875 51.2334 46.875 51.2318 46.875 51.2301C46.875 51.2284 46.875 51.2268 46.875 51.2251C46.875 51.2234 46.875 51.2218 46.875 51.2201C46.875 51.2184 46.875 51.2168 46.875 51.2151C46.875 51.2134 46.875 51.2118 46.875 51.2101C46.875 51.2084 46.875 51.2068 46.875 51.2051C46.875 51.2034 46.875 51.2018 46.875 51.2001C46.875 51.1984 46.875 51.1968 46.875 51.1951C46.875 51.1934 46.875 51.1918 46.875 51.1901C46.875 51.1884 46.875 51.1868 46.875 51.1851C46.875 51.1835 46.875 51.1818 46.875 51.1801C46.875 51.1785 46.875 51.1768 46.875 51.1751C46.875 51.1735 46.875 51.1718 46.875 51.1701C46.875 51.1685 46.875 51.1668 46.875 51.1652C46.875 51.1635 46.875 51.1618 46.875 51.1602C46.875 51.1585 46.875 51.1568 46.875 51.1552C46.875 51.1535 46.875 51.1519 46.875 51.1502C46.875 51.1485 46.875 51.1469 46.875 51.1452C46.875 51.1436 46.875 51.1419 46.875 51.1402C46.875 51.1386 46.875 51.1369 46.875 51.1352C46.875 51.1336 46.875 51.1319 46.875 51.1303C46.875 51.1286 46.875 51.1269 46.875 51.1253C46.875 51.1236 46.875 51.122 46.875 51.1203C46.875 51.1187 46.875 51.117 46.875 51.1153C46.875 51.1137 46.875 51.112 46.875 51.1104C46.875 51.1087 46.875 51.107 46.875 51.1054C46.875 51.1037 46.875 51.1021 46.875 51.1004C46.875 51.0988 46.875 51.0971 46.875 51.0954C46.875 51.0938 46.875 51.0921 46.875 51.0905C46.875 51.0888 46.875 51.0872 46.875 51.0855C46.875 51.0839 46.875 51.0822 46.875 51.0805C46.875 51.0789 46.875 51.0772 46.875 51.0756C46.875 51.0739 46.875 51.0723 46.875 51.0706C46.875 51.069 46.875 51.0673 46.875 51.0656C46.875 51.064 46.875 51.0623 46.875 51.0607C46.875 51.059 46.875 51.0574 46.875 51.0557C46.875 51.0541 46.875 51.0524 46.875 51.0508C46.875 51.0491 46.875 51.0475 46.875 51.0458C46.875 51.0442 46.875 51.0425 46.875 51.0409C46.875 51.0392 46.875 51.0375 46.875 51.0359C46.875 51.0342 46.875 51.0326 46.875 51.0309C46.875 51.0293 46.875 51.0276 46.875 51.026C46.875 51.0243 46.875 51.0227 46.875 51.021C46.875 51.0194 46.875 51.0177 46.875 51.0161C46.875 51.0144 46.875 51.0128 46.875 51.0111C46.875 51.0095 46.875 51.0078 46.875 51.0062C46.875 51.0045 46.875 51.0029 46.875 51.0013C46.875 50.9996 46.875 50.998 46.875 50.9963C46.875 50.9947 46.875 50.993 46.875 50.9914C46.875 50.9897 46.875 50.9881 46.875 50.9864C46.875 50.9848 46.875 50.9831 46.875 50.9815C46.875 50.9798 46.875 50.9782 46.875 50.9765C46.875 50.9749 46.875 50.9733 46.875 50.9716C46.875 50.97 46.875 50.9683 46.875 50.9667C46.875 50.965 46.875 50.9634 46.875 50.9617C46.875 50.9601 46.875 50.9584 46.875 50.9568C46.875 50.9552 46.875 50.9535 46.875 50.9519C46.875 50.9502 46.875 50.9486 46.875 50.9469C46.875 50.9453 46.875 50.9437 46.875 50.942C46.875 50.9404 46.875 50.9387 46.875 50.9371C46.875 50.9354 46.875 50.9338 46.875 50.9322C46.875 50.9305 46.875 50.9289 46.875 50.9272C46.875 50.9256 46.875 50.9239 46.875 50.9223C46.875 50.9207 46.875 50.919 46.875 50.9174C46.875 50.9157 46.875 50.9141 46.875 50.9125C46.875 50.9108 46.875 50.9092 46.875 50.9075C46.875 50.9059 46.875 50.9043 46.875 50.9026C46.875 50.901 46.875 50.8993 46.875 50.8977C46.875 50.8961 46.875 50.8944 46.875 50.8928C46.875 50.8912 46.875 50.8895 46.875 50.8879C46.875 50.8862 46.875 50.8846 46.875 50.883C46.875 50.8813 46.875 50.8797 46.875 50.8781C46.875 50.8764 46.875 50.8748 46.875 50.8731C46.875 50.8715 46.875 50.8699 46.875 50.8682C46.875 50.8666 46.875 50.865 46.875 50.8633C46.875 50.8617 46.875 50.8601 46.875 50.8584C46.875 50.8568 46.875 50.8552 46.875 50.8535C46.875 50.8519 46.875 50.8502 46.875 50.8486C46.875 50.847 46.875 50.8453 46.875 50.8437C46.875 50.8421 46.875 50.8404 46.875 50.8388C46.875 50.8372 46.875 50.8355 46.875 50.8339C46.875 50.8323 46.875 50.8306 46.875 50.829C46.875 50.8274 46.875 50.8258 46.875 50.8241C46.875 50.8225 46.875 50.8209 46.875 50.8192C46.875 50.8176 46.875 50.816 46.875 50.8143C46.875 50.8127 46.875 50.8111 46.875 50.8094C46.875 50.8078 46.875 50.8062 46.875 50.8046C46.875 50.8029 46.875 50.8013 46.875 50.7997C46.875 50.798 46.875 50.7964 46.875 50.7948C46.875 50.7931 46.875 50.7915 46.875 50.7899C46.875 50.7883 46.875 50.7866 46.875 50.785C46.875 50.7834 46.875 50.7817 46.875 50.7801C46.875 50.7785 46.875 50.7769 46.875 50.7752C46.875 50.7736 46.875 50.772 46.875 50.7704C46.875 50.7687 46.875 50.7671 46.875 50.7655C46.875 50.7639 46.875 50.7622 46.875 50.7606C46.875 50.759 46.875 50.7573 46.875 50.7557C46.875 50.7541 46.875 50.7525 46.875 50.7508C46.875 50.7492 46.875 50.7476 46.875 50.746C46.875 50.7444 46.875 50.7427 46.875 50.7411C46.875 50.7395 46.875 50.7379 46.875 50.7362C46.875 50.7346 46.875 50.733 46.875 50.7314C46.875 50.7297 46.875 50.7281 46.875 50.7265C46.875 50.7249 46.875 50.7233 46.875 50.7216C46.875 50.72 46.875 50.7184 46.875 50.7168C46.875 50.7151 46.875 50.7135 46.875 50.7119C46.875 50.7103 46.875 50.7087 46.875 50.707C46.875 50.7054 46.875 50.7038 46.875 50.7022C46.875 50.7006 46.875 50.6989 46.875 50.6973C46.875 50.6957 46.875 50.6941 46.875 50.6925C46.875 50.6908 46.875 50.6892 46.875 50.6876C46.875 50.686 46.875 50.6844 46.875 50.6828C46.875 50.6811 46.875 50.6795 46.875 50.6779C46.875 50.6763 46.875 50.6747 46.875 50.673C46.875 50.6714 46.875 50.6698 46.875 50.6682C46.875 50.6666 46.875 50.665 46.875 50.6633C46.875 50.6617 46.875 50.6601 46.875 50.6585C46.875 50.6569 46.875 50.6553 46.875 50.6537C46.875 50.652 46.875 50.6504 46.875 50.6488C46.875 50.6472 46.875 50.6456 46.875 50.644C46.875 50.6424 46.875 50.6407 46.875 50.6391C46.875 50.6375 46.875 50.6359 46.875 50.6343C46.875 50.6327 46.875 50.6311 46.875 50.6294C46.875 50.6278 46.875 50.6262 46.875 50.6246C46.875 50.623 46.875 50.6214 46.875 50.6198C46.875 50.6182 46.875 50.6166 46.875 50.6149C46.875 50.6133 46.875 50.6117 46.875 50.6101C46.875 50.6085 46.875 50.6069 46.875 50.6053C46.875 50.6037 46.875 50.6021 46.875 50.6004C46.875 50.5988 46.875 50.5972 46.875 50.5956C46.875 50.594 46.875 50.5924 46.875 50.5908C46.875 50.5892 46.875 50.5876 46.875 50.586C46.875 50.5844 46.875 50.5828 46.875 50.5811C46.875 50.5795 46.875 50.5779 46.875 50.5763C46.875 50.5747 46.875 50.5731 46.875 50.5715C46.875 50.5699 46.875 50.5683 46.875 50.5667C46.875 50.5651 46.875 50.5635 46.875 50.5619C46.875 50.5603 46.875 50.5587 46.875 50.557C46.875 50.5554 46.875 50.5538 46.875 50.5522C46.875 50.5506 46.875 50.549 46.875 50.5474C46.875 50.5458 46.875 50.5442 46.875 50.5426C46.875 50.541 46.875 50.5394 46.875 50.5378C46.875 50.5362 46.875 50.5346 46.875 50.533C46.875 50.5314 46.875 50.5298 46.875 50.5282C46.875 50.5266 46.875 50.525 46.875 50.5234C46.875 50.5218 46.875 50.5202 46.875 50.5186C46.875 50.517 46.875 50.5154 46.875 50.5138C46.875 50.5122 46.875 50.5106 46.875 50.509C46.875 50.5074 46.875 50.5058 46.875 50.5042C46.875 50.5026 46.875 50.501 46.875 50.4994C46.875 50.4978 46.875 50.4962 46.875 50.4946C46.875 50.493 46.875 50.4914 46.875 50.4898C46.875 50.4882 46.875 50.4866 46.875 50.485C46.875 50.4834 46.875 50.4818 46.875 50.4802C46.875 50.4786 46.875 50.477 46.875 50.4754C46.875 50.4738 46.875 50.4722 46.875 50.4706C46.875 50.469 46.875 50.4674 46.875 50.4658C46.875 50.4642 46.875 50.4626 46.875 50.461C46.875 50.4594 46.875 50.4578 46.875 50.4563C46.875 50.4547 46.875 50.4531 46.875 50.4515C46.875 50.4499 46.875 50.4483 46.875 50.4467C46.875 50.4451 46.875 50.4435 46.875 50.4419C46.875 50.4403 46.875 50.4387 46.875 50.4371C46.875 50.4355 46.875 50.4339 46.875 50.4324C46.875 50.4308 46.875 50.4292 46.875 50.4276C46.875 50.426 46.875 50.4244 46.875 50.4228C46.875 50.4212 46.875 50.4196 46.875 50.418C46.875 50.4164 46.875 50.4148 46.875 50.4133C46.875 50.4117 46.875 50.4101 46.875 50.4085C46.875 50.4069 46.875 50.4053 46.875 50.4037C46.875 50.4021 46.875 50.4005 46.875 50.399C46.875 50.3974 46.875 50.3958 46.875 50.3942C46.875 50.3926 46.875 50.391 46.875 50.3894C46.875 50.3878 46.875 50.3863 46.875 50.3847C46.875 50.3831 46.875 50.3815 46.875 50.3799C46.875 50.3783 46.875 50.3767 46.875 50.3751C46.875 50.3736 46.875 50.372 46.875 50.3704C46.875 50.3688 46.875 50.3672 46.875 50.3656C46.875 50.364 46.875 50.3625 46.875 50.3609C46.875 50.3593 46.875 50.3577 46.875 50.3561C46.875 50.3545 46.875 50.353 46.875 50.3514C46.875 50.3498 46.875 50.3482 46.875 50.3466C46.875 50.345 46.875 50.3435 46.875 50.3419C46.875 50.3403 46.875 50.3387 46.875 50.3371C46.875 50.3356 46.875 50.334 46.875 50.3324C46.875 50.3308 46.875 50.3292 46.875 50.3276C46.875 50.3261 46.875 50.3245 46.875 50.3229C46.875 50.3213 46.875 50.3197 46.875 50.3182C46.875 50.3166 46.875 50.315 46.875 50.3134C46.875 50.3119 46.875 50.3103 46.875 50.3087C46.875 50.3071 46.875 50.3055 46.875 50.304C46.875 50.3024 46.875 50.3008 46.875 50.2992C46.875 50.2976 46.875 50.2961 46.875 50.2945C46.875 50.2929 46.875 50.2913 46.875 50.2898C46.875 50.2882 46.875 50.2866 46.875 50.285C46.875 50.2835 46.875 50.2819 46.875 50.2803C46.875 50.2787 46.875 50.2772 46.875 50.2756C46.875 50.274 46.875 50.2724 46.875 50.2709C46.875 50.2693 46.875 50.2677 46.875 50.2661C46.875 50.2646 46.875 50.263 46.875 50.2614C46.875 50.2598 46.875 50.2583 46.875 50.2567C46.875 50.2551 46.875 50.2536 46.875 50.252C46.875 50.2504 46.875 50.2488 46.875 50.2473C46.875 50.2457 46.875 50.2441 46.875 50.2425C46.875 50.241 46.875 50.2394 46.875 50.2378C46.875 50.2363 46.875 50.2347 46.875 50.2331C46.875 50.2316 46.875 50.23 46.875 50.2284C46.875 50.2268 46.875 50.2253 46.875 50.2237C46.875 50.2221 46.875 50.2206 46.875 50.219C46.875 50.2174 46.875 50.2159 46.875 50.2143C46.875 50.2127 46.875 50.2112 46.875 50.2096C46.875 50.208 46.875 50.2065 46.875 50.2049C46.875 50.2033 46.875 50.2018 46.875 50.2002C46.875 50.1986 46.875 50.1971 46.875 50.1955C46.875 50.1939 46.875 50.1924 46.875 50.1908C46.875 50.1892 46.875 50.1877 46.875 50.1861C46.875 50.1845 46.875 50.183 46.875 50.1814C46.875 50.1798 46.875 50.1783 46.875 50.1767C46.875 50.1752 46.875 50.1736 46.875 50.172C46.875 50.1705 46.875 50.1689 46.875 50.1673C46.875 50.1658 46.875 50.1642 46.875 50.1627C46.875 50.1611 46.875 50.1595 46.875 50.158C46.875 50.1564 46.875 50.1548 46.875 50.1533C46.875 50.1517 46.875 50.1502 46.875 50.1486C46.875 50.147 46.875 50.1455 46.875 50.1439C46.875 50.1424 46.875 50.1408 46.875 50.1392C46.875 50.1377 46.875 50.1361 46.875 50.1346C46.875 50.133 46.875 50.1315 46.875 50.1299C46.875 50.1283 46.875 50.1268 46.875 50.1252C46.875 50.1237 46.875 50.1221 46.875 50.1205C46.875 50.119 46.875 50.1174 46.875 50.1159C46.875 50.1143 46.875 50.1128 46.875 50.1112C46.875 50.1097 46.875 50.1081 46.875 50.1065C46.875 50.105 46.875 50.1034 46.875 50.1019C46.875 50.1003 46.875 50.0988 46.875 50.0972C46.875 50.0957 46.875 50.0941 46.875 50.0926C46.875 50.091 46.875 50.0894 46.875 50.0879C46.875 50.0863 46.875 50.0848 46.875 50.0832C46.875 50.0817 46.875 50.0801 46.875 50.0786C46.875 50.077 46.875 50.0755 46.875 50.0739C46.875 50.0724 46.875 50.0708 46.875 50.0693C46.875 50.0677 46.875 50.0662 46.875 50.0646C46.875 50.0631 46.875 50.0615 46.875 50.06C46.875 50.0584 46.875 50.0569 46.875 50.0553C46.875 50.0538 46.875 50.0522 46.875 50.0507C46.875 50.0491 46.875 50.0476 46.875 50.046C46.875 50.0445 46.875 50.0429 46.875 50.0414C46.875 50.0398 46.875 50.0383 46.875 50.0367C46.875 50.0352 46.875 50.0336 46.875 50.0321C46.875 50.0305 46.875 50.029 46.875 50.0275C46.875 50.0259 46.875 50.0244 46.875 50.0228C46.875 50.0213 46.875 50.0197 46.875 50.0182C46.875 50.0166 46.875 50.0151 46.875 50.0135C46.875 50.012 46.875 50.0105 46.875 50.0089C46.875 50.0074 46.875 50.0058 46.875 50.0043C46.875 50.0027 46.875 50.0012 46.875 49.9997C46.875 49.9981 46.875 49.9966 46.875 49.995C46.875 49.9935 46.875 49.9919 46.875 49.9904C46.875 49.9889 46.875 49.9873 46.875 49.9858C46.875 49.9842 46.875 49.9827 46.875 49.9812C46.875 49.9796 46.875 49.9781 46.875 49.9765C46.875 49.975 46.875 49.9735 46.875 49.9719C46.875 49.9704 46.875 49.9688 46.875 49.9673C46.875 49.9658 46.875 49.9642 46.875 49.9627C46.875 49.9612 46.875 49.9596 46.875 49.9581C46.875 49.9565 46.875 49.955 46.875 49.9535C46.875 49.9519 46.875 49.9504 46.875 49.9489C46.875 49.9473 46.875 49.9458 46.875 49.9442C46.875 49.9427 46.875 49.9412 46.875 49.9396C46.875 49.9381 46.875 49.9366 46.875 49.935C46.875 49.9335 46.875 49.932 46.875 49.9304C46.875 49.9289 46.875 49.9274 46.875 49.9258C46.875 49.9243 46.875 49.9228 46.875 49.9212C46.875 49.9197 46.875 49.9182 46.875 49.9166C46.875 49.9151 46.875 49.9136 46.875 49.912C46.875 49.9105 46.875 49.909 46.875 49.9074C46.875 49.9059 46.875 49.9044 46.875 49.9028C46.875 49.9013 46.875 49.8998 46.875 49.8983C46.875 49.8967 46.875 49.8952 46.875 49.8937C46.875 49.8921 46.875 49.8906 46.875 49.8891C46.875 49.8876 46.875 49.886 46.875 49.8845C46.875 49.883 46.875 49.8814 46.875 49.8799C46.875 49.8784 46.875 49.8769 46.875 49.8753C46.875 49.8738 46.875 49.8723 46.875 49.8707C46.875 49.8692 46.875 49.8677 46.875 49.8662C46.875 49.8646 46.875 49.8631 46.875 49.8616C46.875 49.8601 46.875 49.8585 46.875 49.857C46.875 49.8555 46.875 49.854 46.875 49.8524C46.875 49.8509 46.875 49.8494 46.875 49.8479C46.875 49.8463 46.875 49.8448 46.875 49.8433C46.875 49.8418 46.875 49.8403 46.875 49.8387C46.875 49.8372 46.875 49.8357 46.875 49.8342C46.875 49.8326 46.875 49.8311 46.875 49.8296C46.875 49.8281 46.875 49.8266 46.875 49.825C46.875 49.8235 46.875 49.822 46.875 49.8205C46.875 49.819 46.875 49.8174 46.875 49.8159C46.875 49.8144 46.875 49.8129 46.875 49.8114C46.875 49.8098 46.875 49.8083 46.875 49.8068C46.875 49.8053 46.875 49.8038 46.875 49.8022C46.875 49.8007 46.875 49.7992 46.875 49.7977C46.875 49.7962 46.875 49.7947 46.875 49.7931C46.875 49.7916 46.875 49.7901 46.875 49.7886C46.875 49.7871 46.875 49.7856 46.875 49.784C46.875 49.7825 46.875 49.781 46.875 49.7795C46.875 49.778 46.875 49.7765 46.875 49.775C46.875 49.7734 46.875 49.7719 46.875 49.7704C46.875 49.7689 46.875 49.7674 46.875 49.7659C46.875 49.7644 46.875 49.7628 46.875 49.7613C46.875 49.7598 46.875 49.7583 46.875 49.7568C46.875 49.7553 46.875 49.7538 46.875 49.7523C46.875 49.7507 46.875 49.7492 46.875 49.7477C46.875 49.7462 46.875 49.7447 46.875 49.7432C46.875 49.7417 46.875 49.7402 46.875 49.7387C46.875 49.7372 46.875 49.7356 46.875 49.7341C46.875 49.7326 46.875 49.7311 46.875 49.7296C46.875 49.7281 46.875 49.7266 46.875 49.7251C46.875 49.7236 46.875 49.7221 46.875 49.7206C46.875 49.7191 46.875 49.7175 46.875 49.716C46.875 49.7145 46.875 49.713 46.875 49.7115C46.875 49.71 46.875 49.7085 46.875 49.707C46.875 49.7055 46.875 49.704 46.875 49.7025C46.875 49.701 46.875 49.6995 46.875 49.698C46.875 49.6965 46.875 49.695 46.875 49.6935C46.875 49.692 46.875 49.6905 46.875 49.689C46.875 49.6875 46.875 49.6859 46.875 49.6844C46.875 49.6829 46.875 49.6814 46.875 49.6799C46.875 49.6784 46.875 49.6769 46.875 49.6754C46.875 49.6739 46.875 49.6724 46.875 49.6709C46.875 49.6694 46.875 49.6679 46.875 49.6664C46.875 49.6649 46.875 49.6634 46.875 49.6619C46.875 49.6604 46.875 49.6589 46.875 49.6574C46.875 49.6559 46.875 49.6544 46.875 49.6529C46.875 49.6514 46.875 49.6499 46.875 49.6484C46.875 49.6469 46.875 49.6454 46.875 49.644C46.875 49.6425 46.875 49.641 46.875 49.6395C46.875 49.638 46.875 49.6365 46.875 49.635C46.875 49.6335 46.875 49.632 46.875 49.6305C46.875 49.629 46.875 49.6275 46.875 49.626C46.875 49.6245 46.875 49.623 46.875 49.6215C46.875 49.62 46.875 49.6185 46.875 49.617H45.375ZM42.375 46.6177C44.032 46.6177 45.375 47.9603 45.375 49.617H46.875C46.875 47.1316 44.8601 45.1177 42.375 45.1177V46.6177ZM34.375 49.617C34.375 47.9603 35.718 46.6177 37.375 46.6177V45.1177C34.8899 45.1177 32.875 47.1316 32.875 49.617H34.375ZM50.375 50.25V52.125H51.875V50.25H50.375ZM51.125 51.375H48V52.875H51.125V51.375ZM48 47.875C49.3117 47.875 50.375 48.9383 50.375 50.25H51.875C51.875 48.1099 50.1401 46.375 48 46.375V47.875ZM47.375 43.875C46.4085 43.875 45.625 43.0915 45.625 42.125H44.125C44.125 43.9199 45.5801 45.375 47.375 45.375V43.875ZM49.125 42.125C49.125 43.0915 48.3415 43.875 47.375 43.875V45.375C49.1699 45.375 50.625 43.9199 50.625 42.125H49.125ZM47.375 40.375C48.3415 40.375 49.125 41.1585 49.125 42.125H50.625C50.625 40.3301 49.1699 38.875 47.375 38.875V40.375ZM47.375 38.875C45.5801 38.875 44.125 40.3301 44.125 42.125H45.625C45.625 41.1585 46.4085 40.375 47.375 40.375V38.875Z" fill="white"/>
<defs>
<filter id="filter0_d" x="0" y="0" width="86" height="86" filterUnits="userSpaceOnUse" color-interpolation-filters="sRGB">
<feFlood flood-opacity="0" result="BackgroundImageFix"/>
<feColorMatrix in="SourceAlpha" type="matrix" values="0 0 0 0 0 0 0 0 0 0 0 0 0 0 0 0 0 0 127 0"/>
<feOffset/>
<feGaussianBlur stdDeviation="10"/>
<feColorMatrix type="matrix" values="0 0 0 0 0.133333 0 0 0 0 0.133333 0 0 0 0 0.133333 0 0 0 0.15 0"/>
<feBlend mode="normal" in2="BackgroundImageFix" result="effect1_dropShadow"/>
<feBlend mode="normal" in="SourceGraphic" in2="effect1_dropShadow" result="shape"/>
</filter>
</defs>
</svg>
