<svg width="86" height="86" viewBox="0 0 86 86" fill="none" xmlns="http://www.w3.org/2000/svg">
<g filter="url(#filter0_d)">
<circle cx="43" cy="43" r="23" fill="#444242"/>
</g>
<path d="M36.6247 48.8755L37.2956 49.2109L37.503 48.796L37.2244 48.425L36.6247 48.8755ZM38.3745 50.6253L38.825 50.0256L38.454 49.747L38.0391 49.9544L38.3745 50.6253ZM34.875 52.375L34.2042 52.0396C34.0598 52.3283 34.1164 52.6771 34.3447 52.9053C34.5729 53.1336 34.9217 53.1902 35.2104 53.0458L34.875 52.375ZM39.875 39.875L39.459 39.251C39.2503 39.3901 39.125 39.6242 39.125 39.875H39.875ZM47.375 47.375V48.125C47.6258 48.125 47.8599 47.9997 47.999 47.791L47.375 47.375ZM42.0678 40.5319L42.8076 40.4086H42.8076L42.0678 40.5319ZM42.2421 41.5778L41.5023 41.7011L42.2421 41.5778ZM41.7025 42.8233L42.1185 43.4474H42.1185L41.7025 42.8233ZM47.5526 47.1085L46.9286 46.6925L47.5526 47.1085ZM46.7181 45.1822L46.8414 44.4424H46.8414L46.7181 45.1822ZM45.6722 45.0079L45.5489 45.7477L45.6722 45.0079ZM44.4267 45.5475L43.8026 45.1315L44.4267 45.5475ZM34.125 43.625C34.125 45.763 34.8322 47.7381 36.0251 49.326L37.2244 48.425C36.2199 47.088 35.625 45.427 35.625 43.625H34.125ZM43.625 34.125C38.3783 34.125 34.125 38.3783 34.125 43.625H35.625C35.625 39.2067 39.2067 35.625 43.625 35.625V34.125ZM53.125 43.625C53.125 38.3783 48.8717 34.125 43.625 34.125V35.625C48.0433 35.625 51.625 39.2067 51.625 43.625H53.125ZM43.625 53.125C48.8717 53.125 53.125 48.8717 53.125 43.625H51.625C51.625 48.0433 48.0433 51.625 43.625 51.625V53.125ZM37.924 51.2249C39.5119 52.4178 41.487 53.125 43.625 53.125V51.625C41.823 51.625 40.162 51.0301 38.825 50.0256L37.924 51.2249ZM35.2104 53.0458L38.7099 51.2961L38.0391 49.9544L34.5396 51.7042L35.2104 53.0458ZM35.9539 48.5401L34.2042 52.0396L35.5458 52.7104L37.2956 49.2109L35.9539 48.5401ZM39.125 39.875V41.125H40.625V39.875H39.125ZM46.125 48.125H47.375V46.625H46.125V48.125ZM39.125 41.125C39.125 44.991 42.259 48.125 46.125 48.125V46.625C43.0874 46.625 40.625 44.1626 40.625 41.125H39.125ZM40.291 40.499L40.5575 40.3214L39.7254 39.0733L39.459 39.251L40.291 40.499ZM41.328 40.6552L41.5023 41.7011L42.9819 41.4545L42.8076 40.4086L41.328 40.6552ZM41.2865 42.1993L40.084 43.001L40.916 44.249L42.1185 43.4474L41.2865 42.1993ZM41.5023 41.7011C41.5347 41.8951 41.4502 42.0901 41.2865 42.1993L42.1185 43.4474C42.7734 43.0108 43.1113 42.2308 42.9819 41.4545L41.5023 41.7011ZM40.5575 40.3214C40.8594 40.1201 41.2684 40.2973 41.328 40.6552L42.8076 40.4086C42.569 38.9771 40.933 38.2683 39.7254 39.0733L40.5575 40.3214ZM47.999 47.791L48.1767 47.5246L46.9286 46.6925L46.751 46.959L47.999 47.791ZM46.8414 44.4424L45.7955 44.2681L45.5489 45.7477L46.5948 45.922L46.8414 44.4424ZM43.8026 45.1315L43.001 46.334L44.249 47.166L45.0507 45.9635L43.8026 45.1315ZM45.7955 44.2681C45.0192 44.1387 44.2392 44.4766 43.8026 45.1315L45.0507 45.9635C45.1599 45.7998 45.3549 45.7153 45.5489 45.7477L45.7955 44.2681ZM48.1767 47.5246C48.9817 46.317 48.2729 44.681 46.8414 44.4424L46.5948 45.922C46.9527 45.9816 47.1299 46.3906 46.9286 46.6925L48.1767 47.5246Z" fill="white"/>
<defs>
<filter id="filter0_d" x="0" y="0" width="86" height="86" filterUnits="userSpaceOnUse" color-interpolation-filters="sRGB">
<feFlood flood-opacity="0" result="BackgroundImageFix"/>
<feColorMatrix in="SourceAlpha" type="matrix" values="0 0 0 0 0 0 0 0 0 0 0 0 0 0 0 0 0 0 127 0"/>
<feOffset/>
<feGaussianBlur stdDeviation="10"/>
<feColorMatrix type="matrix" values="0 0 0 0 0.133333 0 0 0 0 0.133333 0 0 0 0 0.133333 0 0 0 0.15 0"/>
<feBlend mode="normal" in2="BackgroundImageFix" result="effect1_dropShadow"/>
<feBlend mode="normal" in="SourceGraphic" in2="effect1_dropShadow" result="shape"/>
</filter>
</defs>
</svg>
