<svg width="50" height="50" viewBox="0 0 50 50" fill="none" xmlns="http://www.w3.org/2000/svg">
<circle cx="25" cy="25" r="25" fill="#444242"/>
<path d="M16.875 28.125L16.3447 27.5947L16.125 27.8143V28.125H16.875ZM28.125 16.875L28.6553 16.3447C28.3624 16.0518 27.8876 16.0518 27.5947 16.3447L28.125 16.875ZM34.375 23.125L34.9053 23.6553C35.1982 23.3624 35.1982 22.8876 34.9053 22.5947L34.375 23.125ZM23.125 34.375V35.125H23.4357L23.6553 34.9053L23.125 34.375ZM16.875 34.375H16.125C16.125 34.7892 16.4608 35.125 16.875 35.125V34.375ZM17.4053 28.6553L28.6553 17.4053L27.5947 16.3447L16.3447 27.5947L17.4053 28.6553ZM27.5947 17.4053L33.8447 23.6553L34.9053 22.5947L28.6553 16.3447L27.5947 17.4053ZM33.8447 22.5947L22.5947 33.8447L23.6553 34.9053L34.9053 23.6553L33.8447 22.5947ZM23.125 33.625H16.875V35.125H23.125V33.625ZM17.625 34.375V28.125H16.125V34.375H17.625ZM23.8447 21.1553L30.0947 27.4053L31.1553 26.3447L24.9053 20.0947L23.8447 21.1553ZM26.25 35.125H35V33.625H26.25V35.125Z" fill="white"/>
</svg>
