<svg width="30" height="30" viewBox="0 0 30 30" fill="none" xmlns="http://www.w3.org/2000/svg">
<path d="M7.74974 20.0005L8.42056 20.3359L8.62804 19.921L8.34939 19.55L7.74974 20.0005ZM9.49949 21.7503L9.94997 21.1506L9.57904 20.872L9.16408 21.0794L9.49949 21.7503ZM6 23.5L5.32918 23.1646C5.18481 23.4533 5.2414 23.8021 5.46967 24.0303C5.69794 24.2586 6.04667 24.3152 6.33541 24.1708L6 23.5ZM11 11L10.584 10.376C10.3753 10.5151 10.25 10.7492 10.25 11H11ZM18.5 18.5V19.25C18.7508 19.25 18.9849 19.1247 19.124 18.916L18.5 18.5ZM13.1928 11.6569L13.9326 11.5336H13.9326L13.1928 11.6569ZM13.3671 12.7028L12.6273 12.8261L13.3671 12.7028ZM12.8275 13.9483L13.2435 14.5724H13.2435L12.8275 13.9483ZM18.6776 18.2335L18.0536 17.8175L18.6776 18.2335ZM17.8431 16.3072L17.9664 15.5674H17.9664L17.8431 16.3072ZM16.7972 16.1329L16.6739 16.8727L16.7972 16.1329ZM15.5517 16.6725L14.9276 16.2565L15.5517 16.6725ZM5.25 14.75C5.25 16.888 5.95719 18.8631 7.1501 20.451L8.34939 19.55C7.34492 18.213 6.75 16.552 6.75 14.75H5.25ZM14.75 5.25C9.5033 5.25 5.25 9.5033 5.25 14.75H6.75C6.75 10.3317 10.3317 6.75 14.75 6.75V5.25ZM24.25 14.75C24.25 9.5033 19.9967 5.25 14.75 5.25V6.75C19.1683 6.75 22.75 10.3317 22.75 14.75H24.25ZM14.75 24.25C19.9967 24.25 24.25 19.9967 24.25 14.75H22.75C22.75 19.1683 19.1683 22.75 14.75 22.75V24.25ZM9.04901 22.3499C10.6369 23.5428 12.612 24.25 14.75 24.25V22.75C12.948 22.75 11.287 22.1551 9.94997 21.1506L9.04901 22.3499ZM6.33541 24.1708L9.8349 22.4211L9.16408 21.0794L5.66459 22.8292L6.33541 24.1708ZM7.07892 19.6651L5.32918 23.1646L6.67082 23.8354L8.42056 20.3359L7.07892 19.6651ZM10.25 11V12.25H11.75V11H10.25ZM17.25 19.25H18.5V17.75H17.25V19.25ZM10.25 12.25C10.25 16.116 13.384 19.25 17.25 19.25V17.75C14.2124 17.75 11.75 15.2876 11.75 12.25H10.25ZM11.416 11.624L11.6825 11.4464L10.8504 10.1983L10.584 10.376L11.416 11.624ZM12.453 11.7802L12.6273 12.8261L14.1069 12.5795L13.9326 11.5336L12.453 11.7802ZM12.4115 13.3243L11.209 14.126L12.041 15.374L13.2435 14.5724L12.4115 13.3243ZM12.6273 12.8261C12.6597 13.0201 12.5752 13.2151 12.4115 13.3243L13.2435 14.5724C13.8984 14.1358 14.2363 13.3558 14.1069 12.5795L12.6273 12.8261ZM11.6825 11.4464C11.9844 11.2451 12.3934 11.4223 12.453 11.7802L13.9326 11.5336C13.694 10.1021 12.058 9.39328 10.8504 10.1983L11.6825 11.4464ZM19.124 18.916L19.3017 18.6496L18.0536 17.8175L17.876 18.084L19.124 18.916ZM17.9664 15.5674L16.9205 15.3931L16.6739 16.8727L17.7198 17.047L17.9664 15.5674ZM14.9276 16.2565L14.126 17.459L15.374 18.291L16.1757 17.0885L14.9276 16.2565ZM16.9205 15.3931C16.1442 15.2637 15.3642 15.6016 14.9276 16.2565L16.1757 17.0885C16.2849 16.9248 16.4799 16.8403 16.6739 16.8727L16.9205 15.3931ZM19.3017 18.6496C20.1067 17.442 19.3979 15.806 17.9664 15.5674L17.7198 17.047C18.0777 17.1066 18.2549 17.5156 18.0536 17.8175L19.3017 18.6496Z" fill="#444242"/>
</svg>
