<svg width="318" height="288" viewBox="0 0 318 288" fill="none" xmlns="http://www.w3.org/2000/svg">
<mask id="mask0" mask-type="alpha" maskUnits="userSpaceOnUse" x="0" y="0" width="318" height="288">
<path d="M0 15C0 6.71572 6.71573 0 15 0H303C311.284 0 318 6.71573 318 15V288H0V15Z" fill="#F4F6FA"/>
</mask>
<g mask="url(#mask0)">
<path d="M205.93 55.6794C205.136 51.4294 203.428 44.9072 200.284 42.6987C195.519 39.3385 190.675 46.5438 184.91 47.4653C179.144 48.3868 188.269 29.6864 178.184 26.3182C168.098 22.9499 165.207 35.4538 161.84 41.2213C158.473 46.9885 153.677 38.8379 149.349 40.2601C145.021 41.682 147.427 49.3877 143.107 50.3489C138.787 51.3101 131.576 45.5427 128.209 48.9111C125.033 52.0887 124.85 52.7082 120.268 55.6395L205.93 55.6794Z" fill="white"/>
<path d="M74.4234 168.922C73.8993 166.141 72.7873 161.867 70.7227 160.422C67.5462 158.221 64.4332 162.94 60.6531 163.599C56.8731 164.258 62.8529 151.945 56.2458 149.745C49.6388 147.544 47.7487 155.727 45.5489 159.5C43.3493 163.273 40.1966 157.911 37.3615 158.872C34.5266 159.834 36.1069 164.854 33.2718 165.482C30.4367 166.109 25.7197 162.304 23.512 164.544C21.4235 166.634 21.3123 167.023 18.3423 168.945L74.4234 168.922Z" fill="white"/>
<path d="M286.535 116.364C288.928 115.936 291.282 116.288 293.647 117.942C296.751 120.137 299.181 124.487 301.037 129.403C302.845 134.195 304.091 139.477 304.887 143.703L133.349 143.672C137.471 140.98 139.714 139.281 141.654 137.519C142.899 136.388 144.023 135.228 145.44 133.765C146.343 132.833 147.364 131.779 148.612 130.53C150.242 128.906 152.345 128.375 154.754 128.483C157.171 128.591 159.87 129.342 162.656 130.252C163.498 130.528 164.348 130.817 165.199 131.108C167.154 131.775 169.117 132.444 171.001 132.942C173.707 133.658 176.299 134.035 178.539 133.537C180.809 133.032 182.194 131.638 183.126 129.816C184.051 128.009 184.539 125.763 185.021 123.529L185.034 123.466C185.515 121.237 185.993 119.02 186.878 117.176C187.767 115.325 189.056 113.869 191.159 113.169C193.257 112.471 195.433 112.927 197.656 113.868C199.131 114.493 200.597 115.315 202.059 116.137C202.81 116.558 203.56 116.98 204.311 117.374C206.496 118.52 208.675 119.426 210.752 119.281C212.859 119.134 214.801 117.913 216.525 114.957C217.872 112.646 219.182 109.801 220.569 106.792C220.934 105.998 221.305 105.192 221.684 104.382C223.5 100.491 225.492 96.4802 227.902 93.0468C230.311 89.6132 233.127 86.7754 236.583 85.211C240.031 83.6501 244.144 83.3449 249.178 85.0236C254.17 86.6882 256.788 90.2473 258.091 94.655C259.398 99.0772 259.374 104.339 259.074 109.364C258.986 110.851 258.872 112.319 258.763 113.737C258.504 117.091 258.266 120.167 258.426 122.555C258.539 124.253 258.854 125.66 259.547 126.583C259.897 127.05 260.344 127.392 260.903 127.582C261.459 127.77 262.109 127.803 262.863 127.677C265.802 127.185 268.61 125.896 271.309 124.361C272.659 123.593 273.986 122.761 275.29 121.934C275.477 121.815 275.665 121.696 275.852 121.577C276.964 120.87 278.059 120.174 279.143 119.528C281.68 118.016 284.129 116.795 286.535 116.364Z" fill="white" stroke="#222222" stroke-width="0.5"/>
<path d="M200.14 42.9031L200.141 42.9033C201.647 43.9615 202.838 46.0815 203.754 48.5117C204.624 50.8189 205.23 53.3614 205.628 55.4293L121.115 55.3899C122.959 54.1857 124.015 53.3835 124.933 52.5531C125.562 51.9845 126.129 51.3994 126.839 50.6659C127.282 50.2083 127.781 49.693 128.386 49.0878L128.209 48.9111L128.386 49.0878C129.163 48.3109 130.167 48.0495 131.339 48.0996C132.519 48.1501 133.843 48.5151 135.223 48.965C135.64 49.1009 136.063 49.2449 136.488 49.3894C137.455 49.7187 138.432 50.0509 139.366 50.2978C140.712 50.6532 142.021 50.8467 143.161 50.5929C144.331 50.3326 145.044 49.6095 145.519 48.6807C145.986 47.7662 146.231 46.634 146.469 45.5299L146.474 45.5098C146.714 44.3969 146.948 43.3095 147.381 42.4095C147.811 41.5148 148.427 40.8261 149.427 40.4976L149.349 40.2601L149.427 40.4976C150.424 40.17 151.466 40.3865 152.555 40.8512C153.277 41.1594 153.989 41.5611 154.706 41.9659C155.081 42.1778 155.458 42.3906 155.838 42.5912C156.92 43.1614 158.027 43.628 159.094 43.5535C160.191 43.477 161.186 42.8373 162.056 41.3473C162.729 40.1941 163.384 38.7737 164.073 37.2779C164.254 36.8865 164.437 36.49 164.623 36.0917C165.524 34.1623 166.509 32.1811 167.697 30.4875C168.886 28.7936 170.266 27.4055 171.952 26.6425C173.629 25.883 175.635 25.7306 178.104 26.5553C180.531 27.3659 181.803 29.091 182.439 31.2437C183.078 33.411 183.067 35.9974 182.917 38.4854C182.873 39.2095 182.818 39.9276 182.764 40.6237C182.634 42.2961 182.515 43.8419 182.595 45.0403C182.652 45.8879 182.811 46.6185 183.179 47.1092C183.367 47.3606 183.61 47.5481 183.913 47.653C184.214 47.7569 184.56 47.7744 184.949 47.7122C186.433 47.4749 187.847 46.8354 189.197 46.0772C189.872 45.6976 190.535 45.2861 191.185 44.8778C191.289 44.8124 191.392 44.7471 191.495 44.6821C192.039 44.3399 192.572 44.004 193.099 43.6915C194.359 42.9459 195.559 42.3515 196.727 42.1424C197.881 41.9358 199.008 42.1049 200.14 42.9031Z" fill="white" stroke="#222222" stroke-width="0.5"/>
<path d="M60.696 163.846L60.6531 163.599L60.6961 163.846C61.6831 163.673 62.616 163.238 63.4989 162.732C63.9411 162.478 64.3744 162.205 64.7974 161.935C64.8549 161.898 64.9122 161.861 64.9694 161.825C65.3337 161.592 65.69 161.364 66.0428 161.152C66.8617 160.662 67.6343 160.278 68.385 160.143C69.1226 160.011 69.8445 160.117 70.58 160.627C71.5462 161.304 72.3182 162.671 72.9168 164.259C73.4694 165.726 73.8591 167.34 74.1207 168.672L19.1784 168.695C20.2306 167.991 20.8656 167.501 21.4257 166.993C21.8352 166.621 22.2074 166.237 22.6736 165.756C22.9647 165.456 23.2925 165.118 23.6888 164.721L23.6901 164.72C24.1773 164.225 24.808 164.054 25.5597 164.084C26.319 164.114 27.1755 164.35 28.0788 164.646C28.3534 164.736 28.6331 164.832 28.9145 164.928C29.5455 165.144 30.1855 165.364 30.7968 165.527C31.6817 165.763 32.5564 165.896 33.3258 165.726L33.3259 165.726C34.124 165.549 34.6105 165.057 34.9306 164.434C35.2434 163.825 35.406 163.074 35.5611 162.355L35.5638 162.342C35.7213 161.612 35.8727 160.911 36.1507 160.33C36.4252 159.757 36.8139 159.322 37.4418 159.109C38.065 158.898 38.7236 159.027 39.43 159.326C39.9037 159.526 40.3674 159.788 40.8396 160.055C41.0823 160.192 41.3272 160.33 41.5767 160.462C42.2866 160.837 43.031 161.156 43.7568 161.108C44.5125 161.058 45.1866 160.618 45.7649 159.626C46.2064 158.869 46.6359 157.936 47.086 156.958C47.2043 156.701 47.324 156.441 47.4458 156.18C48.0349 154.918 48.6762 153.628 49.4493 152.526C50.2226 151.424 51.1155 150.529 52.1996 150.038C53.2759 149.55 54.5671 149.449 56.1668 149.982C57.7238 150.501 58.5403 151.607 58.9504 153.001C59.3648 154.41 59.3582 156.096 59.2601 157.729C59.2318 158.2 59.1955 158.669 59.1603 159.125C59.0752 160.225 58.996 161.249 59.0495 162.039C59.0872 162.596 59.1925 163.095 59.4504 163.435C59.584 163.611 59.7576 163.742 59.975 163.814C60.1894 163.885 60.431 163.892 60.696 163.846Z" fill="white" stroke="#222222" stroke-width="0.5"/>
<path d="M268.895 272.423C266.117 269.163 262.105 267.266 258.779 266.18C257.074 265.624 255.542 265.278 254.436 265.072C253.882 264.968 253.435 264.9 253.126 264.857C252.971 264.835 252.851 264.82 252.769 264.811C252.753 264.809 252.739 264.807 252.726 264.806C250.294 261.777 248.76 258.124 248.302 254.265C247.838 250.361 248.491 246.404 250.186 242.859C251.883 239.311 254.55 236.319 257.881 234.23L257.881 234.23C261.21 232.14 265.063 231.041 268.994 231.058L268.895 272.423ZM268.895 272.423C270.853 270.117 273.284 268.256 276.025 266.969C278.82 265.655 281.867 264.971 284.955 264.961C287.418 261.95 288.987 258.308 289.481 254.446L289.729 254.477L289.481 254.446C289.98 250.547 289.361 246.585 287.698 243.022C286.032 239.462 283.391 236.446 280.081 234.327C276.77 232.208 272.926 231.076 268.995 231.058L268.895 272.423Z" fill="white" stroke="#222222" stroke-width="0.5"/>
<path d="M268.539 232.284L268.172 286.463H269.999L268.539 232.284Z" fill="#222222"/>
<path d="M269.087 270.773C269.087 270.773 272.732 264.211 279.299 262.201C279.299 262.201 272.367 263.846 268.904 269.493L269.087 270.773Z" fill="#222222"/>
<path d="M269.087 252.168C269.087 252.168 272.732 245.606 279.299 243.595C279.299 243.595 272.367 245.24 268.904 250.89L269.087 252.168Z" fill="#222222"/>
<path d="M269.087 261.47C269.087 261.47 272.732 254.908 279.299 252.898C279.299 252.898 272.367 254.543 268.904 260.19L269.087 261.47Z" fill="#222222"/>
<path d="M268.547 256.909C268.547 256.909 265.029 250.349 258.692 248.339C258.692 248.339 265.379 249.982 268.722 255.631L268.547 256.909Z" fill="#222222"/>
<path d="M268.547 266.029C268.547 266.029 265.029 259.467 258.692 257.459C258.692 257.459 265.379 259.102 268.722 264.751L268.547 266.029Z" fill="#222222"/>
<path d="M234.268 262.638C230.559 258.246 225.17 255.691 220.699 254.23C218.421 253.486 216.373 253.023 214.894 252.747C214.155 252.608 213.558 252.516 213.144 252.459C212.938 252.43 212.777 252.41 212.668 252.398C212.629 252.393 212.597 252.389 212.572 252.387C209.29 248.31 207.223 243.391 206.604 238.192C205.98 232.948 206.859 227.633 209.137 222.869C211.417 218.103 215 214.084 219.474 211.278C223.947 208.473 229.127 206.995 234.406 207.019C239.685 207.043 244.85 208.569 249.297 211.414C253.746 214.262 257.294 218.313 259.529 223.098C261.763 227.884 262.594 233.206 261.922 238.445C261.255 243.644 259.137 248.551 255.812 252.6C248.847 252.526 243.424 255.082 239.74 257.661C237.887 258.957 236.473 260.261 235.521 261.241C235.045 261.731 234.684 262.14 234.442 262.428C234.375 262.508 234.317 262.578 234.268 262.638Z" fill="white" stroke="#222222" stroke-width="0.5"/>
<path d="M233.789 208.761L233.302 281.305H235.741L233.789 208.761Z" fill="#222222"/>
<path d="M234.526 260.302C234.526 260.302 239.41 251.508 248.201 248.823C248.201 248.823 238.918 251.016 234.28 258.586L234.526 260.302Z" fill="#222222"/>
<path d="M234.526 235.382C234.526 235.382 239.41 226.588 248.201 223.903C248.201 223.903 238.918 226.104 234.28 233.674L234.526 235.382Z" fill="#222222"/>
<path d="M234.526 247.847C234.526 247.847 239.41 239.053 248.201 236.358C248.201 236.358 238.918 238.559 234.28 246.131L234.526 247.847Z" fill="#222222"/>
<path d="M233.804 241.737C233.804 241.737 229.086 232.943 220.606 230.258C220.606 230.258 229.555 232.449 234.035 240.029L233.804 241.737Z" fill="#222222"/>
<path d="M233.804 253.947C233.804 253.947 229.086 245.153 220.606 242.468C220.606 242.468 229.555 244.668 234.035 252.238L233.804 253.947Z" fill="#222222"/>
<path d="M86.1841 252.248C86.1841 252.248 100.995 253.708 108.499 262.892C108.499 262.892 116.44 252.255 130.671 252.477C134.155 248.279 136.375 243.176 137.072 237.763C137.768 232.351 136.913 226.851 134.606 221.906C132.299 216.961 128.634 212.773 124.04 209.831C119.445 206.889 114.109 205.313 108.654 205.288C103.199 205.262 97.8486 206.788 93.2268 209.687C88.605 212.586 84.902 216.741 82.5489 221.664C80.196 226.588 79.2899 232.079 79.9362 237.497C80.5826 242.917 82.7549 248.039 86.2001 252.27L86.1841 252.248Z" fill="white"/>
<path d="M108.677 262.274C108.606 262.358 108.545 262.432 108.494 262.495C104.702 257.996 99.1841 255.381 94.6049 253.888C92.272 253.128 90.1752 252.656 88.6613 252.374C87.9042 252.233 87.2924 252.139 86.8693 252.081C86.6578 252.052 86.4933 252.031 86.3814 252.018C86.3551 252.015 86.3316 252.012 86.3111 252.01C82.9438 247.835 80.8201 242.797 80.1844 237.467C79.5437 232.096 80.442 226.653 82.7745 221.772C85.1071 216.892 88.778 212.773 93.3597 209.899C97.9414 207.025 103.245 205.513 108.653 205.538L108.653 205.538C114.061 205.562 119.35 207.125 123.905 210.041C128.46 212.958 132.092 217.11 134.379 222.012L134.606 221.906L134.379 222.012C136.667 226.914 137.514 232.366 136.824 237.731C136.138 243.058 133.965 248.082 130.555 252.225C123.431 252.144 117.879 254.758 114.105 257.396C112.208 258.723 110.759 260.056 109.783 261.059C109.295 261.561 108.925 261.98 108.677 262.274Z" fill="white" stroke="#222222" stroke-width="0.5"/>
<path d="M108.007 207.34L107.506 281.6H110.008L108.007 207.34Z" fill="#222222"/>
<path d="M108.761 260.095C108.761 260.095 113.756 251.104 122.785 248.346C122.785 248.346 113.256 250.595 108.539 258.348L108.761 260.095Z" fill="#222222"/>
<path d="M108.761 234.596C108.761 234.596 113.756 225.595 122.753 222.847C122.753 222.847 113.224 225.094 108.507 232.839L108.761 234.596Z" fill="#222222"/>
<path d="M108.761 247.346C108.761 247.346 113.756 238.344 122.753 235.596C122.753 235.596 113.224 237.845 108.507 245.598L108.761 247.346Z" fill="#222222"/>
<path d="M108.014 241.093C108.014 241.093 103.194 232.094 94.5144 229.344C94.5144 229.344 103.679 231.593 108.261 239.345L108.014 241.093Z" fill="#222222"/>
<path d="M108.014 253.596C108.014 253.596 103.194 244.597 94.5144 241.84C94.5144 241.84 103.679 244.096 108.261 251.841L108.014 253.596Z" fill="#222222"/>
<path d="M53.3862 274.563C53.3497 274.607 53.3165 274.647 53.2867 274.683C50.3331 271.211 46.0636 269.192 42.5232 268.037C40.7099 267.445 39.0804 267.078 37.9039 266.859C37.3155 266.749 36.84 266.676 36.5109 266.631C36.3463 266.608 36.2184 266.592 36.1312 266.582C36.1147 266.58 36.0997 266.578 36.0862 266.576C33.4903 263.348 31.8534 259.455 31.3635 255.339C30.8686 251.18 31.5646 246.969 33.3703 243.192C35.1761 239.415 38.0175 236.228 41.5632 234.004C45.1091 231.781 49.2136 230.611 53.3988 230.629C57.584 230.648 61.6774 231.856 65.2027 234.113C68.728 236.37 71.5399 239.583 73.3109 243.376C75.0818 247.17 75.7389 251.387 75.206 255.539C74.6778 259.653 73.0036 263.535 70.3755 266.739C64.8442 266.686 60.5348 268.718 57.6061 270.768C56.1311 271.8 55.0047 272.837 54.2463 273.617C53.867 274.008 53.5795 274.334 53.3862 274.563Z" fill="white" stroke="#222222" stroke-width="0.5"/>
<path d="M52.9101 231.965L52.521 289.591H54.4585L52.9101 231.965Z" fill="#222222"/>
<path d="M53.4899 272.901C53.4899 272.901 57.3732 265.92 64.3535 263.782C64.3535 263.782 56.9841 265.53 53.2993 271.543L53.4899 272.901Z" fill="#222222"/>
<path d="M53.4899 253.112C53.4899 253.112 57.3732 246.131 64.3535 243.994C64.3535 243.994 56.9841 245.742 53.2993 251.754L53.4899 253.112Z" fill="#222222"/>
<path d="M53.4899 263.019C53.4899 263.019 57.3732 256.028 64.3535 253.898C64.3535 253.898 56.9841 255.648 53.2993 261.66L53.4899 263.019Z" fill="#222222"/>
<path d="M52.9023 258.158C52.9023 258.158 49.154 251.174 42.4199 249.037C42.4199 249.037 49.5671 250.785 53.085 256.799L52.9023 258.158Z" fill="#222222"/>
<path d="M52.9023 267.857C52.9023 267.857 49.154 260.874 42.4199 258.737C42.4199 258.737 49.5671 260.484 53.085 266.499L52.9023 267.857Z" fill="#222222"/>
<mask id="path-36-inside-1" fill="white">
<path d="M296.699 283.109L292.188 282.315C291.806 282.108 291.402 281.909 290.973 281.719L294.562 278.129L283.898 278.844L282.825 277.065L279.983 277.771L278.56 274.212L274.645 275.641L273.581 270.661L270.024 272.44L266.466 269.588L265.386 271.757L262.542 271.043L261.566 272.504L260.661 272.275L259.374 269.588L255.006 270.875L252.624 270.343L251.887 269.23H247.303L246.51 269.079L246.169 266.029L240.482 266.387L237.638 263.21L235.146 266.054L233.733 264.608L231.954 265.323L229.46 262.145C229.46 262.145 227.331 265.323 225.91 265.703C224.489 266.085 221.995 263.21 221.995 263.21L220.542 265.148L218.954 264.973L217.747 263.566L215.625 264.608L214.769 264.528L214.173 262.145L209.9 263.566L207.058 261.073L205.389 263.741L204.231 263.663L202.435 263.21L198.52 262.145L197.099 262.853L192.477 258.944V262.987H192.057L187.498 260.382L186.895 262.765H185.64L184.647 260.382L180.423 262.622H178.437L178.247 261.478L171.1 262.193L168.614 257.919L166.478 261.835L163.992 258.277L161.816 262.622H159.434L157.925 261.446L157.576 262.661L155.582 262.717L152.962 260.699L152.605 262.471L149.785 261.431L146.99 263.018H146.45L145.164 261.088L140.891 262.51L139.644 263.344L137.429 263.464L136.984 261.446L132.029 263.829L129.575 263.987C128.741 263.145 127.28 261.835 126.311 261.835C125.863 261.871 125.432 262.02 125.058 262.269C124.685 262.517 124.38 262.858 124.175 263.257L122.785 262.12L121.157 264.559L120.093 264.656L118.878 263.186L115.32 264.965L113.899 261.787L109.984 264.965L109.269 262.471L105.314 264.965L102.821 262.12L100.264 266.594L99.4698 266.681L97.0872 264.608L95.0227 267.19L93.609 267.365L91.7508 264.98L91.0361 266.76L87.8596 264.98L86.0808 268.159L82.5232 266.737L78.5128 269.374L73.6606 270.065L71.5484 268.548L69.7695 269.612L67.2759 268.548L66.5691 270.685L64.0756 269.97L62.2015 271.844L61.86 271.9L60.8436 269.588L57.3177 271.757L55.1894 268.913L52.3384 272.472L47.7166 272.822L43.4522 273.18L40.2757 274.602L37.1866 276.357L34.9393 276.023L32.9063 277.318L32.6918 277.374L30.3094 276.69L28.5306 277.754L25.3541 277.406L24.8618 279.845C24.0677 280.13 23.3371 280.424 22.5906 280.733C21.8838 280.663 21.1612 280.607 20.7244 280.607C20.2876 280.607 19.7079 281.402 19.1362 282.33C13.9505 285.017 10.774 288.376 14.8717 291.983C20.2559 296.749 33.9307 294.651 40.2361 294.23C67.2363 292.436 87.6214 286.772 98.1038 287.692C108.586 288.615 66.9662 310.436 111.977 310.445C156.988 310.453 249.361 305.234 262.861 303.963C276.36 302.691 249.464 297.735 253.332 291.791C257.199 285.85 288.599 290.886 293.879 289.472C297.38 288.535 296.261 286.193 295.134 284.706L296.699 283.109Z"/>
</mask>
<path d="M296.699 283.109L292.188 282.315C291.806 282.108 291.402 281.909 290.973 281.719L294.562 278.129L283.898 278.844L282.825 277.065L279.983 277.771L278.56 274.212L274.645 275.641L273.581 270.661L270.024 272.44L266.466 269.588L265.386 271.757L262.542 271.043L261.566 272.504L260.661 272.275L259.374 269.588L255.006 270.875L252.624 270.343L251.887 269.23H247.303L246.51 269.079L246.169 266.029L240.482 266.387L237.638 263.21L235.146 266.054L233.733 264.608L231.954 265.323L229.46 262.145C229.46 262.145 227.331 265.323 225.91 265.703C224.489 266.085 221.995 263.21 221.995 263.21L220.542 265.148L218.954 264.973L217.747 263.566L215.625 264.608L214.769 264.528L214.173 262.145L209.9 263.566L207.058 261.073L205.389 263.741L204.231 263.663L202.435 263.21L198.52 262.145L197.099 262.853L192.477 258.944V262.987H192.057L187.498 260.382L186.895 262.765H185.64L184.647 260.382L180.423 262.622H178.437L178.247 261.478L171.1 262.193L168.614 257.919L166.478 261.835L163.992 258.277L161.816 262.622H159.434L157.925 261.446L157.576 262.661L155.582 262.717L152.962 260.699L152.605 262.471L149.785 261.431L146.99 263.018H146.45L145.164 261.088L140.891 262.51L139.644 263.344L137.429 263.464L136.984 261.446L132.029 263.829L129.575 263.987C128.741 263.145 127.28 261.835 126.311 261.835C125.863 261.871 125.432 262.02 125.058 262.269C124.685 262.517 124.38 262.858 124.175 263.257L122.785 262.12L121.157 264.559L120.093 264.656L118.878 263.186L115.32 264.965L113.899 261.787L109.984 264.965L109.269 262.471L105.314 264.965L102.821 262.12L100.264 266.594L99.4698 266.681L97.0872 264.608L95.0227 267.19L93.609 267.365L91.7508 264.98L91.0361 266.76L87.8596 264.98L86.0808 268.159L82.5232 266.737L78.5128 269.374L73.6606 270.065L71.5484 268.548L69.7695 269.612L67.2759 268.548L66.5691 270.685L64.0756 269.97L62.2015 271.844L61.86 271.9L60.8436 269.588L57.3177 271.757L55.1894 268.913L52.3384 272.472L47.7166 272.822L43.4522 273.18L40.2757 274.602L37.1866 276.357L34.9393 276.023L32.9063 277.318L32.6918 277.374L30.3094 276.69L28.5306 277.754L25.3541 277.406L24.8618 279.845C24.0677 280.13 23.3371 280.424 22.5906 280.733C21.8838 280.663 21.1612 280.607 20.7244 280.607C20.2876 280.607 19.7079 281.402 19.1362 282.33C13.9505 285.017 10.774 288.376 14.8717 291.983C20.2559 296.749 33.9307 294.651 40.2361 294.23C67.2363 292.436 87.6214 286.772 98.1038 287.692C108.586 288.615 66.9662 310.436 111.977 310.445C156.988 310.453 249.361 305.234 262.861 303.963C276.36 302.691 249.464 297.735 253.332 291.791C257.199 285.85 288.599 290.886 293.879 289.472C297.38 288.535 296.261 286.193 295.134 284.706L296.699 283.109Z" fill="#222222" stroke="#222222" mask="url(#path-36-inside-1)"/>
<path d="M185.164 175.364C185.164 175.364 182.869 181.37 181.105 184.897C179.343 188.424 176.341 203.455 175.626 210.874C174.911 218.293 173.863 227.659 173.863 227.659C173.863 227.659 169.797 235.08 167.86 237.909C165.922 240.735 163.095 242.324 164.683 244.264C166.271 246.201 170.163 243.556 172.99 241.967C175.817 240.379 176.166 237.551 177.754 236.843C179.343 236.137 182.702 236.66 182.17 232.077C181.638 227.493 179.168 225.189 179.7 223.95C180.232 222.711 183.933 210.526 185.521 207.347C187.109 204.17 190.643 200.451 192.056 195.51C192.943 191.987 193.359 188.363 193.295 184.73C193.295 184.73 196.646 178.018 197.179 177.66C197.71 177.303 187.109 176.778 185.164 175.364Z" fill="white"/>
<path d="M185.164 175.364C185.164 175.364 182.869 181.37 181.105 184.897C179.343 188.424 176.341 203.455 175.626 210.874C174.911 218.293 173.863 227.659 173.863 227.659C173.863 227.659 169.797 235.08 167.86 237.909C165.922 240.735 163.095 242.324 164.683 244.264C166.271 246.201 170.163 243.556 172.99 241.967C175.817 240.379 176.166 237.551 177.754 236.843C179.343 236.137 182.702 236.66 182.17 232.077C181.638 227.493 179.168 225.189 179.7 223.95C180.232 222.711 183.933 210.526 185.521 207.347C187.109 204.17 190.643 200.451 192.056 195.51C192.943 191.987 193.359 188.363 193.295 184.73C193.295 184.73 196.646 178.018 197.179 177.66C197.71 177.303 187.109 176.778 185.164 175.364Z" fill="white" stroke="#222222" stroke-width="0.5" stroke-linecap="round" stroke-linejoin="round"/>
<path opacity="0.25" d="M182.63 181.584C184.171 182.379 187.125 183.841 188.935 183.841H191.469C191.469 183.841 193.438 188.345 190.063 195.948C186.688 203.55 180.772 212.551 179.366 218.461C178.572 221.757 176.492 232.038 174.792 240.498C176.079 239.021 176.587 237.376 177.746 236.86C179.334 236.152 182.694 236.677 182.162 232.094C181.629 227.508 179.16 225.205 179.692 223.966C180.224 222.727 183.932 210.526 185.521 207.347C187.109 204.17 190.643 200.451 192.056 195.51C192.943 191.987 193.359 188.363 193.295 184.73C193.295 184.73 196.646 178.018 197.179 177.66C197.71 177.303 187.109 176.778 185.163 175.364C185.163 175.364 183.932 178.51 182.63 181.584Z" fill="#222222"/>
<path d="M185.164 175.364C185.164 175.364 182.869 181.37 181.105 184.897C179.343 188.424 176.341 203.455 175.626 210.874C174.911 218.293 173.863 227.659 173.863 227.659C173.863 227.659 169.797 235.08 167.86 237.909C165.922 240.735 163.095 242.324 164.683 244.264C166.271 246.202 170.163 243.556 172.99 241.967C175.817 240.379 176.166 237.551 177.754 236.843C179.343 236.137 182.702 236.66 182.17 232.077C181.638 227.493 179.168 225.189 179.7 223.95C180.232 222.711 183.933 210.526 185.521 207.347C187.109 204.17 190.643 200.451 192.056 195.51C192.943 191.987 193.359 188.363 193.295 184.73C193.295 184.73 196.646 178.018 197.179 177.66C197.71 177.303 187.109 176.778 185.164 175.364Z" stroke="#222222" stroke-width="0.5" stroke-linecap="round" stroke-linejoin="round"/>
<path d="M164.675 244.278C166.264 246.225 170.155 243.572 172.982 241.983C175.809 240.394 176.158 237.565 177.747 236.859C179.335 236.151 182.694 236.677 182.162 232.093C181.694 228.009 179.692 225.738 179.621 224.419C179.253 225.718 178.473 226.862 177.397 227.676C175.102 229.623 173.863 227.676 173.863 227.676C173.863 227.676 169.798 235.095 167.86 237.923C165.922 240.751 163.087 242.365 164.675 244.278Z" fill="#222222" stroke="#222222" stroke-width="0.5" stroke-linecap="round" stroke-linejoin="round"/>
<path d="M182.17 232.133C181.312 232.886 180.359 233.525 179.335 234.031C176.333 235.445 175.627 238.091 171.394 241.45C170.429 242.3 169.285 242.92 168.048 243.265C166.811 243.612 165.512 243.677 164.247 243.453C164.326 243.746 164.47 244.016 164.668 244.247C166.256 246.194 170.147 243.541 172.974 241.952C175.801 240.362 176.151 237.534 177.739 236.828C179.327 236.12 182.662 236.668 182.17 232.133Z" fill="white" stroke="#222222" stroke-width="0.5" stroke-linecap="round" stroke-linejoin="round"/>
<path d="M230.738 176.246L234.804 182.435C234.804 182.435 236.567 190.562 239.22 195.861C241.872 201.159 248.407 210.159 251.585 214.06C254.76 217.96 255.824 225.546 255.824 225.546C255.824 225.546 254.237 228.908 255.293 231.378C256.349 233.849 259.359 235.621 259.89 237.916C260.422 240.211 263.6 245.693 266.07 245.335C268.539 244.977 270.135 241.808 268.189 237.208C266.243 232.61 262.535 229.083 261.479 224.307C260.422 219.534 257.064 199.745 254.237 193.563C252.632 190.001 250.741 186.574 248.582 183.316L245.93 172.711C245.93 172.711 236.042 178.018 230.738 176.246Z" fill="white"/>
<path d="M230.738 176.246L234.804 182.435C234.804 182.435 236.567 190.562 239.22 195.861C241.872 201.159 248.407 210.159 251.585 214.06C254.76 217.96 255.824 225.546 255.824 225.546C255.824 225.546 254.237 228.908 255.293 231.378C256.349 233.849 259.359 235.621 259.89 237.916C260.422 240.211 263.6 245.693 266.07 245.335C268.539 244.977 270.135 241.808 268.189 237.208C266.243 232.61 262.535 229.083 261.479 224.307C260.422 219.534 257.064 199.745 254.237 193.563C252.632 190.001 250.741 186.574 248.582 183.316L245.93 172.711C245.93 172.711 236.042 178.018 230.738 176.246Z" fill="white" stroke="#222222" stroke-width="0.5" stroke-linecap="round" stroke-linejoin="round"/>
<path opacity="0.25" d="M254.237 193.563C252.632 190.001 250.741 186.574 248.582 183.316L245.93 172.711C245.93 172.711 236.042 178.018 230.738 176.246L234.779 182.395C235.47 182.395 236.234 182.435 237.052 182.435C239.277 182.377 241.473 181.899 243.524 181.029C243.524 181.029 250.274 191.721 253.648 200.729C255.992 206.982 259.016 216.475 261.018 222.083C259.644 215.131 256.729 199.03 254.237 193.563Z" fill="#222222"/>
<path d="M230.738 176.246L234.804 182.435C234.804 182.435 236.567 190.562 239.22 195.861C241.872 201.159 248.407 210.159 251.585 214.06C254.76 217.96 255.824 225.546 255.824 225.546C255.824 225.546 254.237 228.908 255.293 231.378C256.349 233.849 259.359 235.621 259.89 237.916C260.422 240.211 263.6 245.693 266.07 245.335C268.539 244.977 270.135 241.808 268.189 237.208C266.243 232.61 262.535 229.083 261.479 224.307C260.422 219.534 257.064 199.745 254.237 193.563C252.632 190.001 250.741 186.574 248.582 183.316L245.93 172.711C245.93 172.711 236.042 178.018 230.738 176.246Z" stroke="#222222" stroke-width="0.5" stroke-linecap="round" stroke-linejoin="round"/>
<path d="M268.189 237.208C266.513 233.238 263.527 230.059 262.058 226.223C261.803 226.979 261.359 227.659 260.773 228.2C258.826 229.789 255.824 225.547 255.824 225.547C255.824 225.547 254.237 228.908 255.293 231.378C256.349 233.849 259.359 235.621 259.89 237.916C260.423 240.211 263.6 245.693 266.07 245.335C268.539 244.977 270.136 241.808 268.189 237.208Z" fill="#222222" stroke="#222222" stroke-width="0.5" stroke-linecap="round" stroke-linejoin="round"/>
<path d="M259.89 237.916C260.113 238.745 260.434 239.544 260.843 240.299C260.748 240.098 260.666 239.891 260.598 239.678C259.707 236.852 259.184 233.323 257.238 231.544C256.288 230.607 255.533 229.489 255.023 228.255C254.828 229.299 254.921 230.376 255.293 231.371C256.357 233.856 259.374 235.62 259.89 237.916Z" fill="white" stroke="#222222" stroke-width="0.5" stroke-linecap="round" stroke-linejoin="round"/>
<path d="M268.904 239.481C268.69 240.966 268.252 242.658 267.316 243.573C265.671 245.216 262.639 243.317 261.208 240.974C262.488 243.247 264.442 245.574 266.077 245.335C268.109 245.05 269.547 242.826 268.904 239.481Z" fill="white" stroke="#222222" stroke-width="0.5" stroke-linecap="round" stroke-linejoin="round"/>
<path d="M237.631 120.765C237.631 120.765 237.981 121.115 236.393 122.171C234.804 123.228 230.921 124.118 231.803 125.532C232.684 126.946 233.565 127.653 232.859 128.185C232.152 128.717 231.096 128.717 230.215 129.416C229.334 130.115 226.681 121.647 226.681 121.647C226.681 121.647 233.217 118.438 237.631 120.765Z" fill="white"/>
<path d="M237.631 120.765C237.631 120.765 237.981 121.115 236.393 122.171C234.804 123.228 230.921 124.118 231.803 125.532C232.684 126.946 233.565 127.653 232.859 128.185C232.152 128.717 231.096 128.717 230.215 129.416C229.334 130.115 226.681 121.647 226.681 121.647C226.681 121.647 233.217 118.438 237.631 120.765Z" fill="white"/>
<path opacity="0.25" d="M237.631 120.765C237.631 120.765 237.981 121.115 236.393 122.171C234.804 123.228 230.921 124.118 231.803 125.532C232.684 126.946 233.565 127.653 232.859 128.185C232.152 128.717 231.096 128.717 230.215 129.416C229.334 130.115 226.681 121.647 226.681 121.647C226.681 121.647 233.217 118.438 237.631 120.765Z" fill="#222222"/>
<path d="M237.631 120.765C237.631 120.765 237.981 121.115 236.393 122.171C234.804 123.228 230.921 124.118 231.803 125.532C232.684 126.946 233.565 127.653 232.859 128.185C232.152 128.717 231.096 128.717 230.215 129.416C229.334 130.115 226.681 121.647 226.681 121.647C226.681 121.647 233.217 118.438 237.631 120.765Z" stroke="#222222" stroke-width="0.5" stroke-linecap="round" stroke-linejoin="round"/>
<path d="M197.179 126.596L195.59 135.779C195.59 135.779 189.055 149.919 186.76 157.164C184.465 164.41 181.105 177.128 181.105 177.128C181.105 177.128 183.575 179.074 191 180.306C198.425 181.537 207.756 176.778 207.756 176.778C207.756 176.778 210.584 161.581 211.465 159.635C212.345 157.689 214.815 152.565 214.815 152.565H217.119L223.122 175.897C223.122 175.897 228.594 177.311 231.779 177.835C234.964 178.359 239.721 178.717 243.969 175.714C246.722 173.621 249.009 170.974 250.678 167.945C250.678 167.945 243.969 152.057 240.959 145.503C237.949 138.949 231.071 127.827 231.071 127.827L228.952 120.582L197.179 126.596Z" fill="#222222" stroke="#222222" stroke-width="0.5" stroke-linecap="round" stroke-linejoin="round"/>
<path d="M197.537 139.314L204.953 146.384" stroke="white" stroke-width="0.5" stroke-linecap="round" stroke-linejoin="round"/>
<path d="M206.55 148.665L207.781 149.562" stroke="white" stroke-width="0.5" stroke-linecap="round" stroke-linejoin="round"/>
<path d="M197.71 142.143L205.143 147.624" stroke="white" stroke-width="0.5" stroke-linecap="round" stroke-linejoin="round"/>
<path d="M203.992 176.429C205.048 176.037 206.078 175.575 207.073 175.047" stroke="white" stroke-width="0.5" stroke-linecap="round" stroke-linejoin="round"/>
<path d="M183.051 175.714C188.348 177.919 194.167 178.556 199.815 177.549" stroke="white" stroke-width="0.5" stroke-linecap="round" stroke-linejoin="round"/>
<path d="M223.854 174.125C223.854 174.125 236.042 181.902 249.266 167.055" stroke="white" stroke-width="0.5" stroke-linecap="round" stroke-linejoin="round"/>
<path d="M233.217 134.19L229.682 140.903" stroke="white" stroke-width="0.5" stroke-linecap="round" stroke-linejoin="round"/>
<path d="M204.421 131.895C210.981 132.558 217.594 131.331 223.48 128.359" stroke="white" stroke-width="0.5" stroke-linecap="round" stroke-linejoin="round"/>
<path d="M230.119 124.506L228.976 120.582L197.211 126.596L196.924 128.232C202.12 129.751 207.589 130.096 212.934 129.241C218.818 128.296 224.58 126.708 230.119 124.506Z" fill="white"/>
<path d="M230.119 124.506L228.976 120.582L197.211 126.596L196.924 128.232C202.12 129.751 207.589 130.096 212.934 129.241C218.818 128.296 224.58 126.708 230.119 124.506Z" fill="#949494" stroke="#222222" stroke-width="0.5" stroke-linecap="round" stroke-linejoin="round"/>
<path d="M230.119 124.506L228.976 120.582L197.211 126.596L196.924 128.232C202.12 129.751 207.589 130.096 212.934 129.241C218.818 128.296 224.58 126.708 230.119 124.506Z" stroke="#222222" stroke-width="0.5" stroke-linecap="round" stroke-linejoin="round"/>
<path d="M247.573 56.6169C245.834 50.317 243.533 44.186 240.697 38.2979C238.546 33.7141 236.409 27.9707 233.088 24.1018C230.969 21.6313 227.078 19.685 226.195 20.0425C225.314 20.4 221.431 21.9808 221.431 24.1018C221.431 26.2229 222.845 26.2229 222.845 26.2229C222.845 26.2229 222.487 28.8762 223.552 29.9328C224.616 30.9894 230.088 30.6399 230.088 30.6399C231.064 32.0773 231.878 33.6202 232.509 35.2395C233.565 38.7666 234.502 39.4735 235.21 45.8368C235.908 50.8998 236.91 55.9163 238.21 60.859C237.531 61.2778 236.931 61.8161 236.441 62.4479C235.385 63.687 228.674 70.3918 228.674 70.3918C226.734 71.3126 224.722 72.0802 222.662 72.6876C220.854 73.2501 219.105 73.9844 217.438 74.8802C216.348 74.7531 215.253 74.6339 214.665 74.6339C213.426 74.6339 204.778 76.2228 204.778 76.2228C202.78 75.0335 200.647 74.0843 198.425 73.3947C196.365 72.7871 194.355 72.0195 192.414 71.0989C192.414 71.0989 185.704 64.3861 184.648 63.1547C184.157 62.5231 183.558 61.9849 182.877 61.566C184.177 56.6232 185.18 51.6068 185.878 46.5439C186.45 41.412 187.927 35.581 191.008 31.3468C191.008 31.3468 196.48 31.7043 197.544 30.6399C198.608 29.5753 198.243 26.9299 198.243 26.9299C198.243 26.9299 199.656 26.9299 199.656 24.8089C199.656 22.6879 195.773 21.099 194.892 20.7495C194.01 20.4 190.127 22.3384 187.999 24.8089C185.871 27.2795 186.061 29.758 183.941 33.2932C181.821 36.8282 174.411 53.9477 173.514 57.324C172.617 60.7 171.576 62.6226 171.751 64.2194C171.926 65.8161 180.407 74.9914 182.527 77.47C184.648 79.9486 192.772 88.4249 192.772 88.4249C192.772 88.4249 195.773 103.264 196.654 108.571C197.537 113.878 197.012 128.534 197.012 128.534C197.012 128.534 206.725 126.413 215.912 125.357C225.1 124.3 235.161 120.765 236.4 120.765H237.639C237.639 120.765 230.747 112.281 230.747 111.041C230.747 110.056 230.976 92.0553 231.064 84.8262C233.629 82.1251 237.259 78.2803 238.568 76.7471C240.689 74.2685 249.169 65.0852 249.344 63.4964C249.52 61.9075 248.456 59.9771 247.573 56.6169Z" fill="white"/>
<path d="M247.573 56.6169C245.834 50.317 243.533 44.186 240.697 38.2979C238.546 33.7141 236.409 27.9707 233.088 24.1018C230.969 21.6313 227.078 19.685 226.195 20.0425C225.314 20.4 221.431 21.9808 221.431 24.1018C221.431 26.2229 222.845 26.2229 222.845 26.2229C222.845 26.2229 222.487 28.8762 223.552 29.9328C224.616 30.9894 230.088 30.6399 230.088 30.6399C231.064 32.0773 231.878 33.6202 232.509 35.2395C233.565 38.7666 234.502 39.4735 235.21 45.8368C235.908 50.8998 236.91 55.9163 238.21 60.859C237.531 61.2778 236.931 61.8161 236.441 62.4479C235.385 63.687 228.674 70.3918 228.674 70.3918C226.734 71.3126 224.722 72.0802 222.662 72.6876C220.854 73.2501 219.105 73.9844 217.438 74.8802C216.348 74.7531 215.253 74.6339 214.665 74.6339C213.426 74.6339 204.778 76.2228 204.778 76.2228C202.78 75.0335 200.647 74.0843 198.425 73.3947C196.365 72.7871 194.355 72.0195 192.414 71.0989C192.414 71.0989 185.704 64.3861 184.648 63.1547C184.157 62.5231 183.558 61.9849 182.877 61.566C184.177 56.6232 185.18 51.6068 185.878 46.5439C186.45 41.412 187.927 35.581 191.008 31.3468C191.008 31.3468 196.48 31.7043 197.544 30.6399C198.608 29.5753 198.243 26.9299 198.243 26.9299C198.243 26.9299 199.656 26.9299 199.656 24.8089C199.656 22.6879 195.773 21.099 194.892 20.7495C194.01 20.4 190.127 22.3384 187.999 24.8089C185.871 27.2795 186.061 29.758 183.941 33.2932C181.821 36.8282 174.411 53.9477 173.514 57.324C172.617 60.7 171.576 62.6226 171.751 64.2194C171.926 65.8161 180.407 74.9914 182.527 77.47C184.648 79.9486 192.772 88.4249 192.772 88.4249C192.772 88.4249 195.773 103.264 196.654 108.571C197.537 113.878 197.012 128.534 197.012 128.534C197.012 128.534 206.725 126.413 215.912 125.357C225.1 124.3 235.161 120.765 236.4 120.765H237.639C237.639 120.765 230.747 112.281 230.747 111.041C230.747 110.056 230.976 92.0553 231.064 84.8262C233.629 82.1251 237.259 78.2803 238.568 76.7471C240.689 74.2685 249.169 65.0852 249.344 63.4964C249.52 61.9075 248.456 59.9771 247.573 56.6169Z" fill="white" stroke="#222222" stroke-width="0.5" stroke-linecap="round" stroke-linejoin="round"/>
<path opacity="0.25" d="M197.71 112.082C197.179 109.604 196.472 95.2883 195.591 90.6968C194.709 86.105 192.589 84.3415 191.35 82.3952C190.111 80.449 186.585 77.6287 182.162 72.8623C177.739 68.096 173.689 64.0365 174.403 60.5013C174.888 58.0466 179.652 44.224 182.511 36.0337C179.549 42.111 174.252 54.5195 173.514 57.3237C172.632 60.6841 171.576 62.6226 171.751 64.2193C171.926 65.816 180.407 74.9914 182.527 77.4699C184.647 79.9485 192.771 88.4248 192.771 88.4248C192.771 88.4248 195.773 103.264 196.654 108.571C197.01 111.411 197.177 114.272 197.155 117.135C197.6 114.87 197.885 112.876 197.71 112.082Z" fill="#222222"/>
<path opacity="0.25" d="M246.668 62.6228C246.668 65.276 233.772 74.8169 230.786 79.766C227.801 84.7151 228.665 96.9092 228.665 101.85C228.723 103.857 228.665 105.864 228.492 107.864L230.794 110.66C230.794 107.832 231.015 91.5947 231.103 84.8422C233.669 82.1412 237.298 78.2963 238.609 76.7631C240.728 74.2846 249.21 65.1012 249.385 63.5125C249.559 61.9236 248.503 59.9773 247.622 56.6171C245.882 50.3172 243.58 44.1862 240.745 38.2981C238.592 33.7143 236.456 27.9709 233.137 24.1021C233.137 24.1021 238.736 37.7102 242.094 46.7188C245.454 55.7272 246.668 59.9773 246.668 62.6228Z" fill="#222222"/>
<path d="M247.573 56.6169C245.834 50.317 243.533 44.186 240.697 38.2979C238.546 33.7141 236.409 27.9707 233.088 24.1018C230.969 21.6313 227.078 19.685 226.195 20.0425C225.314 20.4 221.431 21.9808 221.431 24.1018C221.431 26.2229 222.845 26.2229 222.845 26.2229C222.845 26.2229 222.487 28.8762 223.552 29.9328C224.616 30.9894 230.088 30.6399 230.088 30.6399C231.064 32.0773 231.878 33.6202 232.509 35.2395C233.565 38.7666 234.502 39.4735 235.21 45.8368C235.908 50.8998 236.91 55.9163 238.21 60.859C237.531 61.2778 236.931 61.8161 236.441 62.4479C235.385 63.6871 228.674 70.3918 228.674 70.3918C226.734 71.3126 224.722 72.0802 222.662 72.6876C220.854 73.2501 219.105 73.9844 217.438 74.8802C216.348 74.7531 215.253 74.6339 214.665 74.6339C213.426 74.6339 204.778 76.2228 204.778 76.2228C202.78 75.0335 200.647 74.0843 198.425 73.3947C196.365 72.7871 194.355 72.0195 192.414 71.0989C192.414 71.0989 185.704 64.3861 184.648 63.1547C184.157 62.5231 183.558 61.9849 182.877 61.566C184.177 56.6232 185.18 51.6068 185.878 46.5439C186.45 41.412 187.927 35.581 191.008 31.3468C191.008 31.3468 196.48 31.7043 197.544 30.6399C198.608 29.5753 198.243 26.9299 198.243 26.9299C198.243 26.9299 199.656 26.9299 199.656 24.8089C199.656 22.6879 195.773 21.099 194.892 20.7495C194.01 20.4 190.127 22.3384 187.999 24.8089C185.871 27.2795 186.061 29.758 183.941 33.2932C181.821 36.8282 174.411 53.9477 173.514 57.324C172.617 60.7 171.576 62.6226 171.751 64.2194C171.926 65.8161 180.407 74.9914 182.527 77.47C184.648 79.9486 192.772 88.4249 192.772 88.4249C192.772 88.4249 195.773 103.264 196.654 108.571C197.537 113.878 197.012 128.534 197.012 128.534C197.012 128.534 206.725 126.413 215.912 125.357C225.1 124.3 235.161 120.765 236.4 120.765H237.639C237.639 120.765 230.747 112.281 230.747 111.041C230.747 110.056 230.976 92.0553 231.064 84.8262C233.629 82.1251 237.259 78.2803 238.568 76.7471C240.689 74.2685 249.169 65.0852 249.344 63.4964C249.52 61.9075 248.456 59.9771 247.573 56.6169Z" stroke="#222222" stroke-width="0.5" stroke-linecap="round" stroke-linejoin="round"/>
<path d="M198.228 26.9299C198.228 26.9299 193.812 23.2202 193.462 24.8089C193.113 26.3976 196.115 28.5188 196.115 28.5188" stroke="#222222" stroke-width="0.5" stroke-linecap="round" stroke-linejoin="round"/>
<path d="M192.231 26.5806C192.279 27.0445 192.234 27.5131 192.099 27.9595C191.965 28.4061 191.744 28.8216 191.449 29.1825C191.154 29.5434 190.791 29.8424 190.38 30.0626C189.969 30.2827 189.519 30.4196 189.055 30.4653" stroke="#222222" stroke-width="0.5" stroke-linecap="round" stroke-linejoin="round"/>
<path d="M194.709 27.4624L191.175 25.6909L191.35 24.4596L192.406 23.9272" stroke="#222222" stroke-width="0.5" stroke-linecap="round" stroke-linejoin="round"/>
<path d="M195.05 21.8855C195.227 22.8646 195.336 23.8547 195.376 24.8487" stroke="#222222" stroke-width="0.5" stroke-linecap="round" stroke-linejoin="round"/>
<path d="M197.019 22.3779C197.215 23.5774 197.215 24.8008 197.019 26.0003" stroke="#222222" stroke-width="0.5" stroke-linecap="round" stroke-linejoin="round"/>
<path d="M198.831 23.2041C198.91 23.7554 198.844 24.3177 198.643 24.8366C198.442 25.3557 198.109 25.8138 197.678 26.1673" stroke="#222222" stroke-width="0.5" stroke-linecap="round" stroke-linejoin="round"/>
<path d="M222.845 26.2229C222.845 26.2229 228.976 24.6342 228.093 26.3977C227.212 28.1614 224.385 28.7015 224.385 28.7015" stroke="#222222" stroke-width="0.5" stroke-linecap="round" stroke-linejoin="round"/>
<path d="M231.803 28.8761C231.032 28.265 230.201 27.7327 229.324 27.2874C228.443 26.9299 228.268 25.6985 228.268 25.6985C228.268 25.6985 230.214 25.349 230.214 24.4671C230.214 23.5855 228.801 22.8784 228.801 22.8784L228.618 23.7681" stroke="#222222" stroke-width="0.5" stroke-linecap="round" stroke-linejoin="round"/>
<path d="M226.315 21.52C226.315 21.52 225.616 25.0233 228.268 25.6589" stroke="#222222" stroke-width="0.5" stroke-linecap="round" stroke-linejoin="round"/>
<path d="M224.338 21.7188C224.338 21.7188 223.845 24.3563 225.489 25.6909" stroke="#222222" stroke-width="0.5" stroke-linecap="round" stroke-linejoin="round"/>
<path d="M222.844 22.7119C222.844 22.7119 222.345 25.0155 223.496 25.8338" stroke="#222222" stroke-width="0.5" stroke-linecap="round" stroke-linejoin="round"/>
<path d="M215.905 125.357C225.093 124.292 235.154 120.765 236.393 120.765H237.631C237.631 120.765 230.738 112.281 230.738 111.042C230.738 110.057 230.969 92.0553 231.057 84.8263L235.027 80.608C233.081 80.028 230.976 79.0191 230.198 77.2793C229.229 75.1266 229.699 71.4008 230.198 68.811L228.611 70.3999C226.668 71.3205 224.659 72.0882 222.599 72.6957C220.79 73.2582 219.041 73.9923 217.373 74.8883C216.285 74.7611 215.19 74.642 214.601 74.642C213.363 74.642 204.715 76.2307 204.715 76.2307C202.717 75.0415 200.584 74.0922 198.362 73.4026C196.302 72.7952 194.292 72.0276 192.351 71.1068L192.097 70.8527C192.469 73.7499 192.554 76.6771 192.351 79.5911C192.017 82.2048 189.921 83.4281 188.467 83.9683C190.731 86.3514 192.708 88.425 192.708 88.425C192.708 88.425 195.71 103.264 196.591 108.571C197.474 113.878 196.948 128.534 196.948 128.534C196.948 128.534 206.717 126.382 215.905 125.357Z" fill="white" stroke="#222222" stroke-width="0.5" stroke-linecap="round" stroke-linejoin="round"/>
<path d="M212.061 92.5081C211.336 91.7285 210.673 90.8946 210.075 90.0137" stroke="#222222" stroke-width="0.5" stroke-linecap="round" stroke-linejoin="round"/>
<path d="M230.738 111.042C227.326 106.995 223.61 103.216 219.621 99.7372C217.579 97.9976 215.937 96.4882 214.633 95.2012" stroke="#222222" stroke-width="0.5" stroke-linecap="round" stroke-linejoin="round"/>
<path d="M201.189 68.1755C201.189 68.1755 200.228 66.2451 198.14 62.3922C196.051 58.5394 197.815 51.8029 205.684 49.2289C213.555 46.6551 218.526 51.477 219.645 54.6865C220.764 57.8958 219.803 61.431 219.161 63.3615C218.779 64.5004 218.567 65.6884 218.526 66.8886C218.11 66.3912 217.624 65.9598 217.08 65.6096C215.952 64.8153 214.029 56.2913 211.457 55.6558C208.883 55.0202 203.437 56.4739 202.992 60.446C202.547 64.4181 202.476 70.5825 201.189 68.1755Z" fill="#222222" stroke="#222222" stroke-width="0.5" stroke-linecap="round" stroke-linejoin="round"/>
<path d="M217.881 66.245C217.881 66.245 218.842 63.5203 220.129 64.8072C221.416 66.0941 220.765 68.7791 219.962 69.9389C219.161 71.0989 218.526 70.4235 218.041 69.1447C217.755 68.2051 217.701 67.2101 217.881 66.245Z" fill="white"/>
<path d="M217.881 66.245C217.881 66.245 218.842 63.5203 220.129 64.8072C221.416 66.0941 220.765 68.7791 219.962 69.9389C219.161 71.0989 218.526 70.4235 218.041 69.1447C217.755 68.2051 217.701 67.2101 217.881 66.245Z" fill="#D9D9D9" stroke="#222222" stroke-width="0.5" stroke-linecap="round" stroke-linejoin="round"/>
<path d="M217.881 66.245C217.881 66.245 218.842 63.5203 220.129 64.8072C221.416 66.0941 220.765 68.7791 219.962 69.9389C219.161 71.0989 218.526 70.4235 218.041 69.1447C217.755 68.2051 217.701 67.2101 217.881 66.245Z" stroke="#222222" stroke-width="0.5" stroke-linecap="round" stroke-linejoin="round"/>
<path d="M201.919 67.8338C201.919 67.8338 200.26 65.4504 199.371 67.0393C198.481 68.6281 199.831 71.0828 200.912 71.9408C201.992 72.7987 202.428 72.0203 202.547 70.6539C202.567 69.6772 202.351 68.71 201.919 67.8338Z" fill="white"/>
<path d="M201.919 67.8338C201.919 67.8338 200.26 65.4504 199.371 67.0393C198.481 68.6281 199.831 71.0828 200.912 71.9408C201.992 72.7987 202.428 72.0203 202.547 70.6539C202.567 69.6772 202.351 68.71 201.919 67.8338Z" fill="#D9D9D9" stroke="#222222" stroke-width="0.5" stroke-linecap="round" stroke-linejoin="round"/>
<path d="M201.919 67.8338C201.919 67.8338 200.26 65.4504 199.371 67.0393C198.481 68.6281 199.831 71.0828 200.912 71.9408C201.992 72.7987 202.428 72.0203 202.547 70.6539C202.567 69.6772 202.351 68.71 201.919 67.8338Z" stroke="#222222" stroke-width="0.5" stroke-linecap="round" stroke-linejoin="round"/>
<path d="M204.08 75.3963C204.007 77.7076 204.168 80.0203 204.557 82.2997C204.9 84.3636 205.384 86.402 206.002 88.4008L211.783 82.9433L219.001 86.7961C219.001 86.7961 220.129 79.4161 217.881 76.1988C215.635 72.9815 208.248 72.6716 206.328 73.8154C205.494 74.2091 204.732 74.7439 204.08 75.3963Z" fill="white" stroke="#222222" stroke-width="0.5" stroke-linecap="round" stroke-linejoin="round"/>
<path d="M206.168 77.0093C206.168 77.0093 210.346 87.9243 212.594 87.122C214.84 86.3197 215.484 76.6836 215.484 76.6836C215.484 76.6836 208.55 78.1294 206.168 77.0093Z" fill="white"/>
<path d="M206.168 77.0093C206.168 77.0093 210.346 87.9243 212.594 87.122C214.84 86.3197 215.484 76.6836 215.484 76.6836C215.484 76.6836 208.55 78.1294 206.168 77.0093Z" fill="#D9D9D9" stroke="#222222" stroke-width="0.5" stroke-linecap="round" stroke-linejoin="round"/>
<path opacity="0.25" d="M206.168 77.0093C206.168 77.0093 210.346 87.9243 212.594 87.122C214.84 86.3197 215.484 76.6836 215.484 76.6836C215.484 76.6836 208.55 78.1294 206.168 77.0093Z" fill="#222222"/>
<path d="M206.168 77.0093C206.168 77.0093 210.346 87.9243 212.594 87.122C214.84 86.3197 215.484 76.6836 215.484 76.6836C215.484 76.6836 208.55 78.1294 206.168 77.0093Z" stroke="#222222" stroke-width="0.5" stroke-linecap="round" stroke-linejoin="round"/>
<path d="M200.705 63.5204C200.705 63.5204 201.498 70.5825 202.476 73.792C203.452 77.0013 207.16 79.9168 212.131 79.1145C217.102 78.3121 218.874 71.0671 218.874 70.5825C218.874 70.0979 218.557 61.431 216.627 58.2215C214.698 55.0122 211.012 51.9617 205.875 54.3687C200.737 56.7759 200.228 61.7567 200.705 63.5204Z" fill="white"/>
<path d="M200.705 63.5204C200.705 63.5204 201.498 70.5825 202.476 73.792C203.452 77.0013 207.16 79.9168 212.131 79.1145C217.102 78.3121 218.874 71.0671 218.874 70.5825C218.874 70.0979 218.557 61.431 216.627 58.2215C214.698 55.0122 211.012 51.9617 205.875 54.3687C200.737 56.7759 200.228 61.7567 200.705 63.5204Z" fill="white" stroke="#222222" stroke-width="0.5" stroke-linecap="round" stroke-linejoin="round"/>
<path opacity="0.25" d="M218.874 70.5823C218.874 70.0977 218.557 61.4308 216.628 58.2215C216.244 57.5791 215.803 56.9728 215.309 56.4102C215.776 58.4121 218.207 69.1922 216.285 72.8703C214.165 76.9376 209.574 77.2951 205.335 75.1741C202.158 73.5852 201.284 64.3621 201.022 59.6832C200.586 60.9134 200.487 62.2385 200.737 63.5202C200.737 63.5202 201.53 70.5823 202.508 73.7918C203.484 77.0011 207.192 79.9166 212.163 79.1143C217.134 78.3119 218.874 71.0669 218.874 70.5823Z" fill="#222222"/>
<path d="M200.705 63.5204C200.705 63.5204 201.498 70.5825 202.476 73.792C203.452 77.0013 207.16 79.9168 212.131 79.1145C217.102 78.3121 218.874 71.0671 218.874 70.5825C218.874 70.0979 218.557 61.431 216.627 58.2215C214.698 55.0122 211.012 51.9617 205.875 54.3687C200.737 56.7759 200.228 61.7567 200.705 63.5204Z" stroke="#222222" stroke-width="0.5" stroke-linecap="round" stroke-linejoin="round"/>
<path d="M205.27 67.6511C206.678 68.0632 208.17 68.0988 209.595 67.7545C211.02 67.4102 212.331 66.6981 213.394 65.689C214.11 65.9273 213.839 70.2409 209.893 70.8684C208.857 71.0284 207.799 70.7836 206.939 70.1846C206.078 69.5856 205.48 68.6784 205.27 67.6511Z" fill="white" stroke="#222222" stroke-width="0.5" stroke-linecap="round" stroke-linejoin="round"/>
<path d="M207.55 63.8302C207.55 63.8302 206.565 65.2045 207.058 65.6891C207.55 66.1737 209.504 66.2769 210.489 65.2045C211.472 64.132 209.9 63.147 209.9 63.147" stroke="#222222" stroke-width="0.5" stroke-linecap="round" stroke-linejoin="round"/>
<path d="M203.786 64.4815C203.786 64.4815 204.27 62.8926 206.835 62.8926" stroke="#222222" stroke-width="0.5" stroke-linecap="round" stroke-linejoin="round"/>
<path d="M211.299 62.2332C211.768 61.7154 212.409 61.3862 213.104 61.3072C213.798 61.2284 214.497 61.405 215.07 61.8043" stroke="#222222" stroke-width="0.5" stroke-linecap="round" stroke-linejoin="round"/>
<path d="M206.487 59.6515C206.487 59.6515 202.817 58.9208 202.365 62.2493" stroke="#222222" stroke-width="0.5" stroke-linecap="round" stroke-linejoin="round"/>
<path d="M210.377 59.2385C210.377 59.2385 212.966 57.1413 215.372 59.3895" stroke="#222222" stroke-width="0.5" stroke-linecap="round" stroke-linejoin="round"/>
<path d="M119.22 62.6227C119.22 62.6227 119.22 58.8809 115.194 56.1482C111.167 53.4155 101.519 54.9964 97.9214 59.604C94.324 64.2114 94.0301 67.548 89.861 68.819C85.6918 70.0901 76.1861 71.5676 69.5791 78.4629C62.972 85.3585 65.8388 99.483 68.8644 100.635C71.8899 101.787 68.1418 99.6259 68.5705 95.8685C68.6491 94.832 69.0136 93.8376 69.6234 92.9962C70.2334 92.1546 71.0646 91.499 72.0249 91.1019C72.0249 91.1019 68.1418 97.2905 76.345 105.354C84.5482 113.417 93.6172 111.55 101.249 109.961C108.88 108.372 118.227 102.764 118.95 96.1386C119.672 89.5132 117.218 85.7716 118.95 82.7529C120.681 79.734 127.01 80.1551 127.876 74.4037C128.741 68.6521 126.414 61.0418 119.22 62.6227Z" fill="#222222" stroke="#222222" stroke-width="0.5" stroke-linecap="round" stroke-linejoin="round"/>
<path d="M146.943 165.506C146.943 165.506 150.961 160.422 152.501 160.255C154.042 160.088 156.329 163.584 157.33 166.253C158.33 168.922 160.657 174.403 160.657 177.072C160.657 181.736 158.656 183.229 157.83 182.395C157.004 181.561 154.828 176.405 153.669 175.404C152.93 174.787 152.07 174.332 151.144 174.07C151.144 174.07 148.586 167.595 146.943 165.506Z" fill="white" stroke="#222222" stroke-width="0.5" stroke-linecap="round" stroke-linejoin="round"/>
<path d="M151.016 161.526C151.016 161.526 155.884 166.396 157.615 171.059C159.347 175.722 159.879 180.274 158.314 182.18" stroke="#222222" stroke-width="0.5" stroke-linecap="round" stroke-linejoin="round"/>
<path d="M137.985 201.549C137.985 201.549 142.805 201.882 144.473 202.048C146.14 202.216 146.14 206.21 145.473 209.039C144.806 211.867 143.972 213.702 144.679 216.864C145.386 220.026 143.512 223.521 142.511 225.023C141.511 226.525 139.335 226.191 139.184 225.023C139.033 223.855 139.684 217.032 137.357 213.201C135.031 209.372 135.316 204.234 137.985 201.549Z" fill="white" stroke="#222222" stroke-width="0.5" stroke-linecap="round" stroke-linejoin="round"/>
<path d="M142.503 201.851C143.519 203.704 143.886 205.847 143.544 207.936C143.02 211.582 143.719 217.324 143.719 218.714C143.719 220.106 141.805 225.49 141.114 225.666" stroke="#222222" stroke-width="0.5" stroke-linecap="round" stroke-linejoin="round"/>
<path d="M159.807 30.2587C158.942 30.2587 155.487 31.1247 155.201 32.1336C154.916 33.1425 154.487 42.9295 154.487 42.9295C154.487 42.9295 148.436 54.4484 146.426 58.77C144.417 63.0914 139.081 73.4584 139.081 73.4584L125.7 87.424C125.7 87.424 123.683 88.4329 120.228 90.4429C119.903 90.6335 119.561 90.8479 119.22 91.0624L112.867 92.4607L107.419 91.4279C104.835 89.4127 102.144 87.5378 99.3586 85.8114C95.9042 83.8016 93.8871 82.7927 93.8871 82.7927L80.5061 68.827C80.5061 68.827 75.1774 58.4998 73.1603 54.1385C71.1432 49.7772 65.1001 38.2981 65.1001 38.2981C65.1001 38.2981 64.6712 28.5111 64.3853 27.5022C64.0994 26.4933 60.637 25.6274 59.7795 25.6274C58.9218 25.6274 57.3335 30.2349 57.9052 31.2438C58.477 32.2527 60.0494 32.2448 60.0494 32.2448C59.9762 33.3955 59.9762 34.5498 60.0494 35.7005C60.1924 36.4234 62.3524 37.8612 62.3524 37.8612C62.3524 37.8612 65.378 50.3889 67.3871 59.0241C69.3962 67.6593 71.9931 73.4266 73.1445 74.4355C74.2961 75.4444 85.6678 86.9554 87.9708 90.8479C89.8292 93.7284 92.0028 96.3929 94.4508 98.7919C94.4508 98.7919 93.1564 105.147 93.1564 108.579C93.1564 112.011 96.6108 119.375 97.7624 122.688C98.9138 126 100.351 141.404 100.351 141.841C100.351 142.278 101.066 151.771 101.066 151.771C101.066 151.771 93.2994 168.763 90.8534 180.854C88.4076 192.945 89.5511 199.865 95.1655 202.454C100.78 205.044 126.256 208.642 126.978 209.508C127.701 210.375 128.273 210.947 129.281 210.947C130.29 210.947 131.584 210.375 132.458 210.947C133.331 211.519 133.315 211.955 134.324 211.955C134.806 212.02 135.265 212.197 135.665 212.473C136.066 212.75 136.395 213.116 136.627 213.544C136.913 214.116 138.644 212.963 139.216 208.642C139.787 204.321 138.93 202.287 138.064 202.168C137.199 202.048 137.349 200.578 135.912 200.578C134.366 200.677 132.828 200.871 131.306 201.16C130.556 200.932 129.784 200.789 129.003 200.729C128.138 200.729 127.129 200.006 126.549 199.865C125.97 199.721 116.48 195.829 116.48 195.829L116.115 195.637C125.724 190.156 139.351 180.457 139.351 180.457C139.351 180.457 143.266 180.21 144.981 178.741C146.144 177.701 147.207 176.554 148.157 175.317L151.096 174.094C151.059 172.17 150.463 170.298 149.38 168.708C147.673 166.507 146.935 165.53 146.935 165.53C146.935 165.53 142.289 167.73 140.82 168.223C139.351 168.715 137.151 168.954 135.928 170.177C134.705 171.401 131.529 173.847 131.529 173.847L120.768 179.472C120.768 179.472 134.467 161.86 136.174 154.519C137.643 148.228 135.38 141.277 131.632 136.201C128.797 132.387 124.818 129.48 121.8 125.786C120.355 124.03 119.251 122.727 119.355 121.973C119.521 120.805 120.887 114.926 122.126 109.922L125.986 102.518C126.938 101.525 131.195 96.1626 131.592 95.4794C133.895 91.5867 145.267 80.0678 146.418 79.0589C147.57 78.05 150.159 72.2986 152.176 63.6556C154.193 55.0124 157.211 42.4926 157.211 42.4926C157.211 42.4926 159.37 41.0546 159.514 40.3317C159.587 39.181 159.587 38.0268 159.514 36.8761C159.514 36.8761 161.102 36.8761 161.673 35.8672C162.245 34.8583 160.673 30.2587 159.807 30.2587Z" fill="white" stroke="#222222" stroke-width="0.5" stroke-linecap="round" stroke-linejoin="round"/>
<path d="M146.943 165.506C146.943 165.506 142.297 167.706 140.828 168.199C139.359 168.691 137.159 168.93 135.936 170.153C134.713 171.377 131.536 173.823 131.536 173.823L120.776 179.448C120.776 179.448 134.475 161.836 136.182 154.495C137.651 148.204 135.388 141.253 131.64 136.177C130.211 134.342 128.633 132.628 126.923 131.053C123.917 133.676 120.652 135.986 117.179 137.948C112.1 140.927 106.195 142.186 100.343 141.539C100.343 141.69 100.343 141.785 100.343 141.817C100.343 142.246 101.058 151.747 101.058 151.747C101.058 151.747 93.2915 168.739 90.8457 180.83C88.3996 192.921 89.5432 199.84 95.1577 202.43C100.772 205.02 126.248 208.618 126.97 209.484C127.693 210.351 128.265 210.923 129.273 210.923C130.282 210.923 131.576 210.351 132.45 210.923C133.323 211.495 133.307 211.931 134.316 211.931C134.798 211.996 135.257 212.173 135.657 212.45C136.058 212.726 136.387 213.093 136.619 213.52C136.905 214.092 138.636 212.94 139.208 208.618C139.78 204.297 138.922 202.263 138.056 202.143C137.191 202.024 137.342 200.556 135.904 200.556C134.359 200.653 132.82 200.847 131.298 201.135C130.548 200.91 129.776 200.765 128.995 200.707C128.13 200.707 127.121 199.984 126.541 199.84C125.962 199.697 116.472 195.805 116.472 195.805L116.107 195.613C125.716 190.133 139.343 180.433 139.343 180.433C139.343 180.433 143.258 180.186 144.973 178.717C146.136 177.677 147.199 176.53 148.15 175.293L151.088 174.07C151.051 172.146 150.455 170.274 149.373 168.684C147.681 166.483 146.943 165.506 146.943 165.506Z" fill="#222222" stroke="#222222" stroke-width="0.5" stroke-linecap="round" stroke-linejoin="round"/>
<path d="M110.19 150.762L113.017 152.096C113.017 152.096 101.201 180.568 99.5175 188.726C97.8339 196.885 99.8509 200.88 103.012 200.88C106.172 200.88 115.162 196.218 115.162 196.218" stroke="white" stroke-width="0.5" stroke-linecap="round" stroke-linejoin="round"/>
<path d="M120.776 179.448C120.776 179.448 113.685 189.934 111.667 192.388" stroke="white" stroke-width="0.5" stroke-linecap="round" stroke-linejoin="round"/>
<path d="M63.091 29.5118C63.091 29.5118 60.2083 25.4764 59.7796 24.6104C59.3507 23.7445 58.4851 26.1993 59.1998 27.6371C59.6572 28.531 60.2402 29.3549 60.931 30.0838C60.931 30.0838 59.7796 33.5394 61.5028 34.9774" fill="white"/>
<path d="M63.091 29.5118C63.091 29.5118 60.2083 25.4764 59.7796 24.6104C59.3507 23.7445 58.4851 26.1993 59.1998 27.6371C59.6572 28.531 60.2402 29.3549 60.931 30.0838C60.931 30.0838 59.7796 33.5394 61.5028 34.9774" stroke="#222222" stroke-width="0.5" stroke-linecap="round" stroke-linejoin="round"/>
<path d="M155.678 34.9058C155.678 34.9058 158.552 30.8782 158.989 30.0122C159.426 29.1464 160.284 31.6011 159.561 33.0389C159.105 33.9318 158.524 34.7555 157.838 35.4858C157.838 35.4858 158.989 38.9414 157.258 40.3792" fill="white"/>
<path d="M155.678 34.9058C155.678 34.9058 158.552 30.8782 158.989 30.0122C159.426 29.1464 160.284 31.6011 159.561 33.0389C159.105 33.9318 158.524 34.7555 157.838 35.4858C157.838 35.4858 158.989 38.9414 157.258 40.3792" stroke="#222222" stroke-width="0.5" stroke-linecap="round" stroke-linejoin="round"/>
<path d="M94.4669 98.7679C94.4669 98.7679 93.1725 105.123 93.1725 108.555C93.1725 111.987 96.6271 119.351 97.7785 122.664C98.9299 125.976 100.367 141.38 100.367 141.817C100.367 141.936 100.423 142.786 100.51 143.946C105.601 145.368 116.099 145.852 128.614 132.729C126.343 130.417 123.849 128.264 121.809 125.762C120.363 124.006 119.26 122.703 119.363 121.949C119.53 120.781 120.895 114.902 122.134 109.898L125.994 102.494C126.947 101.501 131.203 96.1386 131.6 95.4554C133.903 91.5626 145.275 80.0438 146.426 79.0349C147.578 78.026 150.167 72.2746 152.184 63.6315C152.922 60.4539 153.772 56.7281 154.622 53.3042C152.998 52.9666 151.427 52.4108 149.952 51.6519C148.563 54.3686 147.197 57.0855 146.426 58.7379C144.409 63.0596 139.081 73.4264 139.081 73.4264L125.7 87.3921C125.7 87.3921 123.683 88.401 120.228 90.4108C119.903 90.6014 119.561 90.8161 119.22 91.0305L112.867 92.4286L107.419 91.4278C104.835 89.4124 102.144 87.5376 99.3588 85.8112C95.9044 83.8014 93.8873 82.7925 93.8873 82.7925L80.5063 68.8268C80.5063 68.8268 75.1777 58.4996 73.1606 54.1383C72.2316 52.1524 70.4527 48.6331 68.801 45.3999C67.4097 45.9848 65.989 46.4966 64.5444 46.9331C65.4735 50.794 66.5297 55.2665 67.4032 59.0081C69.4203 67.6511 72.0092 73.4106 73.1606 74.4195C74.3122 75.4284 85.6839 86.9394 87.9869 90.8319C89.8459 93.7096 92.0192 96.3713 94.4669 98.7679Z" fill="white"/>
<path d="M94.8639 83.2848C94.2286 82.9511 93.8872 82.7843 93.8872 82.7843L93.093 81.9502L86.605 88.8933C87.0693 89.4802 87.504 90.09 87.9074 90.7205L94.8639 83.2848Z" fill="#222222"/>
<path d="M88.7887 77.462L87.2561 75.8733L80.1089 81.5215C80.6092 82.0536 81.1174 82.5939 81.6097 83.1102L88.7887 77.462Z" fill="#222222"/>
<path d="M100.351 86.4072L99.3587 85.8033L98.4295 85.2632L90.4883 94.367C90.9807 94.9787 91.465 95.5507 91.9256 96.0671L100.351 86.4072Z" fill="#222222"/>
<path d="M82.412 70.7734L74.1531 75.3492L75.7412 76.9379L83.9525 72.378L82.412 70.7734Z" fill="#222222"/>
<path d="M102.678 87.9482L99.2396 91.7853C99.0825 91.8344 98.9386 91.9187 98.8188 92.0316C98.6676 92.1791 98.5674 92.3712 98.5329 92.5797L93.6887 97.9816C94.1652 98.4742 94.4829 98.776 94.4829 98.776C94.4829 98.776 94.2445 99.9359 93.9746 101.541L94.8561 100.206C97.0081 101.128 102.996 102.788 118.211 102.788C119.768 102.788 121.422 102.769 123.175 102.732C123.334 102.728 123.491 102.691 123.635 102.621C124.176 103.055 124.809 103.359 125.486 103.511L126.01 102.502C126.2 102.303 126.526 101.922 126.923 101.445C126.658 101.462 126.393 101.462 126.129 101.445C123.389 101.112 121.713 95.2727 120.991 90.0218L120.197 90.4587C119.871 90.6493 119.53 90.8637 119.188 91.0782L118.902 91.1419C119.021 91.9362 119.156 92.7306 119.331 93.5251C108.809 96.2339 103.337 94.0335 101.296 92.8022L104.473 89.275C103.925 88.8221 103.313 88.3852 102.678 87.9482ZM110.079 96.9887C113.387 96.9427 116.677 96.4836 119.871 95.6223C120.311 97.3462 120.981 99.003 121.864 100.548C105.474 100.81 98.6996 99.2288 96.2854 98.3868L99.8352 94.4147C101.344 95.3998 104.568 96.9887 110.079 96.9887Z" fill="#222222"/>
<path d="M74.7092 57.3398L67.7129 60.3028C67.9034 61.0496 68.0861 61.7647 68.2767 62.4637L75.6939 59.2861L74.7092 57.3398Z" fill="#222222"/>
<path d="M71.4768 50.6748L65.918 52.7323C66.0847 53.4552 66.2594 54.1703 66.4262 54.8852L72.4537 52.6608L71.4768 50.6748Z" fill="#222222"/>
<path d="M79.0212 65.9113C78.7114 65.3157 78.3779 64.6483 78.0204 63.9492L70.2063 68.533C70.4844 69.2876 70.7542 69.9788 71.0005 70.5983L79.0212 65.9113Z" fill="#222222"/>
<path d="M142.504 66.6899C142.154 67.397 141.805 68.0881 141.471 68.7394C143.639 70.7017 146.133 72.8544 148.722 74.8325C148.991 74.1812 149.262 73.4663 149.516 72.6796C147.03 70.7256 144.6 68.6045 142.504 66.6899Z" fill="#222222"/>
<path d="M119.776 119.907C119.919 119.248 120.093 118.461 120.292 117.603C108.706 119.192 100.185 117.802 95.3564 116.491C95.6978 117.373 96.0394 118.239 96.3728 119.057C100.841 120.092 105.414 120.599 110 120.567C113.269 120.561 116.535 120.341 119.776 119.907Z" fill="#222222"/>
<path d="M145.18 61.3198C147.279 62.8515 149.455 64.2754 151.7 65.5858C151.866 64.9502 152.025 64.2989 152.184 63.6317C152.184 63.5363 152.184 63.433 152.248 63.3377C150.149 62.0947 148.116 60.7452 146.157 59.2942C145.878 59.8979 145.545 60.5811 145.18 61.3198Z" fill="#222222"/>
<path d="M93.1802 108.197C93.1802 108.317 93.1802 108.444 93.1802 108.555C93.1958 109.178 93.2729 109.798 93.4104 110.406C98.1037 110.056 107.816 109.834 121.634 111.995C121.8 111.296 121.975 110.596 122.142 109.913V109.842C107.903 107.578 98.0005 107.816 93.1802 108.197Z" fill="#222222"/>
<path d="M125.882 130.043C125.334 129.519 124.802 128.987 124.294 128.455C116.011 134.015 106.156 136.287 99.9541 137.193C100.041 137.987 100.113 138.782 100.176 139.417C106.657 138.504 117.075 136.129 125.882 130.043Z" fill="#222222"/>
<path d="M98.7866 127.787C98.8898 128.502 98.993 129.257 99.0964 130.028C99.8903 130.028 100.812 130.028 101.765 130.028C108.94 130.1 116.085 129.091 122.96 127.033C122.571 126.604 122.166 126.175 121.808 125.722L121.379 125.206C112.946 127.732 104.123 127.97 98.7866 127.787Z" fill="#222222"/>
<path d="M137.453 75.1186C139.351 77.5018 141.423 79.7978 143.488 81.9427L145.076 80.3537C143.011 78.185 140.907 75.8415 139.017 73.498L137.453 75.1186Z" fill="#222222"/>
<path d="M138.072 87.6384L139.581 86.0495C137.171 84.2044 134.98 82.088 133.053 79.7419L131.513 81.3307C133.458 83.671 135.658 85.7866 138.072 87.6384Z" fill="#222222"/>
<path d="M131.6 95.4554C131.86 95.0214 132.143 94.6024 132.45 94.2001C131.219 91.8805 129.424 88.4327 127.836 85.1519L126.248 86.8518C128.003 90.4505 129.94 94.1286 131.076 96.2338C131.322 95.8524 131.521 95.5744 131.6 95.4554Z" fill="#222222"/>
<path opacity="0.25" d="M154.415 53.2961C151.017 60.7953 144.521 75.1264 143.234 77.9784C141.479 81.8867 127.622 95.9399 125.279 97.3061C122.936 98.6726 121.571 101.993 120.594 105.504C119.665 108.849 116.972 111.486 116.718 115.101C115.384 114.084 112.748 113.234 109.079 112.924C102.051 112.336 95.42 114.1 95.42 107.657C95.42 101.215 99.5177 94.9468 99.7162 93.0084C99.9148 91.0701 96.0076 94.5973 94.054 93.207C92.1004 91.8169 78.8306 76.6119 74.9236 71.7582C72.4379 68.6441 68.0227 55.7588 65.1479 46.8218L64.5444 47.0124C65.4735 50.8732 66.5297 55.3458 67.4032 59.0874C69.4203 67.7304 72.0092 73.4898 73.1606 74.4909C74.3122 75.4918 85.6839 87.0187 87.9869 90.9112C89.8455 93.7916 92.0188 96.4562 94.4669 98.8552C94.4669 98.8552 93.1725 105.21 93.1725 108.642C93.1725 112.074 96.6271 119.438 97.7785 122.751C98.9299 126.064 100.367 141.467 100.367 141.904C100.367 142.023 100.423 142.873 100.51 144.033C101.213 144.227 101.926 144.38 102.646 144.494C102.511 138.456 101.511 125.873 103.226 123.124C105.092 120.137 114.098 120.002 116.726 118.294C116.838 121.481 117.977 124.547 119.974 127.033C121.396 128.9 124.636 131.45 127.741 133.682L128.582 132.824C126.311 130.512 123.818 128.359 121.777 125.857C120.332 124.101 119.228 122.799 119.331 122.044C119.498 120.876 120.864 114.997 122.102 109.993L125.962 102.589C126.915 101.596 131.171 96.2337 131.568 95.5505C133.871 91.6579 145.243 80.1391 146.395 79.1302C147.546 78.1213 150.135 72.3699 152.152 63.7267C152.891 60.549 153.74 56.8233 154.59 53.3995L154.415 53.2961Z" fill="#222222"/>
<path d="M94.4669 98.7679C94.4669 98.7679 93.1725 105.123 93.1725 108.555C93.1725 111.987 96.6271 119.351 97.7785 122.664C98.9299 125.976 100.367 141.38 100.367 141.817C100.367 141.936 100.423 142.786 100.51 143.946C105.601 145.368 116.099 145.852 128.614 132.729C126.343 130.417 123.849 128.264 121.809 125.762C120.363 124.006 119.26 122.703 119.363 121.949C119.53 120.781 120.895 114.902 122.134 109.898L125.994 102.494C126.947 101.501 131.203 96.1386 131.6 95.4554C133.903 91.5626 145.275 80.0438 146.426 79.0349C147.578 78.026 150.167 72.2746 152.184 63.6315C152.922 60.4539 153.772 56.7281 154.622 53.3042C152.998 52.9666 151.427 52.4108 149.952 51.6519C148.563 54.3686 147.197 57.0855 146.426 58.7379C144.409 63.0596 139.081 73.4264 139.081 73.4264L125.7 87.3921C125.7 87.3921 123.683 88.401 120.228 90.4108C119.903 90.6014 119.561 90.8161 119.22 91.0305L112.867 92.4286L107.419 91.4278C104.835 89.4124 102.144 87.5376 99.3588 85.8112C95.9044 83.8014 93.8873 82.7925 93.8873 82.7925L80.5063 68.8268C80.5063 68.8268 75.1777 58.4996 73.1606 54.1383C72.2316 52.1524 70.4527 48.6331 68.801 45.3999C67.4097 45.9848 65.989 46.4966 64.5444 46.9331C65.4735 50.794 66.5297 55.2665 67.4032 59.0081C69.4203 67.6511 72.0092 73.4106 73.1606 74.4195C74.3122 75.4284 85.6839 86.9394 87.9869 90.8319C89.8459 93.7096 92.0192 96.3713 94.4669 98.7679Z" stroke="#222222" stroke-width="0.5" stroke-linecap="round" stroke-linejoin="round"/>
<path d="M105.982 80.187C105.982 80.187 106.125 89.2591 105.402 91.4199C104.679 93.5806 100.637 97.7751 102.384 101.215C104.131 104.655 110.445 100.778 112.708 96.6073C114.971 92.4366 113.867 91.1339 113.867 91.1339V84.7786L105.982 80.187Z" fill="white"/>
<path d="M113.899 84.7944L105.958 80.187C105.958 80.187 106.101 89.2592 105.378 91.4199C105.273 91.7189 105.143 92.0085 104.989 92.2857C106.497 92.7735 108.114 92.8094 109.642 92.3891C111.249 91.712 112.692 90.699 113.875 89.4179L113.899 84.7944Z" fill="white"/>
<path opacity="0.5" d="M113.899 84.7944L105.958 80.187C105.958 80.187 106.101 89.2592 105.378 91.4199C105.273 91.7189 105.143 92.0085 104.989 92.2857C106.497 92.7735 108.114 92.8094 109.642 92.3891C111.249 91.712 112.692 90.699 113.875 89.4179L113.899 84.7944Z" fill="white"/>
<path d="M105.982 80.187C105.982 80.187 106.125 89.2591 105.402 91.4199C104.679 93.5806 100.637 97.7751 102.384 101.215C104.131 104.655 110.445 100.778 112.708 96.6073C114.971 92.4366 113.867 91.1339 113.867 91.1339V84.7786L105.982 80.187Z" stroke="#222222" stroke-width="0.5" stroke-linecap="round" stroke-linejoin="round"/>
<path d="M104.394 74.1416C104.394 74.1416 101.662 71.5518 100.939 73.4266C100.216 75.3015 102.091 78.0342 103.099 78.3202L104.108 78.6062C104.555 80.6584 105.551 82.5503 106.99 84.0796C109.293 86.3834 111.882 87.5352 114.757 86.0974C117.632 84.6596 119.943 81.0529 120.657 76.7393C121.092 74.6078 121.239 72.4275 121.094 70.2569C121.094 69.534 119.799 64.3546 116.051 63.0597C112.303 61.7648 112.74 63.3457 109.865 66.6584C107.875 69.0267 106.047 71.5267 104.394 74.1416Z" fill="white"/>
<path d="M120.307 67.5957C120.546 69.9789 120.943 76.1594 119.228 79.1224C117.083 82.8243 114.931 86.3437 110.643 84.588C106.355 82.8324 104.981 78.336 104.981 78.336C104.981 78.336 103.813 78.5346 102.051 76.9697C101.87 76.8005 101.66 76.6658 101.431 76.5725C101.78 77.3244 102.366 77.9412 103.099 78.3281L104.107 78.6141C104.554 80.6662 105.551 82.5583 106.99 84.0876C109.293 86.3914 111.882 87.5432 114.757 86.1054C117.631 84.6674 119.942 81.0609 120.657 76.7472C121.092 74.6158 121.239 72.4355 121.094 70.2649C120.966 69.3409 120.701 68.4412 120.307 67.5957Z" fill="white"/>
<path opacity="0.5" d="M120.307 67.5957C120.546 69.9789 120.943 76.1594 119.228 79.1224C117.083 82.8243 114.931 86.3437 110.643 84.588C106.355 82.8324 104.981 78.336 104.981 78.336C104.981 78.336 103.813 78.5346 102.051 76.9697C101.87 76.8005 101.66 76.6658 101.431 76.5725C101.78 77.3244 102.366 77.9412 103.099 78.3281L104.107 78.6141C104.554 80.6662 105.551 82.5583 106.99 84.0876C109.293 86.3914 111.882 87.5432 114.757 86.1054C117.631 84.6674 119.942 81.0609 120.657 76.7472C121.092 74.6158 121.239 72.4355 121.094 70.2649C120.966 69.3409 120.701 68.4412 120.307 67.5957Z" fill="white"/>
<path d="M104.394 74.1416C104.394 74.1416 101.662 71.5518 100.939 73.4266C100.216 75.3015 102.091 78.0342 103.099 78.3202L104.108 78.6062C104.555 80.6584 105.551 82.5503 106.99 84.0796C109.293 86.3834 111.882 87.5352 114.757 86.0974C117.632 84.6596 119.943 81.0529 120.657 76.7393C121.092 74.6078 121.239 72.4275 121.094 70.2569C121.094 69.534 119.799 64.3546 116.051 63.0597C112.303 61.7648 112.74 63.3457 109.865 66.6584C107.875 69.0267 106.047 71.5267 104.394 74.1416Z" stroke="#222222" stroke-width="0.5" stroke-linecap="round" stroke-linejoin="round"/>
<path d="M116.345 71.2656C116.345 71.2656 115.336 73.1325 115.765 73.5694C116.194 74.0063 117.639 74.8643 116.917 75.2932C116.235 75.588 115.499 75.7367 114.757 75.7301" stroke="#222222" stroke-width="0.5" stroke-linecap="round" stroke-linejoin="round"/>
<path d="M110.587 76.334C110.587 76.334 112.311 78.3518 117.782 77.6289C117.782 77.6289 114.471 80.9414 113.017 80.9414C111.564 80.9414 110.587 76.334 110.587 76.334Z" stroke="#222222" stroke-width="0.5" stroke-linecap="round" stroke-linejoin="round"/>
<path d="M109.579 71.6949C109.579 71.6949 111.596 70.9799 112.756 72.1319" stroke="#222222" stroke-width="0.5" stroke-linecap="round" stroke-linejoin="round"/>
<path d="M116.774 72.8466C116.774 72.8466 119.077 72.1317 119.506 73.7124" stroke="#222222" stroke-width="0.5" stroke-linecap="round" stroke-linejoin="round"/>
<path d="M109.436 69.2478C109.888 68.7259 110.493 68.3615 111.166 68.2072C111.838 68.0529 112.543 68.1169 113.176 68.3898" stroke="#222222" stroke-width="0.5" stroke-linecap="round" stroke-linejoin="round"/>
<path d="M117.06 69.979C117.06 69.979 118.934 68.2472 120.236 71.4168" stroke="#222222" stroke-width="0.5" stroke-linecap="round" stroke-linejoin="round"/>
</g>
</svg>
