<svg width="318" height="288" viewBox="0 0 318 288" fill="none" xmlns="http://www.w3.org/2000/svg">
<mask id="mask0" mask-type="alpha" maskUnits="userSpaceOnUse" x="0" y="0" width="318" height="288">
<path d="M0 15C0 6.71572 6.71573 0 15 0H303C311.284 0 318 6.71573 318 15V288H0V15Z" fill="#F4F6FA"/>
</mask>
<g mask="url(#mask0)">
<path d="M4.08862 223.227H323.003" stroke="#222222" stroke-width="0.5" stroke-miterlimit="10"/>
<path d="M4.08862 162.921H323.003" stroke="#222222" stroke-width="0.5" stroke-miterlimit="10"/>
<path d="M4.08862 102.606H323.003" stroke="#222222" stroke-width="0.5" stroke-miterlimit="10"/>
<path d="M4.08862 42.291H323.003" stroke="#222222" stroke-width="0.5" stroke-miterlimit="10"/>
<path d="M76.5989 8.04358V223.377" stroke="#222222" stroke-width="0.5" stroke-miterlimit="10"/>
<path d="M268.288 8.04358V223.377" stroke="#222222" stroke-width="0.5" stroke-miterlimit="10"/>
<path d="M83.7122 87.8647L81.3464 90.3623" stroke="#222222" stroke-width="0.5" stroke-miterlimit="10"/>
<path d="M124.138 45.2789L86.5767 84.8536" stroke="#222222" stroke-width="0.5" stroke-miterlimit="10"/>
<path d="M126.48 51.7203L105.377 73.3849" stroke="#222222" stroke-width="0.5" stroke-miterlimit="10"/>
<path d="M276.484 87.8647L274.12 90.3623" stroke="#222222" stroke-width="0.5" stroke-miterlimit="10"/>
<path d="M316.911 45.2789L279.35 84.8536" stroke="#222222" stroke-width="0.5" stroke-miterlimit="10"/>
<path d="M319.253 51.7203L298.151 73.3849" stroke="#222222" stroke-width="0.5" stroke-miterlimit="10"/>
<path d="M39.7265 167.069L2.16577 206.652" stroke="#222222" stroke-width="0.5" stroke-miterlimit="10"/>
<path d="M42.0686 173.511L20.9658 195.176" stroke="#222222" stroke-width="0.5" stroke-miterlimit="10"/>
<path d="M30.374 36.3392L28.0002 38.837" stroke="#222222" stroke-width="0.5" stroke-miterlimit="10"/>
<path d="M70.7914 -6.25439L33.2305 33.3203" stroke="#222222" stroke-width="0.5" stroke-miterlimit="10"/>
<path d="M73.1411 0.187134L52.0383 21.8517" stroke="#222222" stroke-width="0.5" stroke-miterlimit="10"/>
<path d="M206.032 36.3392L203.658 38.837" stroke="#222222" stroke-width="0.5" stroke-miterlimit="10"/>
<path d="M246.449 -6.25439L208.888 33.3203" stroke="#222222" stroke-width="0.5" stroke-miterlimit="10"/>
<path d="M248.8 0.187134L227.696 21.8517" stroke="#222222" stroke-width="0.5" stroke-miterlimit="10"/>
<path d="M151.712 150.519L149.347 153.017" stroke="#222222" stroke-width="0.5" stroke-miterlimit="10"/>
<path d="M192.138 107.933L154.577 147.507" stroke="#222222" stroke-width="0.5" stroke-miterlimit="10"/>
<path d="M194.48 114.375L173.378 136.039" stroke="#222222" stroke-width="0.5" stroke-miterlimit="10"/>
<path d="M129.874 69.291H174.137C178.019 69.291 181.741 70.8315 184.488 73.5737C187.233 76.3158 188.775 80.0351 188.775 83.9132V211.569H115.236V83.9052C115.238 80.0285 116.781 76.3113 119.526 73.5709C122.271 70.8304 125.993 69.291 129.874 69.291Z" fill="#222222" stroke="#222222" stroke-width="0.5" stroke-linecap="round" stroke-linejoin="round"/>
<path d="M197.447 286.268L158.605 274.855V262.153H156.413V215.259H149.513V262.153H147.321V274.514L108.479 286.268V288.124H109.001C108.701 288.673 108.546 289.286 108.55 289.911C108.547 290.567 108.716 291.212 109.039 291.783C109.362 292.354 109.828 292.833 110.392 293.168C110.956 293.505 111.597 293.689 112.254 293.702C112.91 293.715 113.559 293.559 114.136 293.246C114.713 292.933 115.199 292.475 115.545 291.919C115.892 291.361 116.087 290.723 116.112 290.067C116.136 289.412 115.99 288.762 115.686 288.18C115.383 287.598 114.933 287.104 114.381 286.75L114.46 286.671L150.067 282.394V287.516C149.611 288.068 149.322 288.739 149.233 289.451C149.145 290.161 149.26 290.882 149.566 291.531C149.872 292.178 150.356 292.725 150.962 293.109C151.567 293.493 152.27 293.696 152.987 293.696C153.704 293.696 154.406 293.493 155.011 293.109C155.617 292.725 156.101 292.178 156.407 291.531C156.713 290.882 156.828 290.161 156.74 289.451C156.651 288.739 156.362 288.068 155.906 287.516V282.394L191.434 286.663C190.794 287.04 190.28 287.594 189.955 288.259C189.631 288.925 189.508 289.672 189.603 290.406C189.699 291.14 190.009 291.832 190.495 292.391C190.98 292.951 191.62 293.355 192.334 293.556C193.047 293.756 193.804 293.741 194.511 293.515C195.216 293.289 195.84 292.858 196.304 292.282C196.768 291.704 197.052 291.003 197.12 290.265C197.189 289.527 197.037 288.786 196.688 288.133H197.479L197.447 286.268Z" fill="#222222" stroke="#222222" stroke-width="0.5" stroke-linecap="round" stroke-linejoin="round"/>
<path d="M186.496 211.488H118.876C115.694 211.488 113.115 214.065 113.115 217.242V223.037C113.115 226.215 115.694 228.791 118.876 228.791H186.496C189.677 228.791 192.256 226.215 192.256 223.037V217.242C192.256 214.065 189.677 211.488 186.496 211.488Z" fill="white" stroke="#222222" stroke-width="0.5" stroke-linecap="round" stroke-linejoin="round"/>
<path d="M180.83 183.43H125.862V213.963H180.83V183.43Z" fill="white" stroke="#222222" stroke-width="0.5" stroke-linecap="round" stroke-linejoin="round"/>
<path d="M148.31 95.5553L139.891 98.8513C139.891 98.8513 142.938 117.749 147.012 127.503C151.087 137.256 165.931 152.74 165.931 152.74C165.931 152.74 173.622 141.524 176.304 132.624C178.987 123.725 176.185 98.7248 176.185 98.7248C174.266 97.6087 172.155 96.8633 169.959 96.5276C166.137 95.919 148.31 95.5553 148.31 95.5553Z" fill="white" stroke="#222222" stroke-width="0.5" stroke-linecap="round" stroke-linejoin="round"/>
<path d="M156.492 108.849L160.385 116.319L153.928 130.553L164.302 146.156L170.647 131.889L162.956 116.042L166.984 109.086L161.247 103.356L156.492 108.849Z" fill="#222222" stroke="#222222" stroke-width="0.5" stroke-linecap="round" stroke-linejoin="round"/>
<path d="M149.537 94.7018L146.846 95.437L144.283 99.9421L150.613 117.868L160.994 107.143L172.34 118.722C172.34 118.722 173.686 100.677 173.686 98.6063C173.686 96.5355 171.858 95.8005 170.521 95.4448C169.184 95.0892 149.537 94.7018 149.537 94.7018Z" fill="white" stroke="#222222" stroke-width="0.5" stroke-linecap="round" stroke-linejoin="round"/>
<path d="M146.846 95.4366C146.846 95.4366 148.009 111.647 154.759 125.914C158.248 133.265 164.768 143.595 164.768 143.231C164.768 142.868 171.233 123.725 171.478 117.259C171.724 110.794 172.941 97.0173 172.941 97.0173C172.941 97.0173 185.459 101.997 188.45 103.728C193.088 106.407 198.943 107.016 198.824 110.185C198.776 111.339 199.568 118.879 200.572 128.072C200.73 129.534 208.587 142.077 208.754 143.595C210.439 158.905 204.718 165.354 204.434 165.425C203.951 165.543 193.815 165.425 193.815 165.425C193.815 165.425 199.314 190.417 200.145 191.761L200.999 193.098H157.394L155.574 187.612L153.952 193.098H109.127L115.109 165.907H108.518C108.518 165.907 106.809 162.492 109.127 149.689C111.446 136.885 119.263 104.818 119.263 103.728C119.263 102.637 144.283 98.1161 146.846 95.4366Z" fill="white" stroke="#222222" stroke-width="0.5" stroke-linecap="round" stroke-linejoin="round"/>
<path d="M156.167 158.787L155.574 187.613" stroke="#222222" stroke-width="0.5" stroke-linecap="round" stroke-linejoin="round"/>
<path d="M172.966 147.863C180.174 141.161 183.347 127.748 183.347 127.748L176.874 124.942L183.102 121.891L177.722 98.9699C174.675 96.3457 172.886 96.4169 172.973 96.9938C172.973 96.9938 171.756 110.77 171.51 117.236C171.265 123.701 164.784 142.868 164.784 143.232C164.784 143.595 157.607 133.541 154.775 125.914C148.176 108.162 146.91 97.4602 146.72 95.4131C146.718 95.3792 146.707 95.3463 146.688 95.3183C146.669 95.2902 146.642 95.2677 146.612 95.2531C146.581 95.2386 146.547 95.2325 146.513 95.2357C146.479 95.2388 146.447 95.2509 146.419 95.2707C145.509 95.8083 143.254 96.2508 141.672 97.642C141.229 100.803 140.659 105.388 140.263 110.43C139.535 119.82 139.535 123.962 139.535 123.962L147.954 126.04L141.972 129.455C141.972 129.455 148.564 136.157 154.055 141.161C159.546 146.164 163.202 147.982 163.202 147.982L156.167 158.787C156.167 158.787 165.765 154.573 172.966 147.863Z" fill="white" stroke="#222222" stroke-width="0.5" stroke-linecap="round" stroke-linejoin="round"/>
<path d="M148.31 86.6555V97.1438C148.31 97.1438 151.001 105.917 160.519 106.526C170.529 107.174 172.238 97.5075 172.238 97.5075V88.2362C172.238 88.2362 153.707 92.7493 148.31 86.6555Z" fill="white" stroke="#222222" stroke-width="0.5" stroke-linecap="round" stroke-linejoin="round"/>
<path d="M174.556 72.5076C174.556 72.5076 174.92 67.7651 177.848 67.7651C180.775 67.7651 180.784 73.2505 180.047 75.4478C179.312 77.645 175.528 79.2259 174.311 77.5186" fill="white"/>
<path d="M174.556 72.5076C174.556 72.5076 174.92 67.7651 177.848 67.7651C180.775 67.7651 180.784 73.2505 180.047 75.4478C179.312 77.645 175.528 79.2259 174.311 77.5186" stroke="#222222" stroke-width="0.5" stroke-linecap="round" stroke-linejoin="round"/>
<path d="M162.41 48.7721C162.41 48.7721 151.625 48.3769 147.899 51.1432C144.172 53.9096 144.955 61.3314 144.955 63.6788C144.955 66.0262 146.72 86.2048 147.899 89.145C149.078 92.0854 157.663 96.5589 165.148 94.8358C172.633 93.1128 174.951 87.7857 175.339 85.0431C175.727 82.3004 175.734 61.3314 175.339 55.8619C174.944 50.3924 167.696 49.3569 162.41 48.7721Z" fill="white" stroke="#222222" stroke-width="0.5" stroke-linecap="round" stroke-linejoin="round"/>
<path d="M175.451 58.0037C175.451 57.1343 175.387 56.423 175.339 55.8223C174.951 50.337 167.696 49.3569 162.403 48.7721C162.403 48.7721 151.618 48.3769 147.891 51.1432C144.164 53.9096 144.948 61.3314 144.948 63.6788C144.948 64.6194 145.232 68.421 145.652 72.8157C145.841 72.9219 146.052 72.9829 146.268 72.9933C146.484 73.0039 146.7 72.9638 146.899 72.8763C147.097 72.7888 147.272 72.6563 147.41 72.4895C147.548 72.3224 147.645 72.1256 147.693 71.9146C148.484 69.7568 147.305 67.8047 148.286 65.0621C149.268 62.3193 149.655 60.5567 152.013 59.1814C153.491 58.3354 155.071 57.6795 156.713 57.2292C156.713 57.2292 151.816 62.9043 162.6 62.7067C169.603 62.5486 173.552 61.0943 175.451 58.0037Z" fill="#222222" stroke="#222222" stroke-width="0.5" stroke-linecap="round" stroke-linejoin="round"/>
<path d="M164.547 68.0026C164.547 68.0026 166.375 76.6572 164.666 77.4871C162.956 78.317 161.864 78.5858 160.393 75.6613" stroke="#222222" stroke-width="0.5" stroke-linecap="round" stroke-linejoin="round"/>
<path d="M155.028 77.3843C155.028 77.3843 154.656 81.4153 162.838 80.7987" stroke="#222222" stroke-width="0.5" stroke-linecap="round" stroke-linejoin="round"/>
<path d="M157.591 68.1844C157.591 69.0223 157.236 69.7098 156.8 69.7098C156.365 69.7098 156.009 69.0223 156.009 68.1844C156.009 67.3467 156.365 66.6589 156.8 66.6589C157.236 66.6589 157.591 67.3387 157.591 68.1844Z" fill="#222222"/>
<path d="M169.856 68.1844C169.856 69.0223 169.5 69.7098 169.065 69.7098C168.63 69.7098 168.273 69.0223 168.273 68.1844C168.273 67.3467 168.63 66.6589 169.065 66.6589C169.5 66.6589 169.856 67.3387 169.856 68.1844Z" fill="#222222"/>
<path d="M159.459 71.7803H152.828C152.485 71.779 152.153 71.6586 151.888 71.4394C151.624 71.2201 151.445 70.9159 151.38 70.5789L150.51 65.9236H161.493L160.923 70.492C160.877 70.8475 160.703 71.1744 160.434 71.4113C160.164 71.6484 159.818 71.7796 159.459 71.7803Z" stroke="#222222" stroke-width="0.5" stroke-linecap="round" stroke-linejoin="round"/>
<path d="M173.623 71.7803H166.992C166.648 71.7806 166.315 71.6605 166.05 71.441C165.786 71.2218 165.607 70.9166 165.544 70.5789L164.666 65.9236H175.657L175.07 70.4919C175.026 70.8449 174.853 71.1695 174.588 71.4062C174.32 71.6427 173.979 71.7756 173.623 71.7803Z" stroke="#222222" stroke-width="0.5" stroke-linecap="round" stroke-linejoin="round"/>
<path d="M161.492 65.9236H164.665" stroke="#222222" stroke-width="0.5" stroke-linecap="round" stroke-linejoin="round"/>
<path d="M150.51 65.9236L145.264 68.2395" stroke="#222222" stroke-width="0.5" stroke-linecap="round" stroke-linejoin="round"/>
<path d="M146.482 72.5076C146.482 72.5076 146.118 67.7651 143.183 67.7651C140.247 67.7651 140.255 73.2505 140.991 75.4478C141.727 77.645 145.501 79.2259 146.728 77.5186" fill="white"/>
<path d="M146.482 72.5076C146.482 72.5076 146.118 67.7651 143.183 67.7651C140.247 67.7651 140.255 73.2505 140.991 75.4478C141.727 77.645 145.501 79.2259 146.728 77.5186" stroke="#222222" stroke-width="0.5" stroke-linecap="round" stroke-linejoin="round"/>
<path d="M178.093 133.352C176.442 131.796 174.43 130.674 172.238 130.087C171.529 129.843 170.769 129.783 170.03 129.914C169.049 129.914 164.183 128.159 162.964 127.795C161.746 127.432 161.01 128.649 161.382 129.993C161.754 131.336 164.357 132.474 165.338 132.719C166.319 132.965 165.9 132.988 165.9 132.988C165.9 132.988 167.482 136.893 166.754 138.355C166.027 139.817 163.455 143.097 164.309 145.429C165.164 147.761 166.509 148.962 169.191 148.962C171.874 148.962 173.465 149.08 174.074 148.962C174.682 148.843 185.546 154.203 184.36 154.329C183.172 154.455 183.868 143.477 183.868 143.477L178.093 133.352Z" fill="white" stroke="#222222" stroke-width="0.5" stroke-linecap="round" stroke-linejoin="round"/>
<path d="M153.438 139.817C153.438 139.817 159.174 137.011 161.983 134.205C164.792 131.399 165.765 130.672 166.731 130.427C167.696 130.182 171.613 129.083 172.585 128.23C173.56 127.376 174.294 128.965 172.832 130.182C171.761 131.051 170.617 131.826 169.413 132.498C168.804 132.869 168.194 134.577 168.194 134.577C168.194 134.577 174.176 132.016 176.249 132.624C178.323 133.233 180.379 135.082 180.253 136.173C180.127 137.264 179.747 136.742 178.401 136.616C177.056 136.489 175.15 135.912 173.654 136.521C172.158 137.13 170.489 138.6 170.489 139.208C170.489 139.817 172.197 140.181 173.543 140.062C174.888 139.943 175.863 139.572 177.199 139.817C178.537 140.062 179.645 140.789 179.763 141.524C179.882 142.259 179.279 142.251 177.807 142.378C176.336 142.504 173.78 142.623 172.927 143.231C172.071 143.84 167.68 145.911 168.416 146.646C169.152 147.381 169.587 147.381 171.051 147.381C172.515 147.381 174.081 146.259 174.936 146.322C176.083 146.409 176.701 146.496 176.701 146.496C176.701 146.496 178.733 146.583 178.552 147.381C178.268 148.661 177.587 148.701 174.636 148.835C172.325 148.946 171.707 148.717 169.635 149.207C167.857 149.778 166.009 150.105 164.143 150.179C160.598 150.424 154.253 148.717 154.253 148.717L153.438 139.817Z" fill="white" stroke="#222222" stroke-width="0.5" stroke-linecap="round" stroke-linejoin="round"/>
<path d="M176.471 131.858C176.471 131.858 174.003 129.558 172.585 129.487C171.17 129.416 166.849 133.194 166.256 134.608C165.662 136.023 167.047 135.486 168.194 135.138C169.342 134.79 172.435 133.368 173.496 132.933C174.363 132.506 175.352 132.403 176.289 132.64" fill="white"/>
<path d="M176.471 131.858C176.471 131.858 174.003 129.558 172.585 129.487C171.17 129.416 166.849 133.194 166.256 134.608C165.662 136.023 167.047 135.486 168.194 135.138C169.342 134.79 172.435 133.368 173.496 132.933C174.363 132.506 175.352 132.403 176.289 132.64" stroke="#222222" stroke-width="0.5" stroke-linecap="round" stroke-linejoin="round"/>
<path d="M179.652 136.884C179.652 136.884 176.122 135.122 173.916 136.094C171.707 137.066 168.97 139.01 168.97 139.888C168.97 140.765 169.413 140.599 171.344 140.504C173.274 140.41 176.764 139.848 177.23 139.825C177.93 139.905 178.62 140.045 179.296 140.244" fill="white"/>
<path d="M179.652 136.884C179.652 136.884 176.122 135.122 173.916 136.094C171.707 137.066 168.97 139.01 168.97 139.888C168.97 140.765 169.413 140.599 171.344 140.504C173.274 140.41 176.764 139.848 177.23 139.825C177.93 139.905 178.62 140.045 179.296 140.244" stroke="#222222" stroke-width="0.5" stroke-linecap="round" stroke-linejoin="round"/>
<path d="M130.127 126.286L127.073 142.623C127.073 142.623 153.564 137.375 154.537 138.11C155.511 138.845 156.397 158.233 156.397 158.233C156.397 158.233 122.191 164.2 118.163 165.544C114.136 166.888 109.982 167.125 108.518 165.907C107.054 164.691 106.936 161.64 108.028 155.634C109.12 149.626 119.627 106.012 119.627 106.012" fill="white"/>
<path d="M130.127 126.286L127.073 142.623C127.073 142.623 153.564 137.375 154.537 138.11C155.511 138.845 156.397 158.233 156.397 158.233C156.397 158.233 122.191 164.2 118.163 165.544C114.136 166.888 109.982 167.125 108.518 165.907C107.054 164.691 106.936 161.64 108.028 155.634C109.12 149.626 119.627 106.012 119.627 106.012" stroke="#222222" stroke-width="0.5" stroke-linecap="round" stroke-linejoin="round"/>
<path d="M191.52 125.187L192.62 143.84L183.829 143.477L182.983 158.937C182.983 158.937 207.21 164.572 208.556 165.26C209.901 165.948 209.656 164.533 211.239 162.209C212.82 159.884 214.175 154.898 214.047 152.724C213.921 150.551 208.919 143.239 208.801 143.579" fill="white"/>
<path d="M191.52 125.187L192.62 143.84L183.829 143.477L182.983 158.937C182.983 158.937 207.21 164.572 208.556 165.26C209.901 165.948 209.656 164.533 211.239 162.209C212.82 159.884 214.175 154.898 214.047 152.724C213.921 150.551 208.919 143.239 208.801 143.579" stroke="#222222" stroke-width="0.5" stroke-linecap="round" stroke-linejoin="round"/>
<path d="M192.62 143.84H200.802" stroke="#222222" stroke-width="0.5" stroke-linecap="round" stroke-linejoin="round"/>
<path d="M127.073 142.623L116.209 146.401" stroke="#222222" stroke-width="0.5" stroke-linecap="round" stroke-linejoin="round"/>
<path d="M129.668 274.815C129.668 274.815 127.896 282.426 125.419 285.09C122.942 287.754 120.671 289.517 120.814 291.635L120.988 293.762H146.482V287.374C146.482 283.659 144.9 277.1 144.9 274.468C144.9 271.836 128.964 274.642 128.964 274.642" fill="#222222"/>
<path d="M129.668 274.815C129.668 274.815 127.896 282.426 125.419 285.09C122.942 287.754 120.671 289.517 120.814 291.635L120.988 293.762H146.482V287.374C146.482 283.659 144.9 277.1 144.9 274.468C144.9 271.836 128.964 274.642 128.964 274.642" stroke="#222222" stroke-width="0.5" stroke-linecap="round" stroke-linejoin="round"/>
<path d="M151.8 207.26C151.8 207.26 154.276 191.524 150.027 184.276C145.778 177.028 130.903 176.846 122.587 181.795C114.271 186.743 111.034 194.859 114.041 205.293C117.048 215.726 124.003 215.932 124.003 215.932C124.003 215.932 122.231 230.252 122.231 235.912C122.231 241.571 128.252 276.768 128.252 276.768H145.794C145.794 276.768 151.444 214.69 151.8 207.26Z" fill="white" stroke="#222222" stroke-width="0.5" stroke-linecap="round" stroke-linejoin="round"/>
<path d="M124.003 215.932L125.767 201.428" stroke="#222222" stroke-width="0.5" stroke-linecap="round" stroke-linejoin="round"/>
<path d="M181.203 274.815C181.203 274.815 182.976 282.426 185.451 285.09C187.929 287.754 190.198 289.517 190.057 291.635L189.883 293.762H164.388V287.374C164.388 283.659 165.971 277.1 165.971 274.468C165.971 271.836 181.907 274.642 181.907 274.642" fill="#222222"/>
<path d="M181.203 274.815C181.203 274.815 182.976 282.426 185.451 285.09C187.929 287.754 190.198 289.517 190.057 291.635L189.883 293.762H164.388V287.374C164.388 283.659 165.971 277.1 165.971 274.468C165.971 271.836 181.907 274.642 181.907 274.642" stroke="#222222" stroke-width="0.5" stroke-linecap="round" stroke-linejoin="round"/>
<path d="M159.071 207.26C159.071 207.26 156.595 191.524 160.844 184.276C165.093 177.028 179.967 176.846 188.285 181.795C196.601 186.743 199.908 194.859 196.894 205.293C193.878 215.726 186.867 215.932 186.867 215.932C186.867 215.932 188.639 230.252 188.639 235.912C188.639 241.571 182.619 276.768 182.619 276.768H165.093C165.093 276.768 159.427 214.69 159.071 207.26Z" fill="white" stroke="#222222" stroke-width="0.5" stroke-linecap="round" stroke-linejoin="round"/>
<path d="M186.867 215.932L185.095 201.428" stroke="#222222" stroke-width="0.5" stroke-linecap="round" stroke-linejoin="round"/>
<path d="M195.343 19.8837H230.363C231.354 19.8837 232.304 20.2767 233.004 20.9763C233.705 21.6759 234.099 22.6248 234.099 23.6141V39.8487C234.099 40.8382 233.705 41.7872 233.004 42.4868C232.304 43.1864 231.354 43.5794 230.363 43.5794H219.848L222.593 51.009L213.945 43.5794H195.343C194.853 43.5794 194.366 43.483 193.914 43.2954C193.461 43.108 193.049 42.8332 192.702 42.4868C192.355 42.1403 192.08 41.7291 191.893 41.2765C191.703 40.8238 191.607 40.3386 191.607 39.8487V23.6141C191.607 23.1244 191.703 22.6393 191.893 22.1866C192.08 21.7339 192.355 21.3227 192.702 20.9763C193.049 20.6298 193.461 20.3551 193.914 20.1675C194.366 19.9801 194.853 19.8837 195.343 19.8837Z" fill="#222222" stroke="#222222" stroke-width="0.5" stroke-linecap="round" stroke-linejoin="round"/>
<path d="M221.62 33.3201C222.743 33.3201 223.652 32.4107 223.652 31.2888C223.652 30.1669 222.743 29.2574 221.62 29.2574C220.497 29.2574 219.586 30.1669 219.586 31.2888C219.586 32.4107 220.497 33.3201 221.62 33.3201Z" fill="white"/>
<path d="M211.879 33.3201C213.002 33.3201 213.913 32.4107 213.913 31.2888C213.913 30.1669 213.002 29.2574 211.879 29.2574C210.757 29.2574 209.845 30.1669 209.845 31.2888C209.845 32.4107 210.757 33.3201 211.879 33.3201Z" fill="white"/>
<path d="M202.148 33.3201C203.27 33.3201 204.18 32.4107 204.18 31.2888C204.18 30.1669 203.27 29.2574 202.148 29.2574C201.023 29.2574 200.114 30.1669 200.114 31.2888C200.114 32.4107 201.023 33.3201 202.148 33.3201Z" fill="white"/>
<path d="M59.2864 151.981L53.1384 164.952H70.5697L76.7177 152.613L59.2864 151.981Z" fill="#222222" stroke="#222222" stroke-width="0.5" stroke-linecap="round" stroke-linejoin="round"/>
<path d="M97.5591 151.981H59.2861L65.4421 164.952H103.707L97.5591 151.981Z" fill="white" stroke="#222222" stroke-width="0.5" stroke-linecap="round" stroke-linejoin="round"/>
<path d="M29.543 182.815H20.9185V293.697H29.543V182.815Z" fill="#A3A3A3" stroke="#222222" stroke-width="0.5" stroke-linecap="round" stroke-linejoin="round"/>
<path d="M305.611 183.099H296.987V293.982H305.611V183.099Z" fill="white" stroke="#222222" stroke-width="0.5" stroke-linecap="round" stroke-linejoin="round"/>
<path d="M309.402 164.596H19.0432V271.465H309.402V164.596Z" fill="white" stroke="#222222" stroke-width="0.5" stroke-linecap="round" stroke-linejoin="round"/>
<path d="M309.402 164.596H19.0432V175.717H309.402V164.596Z" fill="#222222" stroke="#222222" stroke-width="0.5" stroke-linecap="round" stroke-linejoin="round"/>
<path d="M316.799 164.596H11.6528V171.227H316.799V164.596Z" fill="white" stroke="#222222" stroke-width="0.5" stroke-linecap="round" stroke-linejoin="round"/>
<path d="M43.4377 141.643L43.666 141.745L43.6661 141.744L43.667 141.743L43.6706 141.735L43.6853 141.702C43.6983 141.674 43.7179 141.631 43.7438 141.576C43.7954 141.466 43.8719 141.306 43.9707 141.107C44.1685 140.71 44.4555 140.157 44.8118 139.539C45.5272 138.299 46.5118 136.814 47.606 135.781C48.7122 134.738 49.8422 134.234 50.8988 134.73C51.4408 134.985 52.0022 135.516 52.5524 136.448C53.1021 137.381 53.6312 138.698 54.1155 140.499C55.0782 144.078 55.086 150.42 54.5416 157.959C53.9981 165.485 52.9079 174.164 51.6952 182.395C50.4826 190.625 49.1481 198.402 48.1167 204.122C47.601 206.982 47.1611 209.328 46.8501 210.958C46.6947 211.773 46.5714 212.41 46.4871 212.842C46.4449 213.059 46.4124 213.224 46.3905 213.335L46.3657 213.461L46.3594 213.493L46.3578 213.501L46.3574 213.503C46.3574 213.503 46.3573 213.503 46.6025 213.552L46.3573 213.503L46.2001 214.294L46.7771 213.731L46.7773 213.731L46.7784 213.73L46.7833 213.725L46.8036 213.705C46.8217 213.688 46.8488 213.662 46.8845 213.629C46.9557 213.563 47.0609 213.466 47.1954 213.348C47.4645 213.11 47.8504 212.784 48.3162 212.43C49.2514 211.718 50.4942 210.906 51.754 210.466C53.0171 210.024 54.2406 209.975 55.2018 210.695C56.1729 211.422 56.9559 212.992 57.1856 215.99C57.4125 218.952 56.266 223.516 54.3869 228.733C52.5125 233.937 49.925 239.749 47.3061 245.189C44.6877 250.628 42.0401 255.69 40.0469 259.393C39.0504 261.244 38.2176 262.756 37.634 263.804C37.3422 264.328 37.1127 264.736 36.9562 265.014C36.8798 265.149 36.8207 265.253 36.7804 265.324L24.9989 266.468L23.9375 262.446L23.9317 262.424L23.922 262.403L23.6957 262.509C23.922 262.403 23.9219 262.403 23.9218 262.403L23.9211 262.401L23.9185 262.396L23.9079 262.373L23.8661 262.284C23.8292 262.205 23.7745 262.088 23.7033 261.935C23.5609 261.63 23.3526 261.181 23.0889 260.61C22.5616 259.468 21.813 257.835 20.9279 255.872C19.1577 251.945 16.8423 246.697 14.6603 241.412C12.4776 236.125 10.4313 230.808 9.19731 226.741C8.57956 224.705 8.16967 222.995 8.04443 221.764C7.98158 221.146 7.99286 220.67 8.07355 220.339C8.15404 220.009 8.28676 219.88 8.42944 219.839C9.42404 219.558 10.7247 219.728 12.1489 220.177C13.5653 220.623 15.0669 221.332 16.4439 222.084C17.8197 222.834 19.064 223.623 19.9648 224.224C20.4151 224.525 20.779 224.778 21.0302 224.957C21.1557 225.046 21.2531 225.116 21.3189 225.164L21.3935 225.218L21.4122 225.232L21.4168 225.236L21.4179 225.236L21.4182 225.237L21.5674 225.036M43.4377 141.643C43.1941 141.587 43.1941 141.586 43.1942 141.586L43.1946 141.585L43.196 141.578L43.2018 141.553L43.2247 141.453C43.2448 141.365 43.2747 141.234 43.3134 141.062C43.3908 140.718 43.5038 140.212 43.6458 139.562C43.9298 138.264 44.3299 136.392 44.7941 134.103C45.7224 129.525 46.9067 123.277 47.9311 116.595C48.9556 109.913 49.8194 102.802 50.1077 96.4964C50.3966 90.1801 50.1055 84.7107 48.8447 81.2884C48.5282 80.4295 48.2227 79.8397 47.9346 79.4741C47.6445 79.1059 47.4082 79.0076 47.2265 79.0202C47.0332 79.0335 46.7945 79.1771 46.5176 79.5403C46.246 79.8966 45.9708 80.4217 45.6961 81.1C44.5954 83.8177 43.5946 88.757 42.75 94.1614C41.9067 99.5569 41.223 105.388 40.7501 109.871C40.5136 112.112 40.3299 114.016 40.2053 115.36C40.143 116.032 40.0955 116.563 40.0636 116.927C40.0476 117.109 40.0356 117.248 40.0275 117.343L40.0184 117.45L40.0161 117.477L40.0155 117.484L40.0154 117.485C40.0154 117.486 40.0153 117.486 39.7662 117.465M43.4377 141.643L43.6659 141.745L43.1941 141.587L43.4377 141.643ZM39.7662 117.465C39.5162 117.463 39.5162 117.463 39.5162 117.463L39.5162 117.46L39.5163 117.451L39.5165 117.413L39.517 117.263C39.5174 117.131 39.5178 116.934 39.5178 116.678C39.5178 116.166 39.516 115.415 39.5093 114.46C39.4958 112.55 39.4623 109.824 39.3823 106.563C39.2221 100.04 38.8756 91.3755 38.1305 82.8073C37.385 74.2354 36.2417 65.7745 34.492 59.6509C33.6162 56.586 32.5949 54.1304 31.4115 52.5396C30.2314 50.9533 28.9319 50.2741 27.4724 50.62C25.9812 50.9735 24.8478 52.1422 24.0188 53.9969C23.1894 55.8526 22.6826 58.3589 22.4306 61.308C21.927 67.2032 22.4471 74.7942 23.3683 82.3066C24.2892 89.8156 25.6089 97.2317 26.6987 102.772C27.2435 105.541 27.7308 107.841 28.0818 109.449C28.2573 110.252 28.3987 110.883 28.4962 111.313C28.545 111.527 28.5828 111.692 28.6084 111.802L28.6374 111.928L28.6448 111.959L28.6466 111.967L28.6471 111.969C28.6472 111.97 28.6472 111.97 28.4039 112.027M39.7662 117.465L40.0153 117.486L39.5162 117.463L39.7662 117.465ZM28.4039 112.027C28.2351 112.211 28.2351 112.211 28.235 112.211L28.2345 112.211L28.2324 112.209L28.2234 112.201L28.1874 112.168C28.1555 112.14 28.1078 112.097 28.0453 112.042C27.9204 111.932 27.7365 111.772 27.5016 111.575C27.0318 111.179 26.3585 110.632 25.5455 110.026C23.9171 108.812 21.7388 107.371 19.519 106.437C17.2882 105.499 15.0764 105.099 13.341 105.876C11.6269 106.644 10.278 108.61 9.88409 112.652C9.48984 116.698 10.0319 122.413 11.0754 128.728C12.1179 135.036 13.6574 141.923 15.2475 148.304C16.8374 154.684 18.4771 160.554 19.7194 164.83C20.3405 166.968 20.8622 168.707 21.2286 169.911C21.4118 170.513 21.5561 170.982 21.6547 171.299C21.7039 171.458 21.7417 171.58 21.7672 171.661L21.7961 171.753L21.8034 171.777L21.8052 171.782L21.8057 171.784C21.8057 171.784 21.8058 171.784 21.5674 171.859M28.4039 112.027L28.6472 111.97L28.8322 112.758L28.2351 112.211L28.4039 112.027ZM21.5674 171.859C21.3399 171.963 21.3398 171.963 21.3398 171.963L21.3394 171.962L21.3377 171.958L21.3309 171.943L21.3038 171.885C21.2798 171.833 21.244 171.755 21.197 171.655C21.103 171.453 20.964 171.159 20.7847 170.785C20.4261 170.038 19.9061 168.977 19.2608 167.72C17.97 165.205 16.1796 161.911 14.1791 158.787C12.1758 155.659 9.97341 152.72 7.86154 150.902C6.80502 149.992 5.78966 149.379 4.84946 149.151C3.92254 148.926 3.06394 149.071 2.28209 149.695C1.92354 149.981 1.64645 150.505 1.47114 151.293C1.29696 152.075 1.23088 153.083 1.26462 154.29C1.33206 156.703 1.79672 159.87 2.54807 163.532C4.05022 170.854 6.68921 180.118 9.54247 189.22C12.3952 198.32 15.46 207.253 17.8118 213.91C18.9877 217.239 19.9852 219.999 20.6887 221.926C21.0405 222.89 21.3187 223.646 21.509 224.16C21.6042 224.418 21.6773 224.615 21.7267 224.747L21.7826 224.898L21.7968 224.936L21.8003 224.945L21.8012 224.948C21.8014 224.948 21.8015 224.948 21.5674 225.036M21.5674 171.859L21.8058 171.784L21.3399 171.963L21.5674 171.859ZM21.5674 225.036L21.8015 224.948L22.0983 225.742L21.4182 225.237L21.5674 225.036Z" fill="white" stroke="#222222" stroke-width="0.5"/>
<path d="M27.8975 264.318C27.8975 264.318 11.5581 235.311 14.5886 229.874C17.6191 224.435 26.671 237.105 26.671 237.105C26.671 237.105 6.09845 185.731 9.12893 180.909C12.1594 176.087 21.789 197.222 21.789 197.222C21.789 197.222 18.1651 126.515 24.2103 128.933C30.2555 131.352 30.9042 165.18 30.9042 165.18C30.9042 165.18 27.2725 84.7979 32.7242 87.2165C38.1759 89.635 37.5587 179.076 37.5587 179.076C37.5587 179.076 48.4701 144.63 50.2663 160.375C52.0623 176.119 36.3482 218.39 36.3482 218.39C36.3482 218.39 51.4768 185.154 53.2888 202.676C55.1008 220.199 41.1906 252.834 41.1906 252.834C41.1906 252.834 46.6344 239.539 46.6344 246.795C46.6344 254.052 42.4011 263.11 42.4011 263.11" stroke="#222222" stroke-width="0.5" stroke-linecap="round" stroke-linejoin="round"/>
<path d="M49.9654 264.09H15.3799V293.982H49.9654V264.09Z" fill="#222222" stroke="#222222" stroke-width="0.5" stroke-miterlimit="10"/>
<path d="M239.787 61.782C239.787 61.782 236.242 67.623 235.712 70.2707C235.183 72.9186 236.068 73.9856 235.357 75.93C234.644 77.8744 231.646 77.8822 231.646 79.8266C231.646 81.771 233.767 83.5415 234.477 84.0709C235.19 84.6005 233.939 86.9005 235.183 90.2596C236.424 93.6188 236.955 97.8631 239.076 97.8631C241.271 97.7475 243.457 97.51 245.627 97.1519L246.687 103.609L261.317 102.282C261.317 102.282 261.143 95.9584 265.036 93.2631C268.93 90.5679 276.635 75.4004 272.031 65.4969C267.427 55.5933 248.102 53.6489 239.787 61.782Z" fill="white" stroke="#222222" stroke-width="0.5" stroke-linecap="round" stroke-linejoin="round"/>
<path d="M234.937 54.4473C234.457 56.0017 234.264 57.6298 234.368 59.253C234.587 62.3732 235.559 65.3941 237.2 68.0579C239.003 71.0376 243.324 72.9346 244.393 76.1119C244.74 77.1711 245.627 80.0007 248.102 80.7119C250.58 81.4234 250.058 81.4154 249.346 86.1894C248.633 90.9633 250.762 95.7373 255.011 96.9782C257.012 97.5584 259.126 97.6362 261.165 97.2047C263.203 96.7731 265.103 95.8455 266.697 94.5042C270.06 91.8485 276.431 80.8858 276.613 70.9824C276.921 53.4595 259.632 44.8996 244.036 47.0337C241.958 47.2394 239.987 48.0525 238.369 49.371C236.75 50.6896 235.555 52.4553 234.937 54.4473Z" fill="#222222" stroke="#222222" stroke-width="0.5" stroke-linecap="round" stroke-linejoin="round"/>
<path d="M253.69 99.0804C251.329 99.1191 249.004 99.658 246.868 100.661C244.89 101.705 238.014 108.265 236.242 109.355C234.47 110.446 231.107 109.885 233.078 110.77C235.047 111.655 236.44 111.829 239.803 110.596C243.166 109.363 250.247 106.881 252.368 106.881C254.488 106.881 262.282 107.941 262.995 108.122C263.707 108.304 268.304 110.415 268.304 110.415C268.304 110.415 266.001 105.467 263.351 102.993C260.699 100.519 257.409 98.8987 253.69 99.0804Z" fill="white" stroke="#222222" stroke-width="0.5" stroke-linecap="round" stroke-linejoin="round"/>
<path d="M247.937 77.0759C247.562 77.2253 247.247 77.495 247.043 77.8428C246.837 78.1904 246.753 78.5964 246.805 78.9966C247.106 81.3295 247.067 83.6938 246.686 86.0152C245.983 89.0187 249.741 89.0187 250.563 84.0946C251.101 80.8381 249.867 76.3884 247.937 77.0759Z" fill="white" stroke="#222222" stroke-width="0.5" stroke-linecap="round" stroke-linejoin="round"/>
<path d="M218.36 117.844C218.36 117.844 216.239 118.903 216.066 124.033C215.891 129.162 207.028 165.243 206.499 170.903C205.969 176.562 208.984 180.27 214.11 182.222C219.237 184.174 228.986 187.344 230.727 186.465C232.467 185.588 235.862 167.362 237.097 159.402C238.332 151.444 223.463 123.835 222.76 122.8C222.055 121.764 219.601 118.026 218.36 117.844Z" fill="white" stroke="#222222" stroke-width="0.5" stroke-linecap="round" stroke-linejoin="round"/>
<path d="M229.873 160.114L220.132 174.618" stroke="#222222" stroke-width="0.5" stroke-linecap="round" stroke-linejoin="round"/>
<path d="M248.657 224.498L260.954 292.474C260.993 292.685 261.076 292.887 261.2 293.065C261.323 293.243 261.483 293.393 261.668 293.504C261.854 293.615 262.062 293.686 262.277 293.71C262.49 293.736 262.709 293.716 262.915 293.651C263.255 293.539 263.544 293.313 263.735 293.013C263.927 292.711 264.005 292.353 263.96 291.999L254.883 223.028L248.657 224.498Z" fill="white" stroke="#222222" stroke-width="0.5" stroke-linecap="round" stroke-linejoin="round"/>
<path d="M235.008 209.648C235.008 209.648 230.402 271.717 230.402 273.487C230.402 275.258 225.655 293.825 225.655 293.825H238.371C238.371 293.825 239.605 291.35 239.605 286.221C239.605 281.091 240.143 270.128 240.143 269.07C240.143 268.009 254.306 213.181 254.306 213.181C254.306 213.181 253.593 207.696 246.686 204.487C239.779 201.278 236.068 208.234 235.008 209.648Z" fill="white" stroke="#222222" stroke-width="0.5" stroke-linecap="round" stroke-linejoin="round"/>
<path d="M239.605 286.221C239.605 281.534 240.048 271.993 240.128 269.559C234.232 266.256 230.577 270.658 230.577 270.658C230.474 272.238 230.411 273.267 230.411 273.472C230.411 275.243 225.664 293.808 225.664 293.808H238.371C238.371 293.808 239.605 291.35 239.605 286.221Z" fill="#222222" stroke="#222222" stroke-width="0.5" stroke-linecap="round" stroke-linejoin="round"/>
<path d="M238.37 293.825C238.37 293.825 239.605 291.35 239.605 286.221C239.605 284.315 239.684 281.598 239.772 278.886C238.545 277.454 235.895 275.265 233.061 278.617C231.82 280.079 228.552 289.311 226.993 293.825H238.37Z" fill="#4F4F4F" stroke="#222222" stroke-width="0.5" stroke-linecap="round" stroke-linejoin="round"/>
<path d="M233.061 278.616L234.121 293.825H237.287L239.954 278.261C239.954 278.261 236.424 274.017 233.061 278.616Z" fill="#222222" stroke="#222222" stroke-width="0.5" stroke-linecap="round" stroke-linejoin="round"/>
<path d="M209.157 201.538C209.157 201.538 203.666 207.553 203.137 212.683C202.606 217.812 221.548 272.105 221.548 272.105C221.08 274.386 220.047 276.515 218.542 278.292C215.884 281.651 212.165 286.427 211.635 289.611C211.104 292.796 211.635 293.856 211.635 293.856H224.207C224.207 293.856 228.63 282.537 230.402 279.709C232.176 276.878 231.107 271.393 230.576 268.92C230.048 266.445 225.267 209.324 225.267 209.324C225.267 209.324 221.548 197.263 209.157 201.538Z" fill="white" stroke="#222222" stroke-width="0.5" stroke-linecap="round" stroke-linejoin="round"/>
<path d="M230.402 279.677C231.938 277.219 231.345 272.768 230.806 270.017C230.146 269.468 229.364 269.079 228.527 268.882C227.689 268.686 226.816 268.688 225.979 268.888C222.26 269.772 221.548 272.049 221.548 272.049C221.08 274.331 220.047 276.459 218.542 278.238C215.884 281.597 212.165 286.371 211.634 289.555C211.104 292.742 211.634 293.8 211.634 293.8H224.207C224.207 293.8 228.63 282.506 230.402 279.677Z" fill="#222222" stroke="#222222" stroke-width="0.5" stroke-linecap="round" stroke-linejoin="round"/>
<path d="M217.744 293.825H224.208C224.208 293.825 228.164 283.755 230.079 280.237C229.129 279.367 226.256 277.147 223.495 279.321C220.132 281.976 219.776 288.521 218.898 290.994C218.479 292.156 218.059 293.12 217.744 293.825Z" fill="#4F4F4F" stroke="#222222" stroke-width="0.5" stroke-linecap="round" stroke-linejoin="round"/>
<path d="M223.495 279.321L224.207 293.825H226.501L230.394 279.677C230.394 279.677 226.857 276.144 223.495 279.321Z" fill="#222222" stroke="#222222" stroke-width="0.5" stroke-linecap="round" stroke-linejoin="round"/>
<path d="M223.448 141.817C226.392 151.744 229.034 170.358 229.034 172.097C229.034 175.257 219.776 193.539 219.776 193.539C219.776 193.539 209.489 198.842 207.028 202.557C205.887 204.2 205.217 206.124 205.093 208.119C204.969 210.115 205.395 212.106 206.325 213.876C208.097 217.41 210.747 219.006 216.612 220.064C222.474 221.124 276.802 220.064 276.802 220.064C276.802 220.064 282.468 213.164 279.808 202.201C278.574 197.096 277.229 192.662 275.742 186.465C275.742 186.465 281.581 186.639 285.83 183.099C290.08 179.558 290.262 174.08 290.262 170.019C290.262 165.955 287.586 131.984 287.586 128.633C287.586 125.282 287.428 121.029 284.264 118.548C281.098 116.066 273.597 112.225 266.857 108.652C261.555 105.862 257.654 106.352 253.404 106.352C249.156 106.352 244.02 109.514 244.02 109.514C244.02 109.514 220.474 115.702 218.699 116.761C216.927 117.821 217.56 118.895 218.21 122.8" fill="white"/>
<path d="M223.448 141.817C226.392 151.744 229.034 170.358 229.034 172.097C229.034 175.257 219.776 193.539 219.776 193.539C219.776 193.539 209.489 198.842 207.028 202.557C205.887 204.2 205.217 206.124 205.093 208.119C204.969 210.115 205.395 212.106 206.325 213.876C208.097 217.41 210.747 219.006 216.612 220.064C222.474 221.124 276.802 220.064 276.802 220.064C276.802 220.064 282.468 213.164 279.808 202.201C278.574 197.096 277.229 192.662 275.742 186.465C275.742 186.465 281.581 186.639 285.83 183.099C290.08 179.558 290.262 174.08 290.262 170.019C290.262 165.955 287.586 131.984 287.586 128.633C287.586 125.282 287.428 121.029 284.264 118.548C281.098 116.066 273.597 112.225 266.857 108.652C261.555 105.862 257.654 106.352 253.404 106.352C249.156 106.352 244.02 109.514 244.02 109.514C244.02 109.514 220.474 115.702 218.699 116.761C216.927 117.821 217.56 118.895 218.21 122.8" stroke="#222222" stroke-width="0.5" stroke-linecap="round" stroke-linejoin="round"/>
<path d="M278.559 127.748C278.559 127.748 271.311 169.813 271.311 172.111C271.311 174.412 275.726 186.465 275.726 186.465" stroke="#222222" stroke-width="0.5" stroke-linecap="round" stroke-linejoin="round"/>
<path d="M228.654 173.874C226.913 179.463 219.776 193.539 219.776 193.539C219.776 193.539 209.489 198.842 207.028 202.557C205.887 204.2 205.217 206.124 205.093 208.118C204.969 210.115 205.395 212.106 206.325 213.876C208.097 217.409 210.747 219.006 216.612 220.066C222.474 221.124 276.802 220.066 276.802 220.066C276.802 220.066 282.468 213.164 279.808 202.201C278.574 197.096 277.229 192.662 275.742 186.465L271.311 173.874H228.654Z" fill="#222222" stroke="#222222" stroke-width="0.5" stroke-miterlimit="10"/>
<path d="M213.407 223.779L204.252 292.268C204.224 292.481 204.241 292.7 204.304 292.907C204.367 293.113 204.475 293.306 204.618 293.467C204.761 293.63 204.937 293.76 205.136 293.849C205.332 293.938 205.546 293.982 205.763 293.982C206.119 293.984 206.464 293.86 206.737 293.634C207.01 293.408 207.196 293.091 207.259 292.742L219.776 224.309L213.407 223.779Z" fill="white" stroke="#222222" stroke-width="0.5" stroke-linecap="round" stroke-linejoin="round"/>
<path d="M273.977 223.779L283.132 292.268C283.16 292.481 283.141 292.7 283.078 292.907C283.015 293.113 282.909 293.306 282.766 293.467C282.623 293.63 282.447 293.76 282.248 293.849C282.052 293.938 281.836 293.982 281.621 293.982C281.265 293.984 280.92 293.86 280.647 293.634C280.372 293.408 280.189 293.091 280.125 292.742L267.647 224.309L273.977 223.779Z" fill="white" stroke="#222222" stroke-width="0.5" stroke-linecap="round" stroke-linejoin="round"/>
<path d="M238.37 223.779L229.216 292.268C229.188 292.481 229.205 292.7 229.268 292.907C229.331 293.113 229.439 293.306 229.581 293.467C229.724 293.63 229.901 293.76 230.099 293.849C230.296 293.938 230.511 293.982 230.726 293.982C231.083 293.982 231.426 293.858 231.699 293.632C231.974 293.406 232.157 293.091 232.222 292.742L244.739 224.309L238.37 223.779Z" fill="white" stroke="#222222" stroke-width="0.5" stroke-linecap="round" stroke-linejoin="round"/>
<path d="M283.869 145.421H226.685C226.685 145.421 225.102 158.857 225.98 170.358C226.858 181.859 228.812 196.527 228.457 205.926C228.101 215.322 222.792 220.429 222.792 220.429H210.044C209.742 220.428 209.443 220.487 209.163 220.602C208.884 220.715 208.63 220.884 208.417 221.097C208.203 221.31 208.033 221.564 207.918 221.842C207.801 222.12 207.741 222.419 207.741 222.721C207.741 223.023 207.801 223.321 207.918 223.601C208.033 223.879 208.201 224.133 208.417 224.346C208.63 224.562 208.884 224.73 209.163 224.845C209.443 224.962 209.742 225.021 210.044 225.021H278.882C283.056 218.298 285.092 210.469 284.723 202.567C284.192 189.129 278.882 173.915 280.647 163.127C282.412 152.337 283.869 145.421 283.869 145.421Z" fill="white" stroke="#222222" stroke-width="0.5" stroke-linecap="round" stroke-linejoin="round"/>
<path d="M268.731 63.2917C268.731 63.2917 265.194 64.7065 265.012 68.034C264.83 71.3615 263.778 82.8855 259.528 89.4297C255.28 95.9742 259.528 106.407 269.973 107.996C280.419 109.585 288.916 93.8482 285.008 77.5819C281.098 61.3157 272.276 61.877 268.731 63.2917Z" fill="#222222" stroke="#222222" stroke-width="0.5" stroke-linecap="round" stroke-linejoin="round"/>
</g>
</svg>
