<svg width="17" height="17" viewBox="0 0 17 17" fill="none" xmlns="http://www.w3.org/2000/svg">
<path d="M6.03033 6.96967L5.5 6.43934L4.43934 7.5L4.96967 8.03033L6.03033 6.96967ZM8.5 10.5L7.96967 11.0303L8.5 11.5607L9.03033 11.0303L8.5 10.5ZM12.0303 8.03033L12.5607 7.5L11.5 6.43934L10.9697 6.96967L12.0303 8.03033ZM4.96967 8.03033L7.96967 11.0303L9.03033 9.96967L6.03033 6.96967L4.96967 8.03033ZM9.03033 11.0303L12.0303 8.03033L10.9697 6.96967L7.96967 9.96967L9.03033 11.0303ZM14.75 8.5C14.75 11.9518 11.9518 14.75 8.5 14.75V16.25C12.7802 16.25 16.25 12.7802 16.25 8.5H14.75ZM8.5 2.25C11.9518 2.25 14.75 5.04822 14.75 8.5H16.25C16.25 4.21979 12.7802 0.750001 8.5 0.75V2.25ZM2.25 8.5C2.25 5.04822 5.04822 2.25 8.5 2.25V0.75C4.21979 0.749999 0.750001 4.21979 0.75 8.5H2.25ZM0.75 8.5C0.749999 12.7802 4.21979 16.25 8.5 16.25V14.75C5.04822 14.75 2.25 11.9518 2.25 8.5H0.75Z" fill="#444242"/>
</svg>
