<svg width="375" height="211" viewBox="0 0 375 211" fill="none" xmlns="http://www.w3.org/2000/svg">
<rect width="375" height="211" fill="#F5F7FC"/>
<mask id="mask0" mask-type="alpha" maskUnits="userSpaceOnUse" x="0" y="0" width="375" height="211">
<rect width="375" height="211" fill="#F8F9FC"/>
</mask>
<g mask="url(#mask0)">
<mask id="path-3-inside-1" fill="white">
<path d="M373.672 -9.40367C370.952 -12.1882 364.037 -11.0372 360.928 -9.4872C360.659 -9.35726 356.695 -6.78624 356.751 -6.7027L356.807 -6.64701C355.721 -6.47066 354.542 -6.27575 353.27 -6.03442C350.922 -5.56106 348.268 -5.01344 345.427 -4.17809C342.35 -3.36285 339.325 -2.36168 336.368 -1.18011C333.047 0.117889 329.848 1.70821 326.808 3.57211L326.706 3.64636C327.449 2.78316 329.435 0.286392 329.574 0.0821991C331.431 -2.86009 333.287 -9.62643 330.772 -12.6058C330.337 -13.0814 329.808 -13.4612 329.218 -13.721C328.628 -13.9809 327.991 -14.115 327.347 -14.115C326.702 -14.115 326.065 -13.9809 325.475 -13.721C324.886 -13.4612 324.357 -13.0814 323.922 -12.6058C322 -10.6381 321.787 -7.26889 322.177 -4.69786C322.622 -1.81126 326.084 3.50714 326.363 3.9341C323.317 5.90028 320.408 8.07099 317.657 10.4313C316.042 11.8049 314.464 13.2158 312.895 14.6823C313.508 13.9119 314.055 13.225 314.12 13.1137C315.977 10.1714 317.833 3.40504 315.327 0.425621C314.892 -0.0499268 314.363 -0.429714 313.773 -0.689548C313.184 -0.949383 312.546 -1.08358 311.902 -1.08358C311.258 -1.08358 310.62 -0.949383 310.031 -0.689548C309.441 -0.429714 308.912 -0.0499268 308.477 0.425621C306.556 2.39334 306.342 5.77187 306.732 8.33361C307.122 10.8953 309.99 15.5269 310.76 16.6871L308.978 18.3671C306.129 21.0773 303.298 23.7969 300.439 26.3772C299.437 27.3054 298.406 28.15 297.385 29.0132C297.933 28.3263 298.388 27.7509 298.453 27.6581C300.309 24.7158 302.166 17.9494 299.65 14.9607C299.219 14.4822 298.692 14.0988 298.104 13.835C297.516 13.5711 296.88 13.4326 296.235 13.4283C295.591 13.4239 294.953 13.5538 294.361 13.8096C293.77 14.0655 293.238 14.4417 292.8 14.9143C290.888 16.882 290.666 20.2606 291.055 22.8223C291.445 25.384 294.044 29.5701 294.954 31.0087C293.886 31.8626 292.81 32.7166 291.733 33.4962C290.981 34.0067 290.294 34.5543 289.515 35.0277L287.25 36.4757C285.774 37.3389 284.261 38.2392 282.804 39.056C281.792 39.6221 280.818 40.1419 279.843 40.6803C280.855 39.7521 282.795 37.9886 282.943 37.8215C284.864 35.4393 286.142 32.605 286.656 29.5886C286.883 29.3352 287.082 29.0582 287.25 28.7626C287.589 28.2153 287.811 27.6033 287.901 26.9657C287.991 26.3281 287.947 25.6787 287.773 25.0589C287.598 24.4391 287.296 23.8624 286.887 23.3654C286.477 22.8685 285.969 22.4623 285.394 22.1726C282.711 20.9381 278.59 22.6924 275.731 24.7251C275.852 22.7481 275.796 21.5322 275.796 21.5322L275.044 21.6064L275.592 20.2977C275.963 19.4809 276.242 18.5713 276.567 17.6988C277.291 15.6568 277.922 13.5499 278.516 11.4244C279.862 12.0741 284.66 14.3481 287.268 14.441C289.877 14.5338 293.19 13.9397 294.926 11.805C295.346 11.3159 295.66 10.7446 295.847 10.1275C296.034 9.51048 296.091 8.86119 296.013 8.22107C295.935 7.58096 295.725 6.96407 295.395 6.40973C295.066 5.85539 294.625 5.37579 294.1 5.00149C290.851 2.86671 284.335 5.47485 281.625 7.64676C281.458 7.78599 279.685 9.56806 278.739 10.5612C279.082 9.28033 279.435 7.99947 279.741 6.68147C280.623 2.90383 281.402 -0.957348 282.201 -4.79996C282.442 -5.97873 282.702 -7.14822 282.952 -8.32699C283.426 -8.08567 289.078 -5.26405 291.993 -5.16195C294.592 -5.06913 297.915 -5.66315 299.65 -7.79794C300.069 -8.28682 300.381 -8.85746 300.568 -9.47359C300.754 -10.0897 300.81 -10.7379 300.732 -11.3768C300.655 -12.0158 300.445 -12.6316 300.116 -13.1851C299.788 -13.7387 299.348 -14.2178 298.824 -14.5921C295.576 -16.7362 289.06 -14.128 286.35 -11.9468C286.145 -11.7891 283.565 -9.22732 282.999 -8.54047C283.546 -11.1208 284.131 -13.6918 284.799 -16.2071C285.686 -19.5997 286.796 -22.9298 288.122 -26.1757C288.345 -26.0643 294.23 -23.0941 297.218 -22.992C299.808 -22.8899 303.14 -23.4933 304.876 -25.628C305.294 -26.1175 305.606 -26.6887 305.791 -27.3052C305.977 -27.9216 306.032 -28.57 305.954 -29.209C305.875 -29.848 305.664 -30.4637 305.335 -31.0168C305.006 -31.57 304.565 -32.0486 304.04 -32.4222C300.792 -34.5663 294.285 -31.9581 291.575 -29.7769C291.362 -29.6099 288.633 -26.8532 288.169 -26.3149C288.252 -26.5005 288.308 -26.7047 288.391 -26.8903C289.802 -30.1305 291.501 -33.237 293.469 -36.172C294.536 -37.7963 295.64 -39.3 296.754 -40.7293C297.794 -40.061 302.574 -37.0723 305.256 -36.6732C307.939 -36.2741 311.197 -36.534 313.155 -38.4553C313.625 -38.8959 313.999 -39.4296 314.251 -40.0225C314.504 -40.6153 314.63 -41.2543 314.623 -41.8987C314.615 -42.5431 314.473 -43.1787 314.206 -43.7652C313.939 -44.3517 313.552 -44.8762 313.071 -45.3052C310.083 -47.7927 303.326 -45.9085 300.393 -44.0429C300.235 -43.9501 298.722 -42.7342 297.608 -41.8431C298.119 -42.4743 298.629 -43.1426 299.13 -43.7459C300.987 -46.0106 302.843 -47.969 304.532 -49.6861C305.461 -50.6143 306.389 -51.5425 307.196 -52.3129C308.561 -52.1922 314.046 -51.7745 316.561 -52.6377C319.077 -53.5009 321.908 -55.2459 322.752 -57.8633C322.967 -58.4705 323.053 -59.1157 323.005 -59.7579C322.957 -60.4002 322.775 -61.0253 322.472 -61.5937C322.169 -62.162 321.752 -62.6611 321.245 -63.0591C320.739 -63.4572 320.155 -63.7455 319.532 -63.9057C315.726 -64.7317 310.593 -59.9424 308.848 -56.9444C308.7 -56.6845 306.816 -52.35 306.881 -52.3036H306.964C306.147 -51.561 305.284 -50.7443 304.356 -49.8439C302.648 -48.1547 300.745 -46.2334 298.787 -43.9965C296.675 -41.6135 294.704 -39.1094 292.884 -36.4969C290.833 -33.5674 289.047 -30.4613 287.547 -27.2152L287.491 -27.0945C287.64 -28.2269 287.927 -31.4012 287.918 -31.6518C287.844 -35.1232 285.653 -41.7874 281.922 -42.9012C281.3 -43.0634 280.65 -43.0945 280.015 -42.9924C279.38 -42.8903 278.773 -42.6573 278.233 -42.3082C277.693 -41.9591 277.231 -41.5015 276.877 -40.9645C276.523 -40.4274 276.285 -39.8227 276.177 -39.1886C275.666 -36.4969 277.346 -33.5639 279.091 -31.6333C281.05 -29.4614 286.879 -26.9924 287.343 -26.7418C285.889 -23.4262 284.664 -20.0149 283.676 -16.532C283.082 -14.4993 282.553 -12.4388 282.043 -10.3597C282.136 -11.3435 282.21 -12.216 282.201 -12.346C282.126 -15.8173 279.936 -22.4816 276.205 -23.5954C275.583 -23.7561 274.934 -23.786 274.3 -23.6832C273.667 -23.5804 273.061 -23.3471 272.522 -22.9981C271.982 -22.6492 271.522 -22.1921 271.168 -21.6558C270.815 -21.1196 270.577 -20.5158 270.469 -19.8827C269.949 -17.191 271.638 -14.258 273.374 -12.3274C275.109 -10.3968 280.066 -8.13208 281.375 -7.54734C281.189 -6.74911 280.994 -5.96017 280.808 -5.16195C279.927 -1.32861 279.073 2.50471 278.107 6.22666C277.773 7.54466 277.393 8.82554 277.021 10.1064C277.096 9.24322 277.151 8.50068 277.151 8.3893C277.077 4.91795 274.887 -1.74629 271.155 -2.86009C270.534 -3.02081 269.885 -3.05072 269.251 -2.94792C268.617 -2.84512 268.012 -2.61185 267.472 -2.26289C266.933 -1.91391 266.472 -1.45683 266.119 -0.920563C265.766 -0.384296 265.527 0.21949 265.419 0.852577C264.9 3.55355 266.58 6.48655 268.325 8.41714C270.069 10.3477 274.534 12.3897 276.084 13.058C275.666 14.3667 275.239 15.6661 274.766 16.9099C274.432 17.7545 274.163 18.5899 273.773 19.4159L272.705 21.8106C271.879 21.9498 270.923 22.1355 269.856 22.3768C269.578 18.8776 268.269 14.608 265.605 13.3457C265.012 13.0909 264.372 12.9625 263.727 12.9688C263.082 12.9752 262.445 13.116 261.857 13.3824C261.269 13.6489 260.743 14.035 260.313 14.5161C259.883 14.9972 259.558 15.5628 259.358 16.1766C258.43 18.7662 259.665 21.922 261.094 24.0846C261.303 24.413 261.539 24.7235 261.799 25.0128C257.238 26.8732 253.136 29.7048 249.78 33.3106C240.155 44.0773 240.879 60.4317 240.879 60.4317C240.879 60.4317 254.532 59.5035 264.231 51.15C267.211 49.7392 271.063 47.8643 275.471 45.4974C277.124 44.625 278.868 43.6411 280.651 42.6294C281.124 43.2141 284.957 47.9664 287.51 49.2565C289.83 50.4353 293.079 51.2799 295.566 50.0733C296.149 49.8047 296.669 49.4182 297.095 48.9382C297.521 48.4582 297.843 47.8952 298.04 47.2846C298.237 46.6741 298.305 46.0293 298.24 45.391C298.176 44.7527 297.979 44.1347 297.664 43.5761C295.613 40.2719 288.605 39.9192 285.236 40.7916C285.041 40.8473 282.943 41.627 281.625 42.1375C282.349 41.7198 283.064 41.3207 283.806 40.8752C285.282 40.012 286.73 39.1116 288.289 38.1463L290.526 36.652C291.278 36.1693 292.021 35.566 292.772 35.0184C294.499 33.719 296.188 32.3082 297.859 30.8602C298.62 32.1504 301.377 36.6891 303.493 38.202C305.609 39.715 308.709 41.0515 311.336 40.2347C311.956 40.0576 312.532 39.7532 313.028 39.3409C313.524 38.9287 313.928 38.4176 314.215 37.8404C314.503 37.2632 314.666 36.6324 314.696 35.9883C314.726 35.3442 314.622 34.701 314.389 34.0995C312.867 30.5261 305.99 29.106 302.537 29.4587C302.314 29.4587 299.864 29.9878 298.518 30.2941C299.511 29.4123 300.513 28.5305 301.497 27.6117C304.282 24.9385 307.066 22.154 309.851 19.3881C310.705 18.5342 311.568 17.6988 312.422 16.8635C312.682 17.3183 315.847 22.7945 318.223 24.493C320.33 26.0059 323.439 27.3332 326.057 26.5164C326.676 26.3401 327.252 26.0367 327.748 25.6255C328.244 25.2144 328.649 24.7044 328.937 24.1282C329.226 23.5519 329.391 22.922 329.422 22.2785C329.453 21.635 329.35 20.992 329.119 20.3905C327.588 16.8078 320.766 15.397 317.258 15.7497C316.998 15.7497 313.471 16.5108 312.617 16.7428C314.473 14.8865 316.404 13.0301 318.343 11.3502C320.959 9.0067 323.725 6.83637 326.623 4.85298C326.743 5.06646 330.02 10.7933 332.452 12.5289C334.559 14.0418 337.668 15.3784 340.285 14.5523C340.905 14.376 341.481 14.0726 341.977 13.6615C342.473 13.2503 342.878 12.7403 343.166 12.1641C343.454 11.5878 343.619 10.9579 343.651 10.3144C343.682 9.67092 343.579 9.02795 343.348 8.42643C341.817 4.8437 334.948 3.43288 331.486 3.78558C331.217 3.78558 327.421 4.61166 326.734 4.80657C326.91 4.68591 327.068 4.55596 327.235 4.44458C330.195 2.53555 333.32 0.895424 336.573 -0.456139C338.355 -1.22652 340.1 -1.86695 341.817 -2.44242C342.318 -1.31934 344.657 3.81343 346.68 5.62336C348.704 7.43329 351.553 9.02045 354.245 8.50067C354.881 8.39314 355.488 8.15415 356.026 7.79897C356.565 7.44378 357.024 6.98019 357.373 6.43781C357.722 5.89543 357.955 5.28617 358.055 4.64892C358.156 4.01166 358.123 3.36042 357.958 2.73676C356.825 -0.97591 350.152 -3.14782 346.68 -3.20351C346.486 -3.20351 344.564 -3.03645 343.163 -2.87866C343.942 -3.12926 344.741 -3.40771 345.492 -3.63047C348.277 -4.48439 350.941 -5.08769 353.28 -5.60746C354.607 -5.8952 355.814 -6.12724 356.992 -6.32215C358.06 -5.47752 362.413 -2.09899 364.984 -1.43071C367.555 -0.762432 370.878 -0.660332 373.031 -2.35888C373.581 -2.74633 374.041 -3.24879 374.377 -3.83144C374.714 -4.41409 374.92 -5.06298 374.981 -5.73314C375.042 -6.40329 374.956 -7.07869 374.73 -7.71249C374.504 -8.3463 374.143 -8.92336 373.672 -9.40367ZM274.45 43.3998C272.427 44.43 270.515 45.3675 268.751 46.1843C271.738 41.8529 273.789 36.947 274.775 31.7791C275.304 31.9091 275.843 32.0204 276.381 32.1226C276.539 35.0463 278.868 40.244 279.166 40.9123C277.55 41.8033 275.963 42.6758 274.45 43.3998Z"/>
</mask>
<path d="M373.672 -9.40367C370.952 -12.1882 364.037 -11.0372 360.928 -9.4872C360.659 -9.35726 356.695 -6.78624 356.751 -6.7027L356.807 -6.64701C355.721 -6.47066 354.542 -6.27575 353.27 -6.03442C350.922 -5.56106 348.268 -5.01344 345.427 -4.17809C342.35 -3.36285 339.325 -2.36168 336.368 -1.18011C333.047 0.117889 329.848 1.70821 326.808 3.57211L326.706 3.64636C327.449 2.78316 329.435 0.286392 329.574 0.0821991C331.431 -2.86009 333.287 -9.62643 330.772 -12.6058C330.337 -13.0814 329.808 -13.4612 329.218 -13.721C328.628 -13.9809 327.991 -14.115 327.347 -14.115C326.702 -14.115 326.065 -13.9809 325.475 -13.721C324.886 -13.4612 324.357 -13.0814 323.922 -12.6058C322 -10.6381 321.787 -7.26889 322.177 -4.69786C322.622 -1.81126 326.084 3.50714 326.363 3.9341C323.317 5.90028 320.408 8.07099 317.657 10.4313C316.042 11.8049 314.464 13.2158 312.895 14.6823C313.508 13.9119 314.055 13.225 314.12 13.1137C315.977 10.1714 317.833 3.40504 315.327 0.425621C314.892 -0.0499268 314.363 -0.429714 313.773 -0.689548C313.184 -0.949383 312.546 -1.08358 311.902 -1.08358C311.258 -1.08358 310.62 -0.949383 310.031 -0.689548C309.441 -0.429714 308.912 -0.0499268 308.477 0.425621C306.556 2.39334 306.342 5.77187 306.732 8.33361C307.122 10.8953 309.99 15.5269 310.76 16.6871L308.978 18.3671C306.129 21.0773 303.298 23.7969 300.439 26.3772C299.437 27.3054 298.406 28.15 297.385 29.0132C297.933 28.3263 298.388 27.7509 298.453 27.6581C300.309 24.7158 302.166 17.9494 299.65 14.9607C299.219 14.4822 298.692 14.0988 298.104 13.835C297.516 13.5711 296.88 13.4326 296.235 13.4283C295.591 13.4239 294.953 13.5538 294.361 13.8096C293.77 14.0655 293.238 14.4417 292.8 14.9143C290.888 16.882 290.666 20.2606 291.055 22.8223C291.445 25.384 294.044 29.5701 294.954 31.0087C293.886 31.8626 292.81 32.7166 291.733 33.4962C290.981 34.0067 290.294 34.5543 289.515 35.0277L287.25 36.4757C285.774 37.3389 284.261 38.2392 282.804 39.056C281.792 39.6221 280.818 40.1419 279.843 40.6803C280.855 39.7521 282.795 37.9886 282.943 37.8215C284.864 35.4393 286.142 32.605 286.656 29.5886C286.883 29.3352 287.082 29.0582 287.25 28.7626C287.589 28.2153 287.811 27.6033 287.901 26.9657C287.991 26.3281 287.947 25.6787 287.773 25.0589C287.598 24.4391 287.296 23.8624 286.887 23.3654C286.477 22.8685 285.969 22.4623 285.394 22.1726C282.711 20.9381 278.59 22.6924 275.731 24.7251C275.852 22.7481 275.796 21.5322 275.796 21.5322L275.044 21.6064L275.592 20.2977C275.963 19.4809 276.242 18.5713 276.567 17.6988C277.291 15.6568 277.922 13.5499 278.516 11.4244C279.862 12.0741 284.66 14.3481 287.268 14.441C289.877 14.5338 293.19 13.9397 294.926 11.805C295.346 11.3159 295.66 10.7446 295.847 10.1275C296.034 9.51048 296.091 8.86119 296.013 8.22107C295.935 7.58096 295.725 6.96407 295.395 6.40973C295.066 5.85539 294.625 5.37579 294.1 5.00149C290.851 2.86671 284.335 5.47485 281.625 7.64676C281.458 7.78599 279.685 9.56806 278.739 10.5612C279.082 9.28033 279.435 7.99947 279.741 6.68147C280.623 2.90383 281.402 -0.957348 282.201 -4.79996C282.442 -5.97873 282.702 -7.14822 282.952 -8.32699C283.426 -8.08567 289.078 -5.26405 291.993 -5.16195C294.592 -5.06913 297.915 -5.66315 299.65 -7.79794C300.069 -8.28682 300.381 -8.85746 300.568 -9.47359C300.754 -10.0897 300.81 -10.7379 300.732 -11.3768C300.655 -12.0158 300.445 -12.6316 300.116 -13.1851C299.788 -13.7387 299.348 -14.2178 298.824 -14.5921C295.576 -16.7362 289.06 -14.128 286.35 -11.9468C286.145 -11.7891 283.565 -9.22732 282.999 -8.54047C283.546 -11.1208 284.131 -13.6918 284.799 -16.2071C285.686 -19.5997 286.796 -22.9298 288.122 -26.1757C288.345 -26.0643 294.23 -23.0941 297.218 -22.992C299.808 -22.8899 303.14 -23.4933 304.876 -25.628C305.294 -26.1175 305.606 -26.6887 305.791 -27.3052C305.977 -27.9216 306.032 -28.57 305.954 -29.209C305.875 -29.848 305.664 -30.4637 305.335 -31.0168C305.006 -31.57 304.565 -32.0486 304.04 -32.4222C300.792 -34.5663 294.285 -31.9581 291.575 -29.7769C291.362 -29.6099 288.633 -26.8532 288.169 -26.3149C288.252 -26.5005 288.308 -26.7047 288.391 -26.8903C289.802 -30.1305 291.501 -33.237 293.469 -36.172C294.536 -37.7963 295.64 -39.3 296.754 -40.7293C297.794 -40.061 302.574 -37.0723 305.256 -36.6732C307.939 -36.2741 311.197 -36.534 313.155 -38.4553C313.625 -38.8959 313.999 -39.4296 314.251 -40.0225C314.504 -40.6153 314.63 -41.2543 314.623 -41.8987C314.615 -42.5431 314.473 -43.1787 314.206 -43.7652C313.939 -44.3517 313.552 -44.8762 313.071 -45.3052C310.083 -47.7927 303.326 -45.9085 300.393 -44.0429C300.235 -43.9501 298.722 -42.7342 297.608 -41.8431C298.119 -42.4743 298.629 -43.1426 299.13 -43.7459C300.987 -46.0106 302.843 -47.969 304.532 -49.6861C305.461 -50.6143 306.389 -51.5425 307.196 -52.3129C308.561 -52.1922 314.046 -51.7745 316.561 -52.6377C319.077 -53.5009 321.908 -55.2459 322.752 -57.8633C322.967 -58.4705 323.053 -59.1157 323.005 -59.7579C322.957 -60.4002 322.775 -61.0253 322.472 -61.5937C322.169 -62.162 321.752 -62.6611 321.245 -63.0591C320.739 -63.4572 320.155 -63.7455 319.532 -63.9057C315.726 -64.7317 310.593 -59.9424 308.848 -56.9444C308.7 -56.6845 306.816 -52.35 306.881 -52.3036H306.964C306.147 -51.561 305.284 -50.7443 304.356 -49.8439C302.648 -48.1547 300.745 -46.2334 298.787 -43.9965C296.675 -41.6135 294.704 -39.1094 292.884 -36.4969C290.833 -33.5674 289.047 -30.4613 287.547 -27.2152L287.491 -27.0945C287.64 -28.2269 287.927 -31.4012 287.918 -31.6518C287.844 -35.1232 285.653 -41.7874 281.922 -42.9012C281.3 -43.0634 280.65 -43.0945 280.015 -42.9924C279.38 -42.8903 278.773 -42.6573 278.233 -42.3082C277.693 -41.9591 277.231 -41.5015 276.877 -40.9645C276.523 -40.4274 276.285 -39.8227 276.177 -39.1886C275.666 -36.4969 277.346 -33.5639 279.091 -31.6333C281.05 -29.4614 286.879 -26.9924 287.343 -26.7418C285.889 -23.4262 284.664 -20.0149 283.676 -16.532C283.082 -14.4993 282.553 -12.4388 282.043 -10.3597C282.136 -11.3435 282.21 -12.216 282.201 -12.346C282.126 -15.8173 279.936 -22.4816 276.205 -23.5954C275.583 -23.7561 274.934 -23.786 274.3 -23.6832C273.667 -23.5804 273.061 -23.3471 272.522 -22.9981C271.982 -22.6492 271.522 -22.1921 271.168 -21.6558C270.815 -21.1196 270.577 -20.5158 270.469 -19.8827C269.949 -17.191 271.638 -14.258 273.374 -12.3274C275.109 -10.3968 280.066 -8.13208 281.375 -7.54734C281.189 -6.74911 280.994 -5.96017 280.808 -5.16195C279.927 -1.32861 279.073 2.50471 278.107 6.22666C277.773 7.54466 277.393 8.82554 277.021 10.1064C277.096 9.24322 277.151 8.50068 277.151 8.3893C277.077 4.91795 274.887 -1.74629 271.155 -2.86009C270.534 -3.02081 269.885 -3.05072 269.251 -2.94792C268.617 -2.84512 268.012 -2.61185 267.472 -2.26289C266.933 -1.91391 266.472 -1.45683 266.119 -0.920563C265.766 -0.384296 265.527 0.21949 265.419 0.852577C264.9 3.55355 266.58 6.48655 268.325 8.41714C270.069 10.3477 274.534 12.3897 276.084 13.058C275.666 14.3667 275.239 15.6661 274.766 16.9099C274.432 17.7545 274.163 18.5899 273.773 19.4159L272.705 21.8106C271.879 21.9498 270.923 22.1355 269.856 22.3768C269.578 18.8776 268.269 14.608 265.605 13.3457C265.012 13.0909 264.372 12.9625 263.727 12.9688C263.082 12.9752 262.445 13.116 261.857 13.3824C261.269 13.6489 260.743 14.035 260.313 14.5161C259.883 14.9972 259.558 15.5628 259.358 16.1766C258.43 18.7662 259.665 21.922 261.094 24.0846C261.303 24.413 261.539 24.7235 261.799 25.0128C257.238 26.8732 253.136 29.7048 249.78 33.3106C240.155 44.0773 240.879 60.4317 240.879 60.4317C240.879 60.4317 254.532 59.5035 264.231 51.15C267.211 49.7392 271.063 47.8643 275.471 45.4974C277.124 44.625 278.868 43.6411 280.651 42.6294C281.124 43.2141 284.957 47.9664 287.51 49.2565C289.83 50.4353 293.079 51.2799 295.566 50.0733C296.149 49.8047 296.669 49.4182 297.095 48.9382C297.521 48.4582 297.843 47.8952 298.04 47.2846C298.237 46.6741 298.305 46.0293 298.24 45.391C298.176 44.7527 297.979 44.1347 297.664 43.5761C295.613 40.2719 288.605 39.9192 285.236 40.7916C285.041 40.8473 282.943 41.627 281.625 42.1375C282.349 41.7198 283.064 41.3207 283.806 40.8752C285.282 40.012 286.73 39.1116 288.289 38.1463L290.526 36.652C291.278 36.1693 292.021 35.566 292.772 35.0184C294.499 33.719 296.188 32.3082 297.859 30.8602C298.62 32.1504 301.377 36.6891 303.493 38.202C305.609 39.715 308.709 41.0515 311.336 40.2347C311.956 40.0576 312.532 39.7532 313.028 39.3409C313.524 38.9287 313.928 38.4176 314.215 37.8404C314.503 37.2632 314.666 36.6324 314.696 35.9883C314.726 35.3442 314.622 34.701 314.389 34.0995C312.867 30.5261 305.99 29.106 302.537 29.4587C302.314 29.4587 299.864 29.9878 298.518 30.2941C299.511 29.4123 300.513 28.5305 301.497 27.6117C304.282 24.9385 307.066 22.154 309.851 19.3881C310.705 18.5342 311.568 17.6988 312.422 16.8635C312.682 17.3183 315.847 22.7945 318.223 24.493C320.33 26.0059 323.439 27.3332 326.057 26.5164C326.676 26.3401 327.252 26.0367 327.748 25.6255C328.244 25.2144 328.649 24.7044 328.937 24.1282C329.226 23.5519 329.391 22.922 329.422 22.2785C329.453 21.635 329.35 20.992 329.119 20.3905C327.588 16.8078 320.766 15.397 317.258 15.7497C316.998 15.7497 313.471 16.5108 312.617 16.7428C314.473 14.8865 316.404 13.0301 318.343 11.3502C320.959 9.0067 323.725 6.83637 326.623 4.85298C326.743 5.06646 330.02 10.7933 332.452 12.5289C334.559 14.0418 337.668 15.3784 340.285 14.5523C340.905 14.376 341.481 14.0726 341.977 13.6615C342.473 13.2503 342.878 12.7403 343.166 12.1641C343.454 11.5878 343.619 10.9579 343.651 10.3144C343.682 9.67092 343.579 9.02795 343.348 8.42643C341.817 4.8437 334.948 3.43288 331.486 3.78558C331.217 3.78558 327.421 4.61166 326.734 4.80657C326.91 4.68591 327.068 4.55596 327.235 4.44458C330.195 2.53555 333.32 0.895424 336.573 -0.456139C338.355 -1.22652 340.1 -1.86695 341.817 -2.44242C342.318 -1.31934 344.657 3.81343 346.68 5.62336C348.704 7.43329 351.553 9.02045 354.245 8.50067C354.881 8.39314 355.488 8.15415 356.026 7.79897C356.565 7.44378 357.024 6.98019 357.373 6.43781C357.722 5.89543 357.955 5.28617 358.055 4.64892C358.156 4.01166 358.123 3.36042 357.958 2.73676C356.825 -0.97591 350.152 -3.14782 346.68 -3.20351C346.486 -3.20351 344.564 -3.03645 343.163 -2.87866C343.942 -3.12926 344.741 -3.40771 345.492 -3.63047C348.277 -4.48439 350.941 -5.08769 353.28 -5.60746C354.607 -5.8952 355.814 -6.12724 356.992 -6.32215C358.06 -5.47752 362.413 -2.09899 364.984 -1.43071C367.555 -0.762432 370.878 -0.660332 373.031 -2.35888C373.581 -2.74633 374.041 -3.24879 374.377 -3.83144C374.714 -4.41409 374.92 -5.06298 374.981 -5.73314C375.042 -6.40329 374.956 -7.07869 374.73 -7.71249C374.504 -8.3463 374.143 -8.92336 373.672 -9.40367ZM274.45 43.3998C272.427 44.43 270.515 45.3675 268.751 46.1843C271.738 41.8529 273.789 36.947 274.775 31.7791C275.304 31.9091 275.843 32.0204 276.381 32.1226C276.539 35.0463 278.868 40.244 279.166 40.9123C277.55 41.8033 275.963 42.6758 274.45 43.3998Z" fill="white" stroke="#39404F" mask="url(#path-3-inside-1)"/>
<path d="M233.435 54.7142C233.423 54.701 233.41 54.6872 233.396 54.6726C233.254 54.5194 233.045 54.291 232.778 53.9911C232.245 53.3912 231.483 52.5056 230.568 51.3648C228.739 49.083 226.3 45.7812 223.864 41.7033C218.99 33.5438 214.141 22.296 214.192 9.90351C214.243 -2.48882 219.198 -13.6972 224.153 -21.8174C226.629 -25.8757 229.102 -29.1578 230.956 -31.4249C231.883 -32.5583 232.654 -33.4377 233.194 -34.0333C233.464 -34.3311 233.675 -34.5579 233.819 -34.7099C233.833 -34.7243 233.846 -34.7381 233.858 -34.7512C233.871 -34.7381 233.883 -34.7243 233.897 -34.7098C234.039 -34.5565 234.248 -34.3278 234.514 -34.0277C235.047 -33.4273 235.808 -32.5411 236.722 -31.3995C238.551 -29.116 240.988 -25.8122 243.423 -21.7325C248.294 -13.5694 253.143 -2.31927 253.102 10.0687C253.06 22.4563 248.105 33.6622 243.148 41.7812C240.67 45.8389 238.196 49.1208 236.34 51.3877C235.413 52.5211 234.641 53.4005 234.101 53.996C233.831 54.2938 233.619 54.5205 233.475 54.6726C233.461 54.6871 233.448 54.701 233.435 54.7142Z" fill="white" stroke="#39404F" stroke-width="0.5"/>
<path d="M226.302 58.8256C226.308 59.0117 226.311 59.1637 226.313 59.2789C226.198 59.2726 226.047 59.2632 225.861 59.2497C225.398 59.216 224.725 59.1561 223.884 59.0519C222.203 58.8435 219.858 58.4576 217.201 57.7482C211.883 56.3283 205.34 53.6181 200.376 48.4616C195.413 43.3051 192.954 36.6603 191.737 31.2891C191.129 28.6056 190.833 26.2455 190.689 24.5568C190.616 23.7127 190.582 23.0367 190.566 22.5725C190.56 22.3865 190.556 22.2345 190.554 22.1193C190.669 22.1256 190.821 22.135 191.006 22.1485C191.47 22.1822 192.144 22.2421 192.984 22.3463C194.666 22.5548 197.013 22.9406 199.671 23.65C204.991 25.0699 211.537 27.7801 216.5 32.9366C221.463 38.0931 223.92 44.7379 225.135 50.109C225.741 52.7925 226.037 55.1526 226.18 56.8412C226.252 57.6854 226.286 58.3614 226.302 58.8256Z" fill="white" stroke="#39404F" stroke-width="0.5"/>
<g opacity="0.5">
<g opacity="0.5">
<mask id="path-6-inside-2" fill="white">
<path d="M373.672 -9.40367C370.952 -12.1882 364.037 -11.0372 360.928 -9.4872C360.659 -9.35726 356.695 -6.78624 356.751 -6.7027L356.807 -6.64701C355.721 -6.47066 354.542 -6.27575 353.27 -6.03442C350.922 -5.56106 348.268 -5.01344 345.427 -4.17809C342.35 -3.36285 339.325 -2.36168 336.368 -1.18011C333.047 0.117889 329.848 1.70821 326.808 3.57211L326.706 3.64636C327.449 2.78316 329.435 0.286392 329.574 0.0821991C331.431 -2.86009 333.287 -9.62643 330.772 -12.6058C330.337 -13.0814 329.808 -13.4612 329.218 -13.721C328.628 -13.9809 327.991 -14.115 327.347 -14.115C326.702 -14.115 326.065 -13.9809 325.475 -13.721C324.886 -13.4612 324.357 -13.0814 323.922 -12.6058C322 -10.6381 321.787 -7.26889 322.177 -4.69786C322.622 -1.81126 326.084 3.50714 326.363 3.9341C323.317 5.90028 320.408 8.07099 317.657 10.4313C316.042 11.8049 314.464 13.2158 312.895 14.6823C313.508 13.9119 314.055 13.225 314.12 13.1137C315.977 10.1714 317.833 3.40504 315.327 0.425621C314.892 -0.0499268 314.363 -0.429714 313.773 -0.689548C313.184 -0.949383 312.546 -1.08358 311.902 -1.08358C311.258 -1.08358 310.62 -0.949383 310.031 -0.689548C309.441 -0.429714 308.912 -0.0499268 308.477 0.425621C306.556 2.39334 306.342 5.77187 306.732 8.33361C307.122 10.8953 309.99 15.5269 310.76 16.6871L308.978 18.3671C306.129 21.0773 303.298 23.7969 300.439 26.3772C299.437 27.3054 298.406 28.15 297.385 29.0132C297.933 28.3263 298.388 27.7509 298.453 27.6581C300.309 24.7158 302.166 17.9494 299.65 14.9607C299.219 14.4822 298.692 14.0988 298.104 13.835C297.516 13.5711 296.88 13.4326 296.235 13.4283C295.591 13.4239 294.953 13.5538 294.361 13.8096C293.77 14.0655 293.238 14.4417 292.8 14.9143C290.888 16.882 290.666 20.2606 291.055 22.8223C291.445 25.384 294.044 29.5701 294.954 31.0087C293.886 31.8626 292.81 32.7166 291.733 33.4962C290.981 34.0067 290.294 34.5543 289.515 35.0277L287.25 36.4757C285.774 37.3389 284.261 38.2392 282.804 39.056C281.792 39.6221 280.818 40.1419 279.843 40.6803C280.855 39.7521 282.795 37.9886 282.943 37.8215C284.864 35.4393 286.142 32.605 286.656 29.5886C286.883 29.3352 287.082 29.0582 287.25 28.7626C287.589 28.2153 287.811 27.6033 287.901 26.9657C287.991 26.3281 287.947 25.6787 287.773 25.0589C287.598 24.4391 287.296 23.8624 286.887 23.3654C286.477 22.8685 285.969 22.4623 285.394 22.1726C282.711 20.9381 278.59 22.6924 275.731 24.7251C275.852 22.7481 275.796 21.5322 275.796 21.5322L275.044 21.6064L275.592 20.2977C275.963 19.4809 276.242 18.5713 276.567 17.6988C277.291 15.6568 277.922 13.5499 278.516 11.4244C279.862 12.0741 284.66 14.3481 287.268 14.441C289.877 14.5338 293.19 13.9397 294.926 11.805C295.346 11.3159 295.66 10.7446 295.847 10.1275C296.034 9.51048 296.091 8.86119 296.013 8.22107C295.935 7.58096 295.725 6.96407 295.395 6.40973C295.066 5.85539 294.625 5.37579 294.1 5.00149C290.851 2.86671 284.335 5.47485 281.625 7.64676C281.458 7.78599 279.685 9.56806 278.739 10.5612C279.082 9.28033 279.435 7.99947 279.741 6.68147C280.623 2.90383 281.402 -0.957348 282.201 -4.79996C282.442 -5.97873 282.702 -7.14822 282.952 -8.32699C283.426 -8.08567 289.078 -5.26405 291.993 -5.16195C294.592 -5.06913 297.915 -5.66315 299.65 -7.79794C300.069 -8.28682 300.381 -8.85746 300.568 -9.47359C300.754 -10.0897 300.81 -10.7379 300.732 -11.3768C300.655 -12.0158 300.445 -12.6316 300.116 -13.1851C299.788 -13.7387 299.348 -14.2178 298.824 -14.5921C295.576 -16.7362 289.06 -14.128 286.35 -11.9468C286.145 -11.7891 283.565 -9.22732 282.999 -8.54047C283.546 -11.1208 284.131 -13.6918 284.799 -16.2071C285.686 -19.5997 286.796 -22.9298 288.122 -26.1757C288.345 -26.0643 294.23 -23.0941 297.218 -22.992C299.808 -22.8899 303.14 -23.4933 304.876 -25.628C305.294 -26.1175 305.606 -26.6887 305.791 -27.3052C305.977 -27.9216 306.032 -28.57 305.954 -29.209C305.875 -29.848 305.664 -30.4637 305.335 -31.0168C305.006 -31.57 304.565 -32.0486 304.04 -32.4222C300.792 -34.5663 294.285 -31.9581 291.575 -29.7769C291.362 -29.6099 288.633 -26.8532 288.169 -26.3149C288.252 -26.5005 288.308 -26.7047 288.391 -26.8903C289.802 -30.1305 291.501 -33.237 293.469 -36.172C294.536 -37.7963 295.64 -39.3 296.754 -40.7293C297.794 -40.061 302.574 -37.0723 305.256 -36.6732C307.939 -36.2741 311.197 -36.534 313.155 -38.4553C313.625 -38.8959 313.999 -39.4296 314.251 -40.0225C314.504 -40.6153 314.63 -41.2543 314.623 -41.8987C314.615 -42.5431 314.473 -43.1787 314.206 -43.7652C313.939 -44.3517 313.552 -44.8762 313.071 -45.3052C310.083 -47.7927 303.326 -45.9085 300.393 -44.0429C300.235 -43.9501 298.722 -42.7342 297.608 -41.8431C298.119 -42.4743 298.629 -43.1426 299.13 -43.7459C300.987 -46.0106 302.843 -47.969 304.532 -49.6861C305.461 -50.6143 306.389 -51.5425 307.196 -52.3129C308.561 -52.1922 314.046 -51.7745 316.561 -52.6377C319.077 -53.5009 321.908 -55.2459 322.752 -57.8633C322.967 -58.4705 323.053 -59.1157 323.005 -59.7579C322.957 -60.4002 322.775 -61.0253 322.472 -61.5937C322.169 -62.162 321.752 -62.6611 321.245 -63.0591C320.739 -63.4572 320.155 -63.7455 319.532 -63.9057C315.726 -64.7317 310.593 -59.9424 308.848 -56.9444C308.7 -56.6845 306.816 -52.35 306.881 -52.3036H306.964C306.147 -51.561 305.284 -50.7443 304.356 -49.8439C302.648 -48.1547 300.745 -46.2334 298.787 -43.9965C296.675 -41.6135 294.704 -39.1094 292.884 -36.4969C290.833 -33.5674 289.047 -30.4613 287.547 -27.2152L287.491 -27.0945C287.64 -28.2269 287.927 -31.4012 287.918 -31.6518C287.844 -35.1232 285.653 -41.7874 281.922 -42.9012C281.3 -43.0634 280.65 -43.0945 280.015 -42.9924C279.38 -42.8903 278.773 -42.6573 278.233 -42.3082C277.693 -41.9591 277.231 -41.5015 276.877 -40.9645C276.523 -40.4274 276.285 -39.8227 276.177 -39.1886C275.666 -36.4969 277.346 -33.5639 279.091 -31.6333C281.05 -29.4614 286.879 -26.9924 287.343 -26.7418C285.889 -23.4262 284.664 -20.0149 283.676 -16.532C283.082 -14.4993 282.553 -12.4388 282.043 -10.3597C282.136 -11.3435 282.21 -12.216 282.201 -12.346C282.126 -15.8173 279.936 -22.4816 276.205 -23.5954C275.583 -23.7561 274.934 -23.786 274.3 -23.6832C273.667 -23.5804 273.061 -23.3471 272.522 -22.9981C271.982 -22.6492 271.522 -22.1921 271.168 -21.6558C270.815 -21.1196 270.577 -20.5158 270.469 -19.8827C269.949 -17.191 271.638 -14.258 273.374 -12.3274C275.109 -10.3968 280.066 -8.13208 281.375 -7.54734C281.189 -6.74911 280.994 -5.96017 280.808 -5.16195C279.927 -1.32861 279.073 2.50471 278.107 6.22666C277.773 7.54466 277.393 8.82554 277.021 10.1064C277.096 9.24322 277.151 8.50068 277.151 8.3893C277.077 4.91795 274.887 -1.74629 271.155 -2.86009C270.534 -3.02081 269.885 -3.05072 269.251 -2.94792C268.617 -2.84512 268.012 -2.61185 267.472 -2.26289C266.933 -1.91391 266.472 -1.45683 266.119 -0.920563C265.766 -0.384296 265.527 0.21949 265.419 0.852577C264.9 3.55355 266.58 6.48655 268.325 8.41714C270.069 10.3477 274.534 12.3897 276.084 13.058C275.666 14.3667 275.239 15.6661 274.766 16.9099C274.432 17.7545 274.163 18.5899 273.773 19.4159L272.705 21.8106C271.879 21.9498 270.923 22.1355 269.856 22.3768C269.578 18.8776 268.269 14.608 265.605 13.3457C265.012 13.0909 264.372 12.9625 263.727 12.9688C263.082 12.9752 262.445 13.116 261.857 13.3824C261.269 13.6489 260.743 14.035 260.313 14.5161C259.883 14.9972 259.558 15.5628 259.358 16.1766C258.43 18.7662 259.665 21.922 261.094 24.0846C261.303 24.413 261.539 24.7235 261.799 25.0128C257.238 26.8732 253.136 29.7048 249.78 33.3106C240.155 44.0773 240.879 60.4317 240.879 60.4317C240.879 60.4317 254.532 59.5035 264.231 51.15C267.211 49.7392 271.063 47.8643 275.471 45.4974C277.124 44.625 278.868 43.6411 280.651 42.6294C281.124 43.2141 284.957 47.9664 287.51 49.2565C289.83 50.4353 293.079 51.2799 295.566 50.0733C296.149 49.8047 296.669 49.4182 297.095 48.9382C297.521 48.4582 297.843 47.8952 298.04 47.2846C298.237 46.6741 298.305 46.0293 298.24 45.391C298.176 44.7527 297.979 44.1347 297.664 43.5761C295.613 40.2719 288.605 39.9192 285.236 40.7916C285.041 40.8473 282.943 41.627 281.625 42.1375C282.349 41.7198 283.064 41.3207 283.806 40.8752C285.282 40.012 286.73 39.1116 288.289 38.1463L290.526 36.652C291.278 36.1693 292.021 35.566 292.772 35.0184C294.499 33.719 296.188 32.3082 297.859 30.8602C298.62 32.1504 301.377 36.6891 303.493 38.202C305.609 39.715 308.709 41.0515 311.336 40.2347C311.956 40.0576 312.532 39.7532 313.028 39.3409C313.524 38.9287 313.928 38.4176 314.215 37.8404C314.503 37.2632 314.666 36.6324 314.696 35.9883C314.726 35.3442 314.622 34.701 314.389 34.0995C312.867 30.5261 305.99 29.106 302.537 29.4587C302.314 29.4587 299.864 29.9878 298.518 30.2941C299.511 29.4123 300.513 28.5305 301.497 27.6117C304.282 24.9385 307.066 22.154 309.851 19.3881C310.705 18.5342 311.568 17.6988 312.422 16.8635C312.682 17.3183 315.847 22.7945 318.223 24.493C320.33 26.0059 323.439 27.3332 326.057 26.5164C326.676 26.3401 327.252 26.0367 327.748 25.6255C328.244 25.2144 328.649 24.7044 328.937 24.1282C329.226 23.5519 329.391 22.922 329.422 22.2785C329.453 21.635 329.35 20.992 329.119 20.3905C327.588 16.8078 320.766 15.397 317.258 15.7497C316.998 15.7497 313.471 16.5108 312.617 16.7428C314.473 14.8865 316.404 13.0301 318.343 11.3502C320.959 9.0067 323.725 6.83637 326.623 4.85298C326.743 5.06646 330.02 10.7933 332.452 12.5289C334.559 14.0418 337.668 15.3784 340.285 14.5523C340.905 14.376 341.481 14.0726 341.977 13.6615C342.473 13.2503 342.878 12.7403 343.166 12.1641C343.454 11.5878 343.619 10.9579 343.651 10.3144C343.682 9.67092 343.579 9.02795 343.348 8.42643C341.817 4.8437 334.948 3.43288 331.486 3.78558C331.217 3.78558 327.421 4.61166 326.734 4.80657C326.91 4.68591 327.068 4.55596 327.235 4.44458C330.195 2.53555 333.32 0.895424 336.573 -0.456139C338.355 -1.22652 340.1 -1.86695 341.817 -2.44242C342.318 -1.31934 344.657 3.81343 346.68 5.62336C348.704 7.43329 351.553 9.02045 354.245 8.50067C354.881 8.39314 355.488 8.15415 356.026 7.79897C356.565 7.44378 357.024 6.98019 357.373 6.43781C357.722 5.89543 357.955 5.28617 358.055 4.64892C358.156 4.01166 358.123 3.36042 357.958 2.73676C356.825 -0.97591 350.152 -3.14782 346.68 -3.20351C346.486 -3.20351 344.564 -3.03645 343.163 -2.87866C343.942 -3.12926 344.741 -3.40771 345.492 -3.63047C348.277 -4.48439 350.941 -5.08769 353.28 -5.60746C354.607 -5.8952 355.814 -6.12724 356.992 -6.32215C358.06 -5.47752 362.413 -2.09899 364.984 -1.43071C367.555 -0.762432 370.878 -0.660332 373.031 -2.35888C373.581 -2.74633 374.041 -3.24879 374.377 -3.83144C374.714 -4.41409 374.92 -5.06298 374.981 -5.73314C375.042 -6.40329 374.956 -7.07869 374.73 -7.71249C374.504 -8.3463 374.143 -8.92336 373.672 -9.40367ZM274.45 43.3998C272.427 44.43 270.515 45.3675 268.751 46.1843C271.738 41.8529 273.789 36.947 274.775 31.7791C275.304 31.9091 275.843 32.0204 276.381 32.1226C276.539 35.0463 278.868 40.244 279.166 40.9123C277.55 41.8033 275.963 42.6758 274.45 43.3998Z"/>
</mask>
<path d="M373.672 -9.40367C370.952 -12.1882 364.037 -11.0372 360.928 -9.4872C360.659 -9.35726 356.695 -6.78624 356.751 -6.7027L356.807 -6.64701C355.721 -6.47066 354.542 -6.27575 353.27 -6.03442C350.922 -5.56106 348.268 -5.01344 345.427 -4.17809C342.35 -3.36285 339.325 -2.36168 336.368 -1.18011C333.047 0.117889 329.848 1.70821 326.808 3.57211L326.706 3.64636C327.449 2.78316 329.435 0.286392 329.574 0.0821991C331.431 -2.86009 333.287 -9.62643 330.772 -12.6058C330.337 -13.0814 329.808 -13.4612 329.218 -13.721C328.628 -13.9809 327.991 -14.115 327.347 -14.115C326.702 -14.115 326.065 -13.9809 325.475 -13.721C324.886 -13.4612 324.357 -13.0814 323.922 -12.6058C322 -10.6381 321.787 -7.26889 322.177 -4.69786C322.622 -1.81126 326.084 3.50714 326.363 3.9341C323.317 5.90028 320.408 8.07099 317.657 10.4313C316.042 11.8049 314.464 13.2158 312.895 14.6823C313.508 13.9119 314.055 13.225 314.12 13.1137C315.977 10.1714 317.833 3.40504 315.327 0.425621C314.892 -0.0499268 314.363 -0.429714 313.773 -0.689548C313.184 -0.949383 312.546 -1.08358 311.902 -1.08358C311.258 -1.08358 310.62 -0.949383 310.031 -0.689548C309.441 -0.429714 308.912 -0.0499268 308.477 0.425621C306.556 2.39334 306.342 5.77187 306.732 8.33361C307.122 10.8953 309.99 15.5269 310.76 16.6871L308.978 18.3671C306.129 21.0773 303.298 23.7969 300.439 26.3772C299.437 27.3054 298.406 28.15 297.385 29.0132C297.933 28.3263 298.388 27.7509 298.453 27.6581C300.309 24.7158 302.166 17.9494 299.65 14.9607C299.219 14.4822 298.692 14.0988 298.104 13.835C297.516 13.5711 296.88 13.4326 296.235 13.4283C295.591 13.4239 294.953 13.5538 294.361 13.8096C293.77 14.0655 293.238 14.4417 292.8 14.9143C290.888 16.882 290.666 20.2606 291.055 22.8223C291.445 25.384 294.044 29.5701 294.954 31.0087C293.886 31.8626 292.81 32.7166 291.733 33.4962C290.981 34.0067 290.294 34.5543 289.515 35.0277L287.25 36.4757C285.774 37.3389 284.261 38.2392 282.804 39.056C281.792 39.6221 280.818 40.1419 279.843 40.6803C280.855 39.7521 282.795 37.9886 282.943 37.8215C284.864 35.4393 286.142 32.605 286.656 29.5886C286.883 29.3352 287.082 29.0582 287.25 28.7626C287.589 28.2153 287.811 27.6033 287.901 26.9657C287.991 26.3281 287.947 25.6787 287.773 25.0589C287.598 24.4391 287.296 23.8624 286.887 23.3654C286.477 22.8685 285.969 22.4623 285.394 22.1726C282.711 20.9381 278.59 22.6924 275.731 24.7251C275.852 22.7481 275.796 21.5322 275.796 21.5322L275.044 21.6064L275.592 20.2977C275.963 19.4809 276.242 18.5713 276.567 17.6988C277.291 15.6568 277.922 13.5499 278.516 11.4244C279.862 12.0741 284.66 14.3481 287.268 14.441C289.877 14.5338 293.19 13.9397 294.926 11.805C295.346 11.3159 295.66 10.7446 295.847 10.1275C296.034 9.51048 296.091 8.86119 296.013 8.22107C295.935 7.58096 295.725 6.96407 295.395 6.40973C295.066 5.85539 294.625 5.37579 294.1 5.00149C290.851 2.86671 284.335 5.47485 281.625 7.64676C281.458 7.78599 279.685 9.56806 278.739 10.5612C279.082 9.28033 279.435 7.99947 279.741 6.68147C280.623 2.90383 281.402 -0.957348 282.201 -4.79996C282.442 -5.97873 282.702 -7.14822 282.952 -8.32699C283.426 -8.08567 289.078 -5.26405 291.993 -5.16195C294.592 -5.06913 297.915 -5.66315 299.65 -7.79794C300.069 -8.28682 300.381 -8.85746 300.568 -9.47359C300.754 -10.0897 300.81 -10.7379 300.732 -11.3768C300.655 -12.0158 300.445 -12.6316 300.116 -13.1851C299.788 -13.7387 299.348 -14.2178 298.824 -14.5921C295.576 -16.7362 289.06 -14.128 286.35 -11.9468C286.145 -11.7891 283.565 -9.22732 282.999 -8.54047C283.546 -11.1208 284.131 -13.6918 284.799 -16.2071C285.686 -19.5997 286.796 -22.9298 288.122 -26.1757C288.345 -26.0643 294.23 -23.0941 297.218 -22.992C299.808 -22.8899 303.14 -23.4933 304.876 -25.628C305.294 -26.1175 305.606 -26.6887 305.791 -27.3052C305.977 -27.9216 306.032 -28.57 305.954 -29.209C305.875 -29.848 305.664 -30.4637 305.335 -31.0168C305.006 -31.57 304.565 -32.0486 304.04 -32.4222C300.792 -34.5663 294.285 -31.9581 291.575 -29.7769C291.362 -29.6099 288.633 -26.8532 288.169 -26.3149C288.252 -26.5005 288.308 -26.7047 288.391 -26.8903C289.802 -30.1305 291.501 -33.237 293.469 -36.172C294.536 -37.7963 295.64 -39.3 296.754 -40.7293C297.794 -40.061 302.574 -37.0723 305.256 -36.6732C307.939 -36.2741 311.197 -36.534 313.155 -38.4553C313.625 -38.8959 313.999 -39.4296 314.251 -40.0225C314.504 -40.6153 314.63 -41.2543 314.623 -41.8987C314.615 -42.5431 314.473 -43.1787 314.206 -43.7652C313.939 -44.3517 313.552 -44.8762 313.071 -45.3052C310.083 -47.7927 303.326 -45.9085 300.393 -44.0429C300.235 -43.9501 298.722 -42.7342 297.608 -41.8431C298.119 -42.4743 298.629 -43.1426 299.13 -43.7459C300.987 -46.0106 302.843 -47.969 304.532 -49.6861C305.461 -50.6143 306.389 -51.5425 307.196 -52.3129C308.561 -52.1922 314.046 -51.7745 316.561 -52.6377C319.077 -53.5009 321.908 -55.2459 322.752 -57.8633C322.967 -58.4705 323.053 -59.1157 323.005 -59.7579C322.957 -60.4002 322.775 -61.0253 322.472 -61.5937C322.169 -62.162 321.752 -62.6611 321.245 -63.0591C320.739 -63.4572 320.155 -63.7455 319.532 -63.9057C315.726 -64.7317 310.593 -59.9424 308.848 -56.9444C308.7 -56.6845 306.816 -52.35 306.881 -52.3036H306.964C306.147 -51.561 305.284 -50.7443 304.356 -49.8439C302.648 -48.1547 300.745 -46.2334 298.787 -43.9965C296.675 -41.6135 294.704 -39.1094 292.884 -36.4969C290.833 -33.5674 289.047 -30.4613 287.547 -27.2152L287.491 -27.0945C287.64 -28.2269 287.927 -31.4012 287.918 -31.6518C287.844 -35.1232 285.653 -41.7874 281.922 -42.9012C281.3 -43.0634 280.65 -43.0945 280.015 -42.9924C279.38 -42.8903 278.773 -42.6573 278.233 -42.3082C277.693 -41.9591 277.231 -41.5015 276.877 -40.9645C276.523 -40.4274 276.285 -39.8227 276.177 -39.1886C275.666 -36.4969 277.346 -33.5639 279.091 -31.6333C281.05 -29.4614 286.879 -26.9924 287.343 -26.7418C285.889 -23.4262 284.664 -20.0149 283.676 -16.532C283.082 -14.4993 282.553 -12.4388 282.043 -10.3597C282.136 -11.3435 282.21 -12.216 282.201 -12.346C282.126 -15.8173 279.936 -22.4816 276.205 -23.5954C275.583 -23.7561 274.934 -23.786 274.3 -23.6832C273.667 -23.5804 273.061 -23.3471 272.522 -22.9981C271.982 -22.6492 271.522 -22.1921 271.168 -21.6558C270.815 -21.1196 270.577 -20.5158 270.469 -19.8827C269.949 -17.191 271.638 -14.258 273.374 -12.3274C275.109 -10.3968 280.066 -8.13208 281.375 -7.54734C281.189 -6.74911 280.994 -5.96017 280.808 -5.16195C279.927 -1.32861 279.073 2.50471 278.107 6.22666C277.773 7.54466 277.393 8.82554 277.021 10.1064C277.096 9.24322 277.151 8.50068 277.151 8.3893C277.077 4.91795 274.887 -1.74629 271.155 -2.86009C270.534 -3.02081 269.885 -3.05072 269.251 -2.94792C268.617 -2.84512 268.012 -2.61185 267.472 -2.26289C266.933 -1.91391 266.472 -1.45683 266.119 -0.920563C265.766 -0.384296 265.527 0.21949 265.419 0.852577C264.9 3.55355 266.58 6.48655 268.325 8.41714C270.069 10.3477 274.534 12.3897 276.084 13.058C275.666 14.3667 275.239 15.6661 274.766 16.9099C274.432 17.7545 274.163 18.5899 273.773 19.4159L272.705 21.8106C271.879 21.9498 270.923 22.1355 269.856 22.3768C269.578 18.8776 268.269 14.608 265.605 13.3457C265.012 13.0909 264.372 12.9625 263.727 12.9688C263.082 12.9752 262.445 13.116 261.857 13.3824C261.269 13.6489 260.743 14.035 260.313 14.5161C259.883 14.9972 259.558 15.5628 259.358 16.1766C258.43 18.7662 259.665 21.922 261.094 24.0846C261.303 24.413 261.539 24.7235 261.799 25.0128C257.238 26.8732 253.136 29.7048 249.78 33.3106C240.155 44.0773 240.879 60.4317 240.879 60.4317C240.879 60.4317 254.532 59.5035 264.231 51.15C267.211 49.7392 271.063 47.8643 275.471 45.4974C277.124 44.625 278.868 43.6411 280.651 42.6294C281.124 43.2141 284.957 47.9664 287.51 49.2565C289.83 50.4353 293.079 51.2799 295.566 50.0733C296.149 49.8047 296.669 49.4182 297.095 48.9382C297.521 48.4582 297.843 47.8952 298.04 47.2846C298.237 46.6741 298.305 46.0293 298.24 45.391C298.176 44.7527 297.979 44.1347 297.664 43.5761C295.613 40.2719 288.605 39.9192 285.236 40.7916C285.041 40.8473 282.943 41.627 281.625 42.1375C282.349 41.7198 283.064 41.3207 283.806 40.8752C285.282 40.012 286.73 39.1116 288.289 38.1463L290.526 36.652C291.278 36.1693 292.021 35.566 292.772 35.0184C294.499 33.719 296.188 32.3082 297.859 30.8602C298.62 32.1504 301.377 36.6891 303.493 38.202C305.609 39.715 308.709 41.0515 311.336 40.2347C311.956 40.0576 312.532 39.7532 313.028 39.3409C313.524 38.9287 313.928 38.4176 314.215 37.8404C314.503 37.2632 314.666 36.6324 314.696 35.9883C314.726 35.3442 314.622 34.701 314.389 34.0995C312.867 30.5261 305.99 29.106 302.537 29.4587C302.314 29.4587 299.864 29.9878 298.518 30.2941C299.511 29.4123 300.513 28.5305 301.497 27.6117C304.282 24.9385 307.066 22.154 309.851 19.3881C310.705 18.5342 311.568 17.6988 312.422 16.8635C312.682 17.3183 315.847 22.7945 318.223 24.493C320.33 26.0059 323.439 27.3332 326.057 26.5164C326.676 26.3401 327.252 26.0367 327.748 25.6255C328.244 25.2144 328.649 24.7044 328.937 24.1282C329.226 23.5519 329.391 22.922 329.422 22.2785C329.453 21.635 329.35 20.992 329.119 20.3905C327.588 16.8078 320.766 15.397 317.258 15.7497C316.998 15.7497 313.471 16.5108 312.617 16.7428C314.473 14.8865 316.404 13.0301 318.343 11.3502C320.959 9.0067 323.725 6.83637 326.623 4.85298C326.743 5.06646 330.02 10.7933 332.452 12.5289C334.559 14.0418 337.668 15.3784 340.285 14.5523C340.905 14.376 341.481 14.0726 341.977 13.6615C342.473 13.2503 342.878 12.7403 343.166 12.1641C343.454 11.5878 343.619 10.9579 343.651 10.3144C343.682 9.67092 343.579 9.02795 343.348 8.42643C341.817 4.8437 334.948 3.43288 331.486 3.78558C331.217 3.78558 327.421 4.61166 326.734 4.80657C326.91 4.68591 327.068 4.55596 327.235 4.44458C330.195 2.53555 333.32 0.895424 336.573 -0.456139C338.355 -1.22652 340.1 -1.86695 341.817 -2.44242C342.318 -1.31934 344.657 3.81343 346.68 5.62336C348.704 7.43329 351.553 9.02045 354.245 8.50067C354.881 8.39314 355.488 8.15415 356.026 7.79897C356.565 7.44378 357.024 6.98019 357.373 6.43781C357.722 5.89543 357.955 5.28617 358.055 4.64892C358.156 4.01166 358.123 3.36042 357.958 2.73676C356.825 -0.97591 350.152 -3.14782 346.68 -3.20351C346.486 -3.20351 344.564 -3.03645 343.163 -2.87866C343.942 -3.12926 344.741 -3.40771 345.492 -3.63047C348.277 -4.48439 350.941 -5.08769 353.28 -5.60746C354.607 -5.8952 355.814 -6.12724 356.992 -6.32215C358.06 -5.47752 362.413 -2.09899 364.984 -1.43071C367.555 -0.762432 370.878 -0.660332 373.031 -2.35888C373.581 -2.74633 374.041 -3.24879 374.377 -3.83144C374.714 -4.41409 374.92 -5.06298 374.981 -5.73314C375.042 -6.40329 374.956 -7.07869 374.73 -7.71249C374.504 -8.3463 374.143 -8.92336 373.672 -9.40367ZM274.45 43.3998C272.427 44.43 270.515 45.3675 268.751 46.1843C271.738 41.8529 273.789 36.947 274.775 31.7791C275.304 31.9091 275.843 32.0204 276.381 32.1226C276.539 35.0463 278.868 40.244 279.166 40.9123C277.55 41.8033 275.963 42.6758 274.45 43.3998Z" fill="white" stroke="#39404F" mask="url(#path-6-inside-2)"/>
</g>
<path opacity="0.5" d="M233.437 54.7137C233.425 54.7005 233.412 54.6867 233.398 54.6722C233.256 54.519 233.047 54.2905 232.78 53.9906C232.247 53.3907 231.485 52.5052 230.57 51.3643C228.741 49.0825 226.302 45.7807 223.866 41.7028C218.992 33.5433 214.143 22.2955 214.194 9.90302C214.245 -2.4893 219.2 -13.6977 224.155 -21.8179C226.631 -25.8761 229.104 -29.1583 230.958 -31.4254C231.885 -32.5588 232.656 -33.4382 233.196 -34.0338C233.466 -34.3316 233.677 -34.5583 233.821 -34.7104C233.835 -34.7248 233.848 -34.7386 233.86 -34.7516C233.873 -34.7385 233.885 -34.7248 233.899 -34.7103C234.041 -34.557 234.25 -34.3283 234.516 -34.0282C235.049 -33.4278 235.81 -32.5416 236.724 -31.4C238.553 -29.1165 240.99 -25.8127 243.425 -21.733C248.296 -13.5699 253.145 -2.31976 253.104 10.0682C253.062 22.4558 248.107 33.6617 243.15 41.7807C240.672 45.8384 238.197 49.1203 236.342 51.3872C235.415 52.5206 234.642 53.4 234.103 53.9955C233.833 54.2933 233.621 54.52 233.477 54.6721C233.463 54.6867 233.45 54.7005 233.437 54.7137Z" fill="white" stroke="#39404F" stroke-width="0.5"/>
<path opacity="0.5" d="M226.302 58.8255C226.309 59.0116 226.312 59.1636 226.314 59.2788C226.199 59.2724 226.048 59.2631 225.862 59.2496C225.399 59.2158 224.726 59.156 223.885 59.0518C222.204 58.8433 219.859 58.4574 217.202 57.748C211.884 56.3281 205.341 53.618 200.377 48.4614C195.414 43.3049 192.955 36.6601 191.738 31.289C191.13 28.6055 190.834 26.2453 190.69 24.5567C190.617 23.7125 190.583 23.0366 190.567 22.5723C190.561 22.3863 190.557 22.2344 190.555 22.1192C190.67 22.1255 190.822 22.1349 191.007 22.1484C191.471 22.1821 192.145 22.242 192.985 22.3462C194.667 22.5546 197.014 22.9405 199.672 23.6499C204.992 25.0698 211.538 27.78 216.501 32.9365C221.464 38.093 223.921 44.7377 225.136 50.1089C225.742 52.7924 226.037 55.1525 226.181 56.8411C226.253 57.6853 226.287 58.3613 226.302 58.8255Z" fill="white" stroke="#39404F" stroke-width="0.5"/>
</g>
<path d="M233.723 54.8334L233.193 54.8287L233.282 32.9603L233.284 32.9624V32.4013L233.284 32.393L233.284 32.392L233.043 32.3915L233.202 32.2154L217.32 17.9303L217.674 17.5331L232.876 31.2042L233.291 31.5771L233.294 31.0194L233.377 12.0848L233.379 11.6151L233.11 11.7943L219.794 -7.66609L220.234 -7.96208L232.921 10.5912L233.374 11.2533L233.377 10.4512L233.58 -34.8636H234.111L233.972 -4.18822L233.97 -3.6382L234.386 -3.99801L244.434 -12.6885L244.777 -12.2883L234.059 -3.00237L233.973 -2.92805L233.972 -2.81457L233.87 19.2944L233.868 19.8527L234.286 19.4828L249.609 5.92945L249.963 6.32666L233.955 20.4913L233.871 20.5654L233.87 20.6774L233.778 40.8093L233.775 41.3264L234.182 41.0071L245.642 32.0109L245.967 32.432L233.873 41.9225L233.778 41.9972L233.778 42.1181L233.723 54.8334Z" fill="white" stroke="#39404F" stroke-width="0.5"/>
<path d="M264.533 35.0273L271.652 35.1169L271.642 35.6473L263.621 35.5483L263.507 35.5469L263.431 35.6315L255.273 44.7461L254.901 45.162L255.459 45.1629L266.737 45.181V45.7115L254.54 45.7024L254.429 45.7023L254.354 45.7857L246.938 54.0743L246.593 54.4593L247.109 54.4905L254.983 54.9674L254.954 55.4985L246.267 54.9753L246.146 54.968L246.065 55.058L241.285 60.3948L240.888 60.0406L249.427 50.5001L249.501 50.4166L249.489 50.3052L248.116 38.1915L248.64 38.1343L249.911 49.3313L249.974 49.8856L250.346 49.4697L257.242 41.7567L257.614 41.34H257.33L259.008 28.0192L259.533 28.0811L258.005 40.2222L257.905 41.0177L258.439 40.4201L275.424 21.4313L275.814 21.7833L264.35 34.6107L263.984 35.0203L264.533 35.0273Z" fill="white" stroke="#39404F" stroke-width="0.5"/>
<path d="M208.764 41.4147V41.7482L195.627 39.0834L195.732 38.562L207.72 40.9996L208.507 41.1595L207.95 40.5812L190.284 22.2258L190.666 21.8579L202.596 34.2544L202.978 34.6507L203.026 34.1028L203.644 27.0085L204.176 27.0516L203.474 35.0431L203.464 35.1564L203.543 35.2384L212.036 44.056L212.423 44.4579L212.465 43.9014L213.319 32.6591L213.85 32.6974L212.923 44.8566L212.914 44.9683L212.992 45.049L220.705 53.0683L221.063 53.4409L221.133 52.9287L222.194 45.1108L222.72 45.1825L221.556 53.8083L221.54 53.928L221.624 54.015L226.583 59.1719L226.201 59.5399L217.325 50.3177L217.247 50.237L217.135 50.2413L204.957 50.7051L204.938 50.1745L216.198 49.7478L216.755 49.7266L216.369 49.3247L209.194 41.8622L208.764 41.4147Z" fill="white" stroke="#39404F" stroke-width="0.5"/>
<path d="M210.573 133.925C208.491 133.909 206.478 133.174 204.874 131.846C202.86 130.184 201.536 127.831 201.162 125.246C201.115 124.785 201.247 124.323 201.531 123.956C201.815 123.589 202.229 123.345 202.688 123.275C203.147 123.204 203.615 123.313 203.996 123.578C204.377 123.843 204.641 124.244 204.735 124.699C204.977 126.394 205.841 127.939 207.158 129.033C207.73 129.527 208.404 129.891 209.131 130.099C209.858 130.308 210.622 130.356 211.369 130.24C212.117 130.125 212.83 129.848 213.46 129.43C214.09 129.011 214.622 128.461 215.019 127.817C215.293 127.438 215.702 127.18 216.162 127.096C216.621 127.012 217.096 127.109 217.486 127.367C217.875 127.625 218.15 128.023 218.253 128.479C218.355 128.935 218.278 129.413 218.036 129.813C217.358 130.875 216.462 131.782 215.408 132.471C214.353 133.161 213.164 133.619 211.919 133.813C211.474 133.888 211.024 133.925 210.573 133.925Z" fill="#39404F"/>
<path d="M193.467 139.206C188.892 139.206 184.798 135.567 184.028 130.537C183.991 130.302 184.001 130.063 184.056 129.833C184.112 129.603 184.212 129.386 184.352 129.194C184.492 129.003 184.668 128.841 184.87 128.717C185.073 128.594 185.297 128.512 185.532 128.476C186.005 128.414 186.484 128.536 186.87 128.818C187.255 129.1 187.517 129.519 187.601 129.989C188.14 133.525 191.119 136.013 194.228 135.558C194.975 135.436 195.687 135.157 196.317 134.74C196.948 134.322 197.482 133.775 197.885 133.135C198.159 132.756 198.568 132.498 199.028 132.414C199.488 132.33 199.962 132.427 200.352 132.685C200.742 132.943 201.017 133.341 201.119 133.797C201.222 134.253 201.144 134.731 200.902 135.131C200.225 136.193 199.329 137.1 198.274 137.789C197.22 138.479 196.03 138.937 194.785 139.131C194.349 139.192 193.908 139.217 193.467 139.206Z" fill="#39404F"/>
<path d="M177.818 145.211C175.737 145.197 173.725 144.466 172.119 143.141C170.107 141.478 168.784 139.126 168.407 136.542C168.36 136.08 168.492 135.618 168.776 135.251C169.06 134.884 169.475 134.641 169.933 134.57C170.392 134.5 170.86 134.609 171.241 134.874C171.622 135.139 171.887 135.54 171.98 135.994C172.222 137.69 173.086 139.234 174.403 140.329C174.981 140.814 175.656 141.172 176.382 141.38C177.107 141.588 177.869 141.641 178.617 141.536C179.362 141.414 180.072 141.135 180.701 140.717C181.33 140.299 181.863 139.753 182.264 139.113C182.568 138.819 182.962 138.637 183.383 138.598C183.804 138.559 184.225 138.664 184.578 138.897C184.931 139.129 185.193 139.475 185.323 139.877C185.452 140.28 185.441 140.714 185.29 141.109C184.61 142.171 183.712 143.076 182.656 143.766C181.6 144.455 180.41 144.913 179.164 145.109C178.719 145.18 178.269 145.215 177.818 145.211Z" fill="#39404F"/>
<path d="M160.713 150.111C156.137 150.111 152.044 146.464 151.273 141.442C151.226 141.203 151.227 140.956 151.277 140.717C151.327 140.478 151.424 140.252 151.564 140.052C151.704 139.851 151.883 139.681 152.09 139.552C152.297 139.423 152.528 139.337 152.769 139.299C153.011 139.262 153.257 139.273 153.494 139.333C153.73 139.394 153.952 139.501 154.147 139.649C154.341 139.797 154.503 139.983 154.623 140.196C154.743 140.408 154.819 140.643 154.847 140.885C155.394 144.422 158.365 146.909 161.474 146.454C162.219 146.333 162.93 146.055 163.56 145.639C164.191 145.223 164.726 144.678 165.131 144.041C165.253 143.825 165.418 143.637 165.616 143.488C165.814 143.339 166.041 143.232 166.282 143.174C166.523 143.116 166.773 143.108 167.017 143.15C167.261 143.193 167.494 143.285 167.701 143.421C167.908 143.558 168.085 143.735 168.22 143.943C168.356 144.15 168.448 144.383 168.49 144.628C168.531 144.872 168.523 145.122 168.464 145.363C168.405 145.604 168.297 145.83 168.147 146.027C167.469 147.09 166.573 147.996 165.518 148.687C164.464 149.378 163.276 149.838 162.031 150.037C161.594 150.094 161.153 150.118 160.713 150.111Z" fill="#39404F"/>
<path d="M143.198 157.073C138.632 157.073 134.538 153.434 133.759 148.404C133.787 147.982 133.958 147.583 134.244 147.272C134.53 146.961 134.913 146.757 135.33 146.693C135.748 146.629 136.175 146.709 136.54 146.921C136.906 147.132 137.189 147.462 137.342 147.856C137.88 151.392 140.859 153.871 143.969 153.425C144.714 153.302 145.426 153.022 146.056 152.605C146.686 152.187 147.221 151.641 147.626 151.003C147.899 150.624 148.308 150.365 148.768 150.281C149.228 150.197 149.702 150.294 150.092 150.552C150.482 150.81 150.757 151.208 150.859 151.664C150.962 152.12 150.884 152.598 150.642 152.998C149.963 154.059 149.067 154.965 148.013 155.654C146.959 156.344 145.77 156.802 144.526 156.998C144.085 157.055 143.642 157.08 143.198 157.073Z" fill="#39404F"/>
<path d="M126.24 163.282C124.159 163.27 122.146 162.538 120.541 161.212C118.529 159.549 117.206 157.197 116.829 154.613C116.782 154.151 116.914 153.689 117.198 153.322C117.482 152.955 117.896 152.712 118.355 152.641C118.814 152.571 119.282 152.68 119.663 152.945C120.044 153.21 120.308 153.611 120.402 154.065C120.644 155.761 121.508 157.305 122.825 158.4C123.397 158.894 124.071 159.258 124.798 159.466C125.525 159.674 126.289 159.723 127.036 159.607C127.784 159.491 128.497 159.215 129.127 158.796C129.757 158.378 130.289 157.828 130.686 157.184C130.99 156.89 131.384 156.708 131.805 156.669C132.226 156.63 132.647 156.735 133 156.968C133.353 157.2 133.615 157.546 133.745 157.948C133.874 158.351 133.863 158.785 133.712 159.18C133.032 160.242 132.134 161.147 131.078 161.837C130.022 162.526 128.832 162.984 127.586 163.18C127.141 163.251 126.691 163.286 126.24 163.282Z" fill="#39404F"/>
<path d="M112.438 159.115V170.318L230.529 291.119L232.256 281.633L112.438 159.115Z" fill="white" stroke="#39404F" stroke-width="0.5" stroke-linecap="round" stroke-linejoin="round"/>
<path d="M114.193 167.905L184.316 238.018" stroke="#39404F" stroke-width="0.5" stroke-linecap="round" stroke-linejoin="round"/>
<path d="M147.319 198.014L220.44 272.862" stroke="#39404F" stroke-width="0.5" stroke-linecap="round" stroke-linejoin="round"/>
<path d="M112.438 159.114L232.256 281.632L349.901 237.173L227.968 120.317L112.438 159.114Z" fill="white" stroke="#39404F" stroke-width="0.5" stroke-linecap="round" stroke-linejoin="round"/>
<path d="M110.972 157.184L0 53.6101L113.673 18.1633L227.095 118.47L110.972 157.184Z" fill="white" stroke="#39404F" stroke-width="0.5" stroke-linecap="round" stroke-linejoin="round"/>
<path d="M16.9854 54.2967L49.4712 44.1797" stroke="#39404F" stroke-width="0.5" stroke-linecap="round" stroke-linejoin="round"/>
<path d="M21.7842 58.0278L54.2701 47.9108" stroke="#39404F" stroke-width="0.5" stroke-linecap="round" stroke-linejoin="round"/>
<path d="M132.19 159.987C131.837 159.989 131.491 159.886 131.197 159.69C130.805 159.419 130.533 159.007 130.436 158.541C130.339 158.074 130.425 157.588 130.677 157.184C131.604 155.744 131.962 154.01 131.679 152.32C131.522 151.04 130.987 149.835 130.142 148.86C129.297 147.884 128.181 147.183 126.936 146.844C126.487 146.721 126.102 146.429 125.862 146.03C125.623 145.63 125.546 145.153 125.649 144.699C125.752 144.244 126.026 143.847 126.415 143.59C126.803 143.332 127.276 143.234 127.735 143.317C129.688 143.818 131.448 144.89 132.789 146.396C134.13 147.902 134.991 149.774 135.262 151.773C135.686 154.355 135.13 157.004 133.703 159.198C133.532 159.441 133.306 159.639 133.042 159.776C132.779 159.914 132.487 159.986 132.19 159.987Z" fill="#39404F"/>
<path d="M149.129 153.778C148.776 153.78 148.43 153.676 148.136 153.481C147.937 153.35 147.766 153.182 147.633 152.985C147.499 152.788 147.406 152.567 147.359 152.334C147.311 152.101 147.311 151.861 147.356 151.628C147.402 151.394 147.494 151.172 147.626 150.975C148.549 149.533 148.906 147.8 148.628 146.111C148.471 144.83 147.936 143.626 147.091 142.65C146.246 141.675 145.13 140.973 143.885 140.635C143.642 140.594 143.41 140.505 143.203 140.372C142.996 140.239 142.818 140.065 142.68 139.861C142.543 139.657 142.448 139.427 142.403 139.185C142.357 138.943 142.361 138.694 142.415 138.454C142.468 138.214 142.571 137.987 142.715 137.788C142.859 137.588 143.043 137.42 143.255 137.294C143.466 137.168 143.701 137.087 143.945 137.055C144.189 137.023 144.437 137.041 144.674 137.108C146.628 137.608 148.388 138.68 149.728 140.187C151.069 141.693 151.931 143.565 152.202 145.563C152.626 148.146 152.07 150.794 150.642 152.989C150.472 153.232 150.245 153.43 149.982 153.567C149.719 153.705 149.426 153.777 149.129 153.778Z" fill="#39404F"/>
<path d="M216.523 130.629C216.205 130.613 215.897 130.516 215.628 130.347C215.358 130.177 215.137 129.941 214.985 129.662C214.833 129.382 214.756 129.068 214.76 128.75C214.765 128.432 214.851 128.12 215.01 127.845C215.939 126.409 216.296 124.677 216.013 122.991C215.857 121.708 215.322 120.502 214.478 119.525C213.633 118.548 212.516 117.844 211.27 117.505C211.038 117.455 210.819 117.359 210.624 117.223C210.43 117.087 210.264 116.914 210.138 116.714C210.011 116.513 209.925 116.29 209.885 116.056C209.845 115.822 209.852 115.583 209.905 115.352C210.02 114.889 210.309 114.488 210.712 114.232C211.114 113.976 211.6 113.885 212.068 113.978C214.021 114.479 215.781 115.551 217.122 117.057C218.463 118.563 219.324 120.435 219.595 122.434C220.02 125.018 219.461 127.668 218.027 129.859C217.859 130.101 217.634 130.298 217.371 130.433C217.109 130.567 216.818 130.635 216.523 130.629Z" fill="#39404F"/>
<path d="M199.389 135.891C199.036 135.894 198.69 135.79 198.396 135.594C198.197 135.464 198.026 135.296 197.893 135.099C197.759 134.902 197.666 134.681 197.619 134.448C197.571 134.215 197.57 133.975 197.616 133.741C197.662 133.508 197.753 133.286 197.886 133.088C198.81 131.647 199.167 129.914 198.888 128.225C198.73 126.944 198.195 125.74 197.351 124.764C196.506 123.789 195.39 123.087 194.145 122.749C193.902 122.708 193.67 122.619 193.463 122.486C193.256 122.353 193.078 122.179 192.94 121.975C192.803 121.771 192.708 121.541 192.662 121.299C192.617 121.057 192.621 120.808 192.675 120.568C192.728 120.328 192.83 120.101 192.975 119.901C193.119 119.702 193.303 119.534 193.514 119.408C193.726 119.282 193.961 119.201 194.205 119.169C194.449 119.136 194.697 119.154 194.934 119.222C196.889 119.72 198.65 120.791 199.991 122.298C201.332 123.805 202.193 125.678 202.461 127.677C202.886 130.26 202.329 132.908 200.902 135.103C200.731 135.345 200.505 135.544 200.242 135.681C199.978 135.818 199.686 135.891 199.389 135.891Z" fill="#39404F"/>
<path d="M183.741 141.925C183.387 141.924 183.041 141.817 182.748 141.618C182.356 141.347 182.084 140.936 181.987 140.469C181.89 140.003 181.976 139.517 182.228 139.112C183.16 137.674 183.521 135.939 183.24 134.249C183.082 132.968 182.547 131.763 181.702 130.788C180.857 129.813 179.742 129.111 178.497 128.773C178.254 128.732 178.022 128.643 177.814 128.51C177.607 128.377 177.429 128.203 177.292 127.999C177.154 127.795 177.06 127.565 177.014 127.323C176.968 127.081 176.972 126.832 177.026 126.592C177.08 126.352 177.182 126.125 177.326 125.925C177.471 125.726 177.654 125.558 177.866 125.432C178.077 125.306 178.312 125.225 178.556 125.192C178.801 125.16 179.049 125.178 179.286 125.245C181.239 125.746 182.999 126.818 184.34 128.324C185.681 129.831 186.542 131.703 186.813 133.701C187.237 136.284 186.681 138.932 185.254 141.126C185.084 141.371 184.858 141.571 184.595 141.71C184.331 141.849 184.038 141.923 183.741 141.925Z" fill="#39404F"/>
<path d="M166.634 146.817C166.282 146.814 165.937 146.711 165.641 146.52C165.442 146.389 165.271 146.221 165.138 146.024C165.004 145.827 164.911 145.606 164.864 145.373C164.816 145.14 164.816 144.9 164.861 144.667C164.907 144.433 164.999 144.211 165.131 144.014C166.054 142.572 166.411 140.839 166.133 139.15C165.976 137.869 165.441 136.665 164.596 135.689C163.751 134.714 162.635 134.012 161.39 133.674C161.112 133.674 160.837 133.611 160.587 133.491C160.336 133.371 160.115 133.196 159.941 132.979C159.767 132.762 159.644 132.508 159.581 132.237C159.518 131.966 159.517 131.685 159.578 131.413C159.638 131.142 159.759 130.887 159.931 130.669C160.103 130.45 160.322 130.273 160.572 130.151C160.822 130.028 161.096 129.963 161.374 129.961C161.652 129.959 161.928 130.019 162.179 130.137C164.135 130.635 165.896 131.706 167.238 133.213C168.579 134.719 169.439 136.593 169.707 138.593C170.132 141.176 169.576 143.825 168.147 146.018C167.978 146.263 167.752 146.463 167.488 146.602C167.225 146.741 166.932 146.815 166.634 146.817Z" fill="#39404F"/>
<path d="M206.425 238.584L301.144 203.601" stroke="#39404F" stroke-width="0.5" stroke-linecap="round" stroke-linejoin="round"/>
<path d="M286.943 195.379L290.916 193.912" stroke="#39404F" stroke-width="0.5" stroke-linecap="round" stroke-linejoin="round"/>
<path d="M196.196 228.895L281.263 197.477" stroke="#39404F" stroke-width="0.5" stroke-linecap="round" stroke-linejoin="round"/>
<path d="M185.967 219.204L280.696 184.222" stroke="#39404F" stroke-width="0.5" stroke-linecap="round" stroke-linejoin="round"/>
<path d="M175.739 209.524L270.468 174.541" stroke="#39404F" stroke-width="0.5" stroke-linecap="round" stroke-linejoin="round"/>
<path d="M165.521 199.834L260.24 164.851" stroke="#39404F" stroke-width="0.5" stroke-linecap="round" stroke-linejoin="round"/>
<path d="M155.292 190.143L250.011 155.161" stroke="#39404F" stroke-width="0.5" stroke-linecap="round" stroke-linejoin="round"/>
<path d="M236.432 146.715L239.792 145.471" stroke="#39404F" stroke-width="0.5" stroke-linecap="round" stroke-linejoin="round"/>
<path d="M145.063 180.453L233.518 147.791" stroke="#39404F" stroke-width="0.5" stroke-linecap="round" stroke-linejoin="round"/>
<path d="M163.116 160.321L229.564 135.789" stroke="#39404F" stroke-width="0.5" stroke-linecap="round" stroke-linejoin="round"/>
<path d="M134.844 170.772L153.138 164.015" stroke="#39404F" stroke-width="0.5" stroke-linecap="round" stroke-linejoin="round"/>
<g style="mix-blend-mode:multiply">
<path d="M167.701 195.824C177.289 197.077 176.445 180.667 174.013 175.163C172.239 177.196 170.917 179.583 170.134 182.166C169.352 184.748 169.127 187.468 169.474 190.144C169.575 191.393 170.011 192.592 170.736 193.615C171.104 194.121 171.612 194.507 172.199 194.725C172.785 194.943 173.422 194.983 174.031 194.84C174.904 194.47 175.643 193.842 176.148 193.039C177.911 190.7 179.081 187.805 180.937 185.661C183.508 187.396 192.641 190.366 191.323 183.981C190.599 180.453 192.353 180.853 194.237 182.579C195.017 183.284 196.242 182.904 197.208 182.477L206.489 178.393C207.671 177.791 208.95 177.404 210.267 177.251C214.722 177.029 217.637 181.168 222.008 178.244C223.865 177.019 224.292 173.696 226.649 172.434C228.329 171.506 230.306 171.45 232.218 171.19C238.79 170.318 242.15 166.847 248.22 163.709" stroke="white" stroke-width="0.5" stroke-linecap="round" stroke-linejoin="round"/>
</g>
<g style="mix-blend-mode:multiply">
<path d="M175.146 206.08C178.738 206.692 181.81 203.416 184.984 202.367C189.04 201.012 190.804 199.36 194.702 197.68C199.853 195.471 205.905 194.45 204.828 186.662C204.095 189.447 204.012 192.51 203.445 195.424C207.622 197.494 208.745 193.939 209.172 190.783C210.574 190.748 211.959 190.468 213.265 189.957C213.265 190.542 213.451 191.201 213.442 191.758C215.447 192.565 216.226 192.018 216.644 190.245C218.862 189.827 219.651 187.748 221.526 187.238C221.999 192.445 223.327 197.002 223.02 202.33C219.466 203.258 218.909 197.123 219.809 194.58C220.737 191.888 223.41 190.449 224.394 187.637C224.598 187.98 224.44 188.379 224.552 188.751C229.026 186.078 234.762 186.802 239.198 183.674C240.591 182.69 241.584 180.722 243.06 180.035C246.271 178.55 247.227 180.295 249.622 176.796" stroke="white" stroke-width="0.5" stroke-linecap="round" stroke-linejoin="round"/>
</g>
<g style="mix-blend-mode:multiply">
<path d="M207.482 236.663C213.933 234.807 216.764 218.778 214.908 212.893C212.736 205.774 209.747 213.58 209.051 217.404C208.494 220.467 207.603 228.542 210.462 230.872C216.801 236.014 220.672 225.442 221.451 220.662C221.73 223.65 219.929 227.335 220.662 230.556C225.795 231.159 228.338 226.89 228.014 222.481C228.651 223.091 229.083 223.884 229.249 224.751C229.415 225.617 229.308 226.514 228.942 227.317C233.842 226.973 233.035 218.703 233.583 215.371C233.304 217.701 233.518 220.43 235.086 222.314C236.395 223.873 238.892 224.56 240.534 223.353C242.177 222.147 241.852 218.972 239.857 218.555V238.65C239.92 239.231 239.803 239.817 239.523 240.33C238.864 241.258 237.249 241.063 236.497 240.172C235.835 239.2 235.524 238.031 235.615 236.858C235.522 230.277 237.555 221.265 242.651 216.773C242.912 217.413 242.999 218.111 242.901 218.796C243.389 218.606 243.83 218.313 244.194 217.936C244.557 217.56 244.835 217.109 245.008 216.615C245.342 218.091 246.215 219.947 247.709 219.687C248.205 219.557 248.659 219.301 249.027 218.945C251.478 216.921 254.132 215.585 255.775 212.707C256.007 213.431 256.248 214.155 256.49 214.888C256.88 213.487 258.216 212.568 259.525 211.937C261.521 210.998 263.68 210.453 265.883 210.331C267.739 210.238 269.762 210.433 271.452 209.635C272.2 209.235 272.917 208.779 273.596 208.271C275.519 207.003 277.746 206.273 280.047 206.154" stroke="white" stroke-width="0.5" stroke-linecap="round" stroke-linejoin="round"/>
</g>
<path d="M131.01 60.3946C131.01 60.3946 145.814 41.7385 150.826 35.065C155.838 28.3914 159.467 23.2587 159.467 23.2587C159.467 23.2587 162.141 25.3656 161.324 27.7603C160.507 30.1549 142.9 54.2038 138.983 60.3111C135.066 66.4185 135.614 74.1501 135.901 76.8139C136.189 79.4778 128.42 70.7716 131.01 60.3946Z" fill="white" stroke="#39404F" stroke-width="0.5" stroke-linecap="round" stroke-linejoin="round"/>
<path d="M159.468 23.2589C159.468 23.2589 168.685 10.4409 175.525 -0.232992C182.366 -10.9069 192.353 -26.9364 194.729 -29.0712C197.105 -31.2059 197.681 -25.6369 196.91 -21.9057C196.14 -18.1745 187.963 -7.76043 182.44 0.778717C176.918 9.31786 173.502 15.4623 168.75 21.0685C163.998 26.6746 164.276 26.9438 161.324 27.7605C158.373 28.5773 158.948 25.6536 159.468 23.2589Z" fill="#39404F" stroke="#39404F" stroke-width="0.5" stroke-linecap="round" stroke-linejoin="round"/>
<path d="M127.826 62.2698C128.847 55.355 131.159 42.5834 136.44 38.5644C141.721 34.5455 157.704 37.6363 159.031 37.8776C160.359 38.1189 181.391 42.7783 187.805 46.723C194.218 50.6677 198.525 62.0656 200.168 68.6649C201.811 75.2642 205.338 86.4393 205.867 87.2283C205.867 87.2283 211.204 89.5765 214.127 89.2981C217.051 89.0196 220.94 75.4312 229.127 67.4026C237.313 59.3739 241.564 58.2787 250.604 59.0491C259.645 59.8195 293.987 69.129 297.468 72.5539C300.948 75.9789 303.12 83.6919 302.368 89.261C301.617 94.83 302.712 100.956 302.712 102.014C302.712 103.072 305.933 106.516 305.153 109.439C304.373 112.363 303.891 118.721 301.505 119.566C299.12 120.41 281.568 119.965 268.537 118.192C255.505 116.419 237.378 108.558 225.377 103.063C213.376 97.5681 207.519 95.2012 198.748 95.2662C189.977 95.3312 172.973 95.7024 157.268 92.0826C141.563 88.4627 130.889 81.8727 127.938 78.9861C124.986 76.0995 126.815 69.194 127.826 62.2698ZM221.868 94.8671C226.166 101.225 243.485 107.49 252.804 110.08C262.123 112.669 284.473 117.31 290.302 114.089C296.131 110.869 299.194 91.702 298.656 85.0564C298.117 78.4107 295.398 74.7166 295.398 74.7166C283.916 67.6161 247.987 60.1443 240.562 63.1237C233.136 66.1032 226.036 75.7097 223.428 83.4321C220.82 91.1544 221.868 94.8671 221.868 94.8671ZM146.845 83.9426C158.317 90.7739 176.407 92.7787 183.581 93.0015C190.756 93.2242 197.643 89.4559 197.857 81.2137C198.07 72.9716 193.726 59.179 192.102 55.225C190.478 51.271 185.15 48.8949 185.15 48.8949C177.957 45.4886 148.135 37.9797 143.086 38.815C138.036 39.6504 133.618 47.3171 132.588 58.52C131.558 69.723 135.372 77.1112 146.845 83.9426Z" fill="#39404F" stroke="#39404F" stroke-width="0.5" stroke-linecap="round" stroke-linejoin="round"/>
<path d="M301.914 101.781C301.914 101.781 304.865 106.283 306.972 103.081C309.079 99.8786 336.256 69.3975 336.256 69.3975C336.256 69.3975 337.314 69.1191 337.064 71.2539C336.813 73.3887 308.365 111.583 307.307 113.448C306.248 115.314 301.737 115.88 300.679 115.091C299.621 114.302 301.914 101.781 301.914 101.781Z" fill="white" stroke="#39404F" stroke-width="0.5" stroke-linecap="round" stroke-linejoin="round"/>
<path d="M334.399 70.4654C335.952 67.7007 337.353 64.8532 338.595 61.9356C341.472 55.5405 343.236 43.0381 343.7 30.0066C344.164 16.9751 344.628 9.27134 347.032 11.6474C349.436 14.0236 347.375 26.8044 346.93 36.8936C346.484 46.9828 343.347 57.1184 342.586 62.4461C342.01 66.465 338.929 72.8323 336.803 72.8415C334.678 72.8508 334.947 72.3218 334.399 70.4654Z" fill="#39404F" stroke="#39404F" stroke-width="0.5" stroke-linecap="round" stroke-linejoin="round"/>
<path d="M159.032 237.072L170.717 250.298L153.342 246.381L29.71 170.745L35.4089 161.435L159.032 237.072Z" fill="white" stroke="#39404F" stroke-width="0.5" stroke-linecap="round" stroke-linejoin="round"/>
<g style="mix-blend-mode:multiply" opacity="0.5">
<path d="M159.032 237.072L170.717 250.298L153.342 246.381L29.71 170.745L35.4089 161.435L159.032 237.072Z" fill="white"/>
<path d="M159.032 237.072L170.717 250.298L153.342 246.381L29.71 170.745L35.4089 161.435L159.032 237.072Z" stroke="#39404F" stroke-width="0.5" stroke-linecap="round" stroke-linejoin="round"/>
</g>
<path d="M34.1149 163.554L31.0098 168.629L154.639 244.271L157.744 239.196L34.1149 163.554Z" stroke="#39404F" stroke-width="0.5" stroke-linecap="round" stroke-linejoin="round"/>
<path d="M18.7207 157.62C18.3458 158.231 18.0949 158.909 17.9825 159.616C17.8701 160.324 17.8983 161.047 18.0656 161.743C18.2329 162.44 18.5358 163.097 18.9572 163.676C19.3786 164.255 19.9101 164.746 20.5213 165.12L29.7102 170.744L35.4091 161.463L26.2203 155.838C24.989 155.082 23.508 154.845 22.1021 155.179C20.6962 155.513 19.4801 156.391 18.7207 157.62Z" fill="white" stroke="#39404F" stroke-width="0.5" stroke-linecap="round" stroke-linejoin="round"/>
<path d="M18.7207 157.62C18.3458 158.231 18.0949 158.909 17.9825 159.616C17.8701 160.324 17.8983 161.047 18.0656 161.743C18.2329 162.44 18.5358 163.097 18.9572 163.676C19.3786 164.255 19.9101 164.746 20.5213 165.12L24.9208 167.811L30.6198 158.53L26.2203 155.838C24.989 155.082 23.508 154.845 22.1021 155.179C20.6962 155.513 19.4801 156.391 18.7207 157.62Z" fill="#39404F" stroke="#39404F" stroke-width="0.5" stroke-linecap="round" stroke-linejoin="round"/>
<path d="M268.203 113.301L264.945 111.008C264.442 110.655 263.864 110.419 263.257 110.32C262.65 110.22 262.027 110.259 261.437 110.433C257.994 111.435 251.496 113.988 249.64 116.002C247.227 118.489 246.466 122.991 247.626 125.107C248.786 127.223 253.548 129.924 253.548 129.924L273.494 117.784L268.203 113.301Z" fill="white" stroke="#39404F" stroke-width="0.5" stroke-miterlimit="10"/>
<g style="mix-blend-mode:multiply" opacity="0.5">
<path d="M268.203 113.301L264.945 111.008C264.442 110.655 263.864 110.419 263.257 110.32C262.65 110.22 262.027 110.259 261.437 110.433C257.994 111.435 251.496 113.988 249.64 116.002C247.227 118.489 246.466 122.991 247.626 125.107C248.786 127.223 253.548 129.924 253.548 129.924L273.494 117.784L268.203 113.301Z" fill="white"/>
<path d="M268.203 113.301L264.945 111.008C264.442 110.655 263.864 110.419 263.257 110.32C262.65 110.22 262.027 110.259 261.437 110.433C257.994 111.435 251.496 113.988 249.64 116.002C247.227 118.489 246.466 122.991 247.626 125.107C248.786 127.223 253.548 129.924 253.548 129.924L273.494 117.784L268.203 113.301Z" stroke="#39404F" stroke-width="0.5" stroke-miterlimit="10"/>
</g>
<path d="M270.236 112.364L254.457 119.575C254.457 119.575 249.12 122.592 250.809 131.827L343.208 199.862C343.208 199.862 346.42 202.201 352.221 200.224C358.022 198.247 363.962 191.406 365.215 185.624C366.468 179.841 362.43 178.022 361.679 177.382C360.927 176.741 273.354 113.05 273.354 113.05C272.429 112.46 271.324 112.216 270.236 112.364Z" fill="white" stroke="#39404F" stroke-width="0.5" stroke-miterlimit="10"/>
<g style="mix-blend-mode:multiply" opacity="0.5">
<path d="M270.236 112.364L254.457 119.575C254.457 119.575 249.12 122.592 250.809 131.827L343.208 199.862C343.208 199.862 346.42 202.201 352.221 200.224C358.022 198.247 363.962 191.406 365.215 185.624C366.468 179.841 362.43 178.022 361.679 177.382C360.927 176.741 273.354 113.05 273.354 113.05C272.429 112.46 271.324 112.216 270.236 112.364Z" fill="white"/>
<path d="M270.236 112.364L254.457 119.575C254.457 119.575 249.12 122.592 250.809 131.827L343.208 199.862C343.208 199.862 346.42 202.201 352.221 200.224C358.022 198.247 363.962 191.406 365.215 185.624C366.468 179.841 362.43 178.022 361.679 177.382C360.927 176.741 273.354 113.05 273.354 113.05C272.429 112.46 271.324 112.216 270.236 112.364Z" stroke="#39404F" stroke-width="0.5" stroke-miterlimit="10"/>
</g>
<path d="M358.998 195.425C353.178 200.855 346.133 202.767 343.219 199.685C340.304 196.604 342.708 189.689 348.528 184.25C354.347 178.811 361.392 176.908 364.307 179.989C367.221 183.071 364.808 189.986 358.998 195.425Z" fill="white" stroke="#39404F" stroke-width="0.5" stroke-miterlimit="10"/>
<g style="mix-blend-mode:multiply">
<path d="M358.998 195.425C353.178 200.855 346.133 202.767 343.219 199.685C340.304 196.604 342.708 189.689 348.528 184.25C354.347 178.811 361.392 176.908 364.307 179.989C367.221 183.071 364.808 189.986 358.998 195.425Z" fill="white"/>
<path d="M358.998 195.425C353.178 200.855 346.133 202.767 343.219 199.685C340.304 196.604 342.708 189.689 348.528 184.25C354.347 178.811 361.392 176.908 364.307 179.989C367.221 183.071 364.808 189.986 358.998 195.425Z" stroke="#39404F" stroke-width="0.5" stroke-miterlimit="10"/>
</g>
<path d="M273.345 113.05C272.422 112.461 271.321 112.218 270.236 112.363L254.457 119.575C254.457 119.575 249.12 122.592 250.809 131.827L314.704 178.876C314.249 176.704 314.333 173.529 316.774 169.761C319.039 166.243 329.211 160.572 334.706 157.695C308.699 138.77 273.345 113.05 273.345 113.05Z" fill="#39404F" stroke="#39404F" stroke-width="0.5" stroke-linecap="round" stroke-linejoin="round"/>
<path d="M346.661 184.083L312.913 159.625C312.408 159.26 312.003 158.773 311.736 158.21C311.468 157.647 311.347 157.025 311.383 156.403C311.419 155.781 311.611 155.177 311.942 154.649C312.273 154.12 312.731 153.683 313.275 153.379L318.5 150.529C319.114 150.197 319.808 150.045 320.504 150.089C321.2 150.133 321.87 150.373 322.436 150.78L358.115 176.62" fill="white"/>
<path d="M346.661 184.083L312.913 159.625C312.408 159.26 312.003 158.773 311.736 158.21C311.468 157.647 311.347 157.025 311.383 156.403C311.419 155.781 311.611 155.177 311.942 154.649C312.273 154.12 312.731 153.683 313.275 153.379L318.5 150.529C319.114 150.197 319.808 150.045 320.504 150.089C321.2 150.133 321.87 150.373 322.436 150.78L358.115 176.62" stroke="#39404F" stroke-width="0.5" stroke-miterlimit="10"/>
<g style="mix-blend-mode:multiply" opacity="0.5">
<path d="M346.661 184.083L312.913 159.625C312.408 159.26 312.003 158.773 311.736 158.21C311.468 157.647 311.347 157.025 311.383 156.403C311.419 155.781 311.611 155.177 311.942 154.649C312.273 154.12 312.731 153.683 313.275 153.379L318.5 150.529C319.114 150.197 319.808 150.045 320.504 150.089C321.2 150.133 321.87 150.373 322.436 150.78L358.115 176.62" fill="white"/>
<path d="M346.661 184.083L312.913 159.625C312.408 159.26 312.003 158.773 311.736 158.21C311.468 157.647 311.347 157.025 311.383 156.403C311.419 155.781 311.611 155.177 311.942 154.649C312.273 154.12 312.731 153.683 313.275 153.379L318.5 150.529C319.114 150.197 319.808 150.045 320.504 150.089C321.2 150.133 321.87 150.373 322.436 150.78L358.115 176.62" stroke="#39404F" stroke-width="0.5" stroke-miterlimit="10"/>
</g>
</g>
</svg>
