<svg width="506" height="509" viewBox="0 0 506 509" fill="none" xmlns="http://www.w3.org/2000/svg">
<path d="M0 0H491C499.284 0 506 6.71573 506 15V494C506 502.284 499.284 509 491 509H0V0Z" fill="#F4F6FA"/>
<mask id="mask0" mask-type="alpha" maskUnits="userSpaceOnUse" x="0" y="0" width="506" height="509">
<rect width="506" height="509" rx="15" fill="#F4F6FA"/>
</mask>
<g mask="url(#mask0)">
<mask id="path-3-inside-1" fill="white">
<path d="M547.817 49.8959C543.517 45.4936 532.585 47.3132 527.669 49.7639C527.243 49.9693 520.977 54.0341 521.065 54.1662L521.153 54.2542C519.436 54.533 517.573 54.8412 515.562 55.2227C511.85 55.9711 507.653 56.8369 503.163 58.1576C498.297 59.4465 493.514 61.0294 488.84 62.8975C483.59 64.9496 478.532 67.4639 473.726 70.4108L473.564 70.5282C474.738 69.1634 477.878 65.216 478.099 64.8932C481.033 60.2414 483.968 49.5437 479.992 44.8332C479.304 44.0814 478.468 43.4809 477.535 43.0701C476.603 42.6593 475.596 42.4472 474.577 42.4472C473.558 42.4472 472.55 42.6593 471.618 43.0701C470.686 43.4809 469.849 44.0814 469.162 44.8332C466.124 47.9442 465.787 53.271 466.403 57.3359C467.107 61.8996 472.581 70.3081 473.021 70.9831C468.206 74.0917 463.607 77.5236 459.257 81.2552C456.703 83.427 454.209 85.6575 451.729 87.9761C452.697 86.7581 453.563 85.6722 453.666 85.4961C456.601 80.8443 459.535 70.1466 455.573 65.4361C454.886 64.6843 454.049 64.0839 453.117 63.673C452.185 63.2622 451.177 63.0501 450.158 63.0501C449.14 63.0501 448.132 63.2622 447.2 63.673C446.268 64.0839 445.431 64.6843 444.744 65.4361C441.706 68.5471 441.368 73.8886 441.985 77.9388C442.601 81.9889 447.136 89.3115 448.354 91.1458L445.536 93.8018C441.031 98.0868 436.555 102.386 432.036 106.466C430.451 107.933 428.822 109.269 427.208 110.633C428.073 109.548 428.792 108.638 428.895 108.491C431.83 103.839 434.765 93.1415 430.788 88.4163C430.106 87.6598 429.273 87.0536 428.344 86.6365C427.414 86.2194 426.408 86.0004 425.39 85.9935C424.371 85.9866 423.362 86.1919 422.427 86.5964C421.492 87.0009 420.651 87.5957 419.958 88.3429C416.936 91.4539 416.583 96.7954 417.2 100.846C417.816 104.896 421.925 111.514 423.363 113.788C421.675 115.138 419.973 116.489 418.271 117.721C417.082 118.528 415.996 119.394 414.764 120.142L411.183 122.432C408.85 123.796 406.458 125.22 404.154 126.511C402.555 127.406 401.014 128.228 399.473 129.079C401.072 127.612 404.139 124.824 404.374 124.559C407.41 120.793 409.431 116.312 410.244 111.543C410.603 111.142 410.917 110.705 411.183 110.237C411.72 109.372 412.07 108.404 412.212 107.396C412.355 106.388 412.286 105.362 412.01 104.382C411.734 103.402 411.257 102.49 410.609 101.704C409.961 100.919 409.157 100.276 408.248 99.8184C404.007 97.8667 397.492 100.64 392.972 103.854C393.163 100.728 393.075 98.8058 393.075 98.8058L391.886 98.9232L392.752 96.8541C393.339 95.5628 393.779 94.1247 394.293 92.7453C395.438 89.5169 396.435 86.1858 397.374 82.8254C399.502 83.8526 407.089 87.4478 411.213 87.5945C415.336 87.7413 420.575 86.8021 423.319 83.427C423.983 82.6538 424.479 81.7506 424.775 80.775C425.071 79.7994 425.16 78.7729 425.038 77.7608C424.915 76.7488 424.582 75.7735 424.062 74.8971C423.541 74.0207 422.843 73.2624 422.013 72.6706C416.877 69.2955 406.575 73.419 402.29 76.8528C402.026 77.073 399.224 79.8905 397.727 81.4606C398.27 79.4355 398.827 77.4105 399.312 75.3267C400.706 69.3542 401.938 63.2497 403.2 57.1744C403.582 55.3108 403.993 53.4618 404.389 51.5982C405.137 51.9797 414.074 56.4407 418.682 56.6021C422.791 56.7489 428.044 55.8097 430.788 52.4346C431.45 51.6617 431.944 50.7595 432.239 49.7854C432.533 48.8113 432.622 47.7866 432.499 46.7764C432.376 45.7662 432.045 44.7925 431.525 43.9174C431.006 43.0422 430.31 42.2847 429.482 41.6929C424.346 38.3031 414.045 42.4266 409.76 45.8751C409.437 46.1246 405.357 50.1747 404.462 51.2606C405.328 47.1812 406.253 43.1163 407.309 39.1396C408.711 33.7759 410.465 28.511 412.563 23.3792C412.915 23.5553 422.218 28.2511 426.944 28.4125C431.038 28.574 436.306 27.6201 439.05 24.245C439.711 23.4711 440.204 22.5681 440.497 21.5935C440.791 20.6188 440.878 19.5937 440.754 18.5835C440.63 17.5732 440.297 16.5998 439.776 15.7252C439.255 14.8507 438.558 14.094 437.729 13.5033C432.593 10.1135 422.306 14.237 418.021 17.6855C417.684 17.9497 413.37 22.308 412.636 23.1591C412.768 22.8656 412.856 22.5428 412.988 22.2493C415.217 17.1265 417.904 12.2152 421.015 7.57484C422.703 5.00682 424.449 2.62955 426.21 0.369694C427.853 1.42625 435.411 6.15142 439.652 6.78242C443.893 7.41343 449.043 7.00253 452.14 3.96492C452.883 3.26834 453.473 2.42453 453.873 1.48725C454.272 0.549965 454.472 -0.460255 454.46 -1.47905C454.447 -2.49783 454.223 -3.50287 453.801 -4.43013C453.378 -5.3574 452.768 -6.18656 452.007 -6.86481C447.282 -10.7976 436.599 -7.81864 431.962 -4.86908C431.713 -4.72234 429.321 -2.79998 427.56 -1.39124C428.367 -2.3891 429.174 -3.44566 429.966 -4.3995C432.901 -7.98006 435.836 -11.0764 438.507 -13.7911C439.974 -15.2586 441.442 -16.726 442.719 -17.944C444.876 -17.7532 453.548 -17.0929 457.525 -18.4576C461.502 -19.8223 465.978 -22.5811 467.313 -26.7193C467.652 -27.6793 467.788 -28.6994 467.712 -29.7148C467.636 -30.7301 467.349 -31.7185 466.87 -32.6171C466.391 -33.5156 465.731 -34.3047 464.93 -34.934C464.13 -35.5633 463.207 -36.0191 462.221 -36.2724C456.204 -37.5784 448.089 -30.0064 445.331 -25.2666C445.096 -24.8557 442.117 -18.0027 442.22 -17.9293H442.352C441.06 -16.7554 439.696 -15.464 438.228 -14.0406C435.528 -11.3699 432.52 -8.33224 429.424 -4.79571C426.085 -1.02813 422.968 2.9309 420.091 7.06123C416.848 11.6927 414.024 16.6036 411.653 21.7357L411.565 21.9264C411.799 20.1362 412.254 15.1175 412.24 14.7213C412.122 9.23305 408.659 -1.30319 402.76 -3.06412C401.776 -3.32055 400.749 -3.36962 399.745 -3.20821C398.741 -3.0468 397.782 -2.67844 396.928 -2.12651C396.074 -1.57458 395.343 -0.851135 394.784 -0.00207138C394.224 0.846989 393.847 1.80313 393.677 2.80565C392.869 7.06124 395.526 11.6984 398.284 14.7506C401.381 18.1845 410.596 22.0879 411.33 22.4841C409.032 27.7262 407.095 33.1194 405.534 38.626C404.594 41.8397 403.758 45.0974 402.951 48.3845C403.098 46.829 403.215 45.4496 403.2 45.2441C403.083 39.7559 399.62 29.2196 393.721 27.4587C392.737 27.2046 391.712 27.1573 390.71 27.3199C389.708 27.4824 388.75 27.8512 387.898 28.4029C387.045 28.9546 386.317 29.6773 385.758 30.5251C385.199 31.373 384.823 32.3276 384.652 33.3285C383.83 37.5841 386.501 42.2212 389.245 45.2735C391.989 48.3258 399.825 51.9063 401.894 52.8308C401.601 54.0928 401.293 55.3401 400.999 56.6021C399.605 62.6627 398.255 68.7232 396.729 74.6077C396.201 76.6914 395.599 78.7165 395.012 80.7416C395.129 79.3769 395.217 78.2029 395.217 78.0268C395.1 72.5386 391.637 62.0023 385.738 60.2414C384.755 59.9873 383.729 59.94 382.727 60.1025C381.725 60.2651 380.767 60.6339 379.915 61.1856C379.062 61.7373 378.334 62.46 377.775 63.3078C377.216 64.1557 376.84 65.1102 376.669 66.1112C375.847 70.3814 378.503 75.0185 381.262 78.0708C384.021 81.1231 391.079 84.3515 393.53 85.4081C392.869 87.4771 392.194 89.5316 391.446 91.498C390.918 92.8333 390.492 94.154 389.876 95.4601L388.188 99.246C386.882 99.4662 385.371 99.7597 383.683 100.141C383.243 94.6089 381.174 87.8587 376.962 85.863C376.025 85.46 375.014 85.2571 373.993 85.2671C372.973 85.2771 371.966 85.4998 371.037 85.921C370.107 86.3422 369.276 86.9527 368.596 87.7133C367.916 88.474 367.402 89.3681 367.086 90.3387C365.619 94.4328 367.571 99.4221 369.831 102.841C370.161 103.36 370.534 103.851 370.946 104.309C363.734 107.25 357.249 111.727 351.942 117.428C336.725 134.45 337.87 160.306 337.87 160.306C337.87 160.306 359.456 158.839 374.791 145.632C379.501 143.401 385.591 140.437 392.561 136.695C395.173 135.316 397.932 133.76 400.75 132.161C401.498 133.085 407.559 140.599 411.594 142.638C415.263 144.502 420.399 145.837 424.331 143.93C425.253 143.505 426.076 142.894 426.749 142.135C427.422 141.376 427.93 140.486 428.242 139.521C428.554 138.556 428.662 137.536 428.559 136.527C428.457 135.518 428.147 134.541 427.648 133.658C424.405 128.434 413.326 127.876 407.999 129.255C407.691 129.343 404.374 130.576 402.29 131.383C403.435 130.723 404.565 130.092 405.739 129.387C408.072 128.023 410.361 126.599 412.827 125.073L416.363 122.71C417.552 121.947 418.726 120.994 419.914 120.128C422.644 118.073 425.315 115.843 427.956 113.554C429.159 115.593 433.518 122.769 436.863 125.161C440.209 127.553 445.11 129.666 449.263 128.375C450.244 128.095 451.155 127.613 451.938 126.962C452.722 126.31 453.362 125.502 453.816 124.589C454.27 123.677 454.529 122.679 454.577 121.661C454.624 120.643 454.459 119.626 454.091 118.675C451.685 113.025 440.811 110.78 435.352 111.338C435 111.338 431.126 112.174 428.998 112.658C430.568 111.264 432.153 109.87 433.708 108.418C438.111 104.191 442.513 99.789 446.915 95.416C448.265 94.066 449.63 92.7453 450.98 91.4246C451.391 92.1436 456.395 100.802 460.152 103.487C463.483 105.879 468.399 107.977 472.537 106.686C473.517 106.407 474.428 105.928 475.212 105.277C475.996 104.627 476.636 103.821 477.092 102.91C477.547 101.999 477.808 101.003 477.858 99.9858C477.907 98.9684 477.744 97.9519 477.38 97.0009C474.958 91.3365 464.173 89.106 458.626 89.6637C458.215 89.6637 452.638 90.8669 451.288 91.2338C454.223 88.2989 457.276 85.364 460.343 82.708C464.478 79.0029 468.85 75.5716 473.432 72.4359C473.623 72.7734 478.803 81.8275 482.648 84.5716C485.979 86.9635 490.895 89.0767 495.033 87.7706C496.013 87.4919 496.924 87.0122 497.708 86.3621C498.492 85.7121 499.132 84.9058 499.588 83.9948C500.043 83.0837 500.304 82.0878 500.354 81.0704C500.403 80.0531 500.24 79.0365 499.875 78.0855C497.454 72.4212 486.595 70.1907 481.122 70.7483C480.696 70.7483 474.694 72.0543 473.608 72.3625C473.887 72.1717 474.137 71.9663 474.401 71.7902C479.08 68.772 484.021 66.1789 489.163 64.0421C491.981 62.8241 494.739 61.8116 497.454 60.9017C498.247 62.6773 501.945 70.7923 505.144 73.6538C508.343 76.5154 512.848 79.0247 517.103 78.2029C518.109 78.0329 519.068 77.655 519.92 77.0935C520.771 76.5319 521.496 75.799 522.049 74.9415C522.601 74.084 522.968 73.1207 523.128 72.1132C523.287 71.1057 523.234 70.0761 522.973 69.0901C521.183 63.2203 510.632 59.7865 505.144 59.6984C504.835 59.6984 501.798 59.9626 499.582 60.212C500.815 59.8158 502.077 59.3756 503.265 59.0234C507.668 57.6734 511.879 56.7195 515.577 55.8978C517.676 55.4429 519.583 55.076 521.447 54.7678C523.134 56.1032 530.017 61.4447 534.082 62.5013C538.146 63.5578 543.4 63.7192 546.804 61.0338C547.674 60.4213 548.4 59.6269 548.933 58.7057C549.465 57.7845 549.791 56.7586 549.887 55.6991C549.983 54.6395 549.848 53.5717 549.491 52.5697C549.133 51.5676 548.562 50.6553 547.817 49.8959ZM390.947 133.379C387.748 135.008 384.725 136.49 381.937 137.781C386.658 130.933 389.902 123.177 391.461 115.006C392.297 115.212 393.148 115.388 393.999 115.549C394.249 120.172 397.932 128.389 398.402 129.446C395.848 130.855 393.339 132.234 390.947 133.379Z"/>
</mask>
<path d="M547.817 49.8959C543.517 45.4936 532.585 47.3132 527.669 49.7639C527.243 49.9693 520.977 54.0341 521.065 54.1662L521.153 54.2542C519.436 54.533 517.573 54.8412 515.562 55.2227C511.85 55.9711 507.653 56.8369 503.163 58.1576C498.297 59.4465 493.514 61.0294 488.84 62.8975C483.59 64.9496 478.532 67.4639 473.726 70.4108L473.564 70.5282C474.738 69.1634 477.878 65.216 478.099 64.8932C481.033 60.2414 483.968 49.5437 479.992 44.8332C479.304 44.0814 478.468 43.4809 477.535 43.0701C476.603 42.6593 475.596 42.4472 474.577 42.4472C473.558 42.4472 472.55 42.6593 471.618 43.0701C470.686 43.4809 469.849 44.0814 469.162 44.8332C466.124 47.9442 465.787 53.271 466.403 57.3359C467.107 61.8996 472.581 70.3081 473.021 70.9831C468.206 74.0917 463.607 77.5236 459.257 81.2552C456.703 83.427 454.209 85.6575 451.729 87.9761C452.697 86.7581 453.563 85.6722 453.666 85.4961C456.601 80.8443 459.535 70.1466 455.573 65.4361C454.886 64.6843 454.049 64.0839 453.117 63.673C452.185 63.2622 451.177 63.0501 450.158 63.0501C449.14 63.0501 448.132 63.2622 447.2 63.673C446.268 64.0839 445.431 64.6843 444.744 65.4361C441.706 68.5471 441.368 73.8886 441.985 77.9388C442.601 81.9889 447.136 89.3115 448.354 91.1458L445.536 93.8018C441.031 98.0868 436.555 102.386 432.036 106.466C430.451 107.933 428.822 109.269 427.208 110.633C428.073 109.548 428.792 108.638 428.895 108.491C431.83 103.839 434.765 93.1415 430.788 88.4163C430.106 87.6598 429.273 87.0536 428.344 86.6365C427.414 86.2194 426.408 86.0004 425.39 85.9935C424.371 85.9866 423.362 86.1919 422.427 86.5964C421.492 87.0009 420.651 87.5957 419.958 88.3429C416.936 91.4539 416.583 96.7954 417.2 100.846C417.816 104.896 421.925 111.514 423.363 113.788C421.675 115.138 419.973 116.489 418.271 117.721C417.082 118.528 415.996 119.394 414.764 120.142L411.183 122.432C408.85 123.796 406.458 125.22 404.154 126.511C402.555 127.406 401.014 128.228 399.473 129.079C401.072 127.612 404.139 124.824 404.374 124.559C407.41 120.793 409.431 116.312 410.244 111.543C410.603 111.142 410.917 110.705 411.183 110.237C411.72 109.372 412.07 108.404 412.212 107.396C412.355 106.388 412.286 105.362 412.01 104.382C411.734 103.402 411.257 102.49 410.609 101.704C409.961 100.919 409.157 100.276 408.248 99.8184C404.007 97.8667 397.492 100.64 392.972 103.854C393.163 100.728 393.075 98.8058 393.075 98.8058L391.886 98.9232L392.752 96.8541C393.339 95.5628 393.779 94.1247 394.293 92.7453C395.438 89.5169 396.435 86.1858 397.374 82.8254C399.502 83.8526 407.089 87.4478 411.213 87.5945C415.336 87.7413 420.575 86.8021 423.319 83.427C423.983 82.6538 424.479 81.7506 424.775 80.775C425.071 79.7994 425.16 78.7729 425.038 77.7608C424.915 76.7488 424.582 75.7735 424.062 74.8971C423.541 74.0207 422.843 73.2624 422.013 72.6706C416.877 69.2955 406.575 73.419 402.29 76.8528C402.026 77.073 399.224 79.8905 397.727 81.4606C398.27 79.4355 398.827 77.4105 399.312 75.3267C400.706 69.3542 401.938 63.2497 403.2 57.1744C403.582 55.3108 403.993 53.4618 404.389 51.5982C405.137 51.9797 414.074 56.4407 418.682 56.6021C422.791 56.7489 428.044 55.8097 430.788 52.4346C431.45 51.6617 431.944 50.7595 432.239 49.7854C432.533 48.8113 432.622 47.7866 432.499 46.7764C432.376 45.7662 432.045 44.7925 431.525 43.9174C431.006 43.0422 430.31 42.2847 429.482 41.6929C424.346 38.3031 414.045 42.4266 409.76 45.8751C409.437 46.1246 405.357 50.1747 404.462 51.2606C405.328 47.1812 406.253 43.1163 407.309 39.1396C408.711 33.7759 410.465 28.511 412.563 23.3792C412.915 23.5553 422.218 28.2511 426.944 28.4125C431.038 28.574 436.306 27.6201 439.05 24.245C439.711 23.4711 440.204 22.5681 440.497 21.5935C440.791 20.6188 440.878 19.5937 440.754 18.5835C440.63 17.5732 440.297 16.5998 439.776 15.7252C439.255 14.8507 438.558 14.094 437.729 13.5033C432.593 10.1135 422.306 14.237 418.021 17.6855C417.684 17.9497 413.37 22.308 412.636 23.1591C412.768 22.8656 412.856 22.5428 412.988 22.2493C415.217 17.1265 417.904 12.2152 421.015 7.57484C422.703 5.00682 424.449 2.62955 426.21 0.369694C427.853 1.42625 435.411 6.15142 439.652 6.78242C443.893 7.41343 449.043 7.00253 452.14 3.96492C452.883 3.26834 453.473 2.42453 453.873 1.48725C454.272 0.549965 454.472 -0.460255 454.46 -1.47905C454.447 -2.49783 454.223 -3.50287 453.801 -4.43013C453.378 -5.3574 452.768 -6.18656 452.007 -6.86481C447.282 -10.7976 436.599 -7.81864 431.962 -4.86908C431.713 -4.72234 429.321 -2.79998 427.56 -1.39124C428.367 -2.3891 429.174 -3.44566 429.966 -4.3995C432.901 -7.98006 435.836 -11.0764 438.507 -13.7911C439.974 -15.2586 441.442 -16.726 442.719 -17.944C444.876 -17.7532 453.548 -17.0929 457.525 -18.4576C461.502 -19.8223 465.978 -22.5811 467.313 -26.7193C467.652 -27.6793 467.788 -28.6994 467.712 -29.7148C467.636 -30.7301 467.349 -31.7185 466.87 -32.6171C466.391 -33.5156 465.731 -34.3047 464.93 -34.934C464.13 -35.5633 463.207 -36.0191 462.221 -36.2724C456.204 -37.5784 448.089 -30.0064 445.331 -25.2666C445.096 -24.8557 442.117 -18.0027 442.22 -17.9293H442.352C441.06 -16.7554 439.696 -15.464 438.228 -14.0406C435.528 -11.3699 432.52 -8.33224 429.424 -4.79571C426.085 -1.02813 422.968 2.9309 420.091 7.06123C416.848 11.6927 414.024 16.6036 411.653 21.7357L411.565 21.9264C411.799 20.1362 412.254 15.1175 412.24 14.7213C412.122 9.23305 408.659 -1.30319 402.76 -3.06412C401.776 -3.32055 400.749 -3.36962 399.745 -3.20821C398.741 -3.0468 397.782 -2.67844 396.928 -2.12651C396.074 -1.57458 395.343 -0.851135 394.784 -0.00207138C394.224 0.846989 393.847 1.80313 393.677 2.80565C392.869 7.06124 395.526 11.6984 398.284 14.7506C401.381 18.1845 410.596 22.0879 411.33 22.4841C409.032 27.7262 407.095 33.1194 405.534 38.626C404.594 41.8397 403.758 45.0974 402.951 48.3845C403.098 46.829 403.215 45.4496 403.2 45.2441C403.083 39.7559 399.62 29.2196 393.721 27.4587C392.737 27.2046 391.712 27.1573 390.71 27.3199C389.708 27.4824 388.75 27.8512 387.898 28.4029C387.045 28.9546 386.317 29.6773 385.758 30.5251C385.199 31.373 384.823 32.3276 384.652 33.3285C383.83 37.5841 386.501 42.2212 389.245 45.2735C391.989 48.3258 399.825 51.9063 401.894 52.8308C401.601 54.0928 401.293 55.3401 400.999 56.6021C399.605 62.6627 398.255 68.7232 396.729 74.6077C396.201 76.6914 395.599 78.7165 395.012 80.7416C395.129 79.3769 395.217 78.2029 395.217 78.0268C395.1 72.5386 391.637 62.0023 385.738 60.2414C384.755 59.9873 383.729 59.94 382.727 60.1025C381.725 60.2651 380.767 60.6339 379.915 61.1856C379.062 61.7373 378.334 62.46 377.775 63.3078C377.216 64.1557 376.84 65.1102 376.669 66.1112C375.847 70.3814 378.503 75.0185 381.262 78.0708C384.021 81.1231 391.079 84.3515 393.53 85.4081C392.869 87.4771 392.194 89.5316 391.446 91.498C390.918 92.8333 390.492 94.154 389.876 95.4601L388.188 99.246C386.882 99.4662 385.371 99.7597 383.683 100.141C383.243 94.6089 381.174 87.8587 376.962 85.863C376.025 85.46 375.014 85.2571 373.993 85.2671C372.973 85.2771 371.966 85.4998 371.037 85.921C370.107 86.3422 369.276 86.9527 368.596 87.7133C367.916 88.474 367.402 89.3681 367.086 90.3387C365.619 94.4328 367.571 99.4221 369.831 102.841C370.161 103.36 370.534 103.851 370.946 104.309C363.734 107.25 357.249 111.727 351.942 117.428C336.725 134.45 337.87 160.306 337.87 160.306C337.87 160.306 359.456 158.839 374.791 145.632C379.501 143.401 385.591 140.437 392.561 136.695C395.173 135.316 397.932 133.76 400.75 132.161C401.498 133.085 407.559 140.599 411.594 142.638C415.263 144.502 420.399 145.837 424.331 143.93C425.253 143.505 426.076 142.894 426.749 142.135C427.422 141.376 427.93 140.486 428.242 139.521C428.554 138.556 428.662 137.536 428.559 136.527C428.457 135.518 428.147 134.541 427.648 133.658C424.405 128.434 413.326 127.876 407.999 129.255C407.691 129.343 404.374 130.576 402.29 131.383C403.435 130.723 404.565 130.092 405.739 129.387C408.072 128.023 410.361 126.599 412.827 125.073L416.363 122.71C417.552 121.947 418.726 120.994 419.914 120.128C422.644 118.073 425.315 115.843 427.956 113.554C429.159 115.593 433.518 122.769 436.863 125.161C440.209 127.553 445.11 129.666 449.263 128.375C450.244 128.095 451.155 127.613 451.938 126.962C452.722 126.31 453.362 125.502 453.816 124.589C454.27 123.677 454.529 122.679 454.577 121.661C454.624 120.643 454.459 119.626 454.091 118.675C451.685 113.025 440.811 110.78 435.352 111.338C435 111.338 431.126 112.174 428.998 112.658C430.568 111.264 432.153 109.87 433.708 108.418C438.111 104.191 442.513 99.789 446.915 95.416C448.265 94.066 449.63 92.7453 450.98 91.4246C451.391 92.1436 456.395 100.802 460.152 103.487C463.483 105.879 468.399 107.977 472.537 106.686C473.517 106.407 474.428 105.928 475.212 105.277C475.996 104.627 476.636 103.821 477.092 102.91C477.547 101.999 477.808 101.003 477.858 99.9858C477.907 98.9684 477.744 97.9519 477.38 97.0009C474.958 91.3365 464.173 89.106 458.626 89.6637C458.215 89.6637 452.638 90.8669 451.288 91.2338C454.223 88.2989 457.276 85.364 460.343 82.708C464.478 79.0029 468.85 75.5716 473.432 72.4359C473.623 72.7734 478.803 81.8275 482.648 84.5716C485.979 86.9635 490.895 89.0767 495.033 87.7706C496.013 87.4919 496.924 87.0122 497.708 86.3621C498.492 85.7121 499.132 84.9058 499.588 83.9948C500.043 83.0837 500.304 82.0878 500.354 81.0704C500.403 80.0531 500.24 79.0365 499.875 78.0855C497.454 72.4212 486.595 70.1907 481.122 70.7483C480.696 70.7483 474.694 72.0543 473.608 72.3625C473.887 72.1717 474.137 71.9663 474.401 71.7902C479.08 68.772 484.021 66.1789 489.163 64.0421C491.981 62.8241 494.739 61.8116 497.454 60.9017C498.247 62.6773 501.945 70.7923 505.144 73.6538C508.343 76.5154 512.848 79.0247 517.103 78.2029C518.109 78.0329 519.068 77.655 519.92 77.0935C520.771 76.5319 521.496 75.799 522.049 74.9415C522.601 74.084 522.968 73.1207 523.128 72.1132C523.287 71.1057 523.234 70.0761 522.973 69.0901C521.183 63.2203 510.632 59.7865 505.144 59.6984C504.835 59.6984 501.798 59.9626 499.582 60.212C500.815 59.8158 502.077 59.3756 503.265 59.0234C507.668 57.6734 511.879 56.7195 515.577 55.8978C517.676 55.4429 519.583 55.076 521.447 54.7678C523.134 56.1032 530.017 61.4447 534.082 62.5013C538.146 63.5578 543.4 63.7192 546.804 61.0338C547.674 60.4213 548.4 59.6269 548.933 58.7057C549.465 57.7845 549.791 56.7586 549.887 55.6991C549.983 54.6395 549.848 53.5717 549.491 52.5697C549.133 51.5676 548.562 50.6553 547.817 49.8959ZM390.947 133.379C387.748 135.008 384.725 136.49 381.937 137.781C386.658 130.933 389.902 123.177 391.461 115.006C392.297 115.212 393.148 115.388 393.999 115.549C394.249 120.172 397.932 128.389 398.402 129.446C395.848 130.855 393.339 132.234 390.947 133.379Z" fill="white" stroke="#39404F" stroke-width="2" mask="url(#path-3-inside-1)"/>
<path d="M504.144 54.546L504.144 54.5459L504.136 54.5533C504.137 54.5528 504.114 54.5731 504.048 54.6244C503.988 54.6703 503.909 54.7303 503.811 54.8032C503.615 54.9488 503.351 55.1405 503.043 55.3629C502.426 55.8073 501.635 56.3704 500.853 56.9242C500.071 57.4777 499.3 58.0213 498.724 58.4265C498.577 58.5297 498.443 58.6239 498.325 58.707C498.241 58.4384 498.136 58.0937 498.015 57.6879C497.709 56.657 497.307 55.2334 496.922 53.6621C496.146 50.4908 495.467 46.8144 495.734 44.5243L495.734 44.5236C495.964 42.526 496.506 40.2988 497.441 38.3105C498.378 36.3201 499.692 34.6019 501.448 33.5687L501.448 33.5688L501.458 33.5627C502.265 33.0628 503.166 32.7362 504.106 32.6036C505.045 32.471 506.002 32.5354 506.915 32.7926C507.828 33.0499 508.678 33.4943 509.41 34.0977C510.139 34.6991 510.736 35.4452 511.163 36.2888C512.347 38.8986 511.657 42.4995 510.074 46.0089C508.501 49.4966 506.114 52.7407 504.144 54.546Z" fill="white" stroke="#39404F"/>
<path d="M326.103 151.113C325.879 150.872 325.554 150.517 325.142 150.053C324.301 149.106 323.097 147.707 321.652 145.905C318.761 142.301 314.908 137.084 311.06 130.642C303.359 117.75 295.703 99.9865 295.783 80.4204C295.863 60.8547 303.687 43.1532 311.516 30.3234C315.428 23.9122 319.335 18.727 322.263 15.1456C323.727 13.3551 324.946 11.9661 325.798 11.0257C326.215 10.5657 326.544 10.2132 326.77 9.9735C326.994 10.2152 327.319 10.5705 327.73 11.0338C328.571 11.9817 329.774 13.3815 331.218 15.1849C334.106 18.7922 337.956 24.0116 341.803 30.4568C349.499 43.3543 357.156 61.1218 357.091 80.6808C357.025 100.239 349.201 117.937 341.369 130.764C337.455 137.175 333.545 142.359 330.614 145.941C329.149 147.731 327.929 149.12 327.076 150.06C326.659 150.521 326.33 150.874 326.103 151.113Z" fill="white" stroke="#39404F"/>
<path d="M314.719 157.77C314.727 158.007 314.732 158.208 314.736 158.372C314.572 158.363 314.371 158.35 314.135 158.333C313.405 158.279 312.342 158.185 311.015 158.02C308.361 157.691 304.658 157.082 300.462 155.962C292.064 153.72 281.74 149.442 273.911 141.308C266.082 133.175 262.201 122.69 260.279 114.208C259.32 109.971 258.852 106.244 258.624 103.578C258.51 102.246 258.456 101.179 258.43 100.446C258.422 100.21 258.417 100.009 258.413 99.8446C258.577 99.8541 258.778 99.867 259.014 99.8842C259.745 99.9374 260.809 100.032 262.136 100.196C264.791 100.526 268.497 101.135 272.694 102.255C281.096 104.497 291.424 108.775 299.252 116.909C307.081 125.042 310.959 135.526 312.877 144.009C313.835 148.246 314.301 151.972 314.527 154.638C314.641 155.971 314.694 157.038 314.719 157.77Z" fill="white" stroke="#39404F"/>
<g opacity="0.5">
<g opacity="0.5">
<mask id="path-7-inside-2" fill="white">
<path d="M547.817 49.8959C543.518 45.4935 532.585 47.3132 527.669 49.7638C527.244 49.9692 520.978 54.0341 521.066 54.1661L521.154 54.2542C519.437 54.533 517.573 54.8411 515.563 55.2227C511.85 55.9711 507.653 56.8369 503.163 58.1576C498.298 59.4465 493.515 61.0293 488.841 62.8974C483.59 64.9496 478.532 67.4639 473.726 70.4107L473.565 70.5281C474.739 69.1634 477.879 65.216 478.099 64.8931C481.034 60.2413 483.969 49.5437 479.992 44.8332C479.305 44.0813 478.468 43.4809 477.536 43.0701C476.604 42.6593 475.596 42.4471 474.577 42.4471C473.558 42.4471 472.551 42.6593 471.619 43.0701C470.686 43.4809 469.85 44.0813 469.162 44.8332C466.125 47.9442 465.787 53.271 466.404 57.3358C467.108 61.8996 472.582 70.308 473.022 70.983C468.206 74.0916 463.608 77.5235 459.257 81.2551C456.704 83.4269 454.209 85.6575 451.729 87.976C452.698 86.758 453.563 85.6721 453.666 85.496C456.601 80.8442 459.536 70.1466 455.574 65.4361C454.886 64.6842 454.05 64.0838 453.118 63.673C452.185 63.2622 451.178 63.05 450.159 63.05C449.14 63.05 448.133 63.2622 447.2 63.673C446.268 64.0838 445.432 64.6842 444.744 65.4361C441.707 68.5471 441.369 73.8886 441.985 77.9387C442.602 81.9888 447.136 89.3114 448.354 91.1457L445.536 93.8018C441.031 98.0867 436.556 102.386 432.036 106.466C430.451 107.933 428.822 109.269 427.208 110.633C428.074 109.547 428.793 108.638 428.896 108.491C431.831 103.839 434.765 93.1414 430.789 88.4163C430.106 87.6597 429.274 87.0536 428.344 86.6364C427.415 86.2193 426.409 86.0003 425.39 85.9934C424.371 85.9865 423.362 86.1919 422.427 86.5964C421.492 87.0009 420.652 87.5957 419.959 88.3429C416.936 91.4539 416.584 96.7953 417.2 100.846C417.816 104.896 421.925 111.514 423.363 113.788C421.676 115.138 419.974 116.488 418.271 117.721C417.083 118.528 415.997 119.394 414.764 120.142L411.184 122.432C408.85 123.796 406.459 125.22 404.155 126.511C402.555 127.406 401.014 128.228 399.473 129.079C401.073 127.612 404.14 124.824 404.375 124.559C407.411 120.793 409.432 116.312 410.244 111.543C410.603 111.142 410.918 110.705 411.184 110.237C411.72 109.372 412.071 108.404 412.213 107.396C412.355 106.388 412.286 105.362 412.01 104.382C411.734 103.402 411.257 102.49 410.609 101.704C409.962 100.919 409.158 100.276 408.249 99.8183C404.008 97.8666 397.492 100.64 392.973 103.854C393.163 100.728 393.075 98.8058 393.075 98.8058L391.887 98.9232L392.753 96.854C393.34 95.5627 393.78 94.1246 394.293 92.7452C395.438 89.5168 396.436 86.1857 397.375 82.8253C399.503 83.8525 407.09 87.4477 411.213 87.5945C415.337 87.7412 420.575 86.8021 423.319 83.4269C423.984 82.6537 424.48 81.7505 424.776 80.7749C425.072 79.7994 425.161 78.7728 425.038 77.7608C424.915 76.7487 424.583 75.7734 424.062 74.897C423.541 74.0206 422.844 73.2624 422.013 72.6706C416.877 69.2955 406.576 73.419 402.291 76.8528C402.027 77.0729 399.224 79.8904 397.727 81.4606C398.27 79.4355 398.828 77.4104 399.312 75.3267C400.706 69.3542 401.939 63.2496 403.201 57.1744C403.582 55.3107 403.993 53.4618 404.389 51.5981C405.138 51.9796 414.075 56.4407 418.682 56.6021C422.791 56.7488 428.045 55.8097 430.789 52.4345C431.451 51.6616 431.945 50.7594 432.239 49.7853C432.534 48.8112 432.622 47.7865 432.499 46.7763C432.377 45.7661 432.045 44.7925 431.526 43.9173C431.006 43.0422 430.311 42.2846 429.483 41.6929C424.347 38.3031 414.045 42.4266 409.76 45.8751C409.437 46.1245 405.358 50.1747 404.463 51.2606C405.329 47.1811 406.253 43.1163 407.31 39.1395C408.711 33.7759 410.466 28.5109 412.563 23.3792C412.915 23.5552 422.219 28.2511 426.944 28.4125C431.038 28.5739 436.306 27.6201 439.05 24.2449C439.712 23.4711 440.205 22.5681 440.498 21.5934C440.791 20.6187 440.879 19.5937 440.754 18.5834C440.63 17.5731 440.297 16.5998 439.776 15.7252C439.256 14.8506 438.559 14.0939 437.73 13.5033C432.594 10.1135 422.307 14.237 418.022 17.6855C417.684 17.9496 413.37 22.3079 412.636 23.159C412.769 22.8655 412.857 22.5427 412.989 22.2492C415.218 17.1265 417.904 12.2151 421.016 7.57478C422.703 5.00676 424.449 2.62949 426.21 0.369633C427.854 1.42619 435.411 6.15136 439.652 6.78236C443.893 7.41336 449.044 7.00247 452.14 3.96486C452.884 3.26828 453.474 2.42447 453.873 1.48719C454.273 0.549904 454.473 -0.460316 454.46 -1.47911C454.448 -2.49789 454.223 -3.50293 453.801 -4.43019C453.379 -5.35746 452.768 -6.18662 452.008 -6.86487C447.283 -10.7976 436.6 -7.8187 431.963 -4.86914C431.713 -4.7224 429.321 -2.80004 427.56 -1.3913C428.367 -2.38916 429.175 -3.44572 429.967 -4.39956C432.902 -7.98012 435.837 -11.0764 438.507 -13.7912C439.975 -15.2586 441.442 -16.7261 442.719 -17.9441C444.876 -17.7533 453.549 -17.093 457.526 -18.4577C461.502 -19.8224 465.978 -22.5812 467.313 -26.7194C467.653 -27.6793 467.789 -28.6995 467.713 -29.7148C467.637 -30.7302 467.35 -31.7186 466.871 -32.6171C466.392 -33.5157 465.731 -34.3047 464.931 -34.934C464.13 -35.5633 463.208 -36.0191 462.221 -36.2724C456.205 -37.5785 448.09 -30.0065 445.331 -25.2666C445.096 -24.8557 442.117 -18.0028 442.22 -17.9294H442.352C441.061 -16.7554 439.696 -15.4641 438.229 -14.0407C435.529 -11.3699 432.52 -8.33231 429.424 -4.79577C426.085 -1.02819 422.969 2.93084 420.091 7.06117C416.849 11.6927 414.025 16.6035 411.653 21.7356L411.565 21.9264C411.8 20.1361 412.255 15.1174 412.24 14.7212C412.123 9.23299 408.66 -1.30325 402.761 -3.06418C401.776 -3.32061 400.75 -3.36968 399.746 -3.20827C398.742 -3.04686 397.782 -2.6785 396.928 -2.12658C396.074 -1.57465 395.344 -0.851196 394.784 -0.00213242C394.225 0.846928 393.848 1.80307 393.677 2.80559C392.87 7.06118 395.526 11.6983 398.285 14.7506C401.381 18.1844 410.597 22.0878 411.33 22.484C409.032 27.7261 407.096 33.1193 405.534 38.6259C404.595 41.8396 403.758 45.0973 402.951 48.3844C403.098 46.8289 403.215 45.4495 403.201 45.2441C403.083 39.7558 399.62 29.2196 393.721 27.4586C392.738 27.2045 391.713 27.1573 390.711 27.3198C389.708 27.4823 388.751 27.8511 387.898 28.4028C387.046 28.9546 386.317 29.6772 385.758 30.5251C385.2 31.3729 384.823 32.3275 384.652 33.3284C383.831 37.584 386.501 42.2211 389.245 45.2734C391.989 48.3257 399.826 51.9063 401.895 52.8307C401.601 54.0928 401.293 55.3401 401 56.6021C399.606 62.6626 398.255 68.7232 396.729 74.6076C396.201 76.6914 395.599 78.7165 395.012 80.7415C395.13 79.3768 395.218 78.2028 395.218 78.0267C395.1 72.5385 391.637 62.0023 385.738 60.2413C384.755 59.9872 383.73 59.9399 382.728 60.1025C381.725 60.265 380.768 60.6338 379.915 61.1855C379.063 61.7373 378.334 62.4599 377.776 63.3077C377.217 64.1556 376.84 65.1102 376.669 66.1111C375.848 70.3814 378.504 75.0185 381.262 78.0708C384.021 81.123 391.08 84.3514 393.53 85.408C392.87 87.4771 392.195 89.5315 391.447 91.4979C390.918 92.8333 390.493 94.154 389.876 95.46L388.189 99.246C386.883 99.4661 385.371 99.7596 383.684 100.141C383.244 94.6089 381.174 87.8586 376.963 85.8629C376.025 85.46 375.014 85.2571 373.994 85.2671C372.973 85.2771 371.966 85.4998 371.037 85.921C370.108 86.3422 369.276 86.9526 368.596 87.7132C367.916 88.4739 367.402 89.3681 367.087 90.3386C365.62 94.4328 367.571 99.4221 369.831 102.841C370.162 103.36 370.535 103.851 370.946 104.309C363.734 107.25 357.25 111.727 351.943 117.428C336.726 134.45 337.87 160.306 337.87 160.306C337.87 160.306 359.456 158.839 374.791 145.632C379.502 143.401 385.591 140.437 392.562 136.695C395.174 135.316 397.933 133.76 400.75 132.161C401.499 133.085 407.559 140.599 411.595 142.638C415.263 144.502 420.399 145.837 424.332 143.93C425.253 143.505 426.076 142.894 426.749 142.135C427.422 141.376 427.931 140.486 428.242 139.521C428.554 138.555 428.662 137.536 428.56 136.527C428.458 135.518 428.147 134.541 427.648 133.658C424.405 128.433 413.326 127.876 407.999 129.255C407.691 129.343 404.375 130.576 402.291 131.383C403.436 130.723 404.565 130.092 405.739 129.387C408.073 128.023 410.362 126.599 412.827 125.073L416.364 122.71C417.552 121.947 418.726 120.993 419.915 120.128C422.644 118.073 425.315 115.843 427.957 113.554C429.16 115.593 433.518 122.769 436.864 125.161C440.21 127.553 445.111 129.666 449.264 128.375C450.244 128.095 451.155 127.613 451.939 126.962C452.723 126.31 453.362 125.502 453.816 124.589C454.271 123.677 454.53 122.679 454.577 121.661C454.624 120.643 454.459 119.626 454.092 118.675C451.685 113.025 440.811 110.78 435.352 111.338C435 111.338 431.126 112.174 428.998 112.658C430.569 111.264 432.153 109.87 433.709 108.418C438.111 104.191 442.514 99.7889 446.916 95.416C448.266 94.0659 449.631 92.7452 450.981 91.4245C451.392 92.1436 456.396 100.801 460.152 103.487C463.483 105.879 468.399 107.977 472.537 106.686C473.517 106.407 474.428 105.928 475.212 105.277C475.996 104.627 476.637 103.821 477.092 102.91C477.548 101.999 477.809 101.003 477.858 99.9857C477.908 98.9684 477.745 97.9518 477.38 97.0008C474.959 91.3365 464.173 89.106 458.626 89.6636C458.215 89.6636 452.639 90.8669 451.289 91.2337C454.224 88.2989 457.276 85.364 460.343 82.7079C464.478 79.0029 468.851 75.5715 473.433 72.4358C473.623 72.7733 478.803 81.8274 482.648 84.5716C485.979 86.9635 490.895 89.0766 495.033 87.7706C496.013 87.4918 496.924 87.0122 497.708 86.3621C498.492 85.712 499.133 84.9058 499.588 83.9947C500.044 83.0837 500.304 82.0878 500.354 81.0704C500.404 80.053 500.241 79.0365 499.876 78.0855C497.455 72.4211 486.596 70.1906 481.122 70.7482C480.696 70.7482 474.695 72.0543 473.609 72.3624C473.888 72.1716 474.137 71.9662 474.401 71.7901C479.081 68.7719 484.021 66.1788 489.164 64.042C491.981 62.824 494.74 61.8115 497.455 60.9017C498.247 62.6773 501.945 70.7923 505.144 73.6538C508.343 76.5153 512.848 79.0246 517.104 78.2028C518.109 78.0328 519.069 77.655 519.92 77.0934C520.772 76.5319 521.497 75.7989 522.049 74.9414C522.601 74.0839 522.969 73.1207 523.128 72.1132C523.287 71.1057 523.235 70.076 522.974 69.09C521.183 63.2202 510.632 59.7864 505.144 59.6984C504.836 59.6984 501.798 59.9625 499.582 60.212C500.815 59.8158 502.077 59.3755 503.266 59.0234C507.668 57.6733 511.88 56.7195 515.578 55.8977C517.676 55.4428 519.584 55.0759 521.447 54.7678C523.135 56.1031 530.017 61.4446 534.082 62.5012C538.147 63.5578 543.4 63.7192 546.805 61.0338C547.675 60.4212 548.401 59.6268 548.933 58.7056C549.465 57.7844 549.791 56.7586 549.887 55.699C549.984 54.6395 549.848 53.5717 549.491 52.5696C549.134 51.5676 548.562 50.6552 547.817 49.8959ZM390.948 133.379C387.749 135.008 384.726 136.49 381.937 137.781C386.659 130.933 389.902 123.177 391.461 115.006C392.298 115.212 393.149 115.388 394 115.549C394.249 120.172 397.933 128.389 398.402 129.446C395.849 130.855 393.34 132.234 390.948 133.379Z"/>
</mask>
<path d="M547.817 49.8959C543.518 45.4935 532.585 47.3132 527.669 49.7638C527.244 49.9692 520.978 54.0341 521.066 54.1661L521.154 54.2542C519.437 54.533 517.573 54.8411 515.563 55.2227C511.85 55.9711 507.653 56.8369 503.163 58.1576C498.298 59.4465 493.515 61.0293 488.841 62.8974C483.59 64.9496 478.532 67.4639 473.726 70.4107L473.565 70.5281C474.739 69.1634 477.879 65.216 478.099 64.8931C481.034 60.2413 483.969 49.5437 479.992 44.8332C479.305 44.0813 478.468 43.4809 477.536 43.0701C476.604 42.6593 475.596 42.4471 474.577 42.4471C473.558 42.4471 472.551 42.6593 471.619 43.0701C470.686 43.4809 469.85 44.0813 469.162 44.8332C466.125 47.9442 465.787 53.271 466.404 57.3358C467.108 61.8996 472.582 70.308 473.022 70.983C468.206 74.0916 463.608 77.5235 459.257 81.2551C456.704 83.4269 454.209 85.6575 451.729 87.976C452.698 86.758 453.563 85.6721 453.666 85.496C456.601 80.8442 459.536 70.1466 455.574 65.4361C454.886 64.6842 454.05 64.0838 453.118 63.673C452.185 63.2622 451.178 63.05 450.159 63.05C449.14 63.05 448.133 63.2622 447.2 63.673C446.268 64.0838 445.432 64.6842 444.744 65.4361C441.707 68.5471 441.369 73.8886 441.985 77.9387C442.602 81.9888 447.136 89.3114 448.354 91.1457L445.536 93.8018C441.031 98.0867 436.556 102.386 432.036 106.466C430.451 107.933 428.822 109.269 427.208 110.633C428.074 109.547 428.793 108.638 428.896 108.491C431.831 103.839 434.765 93.1414 430.789 88.4163C430.106 87.6597 429.274 87.0536 428.344 86.6364C427.415 86.2193 426.409 86.0003 425.39 85.9934C424.371 85.9865 423.362 86.1919 422.427 86.5964C421.492 87.0009 420.652 87.5957 419.959 88.3429C416.936 91.4539 416.584 96.7953 417.2 100.846C417.816 104.896 421.925 111.514 423.363 113.788C421.676 115.138 419.974 116.488 418.271 117.721C417.083 118.528 415.997 119.394 414.764 120.142L411.184 122.432C408.85 123.796 406.459 125.22 404.155 126.511C402.555 127.406 401.014 128.228 399.473 129.079C401.073 127.612 404.14 124.824 404.375 124.559C407.411 120.793 409.432 116.312 410.244 111.543C410.603 111.142 410.918 110.705 411.184 110.237C411.72 109.372 412.071 108.404 412.213 107.396C412.355 106.388 412.286 105.362 412.01 104.382C411.734 103.402 411.257 102.49 410.609 101.704C409.962 100.919 409.158 100.276 408.249 99.8183C404.008 97.8666 397.492 100.64 392.973 103.854C393.163 100.728 393.075 98.8058 393.075 98.8058L391.887 98.9232L392.753 96.854C393.34 95.5627 393.78 94.1246 394.293 92.7452C395.438 89.5168 396.436 86.1857 397.375 82.8253C399.503 83.8525 407.09 87.4477 411.213 87.5945C415.337 87.7412 420.575 86.8021 423.319 83.4269C423.984 82.6537 424.48 81.7505 424.776 80.7749C425.072 79.7994 425.161 78.7728 425.038 77.7608C424.915 76.7487 424.583 75.7734 424.062 74.897C423.541 74.0206 422.844 73.2624 422.013 72.6706C416.877 69.2955 406.576 73.419 402.291 76.8528C402.027 77.0729 399.224 79.8904 397.727 81.4606C398.27 79.4355 398.828 77.4104 399.312 75.3267C400.706 69.3542 401.939 63.2496 403.201 57.1744C403.582 55.3107 403.993 53.4618 404.389 51.5981C405.138 51.9796 414.075 56.4407 418.682 56.6021C422.791 56.7488 428.045 55.8097 430.789 52.4345C431.451 51.6616 431.945 50.7594 432.239 49.7853C432.534 48.8112 432.622 47.7865 432.499 46.7763C432.377 45.7661 432.045 44.7925 431.526 43.9173C431.006 43.0422 430.311 42.2846 429.483 41.6929C424.347 38.3031 414.045 42.4266 409.76 45.8751C409.437 46.1245 405.358 50.1747 404.463 51.2606C405.329 47.1811 406.253 43.1163 407.31 39.1395C408.711 33.7759 410.466 28.5109 412.563 23.3792C412.915 23.5552 422.219 28.2511 426.944 28.4125C431.038 28.5739 436.306 27.6201 439.05 24.2449C439.712 23.4711 440.205 22.5681 440.498 21.5934C440.791 20.6187 440.879 19.5937 440.754 18.5834C440.63 17.5731 440.297 16.5998 439.776 15.7252C439.256 14.8506 438.559 14.0939 437.73 13.5033C432.594 10.1135 422.307 14.237 418.022 17.6855C417.684 17.9496 413.37 22.3079 412.636 23.159C412.769 22.8655 412.857 22.5427 412.989 22.2492C415.218 17.1265 417.904 12.2151 421.016 7.57478C422.703 5.00676 424.449 2.62949 426.21 0.369633C427.854 1.42619 435.411 6.15136 439.652 6.78236C443.893 7.41336 449.044 7.00247 452.14 3.96486C452.884 3.26828 453.474 2.42447 453.873 1.48719C454.273 0.549904 454.473 -0.460316 454.46 -1.47911C454.448 -2.49789 454.223 -3.50293 453.801 -4.43019C453.379 -5.35746 452.768 -6.18662 452.008 -6.86487C447.283 -10.7976 436.6 -7.8187 431.963 -4.86914C431.713 -4.7224 429.321 -2.80004 427.56 -1.3913C428.367 -2.38916 429.175 -3.44572 429.967 -4.39956C432.902 -7.98012 435.837 -11.0764 438.507 -13.7912C439.975 -15.2586 441.442 -16.7261 442.719 -17.9441C444.876 -17.7533 453.549 -17.093 457.526 -18.4577C461.502 -19.8224 465.978 -22.5812 467.313 -26.7194C467.653 -27.6793 467.789 -28.6995 467.713 -29.7148C467.637 -30.7302 467.35 -31.7186 466.871 -32.6171C466.392 -33.5157 465.731 -34.3047 464.931 -34.934C464.13 -35.5633 463.208 -36.0191 462.221 -36.2724C456.205 -37.5785 448.09 -30.0065 445.331 -25.2666C445.096 -24.8557 442.117 -18.0028 442.22 -17.9294H442.352C441.061 -16.7554 439.696 -15.4641 438.229 -14.0407C435.529 -11.3699 432.52 -8.33231 429.424 -4.79577C426.085 -1.02819 422.969 2.93084 420.091 7.06117C416.849 11.6927 414.025 16.6035 411.653 21.7356L411.565 21.9264C411.8 20.1361 412.255 15.1174 412.24 14.7212C412.123 9.23299 408.66 -1.30325 402.761 -3.06418C401.776 -3.32061 400.75 -3.36968 399.746 -3.20827C398.742 -3.04686 397.782 -2.6785 396.928 -2.12658C396.074 -1.57465 395.344 -0.851196 394.784 -0.00213242C394.225 0.846928 393.848 1.80307 393.677 2.80559C392.87 7.06118 395.526 11.6983 398.285 14.7506C401.381 18.1844 410.597 22.0878 411.33 22.484C409.032 27.7261 407.096 33.1193 405.534 38.6259C404.595 41.8396 403.758 45.0973 402.951 48.3844C403.098 46.8289 403.215 45.4495 403.201 45.2441C403.083 39.7558 399.62 29.2196 393.721 27.4586C392.738 27.2045 391.713 27.1573 390.711 27.3198C389.708 27.4823 388.751 27.8511 387.898 28.4028C387.046 28.9546 386.317 29.6772 385.758 30.5251C385.2 31.3729 384.823 32.3275 384.652 33.3284C383.831 37.584 386.501 42.2211 389.245 45.2734C391.989 48.3257 399.826 51.9063 401.895 52.8307C401.601 54.0928 401.293 55.3401 401 56.6021C399.606 62.6626 398.255 68.7232 396.729 74.6076C396.201 76.6914 395.599 78.7165 395.012 80.7415C395.13 79.3768 395.218 78.2028 395.218 78.0267C395.1 72.5385 391.637 62.0023 385.738 60.2413C384.755 59.9872 383.73 59.9399 382.728 60.1025C381.725 60.265 380.768 60.6338 379.915 61.1855C379.063 61.7373 378.334 62.4599 377.776 63.3077C377.217 64.1556 376.84 65.1102 376.669 66.1111C375.848 70.3814 378.504 75.0185 381.262 78.0708C384.021 81.123 391.08 84.3514 393.53 85.408C392.87 87.4771 392.195 89.5315 391.447 91.4979C390.918 92.8333 390.493 94.154 389.876 95.46L388.189 99.246C386.883 99.4661 385.371 99.7596 383.684 100.141C383.244 94.6089 381.174 87.8586 376.963 85.8629C376.025 85.46 375.014 85.2571 373.994 85.2671C372.973 85.2771 371.966 85.4998 371.037 85.921C370.108 86.3422 369.276 86.9526 368.596 87.7132C367.916 88.4739 367.402 89.3681 367.087 90.3386C365.62 94.4328 367.571 99.4221 369.831 102.841C370.162 103.36 370.535 103.851 370.946 104.309C363.734 107.25 357.25 111.727 351.943 117.428C336.726 134.45 337.87 160.306 337.87 160.306C337.87 160.306 359.456 158.839 374.791 145.632C379.502 143.401 385.591 140.437 392.562 136.695C395.174 135.316 397.933 133.76 400.75 132.161C401.499 133.085 407.559 140.599 411.595 142.638C415.263 144.502 420.399 145.837 424.332 143.93C425.253 143.505 426.076 142.894 426.749 142.135C427.422 141.376 427.931 140.486 428.242 139.521C428.554 138.555 428.662 137.536 428.56 136.527C428.458 135.518 428.147 134.541 427.648 133.658C424.405 128.433 413.326 127.876 407.999 129.255C407.691 129.343 404.375 130.576 402.291 131.383C403.436 130.723 404.565 130.092 405.739 129.387C408.073 128.023 410.362 126.599 412.827 125.073L416.364 122.71C417.552 121.947 418.726 120.993 419.915 120.128C422.644 118.073 425.315 115.843 427.957 113.554C429.16 115.593 433.518 122.769 436.864 125.161C440.21 127.553 445.111 129.666 449.264 128.375C450.244 128.095 451.155 127.613 451.939 126.962C452.723 126.31 453.362 125.502 453.816 124.589C454.271 123.677 454.53 122.679 454.577 121.661C454.624 120.643 454.459 119.626 454.092 118.675C451.685 113.025 440.811 110.78 435.352 111.338C435 111.338 431.126 112.174 428.998 112.658C430.569 111.264 432.153 109.87 433.709 108.418C438.111 104.191 442.514 99.7889 446.916 95.416C448.266 94.0659 449.631 92.7452 450.981 91.4245C451.392 92.1436 456.396 100.801 460.152 103.487C463.483 105.879 468.399 107.977 472.537 106.686C473.517 106.407 474.428 105.928 475.212 105.277C475.996 104.627 476.637 103.821 477.092 102.91C477.548 101.999 477.809 101.003 477.858 99.9857C477.908 98.9684 477.745 97.9518 477.38 97.0008C474.959 91.3365 464.173 89.106 458.626 89.6636C458.215 89.6636 452.639 90.8669 451.289 91.2337C454.224 88.2989 457.276 85.364 460.343 82.7079C464.478 79.0029 468.851 75.5715 473.433 72.4358C473.623 72.7733 478.803 81.8274 482.648 84.5716C485.979 86.9635 490.895 89.0766 495.033 87.7706C496.013 87.4918 496.924 87.0122 497.708 86.3621C498.492 85.712 499.133 84.9058 499.588 83.9947C500.044 83.0837 500.304 82.0878 500.354 81.0704C500.404 80.053 500.241 79.0365 499.876 78.0855C497.455 72.4211 486.596 70.1906 481.122 70.7482C480.696 70.7482 474.695 72.0543 473.609 72.3624C473.888 72.1716 474.137 71.9662 474.401 71.7901C479.081 68.7719 484.021 66.1788 489.164 64.042C491.981 62.824 494.74 61.8115 497.455 60.9017C498.247 62.6773 501.945 70.7923 505.144 73.6538C508.343 76.5153 512.848 79.0246 517.104 78.2028C518.109 78.0328 519.069 77.655 519.92 77.0934C520.772 76.5319 521.497 75.7989 522.049 74.9414C522.601 74.0839 522.969 73.1207 523.128 72.1132C523.287 71.1057 523.235 70.076 522.974 69.09C521.183 63.2202 510.632 59.7864 505.144 59.6984C504.836 59.6984 501.798 59.9625 499.582 60.212C500.815 59.8158 502.077 59.3755 503.266 59.0234C507.668 57.6733 511.88 56.7195 515.578 55.8977C517.676 55.4428 519.584 55.0759 521.447 54.7678C523.135 56.1031 530.017 61.4446 534.082 62.5012C538.147 63.5578 543.4 63.7192 546.805 61.0338C547.675 60.4212 548.401 59.6268 548.933 58.7056C549.465 57.7844 549.791 56.7586 549.887 55.699C549.984 54.6395 549.848 53.5717 549.491 52.5696C549.134 51.5676 548.562 50.6552 547.817 49.8959ZM390.948 133.379C387.749 135.008 384.726 136.49 381.937 137.781C386.659 130.933 389.902 123.177 391.461 115.006C392.298 115.212 393.149 115.388 394 115.549C394.249 120.172 397.933 128.389 398.402 129.446C395.849 130.855 393.34 132.234 390.948 133.379Z" fill="white" stroke="#39404F" stroke-width="2" mask="url(#path-7-inside-2)"/>
</g>
<path opacity="0.5" d="M504.145 54.546L504.145 54.5459L504.137 54.5533C504.138 54.5528 504.115 54.5731 504.049 54.6244C503.989 54.6703 503.91 54.7303 503.812 54.8032C503.616 54.9488 503.352 55.1405 503.044 55.3629C502.427 55.8073 501.636 56.3704 500.854 56.9242C500.072 57.4777 499.301 58.0213 498.725 58.4265C498.578 58.5297 498.444 58.6239 498.326 58.707C498.242 58.4384 498.137 58.0937 498.016 57.6879C497.71 56.657 497.308 55.2334 496.923 53.6621C496.147 50.4908 495.468 46.8144 495.735 44.5243L495.735 44.5236C495.965 42.526 496.507 40.2988 497.442 38.3105C498.379 36.3201 499.693 34.6019 501.449 33.5687L501.449 33.5688L501.459 33.5627C502.266 33.0628 503.167 32.7362 504.107 32.6036C505.046 32.471 506.003 32.5354 506.916 32.7926C507.829 33.0499 508.679 33.4943 509.411 34.0977C510.14 34.6991 510.737 35.4452 511.164 36.2888C512.348 38.8986 511.658 42.4995 510.075 46.0089C508.502 49.4966 506.115 52.7407 504.145 54.546Z" fill="white" stroke="#39404F"/>
<path opacity="0.5" d="M326.104 151.113C325.88 150.872 325.555 150.516 325.144 150.053C324.302 149.106 323.098 147.707 321.653 145.905C318.763 142.301 314.909 137.084 311.061 130.642C303.361 117.75 295.704 99.9864 295.784 80.4203C295.865 60.8546 303.689 43.1531 311.517 30.3234C315.429 23.9121 319.337 18.7269 322.265 15.1455C323.729 13.3551 324.948 11.966 325.8 11.0256C326.216 10.5657 326.545 10.2131 326.772 9.97344C326.996 10.2151 327.32 10.5704 327.731 11.0337C328.572 11.9816 329.775 13.3815 331.219 15.1849C334.107 18.7921 337.958 24.0116 341.804 30.4567C349.501 43.3543 357.158 61.1217 357.092 80.6807C357.026 100.239 349.202 117.936 341.37 130.764C337.456 137.175 333.546 142.359 330.616 145.941C329.15 147.731 327.931 149.12 327.078 150.06C326.661 150.521 326.331 150.873 326.104 151.113Z" fill="white" stroke="#39404F"/>
<path opacity="0.5" d="M314.72 157.77C314.728 158.007 314.733 158.208 314.736 158.372C314.573 158.363 314.372 158.35 314.136 158.333C313.406 158.279 312.342 158.185 311.016 158.02C308.362 157.691 304.659 157.082 300.463 155.962C292.065 153.72 281.741 149.442 273.912 141.308C266.083 133.175 262.202 122.69 260.28 114.208C259.321 109.971 258.853 106.244 258.625 103.578C258.511 102.246 258.457 101.179 258.431 100.446C258.423 100.21 258.418 100.009 258.414 99.8446C258.578 99.8541 258.779 99.867 259.015 99.8842C259.746 99.9374 260.81 100.032 262.137 100.196C264.792 100.526 268.498 101.135 272.695 102.255C281.097 104.497 291.425 108.775 299.253 116.909C307.082 125.042 310.96 135.526 312.878 144.009C313.836 148.246 314.302 151.972 314.528 154.638C314.642 155.971 314.695 157.038 314.72 157.77Z" fill="white" stroke="#39404F"/>
</g>
<path d="M326.454 151.349L325.825 151.343L325.965 117.107L325.969 117.111V115.989V115.975L325.483 115.974L325.804 115.617L300.772 93.1023L301.193 92.6306L325.15 114.174L325.979 114.92L325.984 113.805L326.116 83.869L326.12 82.9297L325.618 83.2648L304.683 52.6701L305.204 52.3193L325.203 81.5664L326.109 82.8906L326.116 81.2864L326.437 9.74731H327.066L326.848 58.1403L326.843 59.2404L327.675 58.5207L343.481 44.8499L343.887 45.3236L327.02 59.9365L326.849 60.0851L326.848 60.312L326.686 95.2666L326.681 96.3832L327.518 95.6434L351.665 74.2845L352.086 74.7562L326.855 97.0809L326.687 97.2292L326.686 97.4531L326.54 129.282L326.535 130.316L327.348 129.678L345.383 115.52L345.769 116.02L326.731 130.96L326.541 131.109L326.54 131.351L326.454 151.349Z" fill="white" stroke="#39404F"/>
<path d="M375.267 120.246L386.416 120.387L386.405 121.016L373.827 120.86L373.6 120.858L373.448 121.027L360.55 135.437L359.805 136.269L360.921 136.271L378.648 136.299V136.929L359.47 136.914L359.246 136.914L359.097 137.081L347.372 150.185L346.683 150.955L347.714 151.018L360.059 151.765L360.025 152.396L346.395 151.575L346.154 151.56L345.993 151.74L338.504 160.1L338.032 159.68L351.463 144.674L351.612 144.507L351.587 144.284L349.428 125.237L350.048 125.169L352.046 142.768L352.172 143.877L352.916 143.045L363.819 130.851L364.564 130.017H363.998L366.624 109.178L367.245 109.251L364.843 128.342L364.643 129.933L365.712 128.738L392.495 98.7945L392.956 99.2105L374.901 119.413L374.169 120.232L375.267 120.246Z" fill="white" stroke="#39404F"/>
<path d="M286.991 130.005V130.639L266.45 126.473L266.575 125.854L285.425 129.687L286.991 130.005ZM285.885 128.85L258.028 99.9053L258.481 99.4688L277.27 118.992L278.033 119.785L278.128 118.689L279.098 107.577L279.729 107.628L278.629 120.157L278.609 120.384L278.767 120.548L292.194 134.489L292.968 135.293L293.053 134.18L294.394 116.509L295.026 116.555L293.567 135.674L293.55 135.897L293.705 136.059L305.9 148.737L306.616 149.483L306.755 148.458L308.42 136.202L309.044 136.287L307.217 149.821L307.185 150.06L307.352 150.234L315.121 158.312L314.667 158.748L300.706 144.243L300.551 144.082L300.327 144.09L281.179 144.82L281.156 144.19L298.854 143.52L299.968 143.477L299.195 142.673L287.852 130.875L286.991 129.98V129.999L285.885 128.85Z" fill="white" stroke="#39404F"/>
<path d="M321.508 525.025L508.886 454.72L510.236 439.737L324.237 510.028L321.508 525.025Z" fill="white" stroke="#39404F" stroke-width="1.13593" stroke-linecap="round" stroke-linejoin="round"/>
<path d="M289.957 276.499C286.665 276.474 283.482 275.313 280.947 273.212C277.762 270.585 275.669 266.865 275.077 262.779C275.003 262.049 275.212 261.318 275.661 260.738C276.111 260.158 276.765 259.772 277.491 259.661C278.216 259.55 278.956 259.722 279.558 260.141C280.161 260.56 280.579 261.194 280.727 261.913C281.11 264.593 282.475 267.035 284.557 268.766C285.462 269.547 286.527 270.122 287.676 270.451C288.826 270.781 290.033 270.857 291.215 270.674C292.397 270.491 293.525 270.054 294.521 269.393C295.518 268.731 296.359 267.862 296.986 266.844C297.418 266.244 298.066 265.836 298.792 265.703C299.519 265.57 300.269 265.724 300.885 266.131C301.502 266.539 301.936 267.169 302.098 267.89C302.261 268.611 302.138 269.366 301.755 269.999C300.684 271.678 299.268 273.111 297.601 274.202C295.933 275.292 294.053 276.015 292.085 276.323C291.382 276.441 290.67 276.5 289.957 276.499Z" fill="#39404F"/>
<path d="M262.912 284.849C255.677 284.849 249.206 279.096 247.988 271.143C247.93 270.773 247.945 270.395 248.033 270.03C248.121 269.666 248.279 269.323 248.5 269.02C248.721 268.718 249 268.462 249.32 268.267C249.64 268.072 249.995 267.942 250.365 267.885C251.114 267.786 251.871 267.98 252.481 268.425C253.09 268.871 253.504 269.534 253.638 270.277C254.489 275.868 259.199 279.801 264.115 279.082C265.295 278.889 266.421 278.448 267.418 277.788C268.415 277.128 269.26 276.263 269.897 275.252C270.329 274.652 270.977 274.244 271.703 274.111C272.43 273.978 273.18 274.132 273.796 274.539C274.413 274.947 274.847 275.577 275.009 276.298C275.171 277.019 275.048 277.774 274.666 278.407C273.595 280.086 272.179 281.519 270.512 282.61C268.844 283.7 266.964 284.423 264.996 284.731C264.305 284.828 263.609 284.867 262.912 284.849Z" fill="#39404F"/>
<path d="M238.171 294.343C234.881 294.321 231.699 293.165 229.161 291.071C225.979 288.441 223.887 284.722 223.291 280.637C223.217 279.907 223.426 279.177 223.875 278.597C224.324 278.016 224.979 277.631 225.704 277.52C226.43 277.409 227.17 277.58 227.772 277.999C228.374 278.418 228.793 279.053 228.941 279.771C229.323 282.452 230.688 284.894 232.771 286.624C233.686 287.391 234.752 287.957 235.899 288.286C237.047 288.614 238.251 288.698 239.433 288.532C240.611 288.34 241.735 287.898 242.729 287.238C243.723 286.578 244.566 285.713 245.2 284.702C245.68 284.237 246.304 283.95 246.969 283.888C247.634 283.826 248.3 283.992 248.858 284.36C249.416 284.728 249.831 285.275 250.036 285.91C250.24 286.546 250.222 287.233 249.984 287.857C248.908 289.536 247.489 290.968 245.82 292.058C244.15 293.148 242.268 293.872 240.299 294.182C239.595 294.295 238.883 294.349 238.171 294.343Z" fill="#39404F"/>
<path d="M211.126 302.091C203.892 302.091 197.42 296.324 196.202 288.385C196.127 288.006 196.129 287.616 196.208 287.238C196.287 286.86 196.441 286.503 196.662 286.186C196.883 285.87 197.166 285.601 197.494 285.397C197.821 285.192 198.186 285.056 198.568 284.997C198.949 284.937 199.339 284.956 199.713 285.051C200.087 285.146 200.438 285.316 200.745 285.55C201.052 285.784 201.308 286.078 201.498 286.414C201.689 286.75 201.809 287.121 201.852 287.504C202.718 293.095 207.414 297.028 212.33 296.309C213.508 296.116 214.632 295.677 215.628 295.02C216.625 294.362 217.471 293.501 218.111 292.494C218.304 292.153 218.566 291.855 218.879 291.619C219.191 291.383 219.55 291.214 219.931 291.122C220.312 291.03 220.707 291.018 221.093 291.085C221.479 291.153 221.847 291.299 222.175 291.514C222.502 291.73 222.782 292.01 222.996 292.338C223.211 292.666 223.355 293.035 223.421 293.421C223.488 293.807 223.474 294.203 223.381 294.583C223.288 294.964 223.117 295.322 222.881 295.634C221.807 297.313 220.391 298.746 218.724 299.839C217.057 300.932 215.178 301.659 213.21 301.973C212.519 302.063 211.823 302.102 211.126 302.091Z" fill="#39404F"/>
<path d="M183.436 313.097C176.216 313.097 169.744 307.344 168.512 299.391C168.556 298.724 168.827 298.093 169.279 297.601C169.73 297.11 170.336 296.787 170.997 296.686C171.657 296.585 172.332 296.712 172.91 297.046C173.488 297.381 173.934 297.902 174.176 298.525C175.027 304.116 179.738 308.034 184.654 307.33C185.833 307.135 186.957 306.693 187.954 306.032C188.95 305.372 189.796 304.509 190.435 303.5C190.868 302.9 191.515 302.492 192.242 302.359C192.969 302.226 193.719 302.38 194.335 302.787C194.951 303.195 195.386 303.825 195.548 304.546C195.71 305.267 195.587 306.022 195.205 306.655C194.131 308.332 192.715 309.764 191.048 310.854C189.381 311.944 187.501 312.669 185.534 312.979C184.838 313.068 184.137 313.108 183.436 313.097Z" fill="#39404F"/>
<path d="M156.625 322.914C153.334 322.894 150.151 321.738 147.615 319.641C144.433 317.011 142.341 313.293 141.745 309.208C141.671 308.478 141.88 307.747 142.329 307.167C142.778 306.587 143.433 306.202 144.159 306.09C144.884 305.979 145.624 306.151 146.226 306.57C146.829 306.989 147.247 307.623 147.395 308.342C147.778 311.022 149.143 313.465 151.225 315.195C152.13 315.976 153.195 316.551 154.344 316.881C155.494 317.21 156.701 317.286 157.883 317.103C159.065 316.92 160.193 316.483 161.189 315.822C162.186 315.161 163.027 314.291 163.654 313.273C164.134 312.808 164.758 312.521 165.423 312.458C166.088 312.396 166.754 312.563 167.312 312.931C167.87 313.298 168.285 313.845 168.49 314.481C168.695 315.117 168.676 315.804 168.438 316.428C167.362 318.107 165.943 319.538 164.274 320.629C162.604 321.719 160.722 322.443 158.753 322.752C158.049 322.865 157.338 322.919 156.625 322.914Z" fill="#39404F"/>
<path d="M326.643 515.883L481.707 458.755" stroke="#39404F" stroke-width="0.567964" stroke-linecap="round" stroke-linejoin="round"/>
<path d="M322.564 520.652L421.852 483.922" stroke="#39404F" stroke-width="0.567964" stroke-linecap="round" stroke-linejoin="round"/>
<path d="M134.804 316.326V334.038L321.507 525.026L324.237 510.028L134.804 316.326Z" fill="white" stroke="#39404F" stroke-width="1.13593" stroke-linecap="round" stroke-linejoin="round"/>
<path d="M137.578 330.221L248.443 441.072" stroke="#39404F" stroke-width="0.567964" stroke-linecap="round" stroke-linejoin="round"/>
<path d="M189.952 377.826L305.557 496.16" stroke="#39404F" stroke-width="0.567964" stroke-linecap="round" stroke-linejoin="round"/>
<path d="M134.804 316.324L324.237 510.027L510.235 439.736L317.457 254.985L134.804 316.324Z" fill="white" stroke="#39404F" stroke-width="1.13593" stroke-linecap="round" stroke-linejoin="round"/>
<path d="M132.486 313.273L-42.9619 149.521L136.756 93.4792L316.078 252.066L132.486 313.273Z" fill="white" stroke="#39404F" stroke-width="1.13593" stroke-linecap="round" stroke-linejoin="round"/>
<path d="M-16.1084 150.607L35.2521 134.612" stroke="#39404F" stroke-width="1.21052" stroke-linecap="round" stroke-linejoin="round"/>
<path d="M-8.52051 156.506L42.84 140.51" stroke="#39404F" stroke-width="1.21052" stroke-linecap="round" stroke-linejoin="round"/>
<path d="M166.031 317.704C165.473 317.707 164.926 317.544 164.461 317.234C163.842 316.806 163.411 316.155 163.258 315.418C163.105 314.68 163.242 313.912 163.639 313.272C165.105 310.995 165.67 308.254 165.224 305.583C164.975 303.558 164.129 301.654 162.793 300.112C161.458 298.57 159.694 297.461 157.725 296.925C157.015 296.73 156.407 296.269 156.028 295.637C155.648 295.006 155.528 294.252 155.69 293.534C155.853 292.815 156.286 292.187 156.901 291.78C157.515 291.373 158.262 291.218 158.987 291.349C162.076 292.14 164.858 293.835 166.978 296.217C169.098 298.598 170.46 301.558 170.888 304.717C171.559 308.801 170.68 312.988 168.423 316.457C168.153 316.841 167.795 317.154 167.379 317.371C166.963 317.588 166.5 317.703 166.031 317.704Z" fill="#39404F"/>
<path d="M192.813 307.887C192.254 307.89 191.708 307.727 191.243 307.417C190.928 307.211 190.658 306.945 190.447 306.634C190.236 306.322 190.089 305.973 190.014 305.604C189.939 305.236 189.937 304.856 190.01 304.487C190.082 304.119 190.227 303.768 190.436 303.455C191.895 301.175 192.46 298.437 192.02 295.766C191.771 293.741 190.925 291.836 189.59 290.294C188.254 288.753 186.49 287.643 184.522 287.108C184.138 287.044 183.771 286.903 183.443 286.692C183.116 286.482 182.835 286.207 182.617 285.884C182.399 285.562 182.25 285.198 182.178 284.816C182.105 284.433 182.112 284.04 182.197 283.66C182.282 283.28 182.443 282.922 182.672 282.606C182.9 282.291 183.19 282.026 183.525 281.826C183.859 281.627 184.231 281.498 184.617 281.448C185.002 281.397 185.395 281.425 185.769 281.531C188.858 282.323 191.64 284.018 193.76 286.399C195.88 288.781 197.241 291.74 197.67 294.9C198.341 298.984 197.461 303.17 195.205 306.639C194.935 307.023 194.577 307.337 194.161 307.554C193.744 307.771 193.282 307.885 192.813 307.887Z" fill="#39404F"/>
<path d="M299.364 271.289C298.862 271.264 298.374 271.11 297.949 270.842C297.523 270.574 297.173 270.201 296.933 269.759C296.693 269.317 296.57 268.821 296.577 268.318C296.584 267.815 296.72 267.322 296.972 266.887C298.44 264.616 299.005 261.879 298.557 259.212C298.311 257.185 297.466 255.277 296.13 253.733C294.794 252.188 293.029 251.076 291.058 250.54C290.692 250.46 290.345 250.308 290.038 250.094C289.731 249.879 289.469 249.605 289.268 249.288C289.068 248.972 288.932 248.618 288.869 248.249C288.806 247.879 288.817 247.501 288.901 247.135C289.083 246.403 289.539 245.769 290.176 245.365C290.813 244.961 291.581 244.817 292.32 244.964C295.409 245.755 298.191 247.45 300.311 249.831C302.431 252.213 303.793 255.172 304.221 258.332C304.893 262.418 304.008 266.607 301.741 270.071C301.476 270.454 301.12 270.766 300.705 270.978C300.291 271.191 299.83 271.298 299.364 271.289Z" fill="#39404F"/>
<path d="M272.275 279.609C271.716 279.612 271.17 279.449 270.705 279.139C270.39 278.933 270.12 278.667 269.909 278.356C269.698 278.045 269.551 277.695 269.475 277.326C269.4 276.958 269.399 276.578 269.472 276.209C269.544 275.841 269.689 275.49 269.898 275.177C271.358 272.898 271.923 270.159 271.482 267.488C271.233 265.463 270.387 263.559 269.052 262.017C267.716 260.475 265.952 259.365 263.984 258.83C263.6 258.766 263.233 258.625 262.905 258.415C262.578 258.204 262.296 257.929 262.079 257.607C261.861 257.284 261.712 256.92 261.64 256.538C261.567 256.155 261.574 255.762 261.659 255.382C261.744 255.002 261.905 254.644 262.134 254.328C262.362 254.013 262.652 253.748 262.987 253.549C263.321 253.349 263.692 253.22 264.078 253.17C264.464 253.119 264.857 253.147 265.231 253.253C268.321 254.041 271.106 255.735 273.226 258.117C275.347 260.499 276.707 263.461 277.132 266.622C277.803 270.706 276.923 274.892 274.667 278.361C274.397 278.745 274.039 279.059 273.623 279.276C273.206 279.493 272.744 279.607 272.275 279.609Z" fill="#39404F"/>
<path d="M247.534 289.147C246.974 289.145 246.427 288.977 245.963 288.663C245.344 288.234 244.914 287.584 244.761 286.846C244.608 286.109 244.744 285.341 245.142 284.701C246.616 282.427 247.186 279.684 246.741 277.012C246.492 274.987 245.646 273.082 244.311 271.54C242.975 269.999 241.211 268.889 239.243 268.354C238.859 268.29 238.492 268.149 238.164 267.938C237.836 267.728 237.555 267.453 237.338 267.13C237.12 266.808 236.971 266.444 236.898 266.062C236.826 265.679 236.833 265.286 236.918 264.906C237.003 264.526 237.164 264.168 237.392 263.852C237.621 263.537 237.911 263.272 238.245 263.072C238.58 262.873 238.951 262.744 239.337 262.693C239.723 262.643 240.115 262.671 240.49 262.777C243.578 263.569 246.361 265.264 248.481 267.645C250.601 270.027 251.962 272.986 252.391 276.146C253.061 280.229 252.182 284.416 249.926 287.885C249.657 288.272 249.3 288.589 248.884 288.808C248.467 289.028 248.004 289.144 247.534 289.147Z" fill="#39404F"/>
<path d="M220.488 296.881C219.931 296.877 219.386 296.714 218.918 296.412C218.603 296.206 218.333 295.94 218.122 295.628C217.911 295.317 217.764 294.967 217.689 294.599C217.614 294.231 217.612 293.851 217.685 293.482C217.757 293.113 217.902 292.762 218.111 292.45C219.57 290.17 220.135 287.431 219.695 284.76C219.446 282.736 218.6 280.831 217.265 279.289C215.929 277.747 214.165 276.638 212.197 276.102C211.757 276.103 211.323 276.004 210.926 275.814C210.53 275.624 210.181 275.347 209.906 275.004C209.631 274.66 209.436 274.26 209.337 273.831C209.237 273.403 209.235 272.958 209.331 272.529C209.427 272.099 209.618 271.697 209.89 271.352C210.162 271.006 210.509 270.726 210.903 270.532C211.298 270.339 211.732 270.236 212.171 270.233C212.611 270.229 213.046 270.324 213.444 270.511C216.536 271.298 219.321 272.991 221.442 275.373C223.563 277.756 224.922 280.718 225.345 283.88C226.017 287.964 225.138 292.151 222.88 295.619C222.612 296.006 222.254 296.323 221.838 296.542C221.422 296.762 220.959 296.878 220.488 296.881Z" fill="#39404F"/>
<path d="M474.43 435.262L481.65 432.606" stroke="#39404F" stroke-width="0.567964" stroke-linecap="round" stroke-linejoin="round"/>
<path d="M331.896 487.912L467.87 437.696" stroke="#39404F" stroke-width="0.567964" stroke-linecap="round" stroke-linejoin="round"/>
<path d="M335.712 465.211L465.478 417.285" stroke="#39404F" stroke-width="0.567964" stroke-linecap="round" stroke-linejoin="round"/>
<path d="M315.725 472.593L327.083 468.396" stroke="#39404F" stroke-width="0.567964" stroke-linecap="round" stroke-linejoin="round"/>
<path d="M299.554 457.273L449.322 401.965" stroke="#39404F" stroke-width="0.567964" stroke-linecap="round" stroke-linejoin="round"/>
<path d="M283.398 441.967L433.151 386.659" stroke="#39404F" stroke-width="0.567964" stroke-linecap="round" stroke-linejoin="round"/>
<path d="M410.698 373.659L416.979 371.34" stroke="#39404F" stroke-width="0.567964" stroke-linecap="round" stroke-linejoin="round"/>
<path d="M267.227 426.648L401.718 376.975" stroke="#39404F" stroke-width="0.567964" stroke-linecap="round" stroke-linejoin="round"/>
<path d="M251.054 411.327L400.822 356.019" stroke="#39404F" stroke-width="0.567964" stroke-linecap="round" stroke-linejoin="round"/>
<path d="M234.883 396.022L384.651 340.714" stroke="#39404F" stroke-width="0.567964" stroke-linecap="round" stroke-linejoin="round"/>
<path d="M218.728 380.702L368.48 325.394" stroke="#39404F" stroke-width="0.567964" stroke-linecap="round" stroke-linejoin="round"/>
<path d="M202.556 365.381L352.309 310.073" stroke="#39404F" stroke-width="0.567964" stroke-linecap="round" stroke-linejoin="round"/>
<path d="M330.839 296.72L336.152 294.754" stroke="#39404F" stroke-width="0.567964" stroke-linecap="round" stroke-linejoin="round"/>
<path d="M186.384 350.062L326.232 298.422" stroke="#39404F" stroke-width="0.567964" stroke-linecap="round" stroke-linejoin="round"/>
<path d="M214.927 318.232L319.981 279.447" stroke="#39404F" stroke-width="0.567964" stroke-linecap="round" stroke-linejoin="round"/>
<path d="M170.227 334.756L199.15 324.073" stroke="#39404F" stroke-width="0.567964" stroke-linecap="round" stroke-linejoin="round"/>
<g style="mix-blend-mode:multiply">
<path d="M222.176 374.363C237.334 376.344 235.999 350.399 232.154 341.697C229.349 344.912 227.259 348.686 226.022 352.769C224.785 356.852 224.429 361.151 224.979 365.382C225.138 367.358 225.828 369.253 226.974 370.87C227.555 371.67 228.36 372.281 229.286 372.626C230.213 372.97 231.221 373.033 232.184 372.807C233.564 372.222 234.731 371.229 235.53 369.96C238.318 366.262 240.167 361.684 243.102 358.294C247.166 361.038 261.606 365.734 259.522 355.638C258.378 350.062 261.151 350.693 264.13 353.422C265.363 354.538 267.3 353.936 268.826 353.261L283.5 346.804C285.368 345.852 287.39 345.24 289.473 344.999C296.516 344.647 301.124 351.192 308.036 346.569C310.971 344.632 311.646 339.379 315.373 337.383C318.029 335.916 321.155 335.828 324.178 335.417C334.567 334.037 339.879 328.549 349.477 323.589" stroke="white" stroke-width="1.13593" stroke-linecap="round" stroke-linejoin="round"/>
</g>
<g style="mix-blend-mode:multiply">
<path d="M233.944 390.577C239.623 391.546 244.481 386.365 249.499 384.707C255.912 382.565 258.7 379.953 264.863 377.297C273.008 373.804 282.575 372.19 280.873 359.878C279.714 364.28 279.582 369.123 278.687 373.731C285.29 377.003 287.066 371.383 287.741 366.394C289.957 366.338 292.147 365.896 294.212 365.088C294.212 366.012 294.506 367.054 294.491 367.934C297.661 369.211 298.893 368.345 299.554 365.542C303.061 364.882 304.308 361.595 307.273 360.788C308.021 369.02 310.119 376.225 309.635 384.649C304.015 386.116 303.134 376.416 304.558 372.395C306.025 368.14 310.251 365.865 311.807 361.419C312.13 361.962 311.88 362.593 312.056 363.18C319.129 358.954 328.198 360.098 335.213 355.153C337.414 353.597 338.984 350.486 341.317 349.401C346.395 347.053 347.906 349.811 351.692 344.279" stroke="white" stroke-width="1.13593" stroke-linecap="round" stroke-linejoin="round"/>
</g>
<g style="mix-blend-mode:multiply">
<path d="M285.07 438.93C295.269 435.995 299.745 410.653 296.81 401.349C293.376 390.094 288.651 402.435 287.55 408.481C286.67 413.323 285.261 426.09 289.781 429.773C299.803 437.903 305.923 421.189 307.155 413.631C307.596 418.357 304.749 424.182 305.908 429.274C314.023 430.228 318.044 423.478 317.53 416.508C318.538 417.472 319.221 418.726 319.484 420.096C319.747 421.466 319.577 422.884 318.998 424.153C326.746 423.61 325.469 410.535 326.335 405.267C325.895 408.95 326.232 413.265 328.712 416.244C330.781 418.709 334.729 419.795 337.326 417.887C339.923 415.979 339.41 410.961 336.255 410.3V442.071C336.354 442.989 336.17 443.916 335.727 444.727C334.685 446.194 332.131 445.886 330.943 444.477C329.896 442.94 329.404 441.092 329.549 439.238C329.402 428.834 332.616 414.585 340.672 407.483C341.085 408.495 341.222 409.599 341.068 410.682C341.839 410.381 342.536 409.918 343.111 409.322C343.686 408.727 344.125 408.014 344.399 407.233C344.927 409.567 346.307 412.502 348.669 412.091C349.453 411.885 350.171 411.481 350.753 410.917C354.627 407.718 358.824 405.605 361.421 401.055C361.788 402.2 362.17 403.345 362.551 404.504C363.168 402.288 365.281 400.835 367.35 399.837C370.507 398.354 373.919 397.492 377.402 397.299C380.337 397.152 383.536 397.46 386.207 396.198C387.39 395.566 388.523 394.845 389.596 394.041C392.637 392.037 396.158 390.882 399.795 390.695" stroke="white" stroke-width="1.13593" stroke-linecap="round" stroke-linejoin="round"/>
</g>
<path d="M164.168 160.247C164.168 160.247 187.574 130.752 195.498 120.201C203.422 109.65 209.16 101.535 209.16 101.535C209.16 101.535 213.386 104.866 212.095 108.652C210.803 112.438 182.966 150.459 176.773 160.115C170.581 169.771 171.446 181.995 171.901 186.206C172.356 190.418 160.074 176.653 164.168 160.247Z" fill="white" stroke="#39404F" stroke-width="1.27267" stroke-linecap="round" stroke-linejoin="round"/>
<path d="M209.16 101.535C209.16 101.535 223.732 81.27 234.547 64.3944C245.362 47.5188 261.152 22.176 264.908 18.8009C268.665 15.4258 269.575 24.2304 268.357 30.1296C267.139 36.0287 254.211 52.4934 245.479 65.9939C236.748 79.4944 231.348 89.2089 223.835 98.0722C216.321 106.936 216.761 107.361 212.095 108.652C207.428 109.944 208.338 105.321 209.16 101.535Z" fill="#39404F" stroke="#39404F" stroke-width="1.27267" stroke-linecap="round" stroke-linejoin="round"/>
<path d="M159.134 163.212C160.748 152.28 164.402 132.088 172.752 125.734C181.102 119.379 206.371 124.266 208.47 124.648C210.568 125.029 243.82 132.396 253.96 138.632C264.1 144.869 270.909 162.889 273.507 173.323C276.104 183.756 281.68 201.424 282.517 202.672C282.517 202.672 290.955 206.384 295.577 205.944C300.2 205.504 306.348 184.02 319.291 171.327C332.234 158.634 338.955 156.902 353.248 158.12C367.541 159.338 421.836 174.056 427.339 179.471C432.842 184.886 436.276 197.081 435.087 205.885C433.898 214.69 435.63 224.375 435.63 226.048C435.63 227.721 440.722 233.165 439.489 237.788C438.257 242.41 437.494 252.462 433.722 253.797C429.951 255.133 402.202 254.428 381.599 251.626C360.996 248.823 332.337 236.393 313.363 227.706C294.388 219.019 285.129 215.277 271.262 215.38C257.394 215.482 230.511 216.069 205.682 210.346C180.852 204.623 163.977 194.204 159.31 189.641C154.644 185.077 157.535 174.159 159.134 163.212ZM307.816 214.749C314.61 224.801 341.992 234.706 356.726 238.8C371.459 242.894 406.795 250.231 416.01 245.139C425.226 240.047 430.068 209.745 429.217 199.238C428.366 188.731 424.066 182.89 424.066 182.89C405.914 171.665 349.109 159.852 337.37 164.562C325.63 169.273 314.404 184.461 310.281 196.67C306.157 208.879 307.816 214.749 307.816 214.749ZM189.202 197.477C207.34 208.277 235.94 211.447 247.284 211.799C258.627 212.151 269.515 206.193 269.853 193.163C270.19 180.132 263.323 158.325 260.755 152.074C258.187 145.823 249.764 142.066 249.764 142.066C238.391 136.681 191.242 124.809 183.259 126.13C175.276 127.45 168.291 139.572 166.662 157.284C165.033 174.996 171.065 186.676 189.202 197.477Z" fill="#39404F" stroke="#39404F" stroke-width="1.27267" stroke-linecap="round" stroke-linejoin="round"/>
<path d="M434.368 225.68C434.368 225.68 439.034 232.798 442.365 227.735C445.697 222.672 488.663 174.481 488.663 174.481C488.663 174.481 490.336 174.041 489.94 177.416C489.544 180.791 444.567 241.177 442.894 244.126C441.221 247.076 434.089 247.971 432.416 246.724C430.743 245.476 434.368 225.68 434.368 225.68Z" fill="white" stroke="#39404F" stroke-width="1.27267" stroke-linecap="round" stroke-linejoin="round"/>
<path d="M485.728 176.17C488.183 171.798 490.397 167.296 492.361 162.684C496.91 152.573 499.698 132.807 500.432 112.204C501.166 91.6007 501.899 79.421 505.7 83.1776C509.501 86.9343 506.243 107.141 505.539 123.092C504.834 139.043 499.874 155.068 498.671 163.491C497.761 169.845 492.889 179.912 489.529 179.926C486.168 179.941 486.594 179.104 485.728 176.17Z" fill="#39404F" stroke="#39404F" stroke-width="1.27267" stroke-linecap="round" stroke-linejoin="round"/>
<path d="M208.47 439.576L226.945 460.487L199.474 454.294L4.01074 334.712L13.0208 319.994L208.47 439.576Z" fill="white" stroke="#39404F" stroke-width="1.4364" stroke-linecap="round" stroke-linejoin="round"/>
<g style="mix-blend-mode:multiply" opacity="0.5">
<path d="M208.47 439.576L226.945 460.487L199.474 454.294L4.01074 334.712L13.0208 319.994L208.47 439.576Z" fill="white"/>
<path d="M208.47 439.576L226.945 460.487L199.474 454.294L4.01074 334.712L13.0208 319.994L208.47 439.576Z" stroke="#39404F" stroke-width="1.4364" stroke-linecap="round" stroke-linejoin="round"/>
</g>
<path d="M10.9756 323.344L6.06641 331.367L201.525 450.957L206.434 442.933L10.9756 323.344Z" stroke="#39404F" stroke-width="0.718198" stroke-linecap="round" stroke-linejoin="round"/>
<path d="M208.514 439.62L199.518 454.309L226.945 460.487L208.514 439.62Z" fill="white" stroke="#39404F" stroke-width="1.4364" stroke-linecap="round" stroke-linejoin="round"/>
<path d="M213.224 457.39L226.945 460.486L217.729 450.053L213.224 457.39Z" fill="white" stroke="#39404F" stroke-width="1.4364" stroke-linecap="round" stroke-linejoin="round"/>
<path d="M-13.3635 313.962C-13.9562 314.927 -14.3528 315.999 -14.5305 317.118C-14.7082 318.237 -14.6636 319.379 -14.3992 320.481C-14.1347 321.582 -13.6557 322.62 -12.9895 323.536C-12.3233 324.452 -11.483 325.228 -10.5167 325.819L4.01104 334.711L13.0211 320.037L-1.50655 311.144C-3.45326 309.948 -5.79475 309.574 -8.01749 310.102C-10.2402 310.63 -12.1628 312.018 -13.3635 313.962Z" fill="white" stroke="#39404F" stroke-width="1.4364" stroke-linecap="round" stroke-linejoin="round"/>
<path d="M-13.3635 313.962C-13.9562 314.927 -14.3528 315.999 -14.5305 317.118C-14.7082 318.237 -14.6636 319.379 -14.3992 320.481C-14.1347 321.582 -13.6557 322.62 -12.9895 323.536C-12.3233 324.452 -11.483 325.228 -10.5167 325.819L-3.56097 330.074L5.44913 315.4L-1.50655 311.144C-3.45326 309.948 -5.79475 309.574 -8.01749 310.102C-10.2402 310.63 -12.1628 312.018 -13.3635 313.962Z" fill="#39404F" stroke="#39404F" stroke-width="1.4364" stroke-linecap="round" stroke-linejoin="round"/>
<path d="M381.071 243.892L375.92 240.268C375.124 239.709 374.211 239.336 373.251 239.179C372.29 239.021 371.307 239.082 370.373 239.358C364.929 240.943 354.657 244.978 351.722 248.162C347.907 252.095 346.703 259.212 348.538 262.558C350.372 265.904 357.9 270.174 357.9 270.174L389.435 250.98L381.071 243.892Z" fill="white" stroke="#39404F" stroke-width="0.9473" stroke-miterlimit="10"/>
<g style="mix-blend-mode:multiply" opacity="0.5">
<path d="M381.071 243.892L375.92 240.268C375.124 239.709 374.211 239.336 373.251 239.179C372.29 239.021 371.307 239.082 370.373 239.358C364.929 240.943 354.657 244.978 351.722 248.162C347.907 252.095 346.703 259.212 348.538 262.558C350.372 265.904 357.9 270.174 357.9 270.174L389.435 250.98L381.071 243.892Z" fill="white"/>
<path d="M381.071 243.892L375.92 240.268C375.124 239.709 374.211 239.336 373.251 239.179C372.29 239.021 371.307 239.082 370.373 239.358C364.929 240.943 354.657 244.978 351.722 248.162C347.907 252.095 346.703 259.212 348.538 262.558C350.372 265.904 357.9 270.174 357.9 270.174L389.435 250.98L381.071 243.892Z" stroke="#39404F" stroke-width="0.9473" stroke-miterlimit="10"/>
</g>
<path d="M384.285 242.41L359.338 253.812C359.338 253.812 350.901 258.582 353.571 273.183L499.655 380.746C499.655 380.746 504.733 384.444 513.904 381.319C523.076 378.193 532.467 367.378 534.448 358.236C536.429 349.094 530.046 346.217 528.857 345.205C527.669 344.192 389.215 243.496 389.215 243.496C387.752 242.562 386.005 242.178 384.285 242.41Z" fill="white" stroke="#39404F" stroke-width="0.9473" stroke-miterlimit="10"/>
<g style="mix-blend-mode:multiply" opacity="0.5">
<path d="M384.285 242.41L359.338 253.812C359.338 253.812 350.901 258.582 353.571 273.183L499.655 380.746C499.655 380.746 504.733 384.444 513.904 381.319C523.076 378.193 532.467 367.378 534.448 358.236C536.429 349.094 530.046 346.217 528.857 345.205C527.669 344.192 389.215 243.496 389.215 243.496C387.752 242.562 386.005 242.178 384.285 242.41Z" fill="white"/>
<path d="M384.285 242.41L359.338 253.812C359.338 253.812 350.901 258.582 353.571 273.183L499.655 380.746C499.655 380.746 504.733 384.444 513.904 381.319C523.076 378.193 532.467 367.378 534.448 358.236C536.429 349.094 530.046 346.217 528.857 345.205C527.669 344.192 389.215 243.496 389.215 243.496C387.752 242.562 386.005 242.178 384.285 242.41Z" stroke="#39404F" stroke-width="0.9473" stroke-miterlimit="10"/>
</g>
<path d="M524.617 373.731C515.416 382.315 504.278 385.338 499.67 380.467C495.062 375.595 498.863 364.662 508.064 356.063C517.265 347.464 528.403 344.455 533.011 349.327C537.618 354.199 533.803 365.132 524.617 373.731Z" fill="white" stroke="#39404F" stroke-width="0.9473" stroke-miterlimit="10"/>
<g style="mix-blend-mode:multiply">
<path d="M524.617 373.731C515.416 382.315 504.278 385.338 499.67 380.467C495.062 375.595 498.863 364.662 508.064 356.063C517.265 347.464 528.403 344.455 533.011 349.327C537.618 354.199 533.803 365.132 524.617 373.731Z" fill="white"/>
<path d="M524.617 373.731C515.416 382.315 504.278 385.338 499.67 380.467C495.062 375.595 498.863 364.662 508.064 356.063C517.265 347.464 528.403 344.455 533.011 349.327C537.618 354.199 533.803 365.132 524.617 373.731Z" stroke="#39404F" stroke-width="0.9473" stroke-miterlimit="10"/>
</g>
<path d="M389.201 243.496C387.742 242.565 386 242.181 384.285 242.41L359.338 253.812C359.338 253.812 350.901 258.581 353.571 273.182L454.59 347.567C453.871 344.133 454.003 339.114 457.862 333.156C461.443 327.595 477.526 318.629 486.214 314.08C445.096 284.159 389.201 243.496 389.201 243.496Z" fill="#39404F" stroke="#39404F" stroke-width="1.27267" stroke-linecap="round" stroke-linejoin="round"/>
<path d="M505.114 355.799L451.758 317.132C450.96 316.554 450.319 315.784 449.897 314.894C449.474 314.004 449.282 313.021 449.339 312.037C449.396 311.053 449.7 310.099 450.223 309.264C450.746 308.428 451.47 307.738 452.33 307.256L460.592 302.751C461.562 302.226 462.659 301.985 463.76 302.055C464.86 302.125 465.919 302.503 466.814 303.147L523.222 344.001" fill="white"/>
<path d="M505.114 355.799L451.758 317.132C450.96 316.554 450.319 315.784 449.897 314.894C449.474 314.004 449.282 313.021 449.339 312.037C449.396 311.053 449.7 310.099 450.223 309.264C450.746 308.428 451.47 307.738 452.33 307.256L460.592 302.751C461.562 302.226 462.659 301.985 463.76 302.055C464.86 302.125 465.919 302.503 466.814 303.147L523.222 344.001" stroke="#39404F" stroke-width="0.9473" stroke-miterlimit="10"/>
<g style="mix-blend-mode:multiply" opacity="0.5">
<path d="M505.114 355.799L451.758 317.132C450.96 316.554 450.319 315.784 449.897 314.894C449.474 314.004 449.282 313.021 449.339 312.037C449.396 311.053 449.7 310.099 450.223 309.264C450.746 308.428 451.47 307.738 452.33 307.256L460.592 302.751C461.562 302.226 462.659 301.985 463.76 302.055C464.86 302.125 465.919 302.503 466.814 303.147L523.222 344.001" fill="white"/>
<path d="M505.114 355.799L451.758 317.132C450.96 316.554 450.319 315.784 449.897 314.894C449.474 314.004 449.282 313.021 449.339 312.037C449.396 311.053 449.7 310.099 450.223 309.264C450.746 308.428 451.47 307.738 452.33 307.256L460.592 302.751C461.562 302.226 462.659 301.985 463.76 302.055C464.86 302.125 465.919 302.503 466.814 303.147L523.222 344.001" stroke="#39404F" stroke-width="0.9473" stroke-miterlimit="10"/>
</g>
</g>
</svg>
