<svg width="610" height="435" viewBox="0 0 610 435" fill="none" xmlns="http://www.w3.org/2000/svg">
<path d="M462.627 206.203V206.105C449.341 201.693 428.957 203.191 425.928 204.998C422.709 207.154 419.943 209.919 417.788 213.139C410.631 223.292 405.501 234.729 402.678 246.825L258.18 260.258C252.856 248.763 244.829 238.457 236.77 232.237C234.467 230.309 231.813 228.844 228.955 227.923C227.696 227.772 226.422 227.816 225.177 228.053C219.935 212.862 212.51 198.209 203.23 197.281C183.692 195.327 149.599 201.872 140.302 220.824C131.005 239.776 128.091 287.09 128.091 287.09L121.578 293.602C116.828 284.348 110.222 276.173 102.171 269.587C99.8756 267.648 97.2196 266.181 94.3556 265.272C92.7275 264.816 86.2149 265.826 79.3929 268.057C79.1161 267.796 78.8556 267.535 78.5626 267.291C72.05 261.837 58.6992 258.857 51.2422 272.762C43.7853 286.666 52.7401 312.993 57.2013 318.952C59.3678 321.997 62.0847 324.609 65.2118 326.654C70.4707 339.679 79.8651 356.286 94.3231 357.051C99.2752 357.318 104.227 356.516 108.842 354.702C113.458 352.887 117.629 350.101 121.074 346.533C130.452 336.764 131.461 323.039 127.928 309.607L129.442 307.393C129.442 307.393 132.813 312.196 145.724 310.258C149.467 309.873 153.015 308.401 155.932 306.025C161.989 321.476 171.774 336.96 187.323 339.272C193.996 340.293 200.811 339.864 207.304 338.016C213.797 336.167 219.815 332.941 224.949 328.559C227.934 325.981 230.538 322.994 232.683 319.685C241.389 319.205 249.591 315.447 255.64 309.167C261.053 303.395 264.148 295.831 264.334 287.92L283.563 285.673C295.634 291.057 308.803 293.523 322.003 292.87C334.644 292.057 346.61 286.878 355.853 278.216L399.666 274.471C400.399 291.453 406.504 307.034 420.832 315.615C426.318 318.889 432.448 320.935 438.8 321.612C445.152 322.29 451.576 321.582 457.628 319.539C477.834 312.765 482.62 282.742 483.923 264.491C485.942 235.184 476.596 210.355 462.627 206.203Z" fill="#39404F" stroke="#39404F" stroke-width="0.75" stroke-linecap="round" stroke-linejoin="round"/>
<path d="M195.122 329.845C193.442 331.993 191.299 333.735 188.854 334.941" stroke="white" stroke-width="0.5" stroke-linecap="round" stroke-linejoin="round"/>
<path d="M203.019 291.258C203.019 291.258 204.957 312.424 197.744 325.856" stroke="white" stroke-width="0.5" stroke-linecap="round" stroke-linejoin="round"/>
<path d="M208.734 314.638C206.894 322.779 203.231 330.676 196.132 334.176" stroke="white" stroke-width="0.5" stroke-linecap="round" stroke-linejoin="round"/>
<path d="M217.574 289.646C217.574 289.646 220.831 324.831 203.426 333.329" stroke="white" stroke-width="0.5" stroke-linecap="round" stroke-linejoin="round"/>
<path d="M224.869 288.832C224.869 288.832 228.125 324.033 210.704 332.516" stroke="white" stroke-width="0.5" stroke-linecap="round" stroke-linejoin="round"/>
<path d="M444.522 313.498C442.651 315.862 440.326 317.827 437.684 319.278" stroke="white" stroke-width="0.5" stroke-linecap="round" stroke-linejoin="round"/>
<path d="M457.612 269.555C457.612 269.555 456.57 293.635 447.632 308.956" stroke="white" stroke-width="0.5" stroke-linecap="round" stroke-linejoin="round"/>
<path d="M459.941 296.224C457.011 305.488 452.321 314.476 444.913 318.384" stroke="white" stroke-width="0.5" stroke-linecap="round" stroke-linejoin="round"/>
<path d="M472.072 267.764C472.072 267.764 470.33 307.881 452.144 317.487" stroke="white" stroke-width="0.5" stroke-linecap="round" stroke-linejoin="round"/>
<path d="M479.332 266.885C479.332 266.885 477.59 306.986 459.403 316.608" stroke="white" stroke-width="0.5" stroke-linecap="round" stroke-linejoin="round"/>
<path d="M98.9174 351.613C97.5318 353.736 95.7046 355.536 93.5605 356.889" stroke="white" stroke-width="0.5" stroke-linecap="round" stroke-linejoin="round"/>
<path d="M101.487 317.374C101.487 317.374 106.079 335.283 100.901 347.804" stroke="white" stroke-width="0.5" stroke-linecap="round" stroke-linejoin="round"/>
<path d="M110.003 336.602C109.27 343.847 106.746 351.142 100.445 355.147" stroke="white" stroke-width="0.5" stroke-linecap="round" stroke-linejoin="round"/>
<path d="M115.228 313.889C115.228 313.889 122.881 343.603 107.315 353.388" stroke="white" stroke-width="0.5" stroke-linecap="round" stroke-linejoin="round"/>
<path d="M122.099 312.131C122.099 312.131 129.768 341.845 114.187 351.646" stroke="white" stroke-width="0.5" stroke-linecap="round" stroke-linejoin="round"/>
<path d="M178.223 279.193C182.098 301.352 179.672 320.304 172.834 321.525C165.996 322.746 157.285 305.716 153.41 283.557C149.535 261.398 151.961 242.446 158.816 241.225C165.67 240.004 174.348 257.018 178.223 279.193Z" fill="white" stroke="#39404F" stroke-linecap="round" stroke-linejoin="round"/>
<path d="M174.771 279.666C175.846 288.165 174.853 295.28 172.525 295.573C170.196 295.866 167.461 289.223 166.386 280.724C165.312 272.225 166.387 265.094 168.633 264.801C170.88 264.508 173.697 271.167 174.771 279.666Z" fill="white" stroke="#39404F" stroke-linecap="round" stroke-linejoin="round"/>
<path d="M158.441 259.346C158.672 256.493 159.124 253.663 159.793 250.88" stroke="#39404F" stroke-width="0.75" stroke-linecap="round" stroke-linejoin="round"/>
<path d="M169.234 313.531C164.729 304.51 161.507 294.903 159.661 284.99C158.435 277.977 157.938 270.857 158.179 263.742" stroke="#39404F" stroke-width="0.75" stroke-linecap="round" stroke-linejoin="round"/>
<path d="M82.4021 345.049C87.3241 343.685 87.7339 329.66 83.3175 313.725C78.9012 297.789 71.331 285.976 66.409 287.34C61.4871 288.705 61.0772 302.729 65.4936 318.664C69.9099 334.6 77.4802 346.413 82.4021 345.049Z" fill="white" stroke="#39404F" stroke-linecap="round" stroke-linejoin="round"/>
<path d="M81.706 314.362C83.2528 320.419 83.1714 325.662 81.5106 326.085C79.8498 326.508 77.2772 321.933 75.7304 315.892C74.1836 309.852 74.265 304.576 75.9258 304.169C77.5866 303.762 80.1592 308.305 81.706 314.362Z" stroke="#39404F" stroke-width="0.75" stroke-linecap="round" stroke-linejoin="round"/>
<path d="M68.0618 301.125C67.9709 299.038 68.0417 296.948 68.2734 294.873" stroke="#39404F" stroke-width="0.75" stroke-linecap="round" stroke-linejoin="round"/>
<path d="M80.7457 339.37C76.6744 333.245 73.4795 326.581 71.2536 319.572C69.7322 314.609 68.7282 309.502 68.2578 304.332" stroke="#39404F" stroke-width="0.75" stroke-linecap="round" stroke-linejoin="round"/>
<path d="M431.417 41.7603C414.257 6.34801 406.848 3.27081 395.435 2.68468C384.022 2.09854 357.076 -1.25545 327.053 3.5476C327.053 3.5476 243.301 2.08227 178.5 41.337C110.851 82.3175 77.9297 118.316 73.322 136.974C68.7144 155.633 52.9865 204.25 45.5295 232.124C38.0726 259.997 32.9928 284.55 42.5012 307.116C48.2485 320.76 54.3704 324.863 62.2343 324.798C61.0312 322.639 59.9706 320.404 59.0595 318.106C51.2443 298.747 52.1887 271.053 61.1109 269.262C70.0332 267.471 75.3572 286.015 80.7464 306.237C81.8162 310.694 83.2651 315.052 85.0773 319.262C98.4118 314.231 119.773 302.981 148.168 291.29C145.472 273.53 145.412 255.47 147.989 237.692C152.19 209.899 169.953 203.761 177.686 220.678C184.085 234.615 186.462 265.81 187.097 276.328C198.494 272.404 208.035 269.815 213.913 269.457C213.913 269.457 311.081 247.51 382.703 245.751C454.325 243.993 490.161 242.283 490.161 242.283C490.161 242.283 448.578 77.1074 431.417 41.7603Z" fill="white"/>
<path d="M202.432 212.618C202.432 212.618 192.582 226.099 180.599 228.981C184.832 244.514 186.574 267.503 187.111 276.198C197.287 272.697 205.933 270.239 211.859 269.522C212.722 264.442 213.243 261.202 213.243 261.202L202.432 212.618Z" fill="white"/>
<path opacity="0.2" d="M81.1688 307.702C85.6951 308.158 88.7071 310.112 97.9062 307.816C114.188 303.762 102.481 272.339 129.492 259.509C134.736 256.865 140.442 255.262 146.295 254.787C146.538 249.037 147.081 243.304 147.923 237.61C148.64 232.018 150.291 226.586 152.807 221.541C145.432 219.277 144.097 217.112 131.527 223.087C104.5 235.917 108.554 269.017 92.3542 273.072C79.4267 276.328 78.7103 271.134 68.8926 273.544C73.484 280.056 77.0333 292.74 80.6152 306.107C80.892 306.709 81.0223 307.149 81.1688 307.702Z" fill="white"/>
<g style="mix-blend-mode:multiply">
<g style="mix-blend-mode:multiply" opacity="0.2">
<path d="M54.5801 279.877C47.0092 285.087 42.4992 292.902 39.9268 299.496C40.6246 302.098 41.4837 304.654 42.4992 307.148C48.2466 320.792 54.3684 324.895 62.2324 324.83C61.0292 322.671 59.9687 320.436 59.0575 318.138C54.0917 305.813 52.7566 290.134 54.5801 279.877Z" fill="white"/>
</g>
</g>
<g style="mix-blend-mode:multiply" opacity="0.2">
<path d="M395.434 2.68471L392.487 2.50562C273.746 32.8869 225.439 176.001 208.815 244.97C209.711 251.824 210.688 258.548 211.746 265.094C213.765 264.703 212.365 269.457 213.912 269.376C213.912 269.376 311.079 247.428 382.702 245.67C454.324 243.911 490.16 242.202 490.16 242.202C490.16 242.202 448.577 77.1074 431.416 41.7603C414.255 6.41318 406.847 3.20572 395.434 2.68471Z" fill="white"/>
</g>
<path d="M431.417 41.7603C414.257 6.34801 406.848 3.27081 395.435 2.68468C384.022 2.09854 357.076 -1.25545 327.053 3.5476C327.053 3.5476 243.301 2.08227 178.5 41.337C110.851 82.3175 77.9297 118.316 73.322 136.974C68.7144 155.633 52.9865 204.25 45.5295 232.124C38.0726 259.997 32.9928 284.55 42.5012 307.116C48.2485 320.76 54.3704 324.863 62.2343 324.798C61.0312 322.639 59.9706 320.404 59.0595 318.106C51.2443 298.747 52.1887 271.053 61.1109 269.262C70.0332 267.471 75.3572 286.015 80.7464 306.237C81.8162 310.694 83.2651 315.052 85.0773 319.262C98.4118 314.231 119.773 302.981 148.168 291.29C145.472 273.53 145.412 255.47 147.989 237.692C152.19 209.899 169.953 203.761 177.686 220.678C184.085 234.615 186.462 265.81 187.097 276.328C198.494 272.404 208.035 269.815 213.913 269.457C213.913 269.457 311.081 247.51 382.703 245.751C454.325 243.993 490.161 242.283 490.161 242.283C490.161 242.283 448.578 77.1074 431.417 41.7603Z" stroke="#39404F" stroke-linecap="round" stroke-linejoin="round"/>
<path opacity="0.2" d="M75.9912 220.466C77.1089 221.396 78.4693 221.986 79.9117 222.168C81.3542 222.35 82.8186 222.115 84.132 221.492C89.2606 219.44 89.7816 211.723 89.7816 211.723L97.4665 211.218L99.0133 187.105L82.0805 193.764C82.0805 193.764 77.538 217.389 75.9912 220.466Z" fill="white"/>
<path d="M53.7819 290.981C48.9202 293.565 44.3232 296.619 40.0566 300.099C40.7317 302.484 41.5472 304.827 42.4989 307.116C48.2462 320.76 54.3681 324.863 62.232 324.798C61.0289 322.639 59.9683 320.404 59.0572 318.106C55.7194 309.444 53.9337 300.262 53.7819 290.981Z" fill="#39404F" stroke="#39404F" stroke-width="0.75" stroke-linecap="round" stroke-linejoin="round"/>
<path d="M79.7179 277.533C79.2773 277.531 78.8453 277.41 78.4672 277.184C78.0892 276.958 77.7788 276.634 77.5687 276.247C77.2724 275.684 77.2087 275.028 77.3914 274.419C77.5741 273.81 77.9886 273.297 78.5456 272.99C78.9364 272.779 110.62 253.143 136.866 239.19C137.149 239.039 137.459 238.946 137.779 238.915C138.098 238.884 138.421 238.916 138.728 239.01C139.034 239.104 139.32 239.257 139.568 239.461C139.815 239.665 140.02 239.916 140.171 240.199C140.322 240.483 140.415 240.793 140.446 241.112C140.477 241.432 140.445 241.754 140.351 242.061C140.257 242.368 140.104 242.653 139.9 242.901C139.696 243.149 139.445 243.354 139.162 243.505C112.932 257.441 81.2646 277.061 80.8739 277.272C80.5175 277.457 80.1192 277.547 79.7179 277.533Z" fill="#39404F" stroke="#39404F" stroke-miterlimit="10"/>
<path d="M121.139 114.327L120.015 142.282C119.771 146.092 121.986 147.932 124.9 146.287L169.918 116.981C171.573 115.827 172.908 114.271 173.796 112.46C174.685 110.648 175.098 108.641 174.998 106.626L174.721 75.4467C174.396 72.6137 172.474 71.4577 170.114 72.6789C161.647 77.0586 145.301 91.8747 125.763 105.665C124.439 106.714 123.345 108.025 122.55 109.515C121.754 111.005 121.274 112.643 121.139 114.327Z" fill="white" stroke="#39404F" stroke-linecap="round" stroke-linejoin="round"/>
<path d="M151.555 106.447L173.552 111.82" stroke="#39404F" stroke-linecap="round" stroke-linejoin="round"/>
<path d="M121.465 146.418L135.044 116.427" stroke="#39404F" stroke-linecap="round" stroke-linejoin="round"/>
<path d="M121.399 113.399L141.361 115.89C143.428 116.199 146.001 114.49 147.873 111.526L173.924 74.2256" stroke="#39404F" stroke-linecap="round" stroke-linejoin="round"/>
<path d="M232.845 62.3888L237.469 132.399C237.589 134.42 238.119 136.395 239.028 138.205C239.937 140.014 241.204 141.619 242.754 142.921C244.304 144.224 246.103 145.197 248.041 145.782C249.979 146.366 252.016 146.549 254.028 146.32L409.548 126.131C411.691 125.884 413.755 125.175 415.596 124.052C417.438 122.93 419.014 121.421 420.215 119.629C421.417 117.838 422.215 115.807 422.555 113.678C422.894 111.548 422.767 109.369 422.183 107.293L402.547 37.8689C401.618 34.5697 399.577 31.6931 396.771 29.7259C393.964 27.7588 390.563 26.822 387.145 27.0743C361.941 28.9304 301.488 34.3521 244.422 47.0679C240.995 47.8464 237.954 49.8109 235.836 52.6144C233.717 55.418 232.658 58.88 232.845 62.3888Z" fill="white" stroke="#39404F" stroke-linecap="round" stroke-linejoin="round"/>
<path d="M348.444 84.0923L419.448 117.73" stroke="#39404F" stroke-linecap="round" stroke-linejoin="round"/>
<path d="M243.364 143.243L303.329 89.5789" stroke="#39404F" stroke-linecap="round" stroke-linejoin="round"/>
<path d="M233.368 60.5493L319.416 95.929C322.647 97.2487 326.191 97.6019 329.619 96.9458C333.047 96.2897 336.211 94.6526 338.726 92.2331L400.058 34.3198" stroke="#39404F" stroke-linecap="round" stroke-linejoin="round"/>
<path d="M405.213 136.04C419.83 135.681 431.392 123.744 431.038 109.379C430.685 95.0141 418.549 83.6607 403.933 84.0204C389.316 84.3802 377.753 96.3169 378.107 110.682C378.461 125.047 390.596 136.4 405.213 136.04Z" fill="#39404F" stroke="#39404F" stroke-width="0.75" stroke-linecap="round" stroke-linejoin="round"/>
<path d="M401.717 122.451H401.636C401.122 122.453 400.615 122.333 400.157 122.101C399.698 121.868 399.301 121.531 398.998 121.116L388.594 106.756C388.087 106.057 387.878 105.184 388.014 104.331C388.15 103.477 388.619 102.713 389.319 102.205C390.018 101.698 390.891 101.489 391.744 101.625C392.598 101.761 393.362 102.23 393.87 102.93L401.636 113.643L420.197 87.9998C420.704 87.3003 421.469 86.831 422.322 86.6951C423.175 86.5592 424.048 86.7679 424.747 87.2753C425.447 87.7827 425.916 88.5472 426.052 89.4006C426.188 90.254 425.979 91.1264 425.472 91.826L404.306 121.133C404.006 121.538 403.616 121.868 403.167 122.097C402.718 122.326 402.221 122.447 401.717 122.451Z" fill="white" stroke="#39404F" stroke-linecap="round" stroke-linejoin="round"/>
<path d="M303.377 192.625C303.377 192.625 358.734 182.009 396.67 182.758L398.949 191.876C398.949 191.876 319.3 195.653 304.126 203.273L303.377 192.625Z" fill="#39404F" stroke="#39404F" stroke-width="0.75" stroke-linecap="round" stroke-linejoin="round"/>
<path d="M304.127 203.24L305.755 212.358C305.923 213.374 306.483 214.284 307.314 214.892C308.144 215.501 309.18 215.76 310.2 215.614C324.088 213.628 372.835 206.936 398.12 207.555C398.743 207.574 399.361 207.446 399.925 207.181C400.489 206.915 400.982 206.521 401.365 206.029C401.747 205.537 402.008 204.961 402.126 204.35C402.244 203.738 402.216 203.107 402.044 202.508L399.015 191.908" stroke="#39404F" stroke-linecap="round" stroke-linejoin="round"/>
<path d="M102.123 187.138L101.814 149.528L103.686 110.859C103.7 110.489 103.602 110.124 103.405 109.81C103.208 109.497 102.921 109.25 102.582 109.103C102.242 108.955 101.866 108.913 101.503 108.982C101.139 109.052 100.805 109.229 100.544 109.491C93.5428 116.655 81.5596 127.499 78.0102 136.388C73.4025 147.9 67.9482 204.559 67.9482 204.559L102.123 187.138Z" fill="#39404F" stroke="#39404F" stroke-width="0.75" stroke-linecap="round" stroke-linejoin="round"/>
<path d="M58.7646 179.583H53.3103C50.5317 179.583 48.2793 181.835 48.2793 184.614V212.716C48.2793 215.494 50.5317 217.747 53.3103 217.747H58.7646C61.5431 217.747 63.7956 215.494 63.7956 212.716V184.614C63.7956 181.835 61.5431 179.583 58.7646 179.583Z" fill="#39404F" stroke="#39404F" stroke-width="0.75" stroke-linecap="round" stroke-linejoin="round"/>
<path d="M62.1992 153.338C64.7812 153.833 67.303 154.603 69.7215 155.634C71.727 156.621 73.5496 157.942 75.1109 159.541L83.252 148.779C83.252 148.779 71.3172 143.78 69.054 140.736L66.807 137.675L62.1992 153.338Z" fill="white"/>
<g style="mix-blend-mode:multiply" opacity="0.5">
<path d="M69.0377 140.736L66.9373 137.821L66.6931 137.984L62.1992 153.289C62.1992 153.289 63.0622 153.452 64.2833 153.745L75.925 145.311C73.3807 144.198 71.05 142.649 69.0377 140.736Z" fill="white"/>
</g>
<path d="M62.1992 153.338C64.7812 153.833 67.303 154.603 69.7215 155.634C71.727 156.621 73.5496 157.942 75.1109 159.541L83.252 148.779C83.252 148.779 71.3172 143.78 69.054 140.736L66.807 137.675L62.1992 153.338Z" stroke="#39404F" stroke-width="0.75" stroke-linecap="round" stroke-linejoin="round"/>
<path d="M79.3937 144.203L69.4453 156.887L70.7967 161.202L85.9554 145.457L79.3937 144.203Z" fill="white" stroke="#39404F" stroke-linecap="round" stroke-linejoin="round"/>
<path d="M63.4691 108.368C56.7449 103.158 39.226 106.479 35.7906 118.821C33.674 126.424 34.8462 137.821 34.8462 137.821L54.8074 133.588L56.4355 136.046C59.6918 140.931 66.7417 137.675 68.5652 136.046C69.5584 135.184 69.4933 132.644 69.2328 130.543L70.0305 130.364C70.0305 130.364 70.1771 113.594 63.4691 108.368Z" fill="#39404F" stroke="#39404F" stroke-width="0.75" stroke-linecap="round" stroke-linejoin="round"/>
<path d="M56.0135 132.09C47.2523 131.114 38.3839 131.956 29.9631 134.565C16.9379 138.928 14.9353 142.706 24.2646 142.478C33.5939 142.25 56.0135 132.09 56.0135 132.09Z" fill="#39404F" stroke="#39404F" stroke-width="0.75" stroke-linecap="round" stroke-linejoin="round"/>
<path d="M39.9284 127.352C41.4481 127.352 42.6801 125.668 42.6801 123.591C42.6801 121.514 41.4481 119.83 39.9284 119.83C38.4087 119.83 37.1768 121.514 37.1768 123.591C37.1768 125.668 38.4087 127.352 39.9284 127.352Z" fill="white"/>
<path d="M101.814 149.527C101.814 149.527 83.9861 145.001 78.4992 149.169C73.0124 153.337 71.6122 160.224 73.3706 168.577C75.129 176.929 79.411 198.893 79.411 198.893L102.124 187.138L101.814 149.527Z" fill="#39404F" stroke="#39404F" stroke-width="0.75" stroke-linecap="round" stroke-linejoin="round"/>
<path d="M73.516 195.393C73.516 195.393 72.5554 203.826 71.4319 205.015C70.3085 206.204 40.6762 181.309 38.869 178.965C37.0617 176.62 38.2991 168.251 38.869 165.63C39.4388 163.009 38.4782 161.576 35.6127 163.383C32.7471 165.19 33.5124 172.712 33.5124 172.712C33.5124 172.712 24.7692 170.612 23.0271 170.368C21.2849 170.124 19.7708 172.289 20.0313 174.015C20.2918 175.741 22.5875 175.887 22.5875 175.887C22.0001 178.386 22.1644 181.003 23.0596 183.409C24.5901 186.568 26.3159 188.554 29.5722 189.336C32.9319 189.86 36.3334 190.067 39.7319 189.955C39.7319 189.955 54.8737 204.38 59.2697 209.769C63.6657 215.158 72.9298 222.485 77.5375 221.166C82.1452 219.847 86.5412 196.842 86.5412 196.842L73.516 195.393Z" fill="white"/>
<g style="mix-blend-mode:multiply" opacity="0.5">
<path d="M71.4335 205.015L80.0952 207.896C80.3699 209.713 79.986 211.569 79.0126 213.127C78.0392 214.686 76.5406 215.845 74.7874 216.395C70.9613 217.665 64.0905 213.318 59.2061 209.655L59.3526 209.834C63.83 215.239 73.0128 222.55 77.6204 221.231C82.2281 219.912 86.6241 196.906 86.6241 196.906L73.5175 195.278C73.5175 195.278 72.5569 203.826 71.4335 205.015Z" fill="white"/>
</g>
<path d="M73.516 195.393C73.516 195.393 72.5554 203.826 71.432 205.015C70.3085 206.204 40.6762 181.309 38.869 178.965C37.0617 176.62 38.2991 168.251 38.869 165.63C39.4388 163.009 38.4782 161.576 35.6127 163.383C32.7471 165.19 33.5123 172.712 33.5123 172.712C33.5123 172.712 24.7692 170.612 23.0271 170.368C21.2849 170.124 19.7708 172.289 20.0313 174.015C20.2918 175.741 22.5875 175.887 22.5875 175.887C22.0001 178.386 22.1644 181.003 23.0596 183.409C24.5901 186.568 26.3159 188.554 29.5722 189.336C32.9319 189.86 36.3334 190.067 39.7319 189.955C39.7319 189.955 54.8737 204.38 59.2697 209.769C63.6657 215.158 72.9298 222.485 77.5375 221.166C82.1452 219.847 86.5412 196.842 86.5412 196.842L73.516 195.393Z" stroke="#39404F" stroke-width="0.75" stroke-linecap="round" stroke-linejoin="round"/>
<path d="M43.8997 183.54L39.7314 190.02L41.8644 191.469L46.1303 185.363L43.8997 183.54Z" fill="#39404F" stroke="#39404F" stroke-miterlimit="10"/>
<path d="M42.4671 189.645C43.3663 189.645 44.0953 188.916 44.0953 188.017C44.0953 187.118 43.3663 186.389 42.4671 186.389C41.5678 186.389 40.8389 187.118 40.8389 188.017C40.8389 188.916 41.5678 189.645 42.4671 189.645Z" fill="white" stroke="#39404F" stroke-width="0.75" stroke-linecap="round" stroke-linejoin="round"/>
<path d="M38.4785 139.905C38.4785 139.905 39.4717 142.364 41.1324 146.678C42.7931 150.993 51.7154 160.094 56.0788 160.615C60.4422 161.136 65.6686 145.278 66.499 142.005C66.7758 140.931 67.0525 139.205 67.0525 139.205C67.0525 139.205 72.5394 136.616 71.2694 133.49C69.9995 130.364 67.427 128.931 66.2059 129.892C64.9848 130.853 64.7731 134.907 62.9496 134.939C61.1261 134.972 60.1329 134.402 58.521 132.253C56.9092 130.104 40.2044 134.565 38.4785 139.905Z" fill="white"/>
<path opacity="0.5" d="M58.4921 132.253C56.8639 130.12 40.2073 134.581 38.4814 139.906L39.4258 142.315C45.7929 138.475 52.7121 135.636 59.9413 133.897C59.4011 133.402 58.9154 132.851 58.4921 132.253Z" fill="white"/>
<g style="mix-blend-mode:multiply">
<g style="mix-blend-mode:multiply" opacity="0.5">
<path d="M71.0607 133.051C69.7256 130.25 67.3647 128.98 66.1761 129.892C65.4311 130.864 64.8784 131.969 64.5479 133.149C66.7106 132.906 68.8917 132.874 71.0607 133.051Z" fill="white"/>
</g>
</g>
<path d="M38.4785 139.905C38.4785 139.905 39.4717 142.364 41.1324 146.678C42.7931 150.993 51.7154 160.094 56.0788 160.615C60.4422 161.136 65.6686 145.278 66.499 142.005C66.7758 140.931 67.0525 139.205 67.0525 139.205C67.0525 139.205 72.5394 136.616 71.2694 133.49C69.9995 130.364 67.427 128.931 66.2059 129.892C64.9848 130.853 64.7731 134.907 62.9496 134.939C61.1261 134.972 60.1329 134.402 58.521 132.253C56.9092 130.104 40.2044 134.565 38.4785 139.905Z" stroke="#39404F" stroke-width="0.75" stroke-linecap="round" stroke-linejoin="round"/>
<path d="M44.389 141.078C44.6821 142.071 44.5844 142.983 44.1937 143.097C43.8029 143.21 43.233 142.494 42.9399 141.468C42.6469 140.443 42.7445 139.563 43.1353 139.449C43.5261 139.335 44.096 140.117 44.389 141.078Z" fill="#39404F" stroke="#39404F" stroke-miterlimit="10"/>
<path d="M41.3604 138.31C43.6398 137.658 44.6168 139.368 44.8936 140.947L45.3169 142.82L46.7335 150.065L48.8827 149.153" stroke="#39404F" stroke-width="0.5" stroke-linecap="round" stroke-linejoin="round"/>
<path d="M50.6406 138.863C51.1358 138.32 51.7522 137.901 52.4397 137.641C53.1272 137.381 53.8663 137.286 54.5972 137.365" stroke="#39404F" stroke-width="0.5" stroke-linecap="round" stroke-linejoin="round"/>
<path d="M52.5294 134.353C51.6031 134.547 50.753 135.005 50.0824 135.673C49.4118 136.341 48.9496 137.189 48.752 138.114" stroke="#39404F" stroke-width="0.5" stroke-linecap="round" stroke-linejoin="round"/>
<path d="M50.8203 151.498C50.8203 151.498 55.5421 150.553 55.9166 147.167" stroke="#39404F" stroke-width="0.5" stroke-linecap="round" stroke-linejoin="round"/>
<path d="M90.9054 207.604L67.0693 200.961C67.0693 200.961 69.1696 160.257 72.8493 153.37C78.5803 142.673 91.7195 147.492 94.1943 160.941C96.5063 173.64 90.9054 207.604 90.9054 207.604Z" fill="white" stroke="#39404F" stroke-linecap="round" stroke-linejoin="round"/>
<path d="M67.6377 196.435C67.6377 196.435 80.6634 199.43 88.5928 202.036" stroke="#39404F" stroke-width="0.5" stroke-linecap="round" stroke-linejoin="round"/>
<path d="M88.2676 146.255C88.2676 146.255 96.0179 146.857 101.082 151.026" stroke="white" stroke-width="0.5" stroke-linecap="round" stroke-linejoin="round"/>
<path d="M224.837 250.375C224.837 250.375 190.125 262.619 186.95 265.957C183.775 269.294 184.101 282.32 191.59 288.653C199.08 294.987 252.467 280.626 290.63 276.442C328.794 272.258 412.579 266.103 446.77 264.442C480.961 262.782 496.51 267.292 499.506 256.627C502.501 245.963 502.127 234.566 495.614 232.254C489.102 229.942 370.442 210.941 224.837 250.375Z" fill="#39404F" stroke="#39404F" stroke-width="0.75" stroke-linecap="round" stroke-linejoin="round"/>
<path d="M184.475 273.072C184.475 273.072 186.103 287.188 194.781 289.353C203.459 291.519 306.586 271.981 367.365 269.815C428.143 267.65 481.335 266.022 481.335 266.022" stroke="white" stroke-width="0.5" stroke-linecap="round" stroke-linejoin="round"/>
<path d="M234.85 280.235C275.163 270.467 358.084 256.66 497.617 260.584" stroke="white" stroke-width="0.5" stroke-linecap="round" stroke-linejoin="round"/>
<path d="M201.798 288.832C201.798 288.832 211.062 286.585 225.146 282.743" stroke="white" stroke-width="0.5" stroke-linecap="round" stroke-linejoin="round"/>
<path d="M210.296 290.444C210.734 296.497 210.571 302.578 209.808 308.598" stroke="white" stroke-width="0.5" stroke-linecap="round" stroke-linejoin="round"/>
<path d="M208.815 30.0864C208.815 30.0864 201.049 39.1881 200.446 47.3454" stroke="#39404F" stroke-width="0.75" stroke-linecap="round" stroke-linejoin="round"/>
<path d="M199.633 53.9226C199.633 53.9226 193.788 146.906 209.255 245.865" stroke="#39404F" stroke-width="0.75" stroke-linecap="round" stroke-linejoin="round"/>
<path d="M201.473 161.364C201.473 161.364 188.855 165.76 188.692 171.458C188.269 186.779 189.881 219.473 193.219 222.648C196.556 225.822 206.928 217.421 206.928 217.421C206.928 217.421 221.581 218.691 223.209 215.402C224.837 212.113 218.732 165.825 217.82 161.787C216.908 157.749 201.473 161.364 201.473 161.364Z" fill="white" stroke="#39404F" stroke-linecap="round" stroke-linejoin="round"/>
<path d="M465.038 183.409C468.322 185.014 471.891 185.955 475.539 186.177C471.501 171.003 466.926 154.103 462.205 137.235C457.939 136.942 452.436 136.942 452.55 138.863C452.631 142.152 460.918 181.032 465.038 183.409Z" fill="white" stroke="#39404F" stroke-linecap="round" stroke-linejoin="round"/>
<path d="M199.665 166.151C199.665 166.151 200.219 195.458 202.384 206.855" stroke="#39404F" stroke-width="0.75" stroke-linecap="round" stroke-linejoin="round"/>
<path d="M351.864 172.924C351.864 172.924 424.512 161.218 509.16 176.18" stroke="#39404F" stroke-linecap="round" stroke-linejoin="round"/>
<path d="M573.032 218.822C578.031 220.319 582.948 221.899 587.686 223.592" stroke="#39404F" stroke-linecap="round" stroke-linejoin="round"/>
<path d="M442.602 196.711C442.602 196.711 500.205 200.212 555.367 214.002" stroke="#39404F" stroke-linecap="round" stroke-linejoin="round"/>
<path d="M267.281 330.854C314.712 323.606 362.9 322.747 410.558 328.298" stroke="#39404F" stroke-linecap="round" stroke-linejoin="round"/>
<path d="M261.323 323.186C261.323 323.186 295.417 318.92 306.504 318.073" stroke="#39404F" stroke-linecap="round" stroke-linejoin="round"/>
<path d="M489.655 6.9668C494.54 7.66693 499.425 8.595 503.853 9.65334" stroke="#39404F" stroke-linecap="round" stroke-linejoin="round"/>
<path d="M419.466 5.35481C439.527 3.93774 459.667 4.07382 479.707 5.76185" stroke="#39404F" stroke-linecap="round" stroke-linejoin="round"/>
<path d="M156.779 202.589C156.779 202.589 205.428 179.55 275.813 173.152" stroke="#39404F" stroke-linecap="round" stroke-linejoin="round"/>
<path d="M238.708 160.338C238.708 160.338 268.161 152.67 312.968 150.097" stroke="#39404F" stroke-linecap="round" stroke-linejoin="round"/>
<path d="M155.981 323.007C161.894 333.596 171.435 341.692 182.846 345.801" stroke="#39404F" stroke-linecap="round" stroke-linejoin="round"/>
<path d="M154.354 330.333C154.354 330.333 161.68 341.731 171.45 346.616" stroke="#39404F" stroke-linecap="round" stroke-linejoin="round"/>
<path d="M394.505 289.63C394.505 289.63 399.389 312.424 418.927 322.193" stroke="#39404F" stroke-linecap="round" stroke-linejoin="round"/>
<path d="M396.948 309.982C400.82 315.653 406.169 320.157 412.416 323.008" stroke="#39404F" stroke-linecap="round" stroke-linejoin="round"/>
<path d="M74.8359 353.877C74.8359 353.877 79.7206 362.018 96.8168 362.018" stroke="#39404F" stroke-linecap="round" stroke-linejoin="round"/>
<path d="M71.5801 358.761C77.8086 363.941 85.486 367.069 93.5609 367.716" stroke="#39404F" stroke-linecap="round" stroke-linejoin="round"/>
<path d="M291.671 338.669C248.43 341.022 205.507 347.443 163.471 357.849L164.48 359.363C164.48 359.363 200.299 351.76 266.5 368.041C332.701 384.323 337.064 397.348 409.777 397.348C482.49 397.348 553.054 379.992 553.054 379.992L544.23 375.107C478.941 347.478 389.458 333.199 291.671 338.669Z" fill="white"/>
<path opacity="0.5" d="M291.698 339.169L291.699 339.169C389.415 333.702 478.809 347.971 544.011 375.558L551.685 379.805C551.188 379.923 550.547 380.072 549.769 380.25C547.7 380.724 544.662 381.402 540.79 382.214C533.045 383.84 521.959 386.008 508.603 388.176C481.888 392.513 446.097 396.848 409.777 396.848C360.802 396.848 342.944 390.948 316.174 382.103C303.241 377.83 288.227 372.87 266.619 367.556C233.481 359.406 207.937 357.231 190.669 357.097C182.035 357.029 175.47 357.472 171.059 357.932C168.854 358.163 167.188 358.397 166.07 358.575C165.511 358.663 165.09 358.738 164.807 358.79C164.773 358.797 164.741 358.803 164.711 358.808L164.281 358.164C206.067 347.866 248.725 341.506 291.698 339.169Z" fill="white" stroke="#39404F"/>
<path d="M132.374 375.922C132.374 375.922 217.852 362.897 291.933 412.555" stroke="#39404F" stroke-linecap="round" stroke-linejoin="round"/>
<path d="M221.922 394.645C221.922 394.645 256.927 405.228 278.093 428.022" stroke="#39404F" stroke-linecap="round" stroke-linejoin="round"/>
<path d="M428.698 353.128C428.698 353.128 478.357 358.012 523.131 384.877" stroke="#39404F" stroke-linecap="round" stroke-linejoin="round"/>
<path d="M583.536 395.199C592.478 400.671 600.991 406.816 609 413.581" stroke="#39404F" stroke-linecap="round" stroke-linejoin="round"/>
<path d="M1 433.607C60.346 383.134 167.576 345.687 291.673 338.67C404.944 332.238 507.11 352.525 573.343 389.142" stroke="#39404F" stroke-linecap="round" stroke-linejoin="round"/>
<path d="M362.758 352.313C362.758 352.313 414.045 354.756 448.236 366.153" stroke="#39404F" stroke-linecap="round" stroke-linejoin="round"/>
</svg>
