<svg width="587" height="444" viewBox="0 0 587 444" fill="none" xmlns="http://www.w3.org/2000/svg">
<path d="M1.27148 146.24H585.913" stroke="#B2B2B2" stroke-linecap="round" stroke-linejoin="round"/>
<path d="M24.2119 163.766H585.913" stroke="#B2B2B2" stroke-linecap="round" stroke-linejoin="round"/>
<path d="M1.27148 163.766H12.8332" stroke="#B2B2B2" stroke-linecap="round" stroke-linejoin="round"/>
<path d="M576.593 194.125H394.227C394.134 197.083 392.872 199.883 390.716 201.911C388.561 203.939 385.688 205.028 382.73 204.94V398.383C385.686 398.294 388.556 399.382 390.712 401.407C392.867 403.432 394.131 406.229 394.227 409.184C394.225 409.805 394.164 410.424 394.043 411.032H574.233" stroke="#B2B2B2" stroke-linecap="round" stroke-linejoin="round"/>
<path d="M3.54004 194.125H66.579C66.6013 195.568 66.9074 196.992 67.4801 198.316C68.0528 199.641 68.8807 200.839 69.9166 201.843C70.9525 202.848 72.1761 203.638 73.5175 204.169C74.8589 204.701 76.2918 204.962 77.7344 204.94V398.383C74.8232 398.337 72.0129 399.449 69.9212 401.475C67.8294 403.5 66.6273 406.273 66.579 409.184C66.5826 409.804 66.6396 410.422 66.7495 411.032H13.7647" stroke="#B2B2B2" stroke-linecap="round" stroke-linejoin="round"/>
<path d="M350.498 194.125H105.473C105.377 197.087 104.109 199.889 101.949 201.917C99.7886 203.944 96.9117 205.032 93.9502 204.94V398.383C96.9095 398.291 99.7845 399.376 101.945 401.401C104.105 403.426 105.373 406.225 105.473 409.184C105.471 409.805 105.41 410.424 105.289 411.032H350.681C350.567 410.423 350.505 409.804 350.498 409.184C350.593 406.229 351.858 403.432 354.013 401.407C356.168 399.382 359.038 398.294 361.994 398.383V204.94C359.036 205.028 356.164 203.939 354.008 201.911C351.853 199.883 350.59 197.083 350.498 194.125V194.125Z" stroke="#B2B2B2" stroke-linecap="round" stroke-linejoin="round"/>
<path d="M482.675 176.186C482.675 176.186 483.697 248.529 483.697 267.631C483.697 286.732 482.675 401.151 482.675 401.151" stroke="#515765" stroke-width="3" stroke-linecap="round" stroke-linejoin="round"/>
<path d="M441.346 195.363L458.042 184.281L459.518 183.301L457.748 183.364L432.917 184.251L456.681 180.295L456.734 179.321L424.141 170.145L457.702 174.498L458.045 173.587L422.303 149.571L461.607 170.955L462.192 170.155L424.037 133.492L464.469 162.212L465.177 161.531L436.04 116.998L469.06 152.857L469.909 152.38L454.568 98.8762L476.554 147.5L477.509 147.331L481.507 94.0195L483.503 146.151L484.464 146.324L505.17 96.6268L494.008 150.092L493.618 151.961L494.874 150.523L526.357 114.477L502.816 154.589L501.965 156.04L503.47 155.29L544.042 135.089L508.194 161.991L506.995 162.891H508.495H554.676L514.233 170.023L514.166 170.991L554.297 183.96L508.551 178.73L506.893 178.54L508.174 179.61L524.641 193.363L484.116 183.964L483.994 183.935L483.873 183.968L441.346 195.363Z" fill="white" stroke="#515765"/>
<path d="M441.346 353.861L458.042 342.779L459.518 341.799L457.748 341.863L432.917 342.749L456.681 338.793L456.734 337.819L424.141 328.643L457.702 332.996L458.045 332.085L422.303 308.069L461.607 329.453L462.192 328.653L424.037 291.99L464.469 320.71L465.177 320.029L436.039 275.506L469.06 311.355L469.909 310.878L454.568 257.374L476.554 305.998L477.509 305.829L481.507 252.518L483.503 304.649L484.464 304.822L505.17 255.125L494.008 308.59L493.618 310.459L494.874 309.021L526.357 272.975L502.816 313.087L501.965 314.538L503.47 313.788L544.042 293.587L508.194 320.489L506.995 321.389H508.495H554.676L514.233 328.521L514.166 329.489L554.297 342.458L508.551 337.228L506.892 337.038L508.174 338.108L524.64 351.85L484.116 342.462L483.994 342.434L483.873 342.466L441.346 353.861Z" fill="white" stroke="#515765"/>
<path d="M465.367 248.788C465.367 248.788 463.411 263.846 464.719 269.646C466.106 276.336 466.761 283.128 466.676 289.929C466.676 297.453 467.336 329.469 467.336 334.683C467.336 339.898 466.676 384.21 466.676 388.264V402.173" stroke="#515765" stroke-width="3" stroke-linecap="round" stroke-linejoin="round"/>
<path d="M467.336 329.571C467.336 329.571 469.629 285.018 471.911 279.182C474.194 273.345 475.93 275.094 476.498 268.044C477.066 260.993 477.066 258.12 478.212 255.792C479.125 253.708 479.892 251.56 480.505 249.365L481.652 244.698" stroke="#515765" stroke-width="3" stroke-linecap="round" stroke-linejoin="round"/>
<path d="M423.114 264.897L439.786 253.815L441.382 252.755L439.472 252.9L417.582 254.567L438.455 249.824L438.459 248.85L405.626 241.117L439.467 244.035L439.747 243.097L408.686 226.351L443.395 240.513L443.923 239.683L409.194 207.641L446.219 231.758L447.754 232.758L446.94 231.117L422.554 181.964L450.745 222.339L451.648 221.969L442.353 167.383L458.25 216.981L459.224 216.866L463.215 163.567L465.209 215.685L466.17 215.858L486.853 166.168L475.698 219.626L475.308 221.498L476.565 220.057L507.997 184.016L484.493 224.124L483.643 225.575L485.147 224.825L525.657 204.624L489.864 231.526L488.666 232.426H490.164H536.278L495.894 239.558L495.827 240.526L535.899 253.494L490.221 248.264L488.563 248.075L489.843 249.145L506.285 262.887L465.821 253.498L465.699 253.47L465.579 253.503L423.114 264.897Z" fill="white" stroke="#515765"/>
<path d="M450 386.04L437.583 406.793C436.641 408.367 436.024 410.116 435.769 411.935C435.515 413.754 435.628 415.605 436.102 417.38L441.63 437.988C442.021 439.451 442.883 440.744 444.083 441.664C445.283 442.585 446.753 443.081 448.264 443.076H504.81C506.321 443.081 507.791 442.585 508.991 441.664C510.191 440.744 511.054 439.451 511.445 437.988L516.973 417.38C517.45 415.606 517.565 413.754 517.31 411.934C517.056 410.115 516.437 408.366 515.491 406.793L503.085 386.04C502.666 385.347 502.075 384.773 501.37 384.375C500.665 383.977 499.87 383.768 499.061 383.768H454.058C453.243 383.759 452.44 383.964 451.728 384.363C451.016 384.761 450.42 385.34 450 386.04Z" fill="#515765" stroke="#515765" stroke-linejoin="round"/>
<path d="M318.981 111.481C318.981 111.481 319.233 99.9093 320.028 98.0992C320.823 96.2892 322.853 93.4748 324.401 92.9621C326.769 92.2535 329.09 91.3938 331.348 90.3883C333.595 88.5286 335.743 86.5519 337.783 84.4665C337.783 84.4665 341.894 83.4203 342.156 84.7281C342.418 86.0359 336.234 91.6752 336.234 91.6752L338.808 92.7215L352.409 92.9831L360.382 85.0001C360.382 85.0001 363.207 83.2006 362.956 85.0001C362.704 86.7997 354.973 96.8333 354.209 96.8333C353.445 96.8333 331.045 105.067 331.045 105.067L328.471 115.101L318.981 111.481Z" fill="white" stroke="#515765" stroke-linecap="round" stroke-linejoin="round"/>
<path d="M343.423 99.91C343.423 99.91 348.821 98.3615 349.596 97.0745C350.37 95.7876 356.031 84.5188 356.543 83.6922C357.056 82.8656 353.718 83.4411 352.431 83.6922C351.144 83.9433 347.535 95.0133 347.535 95.0133L341.874 96.813L343.423 99.91Z" fill="white" stroke="#515765" stroke-linecap="round" stroke-linejoin="round"/>
<path d="M345.368 97.9429C345.368 97.9429 350.976 97.5976 352.002 96.5095C353.027 95.4213 361.01 85.586 361.68 84.9478C362.35 84.3095 358.97 84.0793 357.662 84.0584C356.354 84.0375 350.443 94.0506 350.443 94.0506L344.521 94.5947L345.368 97.9429Z" fill="white" stroke="#515765" stroke-linecap="round" stroke-linejoin="round"/>
<path d="M323.607 104.534C323.607 104.534 323.356 99.386 326.693 96.8123C330.031 94.2385 340.588 93.9874 340.588 93.9874C340.588 93.9874 345.735 83.9538 347.022 83.9538C348.309 83.9538 351.395 82.6669 351.144 83.9538C350.893 85.2407 347.796 90.3883 346.509 92.962C345.222 95.5358 344.71 98.8734 343.423 99.9092C342.136 100.945 334.676 102.734 334.676 102.734" fill="white"/>
<path d="M323.607 104.534C323.607 104.534 323.356 99.386 326.693 96.8123C330.031 94.2385 340.588 93.9874 340.588 93.9874C340.588 93.9874 345.735 83.9538 347.022 83.9538C348.309 83.9538 351.395 82.6669 351.144 83.9538C350.893 85.2407 347.796 90.3883 346.509 92.962C345.222 95.5358 344.71 98.8734 343.423 99.9092C342.136 100.945 334.676 102.734 334.676 102.734" stroke="#515765" stroke-linecap="round" stroke-linejoin="round"/>
<path d="M314.859 119.977L317.695 110.455L330.554 112.517L327.467 124.35L314.859 119.977Z" fill="white" stroke="#515765" stroke-linecap="round" stroke-linejoin="round"/>
<path d="M263.196 109.681C263.196 109.681 274.517 112.768 276.578 116.628C278.639 120.489 295.871 148.277 296.907 150.108C297.942 151.939 298.706 153.456 298.706 153.456C298.706 153.456 311.314 122.833 311.826 121.023C312.339 119.213 316.712 118.71 317.999 118.71C319.286 118.71 331.119 119.485 331.6 122.571C332.082 125.657 316.67 184.3 315.132 185.608C313.594 186.916 309.472 187.407 306.898 186.654C304.325 185.901 270.614 168.868 270.614 168.868L263.196 109.681Z" fill="white" stroke="#515765" stroke-linecap="round" stroke-linejoin="round"/>
<path d="M298.654 153.425C296.928 157.629 295.566 161.973 294.584 166.41" stroke="#515765" stroke-linecap="round" stroke-linejoin="round"/>
<path d="M290.178 165.29C289.926 165.97 289.686 166.692 289.477 167.445" stroke="#515765" stroke-linecap="round" stroke-linejoin="round"/>
<path d="M294.815 157.286C293.417 158.908 292.242 160.71 291.32 162.643" stroke="#515765" stroke-linecap="round" stroke-linejoin="round"/>
<path d="M200.264 210.352L191.067 318.21L185.407 411.923C185.407 411.923 182.268 415.815 182.582 417.583C182.896 419.352 184.675 424.3 184.675 424.3C184.675 424.3 179.37 439.513 180.793 440.57C182.15 441.488 183.566 442.316 185.031 443.049H199.532C199.532 443.049 202.357 440.214 202.011 438.09C201.666 435.966 199.532 423.244 199.532 423.244C200.852 420.96 202.033 418.598 203.068 416.171C203.424 414.759 201.3 407.33 201.3 407.33L235.251 277.197C235.251 277.197 249.741 358.522 253.278 377.271C256.814 396.02 263.74 442.547 263.74 442.547H271.169L272.215 439.408C272.215 439.408 272.571 438.707 276.107 440.821C278.115 442.077 280.458 442.693 282.824 442.589H301.217C301.217 442.589 302.63 440.821 301.573 440.496C300.516 440.172 286.015 430.348 283.535 428.224C281.056 426.1 276.818 420.45 276.818 420.45C276.818 420.45 279.288 414.079 279.288 413.022C279.288 411.965 276.149 405.949 276.149 405.949L273.837 311.2L274.883 212.852L200.264 210.352Z" fill="#515765" stroke="#515765" stroke-linecap="round" stroke-linejoin="round"/>
<path d="M212.107 105.726L189.77 116.44L200.588 185.974L199.542 213.574C199.542 213.574 218.081 223.723 239.048 223.064C251.737 222.639 264.238 219.869 275.918 214.893L277.017 154.628C277.017 154.628 274.809 125.27 272.162 120.416C269.515 115.561 268.186 113.354 264.441 110.487C260.695 107.62 249.207 104.304 249.207 104.304C249.207 104.304 228.408 102.588 227.738 102.588C227.068 102.588 212.107 105.726 212.107 105.726Z" fill="#515765" stroke="#515765" stroke-linecap="round" stroke-linejoin="round"/>
<path d="M236.464 131.119L249.594 154.858L252.681 126.829L243.411 113.364L236.568 128.817L236.464 131.119Z" fill="white" stroke="#515765" stroke-linecap="round" stroke-linejoin="round"/>
<path d="M244.364 118.083L252.253 128.723L254.314 105.737L249.512 99.9092L244.364 118.083Z" fill="white" stroke="#515765" stroke-linecap="round" stroke-linejoin="round"/>
<path d="M215.539 82.0601L217.255 100.934L244.363 118.083L256.029 86.1823L215.539 82.0601Z" fill="white" stroke="#515765" stroke-linecap="round" stroke-linejoin="round"/>
<path d="M216.564 93.255C220.565 94.9806 224.901 95.792 229.255 95.63C238.672 95.2219 249.595 91.0265 255.129 88.6201L256.029 86.1823L215.539 82.0601L216.564 93.255Z" fill="#515765" stroke="#515765" stroke-linecap="round" stroke-linejoin="round"/>
<path d="M244.363 118.083L236.464 131.119L212.107 105.737L215.884 99.564L244.363 118.083Z" fill="white" stroke="#515765" stroke-linecap="round" stroke-linejoin="round"/>
<path d="M275.238 193.821C275.238 193.821 285.272 185.325 286.559 185.325C287.846 185.325 294.28 190.211 294.28 190.211C294.28 190.211 300.704 189.448 300.966 190.986C301.227 192.524 299.919 196.907 299.919 196.907L298.371 198.445C298.371 198.445 293.998 205.142 293.998 206.167C293.998 207.192 288.337 206.941 285.764 207.454C283.19 207.966 275.992 206.167 275.992 206.167L275.238 193.821Z" fill="white" stroke="#515765" stroke-linecap="round" stroke-linejoin="round"/>
<path d="M265.454 193.047L277.298 193.308L277.549 205.655L267.777 205.916L265.454 193.047Z" fill="white" stroke="#515765" stroke-linecap="round" stroke-linejoin="round"/>
<path d="M210.883 140.786C210.869 137.729 210.162 134.715 208.813 131.971C207.465 129.227 205.511 126.825 203.099 124.946C198.977 121.734 193.85 117.873 192.092 117.141C189.006 115.854 187.468 116.367 183.094 119.464C178.721 122.56 177.173 128.974 177.434 139.531C177.696 150.087 185.145 205.654 185.919 207.966C186.694 210.278 189.058 210.802 191.067 211.053C193.076 211.304 264.054 208.887 265.424 208.741C270.321 208.228 271.116 201.563 270.833 198.445C270.321 192.785 265.424 190.986 257.964 190.211C250.505 189.437 214.022 185.074 212.683 184.813C211.806 184.621 210.945 184.363 210.109 184.038C210.109 184.038 210.883 153.938 210.883 145.704C210.883 143.862 210.883 142.241 210.883 140.786Z" fill="white" stroke="#515765" stroke-linecap="round" stroke-linejoin="round"/>
<path d="M196.058 193.172C195.237 194.066 194.534 195.061 193.966 196.133" stroke="#515765" stroke-linecap="round" stroke-linejoin="round"/>
<path d="M210.141 184.039C206.267 185.691 202.603 187.798 199.228 190.316" stroke="#515765" stroke-linecap="round" stroke-linejoin="round"/>
<path d="M193.411 189.699C193.411 189.699 199.333 181.726 208.593 183.787" stroke="#515765" stroke-linecap="round" stroke-linejoin="round"/>
<path d="M324.789 56.406H322.403V78.8691H324.789V56.406Z" fill="white" stroke="#515765" stroke-linecap="round" stroke-linejoin="round"/>
<path d="M332.617 78.8689H314.578V79.8943H332.617V78.8689Z" fill="white" stroke="#515765" stroke-linecap="round" stroke-linejoin="round"/>
<path d="M323.597 58.4564C321.163 58.4398 318.835 57.4593 317.123 55.7296C315.411 53.9999 314.455 51.6621 314.463 49.2285L316.242 32.593H330.952L332.783 49.2285C332.787 50.4379 332.553 51.6363 332.093 52.7551C331.633 53.8738 330.957 54.8909 330.104 55.748C329.251 56.6052 328.237 57.2856 327.12 57.7504C326.004 58.2151 324.806 58.4551 323.597 58.4564Z" fill="white" stroke="#515765" stroke-linecap="round" stroke-linejoin="round"/>
<path d="M353.748 20.5193L352.901 1.10083H345.671L344.803 20.5193C344.733 22.3858 344.381 24.2308 343.757 25.9912L339.571 37.5C338.755 39.7289 338.337 42.084 338.337 44.4576V82.0077H360.308V44.4367C360.308 42.063 359.89 39.7079 359.074 37.4791L354.889 25.9703C354.235 24.2216 353.85 22.3836 353.748 20.5193Z" fill="#515765" stroke="#515765" stroke-linecap="round" stroke-linejoin="round"/>
<path d="M359.158 48.6321H339.279V75.458H359.158V48.6321Z" fill="white" stroke="#515765" stroke-linecap="round" stroke-linejoin="round"/>
<path d="M353.657 18.1976C353.652 18.1419 353.652 18.0859 353.657 18.0302L352.977 2.65988C352.96 2.23891 352.781 1.8408 352.476 1.54983C352.172 1.25885 351.766 1.09784 351.345 1.10087H347.233C346.813 1.103 346.41 1.26573 346.106 1.55564C345.803 1.84556 345.622 2.24067 345.6 2.65988L344.931 18.0302C344.931 18.0302 344.931 18.1453 344.931 18.1976H353.657Z" fill="#8C8C8C" stroke="#515765" stroke-linecap="round" stroke-linejoin="round"/>
<path d="M392.827 83.9538H295.306L290.158 79.8315H399L392.827 83.9538Z" fill="#8C8C8C" stroke="#515765" stroke-linecap="round" stroke-linejoin="round"/>
<path d="M224.662 185.639L225.007 246.814H276.284L277.299 193.308L224.662 185.639Z" fill="white" stroke="#515765" stroke-linecap="round" stroke-linejoin="round"/>
<path d="M240.178 40.8586C241.965 41.3666 243.625 42.2486 245.046 43.4462C246.468 44.6439 247.618 46.1299 248.422 47.8058C251.561 53.738 260.015 78.461 260.276 81.809C260.538 85.1571 256.928 86.1928 252.806 88.7666C248.684 91.3404 235.292 93.4015 227.821 90.8591C220.351 88.3167 218.803 84.1631 218.803 84.1631C218.803 84.1631 215.967 87.5111 210.558 83.9016C205.149 80.292 204.124 75.406 206.185 73.5959C208.246 71.7859 211.594 73.3448 211.594 73.3448C211.594 73.3448 205.923 59.4297 206.436 54.5123C206.949 49.5949 207.21 44.7298 215.455 41.3818C223.699 38.0337 240.178 40.8586 240.178 40.8586Z" fill="white" stroke="#515765" stroke-linecap="round" stroke-linejoin="round"/>
<path d="M240.409 51.9697C240.409 51.9697 241.455 55.3179 242.722 55.8411C243.988 56.3642 250.715 54.2925 251.228 57.128C251.741 59.9635 249.135 64.5987 249.135 64.5987" stroke="#515765" stroke-linecap="round" stroke-linejoin="round"/>
<path d="M251.228 69.2329C251.228 69.2329 244.782 74.8934 238.348 69.7456" stroke="#515765" stroke-linecap="round" stroke-linejoin="round"/>
<path d="M227.791 60.2143L235 57.6404" stroke="#515765" stroke-linecap="round" stroke-linejoin="round"/>
<path d="M232.677 49.9087C232.677 49.9087 227.016 46.7698 224.181 52.4931" stroke="#515765" stroke-linecap="round" stroke-linejoin="round"/>
<path d="M240.177 49.3961C240.177 49.3961 242.751 44.761 247.396 48.6218" stroke="#515765" stroke-linecap="round" stroke-linejoin="round"/>
<path d="M232.499 59.3669C232.624 59.7331 232.143 60.2144 231.452 60.4132C230.762 60.612 230.071 60.5388 229.956 60.1726C229.841 59.8064 230.301 59.3251 231.002 59.1263C231.703 58.9275 232.373 59.0007 232.499 59.3669Z" fill="#515765" stroke="#515765" stroke-linecap="round" stroke-linejoin="round"/>
<path d="M209.501 69.233C209.501 69.233 211.039 74.6422 212.075 74.8933C213.111 75.1444 217.484 75.9395 217.223 73.3553C216.961 70.771 212.337 61.7628 212.849 58.7077C213.362 55.6526 219.284 51.2374 217.997 49.4379C216.71 47.6383 214.649 47.8894 215.423 46.6025C216.197 45.3156 228.554 41.1934 233.21 41.1934C237.865 41.1934 239.906 40.9423 241.967 39.3938C244.028 37.8454 247.114 31.662 237.583 31.4109C228.052 31.1598 212.347 37.5943 206.938 44.803C201.529 52.0117 204.103 57.6824 205.641 60.4968C207.179 63.3112 209.501 69.233 209.501 69.233Z" fill="#515765" stroke="#515765" stroke-linecap="round" stroke-linejoin="round"/>
<path d="M245.189 123.283L234.831 121.075L236.965 131.946L245.576 125.365L255.17 129.727L253.402 118.627L245.189 123.283Z" fill="#515765" stroke="#515765" stroke-linecap="round" stroke-linejoin="round"/>
<path d="M126.62 177.698L130 194.857C130 194.857 131.82 197.451 137.794 200.088C143.768 202.724 146.635 200.601 146.635 196.447C146.635 192.293 144.542 169.935 144.542 169.935L126.62 177.698Z" fill="white" stroke="#515765" stroke-linecap="round" stroke-linejoin="round"/>
<path d="M127.687 183.924L145.234 179.132L144.554 169.904L126.62 177.699L127.687 183.924Z" fill="#515765" stroke="#515765" stroke-linecap="round" stroke-linejoin="round"/>
<path d="M33.8915 162.632L25.5215 186.288L31.799 190.965C31.799 190.965 37.0303 191.488 40.3783 189.144C43.7263 186.801 52.0754 167.581 52.0754 167.581L33.8915 162.632Z" fill="white" stroke="#515765" stroke-linecap="round" stroke-linejoin="round"/>
<path d="M31.998 167.748L49.5437 172.98L52.0338 167.571L33.5884 161.816L31.998 167.748Z" fill="#515765" stroke="#515765" stroke-linecap="round" stroke-linejoin="round"/>
<path d="M98.2051 299.336C98.2051 299.336 100.632 329.823 100.632 336.415C100.632 343.006 97.8598 357.549 99.5861 365.522C101.312 373.494 107.213 398.092 107.213 406.064C107.213 414.037 102.714 428.245 105.121 431.017C107.527 433.79 112.057 434.48 113.439 437.295C114.82 440.109 115.531 440.758 117.948 441.804C120.365 442.85 130.074 443.53 132.156 442.85C134.238 442.17 133.202 440.423 129.729 435.527C126.255 430.63 118.293 421.318 116.912 417.165C115.531 413.011 124.184 379.74 124.529 365.898C124.874 352.056 124.184 334.364 124.184 334.364C124.184 334.364 128.693 303.175 128.693 296.94L98.2051 299.336Z" fill="white" stroke="#515765" stroke-linecap="round" stroke-linejoin="round"/>
<path d="M99.0839 310.792C108.845 310.232 118.517 308.614 127.929 305.969C128.39 301.92 128.703 298.562 128.703 296.929L98.2051 299.357C98.2051 299.357 98.6027 304.358 99.0839 310.792Z" fill="#515765" stroke="#515765" stroke-linecap="round" stroke-linejoin="round"/>
<path d="M123.503 327.407C123.503 327.407 123.158 336.415 120.04 341.26" stroke="#515765" stroke-linecap="round" stroke-linejoin="round"/>
<path d="M132.166 442.798C134.258 442.108 133.212 440.371 129.739 435.474C129.142 434.637 128.399 433.664 127.594 432.608C123.482 435.213 117.508 433.591 115.185 430.976C113.093 428.59 107.725 422.783 105.309 420.168C104.461 425.179 103.896 429.584 105.131 430.976C107.558 433.748 112.067 434.439 113.448 437.253C114.83 440.067 115.541 440.716 117.958 441.762C120.375 442.809 130.084 443.489 132.166 442.798Z" fill="#515765" stroke="#515765" stroke-linecap="round" stroke-linejoin="round"/>
<path d="M65.2788 300.026C65.2788 300.026 70.51 332.596 71.1692 333.642C71.8283 334.689 71.1692 363.44 74.6323 373.149C78.0954 382.858 87.1037 413.346 87.4489 418.138C87.7942 422.93 76.3691 432.744 71.5563 435.862C66.7435 438.979 65.2788 441.093 68.4175 442.139C71.5563 443.185 82.6257 442.139 87.1246 441.794C91.6235 441.449 97.6708 443.112 98.7066 441.731C99.7424 440.35 98.2149 420.649 98.2149 414.759C98.2149 408.868 99.5959 366.934 97.5244 353.082C95.4528 339.229 93.3393 327.082 93.3393 327.082L94.0403 298.677L63.542 297.63L65.2788 300.026Z" fill="white" stroke="#515765" stroke-linecap="round" stroke-linejoin="round"/>
<path d="M65.2792 300.026C65.2792 300.026 65.7919 303.249 66.5138 307.685C75.3838 310.041 84.5408 311.139 93.7164 310.949L94.0198 298.645L63.5215 297.599L65.2792 300.026Z" fill="#515765" stroke="#515765" stroke-linecap="round" stroke-linejoin="round"/>
<path d="M72.2158 326.706C72.2158 326.706 72.9064 337.106 77.0707 341.961" stroke="#515765" stroke-linecap="round" stroke-linejoin="round"/>
<path d="M98.6957 441.699C99.0932 441.166 99.0828 438.111 98.9258 434.198C93.5272 434.972 83.9958 434.48 83.9958 434.48C81.5685 429.626 77.7183 431.708 77.7183 431.708H77.0068C75.2511 433.213 73.4064 434.61 71.4826 435.893C66.628 439.032 65.205 441.124 68.3438 442.17C71.4826 443.217 82.3532 443.143 86.8521 442.798C91.351 442.453 97.7122 443.081 98.6957 441.699Z" fill="#515765" stroke="#515765" stroke-linecap="round" stroke-linejoin="round"/>
<path d="M48.6547 272.3L47.6084 300.372C47.6084 300.372 71.1805 306.952 91.2791 307.308C111.378 307.664 137.712 299.336 137.712 299.336L136.32 268.492L49.3452 267.111L48.6547 272.3Z" fill="white" stroke="#515765" stroke-linecap="round" stroke-linejoin="round"/>
<path d="M66.0631 191.216C66.0631 191.216 46.5714 240.766 41.7168 278.191C41.7168 278.191 70.1331 286.163 98.2145 284.782C126.296 283.401 142.921 275.774 142.921 275.774C142.921 275.774 134.258 218.23 119.903 194.334L66.0631 191.216Z" fill="#515765" stroke="#515765" stroke-linecap="round" stroke-linejoin="round"/>
<path d="M103.405 40.4714C103.405 40.4714 102.013 31.4631 93.005 33.1999C83.9967 34.9367 84.342 38.0545 82.9609 41.1723C81.5798 44.2902 61.8161 48.0985 57.3172 59.8794C52.8183 71.6602 63.8981 75.479 63.8981 81.7147C63.8981 87.9504 50.0353 92.805 53.1531 100.076C56.271 107.348 67.7065 108.739 66.6707 111.167C65.6349 113.594 57.3172 117.444 63.532 122.948C69.7467 128.451 97.8386 134.038 112.706 131.265C127.573 128.493 131.423 116.712 128.651 112.904C125.878 109.095 123.796 107.358 125.878 103.487C127.96 99.6161 138.695 95.8705 135.232 85.4708C131.769 75.071 122.457 73.397 122.823 67.5066C123.189 61.6162 133.558 57.8078 124.916 49.4901C116.274 41.1723 103.405 40.4714 103.405 40.4714Z" fill="#515765" stroke="#515765" stroke-linecap="round" stroke-linejoin="round"/>
<path d="M78.5342 113.249L50.4736 121.305L66.0628 191.216C66.0628 191.216 73.3866 195.892 89.1955 196.939C99.4882 197.459 109.804 196.583 119.861 194.334L135.199 123.9L108.426 115.331L78.5342 113.249Z" fill="white"/>
<path d="M73.0931 114.808L72.0469 115.101L83.0849 196.311L84.1311 196.457L73.0931 114.808Z" fill="white"/>
<path d="M79.236 113.301L78.535 113.249L78.2002 113.343L87.0829 196.75L88.1291 196.834L79.236 113.301Z" fill="white"/>
<path d="M86.5804 113.803L85.5342 113.73L92 197.075H93.0463L86.5804 113.803Z" fill="white"/>
<path d="M66.7123 116.639L65.666 116.932L79.5603 195.704L80.6065 195.903L66.7123 116.639Z" fill="white"/>
<path d="M60.0469 118.553L75.0397 194.658L76.1592 194.94L61.0931 118.281L60.0469 118.553Z" fill="white"/>
<path d="M101.092 114.818L100.046 114.745L101.416 196.918L102.463 196.855L101.092 114.818Z" fill="white"/>
<path d="M69.7996 192.984C70.1553 193.13 70.5424 193.277 70.9505 193.423L55.3822 119.893L54.3359 120.186L69.7996 192.984Z" fill="white"/>
<path d="M126.192 121.012L116.138 195.108L117.184 194.909L127.165 121.337L126.192 121.012Z" fill="white"/>
<path d="M131.842 122.832L130.795 122.508L117.989 194.7L119.036 194.459L131.842 122.832Z" fill="white"/>
<path d="M121.117 119.39L120.071 119.066L111.701 195.84L112.747 195.683L121.117 119.39Z" fill="white"/>
<path d="M108.541 115.362H108.426L107.505 115.289L103.655 196.75L104.702 196.667L108.541 115.362Z" fill="white"/>
<path d="M96.1121 197.117H97.1584L94.3021 114.368L93.2559 114.295L96.1121 197.117Z" fill="white"/>
<path d="M114.599 117.308L113.553 116.973L108.019 196.332L109.065 196.206L114.599 117.308Z" fill="white"/>
<path d="M118.934 137.725L108.674 137.178C107.029 137.091 105.625 138.353 105.538 139.998L105.489 140.907C105.402 142.551 106.664 143.955 108.308 144.043L118.568 144.59C120.213 144.677 121.617 143.415 121.705 141.771L121.753 140.862C121.841 139.217 120.579 137.813 118.934 137.725Z" fill="white" stroke="#515765" stroke-linecap="round" stroke-linejoin="round"/>
<path d="M78.5342 113.249L50.4736 121.305L66.0628 191.216C66.0628 191.216 73.3866 195.892 89.1955 196.939C99.4882 197.459 109.804 196.583 119.861 194.334L135.199 123.9L108.426 115.331L78.5342 113.249Z" stroke="#515765" stroke-linecap="round" stroke-linejoin="round"/>
<path d="M81.4531 93.7676L82.0495 108.53L92.4806 116.607L102.88 108.457L107.055 94.751L93.2653 98.8838L81.4531 93.7676Z" fill="white" stroke="#515765" stroke-linecap="round" stroke-linejoin="round"/>
<path d="M107.055 94.751L93.2653 98.936L81.4531 93.8198L81.7565 101.342C84.2362 104.69 86.7681 107.369 88.463 108.101C92.648 109.869 94.9603 109.085 96.3413 107.704C97.3876 106.657 102.671 103.414 106.605 96.2681L107.055 94.751Z" fill="#515765" stroke="#515765" stroke-linecap="round" stroke-linejoin="round"/>
<path d="M87.7617 120.353L90.7121 124.684L88.7452 162.287L94.4473 162.486L92.4803 124.883L97.2094 118.972L92.0095 114.044L87.7617 120.353Z" fill="white" stroke="#515765" stroke-linecap="round" stroke-linejoin="round"/>
<path d="M80.9189 104.397L91.7581 114.044L85.0621 125.27L75.8027 113.259L80.9189 104.397Z" fill="white"/>
<path d="M76.2441 112.496L85.797 124.047L86.362 123.095L76.7987 111.543L76.2441 112.496Z" fill="white"/>
<path d="M78.358 108.844L77.793 109.828L86.9273 122.143L87.5027 121.17L78.358 108.844Z" fill="white"/>
<path d="M81.2028 104.649L80.9203 104.397L80.3972 105.308L90.0965 116.106L88.6316 117.884L79.6961 106.521L79.1416 107.495L88.5375 119.443L90.9126 115.457L81.2028 104.649Z" fill="white"/>
<path d="M80.9189 104.397L91.7581 114.044L85.0621 125.27L75.8027 113.259L80.9189 104.397Z" stroke="#515765" stroke-linecap="round" stroke-linejoin="round"/>
<path d="M104.105 104.397L92.0107 114.044L99.4915 125.27L109.828 113.259L104.105 104.397Z" fill="white"/>
<path d="M109.336 112.496L98.6744 124.047L98.0361 123.095L108.719 111.543L109.336 112.496Z" fill="white"/>
<path d="M106.984 108.844L107.612 109.828L97.4 122.143L96.7617 121.17L106.984 108.844Z" fill="white"/>
<path d="M103.802 104.649L104.106 104.397L104.702 105.308L93.8622 116.106L95.4944 117.884L105.476 106.521L106.104 107.495L95.599 119.443L92.9414 115.457L103.802 104.649Z" fill="white"/>
<path d="M104.105 104.397L92.0107 114.044L99.4915 125.27L109.828 113.259L104.105 104.397Z" stroke="#515765" stroke-linecap="round" stroke-linejoin="round"/>
<path d="M75.3332 72.0369C75.3332 72.0369 72.0059 69.149 70.6248 72.4972C69.2437 75.8454 74.5694 84.5089 76.1389 84.1217C77.7083 83.7346 76.7353 72.4972 76.7353 72.4972L75.3332 72.0369Z" fill="white" stroke="#515765" stroke-linecap="round" stroke-linejoin="round"/>
<path d="M114.85 72.424C114.85 72.424 118.523 69.9861 119.465 73.4703C120.406 76.9545 114.013 84.8751 112.507 84.2787C111 83.6823 113.407 72.6856 113.407 72.6856L114.85 72.424Z" fill="white" stroke="#515765" stroke-linecap="round" stroke-linejoin="round"/>
<path d="M87.1662 45.326C87.1662 45.326 77.9173 48.2869 76.5362 56.5523C75.2807 64.054 74.7576 77.8227 76.1387 84.1211C77.5197 90.4196 86.6012 103.812 90.713 105.58C94.8248 107.348 97.2102 106.563 98.5913 105.182C99.9723 103.801 108.625 98.685 111.973 85.8893C115.321 73.0936 114.934 63.6459 112.768 53.989C111.429 48.0358 97.2102 40.7957 87.1662 45.326Z" fill="white" stroke="#515765" stroke-linecap="round" stroke-linejoin="round"/>
<path d="M112.769 53.989C111.43 48.0358 97.2112 40.7957 87.1671 45.326C87.1671 45.326 77.9182 48.2869 76.5372 56.5523C75.7707 61.6789 75.3686 66.8534 75.334 72.0369C75.7943 70.4466 76.4535 67.8519 77.1231 64.4306C78.3053 58.3205 80.8687 53.4031 85.2002 53.0055C89.5317 52.6079 91.2998 54.5853 98.3934 54.1878C105.487 53.7902 107.81 53.2043 110.792 56.5523C113.773 59.9003 113.355 70.9278 114.14 74.0771C114.794 67.3513 114.331 60.5636 112.769 53.989Z" fill="#515765" stroke="#515765" stroke-linecap="round" stroke-linejoin="round"/>
<path d="M97.4097 78.011L97.0121 82.5415C97.0121 82.5415 99.178 83.9226 98.592 85.5026C98.0061 87.0825 95.631 87.8568 94.6475 86.8732" stroke="#515765" stroke-linecap="round" stroke-linejoin="round"/>
<path d="M88.3486 91.8008C88.3486 91.8008 93.078 94.3537 96.2273 93.9666C98.4502 93.5404 100.541 92.5938 102.327 91.2043" stroke="#515765" stroke-linecap="round" stroke-linejoin="round"/>
<path d="M88.5469 76.1489C88.5469 77.394 87.9714 78.4089 87.2599 78.4089C86.5484 78.4089 85.9834 77.3626 85.9834 76.1489C85.9834 74.9352 86.5589 73.8784 87.2599 73.8784C87.9609 73.8784 88.5469 74.8933 88.5469 76.1489Z" fill="#515765"/>
<path d="M104.891 76.8289C104.891 78.0844 104.315 79.0994 103.614 79.0994C102.913 79.0994 102.327 78.0531 102.327 76.8289C102.327 75.6047 102.903 74.5688 103.614 74.5688C104.326 74.5688 104.891 75.5838 104.891 76.8289Z" fill="#515765"/>
<path d="M83.2324 70.5304C83.2324 70.5304 86.3714 66.3451 91.8959 68.9609" stroke="#515765" stroke-linecap="round" stroke-linejoin="round"/>
<path d="M99.9619 69.7456C99.9619 69.7456 105.277 66.1986 110.425 71.5139" stroke="#515765" stroke-linecap="round" stroke-linejoin="round"/>
<path d="M50.4755 121.305L29.9375 163.929L55.4138 170.427L58.5316 158.468L50.4755 121.305Z" fill="white"/>
<path d="M51.0295 123.9L33.0967 164.735L34.122 164.997L51.4061 125.636L51.0295 123.9Z" fill="white"/>
<path d="M52.5147 130.763L52.1276 128.953C47.1474 141.309 40.6188 157.202 36.9883 165.729L38.0345 165.98C42.1045 156.491 49.1248 139.206 52.5147 130.763Z" fill="white"/>
<path d="M53.9268 137.229L53.5292 135.44L40.7754 166.692L41.7903 166.953L53.9268 137.229Z" fill="white"/>
<path d="M57.4538 162.57L58.5315 158.468L58.4687 158.175L52.7559 169.747L53.7917 170.009L57.4538 162.57Z" fill="white"/>
<path d="M57.2138 152.389L56.8162 150.59L49.377 168.89L50.3919 169.141L57.2138 152.389Z" fill="white"/>
<path d="M55.4539 144.281L55.0563 142.471L44.8867 167.738L45.9016 167.999L55.4539 144.281Z" fill="white"/>
<path d="M50.4755 121.305L29.9375 163.929L55.4138 170.427L58.5316 158.468L50.4755 121.305Z" stroke="#515765" stroke-linecap="round" stroke-linejoin="round"/>
<path d="M135.2 123.9L152.087 172.498L125.836 182.124L124.026 175.365L135.2 123.9Z" fill="white"/>
<path d="M129.258 151.27L128.85 153.143L137.994 177.667L138.967 177.311L129.258 151.27Z" fill="white"/>
<path d="M127.784 158.049L127.376 159.922L134.522 178.943L135.505 178.577L127.784 158.049Z" fill="white"/>
<path d="M126.579 163.605L126.16 165.53L131.339 180.105L132.323 179.75L126.579 163.605Z" fill="white"/>
<path d="M129.519 180.775L125.261 169.673L124.853 171.525L128.546 181.13L129.519 180.775Z" fill="white"/>
<path d="M133.276 132.761L132.857 134.708L146.72 174.476L147.704 174.109L133.276 132.761Z" fill="white"/>
<path d="M134.687 126.264L134.248 128.263L149.272 173.534L150.256 173.178L134.687 126.264Z" fill="white"/>
<path d="M132.145 137.94L131.727 139.886L144.062 175.449L145.035 175.082L132.145 137.94Z" fill="white"/>
<path d="M130.482 145.589L130.084 147.43L141.425 176.411L142.409 176.056L130.482 145.589Z" fill="white"/>
<path d="M135.2 123.9L152.087 172.498L125.836 182.124L124.026 175.365L135.2 123.9Z" stroke="#515765" stroke-linecap="round" stroke-linejoin="round"/>
<path d="M59.5664 145.212L55.6638 148.623L50.7255 159.284L53.5922 167.34C53.5922 167.34 27.3417 182.417 25.7828 183.976C24.2239 185.535 23.6903 196.186 27.0801 201.386C30.47 206.585 44.7514 190.986 44.7514 190.986L68.1456 159.546C68.1456 159.546 73.8582 152.787 72.3307 150.967C70.8031 149.146 69.4744 147.828 68.6897 147.828C67.905 147.828 66.095 148.089 66.095 148.089L59.5664 145.212Z" fill="white" stroke="#515765" stroke-linecap="round" stroke-linejoin="round"/>
<path d="M60.1004 137.805L66.0644 150.151L68.4081 150.936L61.7849 137.03C61.7288 136.908 61.6469 136.8 61.5449 136.712C61.4428 136.625 61.3231 136.561 61.1939 136.524C61.0647 136.487 60.929 136.479 60.7962 136.499C60.6635 136.52 60.5368 136.569 60.4247 136.643C60.2433 136.768 60.1115 136.953 60.0523 137.165C59.993 137.377 60.01 137.604 60.1004 137.805Z" fill="white" stroke="#515765" stroke-linecap="round" stroke-linejoin="round"/>
<path d="M52.0332 154.314L56.71 167.57L71.0018 170.165L75.417 167.57L70.4787 152.494L52.0332 154.314Z" fill="white" stroke="#515765" stroke-linecap="round" stroke-linejoin="round"/>
<path d="M66.8479 156.909L48.1304 155.35C48.1304 155.35 45.5357 153.53 48.9151 151.447C50.7583 150.213 53.011 149.747 55.1926 150.15L68.4486 150.935L66.8479 156.909Z" fill="white" stroke="#515765" stroke-linecap="round" stroke-linejoin="round"/>
<path d="M75.4177 164.704L71.2324 151.448C71.2324 151.448 67.0472 150.15 65.7707 152.494C65.54 152.85 65.3838 153.249 65.3115 153.666C65.2393 154.084 65.2524 154.513 65.3502 154.925C65.448 155.338 65.6284 155.726 65.8805 156.067C66.1326 156.408 66.4512 156.695 66.817 156.909C67.5913 157.432 70.1861 155.612 70.1861 155.612L73.053 166.263L75.4177 164.704Z" fill="white" stroke="#515765" stroke-linecap="round" stroke-linejoin="round"/>
<path d="M145.589 189.918C146.193 192.471 146.457 195.091 146.374 197.713C146.374 202.944 145.077 206.815 141.697 206.815C138.318 206.815 124.026 202.63 117.529 199.272C111.032 195.913 84.781 182.898 84.781 182.898C84.781 182.898 75.417 181.852 72.8223 181.339C69.4015 180.504 66.1493 179.089 63.2072 177.154C60.602 175.333 59.3047 170.134 59.3047 170.134C59.3047 170.134 54.6279 167.277 54.6279 165.949C54.6279 164.62 67.3609 167.246 69.7045 167.246C72.0481 167.246 75.417 164.641 75.417 164.641L74.1197 159.702C74.1197 159.702 78.7964 161.523 80.0938 163.082C81.3911 164.641 86.0783 173.482 86.8526 174.517C87.6268 175.553 108.426 184.195 119.088 185.241C129.749 186.288 140.138 187.836 140.138 187.836" fill="white"/>
<path d="M145.589 189.918C146.193 192.471 146.457 195.091 146.374 197.713C146.374 202.944 145.077 206.815 141.697 206.815C138.318 206.815 124.026 202.63 117.529 199.272C111.032 195.913 84.781 182.898 84.781 182.898C84.781 182.898 75.417 181.852 72.8223 181.339C69.4015 180.504 66.1493 179.089 63.2072 177.154C60.602 175.333 59.3047 170.134 59.3047 170.134C59.3047 170.134 54.6279 167.277 54.6279 165.949C54.6279 164.62 67.3609 167.246 69.7045 167.246C72.0481 167.246 75.417 164.641 75.417 164.641L74.1197 159.702C74.1197 159.702 78.7964 161.523 80.0938 163.082C81.3911 164.641 86.0783 173.482 86.8526 174.517C87.6268 175.553 108.426 184.195 119.088 185.241C129.749 186.288 140.138 187.836 140.138 187.836" stroke="#515765" stroke-linecap="round" stroke-linejoin="round"/>
</svg>
