<svg width="677" height="402" viewBox="0 0 677 402" fill="none" xmlns="http://www.w3.org/2000/svg">
<path d="M77.389 390.05C77.389 390.05 41.4712 313.545 49.2725 311.341C57.0738 309.137 73.4304 321.317 73.4304 321.317C73.4304 321.317 25.4336 192.697 37.8606 182.721C50.2875 172.745 73.4884 223.801 73.4884 223.801C73.4884 223.801 48.707 145.02 51.6216 115.047C54.5362 85.0745 86.0168 113.945 86.0168 113.945C86.0168 113.945 60.8004 6.39453 84.2188 0.840828C107.637 -4.71288 106.854 123.907 106.854 123.907C106.854 123.907 114.539 31.872 123.921 57.3784C133.303 82.8849 113.582 168.25 113.582 168.25C113.582 168.25 126.444 139.422 133.593 166.031C140.742 192.639 119.383 300.19 119.383 300.19C119.383 300.19 137.537 282.456 139.234 304.627C140.93 326.798 101.648 395.545 101.648 395.545L79.4191 397.808L77.389 390.05Z" fill="white"/>
<path opacity="0.6" d="M106.854 123.907C107.352 123.949 107.352 123.948 107.352 123.948L107.353 123.944L107.354 123.932L107.358 123.882L107.375 123.686C107.389 123.513 107.412 123.257 107.441 122.923C107.499 122.256 107.586 121.281 107.701 120.048C107.929 117.583 108.265 114.09 108.699 109.977C109.565 101.751 110.818 91.0533 112.364 81.1549C113.912 71.2383 115.745 62.1807 117.76 57.2005C118.263 55.9577 118.766 54.9985 119.26 54.3495C119.765 53.6865 120.193 53.4356 120.528 53.4128C120.841 53.3915 121.262 53.5594 121.79 54.2313C122.315 54.8978 122.873 55.976 123.452 57.551C125.76 63.8249 126.294 73.8529 125.764 85.4397C125.236 97.0045 123.653 110.047 121.776 122.303C119.899 134.558 117.728 146.017 116.027 154.413C115.177 158.611 114.443 162.043 113.923 164.425C113.663 165.616 113.456 166.544 113.314 167.175C113.243 167.49 113.188 167.731 113.151 167.893L113.109 168.076L113.099 168.122L113.096 168.133L113.095 168.136C113.095 168.137 113.095 168.137 113.582 168.25L113.095 168.137L114.039 168.453L113.69 168.298C114.039 168.453 114.039 168.453 114.039 168.453L114.039 168.452L114.041 168.449L114.047 168.434L114.074 168.375C114.098 168.323 114.134 168.245 114.181 168.145C114.276 167.943 114.416 167.65 114.597 167.285C114.959 166.556 115.484 165.543 116.137 164.411C117.447 162.136 119.25 159.415 121.25 157.526C123.275 155.613 125.327 154.706 127.238 155.605C128.221 156.067 129.244 157.033 130.25 158.741C131.255 160.446 132.223 162.86 133.11 166.161C134.873 172.72 134.888 184.35 133.89 198.183C132.894 211.99 130.896 227.914 128.674 243.016C126.452 258.116 124.006 272.386 122.116 282.881C121.171 288.128 120.365 292.432 119.795 295.423C119.51 296.919 119.285 298.086 119.13 298.88C119.1 299.033 119.073 299.173 119.048 299.298C119.01 299.496 118.978 299.659 118.953 299.784L118.908 300.015L118.896 300.073L118.893 300.088L118.892 300.091C118.892 300.092 118.892 300.093 119.383 300.19L118.892 300.093L118.578 301.675L119.732 300.548L119.732 300.547L119.734 300.545L119.743 300.537L119.78 300.501C119.813 300.47 119.863 300.423 119.928 300.362C120.058 300.24 120.251 300.063 120.497 299.846C120.99 299.411 121.696 298.812 122.549 298.163C124.261 296.859 126.535 295.372 128.837 294.566C131.146 293.758 133.371 293.672 135.116 294.98C136.881 296.304 138.315 299.168 138.735 304.665C139.15 310.09 137.052 318.452 133.606 328.017C130.171 337.557 125.428 348.212 120.627 358.184C115.827 368.154 110.973 377.433 107.319 384.22C105.493 387.614 103.966 390.384 102.896 392.305C102.361 393.266 101.941 394.014 101.654 394.522C101.52 394.76 101.415 394.945 101.341 395.074L79.7944 397.267L77.8727 389.923L77.8611 389.879L77.8416 389.837L77.389 390.05C77.8416 389.837 77.8415 389.837 77.8412 389.836L77.84 389.834L77.8352 389.824L77.8158 389.782L77.7392 389.618C77.6716 389.474 77.5713 389.259 77.4408 388.979C77.1799 388.419 76.7981 387.596 76.315 386.549C75.3486 384.454 73.9767 381.458 72.3547 377.856C69.1105 370.652 64.8669 361.025 60.8675 351.331C56.8667 341.633 53.1159 331.882 50.853 324.424C49.7201 320.69 48.9687 317.558 48.7382 315.305C48.6225 314.173 48.643 313.305 48.7885 312.706C48.9337 312.108 49.1695 311.89 49.4084 311.822C51.2153 311.311 53.5846 311.623 56.1876 312.447C58.7749 313.265 61.5192 314.564 64.037 315.941C66.5523 317.317 68.8275 318.762 70.4747 319.864C71.298 320.415 71.9635 320.879 72.4226 321.206C72.6522 321.369 72.8301 321.497 72.9503 321.585C73.0105 321.629 73.0561 321.662 73.0866 321.685L73.1209 321.71L73.1293 321.716L73.1312 321.718L73.1317 321.718L74.4916 322.731L73.8988 321.142L73.4304 321.317C73.8988 321.142 73.8987 321.142 73.8983 321.141L73.8967 321.137L73.8902 321.119L73.8642 321.05L73.7618 320.774C73.6715 320.531 73.5376 320.169 73.3635 319.697C73.0152 318.753 72.5059 317.367 71.8621 315.6C70.5745 312.065 68.7487 307.003 66.5966 300.898C62.2922 288.688 56.6831 272.304 51.4626 255.611C46.2411 238.915 41.4126 221.921 38.6656 208.485C37.2915 201.765 36.4428 195.955 36.3209 191.527C36.2599 189.312 36.3816 187.464 36.7002 186.03C37.0211 184.586 37.5264 183.631 38.1736 183.111C39.5958 181.969 41.1554 181.7 42.8418 182.108C44.555 182.522 46.4096 183.642 48.3435 185.31C52.2088 188.644 56.2422 194.04 59.9132 199.789C63.5782 205.529 66.8586 211.584 69.224 216.207C70.4063 218.518 71.3591 220.469 72.0162 221.843C72.3447 222.529 72.5992 223.071 72.7715 223.441C72.8576 223.626 72.9232 223.768 72.9672 223.864L73.0168 223.972L73.0292 223.999L73.0322 224.006L73.033 224.007C73.0331 224.008 73.0332 224.008 73.4884 223.801M106.854 123.907C106.354 123.904 106.354 123.903 106.354 123.902L106.354 123.898L106.354 123.881L106.355 123.811L106.356 123.537C106.356 123.294 106.357 122.934 106.357 122.464C106.357 121.524 106.354 120.146 106.342 118.395C106.318 114.891 106.257 109.891 106.111 103.909C105.818 91.9434 105.185 76.0507 103.82 60.3345C102.455 44.6107 100.36 29.0933 97.1544 17.8642C95.5496 12.2434 93.679 7.74466 91.5138 4.83264C89.3553 1.92961 86.9876 0.698075 84.3342 1.32733C81.6172 1.97166 79.5467 4.10281 78.0289 7.49929C76.5103 10.8976 75.5809 15.4905 75.1183 20.8989C74.1936 31.71 75.145 45.6332 76.8322 59.4148C78.5186 73.1895 80.9365 86.7941 82.9333 96.9571C83.9316 102.038 84.8244 106.257 85.4676 109.206C85.7892 110.681 86.0483 111.837 86.227 112.625C86.3163 113.019 86.3856 113.321 86.4324 113.524L86.4857 113.754L86.4992 113.812L86.5025 113.826L86.5034 113.83C86.5036 113.831 86.5036 113.831 86.0168 113.945L86.5036 113.831L86.8737 115.409L85.6789 114.314L85.7033 114.287C85.6788 114.313 85.6788 114.313 85.6787 114.313L85.6779 114.313L85.674 114.309L85.6577 114.294L85.5919 114.235C85.5334 114.182 85.4461 114.104 85.3317 114.003C85.103 113.801 84.7662 113.508 84.3361 113.145C83.4756 112.419 82.2423 111.415 80.7533 110.303C77.7702 108.075 73.7813 105.43 69.718 103.717C65.6324 101.995 61.5936 101.267 58.4301 102.686C55.309 104.087 52.8405 107.678 52.1192 115.095C51.3973 122.52 52.3898 133.01 54.302 144.603C56.2124 156.186 59.0334 168.829 61.9472 180.543C64.8608 192.256 67.8655 203.034 70.142 210.884C71.2803 214.809 72.2363 218.001 72.9077 220.212C73.2434 221.318 73.5079 222.178 73.6884 222.761C73.7787 223.053 73.848 223.276 73.8947 223.425L73.9476 223.594L73.9609 223.637L73.9643 223.648L73.9651 223.65C73.9653 223.651 73.9653 223.651 73.4884 223.801M106.854 123.907L107.352 123.949L106.354 123.904L106.854 123.907ZM73.4884 223.801L73.9653 223.651L73.0332 224.008L73.4884 223.801Z" fill="white" stroke="#444242"/>
<path d="M85.0453 393.457C85.0453 393.457 55.1162 340.24 60.6554 330.25C66.1946 320.259 82.8267 343.561 82.8267 343.561C82.8267 343.561 45.1253 249.308 50.679 240.448C56.2327 231.588 73.9669 270.391 73.9669 270.391C73.9669 270.391 67.3401 140.597 78.3896 145.02C89.439 149.442 90.541 211.548 90.541 211.548C90.541 211.548 83.8998 64.0922 93.8761 68.5293C103.852 72.9665 102.75 237.055 102.75 237.055C102.75 237.055 122.703 173.847 125.951 202.674C129.199 231.501 100.459 309.122 100.459 309.122C100.459 309.122 128.242 248.133 131.621 280.353C135 312.573 109.392 372.316 109.392 372.316C109.392 372.316 119.368 347.926 119.368 361.223C119.368 374.52 111.61 391.166 111.61 391.166" stroke="#444242" stroke-linecap="round" stroke-linejoin="round"/>
<path d="M47.6626 330.322L28.5654 393.255H80.2888L99.9661 330.656L47.6626 330.322Z" fill="#39404F" stroke="#444242" stroke-linecap="round" stroke-linejoin="round"/>
<path d="M168.263 393.153H60.4806L47.6621 330.322H155.445L168.263 393.153Z" fill="white" stroke="#444242" stroke-linecap="round" stroke-linejoin="round"/>
<path d="M157.156 382.524H67.2528L60.5391 349.651H150.442L157.156 382.524Z" stroke="#444242" stroke-linecap="round" stroke-linejoin="round"/>
<path d="M68.2676 349.782L74.9233 382.379" stroke="#444242" stroke-linecap="round" stroke-linejoin="round"/>
<path d="M76.5186 349.782L83.1743 382.379" stroke="#444242" stroke-linecap="round" stroke-linejoin="round"/>
<path d="M84.7695 349.782L91.4253 382.379" stroke="#444242" stroke-linecap="round" stroke-linejoin="round"/>
<path d="M93.0059 349.782L99.6616 382.379" stroke="#444242" stroke-linecap="round" stroke-linejoin="round"/>
<path d="M101.256 349.782L107.912 382.379" stroke="#444242" stroke-linecap="round" stroke-linejoin="round"/>
<path d="M109.507 349.782L116.163 382.379" stroke="#444242" stroke-linecap="round" stroke-linejoin="round"/>
<path d="M117.744 349.782L124.399 382.379" stroke="#444242" stroke-linecap="round" stroke-linejoin="round"/>
<path d="M125.995 349.782L132.65 382.379" stroke="#444242" stroke-linecap="round" stroke-linejoin="round"/>
<path d="M134.231 349.782L140.887 382.379" stroke="#444242" stroke-linecap="round" stroke-linejoin="round"/>
<path d="M142.481 349.782L149.137 382.379" stroke="#444242" stroke-linecap="round" stroke-linejoin="round"/>
<path d="M62.0757 356.147H151.471" stroke="#444242" stroke-linecap="round" stroke-linejoin="round"/>
<path d="M63.4102 362.701H152.806" stroke="#444242" stroke-linecap="round" stroke-linejoin="round"/>
<path d="M64.7588 369.27H154.14" stroke="#444242" stroke-linecap="round" stroke-linejoin="round"/>
<path d="M66.0928 375.824H155.489" stroke="#444242" stroke-linecap="round" stroke-linejoin="round"/>
<path d="M99.705 343.967H59.785L59.147 340.777H99.0525L99.705 343.967Z" fill="#39404F"/>
<path d="M644.461 232.501H514.449C508.331 232.646 502.466 234.974 497.914 239.064C493.362 243.153 490.421 248.736 489.624 254.803L473.673 395.792H625.929L644.461 232.501Z" fill="white" stroke="#444242" stroke-linecap="round" stroke-linejoin="round"/>
<path d="M645.142 232.501C640.059 232.621 635.187 234.555 631.405 237.954C627.624 241.352 625.182 245.992 624.523 251.033L608.123 395.792H645.157L661.572 251.033C661.91 248.7 661.735 246.32 661.059 244.062C660.383 241.803 659.222 239.718 657.658 237.954C656.094 236.19 654.164 234.788 652.002 233.846C649.841 232.904 647.5 232.445 645.142 232.501V232.501Z" fill="#39404F" stroke="#444242" stroke-linecap="round" stroke-linejoin="round"/>
<path d="M472.325 190.145C463.188 196.669 453.312 202.091 442.903 206.299C424.444 213.984 417.02 216.304 417.02 216.304L422.139 392.921H556.153C556.153 392.921 538.97 282.18 538.97 245.015C538.97 207.851 540.507 200.6 540.507 200.6L496.425 189.319L472.325 190.145Z" fill="white" stroke="#444242" stroke-linecap="round" stroke-linejoin="round"/>
<path d="M457.709 197.584C453.53 227.581 451.052 257.79 450.284 288.067C449.516 333.44 458.231 393.921 458.231 393.921H360.048C372.257 370.825 380.989 346.051 385.96 320.404C393.21 283.674 399.011 221.408 400.548 220.64C402.085 219.871 454.127 200.6 457.709 197.584Z" fill="#39404F" stroke="#444242" stroke-linecap="round" stroke-linejoin="round"/>
<path d="M413.119 393.936C413.119 393.936 403.114 326.262 403.621 310.369C404.129 294.477 406.652 240.651 406.652 240.651" stroke="#444242" stroke-linecap="round" stroke-linejoin="round"/>
<path d="M512.825 192.973C512.825 192.973 500.267 250.642 499.238 298.073C498.208 345.504 494.888 394.197 494.888 394.197H574.278C574.278 394.197 575.308 350.869 574.278 336.006C573.249 321.143 573.249 324.217 573.249 324.217L604.019 332.164C604.019 332.164 584.269 237.055 580.687 226.556C577.106 216.058 578.889 212.708 576.584 210.91C574.278 209.112 512.825 192.973 512.825 192.973Z" fill="#39404F" stroke="#444242" stroke-linecap="round" stroke-linejoin="round"/>
<path d="M369.429 354.727C371.499 357.899 373.932 360.819 376.679 363.427C380.203 366.443 387.758 364.877 391.774 368.995C395.791 373.113 391.397 385.685 386.322 390.079C377.622 397.576 382.233 374.824 382.233 374.824C379.165 376.927 375.776 378.519 372.199 379.537C367.269 380.668 354.581 376.811 350.332 376.637C346.083 376.463 340.182 375.651 337.92 370.924C335.657 366.196 349.694 360.498 355.929 358.236C360.333 356.724 364.846 355.551 369.429 354.727Z" fill="white" stroke="#444242" stroke-linecap="round" stroke-linejoin="round"/>
<path d="M342.574 361.397C341.233 361.039 339.817 361.082 338.5 361.52C337.183 361.958 336.024 362.772 335.164 363.862C332.264 367.675 326.464 384.902 328.161 388.223C329.857 391.543 334.251 386.889 336.339 381.422C337.229 378.787 338.416 376.263 339.877 373.896C339.877 373.896 342.168 375.013 343.778 372.026C345.387 369.038 347.011 364.558 342.574 361.397Z" fill="white" stroke="#444242" stroke-linecap="round" stroke-linejoin="round"/>
<path d="M350.781 358.395C349.376 357.587 347.735 357.289 346.136 357.554C344.537 357.818 343.078 358.628 342.008 359.845C337.934 364.195 340.732 382.481 342.893 388.078C345.053 393.675 349.143 392.979 349.752 389.528C350.361 386.077 351.057 368.865 351.274 364.877C351.454 362.704 351.288 360.516 350.781 358.395V358.395Z" fill="white" stroke="#444242" stroke-linecap="round" stroke-linejoin="round"/>
<path d="M359.482 356.423C358.096 355.55 356.437 355.216 354.821 355.483C353.204 355.75 351.741 356.6 350.709 357.873C346.664 362.47 349.651 381.813 351.869 387.759C354.088 393.704 358.177 393.008 358.757 389.31C359.337 385.613 359.859 367.443 360.033 363.209C360.181 360.932 359.996 358.646 359.482 356.423V356.423Z" fill="white" stroke="#444242" stroke-linecap="round" stroke-linejoin="round"/>
<path d="M372.214 358.772C372.214 358.772 368.835 351.217 363.325 352.464C357.815 353.711 356.075 361.164 357.09 372.475C358.105 383.785 360.222 392.776 363.296 393.095C366.37 393.414 369.72 386.584 370.329 377.753C370.938 368.922 371.851 363.644 371.851 363.644" fill="white"/>
<path d="M372.214 358.772C372.214 358.772 368.835 351.217 363.325 352.464C357.815 353.711 356.075 361.164 357.09 372.475C358.105 383.785 360.222 392.776 363.296 393.095C366.37 393.414 369.72 386.584 370.329 377.753C370.938 368.922 371.851 363.644 371.851 363.644" stroke="#444242" stroke-linecap="round" stroke-linejoin="round"/>
<path d="M443.063 279.73H408.885V332.193H443.063V279.73Z" fill="white" stroke="#444242" stroke-linecap="round" stroke-linejoin="round"/>
<path d="M428.359 264.446H422.066V288.72H428.359V264.446Z" fill="white" stroke="#444242" stroke-linecap="round" stroke-linejoin="round"/>
<path d="M431.955 294.419H417.266V313.603H431.955V294.419Z" fill="white" stroke="#444242" stroke-linecap="round" stroke-linejoin="round"/>
<path d="M414.873 319.302H434.956" stroke="#444242" stroke-linecap="round" stroke-linejoin="round"/>
<path d="M411.872 323.492H437.654" stroke="#444242" stroke-linecap="round" stroke-linejoin="round"/>
<path d="M468.743 182.721C468.743 182.721 457.708 190.145 455.693 196.047C453.677 201.949 445.18 227.064 441.845 236.547C438.509 246.03 419.543 254.238 422.109 256.036C424.676 257.834 449.544 260.125 449.544 260.125C449.544 260.125 455.185 282.18 456.461 287.821C457.737 293.462 465.437 310.63 465.437 310.63C465.437 310.63 488.246 283.195 491.842 275.829C494.313 270.848 497.138 266.05 500.296 261.473C500.296 261.473 510.041 263.779 516.247 264.809C522.453 265.838 539.317 267.361 538.549 264.548C537.78 261.734 529.326 249.423 525.991 237.374C522.656 225.324 524.701 198.918 520.611 188.666C516.522 178.414 507.561 176.877 504.458 176.109C501.355 175.34 473.354 178.356 468.743 182.721Z" fill="white" stroke="#444242" stroke-linecap="round" stroke-linejoin="round"/>
<path d="M465.147 174.775C465.147 174.775 468.482 193.48 468.047 208.604C467.612 223.728 462.146 257.573 462.407 275.002C462.667 286.58 463.606 298.133 465.22 309.601C465.22 309.601 490.349 275.002 499.572 246.799C508.794 218.595 511.361 194.51 511.361 192.712C511.361 190.914 511.868 149.138 511.868 149.138C511.868 149.138 485.144 177.08 465.147 174.775Z" fill="white" stroke="#444242" stroke-linecap="round" stroke-linejoin="round"/>
<path d="M511.592 166.872C511.694 157.475 511.795 149.138 511.795 149.138C511.795 149.138 485.143 177.08 465.147 174.775C465.147 174.775 466.09 180.038 466.887 187.245C469.502 189.037 472.406 190.366 475.471 191.175C484.723 193.031 495.091 187.854 502.123 178.965C504.719 175.688 508.156 171.222 511.592 166.872Z" fill="#39404F" stroke="#444242" stroke-linecap="round" stroke-linejoin="round"/>
<path d="M529.878 81.9714C543.965 81.9714 555.384 70.6686 555.384 56.7259C555.384 42.7832 543.965 31.4805 529.878 31.4805C515.791 31.4805 504.372 42.7832 504.372 56.7259C504.372 70.6686 515.791 81.9714 529.878 81.9714Z" fill="#39404F" stroke="#444242" stroke-linecap="round" stroke-linejoin="round"/>
<path d="M426.59 100.837C426.59 100.837 412.902 97.1244 410.64 89.7291C408.378 82.3338 416.57 56.3778 443.222 43.0809C469.874 29.7839 494.322 37.1502 505.053 40.1083C515.783 43.0664 523.57 48.6346 530.603 68.2538C537.635 87.873 537.998 103.055 535.779 110.45C534.46 114.872 532.852 119.203 530.965 123.414C530.965 123.414 517.277 124.864 513.565 119.339C509.852 113.815 511.346 85.988 495.424 79.3612C479.503 72.7345 449.153 76.4611 441.772 83.0589C434.392 89.6566 426.59 100.837 426.59 100.837Z" fill="#39404F" stroke="#444242" stroke-linecap="round" stroke-linejoin="round"/>
<path d="M424.372 96.0223C424.372 96.0223 427.707 117.121 427.707 128.591C427.707 140.06 436.958 155.997 441.772 160.492C446.587 164.987 462.508 180.111 471.76 181.967C481.011 183.823 491.379 178.632 498.412 169.743C505.444 160.854 519.147 143.091 519.147 143.091C522.203 143.431 525.281 142.693 527.849 141.004C530.418 139.314 532.315 136.78 533.213 133.84C536.925 123.095 535.069 110.885 528.776 109.406C522.482 107.927 518.045 115.323 518.045 115.323C518.045 115.323 512.854 95.3408 506.198 85.3354L496.57 70.8349L508.852 55.4788C508.986 55.312 509.085 55.1194 509.141 54.913C509.198 54.7066 509.212 54.4907 509.182 54.2787C509.152 54.0667 509.079 53.8631 508.968 53.6804C508.856 53.4978 508.708 53.34 508.533 53.2167V53.2167C508.203 52.9801 507.794 52.8797 507.392 52.9364C506.989 52.9931 506.624 53.2025 506.372 53.5213L494.351 68.9933C494.351 68.9933 470.658 64.9187 449.922 75.2866C429.186 85.6544 424.372 96.0223 424.372 96.0223Z" fill="white" stroke="#444242" stroke-linecap="round" stroke-linejoin="round"/>
<path d="M500.441 116.86L497.106 121.311" stroke="#444242" stroke-linecap="round" stroke-linejoin="round"/>
<path d="M454.736 142.294C454.736 142.294 455.475 144.512 460.289 145.629C462.535 146.151 464.885 146.01 467.053 145.222C469.22 144.435 471.112 143.034 472.499 141.192" stroke="#444242" stroke-linecap="round" stroke-linejoin="round"/>
<path d="M460.304 154.199C464.869 155.228 469.624 155.053 474.1 153.691C478.577 152.328 482.623 149.825 485.84 146.426C485.84 146.426 482.519 160.492 475.849 163.087C469.179 165.683 468.816 158.636 468.816 158.636L460.304 154.199Z" stroke="#444242" stroke-linecap="round" stroke-linejoin="round"/>
<path d="M473.615 126.009C476.683 123.121 480.416 121.036 484.484 119.938C488.552 118.84 492.828 118.764 496.932 119.716" stroke="#444242" stroke-width="2" stroke-linecap="round" stroke-linejoin="round"/>
<path d="M449.545 125.27C449.545 125.27 441.41 117.121 432.884 121.558" stroke="#444242" stroke-width="2" stroke-linecap="round" stroke-linejoin="round"/>
<path d="M430.302 119.716L434.363 123.791" stroke="#444242" stroke-linecap="round" stroke-linejoin="round"/>
<path d="M471.02 106.013C471.02 106.013 482.055 93.2964 498.006 105.274" stroke="#444242" stroke-linecap="round" stroke-linejoin="round"/>
<path d="M448.805 105.636C448.805 105.636 438.814 97.8638 428.809 106.753" stroke="#444242" stroke-linecap="round" stroke-linejoin="round"/>
<path d="M482.33 124.023C482.345 124.384 482.25 124.742 482.058 125.048C481.866 125.355 481.586 125.596 481.254 125.741C480.923 125.886 480.556 125.928 480.2 125.861C479.845 125.794 479.518 125.621 479.262 125.365C479.007 125.11 478.834 124.783 478.767 124.427C478.7 124.072 478.741 123.705 478.886 123.373C479.031 123.042 479.273 122.762 479.579 122.57C479.886 122.378 480.243 122.283 480.605 122.297C481.057 122.315 481.485 122.503 481.805 122.823C482.125 123.142 482.312 123.571 482.33 124.023V124.023Z" fill="#39404F"/>
<path d="M440.003 122.471C440.006 122.828 439.903 123.177 439.707 123.474C439.511 123.772 439.231 124.005 438.903 124.143C438.575 124.281 438.213 124.319 437.863 124.251C437.513 124.183 437.192 124.013 436.939 123.762C436.686 123.512 436.513 123.191 436.443 122.842C436.372 122.493 436.407 122.131 436.542 121.801C436.678 121.472 436.909 121.19 437.205 120.992C437.501 120.794 437.849 120.688 438.205 120.688C438.679 120.688 439.135 120.875 439.471 121.209C439.808 121.543 439.999 121.997 440.003 122.471Z" fill="#39404F"/>
<path d="M527.485 86.365C527.485 86.365 528.761 103.026 525.687 115.584L530.559 117.121C530.559 117.121 534.402 97.8929 532.604 87.1335L527.485 86.365Z" fill="white" stroke="#444242" stroke-linecap="round" stroke-linejoin="round"/>
<path d="M494.366 37.6287C499.726 40.3034 504.503 44.0142 508.421 48.5466C512.339 53.0789 515.319 58.3429 517.19 64.0342C523.077 83.0009 522.308 88.9026 525.89 90.9472C529.472 92.9917 536.403 94.2823 536.649 89.6711C536.896 85.0599 535.301 64.4837 525.049 51.7232C517.364 42.0078 500.775 37.8897 494.366 37.6287Z" fill="white" stroke="#444242" stroke-linecap="round" stroke-linejoin="round"/>
<path d="M529.515 111.915C522.134 109.653 514.028 114.815 511.389 123.385C508.953 131.317 512.056 139.408 518.349 142.395C513.729 154.136 506.857 164.859 498.121 173.963C496.421 173.753 494.703 174.188 493.307 175.181C490.668 176.964 489.508 179.879 490.74 181.706C491.973 183.533 495.091 183.562 497.744 181.793C500.398 180.024 501.34 177.443 500.499 175.674C509.432 166.35 516.439 155.357 521.119 143.323C528.166 144.773 535.62 139.727 538.099 131.563C540.738 122.979 536.896 114.177 529.515 111.915Z" fill="white" stroke="#444242" stroke-linecap="round" stroke-linejoin="round"/>
<path d="M535.779 128.678C534.532 134.159 529.587 137.726 524.73 136.624C519.872 135.522 516.943 130.171 518.19 124.69C519.437 119.209 524.382 115.642 529.239 116.729C534.097 117.817 537.026 123.182 535.779 128.678Z" fill="white" stroke="#444242" stroke-linecap="round" stroke-linejoin="round"/>
<path d="M534.359 219.117C534.359 219.117 527.181 201.18 525.658 197.845C524.136 194.51 536.679 174.775 538.709 171.947C540.739 169.12 544.596 163.247 544.596 161.956C544.596 160.666 529.994 146.31 526.905 144.005C523.817 141.699 518.712 146.905 518.712 146.905C518.712 146.905 505.386 164.595 505.386 166.64C505.386 168.685 511.781 175.094 511.781 175.094C511.781 175.094 501.79 189.449 503.081 195.09C504.371 200.731 509.49 205.603 509.49 205.603L516.668 233.284L534.359 219.117Z" fill="white" stroke="#444242" stroke-linecap="round" stroke-linejoin="round"/>
<path d="M511.795 175.021C511.795 175.021 520.496 168.104 519.742 166.06C519.443 165.453 518.963 164.954 518.368 164.632C517.773 164.31 517.093 164.18 516.421 164.262" stroke="#444242" stroke-linecap="round" stroke-linejoin="round"/>
<path d="M517.958 149.138C518.727 149.138 541.275 164.001 540.767 166.538C540.319 168.412 539.632 170.22 538.723 171.918" stroke="#444242" stroke-linecap="round" stroke-linejoin="round"/>
<path d="M520.525 146.832C520.525 146.832 541.797 160.158 542.275 162.464C542.371 163.221 542.281 163.99 542.013 164.705C541.745 165.42 541.308 166.059 540.738 166.567" stroke="#444242" stroke-linecap="round" stroke-linejoin="round"/>
<path d="M522.83 144.527C522.83 144.527 545.132 159.651 544.581 161.927C543.97 163.794 543.016 165.529 541.768 167.046" stroke="#444242" stroke-linecap="round" stroke-linejoin="round"/>
<path d="M537.432 217.073L503.081 236.852C503.081 236.852 547.684 342.966 555.892 357.322C564.099 371.677 586.14 375.013 597.682 371.17C609.224 367.327 614.851 344.257 611.008 334.513C607.165 324.768 579.469 282.18 566.158 260.893C552.846 239.607 537.432 217.073 537.432 217.073Z" fill="#39404F" stroke="#444242" stroke-linecap="round" stroke-linejoin="round"/>
<path d="M519.278 273.103C519.278 273.103 556.979 345.605 566.637 360.106" stroke="#444242" stroke-linecap="round" stroke-linejoin="round"/>
<path d="M540.535 225.672L593.709 306.875" stroke="#444242" stroke-linecap="round" stroke-linejoin="round"/>
<path d="M389.759 120.644V73.9669C389.759 72.1671 389.044 70.441 387.771 69.1683C386.499 67.8956 384.773 67.1807 382.973 67.1807H269.129C267.329 67.1807 265.603 67.8956 264.33 69.1683C263.058 70.441 262.343 72.1671 262.343 73.9669V120.644C262.343 122.444 263.058 124.17 264.33 125.443C265.603 126.715 267.329 127.43 269.129 127.43H366.892L389.15 148.848L384.698 127.184C386.144 126.804 387.425 125.956 388.34 124.774C389.255 123.591 389.754 122.139 389.759 120.644V120.644Z" fill="white" stroke="#444242" stroke-linecap="round" stroke-linejoin="round"/>
<path d="M303.568 101.474C306.379 101.474 308.658 99.1956 308.658 96.3846C308.658 93.5737 306.379 91.2949 303.568 91.2949C300.757 91.2949 298.479 93.5737 298.479 96.3846C298.479 99.1956 300.757 101.474 303.568 101.474Z" fill="#39404F"/>
<path d="M326.044 101.474C328.855 101.474 331.133 99.1956 331.133 96.3846C331.133 93.5737 328.855 91.2949 326.044 91.2949C323.233 91.2949 320.954 93.5737 320.954 96.3846C320.954 99.1956 323.233 101.474 326.044 101.474Z" fill="#39404F"/>
<path d="M348.535 101.474C351.345 101.474 353.624 99.1956 353.624 96.3846C353.624 93.5737 351.345 91.2949 348.535 91.2949C345.724 91.2949 343.445 93.5737 343.445 96.3846C343.445 99.1956 345.724 101.474 348.535 101.474Z" fill="#39404F"/>
<path d="M188.811 393.805L428.649 393.805V384.133L188.811 384.133V393.805Z" fill="white" stroke="#444242" stroke-linecap="round" stroke-linejoin="round"/>
<path d="M151.979 393.805H361.019V384.133H151.979V393.805Z" fill="white" stroke="#444242" stroke-linecap="round" stroke-linejoin="round"/>
<path d="M147.933 366.921H347.925L326.363 214.245H126.371L147.933 366.921Z" fill="white" stroke="#444242" stroke-linecap="round" stroke-linejoin="round"/>
<path d="M139.654 366.921H339.645L318.083 214.245H118.091L139.654 366.921Z" fill="#39404F" stroke="#444242" stroke-linecap="round" stroke-linejoin="round"/>
<path d="M200.933 295.956L180.864 393.805H232.472L252.54 295.956H200.933ZM235.937 324.957C235.853 325.368 235.63 325.736 235.305 326.001C234.98 326.265 234.573 326.409 234.154 326.407L204.921 326.117C204.647 326.113 204.378 326.048 204.132 325.927C203.887 325.805 203.672 325.63 203.504 325.414C203.335 325.199 203.218 324.948 203.159 324.68C203.101 324.413 203.103 324.136 203.166 323.869L205.805 312.892C205.889 312.482 206.113 312.113 206.438 311.849C206.763 311.584 207.17 311.441 207.589 311.442L236.836 311.718C237.109 311.724 237.377 311.79 237.62 311.913C237.863 312.035 238.076 312.211 238.243 312.426C238.41 312.642 238.527 312.892 238.584 313.158C238.642 313.424 238.639 313.7 238.576 313.965L235.937 324.957Z" fill="white" stroke="#444242" stroke-linecap="round" stroke-linejoin="round"/>
<path d="M1.00122 400.823L676.001 400.823V393.805L1.00122 393.805V400.823Z" fill="#39404F" stroke="#444242" stroke-linecap="round" stroke-linejoin="round"/>
</svg>
