<svg width="24" height="25" viewBox="0 0 24 25" fill="none" xmlns="http://www.w3.org/2000/svg">
<path d="M5 17.5229H20M5 19.5229H20M7.5 9.02295V7.52295H9M16 7.52295H17.5V9.02295M7.5 12.0229V13.5229H9M16 13.5229H17.5V12.0229M12.5 12.5229C11.3954 12.5229 10.5 11.6275 10.5 10.5229C10.5 9.41838 11.3954 8.52295 12.5 8.52295C13.6046 8.52295 14.5 9.41838 14.5 10.5229C14.5 11.6275 13.6046 12.5229 12.5 12.5229ZM6.5 5.52295H18.5C19.0523 5.52295 19.5 5.97066 19.5 6.52295V14.5229C19.5 15.0752 19.0523 15.5229 18.5 15.5229H6.5C5.94772 15.5229 5.5 15.0752 5.5 14.5229V6.52295C5.5 5.97066 5.94772 5.52295 6.5 5.52295Z" stroke="#444242" stroke-width="1.5"/>
</svg>
