<svg width="17" height="17" viewBox="0 0 17 17" fill="none" xmlns="http://www.w3.org/2000/svg">
<path d="M11.5 15.5138V16.2638H12.25V15.5138H11.5ZM1.5 15.5138H0.75V16.2638H1.5V15.5138ZM15.5 15.5229V16.2729H16.25V15.5229H15.5ZM8.75 4.52099C8.75 5.76224 7.74325 6.76904 6.5 6.76904V8.26904C8.57075 8.26904 10.25 6.59159 10.25 4.52099H8.75ZM6.5 6.76904C5.25675 6.76904 4.25 5.76224 4.25 4.52099H2.75C2.75 6.59159 4.42925 8.26904 6.5 8.26904V6.76904ZM4.25 4.52099C4.25 3.27975 5.25675 2.27295 6.5 2.27295V0.772949C4.42925 0.772949 2.75 2.4504 2.75 4.52099H4.25ZM6.5 2.27295C7.74325 2.27295 8.75 3.27975 8.75 4.52099H10.25C10.25 2.4504 8.57075 0.772949 6.5 0.772949V2.27295ZM11.5 14.7638H1.5V16.2638H11.5V14.7638ZM2.25 15.5138C2.25 15.5124 2.25 15.5111 2.25 15.5097C2.25 15.5083 2.25 15.5069 2.25 15.5055C2.25 15.5041 2.25 15.5027 2.25 15.5014C2.25 15.5 2.25 15.4986 2.25 15.4972C2.25 15.4958 2.25 15.4944 2.25 15.493C2.25 15.4917 2.25 15.4903 2.25 15.4889C2.25 15.4875 2.25 15.4861 2.25 15.4847C2.25 15.4833 2.25 15.482 2.25 15.4806C2.25 15.4792 2.25 15.4778 2.25 15.4764C2.25 15.475 2.25 15.4736 2.25 15.4723C2.25 15.4709 2.25 15.4695 2.25 15.4681C2.25 15.4667 2.25 15.4653 2.25 15.464C2.25 15.4626 2.25 15.4612 2.25 15.4598C2.25 15.4584 2.25 15.457 2.25 15.4557C2.25 15.4543 2.25 15.4529 2.25 15.4515C2.25 15.4501 2.25 15.4487 2.25 15.4474C2.25 15.446 2.25 15.4446 2.25 15.4432C2.25 15.4418 2.25 15.4405 2.25 15.4391C2.25 15.4377 2.25 15.4363 2.25 15.4349C2.25 15.4335 2.25 15.4322 2.25 15.4308C2.25 15.4294 2.25 15.428 2.25 15.4266C2.25 15.4253 2.25 15.4239 2.25 15.4225C2.25 15.4211 2.25 15.4197 2.25 15.4184C2.25 15.417 2.25 15.4156 2.25 15.4142C2.25 15.4128 2.25 15.4115 2.25 15.4101C2.25 15.4087 2.25 15.4073 2.25 15.4059C2.25 15.4046 2.25 15.4032 2.25 15.4018C2.25 15.4004 2.25 15.399 2.25 15.3977C2.25 15.3963 2.25 15.3949 2.25 15.3935C2.25 15.3921 2.25 15.3908 2.25 15.3894C2.25 15.388 2.25 15.3866 2.25 15.3852C2.25 15.3839 2.25 15.3825 2.25 15.3811C2.25 15.3797 2.25 15.3784 2.25 15.377C2.25 15.3756 2.25 15.3742 2.25 15.3728C2.25 15.3715 2.25 15.3701 2.25 15.3687C2.25 15.3673 2.25 15.366 2.25 15.3646C2.25 15.3632 2.25 15.3618 2.25 15.3604C2.25 15.3591 2.25 15.3577 2.25 15.3563C2.25 15.3549 2.25 15.3536 2.25 15.3522C2.25 15.3508 2.25 15.3494 2.25 15.3481C2.25 15.3467 2.25 15.3453 2.25 15.3439C2.25 15.3426 2.25 15.3412 2.25 15.3398C2.25 15.3384 2.25 15.3371 2.25 15.3357C2.25 15.3343 2.25 15.3329 2.25 15.3316C2.25 15.3302 2.25 15.3288 2.25 15.3274C2.25 15.3261 2.25 15.3247 2.25 15.3233C2.25 15.3219 2.25 15.3206 2.25 15.3192C2.25 15.3178 2.25 15.3164 2.25 15.3151C2.25 15.3137 2.25 15.3123 2.25 15.3109C2.25 15.3096 2.25 15.3082 2.25 15.3068C2.25 15.3055 2.25 15.3041 2.25 15.3027C2.25 15.3013 2.25 15.3 2.25 15.2986C2.25 15.2972 2.25 15.2958 2.25 15.2945C2.25 15.2931 2.25 15.2917 2.25 15.2904C2.25 15.289 2.25 15.2876 2.25 15.2862C2.25 15.2849 2.25 15.2835 2.25 15.2821C2.25 15.2808 2.25 15.2794 2.25 15.278C2.25 15.2766 2.25 15.2753 2.25 15.2739C2.25 15.2725 2.25 15.2712 2.25 15.2698C2.25 15.2684 2.25 15.267 2.25 15.2657C2.25 15.2643 2.25 15.2629 2.25 15.2616C2.25 15.2602 2.25 15.2588 2.25 15.2575C2.25 15.2561 2.25 15.2547 2.25 15.2533C2.25 15.252 2.25 15.2506 2.25 15.2492C2.25 15.2479 2.25 15.2465 2.25 15.2451C2.25 15.2438 2.25 15.2424 2.25 15.241C2.25 15.2397 2.25 15.2383 2.25 15.2369C2.25 15.2356 2.25 15.2342 2.25 15.2328C2.25 15.2315 2.25 15.2301 2.25 15.2287C2.25 15.2273 2.25 15.226 2.25 15.2246C2.25 15.2232 2.25 15.2219 2.25 15.2205C2.25 15.2191 2.25 15.2178 2.25 15.2164C2.25 15.215 2.25 15.2137 2.25 15.2123C2.25 15.2109 2.25 15.2096 2.25 15.2082C2.25 15.2068 2.25 15.2055 2.25 15.2041C2.25 15.2027 2.25 15.2014 2.25 15.2C2.25 15.1987 2.25 15.1973 2.25 15.1959C2.25 15.1946 2.25 15.1932 2.25 15.1918C2.25 15.1905 2.25 15.1891 2.25 15.1877C2.25 15.1864 2.25 15.185 2.25 15.1836C2.25 15.1823 2.25 15.1809 2.25 15.1795C2.25 15.1782 2.25 15.1768 2.25 15.1755C2.25 15.1741 2.25 15.1727 2.25 15.1714C2.25 15.17 2.25 15.1686 2.25 15.1673C2.25 15.1659 2.25 15.1645 2.25 15.1632C2.25 15.1618 2.25 15.1605 2.25 15.1591C2.25 15.1577 2.25 15.1564 2.25 15.155C2.25 15.1536 2.25 15.1523 2.25 15.1509C2.25 15.1496 2.25 15.1482 2.25 15.1468C2.25 15.1455 2.25 15.1441 2.25 15.1428C2.25 15.1414 2.25 15.14 2.25 15.1387C2.25 15.1373 2.25 15.1359 2.25 15.1346C2.25 15.1332 2.25 15.1319 2.25 15.1305C2.25 15.1291 2.25 15.1278 2.25 15.1264C2.25 15.1251 2.25 15.1237 2.25 15.1223C2.25 15.121 2.25 15.1196 2.25 15.1183C2.25 15.1169 2.25 15.1155 2.25 15.1142C2.25 15.1128 2.25 15.1115 2.25 15.1101C2.25 15.1088 2.25 15.1074 2.25 15.106C2.25 15.1047 2.25 15.1033 2.25 15.102C2.25 15.1006 2.25 15.0992 2.25 15.0979C2.25 15.0965 2.25 15.0952 2.25 15.0938C2.25 15.0925 2.25 15.0911 2.25 15.0897C2.25 15.0884 2.25 15.087 2.25 15.0857C2.25 15.0843 2.25 15.083 2.25 15.0816C2.25 15.0802 2.25 15.0789 2.25 15.0775C2.25 15.0762 2.25 15.0748 2.25 15.0735C2.25 15.0721 2.25 15.0707 2.25 15.0694C2.25 15.068 2.25 15.0667 2.25 15.0653C2.25 15.064 2.25 15.0626 2.25 15.0613C2.25 15.0599 2.25 15.0585 2.25 15.0572C2.25 15.0558 2.25 15.0545 2.25 15.0531C2.25 15.0518 2.25 15.0504 2.25 15.0491C2.25 15.0477 2.25 15.0464 2.25 15.045C2.25 15.0436 2.25 15.0423 2.25 15.0409C2.25 15.0396 2.25 15.0382 2.25 15.0369C2.25 15.0355 2.25 15.0342 2.25 15.0328C2.25 15.0315 2.25 15.0301 2.25 15.0288C2.25 15.0274 2.25 15.0261 2.25 15.0247C2.25 15.0234 2.25 15.022 2.25 15.0206C2.25 15.0193 2.25 15.0179 2.25 15.0166C2.25 15.0152 2.25 15.0139 2.25 15.0125C2.25 15.0112 2.25 15.0098 2.25 15.0085C2.25 15.0071 2.25 15.0058 2.25 15.0044C2.25 15.0031 2.25 15.0017 2.25 15.0004C2.25 14.999 2.25 14.9977 2.25 14.9963C2.25 14.995 2.25 14.9936 2.25 14.9923C2.25 14.9909 2.25 14.9896 2.25 14.9882C2.25 14.9869 2.25 14.9855 2.25 14.9842C2.25 14.9828 2.25 14.9815 2.25 14.9801C2.25 14.9788 2.25 14.9774 2.25 14.9761C2.25 14.9747 2.25 14.9734 2.25 14.972C2.25 14.9707 2.25 14.9693 2.25 14.968C2.25 14.9667 2.25 14.9653 2.25 14.964C2.25 14.9626 2.25 14.9613 2.25 14.9599C2.25 14.9586 2.25 14.9572 2.25 14.9559C2.25 14.9545 2.25 14.9532 2.25 14.9518C2.25 14.9505 2.25 14.9491 2.25 14.9478C2.25 14.9464 2.25 14.9451 2.25 14.9438C2.25 14.9424 2.25 14.9411 2.25 14.9397C2.25 14.9384 2.25 14.937 2.25 14.9357C2.25 14.9343 2.25 14.933 2.25 14.9316C2.25 14.9303 2.25 14.929 2.25 14.9276C2.25 14.9263 2.25 14.9249 2.25 14.9236C2.25 14.9222 2.25 14.9209 2.25 14.9195C2.25 14.9182 2.25 14.9169 2.25 14.9155C2.25 14.9142 2.25 14.9128 2.25 14.9115C2.25 14.9101 2.25 14.9088 2.25 14.9075C2.25 14.9061 2.25 14.9048 2.25 14.9034C2.25 14.9021 2.25 14.9007 2.25 14.8994C2.25 14.8981 2.25 14.8967 2.25 14.8954C2.25 14.894 2.25 14.8927 2.25 14.8913C2.25 14.89 2.25 14.8887 2.25 14.8873C2.25 14.886 2.25 14.8846 2.25 14.8833C2.25 14.882 2.25 14.8806 2.25 14.8793C2.25 14.8779 2.25 14.8766 2.25 14.8753C2.25 14.8739 2.25 14.8726 2.25 14.8712C2.25 14.8699 2.25 14.8686 2.25 14.8672C2.25 14.8659 2.25 14.8645 2.25 14.8632C2.25 14.8619 2.25 14.8605 2.25 14.8592C2.25 14.8578 2.25 14.8565 2.25 14.8552C2.25 14.8538 2.25 14.8525 2.25 14.8511C2.25 14.8498 2.25 14.8485 2.25 14.8471C2.25 14.8458 2.25 14.8445 2.25 14.8431C2.25 14.8418 2.25 14.8404 2.25 14.8391C2.25 14.8378 2.25 14.8364 2.25 14.8351C2.25 14.8338 2.25 14.8324 2.25 14.8311C2.25 14.8297 2.25 14.8284 2.25 14.8271C2.25 14.8257 2.25 14.8244 2.25 14.8231C2.25 14.8217 2.25 14.8204 2.25 14.8191C2.25 14.8177 2.25 14.8164 2.25 14.815C2.25 14.8137 2.25 14.8124 2.25 14.811C2.25 14.8097 2.25 14.8084 2.25 14.807C2.25 14.8057 2.25 14.8044 2.25 14.803C2.25 14.8017 2.25 14.8004 2.25 14.799C2.25 14.7977 2.25 14.7964 2.25 14.795C2.25 14.7937 2.25 14.7924 2.25 14.791C2.25 14.7897 2.25 14.7884 2.25 14.787C2.25 14.7857 2.25 14.7844 2.25 14.783C2.25 14.7817 2.25 14.7804 2.25 14.779C2.25 14.7777 2.25 14.7764 2.25 14.775C2.25 14.7737 2.25 14.7724 2.25 14.771C2.25 14.7697 2.25 14.7684 2.25 14.767C2.25 14.7657 2.25 14.7644 2.25 14.7631C2.25 14.7617 2.25 14.7604 2.25 14.7591C2.25 14.7577 2.25 14.7564 2.25 14.7551C2.25 14.7537 2.25 14.7524 2.25 14.7511C2.25 14.7498 2.25 14.7484 2.25 14.7471C2.25 14.7458 2.25 14.7444 2.25 14.7431C2.25 14.7418 2.25 14.7404 2.25 14.7391C2.25 14.7378 2.25 14.7365 2.25 14.7351C2.25 14.7338 2.25 14.7325 2.25 14.7311C2.25 14.7298 2.25 14.7285 2.25 14.7272C2.25 14.7258 2.25 14.7245 2.25 14.7232C2.25 14.7219 2.25 14.7205 2.25 14.7192C2.25 14.7179 2.25 14.7165 2.25 14.7152C2.25 14.7139 2.25 14.7126 2.25 14.7112C2.25 14.7099 2.25 14.7086 2.25 14.7073C2.25 14.7059 2.25 14.7046 2.25 14.7033C2.25 14.702 2.25 14.7006 2.25 14.6993C2.25 14.698 2.25 14.6967 2.25 14.6953C2.25 14.694 2.25 14.6927 2.25 14.6914C2.25 14.69 2.25 14.6887 2.25 14.6874C2.25 14.6861 2.25 14.6847 2.25 14.6834C2.25 14.6821 2.25 14.6808 2.25 14.6794C2.25 14.6781 2.25 14.6768 2.25 14.6755C2.25 14.6741 2.25 14.6728 2.25 14.6715C2.25 14.6702 2.25 14.6689 2.25 14.6675C2.25 14.6662 2.25 14.6649 2.25 14.6636C2.25 14.6622 2.25 14.6609 2.25 14.6596C2.25 14.6583 2.25 14.657 2.25 14.6556C2.25 14.6543 2.25 14.653 2.25 14.6517C2.25 14.6503 2.25 14.649 2.25 14.6477C2.25 14.6464 2.25 14.6451 2.25 14.6437C2.25 14.6424 2.25 14.6411 2.25 14.6398C2.25 14.6385 2.25 14.6371 2.25 14.6358C2.25 14.6345 2.25 14.6332 2.25 14.6319C2.25 14.6305 2.25 14.6292 2.25 14.6279C2.25 14.6266 2.25 14.6253 2.25 14.624C2.25 14.6226 2.25 14.6213 2.25 14.62C2.25 14.6187 2.25 14.6174 2.25 14.616C2.25 14.6147 2.25 14.6134 2.25 14.6121C2.25 14.6108 2.25 14.6095 2.25 14.6081C2.25 14.6068 2.25 14.6055 2.25 14.6042C2.25 14.6029 2.25 14.6016 2.25 14.6002C2.25 14.5989 2.25 14.5976 2.25 14.5963C2.25 14.595 2.25 14.5937 2.25 14.5923C2.25 14.591 2.25 14.5897 2.25 14.5884C2.25 14.5871 2.25 14.5858 2.25 14.5844C2.25 14.5831 2.25 14.5818 2.25 14.5805C2.25 14.5792 2.25 14.5779 2.25 14.5766C2.25 14.5752 2.25 14.5739 2.25 14.5726C2.25 14.5713 2.25 14.57 2.25 14.5687C2.25 14.5674 2.25 14.566 2.25 14.5647C2.25 14.5634 2.25 14.5621 2.25 14.5608C2.25 14.5595 2.25 14.5582 2.25 14.5569C2.25 14.5555 2.25 14.5542 2.25 14.5529C2.25 14.5516 2.25 14.5503 2.25 14.549C2.25 14.5477 2.25 14.5464 2.25 14.545C2.25 14.5437 2.25 14.5424 2.25 14.5411C2.25 14.5398 2.25 14.5385 2.25 14.5372C2.25 14.5359 2.25 14.5346 2.25 14.5333C2.25 14.5319 2.25 14.5306 2.25 14.5293C2.25 14.528 2.25 14.5267 2.25 14.5254C2.25 14.5241 2.25 14.5228 2.25 14.5215C2.25 14.5202 2.25 14.5188 2.25 14.5175C2.25 14.5162 2.25 14.5149 2.25 14.5136C2.25 14.5123 2.25 14.511 2.25 14.5097C2.25 14.5084 2.25 14.5071 2.25 14.5058C2.25 14.5045 2.25 14.5031 2.25 14.5018C2.25 14.5005 2.25 14.4992 2.25 14.4979C2.25 14.4966 2.25 14.4953 2.25 14.494C2.25 14.4927 2.25 14.4914 2.25 14.4901C2.25 14.4888 2.25 14.4875 2.25 14.4862C2.25 14.4849 2.25 14.4836 2.25 14.4822C2.25 14.4809 2.25 14.4796 2.25 14.4783C2.25 14.477 2.25 14.4757 2.25 14.4744C2.25 14.4731 2.25 14.4718 2.25 14.4705C2.25 14.4692 2.25 14.4679 2.25 14.4666C2.25 14.4653 2.25 14.464 2.25 14.4627C2.25 14.4614 2.25 14.4601 2.25 14.4588C2.25 14.4575 2.25 14.4562 2.25 14.4549C2.25 14.4536 2.25 14.4523 2.25 14.451C2.25 14.4496 2.25 14.4483 2.25 14.447C2.25 14.4457 2.25 14.4444 2.25 14.4431C2.25 14.4418 2.25 14.4405 2.25 14.4392C2.25 14.4379 2.25 14.4366 2.25 14.4353C2.25 14.434 2.25 14.4327 2.25 14.4314C2.25 14.4301 2.25 14.4288 2.25 14.4275C2.25 14.4262 2.25 14.4249 2.25 14.4236C2.25 14.4223 2.25 14.421 2.25 14.4197C2.25 14.4184 2.25 14.4171 2.25 14.4158C2.25 14.4145 2.25 14.4132 2.25 14.4119C2.25 14.4106 2.25 14.4093 2.25 14.408C2.25 14.4067 2.25 14.4054 2.25 14.4041C2.25 14.4028 2.25 14.4016 2.25 14.4003C2.25 14.399 2.25 14.3977 2.25 14.3964C2.25 14.3951 2.25 14.3938 2.25 14.3925C2.25 14.3912 2.25 14.3899 2.25 14.3886C2.25 14.3873 2.25 14.386 2.25 14.3847C2.25 14.3834 2.25 14.3821 2.25 14.3808C2.25 14.3795 2.25 14.3782 2.25 14.3769C2.25 14.3756 2.25 14.3743 2.25 14.373C2.25 14.3717 2.25 14.3704 2.25 14.3692C2.25 14.3679 2.25 14.3666 2.25 14.3653C2.25 14.364 2.25 14.3627 2.25 14.3614C2.25 14.3601 2.25 14.3588 2.25 14.3575C2.25 14.3562 2.25 14.3549 2.25 14.3536C2.25 14.3523 2.25 14.351 2.25 14.3497C2.25 14.3485 2.25 14.3472 2.25 14.3459C2.25 14.3446 2.25 14.3433 2.25 14.342C2.25 14.3407 2.25 14.3394 2.25 14.3381C2.25 14.3368 2.25 14.3355 2.25 14.3342C2.25 14.333 2.25 14.3317 2.25 14.3304C2.25 14.3291 2.25 14.3278 2.25 14.3265C2.25 14.3252 2.25 14.3239 2.25 14.3226C2.25 14.3213 2.25 14.3201 2.25 14.3188C2.25 14.3175 2.25 14.3162 2.25 14.3149C2.25 14.3136 2.25 14.3123 2.25 14.311C2.25 14.3097 2.25 14.3085 2.25 14.3072C2.25 14.3059 2.25 14.3046 2.25 14.3033C2.25 14.302 2.25 14.3007 2.25 14.2994C2.25 14.2982 2.25 14.2969 2.25 14.2956C2.25 14.2943 2.25 14.293 2.25 14.2917C2.25 14.2904 2.25 14.2891 2.25 14.2879C2.25 14.2866 2.25 14.2853 2.25 14.284C2.25 14.2827 2.25 14.2814 2.25 14.2801C2.25 14.2789 2.25 14.2776 2.25 14.2763C2.25 14.275 2.25 14.2737 2.25 14.2724C2.25 14.2712 2.25 14.2699 2.25 14.2686C2.25 14.2673 2.25 14.266 2.25 14.2647C2.25 14.2635 2.25 14.2622 2.25 14.2609C2.25 14.2596 2.25 14.2583 2.25 14.257C2.25 14.2558 2.25 14.2545 2.25 14.2532C2.25 14.2519 2.25 14.2506 2.25 14.2493C2.25 14.2481 2.25 14.2468 2.25 14.2455C2.25 14.2442 2.25 14.2429 2.25 14.2416C2.25 14.2404 2.25 14.2391 2.25 14.2378C2.25 14.2365 2.25 14.2352 2.25 14.234C2.25 14.2327 2.25 14.2314 2.25 14.2301C2.25 14.2288 2.25 14.2276 2.25 14.2263C2.25 14.225 2.25 14.2237 2.25 14.2224C2.25 14.2212 2.25 14.2199 2.25 14.2186C2.25 14.2173 2.25 14.216 2.25 14.2148C2.25 14.2135 2.25 14.2122 2.25 14.2109C2.25 14.2097 2.25 14.2084 2.25 14.2071C2.25 14.2058 2.25 14.2045 2.25 14.2033C2.25 14.202 2.25 14.2007 2.25 14.1994C2.25 14.1982 2.25 14.1969 2.25 14.1956C2.25 14.1943 2.25 14.1931 2.25 14.1918C2.25 14.1905 2.25 14.1892 2.25 14.1879C2.25 14.1867 2.25 14.1854 2.25 14.1841C2.25 14.1828 2.25 14.1816 2.25 14.1803C2.25 14.179 2.25 14.1777 2.25 14.1765C2.25 14.1752 2.25 14.1739 2.25 14.1727C2.25 14.1714 2.25 14.1701 2.25 14.1688C2.25 14.1676 2.25 14.1663 2.25 14.165C2.25 14.1637 2.25 14.1625 2.25 14.1612C2.25 14.1599 2.25 14.1586 2.25 14.1574C2.25 14.1561 2.25 14.1548 2.25 14.1536C2.25 14.1523 2.25 14.151 2.25 14.1497C2.25 14.1485 2.25 14.1472 2.25 14.1459C2.25 14.1447 2.25 14.1434 2.25 14.1421C2.25 14.1408 2.25 14.1396 2.25 14.1383C2.25 14.137 2.25 14.1358 2.25 14.1345C2.25 14.1332 2.25 14.132 2.25 14.1307C2.25 14.1294 2.25 14.1281 2.25 14.1269C2.25 14.1256 2.25 14.1243 2.25 14.1231C2.25 14.1218 2.25 14.1205 2.25 14.1193C2.25 14.118 2.25 14.1167 2.25 14.1155C2.25 14.1142 2.25 14.1129 2.25 14.1117C2.25 14.1104 2.25 14.1091 2.25 14.1079C2.25 14.1066 2.25 14.1053 2.25 14.1041C2.25 14.1028 2.25 14.1015 2.25 14.1003C2.25 14.099 2.25 14.0977 2.25 14.0965C2.25 14.0952 2.25 14.0939 2.25 14.0927C2.25 14.0914 2.25 14.0901 2.25 14.0889C2.25 14.0876 2.25 14.0863 2.25 14.0851C2.25 14.0838 2.25 14.0825 2.25 14.0813C2.25 14.08 2.25 14.0787 2.25 14.0775C2.25 14.0762 2.25 14.075 2.25 14.0737C2.25 14.0724 2.25 14.0712 2.25 14.0699C2.25 14.0686 2.25 14.0674 2.25 14.0661C2.25 14.0649 2.25 14.0636 2.25 14.0623C2.25 14.0611 2.25 14.0598 2.25 14.0585C2.25 14.0573 2.25 14.056 2.25 14.0548C2.25 14.0535 2.25 14.0522 2.25 14.051C2.25 14.0497 2.25 14.0485 2.25 14.0472C2.25 14.0459 2.25 14.0447 2.25 14.0434C2.25 14.0422 2.25 14.0409 2.25 14.0396C2.25 14.0384 2.25 14.0371 2.25 14.0359C2.25 14.0346 2.25 14.0333 2.25 14.0321C2.25 14.0308 2.25 14.0296 2.25 14.0283C2.25 14.027 2.25 14.0258 2.25 14.0245C2.25 14.0233 2.25 14.022 2.25 14.0208C2.25 14.0195 2.25 14.0182 2.25 14.017C2.25 14.0157 2.25 14.0145 2.25 14.0132C2.25 14.012 2.25 14.0107 2.25 14.0094C2.25 14.0082 2.25 14.0069 2.25 14.0057C2.25 14.0044 2.25 14.0032 2.25 14.0019C2.25 14.0007 2.25 13.9994 2.25 13.9982C2.25 13.9969 2.25 13.9956 2.25 13.9944C2.25 13.9931 2.25 13.9919 2.25 13.9906C2.25 13.9894 2.25 13.9881 2.25 13.9869C2.25 13.9856 2.25 13.9844 2.25 13.9831C2.25 13.9819 2.25 13.9806 2.25 13.9793C2.25 13.9781 2.25 13.9768 2.25 13.9756C2.25 13.9743 2.25 13.9731 2.25 13.9718C2.25 13.9706 2.25 13.9693 2.25 13.9681C2.25 13.9668 2.25 13.9656 2.25 13.9643C2.25 13.9631 2.25 13.9618 2.25 13.9606C2.25 13.9593 2.25 13.9581 2.25 13.9568C2.25 13.9556 2.25 13.9543 2.25 13.9531C2.25 13.9518 2.25 13.9506 2.25 13.9493C2.25 13.9481 2.25 13.9468 2.25 13.9456C2.25 13.9443 2.25 13.9431 2.25 13.9418C2.25 13.9406 2.25 13.9393 2.25 13.9381C2.25 13.9368 2.25 13.9356 2.25 13.9343C2.25 13.9331 2.25 13.9319 2.25 13.9306C2.25 13.9294 2.25 13.9281 2.25 13.9269C2.25 13.9256 2.25 13.9244 2.25 13.9231C2.25 13.9219 2.25 13.9206 2.25 13.9194C2.25 13.9181 2.25 13.9169 2.25 13.9157C2.25 13.9144 2.25 13.9132 2.25 13.9119C2.25 13.9107 2.25 13.9094 2.25 13.9082C2.25 13.9069 2.25 13.9057 2.25 13.9045C2.25 13.9032 2.25 13.902 2.25 13.9007C2.25 13.8995 2.25 13.8982 2.25 13.897C2.25 13.8957 2.25 13.8945 2.25 13.8933C2.25 13.892 2.25 13.8908 2.25 13.8895C2.25 13.8883 2.25 13.8871 2.25 13.8858C2.25 13.8846 2.25 13.8833 2.25 13.8821C2.25 13.8808 2.25 13.8796 2.25 13.8784C2.25 13.8771 2.25 13.8759 2.25 13.8746C2.25 13.8734 2.25 13.8722 2.25 13.8709C2.25 13.8697 2.25 13.8684 2.25 13.8672C2.25 13.866 2.25 13.8647 2.25 13.8635C2.25 13.8622 2.25 13.861 2.25 13.8598C2.25 13.8585 2.25 13.8573 2.25 13.8561C2.25 13.8548 2.25 13.8536 2.25 13.8523C2.25 13.8511 2.25 13.8499 2.25 13.8486C2.25 13.8474 2.25 13.8462 2.25 13.8449C2.25 13.8437 2.25 13.8424 2.25 13.8412C2.25 13.84 2.25 13.8387 2.25 13.8375C2.25 13.8363 2.25 13.835 2.25 13.8338C2.25 13.8326 2.25 13.8313 2.25 13.8301C2.25 13.8288 2.25 13.8276 2.25 13.8264C2.25 13.8251 2.25 13.8239 2.25 13.8227C2.25 13.8214 2.25 13.8202 2.25 13.819C2.25 13.8177 2.25 13.8165 2.25 13.8153C2.25 13.814 2.25 13.8128 2.25 13.8116C2.25 13.8103 2.25 13.8091 2.25 13.8079C2.25 13.8066 2.25 13.8054 2.25 13.8042C2.25 13.8029 2.25 13.8017 2.25 13.8005C2.25 13.7993 2.25 13.798 2.25 13.7968C2.25 13.7956 2.25 13.7943 2.25 13.7931C2.25 13.7919 2.25 13.7906 2.25 13.7894C2.25 13.7882 2.25 13.787 2.25 13.7857C2.25 13.7845 2.25 13.7833 2.25 13.782C2.25 13.7808 2.25 13.7796 2.25 13.7783C2.25 13.7771 2.25 13.7759 2.25 13.7747C2.25 13.7734 2.25 13.7722 2.25 13.771C2.25 13.7697 2.25 13.7685 2.25 13.7673C2.25 13.7661 2.25 13.7648 2.25 13.7636C2.25 13.7624 2.25 13.7612 2.25 13.7599C2.25 13.7587 2.25 13.7575 2.25 13.7563C2.25 13.755 2.25 13.7538 2.25 13.7526C2.25 13.7514 2.25 13.7501 2.25 13.7489C2.25 13.7477 2.25 13.7465 2.25 13.7452C2.25 13.744 2.25 13.7428 2.25 13.7416C2.25 13.7403 2.25 13.7391 2.25 13.7379C2.25 13.7367 2.25 13.7354 2.25 13.7342C2.25 13.733 2.25 13.7318 2.25 13.7305C2.25 13.7293 2.25 13.7281 2.25 13.7269C2.25 13.7257 2.25 13.7244 2.25 13.7232C2.25 13.722 2.25 13.7208 2.25 13.7195C2.25 13.7183 2.25 13.7171 2.25 13.7159C2.25 13.7147 2.25 13.7134 2.25 13.7122C2.25 13.711 2.25 13.7098 2.25 13.7086C2.25 13.7073 2.25 13.7061 2.25 13.7049C2.25 13.7037 2.25 13.7025 2.25 13.7012C2.25 13.7 2.25 13.6988 2.25 13.6976C2.25 13.6964 2.25 13.6952 2.25 13.6939C2.25 13.6927 2.25 13.6915 2.25 13.6903C2.25 13.6891 2.25 13.6878 2.25 13.6866C2.25 13.6854 2.25 13.6842 2.25 13.683C2.25 13.6818 2.25 13.6805 2.25 13.6793C2.25 13.6781 2.25 13.6769 2.25 13.6757C2.25 13.6745 2.25 13.6732 2.25 13.672C2.25 13.6708 2.25 13.6696 2.25 13.6684C2.25 13.6672 2.25 13.666 2.25 13.6647C2.25 13.6635 2.25 13.6623 2.25 13.6611C2.25 13.6599 2.25 13.6587 2.25 13.6575C2.25 13.6562 2.25 13.655 2.25 13.6538C2.25 13.6526 2.25 13.6514 2.25 13.6502C2.25 13.649 2.25 13.6478 2.25 13.6465C2.25 13.6453 2.25 13.6441 2.25 13.6429C2.25 13.6417 2.25 13.6405 2.25 13.6393C2.25 13.6381 2.25 13.6369 2.25 13.6356C2.25 13.6344 2.25 13.6332 2.25 13.632C2.25 13.6308 2.25 13.6296 2.25 13.6284C2.25 13.6272 2.25 13.626 2.25 13.6248C2.25 13.6235 2.25 13.6223 2.25 13.6211C2.25 13.6199 2.25 13.6187 2.25 13.6175C2.25 13.6163 2.25 13.6151 2.25 13.6139C2.25 13.6127 2.25 13.6115 2.25 13.6103C2.25 13.6091 2.25 13.6078 2.25 13.6066C2.25 13.6054 2.25 13.6042 2.25 13.603C2.25 13.6018 2.25 13.6006 2.25 13.5994C2.25 13.5982 2.25 13.597 2.25 13.5958C2.25 13.5946 2.25 13.5934 2.25 13.5922C2.25 13.591 2.25 13.5898 2.25 13.5886C2.25 13.5873 2.25 13.5861 2.25 13.5849C2.25 13.5837 2.25 13.5825 2.25 13.5813C2.25 13.5801 2.25 13.5789 2.25 13.5777C2.25 13.5765 2.25 13.5753 2.25 13.5741C2.25 13.5729 2.25 13.5717 2.25 13.5705C2.25 13.5693 2.25 13.5681 2.25 13.5669C2.25 13.5657 2.25 13.5645 2.25 13.5633C2.25 13.5621 2.25 13.5609 2.25 13.5597C2.25 13.5585 2.25 13.5573 2.25 13.5561C2.25 13.5549 2.25 13.5537 2.25 13.5525C2.25 13.5513 2.25 13.5501 2.25 13.5489C2.25 13.5477 2.25 13.5465 2.25 13.5453C2.25 13.5441 2.25 13.5429 2.25 13.5417C2.25 13.5405 2.25 13.5393 2.25 13.5381C2.25 13.5369 2.25 13.5357 2.25 13.5345C2.25 13.5333 2.25 13.5321 2.25 13.5309C2.25 13.5297 2.25 13.5285 2.25 13.5273C2.25 13.5261 2.25 13.5249 2.25 13.5237C2.25 13.5226 2.25 13.5214 2.25 13.5202C2.25 13.519 2.25 13.5178 2.25 13.5166H0.75C0.75 13.5178 0.75 13.519 0.75 13.5202C0.75 13.5214 0.75 13.5226 0.75 13.5237C0.75 13.5249 0.75 13.5261 0.75 13.5273C0.75 13.5285 0.75 13.5297 0.75 13.5309C0.75 13.5321 0.75 13.5333 0.75 13.5345C0.75 13.5357 0.75 13.5369 0.75 13.5381C0.75 13.5393 0.75 13.5405 0.75 13.5417C0.75 13.5429 0.75 13.5441 0.75 13.5453C0.75 13.5465 0.75 13.5477 0.75 13.5489C0.75 13.5501 0.75 13.5513 0.75 13.5525C0.75 13.5537 0.75 13.5549 0.75 13.5561C0.75 13.5573 0.75 13.5585 0.75 13.5597C0.75 13.5609 0.75 13.5621 0.75 13.5633C0.75 13.5645 0.75 13.5657 0.75 13.5669C0.75 13.5681 0.75 13.5693 0.75 13.5705C0.75 13.5717 0.75 13.5729 0.75 13.5741C0.75 13.5753 0.75 13.5765 0.75 13.5777C0.75 13.5789 0.75 13.5801 0.75 13.5813C0.75 13.5825 0.75 13.5837 0.75 13.5849C0.75 13.5861 0.75 13.5873 0.75 13.5886C0.75 13.5898 0.75 13.591 0.75 13.5922C0.75 13.5934 0.75 13.5946 0.75 13.5958C0.75 13.597 0.75 13.5982 0.75 13.5994C0.75 13.6006 0.75 13.6018 0.75 13.603C0.75 13.6042 0.75 13.6054 0.75 13.6066C0.75 13.6078 0.75 13.6091 0.75 13.6103C0.75 13.6115 0.75 13.6127 0.75 13.6139C0.75 13.6151 0.75 13.6163 0.75 13.6175C0.75 13.6187 0.75 13.6199 0.75 13.6211C0.75 13.6223 0.75 13.6235 0.75 13.6248C0.75 13.626 0.75 13.6272 0.75 13.6284C0.75 13.6296 0.75 13.6308 0.75 13.632C0.75 13.6332 0.75 13.6344 0.75 13.6356C0.75 13.6369 0.75 13.6381 0.75 13.6393C0.75 13.6405 0.75 13.6417 0.75 13.6429C0.75 13.6441 0.75 13.6453 0.75 13.6465C0.75 13.6478 0.75 13.649 0.75 13.6502C0.75 13.6514 0.75 13.6526 0.75 13.6538C0.75 13.655 0.75 13.6562 0.75 13.6575C0.75 13.6587 0.75 13.6599 0.75 13.6611C0.75 13.6623 0.75 13.6635 0.75 13.6647C0.75 13.666 0.75 13.6672 0.75 13.6684C0.75 13.6696 0.75 13.6708 0.75 13.672C0.75 13.6732 0.75 13.6745 0.75 13.6757C0.75 13.6769 0.75 13.6781 0.75 13.6793C0.75 13.6805 0.75 13.6818 0.75 13.683C0.75 13.6842 0.75 13.6854 0.75 13.6866C0.75 13.6878 0.75 13.6891 0.75 13.6903C0.75 13.6915 0.75 13.6927 0.75 13.6939C0.75 13.6952 0.75 13.6964 0.75 13.6976C0.75 13.6988 0.75 13.7 0.75 13.7012C0.75 13.7025 0.75 13.7037 0.75 13.7049C0.75 13.7061 0.75 13.7073 0.75 13.7086C0.75 13.7098 0.75 13.711 0.75 13.7122C0.75 13.7134 0.75 13.7147 0.75 13.7159C0.75 13.7171 0.75 13.7183 0.75 13.7195C0.75 13.7208 0.75 13.722 0.75 13.7232C0.75 13.7244 0.75 13.7257 0.75 13.7269C0.75 13.7281 0.75 13.7293 0.75 13.7305C0.75 13.7318 0.75 13.733 0.75 13.7342C0.75 13.7354 0.75 13.7367 0.75 13.7379C0.75 13.7391 0.75 13.7403 0.75 13.7416C0.75 13.7428 0.75 13.744 0.75 13.7452C0.75 13.7465 0.75 13.7477 0.75 13.7489C0.75 13.7501 0.75 13.7514 0.75 13.7526C0.75 13.7538 0.75 13.755 0.75 13.7563C0.75 13.7575 0.75 13.7587 0.75 13.7599C0.75 13.7612 0.75 13.7624 0.75 13.7636C0.75 13.7648 0.75 13.7661 0.75 13.7673C0.75 13.7685 0.75 13.7697 0.75 13.771C0.75 13.7722 0.75 13.7734 0.75 13.7747C0.75 13.7759 0.75 13.7771 0.75 13.7783C0.75 13.7796 0.75 13.7808 0.75 13.782C0.75 13.7833 0.75 13.7845 0.75 13.7857C0.75 13.787 0.75 13.7882 0.75 13.7894C0.75 13.7906 0.75 13.7919 0.75 13.7931C0.75 13.7943 0.75 13.7956 0.75 13.7968C0.75 13.798 0.75 13.7993 0.75 13.8005C0.75 13.8017 0.75 13.8029 0.75 13.8042C0.75 13.8054 0.75 13.8066 0.75 13.8079C0.75 13.8091 0.75 13.8103 0.75 13.8116C0.75 13.8128 0.75 13.814 0.75 13.8153C0.75 13.8165 0.75 13.8177 0.75 13.819C0.75 13.8202 0.75 13.8214 0.75 13.8227C0.75 13.8239 0.75 13.8251 0.75 13.8264C0.75 13.8276 0.75 13.8288 0.75 13.8301C0.75 13.8313 0.75 13.8326 0.75 13.8338C0.75 13.835 0.75 13.8363 0.75 13.8375C0.75 13.8387 0.75 13.84 0.75 13.8412C0.75 13.8424 0.75 13.8437 0.75 13.8449C0.75 13.8462 0.75 13.8474 0.75 13.8486C0.75 13.8499 0.75 13.8511 0.75 13.8523C0.75 13.8536 0.75 13.8548 0.75 13.8561C0.75 13.8573 0.75 13.8585 0.75 13.8598C0.75 13.861 0.75 13.8622 0.75 13.8635C0.75 13.8647 0.75 13.866 0.75 13.8672C0.75 13.8684 0.75 13.8697 0.75 13.8709C0.75 13.8722 0.75 13.8734 0.75 13.8746C0.75 13.8759 0.75 13.8771 0.75 13.8784C0.75 13.8796 0.75 13.8808 0.75 13.8821C0.75 13.8833 0.75 13.8846 0.75 13.8858C0.75 13.8871 0.75 13.8883 0.75 13.8895C0.75 13.8908 0.75 13.892 0.75 13.8933C0.75 13.8945 0.75 13.8957 0.75 13.897C0.75 13.8982 0.75 13.8995 0.75 13.9007C0.75 13.902 0.75 13.9032 0.75 13.9045C0.75 13.9057 0.75 13.9069 0.75 13.9082C0.75 13.9094 0.75 13.9107 0.75 13.9119C0.75 13.9132 0.75 13.9144 0.75 13.9157C0.75 13.9169 0.75 13.9181 0.75 13.9194C0.75 13.9206 0.75 13.9219 0.75 13.9231C0.75 13.9244 0.75 13.9256 0.75 13.9269C0.75 13.9281 0.75 13.9294 0.75 13.9306C0.75 13.9319 0.75 13.9331 0.75 13.9343C0.75 13.9356 0.75 13.9368 0.75 13.9381C0.75 13.9393 0.75 13.9406 0.75 13.9418C0.75 13.9431 0.75 13.9443 0.75 13.9456C0.75 13.9468 0.75 13.9481 0.75 13.9493C0.75 13.9506 0.75 13.9518 0.75 13.9531C0.75 13.9543 0.75 13.9556 0.75 13.9568C0.75 13.9581 0.75 13.9593 0.75 13.9606C0.75 13.9618 0.75 13.9631 0.75 13.9643C0.75 13.9656 0.75 13.9668 0.75 13.9681C0.75 13.9693 0.75 13.9706 0.75 13.9718C0.75 13.9731 0.75 13.9743 0.75 13.9756C0.75 13.9768 0.75 13.9781 0.75 13.9793C0.75 13.9806 0.75 13.9819 0.75 13.9831C0.75 13.9844 0.75 13.9856 0.75 13.9869C0.75 13.9881 0.75 13.9894 0.75 13.9906C0.75 13.9919 0.75 13.9931 0.75 13.9944C0.75 13.9956 0.75 13.9969 0.75 13.9982C0.75 13.9994 0.75 14.0007 0.75 14.0019C0.75 14.0032 0.75 14.0044 0.75 14.0057C0.75 14.0069 0.75 14.0082 0.75 14.0094C0.75 14.0107 0.75 14.012 0.75 14.0132C0.75 14.0145 0.75 14.0157 0.75 14.017C0.75 14.0182 0.75 14.0195 0.75 14.0208C0.75 14.022 0.75 14.0233 0.75 14.0245C0.75 14.0258 0.75 14.027 0.75 14.0283C0.75 14.0296 0.75 14.0308 0.75 14.0321C0.75 14.0333 0.75 14.0346 0.75 14.0359C0.75 14.0371 0.75 14.0384 0.75 14.0396C0.75 14.0409 0.75 14.0422 0.75 14.0434C0.75 14.0447 0.75 14.0459 0.75 14.0472C0.75 14.0485 0.75 14.0497 0.75 14.051C0.75 14.0522 0.75 14.0535 0.75 14.0548C0.75 14.056 0.75 14.0573 0.75 14.0585C0.75 14.0598 0.75 14.0611 0.75 14.0623C0.75 14.0636 0.75 14.0649 0.75 14.0661C0.75 14.0674 0.75 14.0686 0.75 14.0699C0.75 14.0712 0.75 14.0724 0.75 14.0737C0.75 14.075 0.75 14.0762 0.75 14.0775C0.75 14.0787 0.75 14.08 0.75 14.0813C0.75 14.0825 0.75 14.0838 0.75 14.0851C0.75 14.0863 0.75 14.0876 0.75 14.0889C0.75 14.0901 0.75 14.0914 0.75 14.0927C0.75 14.0939 0.75 14.0952 0.75 14.0965C0.75 14.0977 0.75 14.099 0.75 14.1003C0.75 14.1015 0.75 14.1028 0.75 14.1041C0.75 14.1053 0.75 14.1066 0.75 14.1079C0.75 14.1091 0.75 14.1104 0.75 14.1117C0.75 14.1129 0.75 14.1142 0.75 14.1155C0.75 14.1167 0.75 14.118 0.75 14.1193C0.75 14.1205 0.75 14.1218 0.75 14.1231C0.75 14.1243 0.75 14.1256 0.75 14.1269C0.75 14.1281 0.75 14.1294 0.75 14.1307C0.75 14.132 0.75 14.1332 0.75 14.1345C0.75 14.1358 0.75 14.137 0.75 14.1383C0.75 14.1396 0.75 14.1408 0.75 14.1421C0.75 14.1434 0.75 14.1447 0.75 14.1459C0.75 14.1472 0.75 14.1485 0.75 14.1497C0.75 14.151 0.75 14.1523 0.75 14.1536C0.75 14.1548 0.75 14.1561 0.75 14.1574C0.75 14.1586 0.75 14.1599 0.75 14.1612C0.75 14.1625 0.75 14.1637 0.75 14.165C0.75 14.1663 0.75 14.1676 0.75 14.1688C0.75 14.1701 0.75 14.1714 0.75 14.1727C0.75 14.1739 0.75 14.1752 0.75 14.1765C0.75 14.1777 0.75 14.179 0.75 14.1803C0.75 14.1816 0.75 14.1828 0.75 14.1841C0.75 14.1854 0.75 14.1867 0.75 14.1879C0.75 14.1892 0.75 14.1905 0.75 14.1918C0.75 14.1931 0.75 14.1943 0.75 14.1956C0.75 14.1969 0.75 14.1982 0.75 14.1994C0.75 14.2007 0.75 14.202 0.75 14.2033C0.75 14.2045 0.75 14.2058 0.75 14.2071C0.75 14.2084 0.75 14.2097 0.75 14.2109C0.75 14.2122 0.75 14.2135 0.75 14.2148C0.75 14.216 0.75 14.2173 0.75 14.2186C0.75 14.2199 0.75 14.2212 0.75 14.2224C0.75 14.2237 0.75 14.225 0.75 14.2263C0.75 14.2276 0.75 14.2288 0.75 14.2301C0.75 14.2314 0.75 14.2327 0.75 14.234C0.75 14.2352 0.75 14.2365 0.75 14.2378C0.75 14.2391 0.75 14.2404 0.75 14.2416C0.75 14.2429 0.75 14.2442 0.75 14.2455C0.75 14.2468 0.75 14.2481 0.75 14.2493C0.75 14.2506 0.75 14.2519 0.75 14.2532C0.75 14.2545 0.75 14.2558 0.75 14.257C0.75 14.2583 0.75 14.2596 0.75 14.2609C0.75 14.2622 0.75 14.2635 0.75 14.2647C0.75 14.266 0.75 14.2673 0.75 14.2686C0.75 14.2699 0.75 14.2712 0.75 14.2724C0.75 14.2737 0.75 14.275 0.75 14.2763C0.75 14.2776 0.75 14.2789 0.75 14.2801C0.75 14.2814 0.75 14.2827 0.75 14.284C0.75 14.2853 0.75 14.2866 0.75 14.2879C0.75 14.2891 0.75 14.2904 0.75 14.2917C0.75 14.293 0.75 14.2943 0.75 14.2956C0.75 14.2969 0.75 14.2982 0.75 14.2994C0.75 14.3007 0.75 14.302 0.75 14.3033C0.75 14.3046 0.75 14.3059 0.75 14.3072C0.75 14.3085 0.75 14.3097 0.75 14.311C0.75 14.3123 0.75 14.3136 0.75 14.3149C0.75 14.3162 0.75 14.3175 0.75 14.3188C0.75 14.3201 0.75 14.3213 0.75 14.3226C0.75 14.3239 0.75 14.3252 0.75 14.3265C0.75 14.3278 0.75 14.3291 0.75 14.3304C0.75 14.3317 0.75 14.333 0.75 14.3342C0.75 14.3355 0.75 14.3368 0.75 14.3381C0.75 14.3394 0.75 14.3407 0.75 14.342C0.75 14.3433 0.75 14.3446 0.75 14.3459C0.75 14.3472 0.75 14.3485 0.75 14.3497C0.75 14.351 0.75 14.3523 0.75 14.3536C0.75 14.3549 0.75 14.3562 0.75 14.3575C0.75 14.3588 0.75 14.3601 0.75 14.3614C0.75 14.3627 0.75 14.364 0.75 14.3653C0.75 14.3666 0.75 14.3679 0.75 14.3692C0.75 14.3704 0.75 14.3717 0.75 14.373C0.75 14.3743 0.75 14.3756 0.75 14.3769C0.75 14.3782 0.75 14.3795 0.75 14.3808C0.75 14.3821 0.75 14.3834 0.75 14.3847C0.75 14.386 0.75 14.3873 0.75 14.3886C0.75 14.3899 0.75 14.3912 0.75 14.3925C0.75 14.3938 0.75 14.3951 0.75 14.3964C0.75 14.3977 0.75 14.399 0.75 14.4003C0.75 14.4016 0.75 14.4028 0.75 14.4041C0.75 14.4054 0.75 14.4067 0.75 14.408C0.75 14.4093 0.75 14.4106 0.75 14.4119C0.75 14.4132 0.75 14.4145 0.75 14.4158C0.75 14.4171 0.75 14.4184 0.75 14.4197C0.75 14.421 0.75 14.4223 0.75 14.4236C0.75 14.4249 0.75 14.4262 0.75 14.4275C0.75 14.4288 0.75 14.4301 0.75 14.4314C0.75 14.4327 0.75 14.434 0.75 14.4353C0.75 14.4366 0.75 14.4379 0.75 14.4392C0.75 14.4405 0.75 14.4418 0.75 14.4431C0.75 14.4444 0.75 14.4457 0.75 14.447C0.75 14.4483 0.75 14.4496 0.75 14.451C0.75 14.4523 0.75 14.4536 0.75 14.4549C0.75 14.4562 0.75 14.4575 0.75 14.4588C0.75 14.4601 0.75 14.4614 0.75 14.4627C0.75 14.464 0.75 14.4653 0.75 14.4666C0.75 14.4679 0.75 14.4692 0.75 14.4705C0.75 14.4718 0.75 14.4731 0.75 14.4744C0.75 14.4757 0.75 14.477 0.75 14.4783C0.75 14.4796 0.75 14.4809 0.75 14.4822C0.75 14.4836 0.75 14.4849 0.75 14.4862C0.75 14.4875 0.75 14.4888 0.75 14.4901C0.75 14.4914 0.75 14.4927 0.75 14.494C0.75 14.4953 0.75 14.4966 0.75 14.4979C0.75 14.4992 0.75 14.5005 0.75 14.5018C0.75 14.5031 0.75 14.5045 0.75 14.5058C0.75 14.5071 0.75 14.5084 0.75 14.5097C0.75 14.511 0.75 14.5123 0.75 14.5136C0.75 14.5149 0.75 14.5162 0.75 14.5175C0.75 14.5188 0.75 14.5202 0.75 14.5215C0.75 14.5228 0.75 14.5241 0.75 14.5254C0.75 14.5267 0.75 14.528 0.75 14.5293C0.75 14.5306 0.75 14.5319 0.75 14.5333C0.75 14.5346 0.75 14.5359 0.75 14.5372C0.75 14.5385 0.75 14.5398 0.75 14.5411C0.75 14.5424 0.75 14.5437 0.75 14.545C0.75 14.5464 0.75 14.5477 0.75 14.549C0.75 14.5503 0.75 14.5516 0.75 14.5529C0.75 14.5542 0.75 14.5555 0.75 14.5569C0.75 14.5582 0.75 14.5595 0.75 14.5608C0.75 14.5621 0.75 14.5634 0.75 14.5647C0.75 14.566 0.75 14.5674 0.75 14.5687C0.75 14.57 0.75 14.5713 0.75 14.5726C0.75 14.5739 0.75 14.5752 0.75 14.5766C0.75 14.5779 0.75 14.5792 0.75 14.5805C0.75 14.5818 0.75 14.5831 0.75 14.5844C0.75 14.5858 0.75 14.5871 0.75 14.5884C0.75 14.5897 0.75 14.591 0.75 14.5923C0.75 14.5937 0.75 14.595 0.75 14.5963C0.75 14.5976 0.75 14.5989 0.75 14.6002C0.75 14.6016 0.75 14.6029 0.75 14.6042C0.75 14.6055 0.75 14.6068 0.75 14.6081C0.75 14.6095 0.75 14.6108 0.75 14.6121C0.75 14.6134 0.75 14.6147 0.75 14.616C0.75 14.6174 0.75 14.6187 0.75 14.62C0.75 14.6213 0.75 14.6226 0.75 14.624C0.75 14.6253 0.75 14.6266 0.75 14.6279C0.75 14.6292 0.75 14.6305 0.75 14.6319C0.75 14.6332 0.75 14.6345 0.75 14.6358C0.75 14.6371 0.75 14.6385 0.75 14.6398C0.75 14.6411 0.75 14.6424 0.75 14.6437C0.75 14.6451 0.75 14.6464 0.75 14.6477C0.75 14.649 0.75 14.6503 0.75 14.6517C0.75 14.653 0.75 14.6543 0.75 14.6556C0.75 14.657 0.75 14.6583 0.75 14.6596C0.75 14.6609 0.75 14.6622 0.75 14.6636C0.75 14.6649 0.75 14.6662 0.75 14.6675C0.75 14.6689 0.75 14.6702 0.75 14.6715C0.75 14.6728 0.75 14.6741 0.75 14.6755C0.75 14.6768 0.75 14.6781 0.75 14.6794C0.75 14.6808 0.75 14.6821 0.75 14.6834C0.75 14.6847 0.75 14.6861 0.75 14.6874C0.75 14.6887 0.75 14.69 0.75 14.6914C0.75 14.6927 0.75 14.694 0.75 14.6953C0.75 14.6967 0.75 14.698 0.75 14.6993C0.75 14.7006 0.75 14.702 0.75 14.7033C0.75 14.7046 0.75 14.7059 0.75 14.7073C0.75 14.7086 0.75 14.7099 0.75 14.7112C0.75 14.7126 0.75 14.7139 0.75 14.7152C0.75 14.7165 0.75 14.7179 0.75 14.7192C0.75 14.7205 0.75 14.7219 0.75 14.7232C0.75 14.7245 0.75 14.7258 0.75 14.7272C0.75 14.7285 0.75 14.7298 0.75 14.7311C0.75 14.7325 0.75 14.7338 0.75 14.7351C0.75 14.7365 0.75 14.7378 0.75 14.7391C0.75 14.7404 0.75 14.7418 0.75 14.7431C0.75 14.7444 0.75 14.7458 0.75 14.7471C0.75 14.7484 0.75 14.7498 0.75 14.7511C0.75 14.7524 0.75 14.7537 0.75 14.7551C0.75 14.7564 0.75 14.7577 0.75 14.7591C0.75 14.7604 0.75 14.7617 0.75 14.7631C0.75 14.7644 0.75 14.7657 0.75 14.767C0.75 14.7684 0.75 14.7697 0.75 14.771C0.75 14.7724 0.75 14.7737 0.75 14.775C0.75 14.7764 0.75 14.7777 0.75 14.779C0.75 14.7804 0.75 14.7817 0.75 14.783C0.75 14.7844 0.75 14.7857 0.75 14.787C0.75 14.7884 0.75 14.7897 0.75 14.791C0.75 14.7924 0.75 14.7937 0.75 14.795C0.75 14.7964 0.75 14.7977 0.75 14.799C0.75 14.8004 0.75 14.8017 0.75 14.803C0.75 14.8044 0.75 14.8057 0.75 14.807C0.75 14.8084 0.75 14.8097 0.75 14.811C0.75 14.8124 0.75 14.8137 0.75 14.815C0.75 14.8164 0.75 14.8177 0.75 14.8191C0.75 14.8204 0.75 14.8217 0.75 14.8231C0.75 14.8244 0.75 14.8257 0.75 14.8271C0.75 14.8284 0.75 14.8297 0.75 14.8311C0.75 14.8324 0.75 14.8338 0.75 14.8351C0.75 14.8364 0.75 14.8378 0.75 14.8391C0.75 14.8404 0.75 14.8418 0.75 14.8431C0.75 14.8445 0.75 14.8458 0.75 14.8471C0.75 14.8485 0.75 14.8498 0.75 14.8511C0.75 14.8525 0.75 14.8538 0.75 14.8552C0.75 14.8565 0.75 14.8578 0.75 14.8592C0.75 14.8605 0.75 14.8619 0.75 14.8632C0.75 14.8645 0.75 14.8659 0.75 14.8672C0.75 14.8686 0.75 14.8699 0.75 14.8712C0.75 14.8726 0.75 14.8739 0.75 14.8753C0.75 14.8766 0.75 14.8779 0.75 14.8793C0.75 14.8806 0.75 14.882 0.75 14.8833C0.75 14.8846 0.75 14.886 0.75 14.8873C0.75 14.8887 0.75 14.89 0.75 14.8913C0.75 14.8927 0.75 14.894 0.75 14.8954C0.75 14.8967 0.75 14.8981 0.75 14.8994C0.75 14.9007 0.75 14.9021 0.75 14.9034C0.75 14.9048 0.75 14.9061 0.75 14.9075C0.75 14.9088 0.75 14.9101 0.75 14.9115C0.75 14.9128 0.75 14.9142 0.75 14.9155C0.75 14.9169 0.75 14.9182 0.75 14.9195C0.75 14.9209 0.75 14.9222 0.75 14.9236C0.75 14.9249 0.75 14.9263 0.75 14.9276C0.75 14.929 0.75 14.9303 0.75 14.9316C0.75 14.933 0.75 14.9343 0.75 14.9357C0.75 14.937 0.75 14.9384 0.75 14.9397C0.75 14.9411 0.75 14.9424 0.75 14.9438C0.75 14.9451 0.75 14.9464 0.75 14.9478C0.75 14.9491 0.75 14.9505 0.75 14.9518C0.75 14.9532 0.75 14.9545 0.75 14.9559C0.75 14.9572 0.75 14.9586 0.75 14.9599C0.75 14.9613 0.75 14.9626 0.75 14.964C0.75 14.9653 0.75 14.9667 0.75 14.968C0.75 14.9693 0.75 14.9707 0.75 14.972C0.75 14.9734 0.75 14.9747 0.75 14.9761C0.75 14.9774 0.75 14.9788 0.75 14.9801C0.75 14.9815 0.75 14.9828 0.75 14.9842C0.75 14.9855 0.75 14.9869 0.75 14.9882C0.75 14.9896 0.75 14.9909 0.75 14.9923C0.75 14.9936 0.75 14.995 0.75 14.9963C0.75 14.9977 0.75 14.999 0.75 15.0004C0.75 15.0017 0.75 15.0031 0.75 15.0044C0.75 15.0058 0.75 15.0071 0.75 15.0085C0.75 15.0098 0.75 15.0112 0.75 15.0125C0.75 15.0139 0.75 15.0152 0.75 15.0166C0.75 15.0179 0.75 15.0193 0.75 15.0206C0.75 15.022 0.75 15.0234 0.75 15.0247C0.75 15.0261 0.75 15.0274 0.75 15.0288C0.75 15.0301 0.75 15.0315 0.75 15.0328C0.75 15.0342 0.75 15.0355 0.75 15.0369C0.75 15.0382 0.75 15.0396 0.75 15.0409C0.75 15.0423 0.75 15.0436 0.75 15.045C0.75 15.0464 0.75 15.0477 0.75 15.0491C0.75 15.0504 0.75 15.0518 0.75 15.0531C0.75 15.0545 0.75 15.0558 0.75 15.0572C0.75 15.0585 0.75 15.0599 0.75 15.0613C0.75 15.0626 0.75 15.064 0.75 15.0653C0.75 15.0667 0.75 15.068 0.75 15.0694C0.75 15.0707 0.75 15.0721 0.75 15.0735C0.75 15.0748 0.75 15.0762 0.75 15.0775C0.75 15.0789 0.75 15.0802 0.75 15.0816C0.75 15.083 0.75 15.0843 0.75 15.0857C0.75 15.087 0.75 15.0884 0.75 15.0897C0.75 15.0911 0.75 15.0925 0.75 15.0938C0.75 15.0952 0.75 15.0965 0.75 15.0979C0.75 15.0992 0.75 15.1006 0.75 15.102C0.75 15.1033 0.75 15.1047 0.75 15.106C0.75 15.1074 0.75 15.1088 0.75 15.1101C0.75 15.1115 0.75 15.1128 0.75 15.1142C0.75 15.1155 0.75 15.1169 0.75 15.1183C0.75 15.1196 0.75 15.121 0.75 15.1223C0.75 15.1237 0.75 15.1251 0.75 15.1264C0.75 15.1278 0.75 15.1291 0.75 15.1305C0.75 15.1319 0.75 15.1332 0.75 15.1346C0.75 15.1359 0.75 15.1373 0.75 15.1387C0.75 15.14 0.75 15.1414 0.75 15.1428C0.75 15.1441 0.75 15.1455 0.75 15.1468C0.75 15.1482 0.75 15.1496 0.75 15.1509C0.75 15.1523 0.75 15.1536 0.75 15.155C0.75 15.1564 0.75 15.1577 0.75 15.1591C0.75 15.1605 0.75 15.1618 0.75 15.1632C0.75 15.1645 0.75 15.1659 0.75 15.1673C0.75 15.1686 0.75 15.17 0.75 15.1714C0.75 15.1727 0.75 15.1741 0.75 15.1755C0.75 15.1768 0.75 15.1782 0.75 15.1795C0.75 15.1809 0.75 15.1823 0.75 15.1836C0.75 15.185 0.75 15.1864 0.75 15.1877C0.75 15.1891 0.75 15.1905 0.75 15.1918C0.75 15.1932 0.75 15.1946 0.75 15.1959C0.75 15.1973 0.75 15.1987 0.75 15.2C0.75 15.2014 0.75 15.2027 0.75 15.2041C0.75 15.2055 0.75 15.2068 0.75 15.2082C0.75 15.2096 0.75 15.2109 0.75 15.2123C0.75 15.2137 0.75 15.215 0.75 15.2164C0.75 15.2178 0.75 15.2191 0.75 15.2205C0.75 15.2219 0.75 15.2232 0.75 15.2246C0.75 15.226 0.75 15.2273 0.75 15.2287C0.75 15.2301 0.75 15.2315 0.75 15.2328C0.75 15.2342 0.75 15.2356 0.75 15.2369C0.75 15.2383 0.75 15.2397 0.75 15.241C0.75 15.2424 0.75 15.2438 0.75 15.2451C0.75 15.2465 0.75 15.2479 0.75 15.2492C0.75 15.2506 0.75 15.252 0.75 15.2533C0.75 15.2547 0.75 15.2561 0.75 15.2575C0.75 15.2588 0.75 15.2602 0.75 15.2616C0.75 15.2629 0.75 15.2643 0.75 15.2657C0.75 15.267 0.75 15.2684 0.75 15.2698C0.75 15.2712 0.75 15.2725 0.75 15.2739C0.75 15.2753 0.75 15.2766 0.75 15.278C0.75 15.2794 0.75 15.2808 0.75 15.2821C0.75 15.2835 0.75 15.2849 0.75 15.2862C0.75 15.2876 0.75 15.289 0.75 15.2904C0.75 15.2917 0.75 15.2931 0.75 15.2945C0.75 15.2958 0.75 15.2972 0.75 15.2986C0.75 15.3 0.75 15.3013 0.75 15.3027C0.75 15.3041 0.75 15.3055 0.75 15.3068C0.75 15.3082 0.75 15.3096 0.75 15.3109C0.75 15.3123 0.75 15.3137 0.75 15.3151C0.75 15.3164 0.75 15.3178 0.75 15.3192C0.75 15.3206 0.75 15.3219 0.75 15.3233C0.75 15.3247 0.75 15.3261 0.75 15.3274C0.75 15.3288 0.75 15.3302 0.75 15.3316C0.75 15.3329 0.75 15.3343 0.75 15.3357C0.75 15.3371 0.75 15.3384 0.75 15.3398C0.75 15.3412 0.75 15.3426 0.75 15.3439C0.75 15.3453 0.75 15.3467 0.75 15.3481C0.75 15.3494 0.75 15.3508 0.75 15.3522C0.75 15.3536 0.75 15.3549 0.75 15.3563C0.75 15.3577 0.75 15.3591 0.75 15.3604C0.75 15.3618 0.75 15.3632 0.75 15.3646C0.75 15.366 0.75 15.3673 0.75 15.3687C0.75 15.3701 0.75 15.3715 0.75 15.3728C0.75 15.3742 0.75 15.3756 0.75 15.377C0.75 15.3784 0.75 15.3797 0.75 15.3811C0.75 15.3825 0.75 15.3839 0.75 15.3852C0.75 15.3866 0.75 15.388 0.75 15.3894C0.75 15.3908 0.75 15.3921 0.75 15.3935C0.75 15.3949 0.75 15.3963 0.75 15.3977C0.75 15.399 0.75 15.4004 0.75 15.4018C0.75 15.4032 0.75 15.4046 0.75 15.4059C0.75 15.4073 0.75 15.4087 0.75 15.4101C0.75 15.4115 0.75 15.4128 0.75 15.4142C0.75 15.4156 0.75 15.417 0.75 15.4184C0.75 15.4197 0.75 15.4211 0.75 15.4225C0.75 15.4239 0.75 15.4253 0.75 15.4266C0.75 15.428 0.75 15.4294 0.75 15.4308C0.75 15.4322 0.75 15.4335 0.75 15.4349C0.75 15.4363 0.75 15.4377 0.75 15.4391C0.75 15.4405 0.75 15.4418 0.75 15.4432C0.75 15.4446 0.75 15.446 0.75 15.4474C0.75 15.4487 0.75 15.4501 0.75 15.4515C0.75 15.4529 0.75 15.4543 0.75 15.4557C0.75 15.457 0.75 15.4584 0.75 15.4598C0.75 15.4612 0.75 15.4626 0.75 15.464C0.75 15.4653 0.75 15.4667 0.75 15.4681C0.75 15.4695 0.75 15.4709 0.75 15.4723C0.75 15.4736 0.75 15.475 0.75 15.4764C0.75 15.4778 0.75 15.4792 0.75 15.4806C0.75 15.482 0.75 15.4833 0.75 15.4847C0.75 15.4861 0.75 15.4875 0.75 15.4889C0.75 15.4903 0.75 15.4917 0.75 15.493C0.75 15.4944 0.75 15.4958 0.75 15.4972C0.75 15.4986 0.75 15.5 0.75 15.5014C0.75 15.5027 0.75 15.5041 0.75 15.5055C0.75 15.5069 0.75 15.5083 0.75 15.5097C0.75 15.5111 0.75 15.5124 0.75 15.5138H2.25ZM4.5 11.2671H8.5V9.76709H4.5V11.2671ZM10.75 13.5166C10.75 13.5178 10.75 13.519 10.75 13.5202C10.75 13.5214 10.75 13.5226 10.75 13.5237C10.75 13.5249 10.75 13.5261 10.75 13.5273C10.75 13.5285 10.75 13.5297 10.75 13.5309C10.75 13.5321 10.75 13.5333 10.75 13.5345C10.75 13.5357 10.75 13.5369 10.75 13.5381C10.75 13.5393 10.75 13.5405 10.75 13.5417C10.75 13.5429 10.75 13.5441 10.75 13.5453C10.75 13.5465 10.75 13.5477 10.75 13.5489C10.75 13.5501 10.75 13.5513 10.75 13.5525C10.75 13.5537 10.75 13.5549 10.75 13.5561C10.75 13.5573 10.75 13.5585 10.75 13.5597C10.75 13.5609 10.75 13.5621 10.75 13.5633C10.75 13.5645 10.75 13.5657 10.75 13.5669C10.75 13.5681 10.75 13.5693 10.75 13.5705C10.75 13.5717 10.75 13.5729 10.75 13.5741C10.75 13.5753 10.75 13.5765 10.75 13.5777C10.75 13.5789 10.75 13.5801 10.75 13.5813C10.75 13.5825 10.75 13.5837 10.75 13.5849C10.75 13.5861 10.75 13.5873 10.75 13.5886C10.75 13.5898 10.75 13.591 10.75 13.5922C10.75 13.5934 10.75 13.5946 10.75 13.5958C10.75 13.597 10.75 13.5982 10.75 13.5994C10.75 13.6006 10.75 13.6018 10.75 13.603C10.75 13.6042 10.75 13.6054 10.75 13.6066C10.75 13.6078 10.75 13.6091 10.75 13.6103C10.75 13.6115 10.75 13.6127 10.75 13.6139C10.75 13.6151 10.75 13.6163 10.75 13.6175C10.75 13.6187 10.75 13.6199 10.75 13.6211C10.75 13.6223 10.75 13.6235 10.75 13.6248C10.75 13.626 10.75 13.6272 10.75 13.6284C10.75 13.6296 10.75 13.6308 10.75 13.632C10.75 13.6332 10.75 13.6344 10.75 13.6356C10.75 13.6369 10.75 13.6381 10.75 13.6393C10.75 13.6405 10.75 13.6417 10.75 13.6429C10.75 13.6441 10.75 13.6453 10.75 13.6465C10.75 13.6478 10.75 13.649 10.75 13.6502C10.75 13.6514 10.75 13.6526 10.75 13.6538C10.75 13.655 10.75 13.6562 10.75 13.6575C10.75 13.6587 10.75 13.6599 10.75 13.6611C10.75 13.6623 10.75 13.6635 10.75 13.6647C10.75 13.666 10.75 13.6672 10.75 13.6684C10.75 13.6696 10.75 13.6708 10.75 13.672C10.75 13.6732 10.75 13.6745 10.75 13.6757C10.75 13.6769 10.75 13.6781 10.75 13.6793C10.75 13.6805 10.75 13.6818 10.75 13.683C10.75 13.6842 10.75 13.6854 10.75 13.6866C10.75 13.6878 10.75 13.6891 10.75 13.6903C10.75 13.6915 10.75 13.6927 10.75 13.6939C10.75 13.6952 10.75 13.6964 10.75 13.6976C10.75 13.6988 10.75 13.7 10.75 13.7012C10.75 13.7025 10.75 13.7037 10.75 13.7049C10.75 13.7061 10.75 13.7073 10.75 13.7086C10.75 13.7098 10.75 13.711 10.75 13.7122C10.75 13.7134 10.75 13.7147 10.75 13.7159C10.75 13.7171 10.75 13.7183 10.75 13.7195C10.75 13.7208 10.75 13.722 10.75 13.7232C10.75 13.7244 10.75 13.7257 10.75 13.7269C10.75 13.7281 10.75 13.7293 10.75 13.7305C10.75 13.7318 10.75 13.733 10.75 13.7342C10.75 13.7354 10.75 13.7367 10.75 13.7379C10.75 13.7391 10.75 13.7403 10.75 13.7416C10.75 13.7428 10.75 13.744 10.75 13.7452C10.75 13.7465 10.75 13.7477 10.75 13.7489C10.75 13.7501 10.75 13.7514 10.75 13.7526C10.75 13.7538 10.75 13.755 10.75 13.7563C10.75 13.7575 10.75 13.7587 10.75 13.7599C10.75 13.7612 10.75 13.7624 10.75 13.7636C10.75 13.7648 10.75 13.7661 10.75 13.7673C10.75 13.7685 10.75 13.7697 10.75 13.771C10.75 13.7722 10.75 13.7734 10.75 13.7747C10.75 13.7759 10.75 13.7771 10.75 13.7783C10.75 13.7796 10.75 13.7808 10.75 13.782C10.75 13.7833 10.75 13.7845 10.75 13.7857C10.75 13.787 10.75 13.7882 10.75 13.7894C10.75 13.7906 10.75 13.7919 10.75 13.7931C10.75 13.7943 10.75 13.7956 10.75 13.7968C10.75 13.798 10.75 13.7993 10.75 13.8005C10.75 13.8017 10.75 13.8029 10.75 13.8042C10.75 13.8054 10.75 13.8066 10.75 13.8079C10.75 13.8091 10.75 13.8103 10.75 13.8116C10.75 13.8128 10.75 13.814 10.75 13.8153C10.75 13.8165 10.75 13.8177 10.75 13.819C10.75 13.8202 10.75 13.8214 10.75 13.8227C10.75 13.8239 10.75 13.8251 10.75 13.8264C10.75 13.8276 10.75 13.8288 10.75 13.8301C10.75 13.8313 10.75 13.8326 10.75 13.8338C10.75 13.835 10.75 13.8363 10.75 13.8375C10.75 13.8387 10.75 13.84 10.75 13.8412C10.75 13.8424 10.75 13.8437 10.75 13.8449C10.75 13.8462 10.75 13.8474 10.75 13.8486C10.75 13.8499 10.75 13.8511 10.75 13.8523C10.75 13.8536 10.75 13.8548 10.75 13.8561C10.75 13.8573 10.75 13.8585 10.75 13.8598C10.75 13.861 10.75 13.8622 10.75 13.8635C10.75 13.8647 10.75 13.866 10.75 13.8672C10.75 13.8684 10.75 13.8697 10.75 13.8709C10.75 13.8722 10.75 13.8734 10.75 13.8746C10.75 13.8759 10.75 13.8771 10.75 13.8784C10.75 13.8796 10.75 13.8808 10.75 13.8821C10.75 13.8833 10.75 13.8846 10.75 13.8858C10.75 13.8871 10.75 13.8883 10.75 13.8895C10.75 13.8908 10.75 13.892 10.75 13.8933C10.75 13.8945 10.75 13.8957 10.75 13.897C10.75 13.8982 10.75 13.8995 10.75 13.9007C10.75 13.902 10.75 13.9032 10.75 13.9045C10.75 13.9057 10.75 13.9069 10.75 13.9082C10.75 13.9094 10.75 13.9107 10.75 13.9119C10.75 13.9132 10.75 13.9144 10.75 13.9157C10.75 13.9169 10.75 13.9181 10.75 13.9194C10.75 13.9206 10.75 13.9219 10.75 13.9231C10.75 13.9244 10.75 13.9256 10.75 13.9269C10.75 13.9281 10.75 13.9294 10.75 13.9306C10.75 13.9319 10.75 13.9331 10.75 13.9343C10.75 13.9356 10.75 13.9368 10.75 13.9381C10.75 13.9393 10.75 13.9406 10.75 13.9418C10.75 13.9431 10.75 13.9443 10.75 13.9456C10.75 13.9468 10.75 13.9481 10.75 13.9493C10.75 13.9506 10.75 13.9518 10.75 13.9531C10.75 13.9543 10.75 13.9556 10.75 13.9568C10.75 13.9581 10.75 13.9593 10.75 13.9606C10.75 13.9618 10.75 13.9631 10.75 13.9643C10.75 13.9656 10.75 13.9668 10.75 13.9681C10.75 13.9693 10.75 13.9706 10.75 13.9718C10.75 13.9731 10.75 13.9743 10.75 13.9756C10.75 13.9768 10.75 13.9781 10.75 13.9793C10.75 13.9806 10.75 13.9819 10.75 13.9831C10.75 13.9844 10.75 13.9856 10.75 13.9869C10.75 13.9881 10.75 13.9894 10.75 13.9906C10.75 13.9919 10.75 13.9931 10.75 13.9944C10.75 13.9956 10.75 13.9969 10.75 13.9982C10.75 13.9994 10.75 14.0007 10.75 14.0019C10.75 14.0032 10.75 14.0044 10.75 14.0057C10.75 14.0069 10.75 14.0082 10.75 14.0094C10.75 14.0107 10.75 14.012 10.75 14.0132C10.75 14.0145 10.75 14.0157 10.75 14.017C10.75 14.0182 10.75 14.0195 10.75 14.0208C10.75 14.022 10.75 14.0233 10.75 14.0245C10.75 14.0258 10.75 14.027 10.75 14.0283C10.75 14.0296 10.75 14.0308 10.75 14.0321C10.75 14.0333 10.75 14.0346 10.75 14.0359C10.75 14.0371 10.75 14.0384 10.75 14.0396C10.75 14.0409 10.75 14.0422 10.75 14.0434C10.75 14.0447 10.75 14.0459 10.75 14.0472C10.75 14.0485 10.75 14.0497 10.75 14.051C10.75 14.0522 10.75 14.0535 10.75 14.0548C10.75 14.056 10.75 14.0573 10.75 14.0585C10.75 14.0598 10.75 14.0611 10.75 14.0623C10.75 14.0636 10.75 14.0649 10.75 14.0661C10.75 14.0674 10.75 14.0686 10.75 14.0699C10.75 14.0712 10.75 14.0724 10.75 14.0737C10.75 14.075 10.75 14.0762 10.75 14.0775C10.75 14.0787 10.75 14.08 10.75 14.0813C10.75 14.0825 10.75 14.0838 10.75 14.0851C10.75 14.0863 10.75 14.0876 10.75 14.0889C10.75 14.0901 10.75 14.0914 10.75 14.0927C10.75 14.0939 10.75 14.0952 10.75 14.0965C10.75 14.0977 10.75 14.099 10.75 14.1003C10.75 14.1015 10.75 14.1028 10.75 14.1041C10.75 14.1053 10.75 14.1066 10.75 14.1079C10.75 14.1091 10.75 14.1104 10.75 14.1117C10.75 14.1129 10.75 14.1142 10.75 14.1155C10.75 14.1167 10.75 14.118 10.75 14.1193C10.75 14.1205 10.75 14.1218 10.75 14.1231C10.75 14.1243 10.75 14.1256 10.75 14.1269C10.75 14.1281 10.75 14.1294 10.75 14.1307C10.75 14.132 10.75 14.1332 10.75 14.1345C10.75 14.1358 10.75 14.137 10.75 14.1383C10.75 14.1396 10.75 14.1408 10.75 14.1421C10.75 14.1434 10.75 14.1447 10.75 14.1459C10.75 14.1472 10.75 14.1485 10.75 14.1497C10.75 14.151 10.75 14.1523 10.75 14.1536C10.75 14.1548 10.75 14.1561 10.75 14.1574C10.75 14.1586 10.75 14.1599 10.75 14.1612C10.75 14.1625 10.75 14.1637 10.75 14.165C10.75 14.1663 10.75 14.1676 10.75 14.1688C10.75 14.1701 10.75 14.1714 10.75 14.1727C10.75 14.1739 10.75 14.1752 10.75 14.1765C10.75 14.1777 10.75 14.179 10.75 14.1803C10.75 14.1816 10.75 14.1828 10.75 14.1841C10.75 14.1854 10.75 14.1867 10.75 14.1879C10.75 14.1892 10.75 14.1905 10.75 14.1918C10.75 14.1931 10.75 14.1943 10.75 14.1956C10.75 14.1969 10.75 14.1982 10.75 14.1994C10.75 14.2007 10.75 14.202 10.75 14.2033C10.75 14.2045 10.75 14.2058 10.75 14.2071C10.75 14.2084 10.75 14.2097 10.75 14.2109C10.75 14.2122 10.75 14.2135 10.75 14.2148C10.75 14.216 10.75 14.2173 10.75 14.2186C10.75 14.2199 10.75 14.2212 10.75 14.2224C10.75 14.2237 10.75 14.225 10.75 14.2263C10.75 14.2276 10.75 14.2288 10.75 14.2301C10.75 14.2314 10.75 14.2327 10.75 14.234C10.75 14.2352 10.75 14.2365 10.75 14.2378C10.75 14.2391 10.75 14.2404 10.75 14.2416C10.75 14.2429 10.75 14.2442 10.75 14.2455C10.75 14.2468 10.75 14.2481 10.75 14.2493C10.75 14.2506 10.75 14.2519 10.75 14.2532C10.75 14.2545 10.75 14.2558 10.75 14.257C10.75 14.2583 10.75 14.2596 10.75 14.2609C10.75 14.2622 10.75 14.2635 10.75 14.2647C10.75 14.266 10.75 14.2673 10.75 14.2686C10.75 14.2699 10.75 14.2712 10.75 14.2724C10.75 14.2737 10.75 14.275 10.75 14.2763C10.75 14.2776 10.75 14.2789 10.75 14.2801C10.75 14.2814 10.75 14.2827 10.75 14.284C10.75 14.2853 10.75 14.2866 10.75 14.2879C10.75 14.2891 10.75 14.2904 10.75 14.2917C10.75 14.293 10.75 14.2943 10.75 14.2956C10.75 14.2969 10.75 14.2982 10.75 14.2994C10.75 14.3007 10.75 14.302 10.75 14.3033C10.75 14.3046 10.75 14.3059 10.75 14.3072C10.75 14.3085 10.75 14.3097 10.75 14.311C10.75 14.3123 10.75 14.3136 10.75 14.3149C10.75 14.3162 10.75 14.3175 10.75 14.3188C10.75 14.3201 10.75 14.3213 10.75 14.3226C10.75 14.3239 10.75 14.3252 10.75 14.3265C10.75 14.3278 10.75 14.3291 10.75 14.3304C10.75 14.3317 10.75 14.333 10.75 14.3342C10.75 14.3355 10.75 14.3368 10.75 14.3381C10.75 14.3394 10.75 14.3407 10.75 14.342C10.75 14.3433 10.75 14.3446 10.75 14.3459C10.75 14.3472 10.75 14.3485 10.75 14.3497C10.75 14.351 10.75 14.3523 10.75 14.3536C10.75 14.3549 10.75 14.3562 10.75 14.3575C10.75 14.3588 10.75 14.3601 10.75 14.3614C10.75 14.3627 10.75 14.364 10.75 14.3653C10.75 14.3666 10.75 14.3679 10.75 14.3692C10.75 14.3704 10.75 14.3717 10.75 14.373C10.75 14.3743 10.75 14.3756 10.75 14.3769C10.75 14.3782 10.75 14.3795 10.75 14.3808C10.75 14.3821 10.75 14.3834 10.75 14.3847C10.75 14.386 10.75 14.3873 10.75 14.3886C10.75 14.3899 10.75 14.3912 10.75 14.3925C10.75 14.3938 10.75 14.3951 10.75 14.3964C10.75 14.3977 10.75 14.399 10.75 14.4003C10.75 14.4016 10.75 14.4028 10.75 14.4041C10.75 14.4054 10.75 14.4067 10.75 14.408C10.75 14.4093 10.75 14.4106 10.75 14.4119C10.75 14.4132 10.75 14.4145 10.75 14.4158C10.75 14.4171 10.75 14.4184 10.75 14.4197C10.75 14.421 10.75 14.4223 10.75 14.4236C10.75 14.4249 10.75 14.4262 10.75 14.4275C10.75 14.4288 10.75 14.4301 10.75 14.4314C10.75 14.4327 10.75 14.434 10.75 14.4353C10.75 14.4366 10.75 14.4379 10.75 14.4392C10.75 14.4405 10.75 14.4418 10.75 14.4431C10.75 14.4444 10.75 14.4457 10.75 14.447C10.75 14.4483 10.75 14.4496 10.75 14.451C10.75 14.4523 10.75 14.4536 10.75 14.4549C10.75 14.4562 10.75 14.4575 10.75 14.4588C10.75 14.4601 10.75 14.4614 10.75 14.4627C10.75 14.464 10.75 14.4653 10.75 14.4666C10.75 14.4679 10.75 14.4692 10.75 14.4705C10.75 14.4718 10.75 14.4731 10.75 14.4744C10.75 14.4757 10.75 14.477 10.75 14.4783C10.75 14.4796 10.75 14.4809 10.75 14.4822C10.75 14.4836 10.75 14.4849 10.75 14.4862C10.75 14.4875 10.75 14.4888 10.75 14.4901C10.75 14.4914 10.75 14.4927 10.75 14.494C10.75 14.4953 10.75 14.4966 10.75 14.4979C10.75 14.4992 10.75 14.5005 10.75 14.5018C10.75 14.5031 10.75 14.5045 10.75 14.5058C10.75 14.5071 10.75 14.5084 10.75 14.5097C10.75 14.511 10.75 14.5123 10.75 14.5136C10.75 14.5149 10.75 14.5162 10.75 14.5175C10.75 14.5188 10.75 14.5202 10.75 14.5215C10.75 14.5228 10.75 14.5241 10.75 14.5254C10.75 14.5267 10.75 14.528 10.75 14.5293C10.75 14.5306 10.75 14.5319 10.75 14.5333C10.75 14.5346 10.75 14.5359 10.75 14.5372C10.75 14.5385 10.75 14.5398 10.75 14.5411C10.75 14.5424 10.75 14.5437 10.75 14.545C10.75 14.5464 10.75 14.5477 10.75 14.549C10.75 14.5503 10.75 14.5516 10.75 14.5529C10.75 14.5542 10.75 14.5555 10.75 14.5569C10.75 14.5582 10.75 14.5595 10.75 14.5608C10.75 14.5621 10.75 14.5634 10.75 14.5647C10.75 14.566 10.75 14.5674 10.75 14.5687C10.75 14.57 10.75 14.5713 10.75 14.5726C10.75 14.5739 10.75 14.5752 10.75 14.5766C10.75 14.5779 10.75 14.5792 10.75 14.5805C10.75 14.5818 10.75 14.5831 10.75 14.5844C10.75 14.5858 10.75 14.5871 10.75 14.5884C10.75 14.5897 10.75 14.591 10.75 14.5923C10.75 14.5937 10.75 14.595 10.75 14.5963C10.75 14.5976 10.75 14.5989 10.75 14.6002C10.75 14.6016 10.75 14.6029 10.75 14.6042C10.75 14.6055 10.75 14.6068 10.75 14.6081C10.75 14.6095 10.75 14.6108 10.75 14.6121C10.75 14.6134 10.75 14.6147 10.75 14.616C10.75 14.6174 10.75 14.6187 10.75 14.62C10.75 14.6213 10.75 14.6226 10.75 14.624C10.75 14.6253 10.75 14.6266 10.75 14.6279C10.75 14.6292 10.75 14.6305 10.75 14.6319C10.75 14.6332 10.75 14.6345 10.75 14.6358C10.75 14.6371 10.75 14.6385 10.75 14.6398C10.75 14.6411 10.75 14.6424 10.75 14.6437C10.75 14.6451 10.75 14.6464 10.75 14.6477C10.75 14.649 10.75 14.6503 10.75 14.6517C10.75 14.653 10.75 14.6543 10.75 14.6556C10.75 14.657 10.75 14.6583 10.75 14.6596C10.75 14.6609 10.75 14.6622 10.75 14.6636C10.75 14.6649 10.75 14.6662 10.75 14.6675C10.75 14.6689 10.75 14.6702 10.75 14.6715C10.75 14.6728 10.75 14.6741 10.75 14.6755C10.75 14.6768 10.75 14.6781 10.75 14.6794C10.75 14.6808 10.75 14.6821 10.75 14.6834C10.75 14.6847 10.75 14.6861 10.75 14.6874C10.75 14.6887 10.75 14.69 10.75 14.6914C10.75 14.6927 10.75 14.694 10.75 14.6953C10.75 14.6967 10.75 14.698 10.75 14.6993C10.75 14.7006 10.75 14.702 10.75 14.7033C10.75 14.7046 10.75 14.7059 10.75 14.7073C10.75 14.7086 10.75 14.7099 10.75 14.7112C10.75 14.7126 10.75 14.7139 10.75 14.7152C10.75 14.7165 10.75 14.7179 10.75 14.7192C10.75 14.7205 10.75 14.7219 10.75 14.7232C10.75 14.7245 10.75 14.7258 10.75 14.7272C10.75 14.7285 10.75 14.7298 10.75 14.7311C10.75 14.7325 10.75 14.7338 10.75 14.7351C10.75 14.7365 10.75 14.7378 10.75 14.7391C10.75 14.7404 10.75 14.7418 10.75 14.7431C10.75 14.7444 10.75 14.7458 10.75 14.7471C10.75 14.7484 10.75 14.7498 10.75 14.7511C10.75 14.7524 10.75 14.7537 10.75 14.7551C10.75 14.7564 10.75 14.7577 10.75 14.7591C10.75 14.7604 10.75 14.7617 10.75 14.7631C10.75 14.7644 10.75 14.7657 10.75 14.767C10.75 14.7684 10.75 14.7697 10.75 14.771C10.75 14.7724 10.75 14.7737 10.75 14.775C10.75 14.7764 10.75 14.7777 10.75 14.779C10.75 14.7804 10.75 14.7817 10.75 14.783C10.75 14.7844 10.75 14.7857 10.75 14.787C10.75 14.7884 10.75 14.7897 10.75 14.791C10.75 14.7924 10.75 14.7937 10.75 14.795C10.75 14.7964 10.75 14.7977 10.75 14.799C10.75 14.8004 10.75 14.8017 10.75 14.803C10.75 14.8044 10.75 14.8057 10.75 14.807C10.75 14.8084 10.75 14.8097 10.75 14.811C10.75 14.8124 10.75 14.8137 10.75 14.8151C10.75 14.8164 10.75 14.8177 10.75 14.8191C10.75 14.8204 10.75 14.8217 10.75 14.8231C10.75 14.8244 10.75 14.8257 10.75 14.8271C10.75 14.8284 10.75 14.8297 10.75 14.8311C10.75 14.8324 10.75 14.8338 10.75 14.8351C10.75 14.8364 10.75 14.8378 10.75 14.8391C10.75 14.8404 10.75 14.8418 10.75 14.8431C10.75 14.8445 10.75 14.8458 10.75 14.8471C10.75 14.8485 10.75 14.8498 10.75 14.8511C10.75 14.8525 10.75 14.8538 10.75 14.8552C10.75 14.8565 10.75 14.8578 10.75 14.8592C10.75 14.8605 10.75 14.8619 10.75 14.8632C10.75 14.8645 10.75 14.8659 10.75 14.8672C10.75 14.8686 10.75 14.8699 10.75 14.8712C10.75 14.8726 10.75 14.8739 10.75 14.8753C10.75 14.8766 10.75 14.8779 10.75 14.8793C10.75 14.8806 10.75 14.882 10.75 14.8833C10.75 14.8846 10.75 14.886 10.75 14.8873C10.75 14.8887 10.75 14.89 10.75 14.8913C10.75 14.8927 10.75 14.894 10.75 14.8954C10.75 14.8967 10.75 14.8981 10.75 14.8994C10.75 14.9007 10.75 14.9021 10.75 14.9034C10.75 14.9048 10.75 14.9061 10.75 14.9075C10.75 14.9088 10.75 14.9101 10.75 14.9115C10.75 14.9128 10.75 14.9142 10.75 14.9155C10.75 14.9169 10.75 14.9182 10.75 14.9195C10.75 14.9209 10.75 14.9222 10.75 14.9236C10.75 14.9249 10.75 14.9263 10.75 14.9276C10.75 14.929 10.75 14.9303 10.75 14.9316C10.75 14.933 10.75 14.9343 10.75 14.9357C10.75 14.937 10.75 14.9384 10.75 14.9397C10.75 14.9411 10.75 14.9424 10.75 14.9438C10.75 14.9451 10.75 14.9464 10.75 14.9478C10.75 14.9491 10.75 14.9505 10.75 14.9518C10.75 14.9532 10.75 14.9545 10.75 14.9559C10.75 14.9572 10.75 14.9586 10.75 14.9599C10.75 14.9613 10.75 14.9626 10.75 14.964C10.75 14.9653 10.75 14.9667 10.75 14.968C10.75 14.9693 10.75 14.9707 10.75 14.972C10.75 14.9734 10.75 14.9747 10.75 14.9761C10.75 14.9774 10.75 14.9788 10.75 14.9801C10.75 14.9815 10.75 14.9828 10.75 14.9842C10.75 14.9855 10.75 14.9869 10.75 14.9882C10.75 14.9896 10.75 14.9909 10.75 14.9923C10.75 14.9936 10.75 14.995 10.75 14.9963C10.75 14.9977 10.75 14.999 10.75 15.0004C10.75 15.0017 10.75 15.0031 10.75 15.0044C10.75 15.0058 10.75 15.0071 10.75 15.0085C10.75 15.0098 10.75 15.0112 10.75 15.0125C10.75 15.0139 10.75 15.0152 10.75 15.0166C10.75 15.0179 10.75 15.0193 10.75 15.0207C10.75 15.022 10.75 15.0234 10.75 15.0247C10.75 15.0261 10.75 15.0274 10.75 15.0288C10.75 15.0301 10.75 15.0315 10.75 15.0328C10.75 15.0342 10.75 15.0355 10.75 15.0369C10.75 15.0382 10.75 15.0396 10.75 15.0409C10.75 15.0423 10.75 15.0437 10.75 15.045C10.75 15.0464 10.75 15.0477 10.75 15.0491C10.75 15.0504 10.75 15.0518 10.75 15.0531C10.75 15.0545 10.75 15.0558 10.75 15.0572C10.75 15.0585 10.75 15.0599 10.75 15.0613C10.75 15.0626 10.75 15.064 10.75 15.0653C10.75 15.0667 10.75 15.068 10.75 15.0694C10.75 15.0707 10.75 15.0721 10.75 15.0735C10.75 15.0748 10.75 15.0762 10.75 15.0775C10.75 15.0789 10.75 15.0802 10.75 15.0816C10.75 15.083 10.75 15.0843 10.75 15.0857C10.75 15.087 10.75 15.0884 10.75 15.0897C10.75 15.0911 10.75 15.0925 10.75 15.0938C10.75 15.0952 10.75 15.0965 10.75 15.0979C10.75 15.0992 10.75 15.1006 10.75 15.102C10.75 15.1033 10.75 15.1047 10.75 15.106C10.75 15.1074 10.75 15.1088 10.75 15.1101C10.75 15.1115 10.75 15.1128 10.75 15.1142C10.75 15.1155 10.75 15.1169 10.75 15.1183C10.75 15.1196 10.75 15.121 10.75 15.1223C10.75 15.1237 10.75 15.1251 10.75 15.1264C10.75 15.1278 10.75 15.1291 10.75 15.1305C10.75 15.1319 10.75 15.1332 10.75 15.1346C10.75 15.1359 10.75 15.1373 10.75 15.1387C10.75 15.14 10.75 15.1414 10.75 15.1428C10.75 15.1441 10.75 15.1455 10.75 15.1468C10.75 15.1482 10.75 15.1496 10.75 15.1509C10.75 15.1523 10.75 15.1536 10.75 15.155C10.75 15.1564 10.75 15.1577 10.75 15.1591C10.75 15.1605 10.75 15.1618 10.75 15.1632C10.75 15.1645 10.75 15.1659 10.75 15.1673C10.75 15.1686 10.75 15.17 10.75 15.1714C10.75 15.1727 10.75 15.1741 10.75 15.1755C10.75 15.1768 10.75 15.1782 10.75 15.1795C10.75 15.1809 10.75 15.1823 10.75 15.1836C10.75 15.185 10.75 15.1864 10.75 15.1877C10.75 15.1891 10.75 15.1905 10.75 15.1918C10.75 15.1932 10.75 15.1946 10.75 15.1959C10.75 15.1973 10.75 15.1987 10.75 15.2C10.75 15.2014 10.75 15.2027 10.75 15.2041C10.75 15.2055 10.75 15.2068 10.75 15.2082C10.75 15.2096 10.75 15.2109 10.75 15.2123C10.75 15.2137 10.75 15.215 10.75 15.2164C10.75 15.2178 10.75 15.2191 10.75 15.2205C10.75 15.2219 10.75 15.2232 10.75 15.2246C10.75 15.226 10.75 15.2273 10.75 15.2287C10.75 15.2301 10.75 15.2315 10.75 15.2328C10.75 15.2342 10.75 15.2356 10.75 15.2369C10.75 15.2383 10.75 15.2397 10.75 15.241C10.75 15.2424 10.75 15.2438 10.75 15.2451C10.75 15.2465 10.75 15.2479 10.75 15.2492C10.75 15.2506 10.75 15.252 10.75 15.2533C10.75 15.2547 10.75 15.2561 10.75 15.2575C10.75 15.2588 10.75 15.2602 10.75 15.2616C10.75 15.2629 10.75 15.2643 10.75 15.2657C10.75 15.267 10.75 15.2684 10.75 15.2698C10.75 15.2712 10.75 15.2725 10.75 15.2739C10.75 15.2753 10.75 15.2766 10.75 15.278C10.75 15.2794 10.75 15.2808 10.75 15.2821C10.75 15.2835 10.75 15.2849 10.75 15.2862C10.75 15.2876 10.75 15.289 10.75 15.2904C10.75 15.2917 10.75 15.2931 10.75 15.2945C10.75 15.2958 10.75 15.2972 10.75 15.2986C10.75 15.3 10.75 15.3013 10.75 15.3027C10.75 15.3041 10.75 15.3055 10.75 15.3068C10.75 15.3082 10.75 15.3096 10.75 15.3109C10.75 15.3123 10.75 15.3137 10.75 15.3151C10.75 15.3164 10.75 15.3178 10.75 15.3192C10.75 15.3206 10.75 15.3219 10.75 15.3233C10.75 15.3247 10.75 15.3261 10.75 15.3274C10.75 15.3288 10.75 15.3302 10.75 15.3316C10.75 15.3329 10.75 15.3343 10.75 15.3357C10.75 15.3371 10.75 15.3384 10.75 15.3398C10.75 15.3412 10.75 15.3426 10.75 15.3439C10.75 15.3453 10.75 15.3467 10.75 15.3481C10.75 15.3494 10.75 15.3508 10.75 15.3522C10.75 15.3536 10.75 15.3549 10.75 15.3563C10.75 15.3577 10.75 15.3591 10.75 15.3604C10.75 15.3618 10.75 15.3632 10.75 15.3646C10.75 15.366 10.75 15.3673 10.75 15.3687C10.75 15.3701 10.75 15.3715 10.75 15.3728C10.75 15.3742 10.75 15.3756 10.75 15.377C10.75 15.3784 10.75 15.3797 10.75 15.3811C10.75 15.3825 10.75 15.3839 10.75 15.3852C10.75 15.3866 10.75 15.388 10.75 15.3894C10.75 15.3908 10.75 15.3921 10.75 15.3935C10.75 15.3949 10.75 15.3963 10.75 15.3977C10.75 15.399 10.75 15.4004 10.75 15.4018C10.75 15.4032 10.75 15.4046 10.75 15.4059C10.75 15.4073 10.75 15.4087 10.75 15.4101C10.75 15.4115 10.75 15.4128 10.75 15.4142C10.75 15.4156 10.75 15.417 10.75 15.4184C10.75 15.4197 10.75 15.4211 10.75 15.4225C10.75 15.4239 10.75 15.4253 10.75 15.4266C10.75 15.428 10.75 15.4294 10.75 15.4308C10.75 15.4322 10.75 15.4335 10.75 15.4349C10.75 15.4363 10.75 15.4377 10.75 15.4391C10.75 15.4405 10.75 15.4418 10.75 15.4432C10.75 15.4446 10.75 15.446 10.75 15.4474C10.75 15.4487 10.75 15.4501 10.75 15.4515C10.75 15.4529 10.75 15.4543 10.75 15.4557C10.75 15.457 10.75 15.4584 10.75 15.4598C10.75 15.4612 10.75 15.4626 10.75 15.464C10.75 15.4653 10.75 15.4667 10.75 15.4681C10.75 15.4695 10.75 15.4709 10.75 15.4723C10.75 15.4736 10.75 15.475 10.75 15.4764C10.75 15.4778 10.75 15.4792 10.75 15.4806C10.75 15.482 10.75 15.4833 10.75 15.4847C10.75 15.4861 10.75 15.4875 10.75 15.4889C10.75 15.4903 10.75 15.4917 10.75 15.493C10.75 15.4944 10.75 15.4958 10.75 15.4972C10.75 15.4986 10.75 15.5 10.75 15.5014C10.75 15.5027 10.75 15.5041 10.75 15.5055C10.75 15.5069 10.75 15.5083 10.75 15.5097C10.75 15.5111 10.75 15.5124 10.75 15.5138H12.25C12.25 15.5124 12.25 15.5111 12.25 15.5097C12.25 15.5083 12.25 15.5069 12.25 15.5055C12.25 15.5041 12.25 15.5027 12.25 15.5014C12.25 15.5 12.25 15.4986 12.25 15.4972C12.25 15.4958 12.25 15.4944 12.25 15.493C12.25 15.4917 12.25 15.4903 12.25 15.4889C12.25 15.4875 12.25 15.4861 12.25 15.4847C12.25 15.4833 12.25 15.482 12.25 15.4806C12.25 15.4792 12.25 15.4778 12.25 15.4764C12.25 15.475 12.25 15.4736 12.25 15.4723C12.25 15.4709 12.25 15.4695 12.25 15.4681C12.25 15.4667 12.25 15.4653 12.25 15.464C12.25 15.4626 12.25 15.4612 12.25 15.4598C12.25 15.4584 12.25 15.457 12.25 15.4557C12.25 15.4543 12.25 15.4529 12.25 15.4515C12.25 15.4501 12.25 15.4487 12.25 15.4474C12.25 15.446 12.25 15.4446 12.25 15.4432C12.25 15.4418 12.25 15.4405 12.25 15.4391C12.25 15.4377 12.25 15.4363 12.25 15.4349C12.25 15.4335 12.25 15.4322 12.25 15.4308C12.25 15.4294 12.25 15.428 12.25 15.4266C12.25 15.4253 12.25 15.4239 12.25 15.4225C12.25 15.4211 12.25 15.4197 12.25 15.4184C12.25 15.417 12.25 15.4156 12.25 15.4142C12.25 15.4128 12.25 15.4115 12.25 15.4101C12.25 15.4087 12.25 15.4073 12.25 15.4059C12.25 15.4046 12.25 15.4032 12.25 15.4018C12.25 15.4004 12.25 15.399 12.25 15.3977C12.25 15.3963 12.25 15.3949 12.25 15.3935C12.25 15.3921 12.25 15.3908 12.25 15.3894C12.25 15.388 12.25 15.3866 12.25 15.3852C12.25 15.3839 12.25 15.3825 12.25 15.3811C12.25 15.3797 12.25 15.3784 12.25 15.377C12.25 15.3756 12.25 15.3742 12.25 15.3728C12.25 15.3715 12.25 15.3701 12.25 15.3687C12.25 15.3673 12.25 15.366 12.25 15.3646C12.25 15.3632 12.25 15.3618 12.25 15.3604C12.25 15.3591 12.25 15.3577 12.25 15.3563C12.25 15.3549 12.25 15.3536 12.25 15.3522C12.25 15.3508 12.25 15.3494 12.25 15.3481C12.25 15.3467 12.25 15.3453 12.25 15.3439C12.25 15.3426 12.25 15.3412 12.25 15.3398C12.25 15.3384 12.25 15.3371 12.25 15.3357C12.25 15.3343 12.25 15.3329 12.25 15.3316C12.25 15.3302 12.25 15.3288 12.25 15.3274C12.25 15.3261 12.25 15.3247 12.25 15.3233C12.25 15.3219 12.25 15.3206 12.25 15.3192C12.25 15.3178 12.25 15.3164 12.25 15.3151C12.25 15.3137 12.25 15.3123 12.25 15.3109C12.25 15.3096 12.25 15.3082 12.25 15.3068C12.25 15.3055 12.25 15.3041 12.25 15.3027C12.25 15.3013 12.25 15.3 12.25 15.2986C12.25 15.2972 12.25 15.2958 12.25 15.2945C12.25 15.2931 12.25 15.2917 12.25 15.2904C12.25 15.289 12.25 15.2876 12.25 15.2862C12.25 15.2849 12.25 15.2835 12.25 15.2821C12.25 15.2808 12.25 15.2794 12.25 15.278C12.25 15.2766 12.25 15.2753 12.25 15.2739C12.25 15.2725 12.25 15.2712 12.25 15.2698C12.25 15.2684 12.25 15.267 12.25 15.2657C12.25 15.2643 12.25 15.2629 12.25 15.2616C12.25 15.2602 12.25 15.2588 12.25 15.2575C12.25 15.2561 12.25 15.2547 12.25 15.2533C12.25 15.252 12.25 15.2506 12.25 15.2492C12.25 15.2479 12.25 15.2465 12.25 15.2451C12.25 15.2438 12.25 15.2424 12.25 15.241C12.25 15.2397 12.25 15.2383 12.25 15.2369C12.25 15.2356 12.25 15.2342 12.25 15.2328C12.25 15.2315 12.25 15.2301 12.25 15.2287C12.25 15.2273 12.25 15.226 12.25 15.2246C12.25 15.2232 12.25 15.2219 12.25 15.2205C12.25 15.2191 12.25 15.2178 12.25 15.2164C12.25 15.215 12.25 15.2137 12.25 15.2123C12.25 15.2109 12.25 15.2096 12.25 15.2082C12.25 15.2068 12.25 15.2055 12.25 15.2041C12.25 15.2027 12.25 15.2014 12.25 15.2C12.25 15.1987 12.25 15.1973 12.25 15.1959C12.25 15.1946 12.25 15.1932 12.25 15.1918C12.25 15.1905 12.25 15.1891 12.25 15.1877C12.25 15.1864 12.25 15.185 12.25 15.1836C12.25 15.1823 12.25 15.1809 12.25 15.1795C12.25 15.1782 12.25 15.1768 12.25 15.1755C12.25 15.1741 12.25 15.1727 12.25 15.1714C12.25 15.17 12.25 15.1686 12.25 15.1673C12.25 15.1659 12.25 15.1645 12.25 15.1632C12.25 15.1618 12.25 15.1605 12.25 15.1591C12.25 15.1577 12.25 15.1564 12.25 15.155C12.25 15.1536 12.25 15.1523 12.25 15.1509C12.25 15.1496 12.25 15.1482 12.25 15.1468C12.25 15.1455 12.25 15.1441 12.25 15.1428C12.25 15.1414 12.25 15.14 12.25 15.1387C12.25 15.1373 12.25 15.1359 12.25 15.1346C12.25 15.1332 12.25 15.1319 12.25 15.1305C12.25 15.1291 12.25 15.1278 12.25 15.1264C12.25 15.1251 12.25 15.1237 12.25 15.1223C12.25 15.121 12.25 15.1196 12.25 15.1183C12.25 15.1169 12.25 15.1155 12.25 15.1142C12.25 15.1128 12.25 15.1115 12.25 15.1101C12.25 15.1088 12.25 15.1074 12.25 15.106C12.25 15.1047 12.25 15.1033 12.25 15.102C12.25 15.1006 12.25 15.0992 12.25 15.0979C12.25 15.0965 12.25 15.0952 12.25 15.0938C12.25 15.0925 12.25 15.0911 12.25 15.0897C12.25 15.0884 12.25 15.087 12.25 15.0857C12.25 15.0843 12.25 15.083 12.25 15.0816C12.25 15.0802 12.25 15.0789 12.25 15.0775C12.25 15.0762 12.25 15.0748 12.25 15.0735C12.25 15.0721 12.25 15.0707 12.25 15.0694C12.25 15.068 12.25 15.0667 12.25 15.0653C12.25 15.064 12.25 15.0626 12.25 15.0613C12.25 15.0599 12.25 15.0585 12.25 15.0572C12.25 15.0558 12.25 15.0545 12.25 15.0531C12.25 15.0518 12.25 15.0504 12.25 15.0491C12.25 15.0477 12.25 15.0464 12.25 15.045C12.25 15.0437 12.25 15.0423 12.25 15.0409C12.25 15.0396 12.25 15.0382 12.25 15.0369C12.25 15.0355 12.25 15.0342 12.25 15.0328C12.25 15.0315 12.25 15.0301 12.25 15.0288C12.25 15.0274 12.25 15.0261 12.25 15.0247C12.25 15.0234 12.25 15.022 12.25 15.0207C12.25 15.0193 12.25 15.0179 12.25 15.0166C12.25 15.0152 12.25 15.0139 12.25 15.0125C12.25 15.0112 12.25 15.0098 12.25 15.0085C12.25 15.0071 12.25 15.0058 12.25 15.0044C12.25 15.0031 12.25 15.0017 12.25 15.0004C12.25 14.999 12.25 14.9977 12.25 14.9963C12.25 14.995 12.25 14.9936 12.25 14.9923C12.25 14.9909 12.25 14.9896 12.25 14.9882C12.25 14.9869 12.25 14.9855 12.25 14.9842C12.25 14.9828 12.25 14.9815 12.25 14.9801C12.25 14.9788 12.25 14.9774 12.25 14.9761C12.25 14.9747 12.25 14.9734 12.25 14.972C12.25 14.9707 12.25 14.9693 12.25 14.968C12.25 14.9667 12.25 14.9653 12.25 14.964C12.25 14.9626 12.25 14.9613 12.25 14.9599C12.25 14.9586 12.25 14.9572 12.25 14.9559C12.25 14.9545 12.25 14.9532 12.25 14.9518C12.25 14.9505 12.25 14.9491 12.25 14.9478C12.25 14.9464 12.25 14.9451 12.25 14.9438C12.25 14.9424 12.25 14.9411 12.25 14.9397C12.25 14.9384 12.25 14.937 12.25 14.9357C12.25 14.9343 12.25 14.933 12.25 14.9316C12.25 14.9303 12.25 14.929 12.25 14.9276C12.25 14.9263 12.25 14.9249 12.25 14.9236C12.25 14.9222 12.25 14.9209 12.25 14.9195C12.25 14.9182 12.25 14.9169 12.25 14.9155C12.25 14.9142 12.25 14.9128 12.25 14.9115C12.25 14.9101 12.25 14.9088 12.25 14.9075C12.25 14.9061 12.25 14.9048 12.25 14.9034C12.25 14.9021 12.25 14.9007 12.25 14.8994C12.25 14.8981 12.25 14.8967 12.25 14.8954C12.25 14.894 12.25 14.8927 12.25 14.8913C12.25 14.89 12.25 14.8887 12.25 14.8873C12.25 14.886 12.25 14.8846 12.25 14.8833C12.25 14.882 12.25 14.8806 12.25 14.8793C12.25 14.8779 12.25 14.8766 12.25 14.8753C12.25 14.8739 12.25 14.8726 12.25 14.8712C12.25 14.8699 12.25 14.8686 12.25 14.8672C12.25 14.8659 12.25 14.8645 12.25 14.8632C12.25 14.8619 12.25 14.8605 12.25 14.8592C12.25 14.8578 12.25 14.8565 12.25 14.8552C12.25 14.8538 12.25 14.8525 12.25 14.8511C12.25 14.8498 12.25 14.8485 12.25 14.8471C12.25 14.8458 12.25 14.8445 12.25 14.8431C12.25 14.8418 12.25 14.8404 12.25 14.8391C12.25 14.8378 12.25 14.8364 12.25 14.8351C12.25 14.8338 12.25 14.8324 12.25 14.8311C12.25 14.8297 12.25 14.8284 12.25 14.8271C12.25 14.8257 12.25 14.8244 12.25 14.8231C12.25 14.8217 12.25 14.8204 12.25 14.8191C12.25 14.8177 12.25 14.8164 12.25 14.8151C12.25 14.8137 12.25 14.8124 12.25 14.811C12.25 14.8097 12.25 14.8084 12.25 14.807C12.25 14.8057 12.25 14.8044 12.25 14.803C12.25 14.8017 12.25 14.8004 12.25 14.799C12.25 14.7977 12.25 14.7964 12.25 14.795C12.25 14.7937 12.25 14.7924 12.25 14.791C12.25 14.7897 12.25 14.7884 12.25 14.787C12.25 14.7857 12.25 14.7844 12.25 14.783C12.25 14.7817 12.25 14.7804 12.25 14.779C12.25 14.7777 12.25 14.7764 12.25 14.775C12.25 14.7737 12.25 14.7724 12.25 14.771C12.25 14.7697 12.25 14.7684 12.25 14.767C12.25 14.7657 12.25 14.7644 12.25 14.7631C12.25 14.7617 12.25 14.7604 12.25 14.7591C12.25 14.7577 12.25 14.7564 12.25 14.7551C12.25 14.7537 12.25 14.7524 12.25 14.7511C12.25 14.7498 12.25 14.7484 12.25 14.7471C12.25 14.7458 12.25 14.7444 12.25 14.7431C12.25 14.7418 12.25 14.7404 12.25 14.7391C12.25 14.7378 12.25 14.7365 12.25 14.7351C12.25 14.7338 12.25 14.7325 12.25 14.7311C12.25 14.7298 12.25 14.7285 12.25 14.7272C12.25 14.7258 12.25 14.7245 12.25 14.7232C12.25 14.7219 12.25 14.7205 12.25 14.7192C12.25 14.7179 12.25 14.7165 12.25 14.7152C12.25 14.7139 12.25 14.7126 12.25 14.7112C12.25 14.7099 12.25 14.7086 12.25 14.7073C12.25 14.7059 12.25 14.7046 12.25 14.7033C12.25 14.702 12.25 14.7006 12.25 14.6993C12.25 14.698 12.25 14.6967 12.25 14.6953C12.25 14.694 12.25 14.6927 12.25 14.6914C12.25 14.69 12.25 14.6887 12.25 14.6874C12.25 14.6861 12.25 14.6847 12.25 14.6834C12.25 14.6821 12.25 14.6808 12.25 14.6794C12.25 14.6781 12.25 14.6768 12.25 14.6755C12.25 14.6741 12.25 14.6728 12.25 14.6715C12.25 14.6702 12.25 14.6689 12.25 14.6675C12.25 14.6662 12.25 14.6649 12.25 14.6636C12.25 14.6622 12.25 14.6609 12.25 14.6596C12.25 14.6583 12.25 14.657 12.25 14.6556C12.25 14.6543 12.25 14.653 12.25 14.6517C12.25 14.6503 12.25 14.649 12.25 14.6477C12.25 14.6464 12.25 14.6451 12.25 14.6437C12.25 14.6424 12.25 14.6411 12.25 14.6398C12.25 14.6385 12.25 14.6371 12.25 14.6358C12.25 14.6345 12.25 14.6332 12.25 14.6319C12.25 14.6305 12.25 14.6292 12.25 14.6279C12.25 14.6266 12.25 14.6253 12.25 14.624C12.25 14.6226 12.25 14.6213 12.25 14.62C12.25 14.6187 12.25 14.6174 12.25 14.616C12.25 14.6147 12.25 14.6134 12.25 14.6121C12.25 14.6108 12.25 14.6095 12.25 14.6081C12.25 14.6068 12.25 14.6055 12.25 14.6042C12.25 14.6029 12.25 14.6016 12.25 14.6002C12.25 14.5989 12.25 14.5976 12.25 14.5963C12.25 14.595 12.25 14.5937 12.25 14.5923C12.25 14.591 12.25 14.5897 12.25 14.5884C12.25 14.5871 12.25 14.5858 12.25 14.5844C12.25 14.5831 12.25 14.5818 12.25 14.5805C12.25 14.5792 12.25 14.5779 12.25 14.5766C12.25 14.5752 12.25 14.5739 12.25 14.5726C12.25 14.5713 12.25 14.57 12.25 14.5687C12.25 14.5674 12.25 14.566 12.25 14.5647C12.25 14.5634 12.25 14.5621 12.25 14.5608C12.25 14.5595 12.25 14.5582 12.25 14.5569C12.25 14.5555 12.25 14.5542 12.25 14.5529C12.25 14.5516 12.25 14.5503 12.25 14.549C12.25 14.5477 12.25 14.5464 12.25 14.545C12.25 14.5437 12.25 14.5424 12.25 14.5411C12.25 14.5398 12.25 14.5385 12.25 14.5372C12.25 14.5359 12.25 14.5346 12.25 14.5333C12.25 14.5319 12.25 14.5306 12.25 14.5293C12.25 14.528 12.25 14.5267 12.25 14.5254C12.25 14.5241 12.25 14.5228 12.25 14.5215C12.25 14.5202 12.25 14.5188 12.25 14.5175C12.25 14.5162 12.25 14.5149 12.25 14.5136C12.25 14.5123 12.25 14.511 12.25 14.5097C12.25 14.5084 12.25 14.5071 12.25 14.5058C12.25 14.5045 12.25 14.5031 12.25 14.5018C12.25 14.5005 12.25 14.4992 12.25 14.4979C12.25 14.4966 12.25 14.4953 12.25 14.494C12.25 14.4927 12.25 14.4914 12.25 14.4901C12.25 14.4888 12.25 14.4875 12.25 14.4862C12.25 14.4849 12.25 14.4836 12.25 14.4822C12.25 14.4809 12.25 14.4796 12.25 14.4783C12.25 14.477 12.25 14.4757 12.25 14.4744C12.25 14.4731 12.25 14.4718 12.25 14.4705C12.25 14.4692 12.25 14.4679 12.25 14.4666C12.25 14.4653 12.25 14.464 12.25 14.4627C12.25 14.4614 12.25 14.4601 12.25 14.4588C12.25 14.4575 12.25 14.4562 12.25 14.4549C12.25 14.4536 12.25 14.4523 12.25 14.451C12.25 14.4496 12.25 14.4483 12.25 14.447C12.25 14.4457 12.25 14.4444 12.25 14.4431C12.25 14.4418 12.25 14.4405 12.25 14.4392C12.25 14.4379 12.25 14.4366 12.25 14.4353C12.25 14.434 12.25 14.4327 12.25 14.4314C12.25 14.4301 12.25 14.4288 12.25 14.4275C12.25 14.4262 12.25 14.4249 12.25 14.4236C12.25 14.4223 12.25 14.421 12.25 14.4197C12.25 14.4184 12.25 14.4171 12.25 14.4158C12.25 14.4145 12.25 14.4132 12.25 14.4119C12.25 14.4106 12.25 14.4093 12.25 14.408C12.25 14.4067 12.25 14.4054 12.25 14.4041C12.25 14.4028 12.25 14.4016 12.25 14.4003C12.25 14.399 12.25 14.3977 12.25 14.3964C12.25 14.3951 12.25 14.3938 12.25 14.3925C12.25 14.3912 12.25 14.3899 12.25 14.3886C12.25 14.3873 12.25 14.386 12.25 14.3847C12.25 14.3834 12.25 14.3821 12.25 14.3808C12.25 14.3795 12.25 14.3782 12.25 14.3769C12.25 14.3756 12.25 14.3743 12.25 14.373C12.25 14.3717 12.25 14.3704 12.25 14.3692C12.25 14.3679 12.25 14.3666 12.25 14.3653C12.25 14.364 12.25 14.3627 12.25 14.3614C12.25 14.3601 12.25 14.3588 12.25 14.3575C12.25 14.3562 12.25 14.3549 12.25 14.3536C12.25 14.3523 12.25 14.351 12.25 14.3497C12.25 14.3485 12.25 14.3472 12.25 14.3459C12.25 14.3446 12.25 14.3433 12.25 14.342C12.25 14.3407 12.25 14.3394 12.25 14.3381C12.25 14.3368 12.25 14.3355 12.25 14.3342C12.25 14.333 12.25 14.3317 12.25 14.3304C12.25 14.3291 12.25 14.3278 12.25 14.3265C12.25 14.3252 12.25 14.3239 12.25 14.3226C12.25 14.3213 12.25 14.3201 12.25 14.3188C12.25 14.3175 12.25 14.3162 12.25 14.3149C12.25 14.3136 12.25 14.3123 12.25 14.311C12.25 14.3097 12.25 14.3085 12.25 14.3072C12.25 14.3059 12.25 14.3046 12.25 14.3033C12.25 14.302 12.25 14.3007 12.25 14.2994C12.25 14.2982 12.25 14.2969 12.25 14.2956C12.25 14.2943 12.25 14.293 12.25 14.2917C12.25 14.2904 12.25 14.2891 12.25 14.2879C12.25 14.2866 12.25 14.2853 12.25 14.284C12.25 14.2827 12.25 14.2814 12.25 14.2801C12.25 14.2789 12.25 14.2776 12.25 14.2763C12.25 14.275 12.25 14.2737 12.25 14.2724C12.25 14.2712 12.25 14.2699 12.25 14.2686C12.25 14.2673 12.25 14.266 12.25 14.2647C12.25 14.2635 12.25 14.2622 12.25 14.2609C12.25 14.2596 12.25 14.2583 12.25 14.257C12.25 14.2558 12.25 14.2545 12.25 14.2532C12.25 14.2519 12.25 14.2506 12.25 14.2493C12.25 14.2481 12.25 14.2468 12.25 14.2455C12.25 14.2442 12.25 14.2429 12.25 14.2416C12.25 14.2404 12.25 14.2391 12.25 14.2378C12.25 14.2365 12.25 14.2352 12.25 14.234C12.25 14.2327 12.25 14.2314 12.25 14.2301C12.25 14.2288 12.25 14.2276 12.25 14.2263C12.25 14.225 12.25 14.2237 12.25 14.2224C12.25 14.2212 12.25 14.2199 12.25 14.2186C12.25 14.2173 12.25 14.216 12.25 14.2148C12.25 14.2135 12.25 14.2122 12.25 14.2109C12.25 14.2097 12.25 14.2084 12.25 14.2071C12.25 14.2058 12.25 14.2045 12.25 14.2033C12.25 14.202 12.25 14.2007 12.25 14.1994C12.25 14.1982 12.25 14.1969 12.25 14.1956C12.25 14.1943 12.25 14.1931 12.25 14.1918C12.25 14.1905 12.25 14.1892 12.25 14.1879C12.25 14.1867 12.25 14.1854 12.25 14.1841C12.25 14.1828 12.25 14.1816 12.25 14.1803C12.25 14.179 12.25 14.1777 12.25 14.1765C12.25 14.1752 12.25 14.1739 12.25 14.1727C12.25 14.1714 12.25 14.1701 12.25 14.1688C12.25 14.1676 12.25 14.1663 12.25 14.165C12.25 14.1637 12.25 14.1625 12.25 14.1612C12.25 14.1599 12.25 14.1586 12.25 14.1574C12.25 14.1561 12.25 14.1548 12.25 14.1536C12.25 14.1523 12.25 14.151 12.25 14.1497C12.25 14.1485 12.25 14.1472 12.25 14.1459C12.25 14.1447 12.25 14.1434 12.25 14.1421C12.25 14.1408 12.25 14.1396 12.25 14.1383C12.25 14.137 12.25 14.1358 12.25 14.1345C12.25 14.1332 12.25 14.132 12.25 14.1307C12.25 14.1294 12.25 14.1281 12.25 14.1269C12.25 14.1256 12.25 14.1243 12.25 14.1231C12.25 14.1218 12.25 14.1205 12.25 14.1193C12.25 14.118 12.25 14.1167 12.25 14.1155C12.25 14.1142 12.25 14.1129 12.25 14.1117C12.25 14.1104 12.25 14.1091 12.25 14.1079C12.25 14.1066 12.25 14.1053 12.25 14.1041C12.25 14.1028 12.25 14.1015 12.25 14.1003C12.25 14.099 12.25 14.0977 12.25 14.0965C12.25 14.0952 12.25 14.0939 12.25 14.0927C12.25 14.0914 12.25 14.0901 12.25 14.0889C12.25 14.0876 12.25 14.0863 12.25 14.0851C12.25 14.0838 12.25 14.0825 12.25 14.0813C12.25 14.08 12.25 14.0787 12.25 14.0775C12.25 14.0762 12.25 14.075 12.25 14.0737C12.25 14.0724 12.25 14.0712 12.25 14.0699C12.25 14.0686 12.25 14.0674 12.25 14.0661C12.25 14.0649 12.25 14.0636 12.25 14.0623C12.25 14.0611 12.25 14.0598 12.25 14.0585C12.25 14.0573 12.25 14.056 12.25 14.0548C12.25 14.0535 12.25 14.0522 12.25 14.051C12.25 14.0497 12.25 14.0485 12.25 14.0472C12.25 14.0459 12.25 14.0447 12.25 14.0434C12.25 14.0422 12.25 14.0409 12.25 14.0396C12.25 14.0384 12.25 14.0371 12.25 14.0359C12.25 14.0346 12.25 14.0333 12.25 14.0321C12.25 14.0308 12.25 14.0296 12.25 14.0283C12.25 14.027 12.25 14.0258 12.25 14.0245C12.25 14.0233 12.25 14.022 12.25 14.0208C12.25 14.0195 12.25 14.0182 12.25 14.017C12.25 14.0157 12.25 14.0145 12.25 14.0132C12.25 14.012 12.25 14.0107 12.25 14.0094C12.25 14.0082 12.25 14.0069 12.25 14.0057C12.25 14.0044 12.25 14.0032 12.25 14.0019C12.25 14.0007 12.25 13.9994 12.25 13.9982C12.25 13.9969 12.25 13.9956 12.25 13.9944C12.25 13.9931 12.25 13.9919 12.25 13.9906C12.25 13.9894 12.25 13.9881 12.25 13.9869C12.25 13.9856 12.25 13.9844 12.25 13.9831C12.25 13.9819 12.25 13.9806 12.25 13.9793C12.25 13.9781 12.25 13.9768 12.25 13.9756C12.25 13.9743 12.25 13.9731 12.25 13.9718C12.25 13.9706 12.25 13.9693 12.25 13.9681C12.25 13.9668 12.25 13.9656 12.25 13.9643C12.25 13.9631 12.25 13.9618 12.25 13.9606C12.25 13.9593 12.25 13.9581 12.25 13.9568C12.25 13.9556 12.25 13.9543 12.25 13.9531C12.25 13.9518 12.25 13.9506 12.25 13.9493C12.25 13.9481 12.25 13.9468 12.25 13.9456C12.25 13.9443 12.25 13.9431 12.25 13.9418C12.25 13.9406 12.25 13.9393 12.25 13.9381C12.25 13.9368 12.25 13.9356 12.25 13.9343C12.25 13.9331 12.25 13.9319 12.25 13.9306C12.25 13.9294 12.25 13.9281 12.25 13.9269C12.25 13.9256 12.25 13.9244 12.25 13.9231C12.25 13.9219 12.25 13.9206 12.25 13.9194C12.25 13.9181 12.25 13.9169 12.25 13.9157C12.25 13.9144 12.25 13.9132 12.25 13.9119C12.25 13.9107 12.25 13.9094 12.25 13.9082C12.25 13.9069 12.25 13.9057 12.25 13.9045C12.25 13.9032 12.25 13.902 12.25 13.9007C12.25 13.8995 12.25 13.8982 12.25 13.897C12.25 13.8957 12.25 13.8945 12.25 13.8933C12.25 13.892 12.25 13.8908 12.25 13.8895C12.25 13.8883 12.25 13.8871 12.25 13.8858C12.25 13.8846 12.25 13.8833 12.25 13.8821C12.25 13.8808 12.25 13.8796 12.25 13.8784C12.25 13.8771 12.25 13.8759 12.25 13.8746C12.25 13.8734 12.25 13.8722 12.25 13.8709C12.25 13.8697 12.25 13.8684 12.25 13.8672C12.25 13.866 12.25 13.8647 12.25 13.8635C12.25 13.8622 12.25 13.861 12.25 13.8598C12.25 13.8585 12.25 13.8573 12.25 13.8561C12.25 13.8548 12.25 13.8536 12.25 13.8523C12.25 13.8511 12.25 13.8499 12.25 13.8486C12.25 13.8474 12.25 13.8462 12.25 13.8449C12.25 13.8437 12.25 13.8424 12.25 13.8412C12.25 13.84 12.25 13.8387 12.25 13.8375C12.25 13.8363 12.25 13.835 12.25 13.8338C12.25 13.8326 12.25 13.8313 12.25 13.8301C12.25 13.8288 12.25 13.8276 12.25 13.8264C12.25 13.8251 12.25 13.8239 12.25 13.8227C12.25 13.8214 12.25 13.8202 12.25 13.819C12.25 13.8177 12.25 13.8165 12.25 13.8153C12.25 13.814 12.25 13.8128 12.25 13.8116C12.25 13.8103 12.25 13.8091 12.25 13.8079C12.25 13.8066 12.25 13.8054 12.25 13.8042C12.25 13.8029 12.25 13.8017 12.25 13.8005C12.25 13.7993 12.25 13.798 12.25 13.7968C12.25 13.7956 12.25 13.7943 12.25 13.7931C12.25 13.7919 12.25 13.7906 12.25 13.7894C12.25 13.7882 12.25 13.787 12.25 13.7857C12.25 13.7845 12.25 13.7833 12.25 13.782C12.25 13.7808 12.25 13.7796 12.25 13.7783C12.25 13.7771 12.25 13.7759 12.25 13.7747C12.25 13.7734 12.25 13.7722 12.25 13.771C12.25 13.7697 12.25 13.7685 12.25 13.7673C12.25 13.7661 12.25 13.7648 12.25 13.7636C12.25 13.7624 12.25 13.7612 12.25 13.7599C12.25 13.7587 12.25 13.7575 12.25 13.7563C12.25 13.755 12.25 13.7538 12.25 13.7526C12.25 13.7514 12.25 13.7501 12.25 13.7489C12.25 13.7477 12.25 13.7465 12.25 13.7452C12.25 13.744 12.25 13.7428 12.25 13.7416C12.25 13.7403 12.25 13.7391 12.25 13.7379C12.25 13.7367 12.25 13.7354 12.25 13.7342C12.25 13.733 12.25 13.7318 12.25 13.7305C12.25 13.7293 12.25 13.7281 12.25 13.7269C12.25 13.7257 12.25 13.7244 12.25 13.7232C12.25 13.722 12.25 13.7208 12.25 13.7195C12.25 13.7183 12.25 13.7171 12.25 13.7159C12.25 13.7147 12.25 13.7134 12.25 13.7122C12.25 13.711 12.25 13.7098 12.25 13.7086C12.25 13.7073 12.25 13.7061 12.25 13.7049C12.25 13.7037 12.25 13.7025 12.25 13.7012C12.25 13.7 12.25 13.6988 12.25 13.6976C12.25 13.6964 12.25 13.6952 12.25 13.6939C12.25 13.6927 12.25 13.6915 12.25 13.6903C12.25 13.6891 12.25 13.6878 12.25 13.6866C12.25 13.6854 12.25 13.6842 12.25 13.683C12.25 13.6818 12.25 13.6805 12.25 13.6793C12.25 13.6781 12.25 13.6769 12.25 13.6757C12.25 13.6745 12.25 13.6732 12.25 13.672C12.25 13.6708 12.25 13.6696 12.25 13.6684C12.25 13.6672 12.25 13.666 12.25 13.6647C12.25 13.6635 12.25 13.6623 12.25 13.6611C12.25 13.6599 12.25 13.6587 12.25 13.6575C12.25 13.6562 12.25 13.655 12.25 13.6538C12.25 13.6526 12.25 13.6514 12.25 13.6502C12.25 13.649 12.25 13.6478 12.25 13.6465C12.25 13.6453 12.25 13.6441 12.25 13.6429C12.25 13.6417 12.25 13.6405 12.25 13.6393C12.25 13.6381 12.25 13.6369 12.25 13.6356C12.25 13.6344 12.25 13.6332 12.25 13.632C12.25 13.6308 12.25 13.6296 12.25 13.6284C12.25 13.6272 12.25 13.626 12.25 13.6248C12.25 13.6235 12.25 13.6223 12.25 13.6211C12.25 13.6199 12.25 13.6187 12.25 13.6175C12.25 13.6163 12.25 13.6151 12.25 13.6139C12.25 13.6127 12.25 13.6115 12.25 13.6103C12.25 13.6091 12.25 13.6078 12.25 13.6066C12.25 13.6054 12.25 13.6042 12.25 13.603C12.25 13.6018 12.25 13.6006 12.25 13.5994C12.25 13.5982 12.25 13.597 12.25 13.5958C12.25 13.5946 12.25 13.5934 12.25 13.5922C12.25 13.591 12.25 13.5898 12.25 13.5886C12.25 13.5873 12.25 13.5861 12.25 13.5849C12.25 13.5837 12.25 13.5825 12.25 13.5813C12.25 13.5801 12.25 13.5789 12.25 13.5777C12.25 13.5765 12.25 13.5753 12.25 13.5741C12.25 13.5729 12.25 13.5717 12.25 13.5705C12.25 13.5693 12.25 13.5681 12.25 13.5669C12.25 13.5657 12.25 13.5645 12.25 13.5633C12.25 13.5621 12.25 13.5609 12.25 13.5597C12.25 13.5585 12.25 13.5573 12.25 13.5561C12.25 13.5549 12.25 13.5537 12.25 13.5525C12.25 13.5513 12.25 13.5501 12.25 13.5489C12.25 13.5477 12.25 13.5465 12.25 13.5453C12.25 13.5441 12.25 13.5429 12.25 13.5417C12.25 13.5405 12.25 13.5393 12.25 13.5381C12.25 13.5369 12.25 13.5357 12.25 13.5345C12.25 13.5333 12.25 13.5321 12.25 13.5309C12.25 13.5297 12.25 13.5285 12.25 13.5273C12.25 13.5261 12.25 13.5249 12.25 13.5237C12.25 13.5226 12.25 13.5214 12.25 13.5202C12.25 13.519 12.25 13.5178 12.25 13.5166H10.75ZM8.5 11.2671C9.74281 11.2671 10.75 12.2741 10.75 13.5166H12.25C12.25 11.4453 10.5709 9.76709 8.5 9.76709V11.2671ZM2.25 13.5166C2.25 12.2741 3.25719 11.2671 4.5 11.2671V9.76709C2.4291 9.76709 0.75 11.4453 0.75 13.5166H2.25ZM14.75 14.0229V15.5229H16.25V14.0229H14.75ZM15.5 14.7729H13V16.2729H15.5V14.7729ZM13 12.2729C13.9665 12.2729 14.75 13.0565 14.75 14.0229H16.25C16.25 12.228 14.7949 10.7729 13 10.7729V12.2729ZM12.5 8.77295C11.8096 8.77295 11.25 8.2133 11.25 7.52295H9.75C9.75 9.04173 10.9812 10.2729 12.5 10.2729V8.77295ZM13.75 7.52295C13.75 8.2133 13.1904 8.77295 12.5 8.77295V10.2729C14.0188 10.2729 15.25 9.04173 15.25 7.52295H13.75ZM12.5 6.27295C13.1904 6.27295 13.75 6.83259 13.75 7.52295H15.25C15.25 6.00417 14.0188 4.77295 12.5 4.77295V6.27295ZM12.5 4.77295C10.9812 4.77295 9.75 6.00417 9.75 7.52295H11.25C11.25 6.83259 11.8096 6.27295 12.5 6.27295V4.77295Z" fill="#444242"/>
</svg>
