<svg width="86" height="87" viewBox="0 0 86 87" fill="none" xmlns="http://www.w3.org/2000/svg">
<g filter="url(#filter0_d)">
<circle cx="43" cy="43.0229" r="23" fill="#444242"/>
</g>
<path d="M36.375 49.6479V50.3979H37.875V49.6479H36.375ZM42.625 49.6479V50.3979H44.125V49.6479H42.625ZM37.875 49.6479V49.0228H36.375V49.6479H37.875ZM42.625 49.0225V49.6479H44.125V49.0225H42.625ZM40.25 46.6479C41.5618 46.6479 42.625 47.711 42.625 49.0225H44.125C44.125 46.8823 42.39 45.1479 40.25 45.1479V46.6479ZM37.875 49.0228C37.875 47.7112 38.9383 46.6479 40.25 46.6479V45.1479C38.1099 45.1479 36.375 46.8827 36.375 49.0228H37.875ZM40.25 38.8979C38.8003 38.8979 37.625 40.0732 37.625 41.5229H39.125C39.125 40.9016 39.6287 40.3979 40.25 40.3979V38.8979ZM42.875 41.5229C42.875 40.0732 41.6997 38.8979 40.25 38.8979V40.3979C40.8713 40.3979 41.375 40.9016 41.375 41.5229H42.875ZM40.25 44.1479C41.6997 44.1479 42.875 42.9727 42.875 41.5229H41.375C41.375 42.1443 40.8713 42.6479 40.25 42.6479V44.1479ZM40.25 42.6479C39.6287 42.6479 39.125 42.1443 39.125 41.5229H37.625C37.625 42.9727 38.8003 44.1479 40.25 44.1479V42.6479ZM35.875 37.8979H50.875V36.3979H35.875V37.8979ZM51.375 38.3979V48.3979H52.875V38.3979H51.375ZM50.875 48.8979H35.875V50.3979H50.875V48.8979ZM35.375 48.3979V38.3979H33.875V48.3979H35.375ZM35.875 48.8979C35.5989 48.8979 35.375 48.6741 35.375 48.3979H33.875C33.875 49.5025 34.7704 50.3979 35.875 50.3979V48.8979ZM51.375 48.3979C51.375 48.6741 51.1511 48.8979 50.875 48.8979V50.3979C51.9796 50.3979 52.875 49.5025 52.875 48.3979H51.375ZM50.875 37.8979C51.1511 37.8979 51.375 38.1218 51.375 38.3979H52.875C52.875 37.2934 51.9796 36.3979 50.875 36.3979V37.8979ZM35.875 36.3979C34.7704 36.3979 33.875 37.2934 33.875 38.3979H35.375C35.375 38.1218 35.5989 37.8979 35.875 37.8979V36.3979ZM45.25 41.6479H49V40.1479H45.25V41.6479ZM45.25 45.3979H49V43.8979H45.25V45.3979ZM34 52.8979H52.75V51.3979H34V52.8979ZM37.625 34.0229V37.1479H39.125V34.0229H37.625ZM47.625 34.0229V37.1479H49.125V34.0229H47.625Z" fill="white"/>
<defs>
<filter id="filter0_d" x="0" y="0.0229492" width="86" height="86" filterUnits="userSpaceOnUse" color-interpolation-filters="sRGB">
<feFlood flood-opacity="0" result="BackgroundImageFix"/>
<feColorMatrix in="SourceAlpha" type="matrix" values="0 0 0 0 0 0 0 0 0 0 0 0 0 0 0 0 0 0 127 0"/>
<feOffset/>
<feGaussianBlur stdDeviation="10"/>
<feColorMatrix type="matrix" values="0 0 0 0 0.133333 0 0 0 0 0.133333 0 0 0 0 0.133333 0 0 0 0.15 0"/>
<feBlend mode="normal" in2="BackgroundImageFix" result="effect1_dropShadow"/>
<feBlend mode="normal" in="SourceGraphic" in2="effect1_dropShadow" result="shape"/>
</filter>
</defs>
</svg>
