<svg width="50" height="50" viewBox="0 0 50 50" fill="none" xmlns="http://www.w3.org/2000/svg">
<circle cx="25" cy="25" r="25" fill="#444242"/>
<path d="M22.149 16.875H19.375C17.9943 16.875 16.875 17.9943 16.875 19.375V21.875C16.875 28.7786 22.4714 34.375 29.375 34.375H31.875C33.2557 34.375 34.375 33.2557 34.375 31.875V30.1475C34.375 29.6741 34.1075 29.2412 33.684 29.0295L30.6641 27.5196C29.9837 27.1794 29.1598 27.5207 28.9192 28.2423L28.547 29.3589C28.3059 30.0822 27.564 30.5128 26.8164 30.3633C23.8241 29.7648 21.4852 27.4259 20.8867 24.4336C20.7372 23.686 21.1678 22.9441 21.8911 22.703L23.2769 22.241C23.8965 22.0345 24.2527 21.3857 24.0943 20.752L23.3617 17.8218C23.2226 17.2654 22.7226 16.875 22.149 16.875Z" stroke="white" stroke-width="1.5"/>
</svg>
