<svg width="312" height="278" viewBox="0 0 312 278" fill="none" xmlns="http://www.w3.org/2000/svg">
<path opacity="0.5" d="M268.587 31.6119L268.587 31.612C271.139 33.0026 272.035 34.7226 272.309 36.0731C272.447 36.7538 272.429 37.3494 272.377 37.7739C272.351 37.9848 272.316 38.1527 272.289 38.2669H153.012C153.364 38.0184 153.841 37.6819 154.396 37.2938C155.585 36.4613 157.13 35.3918 158.553 34.442C159.896 33.5453 161.716 33.5315 163.552 33.7685C164.291 33.8638 165.018 33.9975 165.709 34.1243C165.872 34.1543 166.033 34.1839 166.192 34.2125C167.013 34.3606 167.777 34.4841 168.396 34.4841C169.692 34.4841 170.358 33.6936 171.265 32.6162C171.282 32.5957 171.299 32.575 171.317 32.5543C172.261 31.4331 173.549 29.9113 176.133 28.2677C178.649 26.6666 181.29 27.1095 183.896 27.8776C184.382 28.0208 184.871 28.1768 185.358 28.3319C186.158 28.5872 186.952 28.8403 187.712 29.0302C188.944 29.3377 190.148 29.4974 191.273 29.2481C192.422 28.9935 193.129 28.3459 193.618 27.4831C194.076 26.6745 194.347 25.6663 194.626 24.6263C194.639 24.5791 194.652 24.5318 194.664 24.4844C195.258 22.2799 195.952 19.8763 198.477 18.2859C199.753 17.4822 200.779 17.2062 201.679 17.1797C202.586 17.1529 203.382 17.3779 204.218 17.6148L204.223 17.6164C205.05 17.8506 205.916 18.0961 206.909 18.0625C207.911 18.0286 209.024 17.7123 210.363 16.8604C211.753 15.9758 212.426 14.4082 212.974 12.6535C213.128 12.1613 213.272 11.6539 213.419 11.1375C213.803 9.78513 214.205 8.37123 214.841 7.00969C215.712 5.14436 217.014 3.40767 219.288 2.16148C221.567 0.912219 224.846 0.143274 229.693 0.262041C239.377 0.499339 244.414 3.91916 247.035 7.23996C248.349 8.90504 249.064 10.555 249.451 11.7874C249.644 12.4034 249.754 12.9146 249.817 13.2701C249.848 13.4478 249.867 13.5865 249.878 13.6799C249.884 13.7266 249.887 13.7619 249.89 13.7851L249.892 13.8107L249.892 13.8165L249.892 13.8175L249.892 13.8176L249.892 13.8177L249.903 13.9689L250.043 14.0292C257.15 17.1015 258.839 20.1319 259.068 22.6139C259.171 23.7262 258.984 24.7483 258.815 25.6754C258.792 25.8032 258.769 25.9292 258.747 26.0533C258.658 26.5584 258.586 27.0425 258.602 27.4805C258.619 27.9235 258.725 28.3383 259.006 28.6906C259.516 29.3276 260.066 29.6545 260.688 29.8245C261.249 29.9777 261.866 30.0018 262.534 30.0278C262.588 30.0299 262.642 30.032 262.696 30.0342C264.163 30.0932 266.02 30.2093 268.587 31.6119Z" fill="white" stroke="#515765" stroke-width="0.5"/>
<path d="M119.067 125.906L119.067 125.906L119.077 126.057L119.217 126.118C124.186 128.271 125.339 130.385 125.493 132.091C125.563 132.862 125.434 133.57 125.315 134.222C125.298 134.312 125.282 134.401 125.266 134.489C125.204 134.843 125.152 135.19 125.163 135.506C125.175 135.827 125.252 136.135 125.463 136.398C125.83 136.856 126.231 137.093 126.682 137.216C127.085 137.325 127.527 137.342 127.994 137.36C128.032 137.362 128.071 137.363 128.111 137.365C129.137 137.407 130.43 137.488 132.218 138.462C133.992 139.429 134.612 140.62 134.805 141.548C134.902 142.017 134.892 142.428 134.858 142.72C134.844 142.833 134.828 142.927 134.812 143H51.2939C51.5121 142.846 51.7768 142.66 52.0729 142.452C52.9072 141.868 53.9906 141.118 54.989 140.452C55.9079 139.839 57.1637 139.826 58.4537 139.992C58.9716 140.058 59.4817 140.152 59.9673 140.241C60.0818 140.262 60.1949 140.282 60.3065 140.302C60.8829 140.406 61.4259 140.494 61.8677 140.494C62.8094 140.494 63.2937 139.916 63.9169 139.173C63.9338 139.152 63.9508 139.132 63.9679 139.112C64.6267 138.326 65.5256 137.264 67.3386 136.115C69.0853 135.007 70.9168 135.31 72.7472 135.85C73.086 135.95 73.4292 136.059 73.7714 136.168C74.3357 136.348 74.8973 136.528 75.4325 136.661C76.3012 136.879 77.1599 136.994 77.9663 136.815C78.7956 136.63 79.308 136.161 79.66 135.542C79.9869 134.967 80.1801 134.253 80.3763 133.527C80.3855 133.493 80.3947 133.459 80.4039 133.425C80.8224 131.88 81.3064 130.218 83.054 129.105C83.9408 128.541 84.6488 128.349 85.2644 128.329C85.8872 128.31 86.435 128.464 87.0227 128.632L87.0361 128.636C87.612 128.801 88.2277 128.977 88.9342 128.954C89.6534 128.932 90.4475 128.705 91.3974 128.1C92.3986 127.463 92.8782 126.337 93.2641 125.104C93.3733 124.755 93.4753 124.397 93.5788 124.033C93.849 123.085 94.1296 122.099 94.5751 121.148C95.1835 119.848 96.0897 118.642 97.6712 117.776C99.2583 116.907 101.548 116.368 104.946 116.452C111.731 116.619 115.248 119.014 117.074 121.327C117.991 122.488 118.49 123.638 118.759 124.497C118.894 124.926 118.971 125.282 119.014 125.529C119.036 125.652 119.049 125.749 119.057 125.813C119.061 125.845 119.063 125.869 119.065 125.885L119.066 125.902L119.067 125.906L119.067 125.906Z" fill="white" stroke="#515765" stroke-width="0.5"/>
<path d="M286.865 244.671L286.865 244.671C287.063 247.875 286.032 251.005 284.964 253.986C284.887 254.203 284.808 254.42 284.731 254.636C284.278 255.893 283.834 257.123 283.501 258.306C283.111 259.694 282.866 261.037 282.936 262.312C283.211 267.292 284.385 269.523 285.628 271.31C285.812 271.576 285.997 271.83 286.179 272.081C287.17 273.445 288.088 274.708 288.524 277.162H236.771H236.766L235.68 277.122C235.743 275.127 236.069 273.751 236.525 272.66C236.953 271.635 237.498 270.853 238.074 270.026C238.139 269.933 238.204 269.839 238.27 269.744C238.917 268.81 239.579 267.794 240.096 266.331C240.613 264.87 240.981 262.975 241.06 260.279C241.098 259.006 240.82 257.678 240.396 256.311C240.031 255.14 239.555 253.926 239.068 252.687C238.987 252.482 238.906 252.276 238.825 252.069C237.683 249.147 236.573 246.081 236.687 242.902L236.437 242.893L236.687 242.902C236.777 240.366 238.017 237.761 239.33 235.004L239.438 234.776C240.779 231.957 242.157 228.99 242.287 225.879C242.402 223.137 241.323 220.289 240.248 217.45L240.165 217.23C239.053 214.294 237.974 211.361 238.111 208.453C238.244 205.717 239.584 202.993 240.969 200.18L240.979 200.159C242.355 197.362 243.77 194.48 243.934 191.504L243.685 191.491L243.934 191.504C244.092 188.628 243.027 185.678 241.981 182.78L241.948 182.691C240.883 179.74 239.849 176.842 240.022 174.02C240.195 171.199 241.589 168.453 243.027 165.659L243.09 165.536C244.496 162.805 245.926 160.027 246.141 157.172L246.141 157.172C246.364 154.196 245.341 151.151 244.349 148.199L244.346 148.19C243.345 145.21 242.378 142.329 242.624 139.599C242.886 136.691 244.364 133.941 245.885 131.196C245.939 131.1 245.992 131.003 246.046 130.907C247.502 128.281 248.962 125.651 249.262 122.959C249.61 119.854 248.722 116.687 247.866 113.682L247.836 113.578C246.984 110.587 246.182 107.773 246.559 105.244C247.036 102.063 248.721 99.2874 250.457 96.6914C250.674 96.3672 250.891 96.0453 251.108 95.7258C251.753 94.7727 252.384 93.8401 252.932 92.926C253.664 91.7038 254.26 90.4945 254.553 89.2786L254.553 89.2785C255.117 86.9282 255.583 84.6403 256.01 82.5431L256.012 82.5323C256.441 80.4297 256.829 78.5229 257.24 76.929C257.651 75.3297 258.079 74.0718 258.576 73.2539C258.823 72.8463 259.078 72.5655 259.34 72.4023C259.595 72.2438 259.866 72.1899 260.174 72.2513C260.738 72.3645 261.199 72.8925 261.595 73.9002C261.987 74.8955 262.282 76.2751 262.567 77.9384C262.708 78.7582 262.845 79.6444 262.991 80.5818C263.433 83.429 263.949 86.7478 264.841 90.1079C265.167 91.3376 265.797 92.5509 266.564 93.7718C267.146 94.6975 267.813 95.6383 268.494 96.5988C268.711 96.9037 268.929 97.2107 269.145 97.5197C270.954 100.098 272.717 102.848 273.279 106.025C273.729 108.586 273.005 111.462 272.236 114.514L272.219 114.581C271.45 117.633 270.65 120.846 271.07 123.961L271.07 123.962C271.447 126.672 272.978 129.29 274.505 131.902C274.562 131.999 274.619 132.096 274.675 132.193C276.27 134.923 277.822 137.661 278.161 140.586L278.161 140.586C278.483 143.333 277.595 146.265 276.676 149.296L276.673 149.306C275.762 152.309 274.823 155.405 275.129 158.398L275.129 158.398C275.432 161.273 276.936 164.041 278.415 166.762L278.481 166.882C279.992 169.664 281.46 172.4 281.718 175.238C281.976 178.076 281.021 181.021 280.033 184.024L280.001 184.123C279.031 187.071 278.042 190.075 278.275 192.985L278.275 192.986C278.531 195.985 280.021 198.858 281.467 201.646L281.468 201.648C282.926 204.457 284.337 207.178 284.543 209.942C284.74 212.872 283.739 215.858 282.711 218.849L282.643 219.044C281.645 221.946 280.643 224.858 280.828 227.632C281.038 230.767 282.491 233.727 283.904 236.538L284.02 236.77C285.403 239.519 286.709 242.116 286.865 244.671Z" fill="white" stroke="#515765" stroke-width="0.5"/>
<path d="M259.111 89.113V275.007" stroke="#515765" stroke-width="0.5" stroke-miterlimit="10"/>
<path d="M267.24 108.6L258.765 115.922L251.83 106.673" stroke="#515765" stroke-width="0.5" stroke-miterlimit="10"/>
<path d="M267.24 140.961L258.765 148.275L251.83 139.033" stroke="#515765" stroke-width="0.5" stroke-miterlimit="10"/>
<path d="M267.24 171.386L258.765 178.708L251.83 169.458" stroke="#515765" stroke-width="0.5" stroke-miterlimit="10"/>
<path d="M267.24 207.601L258.765 214.914L251.83 205.673" stroke="#515765" stroke-width="0.5" stroke-miterlimit="10"/>
<path d="M267.24 244.195L258.765 251.509L251.83 242.268" stroke="#515765" stroke-width="0.5" stroke-miterlimit="10"/>
<path d="M233.223 171.769L233.223 171.769C232.963 169.527 231.772 167.426 230.54 165.318C230.496 165.244 230.453 165.17 230.409 165.095C229.232 163.083 228.045 161.053 227.755 158.95C227.418 156.53 228.039 154.038 228.633 151.684L228.649 151.621C229.245 149.266 229.801 147.064 229.453 145.106L229.453 145.106C229.023 142.666 227.67 140.55 226.275 138.559C226.108 138.321 225.941 138.085 225.774 137.849C225.248 137.107 224.733 136.379 224.284 135.663C223.691 134.719 223.203 133.777 222.951 132.821C222.259 130.223 221.86 127.653 221.518 125.452C221.406 124.732 221.3 124.05 221.192 123.421C220.972 122.136 220.744 121.075 220.444 120.312C220.139 119.537 219.793 119.155 219.388 119.075L219.388 119.075C219.164 119.03 218.969 119.068 218.784 119.183C218.592 119.302 218.401 119.51 218.212 119.821C217.833 120.444 217.505 121.407 217.188 122.642C216.871 123.871 216.572 125.342 216.242 126.966L216.236 126.994C215.908 128.609 215.55 130.371 215.117 132.181L215.117 132.182C214.89 133.128 214.427 134.067 213.86 135.013C213.437 135.719 212.949 136.44 212.451 137.176C212.283 137.424 212.114 137.673 211.947 137.924C210.606 139.93 209.31 142.067 208.944 144.515C208.656 146.456 209.271 148.618 209.93 150.932L209.951 151.006C210.611 153.322 211.299 155.777 211.029 158.186C210.796 160.275 209.668 162.306 208.548 164.324C208.505 164.401 208.462 164.478 208.419 164.556C207.245 166.672 206.111 168.784 205.907 171.029L233.223 171.769ZM233.223 171.769C233.471 173.882 232.792 176.135 232.081 178.478L232.075 178.498C231.374 180.81 230.648 183.207 230.884 185.528C231.109 187.76 232.277 189.91 233.418 192.009L233.465 192.096C234.633 194.246 235.761 196.347 235.957 198.522C236.153 200.697 235.417 202.937 234.651 205.249L234.639 205.286C233.884 207.563 233.107 209.909 233.297 212.225C233.487 214.554 234.643 216.78 235.76 218.929L235.762 218.933C236.89 221.103 237.975 223.191 238.131 225.311C238.296 227.549 237.528 229.843 236.729 232.156L236.67 232.329C235.899 234.562 235.12 236.818 235.265 238.965C235.429 241.408 236.556 243.717 237.646 245.893L237.744 246.089C238.81 248.215 239.806 250.204 239.926 252.142C240.075 254.604 239.283 257.005 238.459 259.305C238.401 259.466 238.343 259.628 238.285 259.788C237.934 260.764 237.589 261.721 237.33 262.643C237.029 263.718 236.84 264.764 236.895 265.763C237.108 269.615 238.017 271.34 238.981 272.724C239.123 272.928 239.264 273.122 239.404 273.313C240.16 274.353 240.856 275.31 241.198 277.162H201.313H201.309L200.552 277.137C200.605 275.639 200.853 274.602 201.197 273.777C201.525 272.992 201.942 272.391 202.388 271.75C202.438 271.679 202.488 271.607 202.538 271.534C203.038 270.811 203.553 270.021 203.955 268.886C204.357 267.752 204.643 266.287 204.705 264.209C204.735 263.219 204.518 262.188 204.189 261.132C203.908 260.227 203.539 259.289 203.163 258.334C203.101 258.174 203.038 258.014 202.975 257.853C202.092 255.596 201.239 253.239 201.328 250.801L201.078 250.792L201.328 250.801C201.398 248.857 202.35 246.848 203.366 244.705L203.448 244.533C204.482 242.349 205.551 240.039 205.652 237.625L205.652 237.624C205.739 235.497 204.903 233.291 204.076 231.106L204.007 230.924C203.149 228.656 202.323 226.405 202.431 224.176L202.431 224.176C202.532 222.071 203.558 219.945 204.626 217.752L204.655 217.693C205.703 215.541 206.782 213.326 206.92 211.092C207.059 208.856 206.224 206.563 205.41 204.325L205.388 204.263C204.558 201.981 203.757 199.755 203.897 197.593C204.037 195.431 205.108 193.323 206.219 191.164L206.263 191.078C207.347 188.97 208.458 186.812 208.625 184.591L208.625 184.591M233.223 171.769L208.625 184.591M208.625 184.591C208.798 182.283 208.004 179.922 207.239 177.648M208.625 184.591L207.239 177.648M207.239 177.648L207.235 177.636M207.239 177.648L207.235 177.636M207.235 177.636C206.46 175.333 205.719 173.121 205.906 171.03L207.235 177.636Z" fill="white" stroke="#515765" stroke-width="0.5"/>
<path d="M218.564 132.066V275.559" stroke="#515765" stroke-width="0.5" stroke-miterlimit="10"/>
<path d="M224.832 147.105L218.292 152.755L212.938 145.614" stroke="#515765" stroke-width="0.5" stroke-miterlimit="10"/>
<path d="M224.832 172.078L218.292 177.728L212.938 170.595" stroke="#515765" stroke-width="0.5" stroke-miterlimit="10"/>
<path d="M224.832 195.567L218.292 201.218L212.938 194.085" stroke="#515765" stroke-width="0.5" stroke-miterlimit="10"/>
<path d="M224.832 223.522L218.292 229.172L212.938 222.031" stroke="#515765" stroke-width="0.5" stroke-miterlimit="10"/>
<path d="M224.832 251.772L218.292 257.414L212.938 250.281" stroke="#515765" stroke-width="0.5" stroke-miterlimit="10"/>
<path d="M165.489 277.024V110.502H174.277V277.024" fill="#515765"/>
<path d="M165.489 277.024V110.502H174.277V277.024" stroke="#515765" stroke-width="0.5" stroke-linecap="round" stroke-linejoin="round"/>
<path d="M161.098 277.024V110.502H169.887V277.024" fill="white"/>
<path d="M161.098 277.024V110.502H169.887V277.024" stroke="#515765" stroke-width="0.5" stroke-linecap="round" stroke-linejoin="round"/>
<g style="mix-blend-mode:multiply" opacity="0.3">
<path d="M169.887 110.502H161.098V130.27H169.887V110.502Z" fill="#515765"/>
</g>
<path d="M198.599 45.4934H133.482L161.865 115.206H226.989V73.8758C226.989 70.1479 226.255 66.4565 224.828 63.0124C223.401 59.5684 221.31 56.4392 218.673 53.8035C216.037 51.1679 212.907 49.0774 209.463 47.6515C206.018 46.2257 202.327 45.4923 198.599 45.4934Z" fill="white" stroke="#515765" stroke-width="0.5" stroke-linecap="round" stroke-linejoin="round"/>
<g style="mix-blend-mode:multiply" opacity="0.3">
<path d="M156.898 102.999L161.84 115.206H226.989V73.8758C226.989 73.2498 226.989 72.6238 226.923 72.0061H156.914L156.898 102.999Z" fill="#515765"/>
</g>
<path d="M198.121 72.0061H191.268" stroke="#515765" stroke-width="0.5" stroke-linecap="round" stroke-linejoin="round"/>
<path d="M226.923 72.0061H206.184" stroke="#515765" stroke-width="0.5" stroke-linecap="round" stroke-linejoin="round"/>
<path d="M133.482 45.4934C141.012 45.4934 148.233 48.4846 153.557 53.8088C158.882 59.1331 161.873 66.3544 161.873 73.884V115.214H105.092V73.8758C105.094 66.3476 108.086 59.1284 113.41 53.8059C118.734 48.4834 125.954 45.4934 133.482 45.4934Z" fill="#515765" stroke="#515765" stroke-width="0.5" stroke-linecap="round" stroke-linejoin="round"/>
<path d="M161.865 110.502H112.941V115.205H161.865V110.502Z" fill="white" stroke="#515765" stroke-width="0.5" stroke-linecap="round" stroke-linejoin="round"/>
<path d="M161.865 110.502H60.6155V115.205H161.865V110.502Z" fill="white" stroke="#515765" stroke-width="0.5" stroke-linecap="round" stroke-linejoin="round"/>
<path opacity="0.3" d="M161.865 110.502H112.941V115.205H161.865V110.502Z" fill="#515765"/>
<path d="M202.832 28.6909H182.513V42.9645H202.832V28.6909Z" fill="#515765" stroke="#515765" stroke-width="0.5" stroke-linecap="round" stroke-linejoin="round"/>
<path d="M184.16 28.6909H179.771V73.1671H184.16V28.6909Z" fill="white" stroke="#515765" stroke-width="0.5" stroke-linecap="round" stroke-linejoin="round"/>
<path d="M181.961 79.2041C184.691 79.2041 186.903 76.9916 186.903 74.2624C186.903 71.5331 184.691 69.3206 181.961 69.3206C179.232 69.3206 177.02 71.5331 177.02 74.2624C177.02 76.9916 179.232 79.2041 181.961 79.2041Z" fill="#515765" stroke="#515765" stroke-width="0.5" stroke-linecap="round" stroke-linejoin="round"/>
<path d="M109.49 56.9087C120.955 62.7318 140.887 72.0635 159.27 76.7582" stroke="white" stroke-width="0.5" stroke-linecap="round" stroke-linejoin="round" stroke-dasharray="2 4"/>
<path d="M99.8701 51.8433C99.8701 51.8433 103.544 53.9188 109.49 56.9415" stroke="#515765" stroke-width="0.5" stroke-linecap="round" stroke-linejoin="round" stroke-dasharray="2 4"/>
<path d="M95.7436 51.5385L103.988 31.9525L44.2007 17.366L95.7436 51.5385Z" fill="white" stroke="#515765" stroke-width="0.5" stroke-linecap="round" stroke-linejoin="round"/>
<path d="M99.7629 34.3246L95.7436 51.5385L44.2007 17.366L99.7629 34.3246Z" fill="white" stroke="#515765" stroke-width="0.5" stroke-linecap="round" stroke-linejoin="round"/>
<path d="M99.7629 34.3246L90.3818 42.3632L44.2007 17.366L99.7629 34.3246Z" fill="white" stroke="#515765" stroke-width="0.5" stroke-linecap="round" stroke-linejoin="round"/>
<path d="M103.988 31.9525L112.34 28.5591L44.2007 17.366L103.988 31.9525Z" fill="white" stroke="#515765" stroke-width="0.5" stroke-linecap="round" stroke-linejoin="round"/>
<path d="M84.1304 48.4912L86.0659 49.6772" stroke="#515765" stroke-width="0.5" stroke-linecap="round" stroke-linejoin="round"/>
<path d="M73.5715 42.0173L80.0535 45.9872" stroke="#515765" stroke-width="0.5" stroke-linecap="round" stroke-linejoin="round"/>
<path d="M66.2905 89.0305V67.7891L127.058 77.5573L66.2905 89.0305Z" fill="white" stroke="#515765" stroke-width="0.5" stroke-linecap="round" stroke-linejoin="round"/>
<path d="M69.2638 71.6104L66.2905 89.0302L127.058 77.557L69.2638 71.6104Z" fill="white" stroke="#515765" stroke-width="0.5" stroke-linecap="round" stroke-linejoin="round"/>
<path d="M69.2637 71.6104L74.7903 82.6553L127.058 77.557L69.2637 71.6104Z" fill="white" stroke="#515765" stroke-width="0.5" stroke-linecap="round" stroke-linejoin="round"/>
<path d="M66.2904 67.7892L59.9155 61.4143L127.058 77.5575L66.2904 67.7892Z" fill="white" stroke="#515765" stroke-width="0.5" stroke-linecap="round" stroke-linejoin="round"/>
<path d="M88.051 88.6352L93.3223 87.5645" stroke="#515765" stroke-width="0.5" stroke-linecap="round" stroke-linejoin="round"/>
<path d="M69.5356 92.3991L82.7879 89.7058" stroke="#515765" stroke-width="0.5" stroke-linecap="round" stroke-linejoin="round"/>
<path d="M58.9684 87.7209C58.9684 87.7209 11.1978 95.9573 2.1378 138.786C-6.92215 181.615 40.8485 184.086 49.0849 163.495C57.3212 142.904 21.0814 134.668 12.845 154.435C4.6087 174.202 29.3177 207.971 63.0866 209.619C91.1478 210.986 169.821 178.23 218.753 169.952C218.753 169.952 254.993 159.921 311 162.12" stroke="#515765" stroke-width="0.5" stroke-linecap="round" stroke-linejoin="round" stroke-dasharray="2 4"/>
<path d="M294.799 221.973H308.529" stroke="#515765" stroke-width="0.5" stroke-linecap="round" stroke-linejoin="round"/>
<path d="M294.799 242.284H308.529" stroke="#515765" stroke-width="0.5" stroke-linecap="round" stroke-linejoin="round"/>
<path d="M5.7041 241.74H293.152V222.516H5.7041" fill="white"/>
<path d="M5.7041 241.74H293.152V222.516H5.7041" stroke="#515765" stroke-width="0.5" stroke-linecap="round" stroke-linejoin="round"/>
<path d="M25.6855 277.156V180.445C25.6857 180.208 25.734 179.974 25.8274 179.755C25.9208 179.537 26.0575 179.341 26.2291 179.177L33.7407 172.102C34.0789 171.786 34.5285 171.616 34.9914 171.63C35.4543 171.644 35.8929 171.84 36.2116 172.176L42.8006 179.185C43.0996 179.511 43.2668 179.937 43.2701 180.38V277.156" fill="#515765"/>
<path d="M25.6855 277.156V180.445C25.6857 180.208 25.734 179.974 25.8274 179.755C25.9208 179.537 26.0575 179.341 26.2291 179.177L33.7407 172.102C34.0789 171.786 34.5285 171.616 34.9914 171.63C35.4543 171.644 35.8929 171.84 36.2116 172.176L42.8006 179.185C43.0996 179.511 43.2668 179.937 43.2701 180.38V277.156" stroke="#515765" stroke-width="0.5" stroke-linecap="round" stroke-linejoin="round"/>
<path d="M23.5525 277.98V180.445C23.5523 180.207 23.6011 179.972 23.6961 179.754C23.791 179.535 23.93 179.339 24.1043 179.177L31.6159 172.102C31.7828 171.944 31.9793 171.821 32.1939 171.74C32.4085 171.658 32.6372 171.62 32.8667 171.627C33.0962 171.633 33.3221 171.685 33.5315 171.78C33.7408 171.874 33.9295 172.009 34.0868 172.176L40.6758 179.185C40.9782 179.509 41.146 179.936 41.1453 180.379V277.98" fill="white"/>
<path d="M23.5525 277.98V180.445C23.5523 180.207 23.6011 179.972 23.6961 179.754C23.791 179.535 23.93 179.339 24.1043 179.177L31.6159 172.102C31.7828 171.944 31.9793 171.821 32.1939 171.74C32.4085 171.658 32.6372 171.62 32.8667 171.627C33.0962 171.633 33.3221 171.685 33.5315 171.78C33.7408 171.874 33.9295 172.009 34.0868 172.176L40.6758 179.185C40.9782 179.509 41.146 179.936 41.1453 180.379V277.98" stroke="#515765" stroke-width="0.5" stroke-linecap="round" stroke-linejoin="round"/>
<path d="M89.0227 277.156V180.445C89.0229 180.208 89.0711 179.973 89.1645 179.755C89.258 179.537 89.3946 179.341 89.5663 179.177L97.0861 172.102C97.2531 171.944 97.4495 171.821 97.6641 171.74C97.8788 171.658 98.1074 171.62 98.3369 171.627C98.5664 171.633 98.7923 171.685 99.0017 171.78C99.211 171.874 99.3997 172.009 99.557 172.176L106.146 179.185C106.448 179.509 106.616 179.936 106.615 180.379V277.156" fill="#515765"/>
<path d="M89.0227 277.156V180.445C89.0229 180.208 89.0711 179.973 89.1645 179.755C89.258 179.537 89.3946 179.341 89.5663 179.177L97.0861 172.102C97.2531 171.944 97.4495 171.821 97.6641 171.74C97.8788 171.658 98.1074 171.62 98.3369 171.627C98.5664 171.633 98.7923 171.685 99.0017 171.78C99.211 171.874 99.3997 172.009 99.557 172.176L106.146 179.185C106.448 179.509 106.616 179.936 106.615 180.379V277.156" stroke="#515765" stroke-width="0.5" stroke-linecap="round" stroke-linejoin="round"/>
<path d="M87.2439 277.98V180.445C87.2437 180.207 87.2925 179.972 87.3875 179.754C87.4824 179.535 87.6214 179.339 87.7957 179.177L95.3073 172.102C95.6455 171.786 96.0951 171.616 96.558 171.63C97.0209 171.644 97.4595 171.84 97.7782 172.176L104.367 179.185C104.672 179.508 104.843 179.935 104.845 180.38V277.98" fill="white"/>
<path d="M87.2439 277.98V180.445C87.2437 180.207 87.2925 179.972 87.3875 179.754C87.4824 179.535 87.6214 179.339 87.7957 179.177L95.3073 172.102C95.6455 171.786 96.0951 171.616 96.558 171.63C97.0209 171.644 97.4595 171.84 97.7782 172.176L104.367 179.185C104.672 179.508 104.843 179.935 104.845 180.38V277.98" stroke="#515765" stroke-width="0.5" stroke-linecap="round" stroke-linejoin="round"/>
<path d="M152.714 277.156V180.445C152.714 180.207 152.763 179.972 152.858 179.754C152.953 179.535 153.092 179.339 153.266 179.177L160.778 172.102C161.116 171.786 161.566 171.616 162.028 171.63C162.491 171.644 162.93 171.84 163.249 172.176L169.838 179.185C170.142 179.508 170.313 179.935 170.315 180.38V277.98" fill="#515765"/>
<path d="M152.714 277.156V180.445C152.714 180.207 152.763 179.972 152.858 179.754C152.953 179.535 153.092 179.339 153.266 179.177L160.778 172.102C161.116 171.786 161.566 171.616 162.028 171.63C162.491 171.644 162.93 171.84 163.249 172.176L169.838 179.185C170.142 179.508 170.313 179.935 170.315 180.38V277.98" stroke="#515765" stroke-width="0.5" stroke-linecap="round" stroke-linejoin="round"/>
<path d="M150.944 277.98V180.445C150.944 180.208 150.992 179.973 151.085 179.755C151.179 179.537 151.316 179.341 151.487 179.177L159.007 172.102C159.174 171.944 159.37 171.821 159.585 171.74C159.8 171.658 160.028 171.62 160.258 171.627C160.487 171.633 160.713 171.685 160.923 171.78C161.132 171.874 161.321 172.009 161.478 172.176L168.067 179.185C168.369 179.509 168.537 179.936 168.536 180.379V277.98" fill="white"/>
<path d="M150.944 277.98V180.445C150.944 180.208 150.992 179.973 151.085 179.755C151.179 179.537 151.316 179.341 151.487 179.177L159.007 172.102C159.174 171.944 159.37 171.821 159.585 171.74C159.8 171.658 160.028 171.62 160.258 171.627C160.487 171.633 160.713 171.685 160.923 171.78C161.132 171.874 161.321 172.009 161.478 172.176L168.067 179.185C168.369 179.509 168.537 179.936 168.536 180.379V277.98" stroke="#515765" stroke-width="0.5" stroke-linecap="round" stroke-linejoin="round"/>
<path d="M216.414 277.156V180.445C216.414 180.208 216.462 179.974 216.556 179.755C216.649 179.537 216.786 179.341 216.958 179.177L224.469 172.102C224.807 171.786 225.257 171.616 225.72 171.63C226.183 171.644 226.621 171.84 226.94 172.176L233.529 179.185C233.828 179.511 233.995 179.937 233.999 180.38V277.156" fill="#515765"/>
<path d="M216.414 277.156V180.445C216.414 180.208 216.462 179.974 216.556 179.755C216.649 179.537 216.786 179.341 216.958 179.177L224.469 172.102C224.807 171.786 225.257 171.616 225.72 171.63C226.183 171.644 226.621 171.84 226.94 172.176L233.529 179.185C233.828 179.511 233.995 179.937 233.999 180.38V277.156" stroke="#515765" stroke-width="0.5" stroke-linecap="round" stroke-linejoin="round"/>
<path d="M214.635 277.98V180.445C214.635 180.207 214.684 179.972 214.779 179.754C214.874 179.535 215.013 179.339 215.187 179.177L222.698 172.102C222.865 171.944 223.062 171.821 223.276 171.74C223.491 171.658 223.72 171.62 223.949 171.627C224.179 171.633 224.405 171.685 224.614 171.78C224.823 171.874 225.012 172.009 225.169 172.176L231.758 179.185C232.061 179.509 232.229 179.936 232.228 180.379V277.98" fill="white"/>
<path d="M214.635 277.98V180.445C214.635 180.207 214.684 179.972 214.779 179.754C214.874 179.535 215.013 179.339 215.187 179.177L222.698 172.102C222.865 171.944 223.062 171.821 223.276 171.74C223.491 171.658 223.72 171.62 223.949 171.627C224.179 171.633 224.405 171.685 224.614 171.78C224.823 171.874 225.012 172.009 225.169 172.176L231.758 179.185C232.061 179.509 232.229 179.936 232.228 180.379V277.98" stroke="#515765" stroke-width="0.5" stroke-linecap="round" stroke-linejoin="round"/>
<path d="M280.105 277.156V180.445C280.106 180.208 280.154 179.973 280.247 179.755C280.341 179.537 280.477 179.341 280.649 179.177L288.169 172.102C288.336 171.944 288.532 171.821 288.747 171.74C288.962 171.658 289.19 171.62 289.42 171.627C289.649 171.633 289.875 171.685 290.084 171.78C290.294 171.874 290.482 172.009 290.64 172.176L297.229 179.185C297.531 179.509 297.699 179.936 297.698 180.379V277.156" fill="#515765"/>
<path d="M280.105 277.156V180.445C280.106 180.208 280.154 179.973 280.247 179.755C280.341 179.537 280.477 179.341 280.649 179.177L288.169 172.102C288.336 171.944 288.532 171.821 288.747 171.74C288.962 171.658 289.19 171.62 289.42 171.627C289.649 171.633 289.875 171.685 290.084 171.78C290.294 171.874 290.482 172.009 290.64 172.176L297.229 179.185C297.531 179.509 297.699 179.936 297.698 180.379V277.156" stroke="#515765" stroke-width="0.5" stroke-linecap="round" stroke-linejoin="round"/>
<path d="M278.326 277.98V180.445C278.326 180.207 278.375 179.972 278.47 179.754C278.565 179.535 278.704 179.339 278.878 179.177L286.39 172.102C286.728 171.786 287.178 171.616 287.641 171.63C288.103 171.644 288.542 171.84 288.861 172.176L295.45 179.185C295.754 179.508 295.925 179.935 295.927 180.38V277.98" fill="white"/>
<path d="M278.326 277.98V180.445C278.326 180.207 278.375 179.972 278.47 179.754C278.565 179.535 278.704 179.339 278.878 179.177L286.39 172.102C286.728 171.786 287.178 171.616 287.641 171.63C288.103 171.644 288.542 171.84 288.861 172.176L295.45 179.185C295.754 179.508 295.925 179.935 295.927 180.38V277.98" stroke="#515765" stroke-width="0.5" stroke-linecap="round" stroke-linejoin="round"/>
<path d="M34.0781 172.176V179.227" stroke="#515765" stroke-width="0.5" stroke-linecap="round" stroke-linejoin="round"/>
<path d="M36.9036 175.817V192.503" stroke="#515765" stroke-width="0.5" stroke-linecap="round" stroke-linejoin="round"/>
<path d="M90.7114 177.184V198.294" stroke="#515765" stroke-width="0.5" stroke-linecap="round" stroke-linejoin="round"/>
<path d="M93.4375 174.458V183.649" stroke="#515765" stroke-width="0.5" stroke-linecap="round" stroke-linejoin="round"/>
<path d="M159.007 172.102V192.849" stroke="#515765" stroke-width="0.5" stroke-linecap="round" stroke-linejoin="round"/>
<path d="M162.919 173.774V204.429" stroke="#515765" stroke-width="0.5" stroke-linecap="round" stroke-linejoin="round"/>
<path d="M217.748 177.184V200.336" stroke="#515765" stroke-width="0.5" stroke-linecap="round" stroke-linejoin="round"/>
<path d="M226.602 174.458V180.248" stroke="#515765" stroke-width="0.5" stroke-linecap="round" stroke-linejoin="round"/>
<path d="M284.158 174.112V186.375" stroke="#515765" stroke-width="0.5" stroke-linecap="round" stroke-linejoin="round"/>
<path d="M291.653 175.479V210.895" stroke="#515765" stroke-width="0.5" stroke-linecap="round" stroke-linejoin="round"/>
<path d="M278.03 227.244H270.535" stroke="#515765" stroke-width="0.5" stroke-linecap="round" stroke-linejoin="round"/>
<path d="M278.03 233.034H251.806" stroke="#515765" stroke-width="0.5" stroke-linecap="round" stroke-linejoin="round"/>
<path d="M180.281 233.034H168.364" stroke="#515765" stroke-width="0.5" stroke-linecap="round" stroke-linejoin="round"/>
<path d="M117.619 233.034H105.701" stroke="#515765" stroke-width="0.5" stroke-linecap="round" stroke-linejoin="round"/>
<path d="M23.2805 229.97H11.3625" stroke="#515765" stroke-width="0.5" stroke-linecap="round" stroke-linejoin="round"/>
<path d="M23.2806 235.415H18.5117" stroke="#515765" stroke-width="0.5" stroke-linecap="round" stroke-linejoin="round"/>
<path d="M174.154 229.97H168.364" stroke="#515765" stroke-width="0.5" stroke-linecap="round" stroke-linejoin="round"/>
<path d="M110.808 236.436H105.018" stroke="#515765" stroke-width="0.5" stroke-linecap="round" stroke-linejoin="round"/>
<path d="M86.6261 236.436H80.8359" stroke="#515765" stroke-width="0.5" stroke-linecap="round" stroke-linejoin="round"/>
<path d="M301.182 233.034H296.076" stroke="#515765" stroke-width="0.5" stroke-linecap="round" stroke-linejoin="round"/>
<path d="M307.994 233.034H304.93" stroke="#515765" stroke-width="0.5" stroke-linecap="round" stroke-linejoin="round"/>
<path d="M40.8486 197.626C40.8486 197.626 38.7895 215.326 36.3186 233.438C33.8477 251.55 38.3777 270.081 39.6131 271.729" stroke="#515765" stroke-width="0.5" stroke-linecap="round" stroke-linejoin="round"/>
<path d="M32.7029 233.454C33.0982 229.921 33.4277 227.689 33.4277 227.689" stroke="#515765" stroke-width="0.5" stroke-linecap="round" stroke-linejoin="round"/>
<path d="M38.7813 269.669C38.7813 269.669 31.3687 268.022 31.3687 254.844C31.3687 249.433 31.7146 243.89 32.1264 239.195" stroke="#515765" stroke-width="0.5" stroke-linecap="round" stroke-linejoin="round"/>
<path d="M100.973 176.624C100.973 176.624 102.621 177.859 99.738 191.861C96.8553 205.863 97.2671 226.454 100.973 237.984" stroke="#515765" stroke-width="0.5" stroke-linecap="round" stroke-linejoin="round"/>
<path d="M105.092 202.568C105.092 202.568 100.974 214.923 103.856 232.219" stroke="#515765" stroke-width="0.5" stroke-linecap="round" stroke-linejoin="round"/>
<path d="M152.039 210.385C152.039 210.385 154.098 222.327 156.157 234.673C158.216 247.02 156.569 264.324 154.922 268.846C153.274 273.368 151.627 277.082 151.627 277.082" stroke="#515765" stroke-width="0.5" stroke-linecap="round" stroke-linejoin="round"/>
<path d="M159.798 271.028C157.961 276.662 155.679 270.081 155.679 270.081" stroke="#515765" stroke-width="0.5" stroke-linecap="round" stroke-linejoin="round"/>
<path d="M159.724 228.924C159.724 228.924 163.603 248.947 161.412 264.019" stroke="#515765" stroke-width="0.5" stroke-linecap="round" stroke-linejoin="round"/>
<path d="M151.215 235.513C151.215 235.513 155.333 244.161 151.627 252.398" stroke="#515765" stroke-width="0.5" stroke-linecap="round" stroke-linejoin="round"/>
<path d="M228.06 236.732C228.612 239.25 229.335 241.727 230.226 244.145" stroke="#515765" stroke-width="0.5" stroke-linecap="round" stroke-linejoin="round"/>
<path d="M231.462 193.92C228.849 202.215 227.191 210.781 226.52 219.453C226.274 223.84 226.52 228.241 227.253 232.573" stroke="#515765" stroke-width="0.5" stroke-linecap="round" stroke-linejoin="round"/>
<path d="M223.637 231.791C223.637 231.791 227.344 245.792 229.403 250.734C231.462 255.676 230.638 267.61 228.167 273.376" stroke="#515765" stroke-width="0.5" stroke-linecap="round" stroke-linejoin="round"/>
<path d="M279.216 200.097C279.216 200.097 287.452 214.922 279.628 239.211" stroke="#515765" stroke-width="0.5" stroke-linecap="round" stroke-linejoin="round"/>
<path d="M286.785 225.416C286.835 230.045 286.423 235.909 284.57 240.851C280.863 250.734 279.216 254.029 279.216 254.029" stroke="#515765" stroke-width="0.5" stroke-linecap="round" stroke-linejoin="round"/>
<path d="M286.217 217.394C286.217 217.394 286.489 219.164 286.654 221.891" stroke="#515765" stroke-width="0.5" stroke-linecap="round" stroke-linejoin="round"/>
</svg>
